<svg width="24" height="24" viewBox="0 0 24 24" fill="none" xmlns="http://www.w3.org/2000/svg">
<path d="M5.03963 15.107C4.87891 15.2206 4.73629 15.3358 4.6239 15.4482C3.71639 16.3557 3.40233 17.5453 3.29849 18.4346C3.24559 18.8877 3.24425 19.2876 3.25603 19.575C3.26194 19.7194 3.36743 20.538 3.37555 20.6218C3.45931 20.6299 4.27795 20.7354 4.42229 20.7413C4.70978 20.7531 5.1096 20.7518 5.56271 20.6988C6.45199 20.595 7.64165 20.2809 8.54916 19.3734C8.66155 19.261 8.77672 19.1184 8.89038 18.9577L8.89038 18.9577C8.96521 18.8519 9.00263 18.799 9.11052 18.5356C9.35428 17.9405 9.25786 16.8081 8.91699 16.2628C8.76611 16.0215 8.63441 15.8897 8.371 15.6263C8.10759 15.3629 7.97588 15.2312 7.73452 15.0803C7.1892 14.7395 6.05688 14.6431 5.46177 14.8868C5.19837 14.9947 5.14546 15.0321 5.03963 15.107Z" fill="#00313E"/>
<path fill-rule="evenodd" clip-rule="evenodd" d="M16.8519 3.50051C17.754 3.33471 18.5427 3.27438 19.108 3.25546C19.4798 3.24302 19.6656 3.2368 19.8584 3.29329C20.2267 3.40125 20.5983 3.77291 20.7063 4.14121C20.7628 4.33392 20.7565 4.5198 20.7441 4.89155C20.7252 5.45682 20.6649 6.24552 20.4991 7.14765C20.1814 8.87619 19.4661 11.077 17.8577 12.9042L17.6469 16.9534C17.5535 18.7483 16.0709 20.1558 14.2735 20.1558C12.4639 20.1558 10.9757 18.7298 10.8985 16.9218L10.8587 15.9892L8.01035 13.1408L7.07772 13.101C5.26976 13.0239 3.84375 11.5357 3.84375 9.72607C3.84375 7.92868 5.25123 6.44604 7.04619 6.35261L11.0954 6.14187C12.9226 4.5335 15.1234 3.81818 16.8519 3.50051ZM15.0015 11C15.0015 12.1046 14.106 13 13.0015 13C11.8969 13 11.0015 12.1046 11.0015 11C11.0015 9.89543 11.8969 9 13.0015 9C14.106 9 15.0015 9.89543 15.0015 11Z" fill="#00313E"/>
</svg>
