<svg width="24" height="24" viewBox="0 0 24 24" fill="none" xmlns="http://www.w3.org/2000/svg">
<path fill-rule="evenodd" clip-rule="evenodd" d="M2.25 9.25032V12.1077C2.25 13.8431 3.65682 15.2499 5.39223 15.2499L4.80364 16.7214C4.688 17.0105 4.76303 17.341 4.99217 17.5518C5.22131 17.7627 5.5569 17.81 5.83541 17.6708L10.0005 15.2499H11.5005H12.5013C14.8366 15.2499 16.0043 15.2499 16.8741 14.748C17.4449 14.4187 17.9188 13.9448 18.2481 13.3741C18.75 12.5042 18.75 11.3365 18.75 9.00123V7.50123C18.75 7.03593 18.75 6.80329 18.7294 6.60744C18.544 4.84708 17.1529 3.45607 15.3925 3.27081C15.1966 3.2502 14.964 3.25021 14.4987 3.25025L8.24917 3.2507C6.14948 3.25086 5.09963 3.25094 4.29763 3.65955C3.59186 4.01913 3.01808 4.59295 2.65855 5.29875C2.25 6.10078 2.25 7.15063 2.25 9.25032ZM11.5 9.49994C11.5 10.0522 11.0523 10.4999 10.5 10.4999C9.94772 10.4999 9.5 10.0522 9.5 9.49994C9.5 8.94765 9.94772 8.49994 10.5 8.49994C11.0523 8.49994 11.5 8.94765 11.5 9.49994ZM7.5 9.49994C7.5 10.0522 7.05228 10.4999 6.5 10.4999C5.94772 10.4999 5.5 10.0522 5.5 9.49994C5.5 8.94765 5.94772 8.49994 6.5 8.49994C7.05228 8.49994 7.5 8.94765 7.5 9.49994ZM14.5 10.4999C15.0523 10.4999 15.5 10.0522 15.5 9.49994C15.5 8.94765 15.0523 8.49994 14.5 8.49994C13.9477 8.49994 13.5 8.94765 13.5 9.49994C13.5 10.0522 13.9477 10.4999 14.5 10.4999Z" fill="#00313E"/>
<path d="M18 9.25C18 7.14331 18 6.08996 17.4944 5.33329C17.2755 5.00572 16.9943 4.72447 16.6667 4.50559C15.91 4 14.8567 4 12.75 4H8.25C6.14331 4 5.08996 4 4.33329 4.50559C4.00572 4.72447 3.72447 5.00572 3.50559 5.33329C3 6.08996 3 7.14331 3 9.25V11C3 11.4644 3 11.6966 3.02567 11.8916C3.2029 13.2378 4.26222 14.2971 5.60842 14.4743C5.80337 14.5 6.03558 14.5 6.5 14.5V14.5L5.5 17L10.5 14.5H12.75C14.8567 14.5 15.91 14.5 16.6667 13.9944C16.9943 13.7755 17.2755 13.4943 17.4944 13.1667C18 12.41 18 11.3567 18 9.25V9.25Z" stroke="#00313E" stroke-width="1.5" stroke-linecap="round" stroke-linejoin="round"/>
<path d="M18.25 17.5005C18.2495 17.9147 18.5848 18.2509 18.999 18.2515C19.4132 18.252 19.7495 17.9167 19.75 17.5024L18.25 17.5005ZM19 20.0015L18.5199 20.5776C18.7434 20.7639 19.0546 20.8041 19.3181 20.6807C19.5817 20.5572 19.75 20.2925 19.75 20.0015L19 20.0015ZM16 17.5015L16.4801 16.9253C16.3454 16.813 16.1755 16.7515 16 16.7515V17.5015ZM19 17.5V16.75C18.5862 16.75 18.2505 17.0852 18.25 17.499L19 17.5ZM20.25 10.5015V15.5165H21.75V10.5015H20.25ZM19.4801 19.4253L16.4801 16.9253L15.5199 18.0776L18.5199 20.5776L19.4801 19.4253ZM16 16.7515H13V18.2515H16V16.7515ZM19.75 17.5024L19.75 17.501L18.25 17.499L18.25 17.5005L19.75 17.5024ZM18.25 17.5L18.25 20.0015L19.75 20.0015L19.75 17.5L18.25 17.5ZM19.015 16.75H19V18.25H19.015V16.75ZM20.25 15.5165C20.25 16.1981 19.6972 16.7505 19.0156 16.75L19.0144 18.25C20.5249 18.2511 21.75 17.0269 21.75 15.5165H20.25ZM13 16.7515C12.1716 16.7515 11.5 16.0799 11.5 15.2515H10C10 16.9083 11.3431 18.2515 13 18.2515V16.7515ZM21.75 10.5015C21.75 8.84461 20.4069 7.50146 18.75 7.50146V9.00146C19.5784 9.00146 20.25 9.67304 20.25 10.5015H21.75Z" fill="#00313E"/>
</svg>
