<svg width="24" height="24" viewBox="0 0 24 24" fill="none" xmlns="http://www.w3.org/2000/svg">
<path fill-rule="evenodd" clip-rule="evenodd" d="M17.25 12C14.7647 12 12.75 14.0147 12.75 16.5C12.75 18.9853 14.7647 21 17.25 21C19.7353 21 21.75 18.9853 21.75 16.5C21.75 14.0147 19.7353 12 17.25 12ZM19.7495 15.8095C20.0585 15.5336 20.0853 15.0595 19.8095 14.7505C19.5336 14.4415 19.0595 14.4147 18.7505 14.6905L16.4901 16.7088L15.791 15.9806C15.5042 15.6818 15.0294 15.6721 14.7306 15.959C14.4318 16.2458 14.4221 16.7206 14.709 17.0194L15.909 18.2694C16.1885 18.5606 16.6484 18.5783 16.9495 18.3095L19.7495 15.8095Z" fill="#00313E"/>
<path fill-rule="evenodd" clip-rule="evenodd" d="M11.0429 2.25C8.97182 2.25 7.29288 3.92893 7.29288 6C7.29288 8.07107 8.97182 9.75 11.0429 9.75C13.114 9.75 14.7929 8.07107 14.7929 6C14.7929 3.92893 13.114 2.25 11.0429 2.25ZM9.57664 11.25C6.51148 11.25 3.7481 13.0963 2.57494 15.9281C1.42641 18.7004 3.46397 21.75 6.46477 21.75H14.343C12.4984 20.7265 11.25 18.759 11.25 16.5C11.25 14.3559 12.3747 12.4744 14.0663 11.4134C13.5577 11.306 13.0331 11.25 12.4994 11.25H9.57664Z" fill="#00313E"/>
</svg>
