<svg width="24" height="24" viewBox="0 0 24 24" fill="none" xmlns="http://www.w3.org/2000/svg">
<path fill-rule="evenodd" clip-rule="evenodd" d="M9.85336 2.83266C9.61195 3.02346 9.36265 3.30394 8.86406 3.8649C8.70548 4.04331 8.6262 4.13251 8.54311 4.21432C8.1185 4.63235 7.59419 4.93506 7.01986 5.09376C6.90748 5.12482 6.79058 5.14888 6.55679 5.197C5.82168 5.34832 5.45413 5.42397 5.16819 5.53764C3.66142 6.13664 2.76336 7.69214 2.998 9.29654C3.04252 9.601 3.16078 9.95714 3.39729 10.6694C3.47251 10.8959 3.51012 11.0092 3.53942 11.1221C3.68914 11.6988 3.68914 12.3042 3.53942 12.881C3.51012 12.9938 3.47251 13.1071 3.39729 13.3336C3.16078 14.0459 3.04252 14.402 2.99799 14.7065C2.76336 16.3109 3.66142 17.8664 5.16819 18.4654C5.45413 18.5791 5.82168 18.6547 6.55679 18.806C6.79058 18.8542 6.90748 18.8782 7.01986 18.9093C7.5942 19.068 8.1185 19.3707 8.54311 19.7887C8.6262 19.8705 8.70548 19.9597 8.86406 20.1381L8.86408 20.1382C9.36266 20.6991 9.61195 20.9796 9.85336 21.1704C11.1255 22.1758 12.9216 22.1758 14.1938 21.1704C14.4352 20.9796 14.6845 20.6991 15.1831 20.1381C15.3416 19.9597 15.4209 19.8705 15.504 19.7887C15.9286 19.3707 16.4529 19.068 17.0272 18.9093C17.1396 18.8782 17.2565 18.8542 17.4903 18.806C18.2254 18.6547 18.593 18.5791 18.8789 18.4654C20.3857 17.8664 21.2838 16.3109 21.0491 14.7065C21.0046 14.402 20.8863 14.0459 20.6498 13.3336C20.5746 13.1071 20.537 12.9938 20.5077 12.881C20.358 12.3042 20.358 11.6988 20.5077 11.1221C20.537 11.0092 20.5746 10.896 20.6498 10.6694C20.8863 9.95714 21.0046 9.601 21.0491 9.29654C21.2838 7.69214 20.3857 6.13664 18.8789 5.53765C18.593 5.42397 18.2254 5.34832 17.4903 5.197C17.2565 5.14888 17.1396 5.12482 17.0272 5.09376C16.4529 4.93506 15.9286 4.63235 15.504 4.21432C15.4209 4.13251 15.3416 4.04331 15.1831 3.8649C14.6845 3.30394 14.4352 3.02346 14.1938 2.83266C12.9216 1.82726 11.1255 1.82726 9.85336 2.83266ZM12.0001 14.2501C13.2428 14.2501 14.2501 13.2428 14.2501 12.0001C14.2501 10.7575 13.2428 9.75012 12.0001 9.75012C10.7575 9.75012 9.75012 10.7575 9.75012 12.0001C9.75012 13.2428 10.7575 14.2501 12.0001 14.2501Z" fill="#00313E"/>
</svg>
