<svg width="24" height="24" viewBox="0 0 24 24" fill="none" xmlns="http://www.w3.org/2000/svg">
<path fill-rule="evenodd" clip-rule="evenodd" d="M2.25 9.78571C2.25 9.52043 2.25 9.38778 2.2548 9.27567L2.25595 9.25H21.744L21.7452 9.27567C21.75 9.38778 21.75 9.52043 21.75 9.78571V9.25H21.744C21.615 6.53872 19.439 4.3709 16.7243 4.2548C16.6122 4.25 16.4796 4.25 16.2143 4.25H7.78572C7.52043 4.25 7.38778 4.25 7.27567 4.2548C4.56098 4.3709 2.38499 6.53872 2.25595 9.25H2.25V9.78571ZM21.7499 10.75L21.75 10.3V10.75H21.7499ZM2.25006 10.75H21.7499C21.7485 14.3893 21.7111 16.2594 20.7473 17.5859C20.4235 18.0316 20.0316 18.4235 19.5859 18.7473C18.2058 19.75 16.2372 19.75 12.3 19.75H11.7C7.76278 19.75 5.79417 19.75 4.41413 18.7473C3.96843 18.4235 3.57648 18.0316 3.25266 17.5859C2.28895 16.2594 2.25151 14.3893 2.25006 10.75ZM2.25006 10.75L2.25 10.3V10.75H2.25006ZM10 17.25C9.58579 17.25 9.25 17.5858 9.25 18C9.25 18.4142 9.58579 18.75 10 18.75H14C14.4142 18.75 14.75 18.4142 14.75 18C14.75 17.5858 14.4142 17.25 14 17.25H10Z" fill="#00313E"/>
</svg>
