<svg width="50" height="50" viewBox="0 0 50 50" fill="none" xmlns="http://www.w3.org/2000/svg">
<path d="M33.3444 14.3239C42.1165 14.3845 49.3401 21.7226 49.2189 30.4542C49.1045 39.1522 41.9078 46.2682 33.2165 46.2884C24.4916 46.3086 17.2074 38.9637 17.268 30.2186C17.3285 21.386 24.532 14.2701 33.3444 14.3239ZM45.3951 30.3196C45.4085 23.5336 39.9151 18.0266 33.1627 18.0535C26.5382 18.0805 21.0851 23.5537 21.0178 30.2455C20.9437 36.8498 26.4776 42.4443 33.0886 42.4645C39.9487 42.4914 45.3816 37.1326 45.3951 30.3196Z" fill="#FB9A13"/>
<path d="M23.1387 48.8601C14.0502 46.901 7.04198 37.6779 6.75923 27.9499C6.46301 17.8718 13.3298 8.56115 23.0848 5.80095C32.0184 3.27638 42.9111 6.92523 46.735 13.8594C36.5452 4.37612 20.4371 5.72786 12.9125 17.8112C7.29107 26.8391 8.71156 41.6701 23.1387 48.8601Z" fill="#FB9A13"/>
<path d="M19.4329 50C9.07214 47.7667 1.08285 37.2524 0.760517 26.1626C0.422833 14.6737 8.25095 4.05968 19.3715 0.91308C29.5557 -1.96491 41.9733 2.19474 46.3325 10.0996C34.7162 -0.71122 16.3531 0.829748 7.77513 14.6046C1.36681 24.8963 2.98616 41.8035 19.4329 50Z" fill="#FB9A13"/>
<path d="M46.3648 17.3938C36.2127 8.38616 23.9129 12.1697 18.6686 19.4741C15.2621 24.227 14.2724 29.4579 15.7468 35.0658C17.2009 40.5795 20.8094 44.4169 26.3635 47.1771C18.8234 45.8575 12.751 38.3848 12.0441 30.2052C11.3237 21.7967 16.7903 13.5228 24.9497 10.6818C32.8062 7.94184 42.0158 10.7896 46.3648 17.3938Z" fill="#FB9A13"/>
<path d="M33.244 36.3988C36.6089 36.3988 39.3366 33.671 39.3366 30.3061C39.3366 26.9413 36.6089 24.2135 33.244 24.2135C29.8791 24.2135 27.1514 26.9413 27.1514 30.3061C27.1514 33.671 29.8791 36.3988 33.244 36.3988Z" fill="#FB9A13"/>
</svg>
