<svg width="50" height="50" viewBox="0 0 50 50" fill="none" xmlns="http://www.w3.org/2000/svg">
<path d="M41.9314 26C45.578 28.3026 48 32.3685 48 37C48 44.1797 42.1797 50 35 50C27.8203 50 22 44.1797 22 37C22 32.2389 24.6222 28.248 28.3066 26C32.5327 28.5647 37.8809 28.7518 41.9314 26Z" fill="#61459C"/>
<path d="M22 13.0154C22.0203 8.70267 24.1849 4.49409 28.1126 2.03975C34.2014 -1.76491 42.2216 0.0866953 46.0262 6.17543C49.8309 12.2642 47.9793 20.2843 41.8905 24.089C37.8529 26.612 33.0789 26.5031 29.22 24.5698C29.1555 19.6268 26.4801 14.9922 22 13.0154Z" fill="#442781"/>
<path d="M19.8396 36.6115C15.9969 38.5695 11.2643 38.5739 7.28309 36.2073C1.11148 32.5386 -0.917545 24.5615 2.75114 18.3898C6.41983 12.2182 14.397 10.1892 20.5686 13.8579C24.6612 16.2907 26.7518 20.584 26.8016 24.8998C22.4375 27.222 19.5439 31.7236 19.8396 36.6115Z" fill="#FF8124"/>
</svg>
