<svg width="50" height="50" viewBox="0 0 50 50" fill="none" xmlns="http://www.w3.org/2000/svg">
<path fill-rule="evenodd" clip-rule="evenodd" d="M28.2617 49.8148C28.2617 50 28.2617 50 28.2617 50C56.1715 46.0752 55.897 4.31801 28.2617 0C28.2617 0.185185 28.2617 0.185188 28.2617 0.185188C28.2617 2.03704 28.4469 3.70371 28.8173 5.55556C48.9813 10.0822 49.1488 40.1559 28.6321 44.2593C28.4469 46.1111 28.2617 47.963 28.2617 49.8148Z" fill="#5BD0F4"/>
<path fill-rule="evenodd" clip-rule="evenodd" d="M21.0389 50L21.0389 49.8148C21.0389 47.963 20.8537 46.2963 20.4833 44.4444C0.490869 39.9563 0.064026 10.0931 20.4833 5.92593C20.8537 4.25926 21.0389 2.4074 21.0389 0.555553L21.0389 0.370372C-7.04302 3.88061 -6.72985 46.095 21.0389 50Z" fill="#5BD0F4"/>
<path fill-rule="evenodd" clip-rule="evenodd" d="M24.5575 4.44455C23.4464 12.5927 19.1872 20.0001 12.5205 25.0001C19.1872 30.0001 23.4464 37.4075 24.5575 45.5557C25.6687 37.4075 30.1131 29.8149 36.7798 25.0001C30.1131 20.0001 25.6687 12.5927 24.5575 4.44455Z" fill="#283D74"/>
</svg>
