<?xml version="1.0" encoding="utf-8"?>
<!-- Generator: Adobe Illustrator 27.5.0, SVG Export Plug-In . SVG Version: 6.00 Build 0)  -->
<svg version="1.1" xmlns="http://www.w3.org/2000/svg" xmlns:xlink="http://www.w3.org/1999/xlink" x="0px" y="0px"
	 viewBox="0 0 3710 3710" style="enable-background:new 0 0 3710 3710;" xml:space="preserve">
<g id="Background">
	<g>
		<g>
		</g>
	</g>
</g>
<g id="Illustration">
	<g>
		<path style="fill:#F4F7FA;" d="M2970.218,2885.338c-75.71,78.04-143.453,123.914-195.319,158.545
			c-505.841,337.755-1084.073,240.406-1262.847,207.132c-288.431-53.683-531.907-91.554-741.096-280.548
			c-475.341-429.452-452.221-1325.32-89.003-1880.272c43.067-65.801,405.735-603.389,985.219-679.139
			c14.173-1.853,24.749-2.908,34.011-3.888c89.645-9.491,645.155-59.585,1098.118,319.908
			c64.84,54.322,169.185,152.306,265.947,301.748C3419.054,1575.248,3420.175,2421.54,2970.218,2885.338z"/>
		<g>
			<g>
				<g>
					<defs>
						<path id="SVGID_1_" d="M1780.407,2721.692c107.333-34.672,258.999-101.68,379.092-240.983
							c157.5-182.694,122.315-329.217,299.991-680.541c112.343-222.139,192.982-376.033,346.07-406.424
							c119.967-23.815,270.061,31.066,328.606,133.297c48.678,85.002,39.763,212.693,16.23,295.73
							c-19.18,67.675-49.084,109.267-28.525,159.397c21.011,51.231,69.942,50.951,92.689,92.289
							c46.13,83.833-73.814,232.723-93.199,256.786c-215.639,267.679-590.255,339.984-754.044,369.555
							C2231.892,2725.251,2029.712,2747.577,1780.407,2721.692z"/>
					</defs>
					
						<linearGradient id="SVGID_00000009578528846112734610000009407402586778703018_" gradientUnits="userSpaceOnUse" x1="1780.4069" y1="2060.7339" x2="3225.0405" y2="2060.7339">
						<stop  offset="0" style="stop-color:#004247"/>
						<stop  offset="0.9964" style="stop-color:#004247"/>
					</linearGradient>
					
						<use xlink:href="#SVGID_1_"  style="overflow:visible;fill:url(#SVGID_00000009578528846112734610000009407402586778703018_);"/>
					<clipPath id="SVGID_00000070824778060475434320000003882528754852834226_">
						<use xlink:href="#SVGID_1_"  style="overflow:visible;"/>
					</clipPath>
					<g style="opacity:0.5;clip-path:url(#SVGID_00000070824778060475434320000003882528754852834226_);">
						<path style="fill:#FFFFFF;" d="M1816.798,2743.473c-47.662,0-96.96-1.982-147.759-5.955l0.556-7.1
							c152.316,11.913,291.06,5.873,412.372-17.95c178.861-35.124,314.433-108.285,402.946-217.452
							c69.319-85.493,108.228-189.62,162.081-333.74c43.008-115.113,63.102-200.545,80.828-275.919
							c23.171-98.52,41.475-176.335,100.415-273.953c59.816-99.057,142.995-186.325,247.235-259.38l4.089,5.831
							c-103.423,72.482-185.93,159.026-245.225,257.231c-58.366,96.656-76.555,173.992-99.58,271.901
							c-17.775,75.582-37.925,161.247-81.075,276.735c-52.069,139.351-93.186,249.384-163.239,335.779
							c-89.591,110.497-226.56,184.5-407.101,219.955C2001.89,2735.451,1912.658,2743.473,1816.798,2743.473z"/>
						<path style="fill:#FFFFFF;" d="M2680.246,2081.586l-2.646-3.029c-0.584-0.669-58.864-68.12-96.715-178.679
							c-34.931-102.039-59.211-262.812,23.502-449.269l6.509,2.886c-81.722,184.223-57.813,343.02-23.369,443.793
							c32.844,96.088,81.232,159.169,92.859,173.484c155.061-171.697,321.871-246.52,434.789-279.05
							c123.193-35.489,210.813-29.719,211.678-29.656l-0.508,7.104c-0.862-0.063-87.473-5.727-209.526,29.489
							c-112.606,32.49-279.287,107.43-433.885,279.932L2680.246,2081.586z"/>
						<path style="fill:#FFFFFF;" d="M2597.432,2392.487c-13.898,0-27.118-0.984-39.681-2.956l-2.556-0.402l-0.407-2.556
							c-0.226-1.403-22.949-141.875-73.301-278.238c-50.077-135.626-253.588-270.631-255.639-271.978l3.915-5.949
							c2.069,1.359,207.523,137.663,258.407,275.462c46.833,126.843,69.876,257.197,73.221,277.009
							c136.455,19.738,336.276-85.726,480.318-178.017c157.432-100.867,284.012-208.241,285.271-209.314l4.618,5.421
							c-1.266,1.076-128.155,108.72-285.98,209.846C2857.213,2331.537,2706.749,2392.487,2597.432,2392.487z"/>
						<path style="fill:#FFFFFF;" d="M2588.263,2776.733c-60.832,0-116.747-3.682-165.176-8.82
							c-167.22-17.74-283.515-56.188-284.669-56.576l-6.728-2.25l5.827-4.051c58.652-40.758,98.117-93.673,117.303-157.271
							c15.383-50.993,17.869-108.984,7.392-172.365c-17.9-108.283-68.123-195.809-68.627-196.681l6.162-3.573
							c0.511,0.881,51.315,89.375,69.458,198.902c16.575,100.032,8.568,238.259-121.764,332.676
							c27.062,8.34,132.912,38.902,276.585,54.126c153.548,16.278,382.946,17.858,603.814-67.005l428.982-164.821l2.552,6.648
							l-428.982,164.821C2877.86,2759.099,2721.338,2776.733,2588.263,2776.733z"/>
					</g>
				</g>
			</g>
			<g>
				<g>
					<defs>
						<path id="SVGID_00000132057284312436342900000015860465717384053934_" d="M1814.03,2716.404
							c111.166,139.131,272.632,300.511,485.931,407.554c54.434,27.318,390.704,196.073,486.532,66.332
							c33.756-45.702,9.17-89.845,53.234-151.737c52.212-73.337,120.151-58.301,227.902-97.019
							c64.294-23.103,252.453-90.714,262.473-244.375c5.987-91.823-51.908-210.22-131.183-271.817
							c-116.28-90.349-255.77-40.79-490.339,47.146c-207.937,77.952-236.738,124.54-387.452,178.06
							C2209.274,2690.268,2042.672,2729.402,1814.03,2716.404z"/>
					</defs>
					
						<linearGradient id="SVGID_00000181801510315242361630000002524962911614357162_" gradientUnits="userSpaceOnUse" x1="2753.3472" y1="2231.5625" x2="2464.845" y2="3005.9644">
						<stop  offset="0.0036" style="stop-color:#004247"/>
						<stop  offset="1" style="stop-color:#004247"/>
					</linearGradient>
					
						<use xlink:href="#SVGID_00000132057284312436342900000015860465717384053934_"  style="overflow:visible;fill:url(#SVGID_00000181801510315242361630000002524962911614357162_);"/>
					<clipPath id="SVGID_00000085940316865173307620000003613097274426785156_">
						<use xlink:href="#SVGID_00000132057284312436342900000015860465717384053934_"  style="overflow:visible;"/>
					</clipPath>
					<g style="opacity:0.5;clip-path:url(#SVGID_00000085940316865173307620000003613097274426785156_);">
						<path style="fill:#FFFFFF;" d="M2311.72,2819.581c-261.835,0-487.942-71.534-672.782-212.975
							c-147.361-112.76-264.109-263.88-347.001-449.16l6.499-2.907c82.404,184.185,198.422,334.379,344.832,446.413
							c195.04,149.245,436.49,220.143,717.73,210.672c292.879-9.845,555.479-104.346,724.201-181.888
							c116.816-53.686,220.114-145.276,307.023-272.223l5.876,4.023c-87.647,128.025-191.921,220.439-309.923,274.671
							c-169.32,77.816-432.877,172.65-726.938,182.535C2344.61,2819.301,2328.073,2819.581,2311.72,2819.581z"/>
						<path style="fill:#FFFFFF;" d="M3038.101,2815.217c-86.663,0.004-187.763-14.72-304.385-52.826l-3.042-0.994l0.664-3.131
							c0.167-0.777,17.09-78.798,65.54-170.005c44.76-84.267,126.378-197.441,260.99-258.051l2.921,6.492
							c-132.7,59.752-213.288,171.494-257.524,254.712c-42.584,80.109-60.592,149.884-64.243,165.214
							c428.76,138.906,644.673-40.899,700.734-99.438c1.721-1.796,2.34-2.436,2.844-2.837l4.43,5.577l-2.215-2.789l2.25,2.759
							c-0.344,0.299-1.061,1.061-2.166,2.215C3403.248,2705.609,3274.501,2815.207,3038.101,2815.217z"/>
						<path style="fill:#FFFFFF;" d="M2870.613,3173.625c-29.086,0-86.305-4.284-156.469-31.483
							c-93.822-36.367-230.906-122.329-351.196-325.325l-0.97-1.638l0.824-1.716c1.036-2.168,106.743-218.738,351.596-388.377
							l246.912-171.064l4.054,5.852l-246.912,171.064c-231.779,160.582-338.011,363.324-348.39,383.912
							c65.894,110.742,179.206,255.568,346.221,320.483c100.342,39.001,173.5,30.414,174.23,30.32l0.894,7.065
							C2891.173,3172.749,2883.774,3173.625,2870.613,3173.625z"/>
					</g>
				</g>
			</g>
		</g>
		<g>
			<g>
				
					<linearGradient id="SVGID_00000088111967314025913380000014965922499704870533_" gradientUnits="userSpaceOnUse" x1="2048.0317" y1="964.5848" x2="1120.2856" y2="4176.0171">
					<stop  offset="0" style="stop-color:#004247"/>
					<stop  offset="1" style="stop-color:#792D3D"/>
				</linearGradient>
				<path style="fill:url(#SVGID_00000088111967314025913380000014965922499704870533_);" d="M2866.716,1952.064
					c0,594.682-453.943,1107.971-1045.133,1148.611c-628.757,43.222-1168.563-458.688-1168.563-1123.601
					S1192.825,798.053,1821.582,827.069C2412.772,854.351,2866.716,1357.383,2866.716,1952.064z"/>
				
					<linearGradient id="SVGID_00000073702100455096141360000011631183873989657005_" gradientUnits="userSpaceOnUse" x1="2107.6838" y1="964.5848" x2="1179.9379" y2="4176.0171">
					<stop  offset="0" style="stop-color:#FFC444"/>
					<stop  offset="0.9964" style="stop-color:#F36F56"/>
				</linearGradient>
				<path style="fill:url(#SVGID_00000073702100455096141360000011631183873989657005_);" d="M2926.368,1952.064
					c0,594.682-453.944,1107.971-1045.134,1148.611c-628.757,43.222-1168.563-458.688-1168.563-1123.601
					S1252.477,798.053,1881.234,827.069C2472.424,854.351,2926.368,1357.383,2926.368,1952.064z"/>
				<g style="opacity:0.3;">
					
						<linearGradient id="SVGID_00000022544513666218581990000001393952642687220633_" gradientUnits="userSpaceOnUse" x1="2009.0792" y1="885.8392" x2="1060.7881" y2="4168.3896">
						<stop  offset="0" style="stop-color:#FFC444"/>
						<stop  offset="0.9964" style="stop-color:#F36F56"/>
					</linearGradient>
					<path style="fill:url(#SVGID_00000022544513666218581990000001393952642687220633_);" d="M2089.26,2719.392
						c-213.521-242.667-11.754-554.02-235.469-856.328c-207.594-280.526-499.784-181.237-724.868-476.958
						c-47.982-63.041-82.962-131.05-107.912-200.973c-190.723,206.39-308.34,484.742-308.34,791.941
						c0,664.912,539.807,1166.824,1168.563,1123.601c217.675-14.963,416.192-93.618,579.789-215.368
						C2277.877,2868.521,2162.704,2802.861,2089.26,2719.392z"/>
				</g>
				
					<linearGradient id="SVGID_00000034794893085296263190000005137247642678334639_" gradientUnits="userSpaceOnUse" x1="2090.6042" y1="1064.7397" x2="1255.9108" y2="3954.0671">
					<stop  offset="0" style="stop-color:#FFFFFF"/>
					<stop  offset="0.9964" style="stop-color:#EBEFF2"/>
				</linearGradient>
				<path style="fill:url(#SVGID_00000034794893085296263190000005137247642678334639_);" d="M2826.848,1953.189
					c0,538.055-411.949,1000.186-945.614,1033.806c-564.089,35.536-1045.533-416.403-1045.533-1011.311
					S1317.145,917.958,1881.234,940.749C2414.9,962.311,2826.848,1415.134,2826.848,1953.189z"/>
				<path style="fill:#EFF2F6;" d="M1881.234,2986.995c156.458-9.856,302.134-56.34,429.712-130.069
					c-99.878-30.448-170.832-79.737-221.687-137.534c-213.521-242.667-11.754-554.02-235.469-856.328
					c-207.594-280.526-499.784-181.237-724.868-476.958c-19.828-26.051-37.407-52.967-53.011-80.515
					c-149.613,180.748-240.211,414.467-240.211,670.093C835.701,2570.592,1317.145,3022.531,1881.234,2986.995z"/>
				
					<linearGradient id="SVGID_00000055693143964263287370000007889472239856700850_" gradientUnits="userSpaceOnUse" x1="2052.7351" y1="1264.8256" x2="1403.8923" y2="3510.8225">
					<stop  offset="0" style="stop-color:#FFC444"/>
					<stop  offset="0.9964" style="stop-color:#F36F56"/>
				</linearGradient>
				<path style="fill:url(#SVGID_00000055693143964263287370000007889472239856700850_);" d="M2624.606,1955.474
					c0,422.979-325.796,782.651-743.371,804.161c-435.974,22.457-803.756-329.345-803.756-786.682s367.782-817.448,803.756-804.843
					C2298.81,1180.183,2624.606,1532.495,2624.606,1955.474z"/>
				
					<linearGradient id="SVGID_00000158029449586941091530000013468293781574672033_" gradientUnits="userSpaceOnUse" x1="1755.1128" y1="1693.1138" x2="1316.4501" y2="3211.5632">
					<stop  offset="0" style="stop-color:#FFC444"/>
					<stop  offset="0.9964" style="stop-color:#F36F56"/>
				</linearGradient>
				<path style="opacity:0.3;fill:url(#SVGID_00000158029449586941091530000013468293781574672033_);" d="M1853.791,1863.063
					c-177.095-239.312-415.505-202.287-621.658-369.689c-97.078,134.117-154.654,300.011-154.654,479.578
					c0,457.338,367.782,809.139,803.756,786.682c72.61-3.74,142.363-17.664,208.026-40.242h0
					C1875.739,2476.725,2077.505,2165.372,1853.791,1863.063z"/>
				
					<linearGradient id="SVGID_00000072266999286510598620000014714282827483329446_" gradientUnits="userSpaceOnUse" x1="2009.9226" y1="1464.6829" x2="1546.6578" y2="3068.2935">
					<stop  offset="0" style="stop-color:#FFFFFF"/>
					<stop  offset="0.9964" style="stop-color:#EBEFF2"/>
				</linearGradient>
				<path style="fill:url(#SVGID_00000072266999286510598620000014714282827483329446_);" d="M2417.974,1957.808
					c0,305.405-236.663,562.456-536.74,574.465c-309.462,12.385-567.525-239.068-567.525-561.99s258.063-580.206,567.525-574.813
					C2181.312,1400.699,2417.974,1652.403,2417.974,1957.808z"/>
				<path style="fill:#EFF2F6;" d="M1439.216,1607.918c-78.381,99.009-125.507,225.118-125.507,362.366
					c0,322.922,258.063,574.375,567.525,561.99c38.225-1.53,75.396-7.03,111.157-16.065
					c-39.609-202.61,26.977-429.399-138.6-653.145C1733.927,1701.089,1586.174,1665.703,1439.216,1607.918z"/>
				
					<linearGradient id="SVGID_00000109721066887906232490000010845609892610370702_" gradientUnits="userSpaceOnUse" x1="1962.1649" y1="1664.3945" x2="1684.2838" y2="2626.292">
					<stop  offset="0" style="stop-color:#FFC444"/>
					<stop  offset="0.9964" style="stop-color:#F36F56"/>
				</linearGradient>
				<path style="fill:url(#SVGID_00000109721066887906232490000010845609892610370702_);" d="M2206.811,1960.194
					c0,185.253-144.431,339.551-325.576,344.719c-184.523,5.265-336.653-145.682-336.653-337.238
					c0-191.556,152.13-345.939,336.653-344.844C2062.379,1623.906,2206.811,1774.941,2206.811,1960.194z"/>
				
					<linearGradient id="SVGID_00000089548391275116730860000002132025684795425179_" gradientUnits="userSpaceOnUse" x1="1853.2048" y1="1779.7607" x2="1635.3383" y2="2533.9153">
					<stop  offset="0" style="stop-color:#FFC444"/>
					<stop  offset="0.9964" style="stop-color:#F36F56"/>
				</linearGradient>
				<path style="opacity:0.3;fill:url(#SVGID_00000089548391275116730860000002132025684795425179_);" d="M1975.154,2288.215
					c-4.425-138.182-15.352-281.897-121.363-425.151c-57.093-77.15-120.47-125.549-187.059-161.338
					c-74.476,63.33-122.151,159.009-122.151,265.95c0,191.556,152.13,342.502,336.653,337.238
					C1913.971,2303.979,1945.484,2298.159,1975.154,2288.215z"/>
			</g>
			<g>
				
					<linearGradient id="SVGID_00000058557700598870080920000002387068387074810538_" gradientUnits="userSpaceOnUse" x1="1966.8341" y1="1722.7914" x2="2404.8345" y2="1722.7914" gradientTransform="matrix(0.7226 -0.6912 0.6912 0.7226 177.7709 1067.8809)">
					<stop  offset="0" style="stop-color:#FFC444"/>
					<stop  offset="0.9964" style="stop-color:#F36F56"/>
				</linearGradient>
				<path style="fill:url(#SVGID_00000058557700598870080920000002387068387074810538_);" d="M3012.896,835.557
					c0.703-1.318-190.436,151.883-190.436,151.883l18.818-158.218c6.324-53.175,188.582-182.357,235.209-209.838l9.938,11.173
					L3012.896,835.557z"/>
				
					<linearGradient id="SVGID_00000019643504340624853210000017971716927589591465_" gradientUnits="userSpaceOnUse" x1="566.2047" y1="1796.8451" x2="1016.6162" y2="1796.8451" gradientTransform="matrix(0.7471 -0.6646 0.6646 0.7471 293.3758 943.6294)">
					<stop  offset="0" style="stop-color:#004247"/>
					<stop  offset="0.9964" style="stop-color:#004247"/>
				</linearGradient>
				<path style="fill:url(#SVGID_00000019643504340624853210000017971716927589591465_);" d="M2264.697,1637.945l-336.557,278.465
					c-8.789,7.273-20.179-5.09-12.212-13.255l305.73-313.339c2.007-2.056,5.336-1.98,7.246,0.167l36.337,40.854
					C2267.104,1632.934,2266.857,1636.157,2264.697,1637.945z"/>
				
					<linearGradient id="SVGID_00000103974725014001156370000015526413440638536369_" gradientUnits="userSpaceOnUse" x1="1961.684" y1="1970.0708" x2="2393.0762" y2="1970.0708" gradientTransform="matrix(0.7226 -0.6912 0.6912 0.7226 177.7709 1067.8809)">
					<stop  offset="0" style="stop-color:#FFC444"/>
					<stop  offset="0.9964" style="stop-color:#F36F56"/>
				</linearGradient>
				<path style="fill:url(#SVGID_00000103974725014001156370000015526413440638536369_);" d="M3091.953,914.398
					c1.361-0.581-175.046,179.229-175.046,179.229l156.579-3.331c52.624-1.12,197.052-172.833,228.558-217.315l-9.938-11.173
					L3091.953,914.398z"/>
				
					<linearGradient id="SVGID_00000092445884077118876320000001431812360616379805_" gradientUnits="userSpaceOnUse" x1="1934.5751" y1="1981.7194" x2="2392.5342" y2="1981.7194" gradientTransform="matrix(0.7226 -0.6912 0.6912 0.7226 177.7709 1067.8809)">
					<stop  offset="0" style="stop-color:#004247"/>
					<stop  offset="1" style="stop-color:#792D3D"/>
				</linearGradient>
				<path style="fill:url(#SVGID_00000092445884077118876320000001431812360616379805_);" d="M3071.096,933.43
					c1.355-0.577-174.241,178.45-174.241,178.45l156.033-3.146c52.439-1.057,101.165-26.808,131.694-69.911l117.462-165.843
					L3071.096,933.43z"/>
				
					<linearGradient id="SVGID_00000010302642037036828830000004689867280060082580_" gradientUnits="userSpaceOnUse" x1="1939.7139" y1="1708.3856" x2="2404.8345" y2="1708.3856" gradientTransform="matrix(0.7226 -0.6912 0.6912 0.7226 177.7709 1067.8809)">
					<stop  offset="0" style="stop-color:#004247"/>
					<stop  offset="1" style="stop-color:#792D3D"/>
				</linearGradient>
				<path style="fill:url(#SVGID_00000010302642037036828830000004689867280060082580_);" d="M2994.427,847.23
					c0.699-1.315-191.808,158.699-191.808,158.699l18.583-157.683c6.245-52.994,36.267-99.774,81.448-126.403l173.838-102.459
					L2994.427,847.23z"/>
				
					<linearGradient id="SVGID_00000154423578351973720040000000653723623358534296_" gradientUnits="userSpaceOnUse" x1="1202.9247" y1="1681.9009" x2="1211.6759" y2="2081.5237" gradientTransform="matrix(0.7226 -0.6912 0.6912 0.7226 177.7709 1067.8809)">
					<stop  offset="0" style="stop-color:#004247"/>
					<stop  offset="1" style="stop-color:#792D3D"/>
				</linearGradient>
				<path style="fill:url(#SVGID_00000154423578351973720040000000653723623358534296_);" d="M2465.078,1552.095l-107.921,97.654
					c-37.92,34.313-98.8,27.739-136.285-14.406l0,0c-37.485-42.145-37.873-104.455-0.566-139.456l106.178-99.614L2465.078,1552.095z
					"/>
				<g style="opacity:0.3;">
					
						<linearGradient id="SVGID_00000076575434879641159740000006943030834178619067_" gradientUnits="userSpaceOnUse" x1="1198.6462" y1="1681.9888" x2="1207.3976" y2="2081.6206" gradientTransform="matrix(0.7226 -0.6912 0.6912 0.7226 177.7709 1067.8809)">
						<stop  offset="0" style="stop-color:#004247"/>
						<stop  offset="1" style="stop-color:#792D3D"/>
					</linearGradient>
					<path style="fill:url(#SVGID_00000076575434879641159740000006943030834178619067_);" d="M2338.534,1570.473
						c-48.016,19.956-97.449,22.753-142.803,17.492c4.208,16.865,12.581,33.255,25.142,47.377l0,0
						c37.485,42.144,98.365,48.719,136.284,14.406l107.92-97.654l-40.713-45.775
						C2401.878,1533.262,2376.138,1554.845,2338.534,1570.473z"/>
				</g>
				
					<linearGradient id="SVGID_00000044141572646105632650000003440268660936838035_" gradientUnits="userSpaceOnUse" x1="1220.6477" y1="1229.4119" x2="2140.9338" y2="1229.4119" gradientTransform="matrix(0.9425 -0.3343 0.3343 0.9425 729.5481 597.613)">
					<stop  offset="0" style="stop-color:#004247"/>
					<stop  offset="0.9964" style="stop-color:#004247"/>
				</linearGradient>
				<path style="fill:url(#SVGID_00000044141572646105632650000003440268660936838035_);" d="M3107.479,897.14l-642.401,654.954
					c-42.425,37.735-181.017-118.086-138.592-155.821l709.467-579.551L3107.479,897.14z"/>
				<g style="opacity:0.3;">
					
						<linearGradient id="SVGID_00000087371756152321205230000017204743619027169433_" gradientUnits="userSpaceOnUse" x1="1258.7745" y1="1259.8817" x2="2140.9336" y2="1259.8817" gradientTransform="matrix(0.9425 -0.3343 0.3343 0.9425 729.5481 597.613)">
						<stop  offset="0" style="stop-color:#004247"/>
						<stop  offset="0.9964" style="stop-color:#004247"/>
					</linearGradient>
					<path style="fill:url(#SVGID_00000087371756152321205230000017204743619027169433_);" d="M2886.016,1071.037
						c-138.984,114.66-188.102,98.646-299.125,216.146c-102.306,108.275-127.952,193.138-189.49,247.006
						c26.418,20.683,52.89,31.059,67.677,17.906l642.401-654.955l-27.806-31.262
						C3010.902,958.657,2942.52,1024.422,2886.016,1071.037z"/>
				</g>
				
					<linearGradient id="SVGID_00000049906253191714469960000015041989279579856814_" gradientUnits="userSpaceOnUse" x1="2094.7273" y1="1027.6976" x2="2146.9675" y2="1027.6976" gradientTransform="matrix(0.9425 -0.3343 0.3343 0.9425 729.5481 597.613)">
					<stop  offset="0" style="stop-color:#004247"/>
					<stop  offset="0.9964" style="stop-color:#004247"/>
				</linearGradient>
				<path style="fill:url(#SVGID_00000049906253191714469960000015041989279579856814_);" d="M3085.035,845.222
					c19.929,22.407,30.216,45.928,22.986,52.528c-7.219,6.588-29.172-6.191-49.045-28.534
					c-19.873-22.343-30.185-45.841-23.023-52.493C3043.126,810.06,3065.106,822.816,3085.035,845.222z"/>
			</g>
		</g>
		<g>
			
				<linearGradient id="SVGID_00000010291270629242873120000005034787100831192453_" gradientUnits="userSpaceOnUse" x1="1298.0424" y1="-1710.3335" x2="1635.933" y2="-1265.3387" gradientTransform="matrix(0.5326 -0.8463 0.8463 0.5326 1146.0205 3245.791)">
				<stop  offset="0" style="stop-color:#FCB148"/>
				<stop  offset="0.0521" style="stop-color:#FDBA46"/>
				<stop  offset="0.1424" style="stop-color:#FFC244"/>
				<stop  offset="0.3183" style="stop-color:#FFC444"/>
				<stop  offset="0.4849" style="stop-color:#FDB946"/>
				<stop  offset="0.7754" style="stop-color:#F99C4D"/>
				<stop  offset="0.8658" style="stop-color:#F8924F"/>
				<stop  offset="1" style="stop-color:#F8924F"/>
			</linearGradient>
			<path style="fill:url(#SVGID_00000010291270629242873120000005034787100831192453_);" d="M414.162,1106.171l113.534,10.663
				l75.892-82.364c11.032-11.972,31.402-7.092,34.484,8.248l21.145,105.226l103.394,40.501c15.044,5.893,15.992,25.919,1.6,33.904
				l-99.049,54.953l-11.408,108.15c-1.668,15.814-21.554,23.607-33.656,13.173l-83.078-71.631l-112.214,26.777
				c-16.443,3.924-29.783-11.578-22.559-26.223l49.346-100.041l-57.562-92.234C385.627,1121.807,397.534,1104.609,414.162,1106.171z
				"/>
			
				<linearGradient id="SVGID_00000183241853388456025140000016311717386729581452_" gradientUnits="userSpaceOnUse" x1="540.3094" y1="-836.0971" x2="869.7858" y2="-402.1837" gradientTransform="matrix(0.7626 -0.6469 0.6469 0.7626 790.8441 1869.3203)">
				<stop  offset="0" style="stop-color:#FCB148"/>
				<stop  offset="0.0521" style="stop-color:#FDBA46"/>
				<stop  offset="0.1424" style="stop-color:#FFC244"/>
				<stop  offset="0.3183" style="stop-color:#FFC444"/>
				<stop  offset="0.4849" style="stop-color:#FDB946"/>
				<stop  offset="0.7754" style="stop-color:#F99C4D"/>
				<stop  offset="0.8658" style="stop-color:#F8924F"/>
				<stop  offset="1" style="stop-color:#F8924F"/>
			</linearGradient>
			<path style="fill:url(#SVGID_00000183241853388456025140000016311717386729581452_);" d="M725.557,767.377l101.718,42.826
				l95.475-55.75c13.874-8.101,31.242,2.375,29.407,17.728l-12.6,105.433l83.527,68.272c12.166,9.944,6.925,29.178-8.883,32.557
				l-108.776,23.253l-43.803,99.183c-6.411,14.517-27.271,16.114-35.294,2.686l-55.006-92.059l-112.197-7.256
				c-16.433-1.063-23.991-19.601-12.785-31.355l76.5-80.242l-24.838-103.658C694.381,773.878,710.673,761.11,725.557,767.377z"/>
			
				<linearGradient id="SVGID_00000092458708923801403740000011097102445366805646_" gradientUnits="userSpaceOnUse" x1="7367.1055" y1="2307.3159" x2="7669.1382" y2="2705.0864" gradientTransform="matrix(-0.9885 -0.1511 -0.1511 0.9885 9728.0967 -677.0843)">
				<stop  offset="0" style="stop-color:#FCB148"/>
				<stop  offset="0.0521" style="stop-color:#FDBA46"/>
				<stop  offset="0.1424" style="stop-color:#FFC244"/>
				<stop  offset="0.3183" style="stop-color:#FFC444"/>
				<stop  offset="0.4849" style="stop-color:#FDB946"/>
				<stop  offset="0.7754" style="stop-color:#F99C4D"/>
				<stop  offset="0.8658" style="stop-color:#F8924F"/>
				<stop  offset="1" style="stop-color:#F8924F"/>
			</linearGradient>
			<path style="fill:url(#SVGID_00000092458708923801403740000011097102445366805646_);" d="M1996.094,424.395l-59.821,82.405
				l-104.188-2.216c-15.259-0.325-24.162,16.605-15.051,28.646l62.384,82.443l-33.722,97.005
				c-4.934,14.194,8.867,27.783,23.34,22.989l98.789-32.721l83.17,61.327c12.112,8.931,29.286,0.284,29.069-14.62l-1.487-101.974
				l83.837-58.228c12.185-8.463,9.14-27.155-5.152-31.645l-98.239-30.863l-30.723-97.177
				C2023.818,415.592,2004.792,412.412,1996.094,424.395z"/>
			
				<linearGradient id="SVGID_00000106837587117636849540000002174248223015268226_" gradientUnits="userSpaceOnUse" x1="7504.978" y1="1153.9174" x2="7810.4199" y2="1556.1781" gradientTransform="matrix(-0.9882 0.1534 0.1534 0.9882 8920.458 -1845.927)">
				<stop  offset="0" style="stop-color:#FCB148"/>
				<stop  offset="0.0521" style="stop-color:#FDBA46"/>
				<stop  offset="0.1424" style="stop-color:#FFC244"/>
				<stop  offset="0.3183" style="stop-color:#FFC444"/>
				<stop  offset="0.4849" style="stop-color:#FDB946"/>
				<stop  offset="0.7754" style="stop-color:#F99C4D"/>
				<stop  offset="0.8658" style="stop-color:#F8924F"/>
				<stop  offset="1" style="stop-color:#F8924F"/>
			</linearGradient>
			<path style="fill:url(#SVGID_00000106837587117636849540000002174248223015268226_);" d="M1563.49,412.357l-33.009,97.746
				l-102.514,29.015c-15.02,4.251-18.472,23.307-5.831,32.236l86.453,61.062l-2.953,103.724
				c-0.432,15.162,17.218,24.132,29.851,15.182l86.23-61.089l99.831,34.26c14.524,4.984,28.596-8.475,23.826-22.77L1712.7,603.8
				l63.883-81.296c9.288-11.82,0.6-28.988-14.71-29.064l-105.313-0.524l-59.935-84.976
				C1587.873,395.532,1568.293,398.133,1563.49,412.357z"/>
			
				<linearGradient id="SVGID_00000018958244931735609730000006942985971457631616_" gradientUnits="userSpaceOnUse" x1="176.9577" y1="123.0675" x2="496.5698" y2="543.9899" gradientTransform="matrix(0.9095 -0.4157 0.4157 0.9095 844.0638 580.1106)">
				<stop  offset="0" style="stop-color:#FCB148"/>
				<stop  offset="0.0521" style="stop-color:#FDBA46"/>
				<stop  offset="0.1424" style="stop-color:#FFC244"/>
				<stop  offset="0.3183" style="stop-color:#FFC444"/>
				<stop  offset="0.4849" style="stop-color:#FDB946"/>
				<stop  offset="0.7754" style="stop-color:#F99C4D"/>
				<stop  offset="0.8658" style="stop-color:#F8924F"/>
				<stop  offset="1" style="stop-color:#F8924F"/>
			</linearGradient>
			<path style="fill:url(#SVGID_00000018958244931735609730000006942985971457631616_);" d="M1147.156,525.881l83.259,66.961
				l104.321-28.02c15.16-4.072,28.552,10.368,22.675,24.442l-40.394,96.741l59.629,86.673c8.695,12.638-1.435,29.565-17.159,28.646
				l-108.149-6.326l-68.035,82.917c-9.964,12.144-29.919,8.198-33.755-6.688l-26.273-101.942l-102.788-36.17
				c-15.044-5.294-17.018-24.857-3.345-33.09l93.317-56.188l5.112-104.646C1116.316,523.949,1134.984,516.092,1147.156,525.881z"/>
		</g>
		<g>
			
				<linearGradient id="SVGID_00000070799184494698580630000008343584545368010656_" gradientUnits="userSpaceOnUse" x1="-2466.8489" y1="2026.9" x2="-2148.3418" y2="2351.0942" gradientTransform="matrix(-0.9968 0.0799 0.0799 0.9968 -324.9188 65.4365)">
				<stop  offset="0" style="stop-color:#004247"/>
				<stop  offset="1" style="stop-color:#792D3D"/>
			</linearGradient>
			<path style="fill:url(#SVGID_00000070799184494698580630000008343584545368010656_);" d="M2204.247,1934.111
				c11.11-14.656,27.899-38.05,28.72-50.737c0.825-12.689,18.627,4.739,6.029,33.12c-3.788,8.534-3.086,11.827-1.076,14.388
				c5.742,7.322,25.438-8.245,38.991-0.887c13.563,7.363,18.624,36.408,6.563,50.698c-8.905,10.552-22.594,2.836-38.324,10.35
				c-12.606,6.021-9.477,21.2-15.533,59.944c-12.525-0.596-40.497,20.589-45.154,8.947
				C2166.57,2015.201,2193.137,1948.769,2204.247,1934.111z"/>
			
				<linearGradient id="SVGID_00000002352273026949756340000001096235146620731067_" gradientUnits="userSpaceOnUse" x1="858.4016" y1="2232.0339" x2="1552.6616" y2="2257.0847" gradientTransform="matrix(-1 0 0 1 3036.0095 0)">
				<stop  offset="0.0036" style="stop-color:#004247"/>
				<stop  offset="1" style="stop-color:#004247"/>
			</linearGradient>
			<path style="fill:url(#SVGID_00000002352273026949756340000001096235146620731067_);" d="M2174.121,2034.939
				c25.648-1.789,51.293-3.579,76.941-5.368c60.505,244.494,17.107,481.668-119.452,568.892
				c-213.353,136.275-609.861-120.473-695.788-400.036c-37.716-122.708-29.129-299.796,46.25-334.203
				c20.923-9.553,53.39-11.036,123.733,28.458c210.072,117.943,215.594,340.857,322.387,359.736
				C1975.676,2260.813,2052.352,2230.537,2174.121,2034.939z"/>
			
				<linearGradient id="SVGID_00000029036601953547538770000017541439960700766374_" gradientUnits="userSpaceOnUse" x1="-276.599" y1="4076.2651" x2="-1545.3875" y2="2254.7366" gradientTransform="matrix(-0.9968 0.0799 0.0799 0.9968 -324.9188 65.4365)">
				<stop  offset="0.0036" style="stop-color:#004247"/>
				<stop  offset="1" style="stop-color:#004247"/>
			</linearGradient>
			<path style="fill:url(#SVGID_00000029036601953547538770000017541439960700766374_);" d="M1586.723,3190.337
				c36.95-61.31-9.46-120.442-20.024-236.601c-11.972-131.65,38.742-153.572,88.899-371.747
				c33.354-145.101,65.374-284.4,27.155-447.458c-18.315-78.147-49.38-210.691-159.075-274.712
				c-56.608-33.037-133.898-29.734-286.168-21.766c-188.3,9.846-282.447,14.767-352.661,51.741
				c-10.278,5.414-223.887,121.603-238.59,310.994c-14.968,192.758,194.957,218.668,222.955,475.721
				c12.569,115.394-9.836,292.874-24.364,407.989c-13.951,110.53-23.551,138.831-1.739,172.294
				c52.572,80.658,213.521,57.666,535.424,11.701C1504.804,3250.459,1559.15,3236.088,1586.723,3190.337z"/>
			
				<linearGradient id="SVGID_00000134231566084133399330000006317395185728747452_" gradientUnits="userSpaceOnUse" x1="-276.7154" y1="4076.363" x2="-1545.5262" y2="2254.8022" gradientTransform="matrix(-0.9968 0.0799 0.0799 0.9968 -324.9188 65.4365)">
				<stop  offset="0.0036" style="stop-color:#004247"/>
				<stop  offset="1" style="stop-color:#004247"/>
			</linearGradient>
			<path style="opacity:0.3;fill:url(#SVGID_00000134231566084133399330000006317395185728747452_);" d="M1096.947,2635.159
				c-13.612,50.101-62.564,87.521-96.642,209.385c-7.357,26.314-59.757,213.678,8.214,259.8
				c39.263,26.634,74.507-23.83,169.794-30.42c165.119-11.422,243.778,127.352,351.637,89.457
				c18.712-6.585,43.42-20.601,68.087-52.814c4.911,29.029,4.069,54.24-11.314,79.771c-27.572,45.751-81.919,60.123-208.188,78.156
				c-321.903,45.965-482.852,68.956-535.424-11.701c-21.812-33.463-12.212-61.763,1.739-172.294
				c14.528-115.115,36.933-292.594,24.364-407.989c-27.998-257.054-237.923-282.964-222.955-475.721
				c4-51.531,22.957-97.417,48.304-137.354C960.865,2171.195,1139.73,2477.723,1096.947,2635.159z"/>
			
				<linearGradient id="SVGID_00000033370114421842494600000015946377235957211831_" gradientUnits="userSpaceOnUse" x1="-1049.3385" y1="3065.9497" x2="-844.6823" y2="3065.9497" gradientTransform="matrix(-0.9968 0.0799 0.0799 0.9968 -324.9188 65.4365)">
				<stop  offset="0" style="stop-color:#004247"/>
				<stop  offset="1" style="stop-color:#792D3D"/>
			</linearGradient>
			<path style="fill:url(#SVGID_00000033370114421842494600000015946377235957211831_);" d="M760.593,3014.331l53.28,34.019
				c9.567-11.046,31.715-33.334,66.297-40.944c38.961-8.563,83.685,3.719,84.726,16.154c0.834,9.962-26.399,20.009-30.609,21.564
				c-33.993,12.545-59.216,2.126-72.959,15.792c-4.86,4.833-10.918,13.82-24.848,22.148c-3.656,2.189-7.492,4.12-9.512,4.909
				c-22.688,8.822-61.609-30.677-64.957-34.127L760.593,3014.331z"/>
			
				<linearGradient id="SVGID_00000155827593400100782840000011944157939136077706_" gradientUnits="userSpaceOnUse" x1="79.2227" y1="3828.4165" x2="-1189.5786" y2="2006.8694" gradientTransform="matrix(-0.9968 0.0799 0.0799 0.9968 -324.9188 65.4365)">
				<stop  offset="0.0036" style="stop-color:#004247"/>
				<stop  offset="1" style="stop-color:#004247"/>
			</linearGradient>
			<path style="fill:url(#SVGID_00000155827593400100782840000011944157939136077706_);" d="M918.003,2315.533
				c38.543-92.312,65.245-233.647,4.369-443.541c-401.128,158.058-605.704,532.76-525.825,829.793
				c65.848,244.866,305.414,364.136,358.854,389.229c12.434-28.305,24.87-56.599,37.304-84.904
				c-61.931-68.965-131.719-170.938-121.848-287.304C684.538,2557.481,839.971,2502.421,918.003,2315.533z"/>
			
				<linearGradient id="SVGID_00000088839056767047689560000002566429480051147437_" gradientUnits="userSpaceOnUse" x1="-3036.9131" y1="4191.085" x2="-3036.9131" y2="3828.3704" gradientTransform="matrix(-0.7795 0.6265 0.6265 0.7795 -3649.3015 622.2045)">
				<stop  offset="0" style="stop-color:#004247"/>
				<stop  offset="1" style="stop-color:#792D3D"/>
			</linearGradient>
			<path style="fill:url(#SVGID_00000088839056767047689560000002566429480051147437_);" d="M1227.652,1648.148
				c0,0-3.167,70.17-24.95,122.718c-19.684,47.492-123.218,77.347-144.202,87.947c-20.989,10.6,39.317,41.589,99.88,47.678
				c60.558,6.09,233.508-7.662,264.684-30.62c31.177-22.956-25.052-21.23-68.28-37.101
				c-43.224-15.867-68.218-100.405-60.589-138.775C1301.823,1661.622,1227.652,1648.148,1227.652,1648.148z"/>
			
				<linearGradient id="SVGID_00000180361118710279572410000001264231160636445846_" gradientUnits="userSpaceOnUse" x1="1749.6824" y1="1910.5408" x2="1760.3641" y2="1778.8009" gradientTransform="matrix(-1 0 0 1 3036.0095 0)">
				<stop  offset="0" style="stop-color:#004247"/>
				<stop  offset="0.9964" style="stop-color:#004247"/>
			</linearGradient>
			<path style="fill:url(#SVGID_00000180361118710279572410000001264231160636445846_);" d="M1323.435,1622.708
				c31.424-30.874,35.81-34.48,39.234-45.152c13.733-42.833-19.488-101.491-63.063-115.932c-2.267-0.748-31.488-10.104-42.643,2.576
				c-9.474,10.765,4.463,25.636-2.163,46.385c-6.207,19.426-23.047,20.881-54.258,46.356
				c-25.712,20.978-41.689,34.021-45.375,52.368c-7.6,37.824,38.186,92.641,78.72,91.15
				C1248.463,1699.921,1252.428,1692.476,1323.435,1622.708z"/>
			<g>
				
					<linearGradient id="SVGID_00000166637771817627863160000016068712159380684708_" gradientUnits="userSpaceOnUse" x1="-3293.3013" y1="4086.5542" x2="-3123.719" y2="3756.8105" gradientTransform="matrix(-0.7795 0.6265 0.6265 0.7795 -3649.3015 622.2045)">
					<stop  offset="0" style="stop-color:#004247"/>
					<stop  offset="1" style="stop-color:#792D3D"/>
				</linearGradient>
				<path style="fill:url(#SVGID_00000166637771817627863160000016068712159380684708_);" d="M1237.853,1706.301
					c0,0,33.402,37.821,84.286,25.317c45.559-11.193,33.934-115.756,0.593-132.462c-11.121-5.57-31.332-5.109-46.531,2.214
					c-8.98,4.328-11.475,8.822-26.281,15.609c-13.656,6.255-17.986,5.388-21.657,9.795c-4.597,5.508-6.574,17.364,7.825,45.98
					c-10.378-7.344-21.54-8.882-28.39-4.024c-1.093,0.778-3.877,3.494-5.076,7.072
					C1198.279,1688.757,1211.74,1701.917,1237.853,1706.301z"/>
			</g>
		</g>
	</g>
</g>
</svg>
