<?xml version="1.0" encoding="utf-8"?>
<!-- Generator: Adobe Illustrator 27.5.0, SVG Export Plug-In . SVG Version: 6.00 Build 0)  -->
<svg version="1.1" xmlns="http://www.w3.org/2000/svg" xmlns:xlink="http://www.w3.org/1999/xlink" x="0px" y="0px"
	 viewBox="0 0 3710 3710" style="enable-background:new 0 0 3710 3710;" xml:space="preserve">
<g id="Background">
	<g>
		<g>
		</g>
	</g>
</g>
<g id="Illustration">
	<g>
		<path style="fill:#F4F7FA;" d="M1667.264,506.496c-373.871,6.259-952.322,140.992-1118.822,487.231
			c-58.152,120.928-54.215,298.707-46.342,654.263c2.315,104.507,6.152,256.829,33.101,445.825
			c55.983,392.606,94.093,659.878,238.329,815.506c361.411,389.956,1666.916,378.688,2224.404-323.361
			c304.113-382.973,350.897-927.764,72.823-1378.006C2764.603,712.247,2167.79,498.116,1667.264,506.496z"/>
		<g>
			<path style="fill:#BFC8D6;" d="M3177.852,1578.537l-75.937-512.653l-169.75,17.074c-14.322-2.66-41.552,12.237-47.99,27.266
				l-222.91,519.421c-6.902,16.112,3.69,34.602,19.73,34.495l63.65-2.674v1210.736c0,21.571,15.669,37.057,34.935,34.597
				l152.586,33.917c18.251-2.358,189.119-94.41,189.119-115.214v-1213.67l38.583-0.202
				C3174.498,1611.553,3184.113,1593.837,3177.852,1578.537z"/>
			<path style="opacity:0.3;fill:#D8DEE8;" d="M2913.009,1656.014l-168.364,5.452v1210.736c0,21.571,15.669,37.057,34.935,34.597
				l152.586,33.917c7.511-0.97,40.984-17.193,77.711-37.367L2913.009,1656.014z"/>
			<path style="fill:#D8DEE8;" d="M3323.538,1653.377l-38.966,0.229v1207.959c0,20.687-13.738,39.356-31.627,41.649l-305.682,39.585
				c-19.082,2.477-34.229-12.935-34.229-34.402V1655.992l-41.399,0.275c-15.87,0.138-26.386-18.256-19.55-34.31l232.184-544.832
				c7.476-17.522,29.812-16.421,37.243,1.835l220.248,541.437C3347.952,1635.626,3338.031,1653.286,3323.538,1653.377z"/>
			<path style="fill:#BFC8D6;" d="M2442.934,3007.173l-159.415-37.036c-20.063,2.561-36.38-12.748-36.38-34.204v-988.992
				c0-21.455,16.317-39.328,36.38-39.918l341.824-10.055c18.774-0.552,177.756,8.449,177.756,8.449l-143.811,979.337
				C2659.287,2905.412,2442.934,3007.173,2442.934,3007.173z"/>
			<path style="fill:#D8DEE8;" d="M2830.469,1940.746v980.265c0,5.734-2.203,11.33-4.313,16.467
				c-5.366,13.21-17.383,23.393-30.823,25.091l-337.778,43.759c-19.909,2.569-35.32-12.614-35.32-33.989V1954.323
				c0-21.329,15.159-39.126,35.068-39.723l73.538-2.202l265.243-7.844C2814.707,1903.959,2830.469,1920.197,2830.469,1940.746z"/>
			<path style="fill:#BFC8D6;" d="M1908.774,3076.527l-168.115-37.079c-22.082,2.819-40.046-13.137-40.046-35.649l5.08-692.996
				c0-22.509,17.958-41.828,40.035-43.145l375.537-22.402c20.593-1.228,193.354,22.566,193.354,22.566l-161.077,679.732
				C2153.542,2969.192,1929.611,3073.833,1908.774,3076.527z"/>
			<path style="fill:#D8DEE8;" d="M2325.91,2296.689v687.301c0,21.559-15.641,41.144-36.054,43.759l-370.622,48.117
				c-21.833,2.844-38.253-13.027-38.253-35.411v-715.097c0-22.43,16.833-41.649,38.666-42.979l114.789-6.972l255.661-15.458
				C2310.51,2258.71,2325.91,2275.177,2325.91,2296.689z"/>
			<path style="fill:#BFC8D6;" d="M1299.091,3147.229l-157.345-31.312c-24.424,3.118-44.296-13.54-44.296-37.219v-360.096
				c0-23.679,19.872-44.663,44.296-46.862l414.737-37.338c22.702-2.044,179.846,16.353,179.846,16.353L1597.525,3016.6
				C1597.525,3039.312,1322.114,3144.257,1299.091,3147.229z"/>
			<path style="fill:#D8DEE8;" d="M1775.483,2687.997v365.3c0,7.064-1.055,13.944-4.175,20.137
				c-6.88,13.623-19.906,24.035-35.365,26.008l-15.779,2.018l-395.528,51.098c-24.173,3.119-44.539-13.439-44.539-37.016v-380.804
				c0-23.576,20.549-44.447,44.722-46.649l52.566-4.77l76.28-6.926l281.682-25.641
				C1757.823,2648.733,1775.483,2665.384,1775.483,2687.997z"/>
			<path style="fill:#BFC8D6;" d="M937.894,2849.618l-460.271,47.52c-19.649,2.029-36.602,14.402-44.503,30.54
				c-3.018,6.165-4.757,12.861-4.757,19.762v197.875c0,24.973,21.136,45.43,49.259,55.395l162.641,32.324
				c25.55-3.299,343.085-116.269,343.085-140.168l76.277-91.755l77.206-130.734C1136.833,2870.378,963.04,2847.022,937.894,2849.618
				z"/>
			<path style="fill:#D8DEE8;" d="M1170.013,2910.095v219.666c0,23.806-20.664,45.686-45.571,48.896l-99.409,12.797l-356.613,46.098
				c-26.879,3.486-48.834-13.806-48.834-38.667v-229.528c0-24.815,21.812-47.245,48.691-50.089l69.96-7.293l386.222-40.227
				C1149.367,2869.134,1170.013,2886.334,1170.013,2910.095z"/>
			<path style="opacity:0.3;fill:#D8DEE8;" d="M3284.571,2655.063v206.502c0,20.687-13.738,39.356-31.627,41.649l-305.682,39.585
				c-19.082,2.477-34.229-12.935-34.229-34.402V1658.102c50.456,2.706,154.686,86.815,120.788,354.827
				c-46.373,366.952-45.071,385.314,13,446.458C3083.149,2497.641,3224.942,2540.666,3284.571,2655.063z"/>
			<path style="opacity:0.3;fill:#D8DEE8;" d="M2825.147,2937.478c-5.366,13.21-16.878,23.393-30.319,25.091l-337.526,43.759
				c-19.908,2.569-35.068-12.614-35.068-33.989V1954.323c0-21.329,15.159-39.126,35.068-39.723l73.538-2.202
				c56.522,42.429,73.559,103.423,48.495,181.182c-89.444,277.507-75.928,433.094-17.857,494.238
				C2610.88,2639.789,2854.595,2700.611,2825.147,2937.478z"/>
			<path style="opacity:0.3;fill:#D8DEE8;" d="M2325.91,2925.277v58.712c0,21.559-15.641,41.144-36.054,43.759l-370.622,48.117
				c-21.833,2.844-38.253-13.027-38.253-35.411v-715.097c0-22.43,16.833-41.649,38.666-42.979l114.789-6.972
				c124.817,92.242-110.644,321.587,39.195,514.237C2176.892,2922.407,2280.042,2786.753,2325.91,2925.277z"/>
			<path style="opacity:0.3;fill:#D8DEE8;" d="M1720.165,3101.46l-395.528,51.098c-24.173,3.119-44.539-13.439-44.539-37.016
				v-380.804c0-23.576,20.549-44.447,44.722-46.649l52.566-4.77c10.092,50.868,29.539,78.344,55.502,105.682
				C1481.418,2840.053,1703.79,2898.994,1720.165,3101.46z"/>
			<path style="opacity:0.3;fill:#D8DEE8;" d="M1024.746,3191.455l-356.47,46.098c-26.879,3.486-48.691-13.806-48.691-38.667
				v-229.528c0-24.815,21.812-47.245,48.691-50.089l69.96-7.293c8.35,14.265,18.285,26.237,29.661,38.209
				C808.72,2993.117,982.27,3042.151,1024.746,3191.455z"/>
		</g>
		<g>
			<g>
				<linearGradient id="SVGID_1_" gradientUnits="userSpaceOnUse" x1="2340.0012" y1="2854.6348" x2="2494.1719" y2="3410.99">
					<stop  offset="0" style="stop-color:#311944"/>
					<stop  offset="1" style="stop-color:#893976"/>
				</linearGradient>
				<path style="fill:url(#SVGID_1_);" d="M2491.92,3170.021c0,0,7.352,29.799,7.585,40.594
					c0.235,10.797-118.572,25.845-120.422,17.891c-1.85-7.954,18.04-22.43,32.398-28.127c14.36-5.698,56.479-21.208,56.479-21.208
					L2491.92,3170.021z"/>
				
					<linearGradient id="SVGID_00000022527234113994645260000007345395101960266880_" gradientUnits="userSpaceOnUse" x1="2477.2139" y1="3247.9824" x2="2479.4482" y2="3060.2964">
					<stop  offset="0" style="stop-color:#FFC444"/>
					<stop  offset="0.9964" style="stop-color:#F36F56"/>
				</linearGradient>
				<path style="fill:url(#SVGID_00000022527234113994645260000007345395101960266880_);" d="M2460.563,3142.239l6.812,37.239
					c0,0,14.586,8.044,26.223,0l2.832-41.355L2460.563,3142.239z"/>
				
					<linearGradient id="SVGID_00000021101953369545808360000008014353927214750637_" gradientUnits="userSpaceOnUse" x1="2533.0205" y1="2801.1462" x2="2687.1919" y2="3357.5044">
					<stop  offset="0" style="stop-color:#311944"/>
					<stop  offset="1" style="stop-color:#893976"/>
				</linearGradient>
				<path style="fill:url(#SVGID_00000021101953369545808360000008014353927214750637_);" d="M2708.6,3201.92
					c0,0,7.353,29.797,7.587,40.594c0.234,10.797-118.575,25.845-120.423,17.891c-1.85-7.953,18.04-22.43,32.398-28.128
					c14.358-5.697,56.478-21.208,56.478-21.208L2708.6,3201.92z"/>
				
					<linearGradient id="SVGID_00000183248148197353136770000001868118289399337369_" gradientUnits="userSpaceOnUse" x1="2694.2429" y1="3250.5679" x2="2696.4775" y2="3062.8779">
					<stop  offset="0" style="stop-color:#FFC444"/>
					<stop  offset="0.9964" style="stop-color:#F36F56"/>
				</linearGradient>
				<path style="fill:url(#SVGID_00000183248148197353136770000001868118289399337369_);" d="M2677.244,3174.138l6.812,37.24
					c0,0,14.584,8.045,26.224,0l2.831-41.356L2677.244,3174.138z"/>
				
					<linearGradient id="SVGID_00000067957120671968135430000011753452664948104836_" gradientUnits="userSpaceOnUse" x1="2369.0273" y1="2644.3596" x2="2568.8601" y2="2644.3596">
					<stop  offset="0" style="stop-color:#444B8C"/>
					<stop  offset="0.9964" style="stop-color:#26264F"/>
				</linearGradient>
				<path style="fill:url(#SVGID_00000067957120671968135430000011753452664948104836_);" d="M2403.661,2160.368
					c-11.544,29.049-23.089,58.099-34.634,87.147c1.694,160.363,10.08,334.214,28.479,519.381
					c13.688,137.764,31.537,267.877,51.959,389.718c18.62-2.354,37.24-4.713,55.86-7.066c22.727-55.8,48.116-139.614,43.015-240.154
					c-5.321-104.874-38.155-116.223-44.171-216.563c-7.796-130.05,43.875-169.056,60.367-327.561
					c6.307-60.618,7.525-139.229-8.938-233.165C2504.953,2141.525,2454.308,2150.95,2403.661,2160.368z"/>
				
					<linearGradient id="SVGID_00000078046678877653442820000000270022029357571212_" gradientUnits="userSpaceOnUse" x1="2369.0286" y1="2644.3596" x2="2568.8606" y2="2644.3596">
					<stop  offset="0" style="stop-color:#444B8C"/>
					<stop  offset="0.9964" style="stop-color:#26264F"/>
				</linearGradient>
				<path style="opacity:0.3;fill:url(#SVGID_00000078046678877653442820000000270022029357571212_);" d="M2555.599,2132.106
					c-27.352,5.086-54.704,10.173-82.056,15.266c-42.727,90.382-49.383,181.424-37.483,220.505
					c16.836,55.294,50.888,70.71,53.625,127.36c2.707,56.054-29.073,73.192-44.689,140.766
					c-10.809,46.786-3.63,88.431,11.174,169.812c29.816,163.928,73.771,211.267,44.687,268.127
					c-8.266,16.156-23.909,35.861-56.316,52.546c1.633,10.068,3.255,20.169,4.925,30.126c18.62-2.35,37.24-4.713,55.86-7.063
					c22.727-55.807,48.116-139.615,43.015-240.156c-5.321-104.875-38.155-116.226-44.171-216.563
					c-7.796-130.051,43.875-169.052,60.367-327.559C2570.844,2304.654,2572.062,2226.042,2555.599,2132.106z"/>
				
					<linearGradient id="SVGID_00000121248077059520201970000011909063013258075321_" gradientUnits="userSpaceOnUse" x1="2481.8479" y1="2672.9082" x2="2785.1917" y2="2672.9082">
					<stop  offset="0" style="stop-color:#444B8C"/>
					<stop  offset="0.9964" style="stop-color:#26264F"/>
				</linearGradient>
				<path style="fill:url(#SVGID_00000121248077059520201970000011909063013258075321_);" d="M2481.848,2204.735
					c37.18,139.019,72.134,288.191,102.799,446.907c37.024,191.637,63.123,373.009,81.203,541.897
					c20.559-1.059,41.118-2.127,61.677-3.188c68.016-166.381,64.268-275.19,46.957-344.84
					c-6.67-26.839-23.142-79.195-32.313-158.678c-6.392-55.406-6.237-97.974-5.882-149.159
					c0.776-112.225,10.608-137.499,5.469-222.881c-4.82-80.13-7.736-120.637-32.467-142.436
					C2644.135,2114.93,2493.281,2198.273,2481.848,2204.735z"/>
				
					<linearGradient id="SVGID_00000173865149261785628150000018242872721684110475_" gradientUnits="userSpaceOnUse" x1="1769.2996" y1="1837.452" x2="1956.9913" y2="2028.4952">
					<stop  offset="0" style="stop-color:#FFC444"/>
					<stop  offset="0.9964" style="stop-color:#F36F56"/>
				</linearGradient>
				<path style="fill:url(#SVGID_00000173865149261785628150000018242872721684110475_);" d="M1884.945,1881.77
					c0,0-45.168-3.872-51.702-11.195c-6.534-7.322-10.76-7.704-11.74-14.418c-0.979-6.714-19.999-3.48-12.089,11.078
					c7.911,14.559-9.94,6.926-13.443,6.573c-8.054-0.809-38.776-1.709-37.891,0.192c0.887,1.903-13.776,21.042,8.043,30.928
					c19.1,8.655,13.508,4.837,25.925,5.432c12.416,0.594,50.874-11.955,50.874-11.955l32.931,2.511L1884.945,1881.77z"/>
				
					<linearGradient id="SVGID_00000143575944932595662370000002113988938707215778_" gradientUnits="userSpaceOnUse" x1="2672.8542" y1="1270.7527" x2="1774.627" y2="2189.0881">
					<stop  offset="0.0036" style="stop-color:#6165D7"/>
					<stop  offset="1" style="stop-color:#AA80F9"/>
				</linearGradient>
				<path style="fill:url(#SVGID_00000143575944932595662370000002113988938707215778_);" d="M1858.468,1860.667
					c-1.989,15.057-3.978,30.112-5.968,45.168c29.915,24.954,96.055,72.787,188.072,79.96
					c162.217,12.654,323.085-107.401,353.035-242.432c14.831-66.875,2.716-160.701-38.845-175.789
					c-11.537-4.19-28.868-3.594-64.599,20.41c-95.356,64.054-103.466,148.178-156.145,205.082
					C2096.105,1834.018,2021.563,1875.506,1858.468,1860.667z"/>
				
					<linearGradient id="SVGID_00000109000130518278770660000000677332112347722636_" gradientUnits="userSpaceOnUse" x1="3091.5935" y1="2708.8569" x2="2414.5735" y2="1736.8971">
					<stop  offset="0.0036" style="stop-color:#6165D7"/>
					<stop  offset="1" style="stop-color:#AA80F9"/>
				</linearGradient>
				<path style="fill:url(#SVGID_00000109000130518278770660000000677332112347722636_);" d="M2355.621,2277.385
					c-22.267-31.036-0.102-64.466,0.566-126.7c0.756-70.535-27.152-80.033-63.129-193.941
					c-23.925-75.757-46.894-148.484-33.516-236.843c6.411-42.347,17.285-114.17,72.902-152.898
					c28.701-19.985,69.953-21.522,151.283-23.774c100.575-2.789,150.861-4.184,189.783,12.49
					c5.697,2.442,124.267,55.137,140.16,155.247c16.177,101.889-94.376,124.618-98.312,262.536
					c-1.767,61.913,17.715,155.359,30.348,215.968c12.132,58.196,18.444,72.84,8.269,91.568
					c-24.524,45.142-111.113,39.773-284.29,29.045C2401.756,2305.872,2372.237,2300.544,2355.621,2277.385z"/>
				
					<linearGradient id="SVGID_00000036952350112115286670000004312150858723848383_" gradientUnits="userSpaceOnUse" x1="3091.5271" y1="2708.9028" x2="2414.5049" y2="1736.9398">
					<stop  offset="0" style="stop-color:#AA80F9"/>
					<stop  offset="0.9964" style="stop-color:#6165D7"/>
				</linearGradient>
				<path style="opacity:0.3;fill:url(#SVGID_00000036952350112115286670000004312150858723848383_);" d="M2592.467,1961.214
					c9.375,26.068,37.008,43.885,60.328,107.251c5.034,13.683,40.892,111.108,6.704,138.536c-19.749,15.84-40.646-9.5-91.609-8.944
					c-88.313,0.963-124.236,78.128-183.221,62.569c-10.234-2.705-23.973-9.107-38.466-25.189
					c-1.375,15.65,0.147,29.023,9.418,41.948c16.616,23.159,46.135,28.487,114.065,32.697
					c173.177,10.728,259.765,16.097,284.29-29.045c10.175-18.728,3.863-33.372-8.269-91.568
					c-12.634-60.609-32.115-154.055-30.348-215.968c3.936-137.918,114.489-160.647,98.312-262.536
					c-4.324-27.239-16.363-50.837-31.547-70.999C2645.073,1708.634,2563,1879.298,2592.467,1961.214z"/>
				<g>
					
						<linearGradient id="SVGID_00000131365756169695449260000013001495397430696320_" gradientUnits="userSpaceOnUse" x1="2868.7527" y1="2303.7114" x2="2901.4436" y2="2303.7114">
						<stop  offset="0" style="stop-color:#FFC444"/>
						<stop  offset="0.9964" style="stop-color:#F36F56"/>
					</linearGradient>
					<path style="fill:url(#SVGID_00000131365756169695449260000013001495397430696320_);" d="M2870.943,2276.242
						c0,0,27.577,9.258,30.501,54.939c-4.498-0.406-15-0.163-15-0.163s1.946-33.204-17.691-39.939
						C2870.335,2287.223,2870.943,2276.242,2870.943,2276.242z"/>
					
						<linearGradient id="SVGID_00000027606273859260305400000001048155284142559932_" gradientUnits="userSpaceOnUse" x1="2816.5198" y1="2370.1045" x2="2824.3672" y2="2253.27">
						<stop  offset="0.1" style="stop-color:#311944"/>
						<stop  offset="0.267" style="stop-color:#371B47"/>
						<stop  offset="0.4803" style="stop-color:#462150"/>
						<stop  offset="0.7186" style="stop-color:#612A5F"/>
						<stop  offset="0.9736" style="stop-color:#853774"/>
						<stop  offset="1" style="stop-color:#893976"/>
					</linearGradient>
					<path style="fill:url(#SVGID_00000027606273859260305400000001048155284142559932_);" d="M2768.641,2271.887
						c0.701,8.413,1.402,16.826,2.103,25.237c13.877-3.58,29.017-7.736,45.249-8.305c21.039-0.738,40.256,1.852,57.319,6.108
						c0.758-1.041,2.363-3.547,3.103-7.653c1.192-6.615-0.805-12.152-1.175-13.139c-8.683-3.196-18.113-5.914-28.234-7.827
						C2817.886,2260.804,2791.449,2265.362,2768.641,2271.887z"/>
					
						<linearGradient id="SVGID_00000020391272623153171810000003281417291319688849_" gradientUnits="userSpaceOnUse" x1="2772.5261" y1="2285.9365" x2="2862.283" y2="2334.0579">
						<stop  offset="0.1" style="stop-color:#311944"/>
						<stop  offset="0.267" style="stop-color:#371B47"/>
						<stop  offset="0.4803" style="stop-color:#462150"/>
						<stop  offset="0.7186" style="stop-color:#612A5F"/>
						<stop  offset="0.9736" style="stop-color:#853774"/>
						<stop  offset="1" style="stop-color:#893976"/>
					</linearGradient>
					<path style="fill:url(#SVGID_00000020391272623153171810000003281417291319688849_);" d="M2767.331,2279.147
						c0.042-3.039,0.274-6.831,1.31-7.261c0.976-0.405,2.287,2.363,2.851,3.899c0.235,0.639,0.752,2.187,1.076,7.094
						c0.417,6.326-0.069,9.418-0.515,11.325c-0.268,1.147-0.686,2.884-1.309,2.919c-0.5,0.029-0.935-1.078-1.583-3.218
						C2768.288,2291.022,2767.235,2286.218,2767.331,2279.147z"/>
					
						<linearGradient id="SVGID_00000000912945676113411930000009102085058749192096_" gradientUnits="userSpaceOnUse" x1="2741.6538" y1="2306.1077" x2="2770.5007" y2="2306.1077">
						<stop  offset="0" style="stop-color:#FFC444"/>
						<stop  offset="0.9964" style="stop-color:#F36F56"/>
					</linearGradient>
					<path style="fill:url(#SVGID_00000000912945676113411930000009102085058749192096_);" d="M2741.654,2331.978
						c5.851,1.151,20.052,4.554,20.052,4.554s-9.256-29.655,8.184-43.056c0.451-2.224,0.909-5.757,0.359-10.019
						c-0.426-3.298-1.314-5.941-2.081-7.774C2760.768,2279.732,2744.628,2293.512,2741.654,2331.978z"/>
					
						<linearGradient id="SVGID_00000154427127376176825870000013005443648179960483_" gradientUnits="userSpaceOnUse" x1="2644.9512" y1="2436.1641" x2="2593.6482" y2="1967.2054">
						<stop  offset="0.1" style="stop-color:#311944"/>
						<stop  offset="0.6853" style="stop-color:#6D2F66"/>
						<stop  offset="1" style="stop-color:#893976"/>
					</linearGradient>
					<path style="fill:url(#SVGID_00000154427127376176825870000013005443648179960483_);" d="M2619.345,2338.552
						c0,0,0.731-15.688,25.592-15.408c3.906,2.898,4.101,15.704,4.101,15.704L2619.345,2338.552z"/>
					
						<linearGradient id="SVGID_00000117669619324350480610000001310339822111757466_" gradientUnits="userSpaceOnUse" x1="2868.165" y1="2630.7585" x2="2528.4253" y2="2441.585">
						<stop  offset="0" style="stop-color:#311944"/>
						<stop  offset="1" style="stop-color:#893976"/>
					</linearGradient>
					<path style="fill:url(#SVGID_00000117669619324350480610000001310339822111757466_);" d="M2597.181,2647.475l68.05,40.147
						l40.859-151.617l-67.473-202.924l-19.271,5.47l-29.359,292.951C2589.32,2638.151,2592.196,2644.534,2597.181,2647.475z"/>
					
						<linearGradient id="SVGID_00000049939065202186142980000011303485789921500086_" gradientUnits="userSpaceOnUse" x1="2561.5896" y1="2367.5483" x2="2664.04" y2="2539.3499">
						<stop  offset="0" style="stop-color:#311944"/>
						<stop  offset="1" style="stop-color:#893976"/>
					</linearGradient>
					<path style="opacity:0.3;fill:url(#SVGID_00000049939065202186142980000011303485789921500086_);" d="M2706.09,2536.005
						l-67.473-202.924l-19.271,5.47c4.751,18.017,7.028,47.294,8.099,63.586c4.556,69.297,19.66,88.535,12.348,136.852
						c-6.087,40.219-19.401,45.812-18.236,72.859c1.269,29.452,18.389,53.833,38.681,72.827l4.995,2.947L2706.09,2536.005z"/>
					
						<linearGradient id="SVGID_00000011007988308179734570000013704150552827395497_" gradientUnits="userSpaceOnUse" x1="2822.6357" y1="2162.6067" x2="2860.0015" y2="2664.0972">
						<stop  offset="0.1" style="stop-color:#311944"/>
						<stop  offset="0.6853" style="stop-color:#6D2F66"/>
						<stop  offset="1" style="stop-color:#893976"/>
					</linearGradient>
					<polygon style="fill:url(#SVGID_00000011007988308179734570000013704150552827395497_);" points="2638.617,2333.081 
						3000.563,2336.866 3055.568,2648.6 2665.231,2687.622 					"/>
					<g style="opacity:0.2;">
						
							<linearGradient id="SVGID_00000163056969552299199210000005704794533099949480_" gradientUnits="userSpaceOnUse" x1="2756.259" y1="2446.4961" x2="3031.3992" y2="2658.4895">
							<stop  offset="0" style="stop-color:#311944"/>
							<stop  offset="1" style="stop-color:#893976"/>
						</linearGradient>
						<path style="fill:url(#SVGID_00000163056969552299199210000005704794533099949480_);" d="M3000.563,2336.866l-119.471-1.249
							c-2.223,6.449-5.623,15.374-10.59,25.469c-54.323,110.405-180.588,124.659-178.283,143.063
							c3.444,27.495,280.756-12.336,287.668,24.543c3.334,17.788-54.048,58.899-114.616,75.046
							c-73.348,19.555-127.833-3.305-164.349,39.361c-12.415,14.506-17.904,31.373-20.579,42.77l375.224-37.268L3000.563,2336.866z"
							/>
					</g>
					
						<linearGradient id="SVGID_00000000923079474255784330000000966999552958928010_" gradientUnits="userSpaceOnUse" x1="2685.385" y1="2417.7285" x2="2801.2451" y2="2413.2292">
						<stop  offset="0.1" style="stop-color:#311944"/>
						<stop  offset="0.6853" style="stop-color:#6D2F66"/>
						<stop  offset="1" style="stop-color:#893976"/>
					</linearGradient>
					<path style="fill:url(#SVGID_00000000923079474255784330000000966999552958928010_);" d="M2644.937,2323.144
						c-4.201-0.047-10.08-0.64-16.48,3.058c-1.367,0.79-2.575,1.662-3.635,2.551l2.949-1.019c4.741-1.342,11.273,0.584,13.71,5.377
						c2.994,5.889,4.071,19.452,4.726,26.17c1.861,19.108,13.285,137.862,13.285,137.862c0.855,10.003,8.405,17.545,17.314,17.311
						l335.28-19.123c2.475-0.063,4.919-0.87,6.959-2.497c4.254-3.393,6.175-9.262,5.189-14.832l-16.499-137.213
						c-1.398-7.903-7.391-13.633-14.35-13.711L2644.937,2323.144z"/>
					
						<linearGradient id="SVGID_00000049937687320581792130000002928575775358331817_" gradientUnits="userSpaceOnUse" x1="2865.7219" y1="2806.3657" x2="2825.4912" y2="2354.2505">
						<stop  offset="0.1" style="stop-color:#311944"/>
						<stop  offset="0.267" style="stop-color:#371B47"/>
						<stop  offset="0.4803" style="stop-color:#462150"/>
						<stop  offset="0.7186" style="stop-color:#612A5F"/>
						<stop  offset="0.9736" style="stop-color:#853774"/>
						<stop  offset="1" style="stop-color:#893976"/>
					</linearGradient>
					<path style="fill:url(#SVGID_00000049937687320581792130000002928575775358331817_);" d="M2648.647,2323.186
						c-4.199-0.047-9.183-0.68-14.742,0.755c-1.5,0.387-3.901,1.101-4.96,1.989c0,0,11.791-2.696,16.248,7.22
						c2.72,6.05,4.069,19.446,4.723,26.162c1.86,19.102,13.277,137.82,13.277,137.82c0.854,10,8.399,17.54,17.304,17.306
						l338.745-8.916c2.471-0.065,4.912-0.874,6.95-2.502c4.249-3.395,6.167-9.262,5.183-14.827l-20.15-147.368
						c-1.396-7.901-7.387-13.629-14.342-13.708L2648.647,2323.186z"/>
					
						<linearGradient id="SVGID_00000056388749136526028320000012470615430618330516_" gradientUnits="userSpaceOnUse" x1="2885.3335" y1="2911.2393" x2="2817.0996" y2="2287.5142">
						<stop  offset="0" style="stop-color:#311944"/>
						<stop  offset="1" style="stop-color:#893976"/>
					</linearGradient>
					<path style="opacity:0.1;fill:url(#SVGID_00000056388749136526028320000012470615430618330516_);" d="M3031.374,2488.193
						l-20.15-147.368c-1.397-7.901-7.387-13.629-14.342-13.708l-348.236-3.932c-4.199-0.047-9.183-0.68-14.742,0.755
						c-1.5,0.387-3.901,1.101-4.96,1.989c0,0,11.791-2.696,16.249,7.22c0.429,0.954,0.82,2.105,1.182,3.368
						c33.976,1.696,67.76,1.067,101.354,3.599c65.855,4.851,131.714,5.484,192.524,32.631c19.319,8.625,32.526,39.153,27.303,53.202
						c-3.769,10.137-16.649,9.308-21.15,22.635c-4.738,14.028,6.616,23.549,1.856,33.396c-4.993,10.329-20.182,5.45-44.854,12.902
						c-13.639,4.119-24.121,10.175-30.677,14.494l146.511-3.856c2.471-0.065,4.912-0.874,6.95-2.502
						C3030.44,2499.625,3032.359,2493.758,3031.374,2488.193z"/>
					<g>
						
							<linearGradient id="SVGID_00000080177955309457010980000011026194386988023446_" gradientUnits="userSpaceOnUse" x1="2981.5447" y1="2582.5552" x2="2775.7966" y2="2475.0049">
							<stop  offset="0" style="stop-color:#FFC444"/>
							<stop  offset="0.9964" style="stop-color:#F36F56"/>
						</linearGradient>
						<path style="fill:url(#SVGID_00000080177955309457010980000011026194386988023446_);" d="M2872.022,2533.888l-42.42,10.681
							l-4.498,0.407c-4.535,0.41-8.441-3.543-8.64-8.789l-1.873-49.6c-0.198-5.248,3.395-9.604,7.944-9.68l4.523-0.076l42.659,5.447
							c4.059-0.07,7.476-2.279,7.66,2.616l1.738,46.27C2879.3,2536.058,2876.07,2533.524,2872.022,2533.888z"/>
						
							<linearGradient id="SVGID_00000080901989429593693690000013126633453684085901_" gradientUnits="userSpaceOnUse" x1="2797.0928" y1="2491.5493" x2="3007.074" y2="2566.6897">
							<stop  offset="0" style="stop-color:#FFC444"/>
							<stop  offset="0.9964" style="stop-color:#F36F56"/>
						</linearGradient>
						<path style="fill:url(#SVGID_00000080901989429593693690000013126633453684085901_);" d="M2875.235,2540.703l-46.99,4.25
							c-4.533,0.41-8.437-3.542-8.635-8.786l-1.872-49.586c-0.198-5.246,3.393-9.601,7.94-9.678l47.13-0.791
							c4.057-0.068,7.499,3.881,7.683,8.775l1.737,46.258C2882.412,2536.037,2879.281,2540.337,2875.235,2540.703z"/>
					</g>
				</g>
				
					<linearGradient id="SVGID_00000100368326886140535400000017513184388657653652_" gradientUnits="userSpaceOnUse" x1="2839.8896" y1="2426.1851" x2="2822.3506" y2="2229.0808">
					<stop  offset="0" style="stop-color:#FFC444"/>
					<stop  offset="0.9964" style="stop-color:#F36F56"/>
				</linearGradient>
				<path style="fill:url(#SVGID_00000100368326886140535400000017513184388657653652_);" d="M2818.426,2208.621
					c0,0-3.95,26.172-7.901,28.641c-3.95,2.469-16.296,16.296-13.827,25.184c2.469,8.888-6.917,29.172,10.615,34.092
					c17.532,4.919,37.684,10.176,39.706-5.539c2.022-15.714-2.916-33.491-2.422-46.824c0.494-13.333,7.407-26.666,7.407-26.666
					L2818.426,2208.621z"/>
				
					<linearGradient id="SVGID_00000124152141740182449820000002140005734432301736_" gradientUnits="userSpaceOnUse" x1="3349.3545" y1="2674.4338" x2="2605.3418" y2="1606.2968">
					<stop  offset="0.0036" style="stop-color:#6165D7"/>
					<stop  offset="1" style="stop-color:#AA80F9"/>
				</linearGradient>
				<path style="fill:url(#SVGID_00000124152141740182449820000002140005734432301736_);" d="M2652.794,1547.849
					c-23.435,114.236-3.208,188.273,21.228,235.731c49.471,96.078,134.491,118.74,148.643,203.964
					c10.21,61.473,14.65,182.694-15.352,222.016c27.044,10.792,29.877,10.185,50.287,10.185
					c27.356-15.624,85.656-119.896,110.244-252.946C2997.672,1805.404,2872.887,1614.823,2652.794,1547.849z"/>
				
					<linearGradient id="SVGID_00000051358709520382603220000008948693585942549423_" gradientUnits="userSpaceOnUse" x1="2481.5623" y1="1623.2073" x2="2481.5623" y2="1427.6224">
					<stop  offset="0" style="stop-color:#FFC444"/>
					<stop  offset="0.9964" style="stop-color:#F36F56"/>
				</linearGradient>
				<path style="fill:url(#SVGID_00000051358709520382603220000008948693585942549423_);" d="M2579.827,1546.642
					c-11.612-4.744-67.954-16.211-80.448-40.632c-13.827-27.022-18.502-64.21-18.502-64.21s-38.875,10.328-33.183,30.413
					c5.694,20.083-3.997,66.114-26.311,76.396c-15.624,7.199-34.979,10.086-39.175,14.901c-0.457,0.069-0.744,0.135-0.847,0.199
					c-3.216,2.009,6.796,17.448,46.958,39.834c138.59-20.869,153.18-44.602,153.786-52.761
					C2582.716,1549.004,2582.064,1547.556,2579.827,1546.642z"/>
				<g>
					
						<linearGradient id="SVGID_00000124163126441641773120000011633377727962643902_" gradientUnits="userSpaceOnUse" x1="2521.0645" y1="1564.1267" x2="2440.1101" y2="1358.5173">
						<stop  offset="0" style="stop-color:#444B8C"/>
						<stop  offset="0.9964" style="stop-color:#3E4177"/>
					</linearGradient>
					<path style="fill:url(#SVGID_00000124163126441641773120000011633377727962643902_);" d="M2428.847,1432.351
						c-18.03-15.082-20.517-16.814-22.793-22.344c-9.13-22.197,6.04-54.813,28.602-64.352c1.173-0.495,16.318-6.717,22.791-0.448
						c5.498,5.322-1.281,13.826,3.128,24.58c4.129,10.068,13.149,10.124,30.835,22.344c14.57,10.063,23.625,16.319,26.367,25.921
						c5.655,19.795-16.363,50.903-37.986,51.837C2472.015,1470.225,2469.589,1466.433,2428.847,1432.351z"/>
					<g>
						
							<linearGradient id="SVGID_00000136394573909885735110000004981309200873148552_" gradientUnits="userSpaceOnUse" x1="-149.222" y1="1570.176" x2="-58.7276" y2="1394.2146" gradientTransform="matrix(0.827 0.5622 -0.5622 0.827 3357.9539 289.0357)">
							<stop  offset="0" style="stop-color:#FFC444"/>
							<stop  offset="0.9964" style="stop-color:#F36F56"/>
						</linearGradient>
						<path style="fill:url(#SVGID_00000136394573909885735110000004981309200873148552_);" d="M2477.93,1473.165
							c0,0-16.155,21.541-43.752,17.059c-24.709-4.012-22.983-60.124-5.961-70.43c5.678-3.437,16.448-4.053,24.844-0.806
							c4.96,1.919,6.479,4.203,14.644,7.182c7.53,2.745,9.796,2.099,11.936,4.287c2.681,2.734,4.237,8.956-2.202,24.79
							c5.207-4.349,11.078-5.642,14.929-3.351c0.614,0.367,2.211,1.694,3.001,3.545
							C2498.232,1462.147,2491.633,1469.721,2477.93,1473.165z"/>
					</g>
				</g>
				<g>
					
						<linearGradient id="SVGID_00000096778601278415969900000002668418795760281790_" gradientUnits="userSpaceOnUse" x1="1434.0234" y1="1455.9465" x2="1450.3473" y2="1695.0918" gradientTransform="matrix(-1 0 0 1 3882.3601 0)">
						<stop  offset="0" style="stop-color:#444B8C"/>
						<stop  offset="0.9964" style="stop-color:#26264F"/>
					</linearGradient>
					<path style="fill:url(#SVGID_00000096778601278415969900000002668418795760281790_);" d="M2466.286,1598.831
						c0,0-7.833,41.813-20.076,42.63c-12.243,0.816-21.221,2.449-21.221,2.449l-13.695-51.135
						C2411.294,1592.774,2429.147,1607.314,2466.286,1598.831z"/>
					
						<linearGradient id="SVGID_00000076562710814819632570000002532298255553062558_" gradientUnits="userSpaceOnUse" x1="1389.843" y1="1932.3868" x2="1389.843" y2="1395.2074" gradientTransform="matrix(-1 0 0 1 3882.3601 0)">
						<stop  offset="0" style="stop-color:#444B8C"/>
						<stop  offset="0.9964" style="stop-color:#26264F"/>
					</linearGradient>
					<path style="fill:url(#SVGID_00000076562710814819632570000002532298255553062558_);" d="M2452.02,1637.973
						c0,0,27.246,305.888,122.741,354.859c-2.448,9.794,0,89.373,0,89.373s-89.019-26.803-94.093-25.032
						c-5.074,1.771-107.811-168.518-55.678-413.264L2452.02,1637.973z"/>
				</g>
			</g>
			<g>
				<g>
					
						<linearGradient id="SVGID_00000145760981948659599080000007695078885154280865_" gradientUnits="userSpaceOnUse" x1="3079.1736" y1="1679.7297" x2="3169.8579" y2="1793.8221" gradientTransform="matrix(0.9618 0.2736 -0.2736 0.9618 -740.275 -628.4864)">
						<stop  offset="0" style="stop-color:#FFC444"/>
						<stop  offset="0.9964" style="stop-color:#F36F56"/>
					</linearGradient>
					<path style="fill:url(#SVGID_00000145760981948659599080000007695078885154280865_);" d="M1720.858,1891.176
						c0,0,36.997-32.601,44.49-44.502s7.701,11.432,0.199,16.143s105.802-10.974,85.837,8.674s-34.362,38.167-61.182,39.411
						c-26.82,1.245-58.458,9.382-63.926,12.961C1720.809,1927.443,1720.858,1891.176,1720.858,1891.176z"/>
					
						<linearGradient id="SVGID_00000033328304083752389300000011466252820482706854_" gradientUnits="userSpaceOnUse" x1="712.8768" y1="2140.7468" x2="832.5871" y2="1661.9042" gradientTransform="matrix(-1 0 0 1 1777.72 0)">
						<stop  offset="0" style="stop-color:#FF9085"/>
						<stop  offset="1" style="stop-color:#FB6FBB"/>
					</linearGradient>
					<path style="fill:url(#SVGID_00000033328304083752389300000011466252820482706854_);" d="M988.562,1664.098
						c-9.083,3.434-147.634,58.533-176.114,203.141c-2.3,11.683-24.559,135.922,59.696,223.691
						c94.478,98.418,276.402,95.978,348.615,13.702c16.84-19.186,25.723-40.453,30.7-58.32l0,0l-19.027-50.549
						c-23.216-28.027-54.827-34.669-71.709-38.828c-41.617-10.257-73.04,8.28-96.874-11.79
						c-13.189-11.103-15.808-27.085-18.148-41.361c-7.972-48.625,19.474-78.557,21.471-108.541
						c1.494-22.418,9.34-71.535-19.918-103.564C1028.727,1671.396,1003.065,1665.874,988.562,1664.098z"/>
					
						<linearGradient id="SVGID_00000052826131737541059120000007720644370520299415_" gradientUnits="userSpaceOnUse" x1="494.8287" y1="3143.1396" x2="551.6148" y2="3193.6511" gradientTransform="matrix(-0.9902 -0.14 -0.14 0.9902 1880.5627 206.9384)">
						<stop  offset="0" style="stop-color:#444B8C"/>
						<stop  offset="0.9964" style="stop-color:#26264F"/>
					</linearGradient>
					<path style="fill:url(#SVGID_00000052826131737541059120000007720644370520299415_);" d="M934.577,3275.692
						c-1.616-8.902-30.366-16.961-44.6-5.036c-7.069,5.92-11.936,17.922-7.845,23.341c1.486,1.972-4.606,5.44,1.232,5.508
						C902.729,3299.731,936.184,3284.538,934.577,3275.692z"/>
					
						<linearGradient id="SVGID_00000091715016838705774580000005171144247918071228_" gradientUnits="userSpaceOnUse" x1="-375.736" y1="3193.731" x2="-375.736" y2="3094.8054" gradientTransform="matrix(-0.9902 -0.14 -0.14 0.9902 964.3617 77.4224)">
						<stop  offset="0" style="stop-color:#FFC444"/>
						<stop  offset="0.9964" style="stop-color:#F36F56"/>
					</linearGradient>
					<path style="fill:url(#SVGID_00000091715016838705774580000005171144247918071228_);" d="M904.443,3278.931l-29.567-4.179
						c13.698-16.492,11.162-69.011,11.162-69.011l31.444,7.017c0,0-3.582,14.416-9.677,35.682
						C905.717,3255.718,904.786,3267.11,904.443,3278.931z"/>
					
						<linearGradient id="SVGID_00000121247550672033607090000013475062356239616145_" gradientUnits="userSpaceOnUse" x1="500.538" y1="3136.7224" x2="557.3241" y2="3187.2339" gradientTransform="matrix(-0.9902 -0.14 -0.14 0.9902 1880.5627 206.9384)">
						<stop  offset="0" style="stop-color:#444B8C"/>
						<stop  offset="0.9964" style="stop-color:#26264F"/>
					</linearGradient>
					<path style="fill:url(#SVGID_00000121247550672033607090000013475062356239616145_);" d="M907.065,3275.289
						c0,0-35.597-8.201-39.447-1.14c-3.852,7.061-6.84,25.967,15.744,25.356C905.947,3298.896,909.071,3281.277,907.065,3275.289z"
						/>
					
						<linearGradient id="SVGID_00000147221469622978108520000002865878555828372661_" gradientUnits="userSpaceOnUse" x1="425.2411" y1="3281.3979" x2="482.03" y2="3331.9119" gradientTransform="matrix(-1 0 0 1 1777.72 0)">
						<stop  offset="0" style="stop-color:#444B8C"/>
						<stop  offset="0.9964" style="stop-color:#26264F"/>
					</linearGradient>
					<path style="fill:url(#SVGID_00000147221469622978108520000002865878555828372661_);" d="M1340.266,3309.074
						c-2.847-8.588-32.44-12.543-44.867,1.256c-6.169,6.85-9.31,19.416-4.501,24.209c1.749,1.747-3.798,6.032,1.992,5.283
						C1312.096,3337.335,1343.095,3317.607,1340.266,3309.074z"/>
					
						<linearGradient id="SVGID_00000070084828497256681580000009026850749701048255_" gradientUnits="userSpaceOnUse" x1="-445.3668" y1="3332.012" x2="-445.3668" y2="3233.0815" gradientTransform="matrix(-1 0 0 1 852.4098 0)">
						<stop  offset="0" style="stop-color:#FFC444"/>
						<stop  offset="0.9964" style="stop-color:#F36F56"/>
					</linearGradient>
					<path style="fill:url(#SVGID_00000070084828497256681580000009026850749701048255_);" d="M1310.882,3316.499h-29.86
						c11.255-18.247,1.392-69.894,1.392-69.894l32.116,2.548c0,0-1.529,14.776-4.588,36.683
						C1308.897,3293.336,1309.568,3304.747,1310.882,3316.499z"/>
					
						<linearGradient id="SVGID_00000155864167369802009460000009889483985875361953_" gradientUnits="userSpaceOnUse" x1="1515.5712" y1="2024.6852" x2="696.4498" y2="3677.5532">
						<stop  offset="0" style="stop-color:#444B8C"/>
						<stop  offset="0.9964" style="stop-color:#26264F"/>
					</linearGradient>
					<path style="fill:url(#SVGID_00000155864167369802009460000009889483985875361953_);" d="M1388.271,2187.288
						c13.832,45.68,33.587,119.405,46.302,211.904c36.271,263.837-40.82,272.253-26.423,564.617
						c4.595,93.324-80.849,308.519-88.381,313.272c-3.646,0.353-7.6,0.591-11.817,0.463c-7.432-0.225-17.91-1.363-30.095-5.017
						c-13.535-2.332-62.335-134.509-51.023-213.097c8.004-55.622,5.683-115.315,1.043-234.701
						c-0.752-19.345-50.245-376.361-50.245-376.361l0,0c-15.056,132.146-32.37,244.429-47.381,331.485
						c-48.226,279.691-205.029,448.979-213.207,451.693c-1.617,0.649-16.329,5.994-28.359-1.934
						c-5.354-3.53-7.177-8.083-7.177-8.083c-4.194-3.285,1.237-279.24,49.064-486.921c69.421-301.445,39.192-371.978,61.186-506.623
						C1010.786,2111.48,1388.271,2187.288,1388.271,2187.288z"/>
					
						<linearGradient id="SVGID_00000117653855633646354730000001442496256335586469_" gradientUnits="userSpaceOnUse" x1="1602.9963" y1="2262.7661" x2="666.6246" y2="1611.5538">
						<stop  offset="0" style="stop-color:#FF9085"/>
						<stop  offset="1" style="stop-color:#FB6FBB"/>
					</linearGradient>
					<path style="fill:url(#SVGID_00000117653855633646354730000001442496256335586469_);" d="M1406.837,2232.839
						c-41.68,21.396-149.055,59.7-276.974,40.663c-58.454-8.683-105.212-28.114-138.11-45.48
						c3.998-12.124,7.144-23.592,9.568-34.437c17.53-79-3.899-125.855-14.711-169.435c-17.498-70.709-17.793-65.369-32.21-121.53
						c-23.821-92.663-27.72-187.325-11.371-206.723c44.103-52.229,123.562-54.097,164.847-55.342
						c46.07-1.343,152.003-17.595,210.36,34.896c1.016,0.918-10.945,7.307-5.046,14.188c5.472,6.389,24.215,28.834,41.187,59.11
						c12.321,21.953,23.429,47.544,34.635,85.651c15.465,52.656,22.312,99.184,25.459,128.87c0.851,8.224,1.442,15.171,1.867,20.577
						C1427.02,2124.12,1416.438,2188.833,1406.837,2232.839z"/>
					
						<linearGradient id="SVGID_00000101783003882718180260000008570752146655030147_" gradientUnits="userSpaceOnUse" x1="430.9504" y1="3274.981" x2="487.7387" y2="3325.4944" gradientTransform="matrix(-1 0 0 1 1777.72 0)">
						<stop  offset="0" style="stop-color:#444B8C"/>
						<stop  offset="0.9964" style="stop-color:#26264F"/>
					</linearGradient>
					<path style="fill:url(#SVGID_00000101783003882718180260000008570752146655030147_);" d="M1312.97,3312.525
						c0,0-36.394-3.138-39.218,4.393c-2.824,7.53-3.138,26.669,19.138,22.904C1315.167,3336.057,1315.794,3318.173,1312.97,3312.525
						z"/>
					<g>
						
							<linearGradient id="SVGID_00000162342518395631924520000013732925613150108576_" gradientUnits="userSpaceOnUse" x1="1143.109" y1="1662.1198" x2="1254.2693" y2="1445.0094">
							<stop  offset="0" style="stop-color:#FFC444"/>
							<stop  offset="0.9964" style="stop-color:#F36F56"/>
						</linearGradient>
						<path style="fill:url(#SVGID_00000162342518395631924520000013732925613150108576_);" d="M1225.848,1588.414
							c13.437-22.719,7.45-48.673,6.101-54.282c-5.652-23.48-7.754-27.042-12.112-32.009l-6.162-6.516c0,0-0.381-0.285-0.788-0.564
							c-4.284-2.947-20.286-7.738-23.739-7.91c-11.034-0.554-33.489,39.013-46.345,99.987c-1.044,2.176-2.078,4.376-3.102,6.599
							c-6.378,13.834-11.849,27.438-16.546,40.702c-74.567,6.306-84.917,15.053-85.248,20.105
							c-0.701,10.636,41.787,22.925,73.739,27.604c69.686,10.203,141.317-8.176,140.989-21.17
							c-0.142-5.657-13.992-13.029-73.066-20.766c1.382-9.776,2.763-19.551,4.144-29.328
							C1188.514,1609.803,1215.95,1605.153,1225.848,1588.414z"/>
						<path style="fill:#26264F;" d="M1239.865,1484.295c-5.028,18.611-19.109,36.167-24.432,38.171
							c-0.688,0.259-4.623,1.961-8.712,5.572c-0.557,0.491-1.094,1.098-1.649,1.918c-7.21,10.651,7.773,29.442,2.769,33.738
							c-3.63,3.117-14.956-5.364-17.342-2.474c-2.247,2.719,6.583,11.948,3.98,15.228c-1.965,2.476-7.77-1.816-13.005,1.386
							c-2.61,1.594-2.462,3.449-6.366,9.408c-2.208,3.369-4.995,6.958-6.92,8.855c-9.354,9.221-28.652,8.355-30.994,3.044
							c-0.651-1.479,0.46-2.282,0.553-6.642c0,0,0.087-4.04-1.383-9.131c-2.101-7.272-10.011-14.18-17.434-23.246
							c-13.748-16.787-15.588-28.463-16.035-32.36c-0.159-1.389-0.214-2.419-0.252-3.162c-0.763-14.91,4.594-35.083,14.073-45.841
							c15.88-18.021,36.577-1.939,61.16-17.434c28.361-17.879,23.895-53.843,36.805-54.241
							C1228.913,1406.642,1249.161,1449.88,1239.865,1484.295z"/>
						
							<linearGradient id="SVGID_00000100344042953055412760000009297001270909997985_" gradientUnits="userSpaceOnUse" x1="508.5035" y1="1476.9294" x2="797.9677" y2="1841.1122" gradientTransform="matrix(-1 0 0 1 1777.72 0)">
							<stop  offset="0" style="stop-color:#FFC444"/>
							<stop  offset="0.9964" style="stop-color:#F36F56"/>
						</linearGradient>
						<path style="fill:url(#SVGID_00000100344042953055412760000009297001270909997985_);" d="M1202.311,1557.531
							c-2.894-7.49-12.489-3.734-14.698,4.37c-2.212,8.103,3.404,18.64,11.461,19.07
							C1207.132,1581.403,1206.204,1567.612,1202.311,1557.531z"/>
					</g>
					<g>
						
							<linearGradient id="SVGID_00000008113453510152654760000011759932201346137509_" gradientUnits="userSpaceOnUse" x1="954.8205" y1="2037.5017" x2="1009.9566" y2="2037.5017">
							<stop  offset="0" style="stop-color:#FF9085"/>
							<stop  offset="1" style="stop-color:#FB6FBB"/>
						</linearGradient>
						<path style="fill:url(#SVGID_00000008113453510152654760000011759932201346137509_);" d="M1006.439,2165.054
							c-0.073,0-0.147-0.004-0.22-0.012c-1.084-0.12-1.865-1.097-1.746-2.181c5.436-48.917-4.705-84.47-13.651-115.836
							c-2.211-7.75-4.298-15.069-6.119-22.414c-9.944-40.118-14.295-55.606-18.904-72.003c-3.003-10.682-6.107-21.725-10.916-40.186
							c-0.274-1.055,0.359-2.134,1.414-2.409c1.042-0.272,2.133,0.357,2.409,1.414c4.799,18.424,7.899,29.45,10.895,40.113
							c4.618,16.427,8.977,31.944,18.936,72.121c1.804,7.279,3.883,14.566,6.082,22.281c9.047,31.717,19.301,67.667,13.78,117.356
							C1008.289,2164.307,1007.432,2165.054,1006.439,2165.054z"/>
					</g>
					<path style="fill:#26264F;" d="M1202.229,1542.964l6.918,16.602c0,0,6.919,19.925,16.051,12.455
						c7.46-6.105,8.827-5.56,9.076-5.155c0.047,0.077,0.04,0.173,0.056,0.173c0.103,0,0.204-3.975,0.277-7.474
						c1.74,4.8,3.875,12.402,3.874,21.864c-0.001,9.191-0.001,19.031-7.195,26.566c-0.416,0.436-8.254,8.407-18.818,8.026
						c0,0-4.154-0.149-19.926-7.47c0,0,21.585-8.302,22.693-11.347c3.009-8.278-7.527-15.994-11.625-35.702
						C1202.032,1553.903,1201.993,1547.382,1202.229,1542.964z"/>
					
						<linearGradient id="SVGID_00000183942649758555345420000015196596553135938965_" gradientUnits="userSpaceOnUse" x1="991.753" y1="2110.4314" x2="1420.8116" y2="2110.4314">
						<stop  offset="0" style="stop-color:#FF9085"/>
						<stop  offset="1" style="stop-color:#FB6FBB"/>
					</linearGradient>
					<path style="opacity:0.3;fill:url(#SVGID_00000183942649758555345420000015196596553135938965_);" d="M1406.837,2232.839
						c-41.68,21.396-149.055,59.7-276.974,40.663c-58.454-8.683-105.212-28.114-138.11-45.48
						c3.998-12.124,7.144-23.592,9.568-34.437c85.095,59.602,120.679,1.638,175.628-12.025
						c57.178-14.188,130.705,15.302,85.946-116.746c-44.791-132.048,29.49-122.448,29.49-122.448l122.088,20.905
						c0.851,8.224,1.442,15.171,1.867,20.577C1427.02,2124.12,1416.438,2188.833,1406.837,2232.839z"/>
					
						<linearGradient id="SVGID_00000022551703750836900830000013418819702521699767_" gradientUnits="userSpaceOnUse" x1="966.83" y1="2314.5986" x2="71.9667" y2="1692.2538" gradientTransform="matrix(-1 0 0 1 1777.72 0)">
						<stop  offset="0" style="stop-color:#FF9085"/>
						<stop  offset="1" style="stop-color:#FB6FBB"/>
					</linearGradient>
					<path style="fill:url(#SVGID_00000022551703750836900830000013418819702521699767_);" d="M1721.618,1886.088
						c16.667,11.663,25.607,27.503,30.241,37.614c-12.255,28.762-40.047,82.17-97.573,121.529
						c-94.321,64.536-232.62,66.707-328.949-6.89c-115.087-87.926-134.316-256.534-85.977-328.741
						c5.564-8.312,23.859-35.64,52.26-38.776c17.937-1.981,42.35,5.416,80.921,50.575c80.37,94.102,51.982,152.858,99.465,180.388
						C1543.209,1943.069,1649.016,1835.281,1721.618,1886.088z"/>
					<g>
						
							<linearGradient id="SVGID_00000169540198620864133540000004290622105870683327_" gradientUnits="userSpaceOnUse" x1="1231.8127" y1="1994.1537" x2="1399.6083" y2="1994.1537">
							<stop  offset="0" style="stop-color:#FF9085"/>
							<stop  offset="1" style="stop-color:#FB6FBB"/>
						</linearGradient>
						<path style="fill:url(#SVGID_00000169540198620864133540000004290622105870683327_);" d="M1397.636,2078.814
							c-0.139,0-0.28-0.014-0.42-0.044c-1.138-0.247-114.411-26.277-165.284-166.627c-0.37-1.025,0.158-2.158,1.184-2.53
							c1.028-0.373,2.158,0.158,2.531,1.183c50.098,138.212,161.289,163.87,162.406,164.112c1.067,0.232,1.742,1.283,1.51,2.349
							C1399.362,2078.182,1398.544,2078.814,1397.636,2078.814z"/>
					</g>
				</g>
			</g>
			
				<linearGradient id="SVGID_00000065792622391225801700000000459850963994681235_" gradientUnits="userSpaceOnUse" x1="1796.1484" y1="1851.9613" x2="1842.6221" y2="1899.2646">
				<stop  offset="0" style="stop-color:#FFC444"/>
				<stop  offset="0.9964" style="stop-color:#F36F56"/>
			</linearGradient>
			<path style="fill:url(#SVGID_00000065792622391225801700000000459850963994681235_);" d="M1828.509,1861.804
				c0,0-8.395-16.131-20.082-8.23c-11.687,7.901-28.093,13.333-17.174,16.131
				C1802.172,1872.503,1828.509,1861.804,1828.509,1861.804z"/>
		</g>
		<g>
			<g>
				<g>
					
						<linearGradient id="SVGID_00000055684502154661981690000001616650937616528809_" gradientUnits="userSpaceOnUse" x1="9775.1035" y1="-8889.4365" x2="8004.7554" y2="-7260.7139" gradientTransform="matrix(0.2845 0.9587 0.9587 -0.2845 5441.478 -7714.2354)">
						<stop  offset="0.0036" style="stop-color:#6165D7"/>
						<stop  offset="1" style="stop-color:#AA80F9"/>
					</linearGradient>
					<polygon style="fill:url(#SVGID_00000055684502154661981690000001616650937616528809_);" points="1331.953,978.411 
						1247.69,1124.415 1103.876,1047.876 1129.144,1142.302 1272.941,1218.774 1357.221,1072.837 					"/>
				</g>
				
					<linearGradient id="SVGID_00000032639271037330173730000010323998730572882615_" gradientUnits="userSpaceOnUse" x1="2528.8115" y1="58.5921" x2="758.4224" y2="1687.3527">
					<stop  offset="0.0036" style="stop-color:#6165D7"/>
					<stop  offset="1" style="stop-color:#AA80F9"/>
				</linearGradient>
				<path style="fill:url(#SVGID_00000032639271037330173730000010323998730572882615_);" d="M2296.677,753.343l-110.696-44.562
					c-31.705-41.402-70.782-77.828-116.434-107.5c-226.33-147.049-540.33-78.772-699.983,152.17
					c-66.315,95.879-97.766,206.683-91.155,317.705c1.234,21.609,3.958,43.255,8.134,64.791c3.596,18.45-8.788,36.971-27.672,41.402
					c-18.85,4.431-37.045-6.937-40.641-25.386c-3.015-15.653-5.375-31.305-7.081-46.995
					c-14.527-135.282,20.81-271.582,101.616-388.451c181.733-262.902,539.204-340.621,796.841-173.234
					c31.959,20.773,61.048,44.453,87.162,70.565C2237.842,654.959,2271.4,702.099,2296.677,753.343z"/>
			</g>
			<g>
				<g>
					
						<linearGradient id="SVGID_00000096740389111537504660000013210108539714986891_" gradientUnits="userSpaceOnUse" x1="-2885.8669" y1="-3496.4893" x2="-2672.2297" y2="-3496.4893" gradientTransform="matrix(-0.2845 -0.9587 -0.9587 0.2845 -1813.0138 -690.6609)">
						<stop  offset="0" style="stop-color:#FF9085"/>
						<stop  offset="1" style="stop-color:#FB6FBB"/>
					</linearGradient>
					<polygon style="fill:url(#SVGID_00000096740389111537504660000013210108539714986891_);" points="2244.553,1115.558 
						2328.816,969.555 2472.631,1046.093 2447.362,951.668 2303.565,875.195 2219.285,1021.132 					"/>
				</g>
				
					<linearGradient id="SVGID_00000047043094221806667750000001951789929049357503_" gradientUnits="userSpaceOnUse" x1="1281.6772" y1="1277.3083" x2="2368.5417" y2="1277.3083">
					<stop  offset="0" style="stop-color:#FF9085"/>
					<stop  offset="1" style="stop-color:#FB6FBB"/>
				</linearGradient>
				<path style="fill:url(#SVGID_00000047043094221806667750000001951789929049357503_);" d="M2263.773,1377.458
					c-181.768,262.902-539.241,340.585-796.877,173.198c-31.96-20.737-61.05-44.416-87.162-70.528
					c-40.057-40.131-72.998-85.999-98.057-135.827l117.161,51.389c30.143,37.08,66.387,69.875,108.153,97.004
					c226.294,147.049,540.295,78.772,699.946-152.17c66.315-95.879,97.766-206.683,91.157-317.741
					c-1.236-21.609-3.96-43.218-8.136-64.754c-3.595-18.45,8.789-36.971,27.674-41.402c18.849-4.431,37.043,6.937,40.639,25.386
					c3.015,15.653,5.375,31.306,7.083,46.995C2379.881,1124.289,2344.544,1260.588,2263.773,1377.458z"/>
			</g>
			<g>
				
					<linearGradient id="SVGID_00000160890399806146956290000012749315593054541488_" gradientUnits="userSpaceOnUse" x1="1625.2438" y1="1075.2919" x2="1149.851" y2="1227.8597">
					<stop  offset="0" style="stop-color:#FCB148"/>
					<stop  offset="0.0521" style="stop-color:#FDBA46"/>
					<stop  offset="0.1424" style="stop-color:#FFC244"/>
					<stop  offset="0.3183" style="stop-color:#FFC444"/>
					<stop  offset="0.4849" style="stop-color:#FDB946"/>
					<stop  offset="0.7754" style="stop-color:#F99C4D"/>
					<stop  offset="0.8658" style="stop-color:#F8924F"/>
					<stop  offset="1" style="stop-color:#F8924F"/>
				</linearGradient>
				<path style="fill:url(#SVGID_00000160890399806146956290000012749315593054541488_);" d="M2172.522,1058.042
					c0,220.541-172.449,394.029-392.859,387.261c-229.381-7.044-422.298-205.149-422.298-442.216
					c0-237.067,192.917-409.16,422.298-385.275C2000.072,640.762,2172.522,837.502,2172.522,1058.042z"/>
				
					<linearGradient id="SVGID_00000057829405512276745860000013188022358914680511_" gradientUnits="userSpaceOnUse" x1="2009.8088" y1="602.0861" x2="1585.4073" y2="1538.3948">
					<stop  offset="0" style="stop-color:#FFDB44"/>
					<stop  offset="1" style="stop-color:#FEEF06"/>
				</linearGradient>
				<path style="fill:url(#SVGID_00000057829405512276745860000013188022358914680511_);" d="M2232.081,1039.026
					c0,220.541-172.45,394.028-392.859,387.26c-229.381-7.044-422.299-205.149-422.299-442.216
					c0-237.067,192.918-409.16,422.299-385.275C2059.631,621.746,2232.081,818.486,2232.081,1039.026z"/>
				
					<linearGradient id="SVGID_00000003825997321300847590000013911000788232502713_" gradientUnits="userSpaceOnUse" x1="1931.74" y1="1590.7256" x2="1849.8508" y2="1143.368">
					<stop  offset="0" style="stop-color:#FCB148"/>
					<stop  offset="0.0521" style="stop-color:#FDBA46"/>
					<stop  offset="0.1424" style="stop-color:#FFC244"/>
					<stop  offset="0.3183" style="stop-color:#FFC444"/>
					<stop  offset="0.4849" style="stop-color:#FDB946"/>
					<stop  offset="0.7754" style="stop-color:#F99C4D"/>
					<stop  offset="0.8658" style="stop-color:#F8924F"/>
					<stop  offset="1" style="stop-color:#F8924F"/>
				</linearGradient>
				<path style="fill:url(#SVGID_00000003825997321300847590000013911000788232502713_);" d="M2214.781,1037.859
					c0,210.829-165.002,376.397-375.559,369.579c-218.729-7.083-402.375-196.143-402.375-422.025s183.646-390.18,402.375-367.771
					C2049.779,639.215,2214.781,827.031,2214.781,1037.859z"/>
				
					<linearGradient id="SVGID_00000013189314135127465260000015854454724108235445_" gradientUnits="userSpaceOnUse" x1="1758.1194" y1="866.6281" x2="2095.5955" y2="1583.0253">
					<stop  offset="0" style="stop-color:#FCB148"/>
					<stop  offset="0.0521" style="stop-color:#FDBA46"/>
					<stop  offset="0.1424" style="stop-color:#FFC244"/>
					<stop  offset="0.3183" style="stop-color:#FFC444"/>
					<stop  offset="0.4849" style="stop-color:#FDB946"/>
					<stop  offset="0.7754" style="stop-color:#F99C4D"/>
					<stop  offset="0.8658" style="stop-color:#F8924F"/>
					<stop  offset="1" style="stop-color:#F8924F"/>
				</linearGradient>
				<path style="fill:url(#SVGID_00000013189314135127465260000015854454724108235445_);" d="M2202.39,1037.025
					c0,203.873-159.66,363.784-363.169,356.952c-211.133-7.089-388.185-189.689-388.185-407.606s177.052-376.644,388.185-355.265
					C2042.73,651.713,2202.39,833.151,2202.39,1037.025z"/>
				<g>
					
						<linearGradient id="SVGID_00000116195058524918142210000011962904595625167516_" gradientUnits="userSpaceOnUse" x1="1744.6741" y1="712.4686" x2="1914.3687" y2="1348.454">
						<stop  offset="0" style="stop-color:#FFDB44"/>
						<stop  offset="1" style="stop-color:#FEEF06"/>
					</linearGradient>
					<path style="fill:url(#SVGID_00000116195058524918142210000011962904595625167516_);" d="M1837.138,700.463L1837.138,700.463
						c10.83,1.03,19.595,10.779,19.595,21.777v37.536c21.654,2.418,43.339,6.182,65.056,11.286
						c16.012,3.763,31.916,8.243,47.713,13.436c9.466,3.112,15.915,12.669,14.95,22.526l-4.61,47.069
						c-1.223,12.488-13.568,19.822-25.189,14.64c-10.406-4.64-21.074-8.615-32.009-11.924c-19.08-5.773-39.201-9.537-60.375-11.282
						l-5.536-0.456V952.57c56.493,15.805,97.982,37.069,124.794,63.813c26.683,26.616,39.977,59.788,39.977,99.611
						c0,43.065-14.698,77.549-44.211,103.556c-29.671,26.146-71.27,40.851-125.064,44.035v41.43
						c0,11.003-8.771,19.573-19.611,19.143l-0.347-0.014c-10.861-0.432-19.68-9.733-19.68-20.774v-40.869l-8.73-0.394
						c-25.218-1.138-49.374-3.71-72.453-7.724c-17.092-2.973-33.782-6.811-50.068-11.515c-9.849-2.845-16.611-12.227-15.707-22.307
						l5.424-60.506c1.172-13.08,14.311-20.692,26.749-15.785c14.498,5.719,29.176,10.536,44.034,14.454
						c23.154,6.106,46.622,10.022,70.401,11.761l0.349-119.579c-54.228-13.418-94.827-33.293-121.5-59.617
						c-26.798-26.449-40.245-60.298-40.245-101.452c0-42.59,14.58-75.465,43.631-98.538c28.903-22.956,69.99-34.376,122.998-34.347
						v-38.375C1817.475,707.54,1826.286,699.431,1837.138,700.463z M1817.475,843.958c-16.759,1.219-29.828,5.822-39.182,13.814
						c-9.369,8.006-14.059,18.765-14.059,32.269c0,12.792,4.339,23.486,13.006,32.069c8.654,8.57,22.077,15.413,40.236,20.526
						V843.958z M1852.23,1060.489v109.658c18.219,0.036,32.189-4.314,41.942-13.037c9.736-8.709,14.597-21.009,14.597-36.913
						c0-14.501-4.518-26.527-13.566-36.091C1886.142,1074.527,1871.83,1066.657,1852.23,1060.489z"/>
				</g>
				
					<linearGradient id="SVGID_00000150807994047554834090000008269789610813360017_" gradientUnits="userSpaceOnUse" x1="1658.835" y1="912.9897" x2="1995.6301" y2="1627.9417">
					<stop  offset="0" style="stop-color:#FCB148"/>
					<stop  offset="0.0521" style="stop-color:#FDBA46"/>
					<stop  offset="0.1424" style="stop-color:#FFC244"/>
					<stop  offset="0.3183" style="stop-color:#FFC444"/>
					<stop  offset="0.4849" style="stop-color:#FDB946"/>
					<stop  offset="0.7754" style="stop-color:#F99C4D"/>
					<stop  offset="0.8658" style="stop-color:#F8924F"/>
					<stop  offset="1" style="stop-color:#F8924F"/>
				</linearGradient>
				<path style="opacity:0.3;fill:url(#SVGID_00000150807994047554834090000008269789610813360017_);" d="M1773.502,1086.95
					c12.27-121.188,123.647-172.491,109.113-283.966c-8.959-68.706-61.034-126.608-119.126-171.818
					c-176.201,18.479-312.453,164.378-312.453,355.204c0,217.917,177.052,400.517,388.185,407.606
					c20.499,0.688,40.521-0.377,59.988-2.929C1815.36,1307.61,1762.961,1191.065,1773.502,1086.95z"/>
			</g>
		</g>
	</g>
</g>
</svg>
