<?xml version="1.0" encoding="utf-8"?>
<!-- Generator: Adobe Illustrator 27.5.0, SVG Export Plug-In . SVG Version: 6.00 Build 0)  -->
<svg version="1.1" xmlns="http://www.w3.org/2000/svg" xmlns:xlink="http://www.w3.org/1999/xlink" x="0px" y="0px"
	 viewBox="0 0 500 500" style="enable-background:new 0 0 500 500;" xml:space="preserve">
<g id="BACKGROUND">
</g>
<g id="OBJECTS">
	<g>
		
			<line style="fill:none;stroke:#A1A1A1;stroke-width:1.1128;stroke-miterlimit:10;" x1="479.32" y1="423.843" x2="16.746" y2="423.843"/>
		<g>
			<g>
				<g>
					<path style="fill:#DBDBDB;" d="M441.743,331.451c-0.678-1.268-1.685-2.324-2.509-3.502c-0.554-0.791-1.036-1.648-1.526-2.496
						c-0.902-1.561-1.831-3.091-3.286-4.116c-1.226-0.864-2.728-1.286-3.92-2.197c-0.549-0.42-1.02-0.932-1.511-1.42
						c-0.119-0.118-0.238-0.237-0.361-0.351c-2.75-2.539-6.64-3.326-10.319-4.012c-0.564-0.105-1.163-0.198-1.697-0.001
						l-0.001-0.002c-0.49,0.29-0.796,0.814-1.07,1.318c-1.788,3.288-3.629,6.804-3.392,10.539c0.011,0.168,0.027,0.335,0.044,0.501
						c0.069,0.689,0.17,1.377,0.15,2.068c-0.044,1.5-0.663,2.931-0.766,4.428c-0.122,1.776,0.48,3.461,1.123,5.146
						c0.349,0.914,0.71,1.829,0.975,2.758c0.394,1.383,0.58,2.83,1.136,4.156c0.947,2.258,2.92,3.954,5.134,4.917
						c2.019,0.878,4.356,1.178,6.535,1.406c1.539,0.161,2.971-0.038,4.447-0.487c0.918-0.279,1.825-0.598,2.722-0.942l0.002,0.003
						c0.837-0.482,1.659-0.987,2.458-1.526c1.279-0.863,2.337-1.849,3.182-3.145c1.197-1.835,2.438-3.838,3.03-5.959
						C442.971,336.211,442.898,333.61,441.743,331.451z"/>
					<path style="fill:none;stroke:#000000;stroke-width:0.4888;stroke-miterlimit:10;" d="M420.195,321.107
						c0,0,20.688,28.873,19.552,79.571"/>
				</g>
				<g>
					<path style="fill:#DBDBDB;" d="M426.795,360.507c-0.609-0.698-1.395-1.215-2.083-1.835c-0.463-0.417-0.889-0.885-1.32-1.346
						c-0.793-0.85-1.598-1.675-2.66-2.108c-0.895-0.365-1.899-0.412-2.78-0.812c-0.406-0.184-0.775-0.437-1.155-0.673
						c-0.092-0.057-0.184-0.114-0.278-0.168c-2.095-1.195-4.651-1.126-7.061-1.024c-0.369,0.016-0.759,0.044-1.065,0.246
						l-0.001-0.001c-0.266,0.253-0.382,0.626-0.481,0.983c-0.646,2.324-1.293,4.798-0.603,7.109c0.031,0.104,0.066,0.206,0.1,0.309
						c0.143,0.423,0.306,0.84,0.394,1.277c0.19,0.948,0.008,1.937,0.161,2.891c0.181,1.133,0.803,2.104,1.451,3.068
						c0.352,0.524,0.711,1.046,1.012,1.591c0.448,0.811,0.774,1.693,1.315,2.445c0.922,1.281,2.406,2.06,3.936,2.343
						c1.395,0.259,2.905,0.108,4.307-0.064c0.989-0.122,1.86-0.455,2.722-0.95c0.536-0.308,1.059-0.64,1.573-0.986l0.001,0.002
						c0.456-0.424,0.899-0.86,1.322-1.314c0.678-0.727,1.199-1.5,1.542-2.436c0.486-1.326,0.975-2.763,1.039-4.18
						C428.256,363.318,427.834,361.695,426.795,360.507z"/>
					<path style="fill:none;stroke:#000000;stroke-width:0.4888;stroke-miterlimit:10;" d="M411.767,357.134
						c0,0,17.174,15.131,23.807,47.128"/>
				</g>
				<g>
					<path style="fill:#DBDBDB;" d="M456.883,349.191c0.593-1.108,1.472-2.031,2.193-3.06c0.484-0.691,0.905-1.44,1.333-2.181
						c0.789-1.365,1.6-2.701,2.871-3.597c1.072-0.755,2.384-1.124,3.425-1.92c0.48-0.367,0.891-0.814,1.32-1.241
						c0.104-0.103,0.208-0.207,0.316-0.306c2.403-2.218,5.802-2.907,9.017-3.506c0.493-0.092,1.017-0.173,1.483-0.001l0.001-0.002
						c0.428,0.253,0.696,0.711,0.935,1.152c1.562,2.873,3.171,5.945,2.964,9.209c-0.009,0.146-0.024,0.292-0.039,0.438
						c-0.06,0.602-0.148,1.203-0.131,1.807c0.038,1.31,0.58,2.561,0.669,3.869c0.106,1.552-0.419,3.024-0.981,4.497
						c-0.305,0.799-0.62,1.598-0.852,2.41c-0.344,1.208-0.507,2.473-0.993,3.631c-0.828,1.973-2.551,3.455-4.486,4.296
						c-1.764,0.767-3.806,1.029-5.71,1.228c-1.345,0.141-2.596-0.033-3.886-0.425c-0.802-0.244-1.595-0.522-2.379-0.823
						l-0.001,0.003c-0.731-0.421-1.45-0.863-2.148-1.333c-1.117-0.754-2.042-1.616-2.78-2.748c-1.046-1.604-2.13-3.353-2.647-5.207
						C455.81,353.349,455.873,351.077,456.883,349.191z"/>
					<path style="fill:none;stroke:#000000;stroke-width:0.4888;stroke-miterlimit:10;" d="M475.82,339.972
						c0,0-20.688,28.873-19.552,79.571"/>
				</g>
				<g>
					<path style="fill:#DBDBDB;" d="M439.772,311.353c0.572-1.566,1.554-2.944,2.308-4.43c0.507-0.999,0.92-2.061,1.344-3.115
						c0.78-1.94,1.597-3.847,3.099-5.262c1.267-1.193,2.921-1.923,4.14-3.164c0.562-0.572,1.018-1.236,1.502-1.877
						c0.117-0.155,0.235-0.311,0.357-0.461c2.742-3.364,7.078-4.904,11.19-6.293c0.63-0.213,1.303-0.417,1.948-0.278l0.001-0.003
						c0.61,0.252,1.047,0.804,1.444,1.338c2.59,3.482,5.278,7.217,5.618,11.544c0.015,0.194,0.023,0.388,0.031,0.583
						c0.033,0.802,0.03,1.608,0.166,2.399c0.296,1.714,1.241,3.256,1.603,4.958c0.43,2.019,0.015,4.051-0.447,6.091
						c-0.251,1.107-0.516,2.216-0.668,3.326c-0.227,1.652-0.203,3.344-0.625,4.956c-0.718,2.747-2.705,5.017-5.09,6.484
						c-2.175,1.338-4.807,2.064-7.272,2.682c-1.74,0.436-3.417,0.442-5.185,0.168c-1.099-0.17-2.193-0.388-3.279-0.636l-0.001,0.004
						c-1.039-0.416-2.066-0.862-3.071-1.35c-1.609-0.781-2.985-1.741-4.167-3.09c-1.675-1.911-3.426-4.007-4.452-6.345
						C439.141,317.017,438.799,314.02,439.772,311.353z"/>
					<path style="fill:none;stroke:#000000;stroke-width:0.4888;stroke-miterlimit:10;" d="M462.926,295.698
						c0,0-20.342,40.77-13.608,108.195"/>
				</g>
			</g>
			<path style="fill:#DBDBDB;" d="M447.612,394.494v-0.004l-0.117,0.002l-0.117-0.002v0.004l-24.393,0.465l2.802,31.201
				c0.462,5.148,2.718,9.971,6.373,13.625l1.729,1.729c2.029,2.029,4.781,3.169,7.65,3.169h5.839h0.234h5.839
				c2.869,0,5.621-1.14,7.65-3.169l1.729-1.729c3.655-3.655,5.91-8.477,6.373-13.625l2.803-31.201L447.612,394.494z"/>
			<g>
				<defs>
					<path id="SVGID_1_" d="M447.612,394.494v-0.004l-0.117,0.002l-0.117-0.002v0.004l-24.393,0.465l2.802,31.201
						c0.462,5.148,2.718,9.971,6.373,13.625l1.729,1.729c2.029,2.029,4.781,3.169,7.65,3.169h5.839h0.234h5.839
						c2.869,0,5.621-1.14,7.65-3.169l1.729-1.729c3.655-3.655,5.91-8.477,6.373-13.625l2.803-31.201L447.612,394.494z"/>
				</defs>
				<clipPath id="SVGID_00000098900631413587222460000012095022844095831427_">
					<use xlink:href="#SVGID_1_"  style="overflow:visible;"/>
				</clipPath>
				<g style="clip-path:url(#SVGID_00000098900631413587222460000012095022844095831427_);">
					<path style="fill:none;stroke:#FFFFFF;stroke-width:0.6272;stroke-miterlimit:10;" d="M466.263,459.032
						c-7.229-1.018-14.185-4.809-18.316-10.829c-4.131-6.019-5.096-14.289-1.767-20.786c2.573-5.021,7.337-8.59,12.379-11.124
						c5.041-2.533,10.472-4.199,15.617-6.513c5.677-2.553,10.997-5.898,15.759-9.907"/>
					<path style="fill:none;stroke:#FFFFFF;stroke-width:0.6272;stroke-miterlimit:10;" d="M472.798,447.39
						c-4.277,0.127-8.914-0.578-12.752-2.537c-5.292-2.702-7.045-10.042-2.246-14.166c2.126-1.827,4.788-2.689,7.235-3.921
						c2.66-1.34,5.251-2.839,7.721-4.505c4.902-3.305,9.362-7.266,13.21-11.754"/>
					<path style="fill:none;stroke:#FFFFFF;stroke-width:0.6272;stroke-miterlimit:10;" d="M452.989,378.72
						c0.996,7.659,1.843,15.927-1.912,22.677c-4.212,7.57-12.959,11.107-20.758,14.879c-7.799,3.773-16.044,9.466-17.116,18.063"/>
					<path style="fill:none;stroke:#FFFFFF;stroke-width:0.6272;stroke-miterlimit:10;" d="M444.863,386.585
						c1.144,6.626-0.523,13.199-7.058,16.163c-2.008,0.911-4.415,1.156-6.401,0.197c-5.435-2.623-5.554-11.683-4.95-16.694"/>
				</g>
			</g>
		</g>
	</g>
	<g>
		<g>
			<g>
				<g>
					<path style="fill:#DDDEE0;stroke:#000000;stroke-width:0.5164;stroke-miterlimit:10;" d="M389.358,376.612H90.32
						c-5.981,0-11.186-4.893-11.567-10.874L78.718,66.7c-0.381-5.981,4.2-10.874,10.181-10.874h299.038
						c5.981,0,11.186,4.893,11.567,10.874l0.035,299.038C399.92,371.718,395.339,376.612,389.358,376.612z"/>
					<g>
						
							<line style="fill:#D1D2D4;stroke:#000000;stroke-width:0.5164;stroke-miterlimit:10;" x1="78.9" y1="85.471" x2="399.054" y2="85.471"/>
						<g>
							<g>
								
									<line style="fill:#D1D2D4;stroke:#000000;stroke-width:0.5164;stroke-miterlimit:10;" x1="377.805" y1="67.063" x2="385.462" y2="74.721"/>
								
									<line style="fill:#D1D2D4;stroke:#000000;stroke-width:0.5164;stroke-miterlimit:10;" x1="377.805" y1="74.721" x2="385.462" y2="67.063"/>
							</g>
							<g>
								<path style="fill:#928DC7;" d="M100.522,70.524c0-2.7-2.189-4.888-4.888-4.888c-2.7,0-4.888,2.188-4.888,4.888
									c0,2.7,2.188,4.888,4.888,4.888C98.334,75.412,100.522,73.223,100.522,70.524z"/>
								<path style="fill:#FFB940;" d="M118.038,70.524c0-2.7-2.189-4.888-4.888-4.888c-2.7,0-4.888,2.188-4.888,4.888
									c0,2.7,2.188,4.888,4.888,4.888C115.85,75.412,118.038,73.223,118.038,70.524z"/>
								<path style="fill:#00C1A3;" d="M135.554,70.524c0-2.7-2.188-4.888-4.888-4.888c-2.7,0-4.888,2.188-4.888,4.888
									c0,2.7,2.189,4.888,4.888,4.888C133.366,75.412,135.554,73.223,135.554,70.524z"/>
							</g>
						</g>
					</g>
				</g>
				<g>
					<g>
						<path style="fill:#00C1A3;stroke:#000000;stroke-width:0.5164;stroke-miterlimit:10;" d="M381.567,176.497
							c0-3.853-3.153-7.006-7.006-7.006H180.248c-3.853,0-7.006,3.153-7.006,7.006v34.971c0,3.853,3.153,7.006,7.006,7.006h180.382
							l8.125,6.552c1.034,0.834,2.562,0.01,2.433-1.312l-0.393-4.024c-0.049-0.508,0.204-0.965,0.604-1.216
							c4.074,0,9.624-0.154,9.998-5.493c0.109-0.488,0.171-0.994,0.171-1.513V176.497z"/>
						<g>
							<g>
								<g>
									<polygon style="fill:#FFB940;" points="200.283,179.166 205.048,188.821 215.703,190.369 207.993,197.884 209.813,208.495 
										200.283,203.485 190.753,208.495 192.574,197.884 184.864,190.369 195.518,188.821 									"/>
									<g>
										<defs>
											<polygon id="SVGID_00000018935711325987579650000002795061048789586582_" points="200.283,179.166 205.048,188.821 
												215.703,190.369 207.993,197.884 209.813,208.495 200.283,203.485 190.753,208.495 192.574,197.884 184.864,190.369 
												195.518,188.821 											"/>
										</defs>
										<clipPath id="SVGID_00000020370759523801157530000014757476690623336875_">
											<use xlink:href="#SVGID_00000018935711325987579650000002795061048789586582_"  style="overflow:visible;"/>
										</clipPath>
										<g style="clip-path:url(#SVGID_00000020370759523801157530000014757476690623336875_);">
											
												<rect x="196.319" y="176.744" transform="matrix(0.941 0.3385 -0.3385 0.941 77.3654 -55.8463)" style="fill:#FFC86B;" width="4.915" height="34.23"/>
											
												<rect x="203.742" y="178.332" transform="matrix(0.941 0.3385 -0.3385 0.941 78.2751 -57.8922)" style="fill:#FFC86B;" width="2.714" height="34.23"/>
										</g>
									</g>
								</g>
								<g>
									<polygon style="fill:#FFB940;" points="238.692,179.166 243.457,188.821 254.111,190.369 246.401,197.884 248.221,208.495 
										238.692,203.485 229.162,208.495 230.982,197.884 223.272,190.369 233.927,188.821 									"/>
									<g>
										<defs>
											<polygon id="SVGID_00000060001258263711509610000010760625843094504098_" points="238.692,179.166 243.457,188.821 
												254.111,190.369 246.401,197.884 248.221,208.495 238.692,203.485 229.162,208.495 230.982,197.884 223.272,190.369 
												233.927,188.821 											"/>
										</defs>
										<use xlink:href="#SVGID_00000060001258263711509610000010760625843094504098_"  style="overflow:visible;fill:#FFB940;"/>
										<clipPath id="SVGID_00000121993641156995410470000008938457534498400958_">
											<use xlink:href="#SVGID_00000060001258263711509610000010760625843094504098_"  style="overflow:visible;"/>
										</clipPath>
										<g style="clip-path:url(#SVGID_00000121993641156995410470000008938457534498400958_);">
											
												<rect x="234.728" y="176.744" transform="matrix(0.941 0.3385 -0.3385 0.941 79.6328 -68.8487)" style="fill:#FFC86B;" width="4.915" height="34.23"/>
											
												<rect x="242.15" y="178.332" transform="matrix(0.941 0.3385 -0.3385 0.941 80.543 -70.8947)" style="fill:#FFC86B;" width="2.714" height="34.23"/>
										</g>
									</g>
								</g>
								<g>
									<polygon style="fill:#FFB940;" points="277.1,179.166 281.865,188.821 292.52,190.369 284.81,197.884 286.63,208.495 
										277.1,203.485 267.57,208.495 269.39,197.884 261.681,190.369 272.335,188.821 									"/>
									<g>
										<defs>
											<polygon id="SVGID_00000086677058636394734440000009901369685712553371_" points="277.1,179.166 281.865,188.821 
												292.52,190.369 284.81,197.884 286.63,208.495 277.1,203.485 267.57,208.495 269.39,197.884 261.681,190.369 
												272.335,188.821 											"/>
										</defs>
										<use xlink:href="#SVGID_00000086677058636394734440000009901369685712553371_"  style="overflow:visible;fill:#FFB940;"/>
										<clipPath id="SVGID_00000008836388560187557480000006857091044122241199_">
											<use xlink:href="#SVGID_00000086677058636394734440000009901369685712553371_"  style="overflow:visible;"/>
										</clipPath>
										<g style="clip-path:url(#SVGID_00000008836388560187557480000006857091044122241199_);">
											
												<rect x="273.136" y="176.744" transform="matrix(0.941 0.3385 -0.3385 0.941 81.9011 -81.8516)" style="fill:#FFC86B;" width="4.915" height="34.23"/>
											
												<rect x="280.558" y="178.332" transform="matrix(0.941 0.3385 -0.3385 0.941 82.8099 -83.8966)" style="fill:#FFC86B;" width="2.714" height="34.23"/>
										</g>
									</g>
								</g>
								<g>
									<polygon style="fill:#FFB940;" points="315.509,179.166 320.274,188.821 330.928,190.369 323.218,197.884 325.038,208.495 
										315.509,203.485 305.979,208.495 307.799,197.884 300.089,190.369 310.744,188.821 									"/>
									<g>
										<defs>
											<polygon id="SVGID_00000060748722335818017540000007547741010430099631_" points="315.509,179.166 320.274,188.821 
												330.928,190.369 323.218,197.884 325.038,208.495 315.509,203.485 305.979,208.495 307.799,197.884 300.089,190.369 
												310.744,188.821 											"/>
										</defs>
										<use xlink:href="#SVGID_00000060748722335818017540000007547741010430099631_"  style="overflow:visible;fill:#FFB940;"/>
										<clipPath id="SVGID_00000060738751502268924220000015900453542395604409_">
											<use xlink:href="#SVGID_00000060748722335818017540000007547741010430099631_"  style="overflow:visible;"/>
										</clipPath>
										<g style="clip-path:url(#SVGID_00000060738751502268924220000015900453542395604409_);">
											
												<rect x="311.545" y="176.744" transform="matrix(0.941 0.3385 -0.3385 0.941 84.169 -94.8542)" style="fill:#FFC86B;" width="4.915" height="34.23"/>
											
												<rect x="318.967" y="178.332" transform="matrix(0.941 0.3385 -0.3385 0.941 85.0786 -96.8997)" style="fill:#FFC86B;" width="2.714" height="34.23"/>
										</g>
									</g>
								</g>
							</g>
							<polygon style="fill:#FFFFFF;" points="354.16,179.166 358.925,188.821 369.58,190.369 361.87,197.884 363.69,208.495 
								354.16,203.485 344.631,208.495 346.451,197.884 338.741,190.369 349.395,188.821 							"/>
						</g>
					</g>
					<g>
						<path style="fill:#00C1A3;stroke:#000000;stroke-width:0.5164;stroke-miterlimit:10;" d="M105.699,101.149h102.842
							c3.401,0,6.183,2.782,6.183,6.183V147.1c0,3.401-2.782,6.183-6.183,6.183h-3.967c-0.829,0-1.478,0.715-1.397,1.54l0.427,4.374
							c0.14,1.437-1.52,2.333-2.644,1.427l-9.103-7.341h-86.158c-3.401,0-6.183-2.782-6.183-6.183v-39.769
							C99.516,103.931,102.298,101.149,105.699,101.149z"/>
						<g>
							<g>
								<g>
									<path style="fill:#FFFFFF;" d="M129.909,125.525c-1.71,1.403-3.896,2.248-6.276,2.248c-2.38,0-4.566-0.844-6.276-2.248
										c-5.666,2.435-9.635,8.065-9.635,14.623h31.822C139.544,133.59,135.575,127.961,129.909,125.525z"/>
								</g>
								<g>
									<path style="fill:#FFFFFF;" d="M120.404,124.566c0.979,0.473,2.071,0.746,3.229,0.746c1.158,0,2.25-0.273,3.229-0.746
										c2.493-1.206,4.222-3.754,4.222-6.704c0-4.108-3.342-7.45-7.451-7.45c-4.108,0-7.451,3.342-7.451,7.45
										C116.182,120.813,117.91,123.36,120.404,124.566z"/>
								</g>
							</g>
							<g>
								<g>
									<rect x="145.031" y="112.062" style="fill:#FFFFFF;" width="61.487" height="0.929"/>
								</g>
								<g>
									<rect x="145.031" y="117.163" style="fill:#FFFFFF;" width="61.487" height="0.929"/>
								</g>
								<g>
									<rect x="145.031" y="122.265" style="fill:#FFFFFF;" width="61.487" height="0.929"/>
								</g>
								<g>
									<rect x="145.031" y="127.367" style="fill:#FFFFFF;" width="61.487" height="0.929"/>
								</g>
								<g>
									<rect x="145.031" y="132.468" style="fill:#FFFFFF;" width="61.487" height="0.929"/>
								</g>
								<g>
									<rect x="145.031" y="137.57" style="fill:#FFFFFF;" width="29.803" height="0.929"/>
								</g>
							</g>
						</g>
					</g>
					<g>
						<path style="fill:#928DC7;stroke:#000000;stroke-width:0.5164;stroke-miterlimit:10;" d="M317.531,313.025h58.457
							c2.745,0,4.99,2.246,4.99,4.99v32.098c0,2.745-2.246,4.99-4.99,4.99h-3.202c-0.669,0-1.193,0.577-1.128,1.243l0.345,3.531
							c0.113,1.16-1.227,1.883-2.134,1.151l-7.347-5.925h-44.991c-2.745,0-4.99-2.246-4.99-4.99v-32.098
							C312.541,315.27,314.787,313.025,317.531,313.025z"/>
						<g>
							<circle style="fill:#F2F2F2;" cx="358.726" cy="334.343" r="1.937"/>
							<circle style="fill:#F2F2F2;" cx="346.76" cy="334.343" r="1.937"/>
							<circle style="fill:#F2F2F2;" cx="334.794" cy="334.343" r="1.937"/>
						</g>
					</g>
					<g>
						<g>
							<path style="fill:#FFB940;stroke:#000000;stroke-width:0.5164;stroke-miterlimit:10;" d="M375.068,241.135H318.42
								c-3.165,0-5.755,2.59-5.755,5.755v37.017c0,3.165,2.59,5.755,5.755,5.755h3.692c0.772,0,1.375,0.665,1.301,1.434
								l-0.397,4.072c-0.13,1.338,1.415,2.172,2.461,1.328l8.473-6.833h41.118c3.165,0,5.755-2.59,5.755-5.755V246.89
								C380.823,243.725,378.233,241.135,375.068,241.135z"/>
						</g>
						<g>
							<path style="fill:#0061A8;" d="M338.233,276.216h-5.385c-0.579,0-1.053-0.474-1.053-1.053v-14.23
								c0-0.579,0.474-1.053,1.053-1.053h5.385c0.579,0,1.053,0.474,1.053,1.053v14.23
								C339.286,275.742,338.812,276.216,338.233,276.216z"/>
							<path style="fill:#F2F2F2;" d="M361.693,262.216c0-1.436-1.163-2.6-2.6-2.6h-8.209l1.241-5.941
								c0.026-0.13,0.046-0.266,0.046-0.41c0-0.539-0.221-1.027-0.572-1.378l0,0c-0.766-0.758-2-0.756-2.762,0.007l-7.182,7.182
								c-0.468,0.475-0.76,1.125-0.76,1.839v13c0,1.436,1.164,2.6,2.6,2.6h11.7c1.079,0,2.002-0.656,2.392-1.586
								c0,0,4.108-9.782,4.108-10.114v-2.489l-0.013-0.013L361.693,262.216z"/>
						</g>
					</g>
				</g>
			</g>
			<g>
				<g>
					<path style="fill:#FFB940;stroke:#000000;stroke-width:0.5164;stroke-miterlimit:10;" d="M336.304,71.386H256.76
						c-4.445,0-8.081,3.637-8.081,8.081v51.978c0,4.445,3.636,8.081,8.081,8.081h5.185c1.084,0,1.931,0.934,1.826,2.013
						l-0.558,5.717c-0.183,1.878,1.987,3.049,3.456,1.864l11.897-9.595h57.737c4.445,0,8.081-3.637,8.081-8.081V79.468
						C344.385,75.023,340.749,71.386,336.304,71.386z"/>
				</g>
				<g>
					<g>
						<g>
							<circle style="fill:#FFFFFF;" cx="267.958" cy="88.659" r="4.42"/>
							<g>
								<path style="fill:#FFB940;" d="M267.022,90.928l-2.104-2.104c-0.129-0.129-0.129-0.338,0-0.466
									c0.129-0.129,0.337-0.129,0.466,0l1.638,1.638l3.509-3.508c0.129-0.129,0.337-0.129,0.466,0
									c0.129,0.129,0.129,0.338,0,0.467L267.022,90.928z"/>
							</g>
						</g>
						
							<line style="fill:none;stroke:#FFFFFF;stroke-width:1.3311;stroke-linecap:round;stroke-miterlimit:10;" x1="276.723" y1="88.659" x2="329.527" y2="88.659"/>
					</g>
					<g>
						<g>
							<circle style="fill:#FFFFFF;" cx="267.958" cy="103.874" r="4.42"/>
							<g>
								<path style="fill:#FFB940;" d="M267.022,106.143l-2.104-2.104c-0.129-0.129-0.129-0.338,0-0.466
									c0.129-0.129,0.337-0.129,0.466,0l1.638,1.638l3.509-3.508c0.129-0.129,0.337-0.129,0.466,0
									c0.129,0.129,0.129,0.338,0,0.466L267.022,106.143z"/>
							</g>
						</g>
						
							<line style="fill:none;stroke:#FFFFFF;stroke-width:1.3311;stroke-linecap:round;stroke-miterlimit:10;" x1="276.723" y1="103.874" x2="329.527" y2="103.874"/>
					</g>
					<g>
						<g>
							<circle style="fill:#FFFFFF;" cx="267.958" cy="119.089" r="4.42"/>
							<g>
								<path style="fill:#FFB940;" d="M267.022,121.358l-2.104-2.104c-0.129-0.129-0.129-0.338,0-0.466
									c0.129-0.129,0.337-0.129,0.466,0l1.638,1.638l3.509-3.508c0.129-0.129,0.337-0.129,0.466,0
									c0.129,0.129,0.129,0.338,0,0.467L267.022,121.358z"/>
							</g>
						</g>
						
							<line style="fill:none;stroke:#FFFFFF;stroke-width:1.3311;stroke-linecap:round;stroke-miterlimit:10;" x1="276.723" y1="119.089" x2="329.527" y2="119.089"/>
					</g>
				</g>
			</g>
		</g>
		<g>
			<g>
				<path style="fill:#928DC7;stroke:#000000;stroke-width:0.5164;stroke-miterlimit:10;" d="M38.354,169.696h61.224
					c3.421,0,6.22,2.799,6.22,6.22v40.007c0,3.421-2.799,6.22-6.22,6.22h-3.99c-0.834,0-1.487,0.719-1.406,1.549l0.429,4.401
					c0.141,1.446-1.529,2.347-2.66,1.435l-9.157-7.385h-44.44c-3.421,0-6.22-2.799-6.22-6.22v-40.007
					C32.134,172.495,34.933,169.696,38.354,169.696z"/>
			</g>
			<g>
				<path style="fill:#F2F2F2;" d="M66.315,201.927c0.015-2.163,0.201-3.662,0.56-4.498c0.358-0.835,1.298-1.939,2.82-3.312
					c1.477-1.745,2.528-3.087,3.155-4.027c0.626-0.94,0.94-2.074,0.94-3.401c0-1.581-0.422-2.797-1.265-3.647
					c-0.842-0.85-2.048-1.275-3.613-1.275c-1.358,0-2.514,0.369-3.469,1.108c-0.954,0.739-1.431,1.824-1.431,3.256h-4.206
					l-0.067-0.134c-0.046-2.402,0.801-4.326,2.539-5.773c1.738-1.447,3.95-2.171,6.635-2.171c2.939,0,5.22,0.75,6.846,2.249
					c1.626,1.499,2.439,3.591,2.439,6.277c0,1.924-0.526,3.685-1.578,5.281c-1.051,1.596-2.443,3.23-4.173,4.9
					c-0.806,0.805-1.295,1.529-1.466,2.17c-0.171,0.642-0.258,1.641-0.258,2.998H66.315z M68.575,211.101L68.575,211.101
					c-1.273,0-2.305-1.032-2.305-2.305v-0.045c0-1.273,1.032-2.305,2.305-2.305l0,0c1.273,0,2.305,1.032,2.305,2.305v0.045
					C70.88,210.069,69.848,211.101,68.575,211.101z"/>
			</g>
		</g>
	</g>
	<g>
		<ellipse style="fill:#DBDBDB;" cx="213.279" cy="455.096" rx="140.792" ry="12.081"/>
		<g>
			<g>
				<path style="fill:#928DC7;" d="M122.725,234.405c-22.21,1.705-42.579,16.434-55.134,34.41
					c-21.57,30.886-18.985,74.44-7.38,108.695c16.78,49.532,61.294,75.685,114.211,76.643c29.449,0.533,57.334,1.069,81.784-14.03
					c18.818-11.62,36.87-40.779,35.484-65.294c-1.177-20.813-11.663-45.29-34.232-49.878c-3.022-0.614-6.142-0.585-9.198-0.982
					c-5.744-0.747-10.506,1.381-15.732,3.633c-5.982,2.578-11.833,5.452-17.854,7.942c-10.957,4.532-23.053,7.793-34.616,5.168
					c-6.591-1.496-12.988-5.16-16.281-11.063c-4.1-7.352-2.688-16.374-2.07-24.77c1.049-14.239-0.607-28.661-4.768-42.315
					c-1.682-5.52-3.857-10.867-5.591-16.372c-1.174-3.729-2.931-6.354-6.498-8.158C138.137,234.639,130.135,233.837,122.725,234.405
					z"/>
				<g>
					<defs>
						<path id="SVGID_00000102543199665383450430000014055223720304592527_" d="M122.725,234.405
							c-22.21,1.705-42.579,16.434-55.134,34.41c-21.57,30.886-18.985,74.44-7.38,108.695
							c16.78,49.532,64.702,77.779,117.615,76.661c29.674-0.627,53.076,2.143,77.527-12.956
							c16.601-10.251,38.813-42.003,43.506-61.93c4.48-19.022-1.418-40.064-17.213-52.231c-9.394-7.236-22.527-7.706-34.022-4.798
							c-11.495,2.908-21.992,8.755-32.949,13.287c-10.957,4.532-23.053,7.793-34.616,5.168c-6.591-1.496-12.988-5.16-16.281-11.063
							c-4.1-7.352-2.688-16.374-2.07-24.77c1.049-14.239-0.607-28.661-4.768-42.315c-1.682-5.52-3.857-10.867-5.591-16.372
							c-1.174-3.729-2.931-6.354-6.498-8.158C138.137,234.639,130.135,233.837,122.725,234.405z"/>
					</defs>
					<clipPath id="SVGID_00000071555729406463898440000000957165914458455196_">
						<use xlink:href="#SVGID_00000102543199665383450430000014055223720304592527_"  style="overflow:visible;"/>
					</clipPath>
					<g style="clip-path:url(#SVGID_00000071555729406463898440000000957165914458455196_);">
						<path style="fill:none;stroke:#000000;stroke-width:0.5164;stroke-miterlimit:10;" d="M111.416,279.614
							c-6.243,18.209-7.251,40.324-0.667,58.577c6.158,17.074,19.503,31.836,36.613,37.895c17.145,6.071,62.657,0.411,53.52-27.724
							c-1.184-3.647-3.61-6.736-5.951-9.773c-18.517-24.021-34.548-49.957-47.753-77.26c-1.568-3.242-3.183-6.616-5.975-8.89
							c-2.259-1.839-5.394-2.689-8.21-1.79c-2.467,0.788-4.628,2.878-6.498,4.593c-4.554,4.176-8.172,9.294-11.003,14.766
							C113.92,273.044,112.564,276.264,111.416,279.614z"/>
						<path style="fill:none;stroke:#000000;stroke-width:0.5164;stroke-miterlimit:10;" d="M189.737,372.883
							c0,0,28.76,15.944,23.613,81.916"/>
						<path style="fill:none;stroke:#000000;stroke-width:0.5164;stroke-miterlimit:10;" d="M108.204,328.461
							c0,0-48.537,0.36-57.885,34.516"/>
						<path style="fill:none;stroke:#000000;stroke-width:0.5164;stroke-miterlimit:10;" d="M140.549,373.434
							c0,0-25.361,18.149-38.066,71.706"/>
						<path style="fill:none;stroke:#000000;stroke-width:0.5164;stroke-miterlimit:10;" d="M117.256,266.436
							c0,0-17.216-17.346-47.903-4.232"/>
					</g>
				</g>
			</g>
			<g>
				<g>
					<g>
						<path style="fill:#D68060;" d="M239.73,419.438l-0.05,28.667c0,0,37.399,8.4,53.209-0.095c0,0-2.212-7.752-28.925-18.363
							l1.513-15.462L239.73,419.438z"/>
						<g>
							<circle style="fill:#78374B;" cx="259.163" cy="317.644" r="14.958"/>
							<polyline style="fill:#78374B;" points="274.121,317.644 275.422,419.456 239.331,421.407 237.38,317.644 							"/>
							<polygon style="fill:#78374B;" points="255.905,303.011 231.849,309.84 234.776,324.148 257.538,328.375 							"/>
						</g>
					</g>
					<g>
						<g>
							<g>
								<g>
									<g>
										<path style="fill:#013741;" d="M119.566,182.558c-1.053-0.719-2.1-1.486-2.871-2.501
											c-0.438-0.577-0.786-1.249-0.837-1.972c-0.051-0.722,0.241-1.497,0.851-1.886c1.083-0.692,2.481,0.052,3.54,0.781
											c2.086,1.436,4.171,2.872,6.257,4.307c1.319,0.908,2.638,1.816,3.939,2.749c0.888,0.637,2.122,1.597,1.799,2.851
											c-0.291,1.129-1.183,1.59-2.286,1.332c-1.197-0.279-2.348-0.971-3.435-1.527c-1.131-0.579-2.245-1.191-3.339-1.836
											C121.953,184.131,120.746,183.364,119.566,182.558z"/>
										<path style="fill:#013741;" d="M117.492,188.115c-1.204-0.418-2.416-0.882-3.427-1.66
											c-0.574-0.442-1.086-0.999-1.325-1.683c-0.239-0.684-0.16-1.507,0.326-2.044c0.864-0.952,2.408-0.601,3.621-0.176
											c2.389,0.838,4.779,1.676,7.168,2.514c1.511,0.53,3.022,1.06,4.522,1.619c1.024,0.382,2.467,0.984,2.484,2.279
											c0.015,1.166-0.725,1.844-1.856,1.886c-1.228,0.045-2.52-0.321-3.715-0.572c-1.243-0.262-2.479-0.56-3.704-0.895
											C120.208,189.007,118.842,188.584,117.492,188.115z"/>
										<path style="fill:#013741;" d="M117.93,194.624c-1.274,0.052-2.571,0.064-3.797-0.289c-0.696-0.201-1.377-0.532-1.85-1.08
											c-0.473-0.549-0.701-1.344-0.445-2.021c0.455-1.202,2.021-1.441,3.305-1.49c2.53-0.096,5.061-0.191,7.591-0.287
											c1.6-0.061,3.2-0.121,4.801-0.15c1.093-0.02,2.656,0.012,3.146,1.21c0.441,1.079,0.001,1.982-1.036,2.434
											c-1.126,0.492-2.463,0.624-3.667,0.828c-1.253,0.212-2.511,0.387-3.774,0.524
											C120.784,194.458,119.357,194.565,117.93,194.624z"/>
										<path style="fill:#FF5A13;" d="M127.606,195.065c-0.291-1.18,0.021-2.423,0.443-3.562c0.666-1.8,1.627-3.514,2.972-4.883
											c0.621-0.632,1.339-1.197,2.179-1.475c0.841-0.278,1.822-0.233,2.546,0.277c0.122,0.086,0.239,0.188,0.298,0.325
											c0.15,0.35-0.132,0.724-0.386,1.008c-1.388,1.554-2.509,3.345-3.313,5.267c-0.41,0.98-0.72,1.988-0.975,3.018
											c-0.192,0.773-0.457,2.19-1.5,2.177C128.757,197.202,127.851,196.059,127.606,195.065z"/>
									</g>
									<path style="fill:#013741;" d="M132.828,212.835c-2.167-4.332-2.846-9.301-2.558-14.136
										c0.22-3.709,1.047-7.512,3.263-10.494c1.471-1.98,3.494-3.508,5.697-4.617c4.639-2.337,10.171-2.841,15.156-1.383
										c7.876,2.305,15.472,10.434,13.393,19.143c-5.413-3.557-12.055-5.204-18.504-4.587c-1.457,0.139-2.977,0.423-4.105,1.356
										c-0.998,0.826-1.566,2.072-1.868,3.332c-0.561,2.343-0.302,4.779,0.128,7.121c0.443,2.411,1.088,4.793,1.326,7.238
										c0.115,1.18,0.13,2.375-0.046,3.55c-0.134,0.894-0.341,1.967-1.309,2.3c-0.892,0.307-1.923-0.113-2.709-0.523
										c-1.047-0.545-2.029-1.236-2.932-1.995c-1.831-1.538-3.359-3.431-4.52-5.52
										C133.098,213.361,132.96,213.099,132.828,212.835z"/>
								</g>
								<g>
									<g>
										<path style="fill:#D68060;" d="M142.473,216.047c0,0-1.87,12.872-3.285,24.582c-0.337,2.79,1.078,8.515,3.808,9.18
											l7.431,2.697c11.339-1.326,11.495-6.222,11.266-9.418l-1.402-13.517L142.473,216.047z"/>
										<path style="fill:#013741;" d="M160.588,232.428c-3.345,1.629-7.242,0.136-10.205-2.114
											c-2.753-2.09-7.121-8.202-8.379-11.376c0,0,5.663,22.015,19.238,19.805L160.588,232.428z"/>
									</g>
									<g>
										<g>
											<g>
												<path style="fill:#D68060;" d="M169.393,195.514c2.441,6.255,3.503,13.297,3.038,20.043
													c-0.417,6.055-2.316,14.796-7.82,18.376c-3.404,2.213-8.056,1.802-11.568-0.237c-2.769-1.608-4.917-4.079-6.648-6.736
													c-0.531-0.816-4.812-7.505-4.117-8.209c-1.062,1.077-2.777,1.216-4.041,0.395c-1.218-0.791-1.878-2.258-1.979-3.707
													c-0.081-1.154,0.2-2.406,1.06-3.179c1.229-1.105,3.116-0.875,4.742-0.577c-2.028-4.704-3.264-14.931-0.226-19.055
													c3.039-4.124,8.343-6.458,13.436-5.914c2.213,0.236,4.313,0.976,6.447,1.564c1.98,0.547,4.021,0.88,5.252,2.637
													C167.969,192.347,168.76,193.895,169.393,195.514z"/>
												<g>
													<path style="fill:none;stroke:#000000;stroke-width:0.5164;stroke-miterlimit:10;" d="M141.089,217.912
														c0,0-0.118-5.448-3.398-4.612"/>
													<path style="fill:none;stroke:#000000;stroke-width:0.5164;stroke-miterlimit:10;" d="M154.667,224.234
														c0,0,2.377,3.516,6.336,2.633"/>
													<path style="fill:none;stroke:#000000;stroke-width:0.5164;stroke-miterlimit:10;" d="M163.981,212.444
														c-0.238,2.82,0.689,5.721,2.519,7.879c0.29,0.342,0.622,0.725,0.58,1.171c-0.018,0.193-0.107,0.371-0.21,0.535
														c-0.61,0.971-1.81,1.535-2.947,1.387"/>
													<path style="fill:#013741;" d="M167.412,211.958c0.057,0.844,0.641,1.491,1.304,1.446
														c0.663-0.045,1.154-0.765,1.096-1.609c-0.057-0.844-0.641-1.491-1.304-1.446
														C167.846,210.395,167.355,211.115,167.412,211.958z"/>
													<path style="fill:#013741;" d="M157.966,212.419c0.057,0.844,0.641,1.491,1.304,1.446
														c0.663-0.045,1.154-0.765,1.096-1.609c-0.057-0.844-0.641-1.491-1.304-1.446
														C158.4,210.855,157.909,211.575,157.966,212.419z"/>
													<path style="fill:#013741;" d="M166.856,207.964c-0.214-0.026-0.46-0.076-0.56-0.267
														c-0.057-0.109-0.051-0.242-0.011-0.358c0.141-0.408,0.621-0.578,1.047-0.654c1.489-0.267,3.064-0.029,4.409,0.664
														c0.368,0.19,0.954,0.546,0.909,1.038c-0.036,0.402-0.526,0.448-0.828,0.354c-1.034-0.321-2.066-0.493-3.144-0.597
														C168.071,208.085,167.462,208.037,166.856,207.964z"/>
													<path style="fill:#013741;" d="M161.034,208.208c0.214-0.028,0.459-0.08,0.557-0.272
														c0.056-0.109,0.048-0.242,0.007-0.358c-0.146-0.407-0.627-0.572-1.053-0.644c-1.492-0.252-3.064,0-4.402,0.707
														c-0.366,0.193-0.948,0.555-0.899,1.046c0.04,0.402,0.53,0.442,0.831,0.346c1.031-0.331,2.062-0.513,3.138-0.628
														C159.82,208.341,160.428,208.287,161.034,208.208z"/>
												</g>
											</g>
											<path style="fill:#013741;" d="M145.755,214.561c0.22-0.172,0.298-0.466,0.347-0.741
												c0.358-2.012-0.186-4.057-0.514-6.074c-0.328-2.017-0.397-4.243,0.757-5.929c1.355-1.979,4.024-2.623,6.417-2.461
												c2.393,0.163,4.702,0.963,7.088,1.211c2.339,0.243,5.686-0.251,7.846-1.24c6.875-3.147-4.318-13.322-8.559-15.076
												c-2.099-0.868-1.164,0.83-3.425,0.965c-1.138,0.068-2.27,0.25-3.374,0.532c-0.506,0.13-1.033,0.376-1.554,0.417
												c-0.499,0.04-0.886,0.197-1.34,0.418c-0.493,0.239-0.974,0.504-1.447,0.781c-2.172,1.27-4.229,2.737-6.139,4.376
												c-2.841,2.438-5.527,5.739-5.194,9.468c0.218,2.444,1.626,4.697,2.609,6.898c0.742,1.662,1.824,2.862,3.105,4.143
												c0.585,0.586,1.163,1.181,1.757,1.758C144.514,214.376,145.211,214.987,145.755,214.561z"/>
											<g>
												<path style="fill:none;stroke:#FFFFFF;stroke-width:0.6992;stroke-miterlimit:10;" d="M162.886,212.977
													c0-2.425-1.966-4.392-4.392-4.392c-2.426,0-4.392,1.966-4.392,4.392c0,2.426,1.966,4.392,4.392,4.392
													C160.92,217.369,162.886,215.402,162.886,212.977z"/>
												<path style="fill:none;stroke:#FFFFFF;stroke-width:0.6992;stroke-miterlimit:10;" d="M174.613,212.977
													c0-2.425-1.966-4.392-4.392-4.392c-2.426,0-4.392,1.966-4.392,4.392c0,2.426,1.966,4.392,4.392,4.392
													C172.646,217.369,174.613,215.402,174.613,212.977z"/>
												<path style="fill:none;stroke:#FFFFFF;stroke-width:0.7384;stroke-miterlimit:10;" d="M162.784,212.184
													c0-0.873,0.708-1.582,1.582-1.582c0.873,0,1.581,0.708,1.581,1.582"/>
												<path style="fill:none;stroke:#FFFFFF;stroke-width:0.7384;stroke-miterlimit:10;" d="M154.619,210.891
													c-0.242,0-14.107,0.403-14.107,0.403"/>
											</g>
										</g>
									</g>
								</g>
							</g>
							<g>
								<path style="fill:#FFB940;" d="M192.125,268.435c3.68,9.501,6.73,19.246,9.124,29.149
									c9.404-2.879,18.808-5.759,28.212-8.638c1.338,6.857,2.676,13.714,4.014,20.571c-13.513,7.456-27.517,14.023-41.89,19.644
									c-1.865,0.729-3.991,1.438-5.803,0.586c-2.137-1.005-2.812-3.662-3.242-5.985c-3.42-18.504-6.84-37.008-10.26-55.513
									c-0.975-5.278-1.959-10.571-3.509-15.717c-0.68-2.255-1.758-4.454-2.206-6.767c-0.282-1.454-0.426-3.353,0.495-4.627
									c1.12-1.549,3.189-0.903,4.649-0.274c2.048,0.882,3.934,2.295,5.622,3.734c3.35,2.856,6.067,6.383,8.329,10.142
									c2.325,3.863,4.193,7.986,5.864,12.168C191.727,267.417,191.927,267.925,192.125,268.435z"/>
								<g>
									<g>
										<path style="fill:#FFB940;" d="M179.956,260.634c-0.296-0.933-0.604-1.862-0.925-2.788
											c-1.888-5.444-3.972-11.773-8.403-15.723c-2.505-2.233-6.019-3.565-9.272-2.744c0.755,3.405-1.367,7.074-4.514,8.58
											c-3.146,1.506-7.018,1.029-10.022-0.743c-3.004-1.772-5.202-4.698-6.63-7.88c-0.221-0.493-0.464-1.034-0.951-1.268
											c-0.482-0.231-1.051-0.087-1.564,0.061c-3.569,1.028-7.173,2.071-10.417,3.879c-8.433,4.701-10.361,14.021-8.749,22.98
											c0.905,5.031,2.723,9.843,4.323,14.698c5.887,17.866,8.872,36.532,12.138,55.057c0.097,0.551,0.213,1.139,0.608,1.535
											c0.342,0.342,0.833,0.48,1.302,0.599c18.301,4.657,38.464,1.458,54.425-8.634c0.52-0.329,1.063-0.696,1.307-1.261
											c0.24-0.554,0.143-1.189,0.043-1.784c-1.049-6.223-2.097-12.445-3.145-18.668c-1.717-10.188-3.434-20.379-5.581-30.485
											C182.825,270.855,181.562,265.692,179.956,260.634z"/>
										<g>
											<defs>
												<path id="SVGID_00000029044763098690491000000003576615589159227050_" d="M179.956,260.634
													c-0.296-0.933-0.604-1.862-0.925-2.788c-1.888-5.444-3.972-11.773-8.403-15.723c-2.505-2.233-6.019-3.565-9.272-2.744
													c0.755,3.405-1.367,7.074-4.514,8.58c-3.146,1.506-7.018,1.029-10.022-0.743c-3.004-1.772-5.202-4.698-6.63-7.88
													c-0.221-0.493-0.464-1.034-0.951-1.268c-0.482-0.231-1.051-0.087-1.564,0.061c-3.569,1.028-7.173,2.071-10.417,3.879
													c-8.433,4.701-10.361,14.021-8.749,22.98c0.905,5.031,2.723,9.843,4.323,14.698
													c5.887,17.866,8.872,36.532,12.138,55.057c0.097,0.551,0.213,1.139,0.608,1.535c0.342,0.342,0.833,0.48,1.302,0.599
													c18.301,4.657,38.464,1.458,54.425-8.634c0.52-0.329,1.063-0.696,1.307-1.261c0.24-0.554,0.143-1.189,0.043-1.784
													c-1.049-6.223-2.097-12.445-3.145-18.668c-1.717-10.188-3.434-20.379-5.581-30.485
													C182.825,270.855,181.562,265.692,179.956,260.634z"/>
											</defs>
											<clipPath id="SVGID_00000066479496384370174160000015562217980756007558_">
												<use xlink:href="#SVGID_00000029044763098690491000000003576615589159227050_"  style="overflow:visible;"/>
											</clipPath>
											
												<path style="clip-path:url(#SVGID_00000066479496384370174160000015562217980756007558_);fill:none;stroke:#000000;stroke-width:0.5164;stroke-miterlimit:10;" d="
												M164.083,238.408c0.979,4.823-1.771,10.019-5.847,12.152c-4.076,2.133-9.092,1.457-12.984-1.052
												c-3.892-2.51-6.739-6.654-8.589-11.161c-0.286-0.698-0.601-1.465-1.232-1.796"/>
										</g>
									</g>
									<path style="fill:none;stroke:#000000;stroke-width:0.5164;stroke-miterlimit:10;" d="M118.508,264.988
										c0.905,5.031,2.723,9.843,4.323,14.698c5.887,17.866,8.872,36.532,12.138,55.057c0.097,0.551,0.213,1.139,0.608,1.535
										c0.342,0.342,0.833,0.48,1.302,0.599c18.301,4.657,38.464,1.458,54.425-8.634c0.52-0.329,1.063-0.696,1.307-1.261
										c0.24-0.554,0.143-1.189,0.043-1.784c-1.049-6.223-2.097-12.445-3.145-18.668c-1.717-10.188-3.434-20.379-5.581-30.485
										c-1.102-5.189-2.366-10.353-3.972-15.41c-0.296-0.933-0.604-1.862-0.925-2.788c-1.888-5.444-3.972-11.773-8.403-15.723
										c-0.732-0.652-1.55-1.228-2.423-1.696"/>
								</g>
							</g>
						</g>
						<g>
							<path style="fill:#D68060;" d="M283.299,421.961l17.102,23.372c0,0,36.769-10.831,46.46-25.938c0,0-5.701-5.701-34.203-1.995
								l-9.406-12.541L283.299,421.961z"/>
							<g>
								<path style="fill:#9E4963;" d="M128.241,345.541c0,0,4.112,23.088,21.19,25.618c13.522,2.003,48.872-6.624,63.009-10.304
									c3.707-0.965,7.641,0.158,10.285,2.93l59.225,62.09l29.097-19.609l-70.529-96.464
									C240.519,309.802,202.25,306.639,128.241,345.541z"/>
								<g>
									<defs>
										<path id="SVGID_00000008115524164787448450000002345195895834985650_" d="M128.241,345.541c0,0,4.112,23.088,21.19,25.618
											c13.522,2.003,48.872-6.624,63.009-10.304c3.707-0.965,7.641,0.158,10.285,2.93l59.225,62.09l29.097-19.609
											l-70.529-96.464C240.519,309.802,202.25,306.639,128.241,345.541z"/>
									</defs>
									<clipPath id="SVGID_00000000918746846944708850000003245107581893228475_">
										<use xlink:href="#SVGID_00000008115524164787448450000002345195895834985650_"  style="overflow:visible;"/>
									</clipPath>
									<g style="clip-path:url(#SVGID_00000000918746846944708850000003245107581893228475_);">
										<path style="fill:none;stroke:#000000;stroke-width:0.5164;stroke-miterlimit:10;" d="M143.925,321.453
											c0,0-2.605,24.725,14.474,27.256c13.522,2.003,44.437-7.736,58.574-11.416c3.707-0.965,7.641,0.158,10.285,2.93
											l54.451,62.764"/>
										
											<line style="fill:none;stroke:#000000;stroke-width:0.5164;stroke-miterlimit:10;" x1="266.661" y1="413.62" x2="303.055" y2="389.03"/>
									</g>
								</g>
							</g>
						</g>
					</g>
				</g>
				<g>
					<g>
						<path style="fill:#D68060;" d="M176.963,316.968c3.854-1.867,7.708-3.734,11.563-5.601c1.576-0.763,3.199-1.54,4.945-1.676
							c1.28-0.1,2.559,0.152,3.811,0.436c4.999,1.135,11.452,3.095,16.398,0.181c5.049-2.974,1.854-7.389-1.649-10.027
							c-4.382-3.299-10.032-5.337-15.55-4.64c-1.782,0.225-3.516,0.731-5.232,1.263c-6.419,1.991-12.714,4.385-18.834,7.163
							c0.97,3.788,2.054,8.035,3.567,11.64C176.32,316.517,176.427,316.273,176.963,316.968z"/>
						<g>
							<path style="fill:#FFB940;" d="M138.464,306.774c1.022,4.311,3.616,7.399,9.06,5.305
								c10.006-3.848,19.993-7.649,30.226-10.865c0.626-0.195,1.677-0.62,1.896-0.002c2.377,6.717,4.182,13.73,6.02,20.613
								c0.064,0.239,0.125,0.504,0.016,0.726c-0.083,0.168-0.249,0.278-0.407,0.379c-11.267,7.22-22.651,14.24-34.838,19.819
								c-0.81,0.371-1.622,0.736-2.437,1.096c-10.685,4.725-25.466,12.257-31.352-3.088c-5.242-13.667-5.786-29.762-5.584-44.246
								c0.119-8.547,0.833-17.087,2.136-25.535c1.208-7.824,2.101-17.106,6.469-23.846c3.586-5.534,11.031-6.82,14.405-0.313
								c3.898,7.518,2.642,18.067,2.908,26.265c0,5.716,0.372,11.457,0.558,17.171C137.714,295.624,137.217,301.515,138.464,306.774
								z"/>
							<g>
								<path style="fill:none;stroke:#000000;stroke-width:0.5164;stroke-miterlimit:10;" d="M127.141,242.447
									c2.666-0.127,5.285,1.193,6.933,4.371c3.898,7.518,2.642,18.067,2.908,26.265c0,5.716,0.372,11.457,0.558,17.171
									c0.174,5.371-0.322,11.262,0.924,16.521c1.022,4.311,3.616,7.399,9.06,5.305c10.006-3.848,19.993-7.649,30.226-10.865
									c0.626-0.195,1.677-0.62,1.896-0.002"/>
								
									<line style="fill:none;stroke:#000000;stroke-width:0.5164;stroke-miterlimit:10;" x1="168.939" y1="304.66" x2="176.249" y2="328.59"/>
							</g>
						</g>
					</g>
					<g>
						<path style="fill:#CCCCCC;" d="M258.284,305.985L187.26,320.42c-0.683,0.139-1.356-0.307-1.495-0.99l-0.669-3.294
							c-0.139-0.683,0.306-1.356,0.99-1.495l71.024-14.435c0.683-0.139,1.356,0.306,1.495,0.99l0.669,3.294
							C259.413,305.173,258.967,305.846,258.284,305.985z"/>
						<g>
							<path style="fill:#787878;" d="M195.118,316.914l-3.139,0.638c-0.103,0.021-0.204-0.046-0.225-0.149l-0.241-1.186
								c-0.021-0.103,0.046-0.204,0.149-0.225l3.139-0.638c0.103-0.021,0.204,0.046,0.225,0.149l0.241,1.186
								C195.288,316.792,195.221,316.893,195.118,316.914z"/>
							<path style="fill:#787878;" d="M200.735,315.725l-3.139,0.638c-0.103,0.021-0.204-0.046-0.225-0.149l-0.241-1.186
								c-0.021-0.103,0.046-0.204,0.149-0.225l3.139-0.638c0.103-0.021,0.204,0.046,0.225,0.149l0.241,1.186
								C200.906,315.603,200.839,315.704,200.735,315.725z"/>
						</g>
						<g>
							<g>
								<polygon style="fill:#8A8A8A;" points="295.369,238.82 225.659,252.988 225.609,312.736 295.319,298.568 								"/>
								<polygon style="fill:#F2F2F2;" points="298.564,238.17 228.854,252.339 228.803,312.087 298.514,297.918 								"/>
							</g>
							<path style="fill:#D9D9D9;" d="M273.197,273.519c-0.9-4.427-5.218-7.287-9.646-6.387c-4.427,0.9-7.287,5.218-6.387,9.646
								c0.9,4.427,5.218,7.287,9.646,6.387C271.237,282.265,274.096,277.947,273.197,273.519z"/>
						</g>
					</g>
				</g>
			</g>
		</g>
	</g>
</g>
</svg>
