<svg width="141" height="34" viewBox="0 0 141 34" fill="none" xmlns="http://www.w3.org/2000/svg">
<path d="M35.9375 3.74125C35.9375 1.94438 34.4531 0.46 32.6562 0.46H11.5625C9.76562 0.46 8.28125 1.94438 8.28125 3.74125C8.28125 5.53812 9.76562 7.0225 11.5625 7.0225H16.7969C17.7344 7.0225 18.4375 7.72562 18.4375 8.66312C18.4375 9.60062 17.7344 10.3038 16.7969 10.3038H3.28125C1.48437 10.3037 0 11.7881 0 13.585C0 15.3819 1.48437 16.8662 3.28125 16.8662H10C10.9375 16.8662 11.6406 17.5694 11.6406 18.5069C11.6406 19.4444 10.9375 20.1475 10 20.1475H8.98438C7.1875 20.1475 5.70312 21.6319 5.70312 23.4287C5.70312 25.2256 7.1875 26.71 8.98438 26.71H32.6562C34.4531 26.71 35.9375 25.2256 35.9375 23.4287C35.9375 21.6319 34.4531 20.1475 32.6562 20.1475H16.5625C15.625 20.1475 14.9219 19.4444 14.9219 18.5069C14.9219 17.5694 15.625 16.8662 16.5625 16.8662H27.8125C29.6094 16.8662 31.0938 15.3819 31.0938 13.585C31.0938 11.7881 29.6094 10.3038 27.8125 10.3038H23.3594C22.4219 10.3038 21.7188 9.60062 21.7188 8.66312C21.7188 7.72562 22.4219 7.0225 23.3594 7.0225H32.6562C34.4531 7.0225 35.9375 5.53813 35.9375 3.74125Z" fill="#00313E"/>
<path d="M64.8037 15.12H55.2837V25.585H50.8037V0H66.6237V4.13H55.2837V11.095H64.8037V15.12Z" fill="#00313E"/>
<path d="M67.5701 33.6V30.03H70.1251C71.8051 30.03 72.8551 29.645 73.5901 27.615L74.0801 26.32L67.1151 8.295H71.6301L76.0751 20.895L80.7651 8.295H85.1751L76.7051 29.435C75.4101 32.655 73.5901 33.985 70.7551 33.985C69.5651 33.985 68.5151 33.845 67.5701 33.6Z" fill="#00313E"/>
<path d="M91.8705 25.585H87.6005V8.295H91.5555L91.9055 10.535C92.9905 8.785 95.0905 7.77 97.4355 7.77C101.776 7.77 104.016 10.465 104.016 14.945V25.585H99.7455V15.96C99.7455 13.055 98.3105 11.655 96.1055 11.655C93.4805 11.655 91.8705 13.475 91.8705 16.275V25.585Z" fill="#00313E"/>
<path d="M113.356 26.04C109.681 26.04 107.441 23.905 107.441 20.65C107.441 17.465 109.751 15.47 113.846 15.155L119.026 14.77V14.385C119.026 12.04 117.626 11.095 115.456 11.095C112.936 11.095 111.536 12.145 111.536 13.965H107.896C107.896 10.22 110.976 7.77 115.666 7.77C120.321 7.77 123.191 10.29 123.191 15.085V25.585H119.446L119.131 23.03C118.396 24.815 116.051 26.04 113.356 26.04ZM114.756 22.82C117.381 22.82 119.061 21.245 119.061 18.585V17.675L115.456 17.955C112.796 18.2 111.781 19.075 111.781 20.475C111.781 22.05 112.831 22.82 114.756 22.82Z" fill="#00313E"/>
<path d="M126.056 20.335H130.116C130.151 21.84 131.271 22.785 133.231 22.785C135.226 22.785 136.311 21.98 136.311 20.72C136.311 19.845 135.856 19.215 134.316 18.865L131.201 18.13C128.086 17.43 126.581 15.96 126.581 13.195C126.581 9.8 129.451 7.77 133.441 7.77C137.326 7.77 139.951 10.01 139.986 13.37H135.926C135.891 11.9 134.911 10.955 133.266 10.955C131.586 10.955 130.606 11.725 130.606 13.02C130.606 14 131.376 14.63 132.846 14.98L135.961 15.715C138.866 16.38 140.336 17.71 140.336 20.37C140.336 23.87 137.361 26.04 133.091 26.04C128.786 26.04 126.056 23.73 126.056 20.335Z" fill="#00313E"/>
</svg>
