<svg width="24" height="24" viewBox="0 0 24 24" fill="none" xmlns="http://www.w3.org/2000/svg">
<path d="M6.5 3H3L17.5 21H21L6.5 3Z" stroke="#00313E" stroke-width="1.5" stroke-linecap="round" stroke-linejoin="round"/>
<path d="M2.61612 19.6161C2.12796 20.1043 2.12796 20.8957 2.61612 21.3839C3.10427 21.872 3.89573 21.872 4.38388 21.3839L2.61612 19.6161ZM21.3839 4.38388C21.872 3.89573 21.872 3.10427 21.3839 2.61612C20.8957 2.12796 20.1043 2.12796 19.6161 2.61612L21.3839 4.38388ZM4.38388 21.3839L11.8839 13.8839L10.1161 12.1161L2.61612 19.6161L4.38388 21.3839ZM13.8839 11.8839L21.3839 4.38388L19.6161 2.61612L12.1161 10.1161L13.8839 11.8839Z" fill="#00313E"/>
</svg>
