<svg width="200" height="200" viewBox="0 0 200 200" fill="none" xmlns="http://www.w3.org/2000/svg">
<path d="M25.5188 113.617L39.7133 114.984C41.2316 121.018 43.6598 126.786 46.9141 132.089L37.877 143.002C37.4426 143.526 37.2195 144.193 37.2514 144.874C37.2832 145.554 37.5677 146.198 38.0492 146.679L53.4184 162.048C53.9 162.53 54.5438 162.814 55.2238 162.846C55.9039 162.878 56.5715 162.655 57.0961 162.221L68.0273 153.168C73.3332 156.407 79.0914 158.839 85.1129 160.384L86.4801 174.53C86.5477 175.201 86.8648 175.823 87.3691 176.271C87.873 176.72 88.527 176.963 89.2016 176.952H110.991C111.665 176.963 112.319 176.72 112.823 176.271C113.327 175.823 113.645 175.201 113.712 174.53L115.079 160.36C121.113 158.846 126.88 156.423 132.184 153.173L143.096 162.216C143.621 162.651 144.288 162.874 144.968 162.843C145.648 162.811 146.292 162.527 146.774 162.046L162.143 146.679C162.625 146.198 162.909 145.554 162.941 144.874C162.973 144.194 162.75 143.527 162.316 143.002L153.265 132.071C156.504 126.764 158.936 121.005 160.481 114.983L174.484 113.616C175.16 113.55 175.787 113.235 176.244 112.732C176.7 112.229 176.953 111.574 176.953 110.895V89.1059C176.953 88.4262 176.7 87.7707 176.243 87.2672C175.786 86.7641 175.158 86.4492 174.481 86.384L160.287 85.0168C158.768 78.9828 156.34 73.2152 153.086 67.9121L162.123 56.9992C162.555 56.4769 162.779 55.8129 162.749 55.1355C162.719 54.4586 162.439 53.8164 161.963 53.334L146.788 37.9648C146.308 37.4781 145.663 37.1892 144.979 37.155C144.296 37.1208 143.625 37.3437 143.098 37.78L132.167 46.8328C126.861 43.5934 121.103 41.1617 115.082 39.6172L113.714 25.4706C113.647 24.7993 113.33 24.178 112.825 23.7294C112.321 23.2809 111.668 23.038 110.993 23.0487H89.2039C88.5293 23.038 87.8754 23.2809 87.3715 23.7294C86.8672 24.178 86.55 24.7993 86.4824 25.4706L85.1152 39.6406C79.082 41.1539 73.3145 43.5777 68.0113 46.8281L57.0961 37.7862C56.5719 37.3514 55.9047 37.1278 55.2246 37.1591C54.5441 37.1904 53.9004 37.4743 53.4184 37.9554L38.0492 53.323C37.5679 53.8043 37.2836 54.448 37.2517 55.1281C37.2198 55.8082 37.4428 56.4754 37.877 57L46.9297 67.9301C43.6906 73.2355 41.2586 78.9938 39.7141 85.0152L25.5188 86.3824C24.8418 86.4477 24.2136 86.7629 23.7565 87.2664C23.2995 87.7699 23.0464 88.4258 23.0469 89.1059V110.895C23.0468 111.575 23.3 112.23 23.757 112.733C24.214 113.236 24.8421 113.552 25.5188 113.617ZM28.5156 91.5895L42.191 90.2715C42.7684 90.2156 43.3129 89.9781 43.7461 89.5926C44.1793 89.207 44.4785 88.6941 44.6012 88.1273C46.1004 81.384 48.8074 74.9676 52.5914 69.1883C52.9066 68.7 53.0578 68.1238 53.0234 67.5437C52.9891 66.9633 52.7707 66.4094 52.4 65.9617L43.6766 55.4301L55.5254 43.5812L66.0586 52.3051C66.5117 52.6801 67.0734 52.8992 67.6609 52.9297C68.2484 52.9602 68.8301 52.8004 69.3195 52.4742C75.0723 48.6672 81.4836 45.9648 88.2258 44.5055C88.7891 44.3934 89.3016 44.1035 89.6875 43.6781C90.0734 43.2531 90.3129 42.7152 90.3699 42.1437L91.6863 28.5159H108.508L109.826 42.1426C109.882 42.7168 110.121 43.2582 110.507 43.6871C110.893 44.1164 111.405 44.4113 111.97 44.5285C118.713 46.0234 125.129 48.7262 130.909 52.5066C131.398 52.8207 131.975 52.9711 132.555 52.9355C133.135 52.9 133.689 52.6805 134.136 52.309L144.657 43.5941L156.334 55.4187L147.6 65.9656C147.225 66.4187 147.006 66.9805 146.975 67.568C146.945 68.1551 147.105 68.7367 147.431 69.2262C151.238 74.9789 153.94 81.3902 155.4 88.1324C155.523 88.6992 155.822 89.2121 156.255 89.5973C156.689 89.9828 157.233 90.2203 157.81 90.2762L171.484 91.5895V108.414L158 109.73C157.424 109.786 156.88 110.024 156.447 110.409C156.015 110.795 155.716 111.307 155.593 111.873C154.094 118.616 151.387 125.033 147.603 130.812C147.288 131.301 147.137 131.877 147.171 132.457C147.205 133.037 147.424 133.591 147.795 134.039L156.518 144.571L144.67 156.42L134.136 147.696C133.683 147.321 133.121 147.102 132.534 147.071C131.946 147.041 131.364 147.2 130.875 147.527C125.122 151.334 118.711 154.036 111.969 155.496C111.405 155.607 110.893 155.898 110.507 156.323C110.121 156.748 109.882 157.286 109.825 157.857L108.508 171.485H91.6863L90.3684 157.858C90.3121 157.284 90.0734 156.743 89.6879 156.313C89.302 155.884 88.7891 155.589 88.2242 155.472C81.4816 153.977 75.0652 151.274 69.2852 147.494C68.7961 147.18 68.2199 147.029 67.6395 147.065C67.0594 147.1 66.5055 147.32 66.0586 147.692L55.5254 156.418L43.6766 144.571L52.4 134.038C52.775 133.585 52.9941 133.023 53.0246 132.436C53.0547 131.848 52.8949 131.267 52.5688 130.777C48.7621 125.024 46.0598 118.613 44.6 111.871C44.4773 111.304 44.1777 110.791 43.7445 110.406C43.3113 110.021 42.7668 109.783 42.1898 109.727L28.5156 108.411V91.5895Z" fill="#00313E"/>
<path d="M100.098 145.155C109.029 145.155 117.76 142.507 125.186 137.545C132.611 132.583 138.399 125.531 141.817 117.28C145.235 109.028 146.129 99.9492 144.386 91.1894C142.644 82.4301 138.343 74.384 132.028 68.0691C125.713 61.7539 117.667 57.4531 108.907 55.7109C100.148 53.9683 91.0684 54.8629 82.8172 58.2804C74.566 61.6984 67.5137 67.4859 62.5516 74.9121C57.5898 82.3379 54.9414 91.0683 54.9414 99.9992C54.9551 111.971 59.7172 123.449 68.1828 131.915C76.6484 140.38 88.1262 145.142 100.098 145.155ZM100.098 60.3117C107.948 60.3121 115.621 62.6398 122.147 67.0008C128.674 71.3617 133.761 77.5601 136.764 84.8121C139.768 92.064 140.554 100.044 139.023 107.742C137.491 115.441 133.711 122.512 128.161 128.063C122.611 133.613 115.539 137.393 107.84 138.924C100.142 140.456 92.1617 139.669 84.9102 136.666C77.6582 133.662 71.4598 128.575 67.0988 122.048C62.7379 115.522 60.4102 107.849 60.4102 99.9992C60.4223 89.4773 64.6078 79.3894 72.048 71.9492C79.4883 64.509 89.5762 60.3238 100.098 60.3117Z" fill="#00313E"/>
<path d="M93.06 112.993C93.5709 113.491 94.2565 113.771 94.9701 113.771C95.6842 113.771 96.3698 113.491 96.8803 112.993L119.488 90.9207C119.748 90.6703 119.956 90.3715 120.1 90.0406C120.244 89.7098 120.321 89.3535 120.327 88.9926C120.333 88.632 120.267 88.2734 120.133 87.9383C120 87.6031 119.801 87.2976 119.549 87.0394C119.297 86.7812 118.997 86.5754 118.665 86.434C118.333 86.2926 117.976 86.2184 117.615 86.2152C117.255 86.2125 116.897 86.2809 116.562 86.4168C116.228 86.5527 115.924 86.7535 115.668 87.0078L94.9701 107.215L84.3319 96.8285C84.0748 96.5773 83.7713 96.3797 83.4377 96.2465C83.1045 96.1129 82.7479 96.0465 82.3889 96.0508C82.0299 96.0551 81.6752 96.1301 81.3452 96.2715C81.0151 96.4129 80.7159 96.618 80.4651 96.875C80.2143 97.1316 80.0166 97.4355 79.883 97.7691C79.7498 98.1023 79.683 98.459 79.6877 98.818C79.692 99.1769 79.767 99.5316 79.9084 99.8617C80.0494 100.192 80.2545 100.491 80.5116 100.742L93.06 112.993Z" fill="#00313E"/>
</svg>
