<svg width="60" height="60" viewBox="0 0 60 60" fill="none" xmlns="http://www.w3.org/2000/svg">
<path d="M51.5625 18.1875C51.5625 16.0313 49.7812 14.25 47.625 14.25H22.3125C20.1562 14.25 18.375 16.0313 18.375 18.1875C18.375 20.3437 20.1562 22.125 22.3125 22.125H28.5938C29.7188 22.125 30.5625 22.9687 30.5625 24.0937C30.5625 25.2188 29.7187 26.0625 28.5937 26.0625H12.375C10.2187 26.0625 8.4375 27.8438 8.4375 30C8.4375 32.1562 10.2187 33.9375 12.375 33.9375H20.4375C21.5625 33.9375 22.4062 34.7813 22.4062 35.9062C22.4062 37.0312 21.5625 37.875 20.4375 37.875H19.2188C17.0625 37.875 15.2812 39.6562 15.2812 41.8125C15.2812 43.9687 17.0625 45.75 19.2188 45.75H47.625C49.7812 45.75 51.5625 43.9687 51.5625 41.8125C51.5625 39.6562 49.7812 37.875 47.625 37.875H28.3125C27.1875 37.875 26.3438 37.0312 26.3438 35.9062C26.3438 34.7812 27.1875 33.9375 28.3125 33.9375H41.8125C43.9687 33.9375 45.75 32.1562 45.75 30C45.75 27.8438 43.9687 26.0625 41.8125 26.0625H36.4687C35.3437 26.0625 34.5 25.2188 34.5 24.0937C34.5 22.9687 35.3438 22.125 36.4687 22.125H47.625C49.7812 22.125 51.5625 20.3438 51.5625 18.1875Z" fill="#FFF8F0"/>
</svg>
