<svg width="24" height="24" viewBox="0 0 24 24" fill="none" xmlns="http://www.w3.org/2000/svg">
<path d="M19 8V7.9V7.9C19 7.00654 19 6.55981 18.8604 6.25926C18.6696 5.84858 18.3741 5.5908 17.9413 5.45759C17.6245 5.36009 17.1351 5.42721 16.1563 5.56143C13.4111 5.93786 10.8782 5.75071 7.5 5V14C11.2392 14.8309 13.9427 14.9714 17.0448 14.4215C17.771 14.2927 18.1341 14.2284 18.4305 13.9939C18.583 13.8733 18.7287 13.6994 18.8208 13.5283C19 13.1954 19 12.7969 19 12V12M6.25 21V21C6.94036 21 7.5 20.4404 7.5 19.75V4.25C7.5 3.55964 6.94036 3 6.25 3V3C5.55964 3 5 3.55964 5 4.25V19.75C5 20.4404 5.55964 21 6.25 21Z" stroke="#00313E" stroke-width="1.5" stroke-linecap="round" stroke-linejoin="round"/>
</svg>
