<svg width="313" height="200" viewBox="0 0 313 200" fill="none" xmlns="http://www.w3.org/2000/svg">
<g clip-path="url(#clip0_148_1303)">
<rect x="312.5" width="200" height="312.5" rx="20" transform="rotate(90 312.5 0)" fill="#EBFF74"/>
<circle cx="32.625" cy="155.625" r="11.875" transform="rotate(90 32.625 155.625)" fill="#D50B21"/>
<circle cx="32.625" cy="169.375" r="11.875" transform="rotate(90 32.625 169.375)" fill="#F1A816" fill-opacity="0.5"/>
<path d="M188.716 36.0909C188.631 35.3712 188.285 34.8125 187.679 34.4148C187.073 34.017 186.33 33.8182 185.449 33.8182C184.805 33.8182 184.241 33.9223 183.759 34.1307C183.28 34.339 182.906 34.6255 182.636 34.9901C182.371 35.3546 182.239 35.7689 182.239 36.233C182.239 36.6212 182.331 36.955 182.516 37.2344C182.705 37.509 182.946 37.7386 183.24 37.9233C183.534 38.1032 183.841 38.2524 184.163 38.3707C184.485 38.4844 184.781 38.5767 185.051 38.6477L186.528 39.0455C186.907 39.1449 187.329 39.2822 187.793 39.4574C188.261 39.6326 188.709 39.8717 189.135 40.1747C189.566 40.473 189.921 40.8565 190.2 41.3253C190.48 41.794 190.619 42.3693 190.619 43.0511C190.619 43.8371 190.413 44.5473 190.001 45.1818C189.594 45.8163 188.998 46.3205 188.212 46.6946C187.43 47.0687 186.481 47.2557 185.364 47.2557C184.322 47.2557 183.42 47.0876 182.658 46.7514C181.9 46.4152 181.304 45.9465 180.868 45.3452C180.437 44.7438 180.193 44.0455 180.136 43.25H181.955C182.002 43.7992 182.187 44.2538 182.509 44.6136C182.835 44.9687 183.247 45.2339 183.744 45.4091C184.246 45.5795 184.786 45.6648 185.364 45.6648C186.036 45.6648 186.64 45.5559 187.175 45.3381C187.71 45.1155 188.134 44.8078 188.446 44.4148C188.759 44.017 188.915 43.553 188.915 43.0227C188.915 42.5398 188.78 42.1468 188.51 41.8438C188.24 41.5407 187.885 41.2945 187.445 41.1051C187.004 40.9157 186.528 40.75 186.017 40.608L184.227 40.0966C183.091 39.7699 182.191 39.3035 181.528 38.6974C180.866 38.0914 180.534 37.2983 180.534 36.3182C180.534 35.5038 180.754 34.7936 181.195 34.1875C181.64 33.5767 182.236 33.1032 182.984 32.767C183.737 32.4261 184.578 32.2557 185.506 32.2557C186.443 32.2557 187.277 32.4238 188.006 32.7599C188.735 33.0914 189.313 33.5459 189.739 34.1236C190.17 34.7012 190.397 35.357 190.42 36.0909H188.716ZM196.498 47.2557C195.807 47.2557 195.18 47.1255 194.616 46.8651C194.053 46.5999 193.605 46.2188 193.274 45.7216C192.942 45.2197 192.777 44.6136 192.777 43.9034C192.777 43.2784 192.9 42.7718 193.146 42.3835C193.392 41.9905 193.721 41.6828 194.133 41.4602C194.545 41.2377 195 41.072 195.497 40.9631C195.999 40.8494 196.503 40.7595 197.01 40.6932C197.672 40.608 198.21 40.544 198.622 40.5014C199.038 40.4541 199.342 40.3759 199.531 40.267C199.725 40.1581 199.822 39.9687 199.822 39.6989V39.642C199.822 38.9413 199.63 38.3968 199.247 38.0085C198.868 37.6203 198.293 37.4261 197.521 37.4261C196.721 37.4261 196.093 37.6013 195.639 37.9517C195.184 38.3021 194.865 38.6761 194.68 39.0739L193.089 38.5057C193.373 37.8428 193.752 37.3267 194.225 36.9574C194.704 36.5833 195.225 36.3229 195.788 36.1761C196.356 36.0246 196.915 35.9489 197.464 35.9489C197.815 35.9489 198.217 35.9915 198.672 36.0767C199.131 36.1572 199.574 36.3253 200 36.581C200.431 36.8366 200.788 37.2225 201.072 37.7386C201.356 38.2547 201.498 38.946 201.498 39.8125V47H199.822V45.5227H199.737C199.623 45.7595 199.434 46.0128 199.169 46.2827C198.904 46.5526 198.551 46.7822 198.11 46.9716C197.67 47.161 197.133 47.2557 196.498 47.2557ZM196.754 45.75C197.417 45.75 197.975 45.6198 198.43 45.3594C198.889 45.099 199.235 44.7628 199.467 44.3509C199.704 43.9389 199.822 43.5057 199.822 43.0511V41.517C199.751 41.6023 199.595 41.6804 199.353 41.7514C199.117 41.8177 198.842 41.8769 198.529 41.929C198.222 41.9763 197.921 42.0189 197.627 42.0568C197.339 42.09 197.104 42.1184 196.924 42.142C196.489 42.1989 196.082 42.2912 195.703 42.419C195.329 42.5421 195.026 42.7292 194.794 42.9801C194.566 43.2263 194.453 43.5625 194.453 43.9886C194.453 44.571 194.668 45.0114 195.099 45.3097C195.535 45.6032 196.086 45.75 196.754 45.75ZM204.558 47V36.0909H206.177V37.7386H206.29C206.489 37.1989 206.849 36.7609 207.37 36.4247C207.891 36.0885 208.478 35.9205 209.131 35.9205C209.254 35.9205 209.408 35.9228 209.593 35.9276C209.778 35.9323 209.917 35.9394 210.012 35.9489V37.6534C209.955 37.6392 209.825 37.6179 209.621 37.5895C209.423 37.5563 209.212 37.5398 208.989 37.5398C208.459 37.5398 207.986 37.651 207.569 37.8736C207.157 38.0914 206.83 38.3944 206.589 38.7827C206.352 39.1662 206.234 39.6042 206.234 40.0966V47H204.558ZM215.209 47.2557C214.518 47.2557 213.891 47.1255 213.327 46.8651C212.764 46.5999 212.316 46.2188 211.985 45.7216C211.653 45.2197 211.488 44.6136 211.488 43.9034C211.488 43.2784 211.611 42.7718 211.857 42.3835C212.103 41.9905 212.432 41.6828 212.844 41.4602C213.256 41.2377 213.711 41.072 214.208 40.9631C214.71 40.8494 215.214 40.7595 215.721 40.6932C216.383 40.608 216.921 40.544 217.333 40.5014C217.749 40.4541 218.052 40.3759 218.242 40.267C218.436 40.1581 218.533 39.9687 218.533 39.6989V39.642C218.533 38.9413 218.341 38.3968 217.958 38.0085C217.579 37.6203 217.004 37.4261 216.232 37.4261C215.432 37.4261 214.804 37.6013 214.35 37.9517C213.895 38.3021 213.576 38.6761 213.391 39.0739L211.8 38.5057C212.084 37.8428 212.463 37.3267 212.936 36.9574C213.415 36.5833 213.935 36.3229 214.499 36.1761C215.067 36.0246 215.626 35.9489 216.175 35.9489C216.525 35.9489 216.928 35.9915 217.382 36.0767C217.842 36.1572 218.284 36.3253 218.711 36.581C219.141 36.8366 219.499 37.2225 219.783 37.7386C220.067 38.2547 220.209 38.946 220.209 39.8125V47H218.533V45.5227H218.448C218.334 45.7595 218.145 46.0128 217.88 46.2827C217.614 46.5526 217.262 46.7822 216.821 46.9716C216.381 47.161 215.844 47.2557 215.209 47.2557ZM215.465 45.75C216.128 45.75 216.686 45.6198 217.141 45.3594C217.6 45.099 217.946 44.7628 218.178 44.3509C218.415 43.9389 218.533 43.5057 218.533 43.0511V41.517C218.462 41.6023 218.306 41.6804 218.064 41.7514C217.828 41.8177 217.553 41.8769 217.24 41.929C216.933 41.9763 216.632 42.0189 216.338 42.0568C216.05 42.09 215.815 42.1184 215.635 42.142C215.2 42.1989 214.792 42.2912 214.414 42.419C214.04 42.5421 213.737 42.7292 213.505 42.9801C213.277 43.2263 213.164 43.5625 213.164 43.9886C213.164 44.571 213.379 45.0114 213.81 45.3097C214.246 45.6032 214.797 45.75 215.465 45.75ZM224.945 40.4375V47H223.268V32.4545H224.945V37.7955H225.087C225.342 37.232 225.726 36.7846 226.237 36.4531C226.753 36.117 227.44 35.9489 228.297 35.9489C229.04 35.9489 229.691 36.098 230.25 36.3963C230.809 36.6899 231.242 37.142 231.55 37.7528C231.862 38.3589 232.018 39.1307 232.018 40.0682V47H230.342V40.1818C230.342 39.3153 230.117 38.6454 229.668 38.1719C229.223 37.6937 228.605 37.4545 227.814 37.4545C227.265 37.4545 226.772 37.5705 226.337 37.8026C225.906 38.0346 225.565 38.3731 225.314 38.8182C225.068 39.2633 224.945 39.803 224.945 40.4375ZM245.426 47H240.937V32.4545H245.625C247.036 32.4545 248.243 32.7457 249.247 33.3281C250.251 33.9058 251.02 34.7367 251.555 35.821C252.09 36.9006 252.358 38.1932 252.358 39.6989C252.358 41.214 252.088 42.5185 251.548 43.6122C251.008 44.7012 250.222 45.5393 249.19 46.1264C248.158 46.7088 246.903 47 245.426 47ZM242.699 45.4375H245.312C246.515 45.4375 247.511 45.2055 248.302 44.7415C249.093 44.2775 249.682 43.617 250.071 42.7599C250.459 41.9029 250.653 40.8826 250.653 39.6989C250.653 38.5246 250.461 37.5137 250.078 36.6662C249.694 35.8139 249.121 35.1605 248.359 34.706C247.597 34.2467 246.647 34.017 245.511 34.017H242.699V45.4375Z" fill="#00313E"/>
<path d="M263.137 35.9091V45H262.036V37.0632H261.983L259.763 38.5369V37.4183L262.036 35.9091H263.137ZM265.752 45V44.201L268.752 40.9162C269.104 40.5315 269.394 40.1971 269.622 39.913C269.85 39.6259 270.019 39.3567 270.128 39.1051C270.241 38.8506 270.297 38.5843 270.297 38.3061C270.297 37.9865 270.22 37.7098 270.066 37.476C269.915 37.2422 269.708 37.0617 269.445 36.9345C269.181 36.8072 268.885 36.7436 268.557 36.7436C268.208 36.7436 267.903 36.8161 267.643 36.9611C267.385 37.1032 267.185 37.3029 267.043 37.5604C266.904 37.8178 266.835 38.1197 266.835 38.4659H265.787C265.787 37.9332 265.91 37.4657 266.156 37.0632C266.401 36.6607 266.736 36.3471 267.159 36.1222C267.585 35.8973 268.063 35.7848 268.593 35.7848C269.125 35.7848 269.597 35.8973 270.009 36.1222C270.42 36.3471 270.742 36.6504 270.976 37.0321C271.21 37.4139 271.327 37.8385 271.327 38.3061C271.327 38.6405 271.266 38.9675 271.145 39.2871C271.027 39.6038 270.819 39.9574 270.523 40.348C270.23 40.7357 269.824 41.2092 269.303 41.7685L267.261 43.9524V44.0234H271.487V45H265.752ZM276.551 35.483L273.622 46.3672H272.663L275.593 35.483H276.551ZM277.776 45V44.201L280.776 40.9162C281.128 40.5315 281.418 40.1971 281.646 39.913C281.874 39.6259 282.043 39.3567 282.152 39.1051C282.265 38.8506 282.321 38.5843 282.321 38.3061C282.321 37.9865 282.244 37.7098 282.09 37.476C281.939 37.2422 281.732 37.0617 281.469 36.9345C281.205 36.8072 280.909 36.7436 280.581 36.7436C280.232 36.7436 279.927 36.8161 279.667 36.9611C279.409 37.1032 279.209 37.3029 279.067 37.5604C278.928 37.8178 278.859 38.1197 278.859 38.4659H277.811C277.811 37.9332 277.934 37.4657 278.179 37.0632C278.425 36.6607 278.759 36.3471 279.183 36.1222C279.609 35.8973 280.087 35.7848 280.616 35.7848C281.149 35.7848 281.621 35.8973 282.032 36.1222C282.444 36.3471 282.766 36.6504 283 37.0321C283.234 37.4139 283.351 37.8385 283.351 38.3061C283.351 38.6405 283.29 38.9675 283.169 39.2871C283.05 39.6038 282.843 39.9574 282.547 40.348C282.254 40.7357 281.847 41.2092 281.327 41.7685L279.285 43.9524V44.0234H283.511V45H277.776ZM288.185 45.1243C287.664 45.1243 287.195 45.0207 286.778 44.8136C286.36 44.6064 286.026 44.3223 285.774 43.9613C285.523 43.6003 285.385 43.1889 285.362 42.7273H286.427C286.468 43.1386 286.655 43.4789 286.986 43.7482C287.321 44.0146 287.72 44.1477 288.185 44.1477C288.558 44.1477 288.889 44.0604 289.179 43.8858C289.472 43.7112 289.701 43.4715 289.867 43.1667C290.036 42.859 290.12 42.5112 290.12 42.1236C290.12 41.727 290.033 41.3734 289.858 41.0627C289.687 40.749 289.45 40.5019 289.148 40.3214C288.846 40.1409 288.501 40.0491 288.114 40.0462C287.836 40.0432 287.55 40.0861 287.257 40.1749C286.964 40.2607 286.723 40.3717 286.534 40.5078L285.504 40.3835L286.054 35.9091H290.777V36.8857H286.977L286.658 39.5668H286.711C286.898 39.4188 287.131 39.296 287.412 39.1983C287.694 39.1007 287.987 39.0518 288.291 39.0518C288.848 39.0518 289.343 39.185 289.778 39.4513C290.216 39.7147 290.56 40.0758 290.808 40.5344C291.06 40.9931 291.186 41.5169 291.186 42.1058C291.186 42.6858 291.055 43.2037 290.795 43.6594C290.537 44.1122 290.182 44.4703 289.73 44.7337C289.277 44.9941 288.762 45.1243 288.185 45.1243Z" fill="#00313E"/>
<path d="M47.4609 33.9011C47.4609 32.3386 46.1702 31.0479 44.6077 31.0479H26.2653C24.7028 31.0479 23.412 32.3386 23.412 33.9011C23.412 35.4636 24.7028 36.7544 26.2653 36.7544H30.8169C31.6321 36.7544 32.2435 37.3658 32.2435 38.181C32.2435 38.9962 31.6321 39.6076 30.8169 39.6076H19.0642C17.5017 39.6076 16.2109 40.8984 16.2109 42.4609C16.2109 44.0234 17.5017 45.3142 19.0642 45.3142H24.9066C25.7218 45.3142 26.3332 45.9256 26.3332 46.7408C26.3332 47.556 25.7218 48.1674 24.9066 48.1674H24.0234C22.4609 48.1674 21.1702 49.4582 21.1702 51.0207C21.1702 52.5832 22.4609 53.8739 24.0234 53.8739H44.6077C46.1702 53.8739 47.4609 52.5832 47.4609 51.0207C47.4609 49.4582 46.1702 48.1674 44.6077 48.1674H30.6131C29.7979 48.1674 29.1865 47.556 29.1865 46.7408C29.1865 45.9256 29.7979 45.3142 30.6131 45.3142H40.3957C41.9582 45.3142 43.249 44.0234 43.249 42.4609C43.249 40.8984 41.9582 39.6076 40.3957 39.6076H36.5234C35.7082 39.6076 35.0968 38.9962 35.0968 38.181C35.0968 37.3658 35.7082 36.7544 36.5234 36.7544H44.6077C46.1702 36.7544 47.4609 35.4636 47.4609 33.9011Z" fill="#00313E"/>
<g clip-path="url(#clip1_148_1303)">
<path d="M271.564 172.761H262.5V163.799H271.767C271.564 165.693 271.463 167.654 271.463 169.65C271.463 170.698 271.497 171.747 271.564 172.761Z" fill="#00313E"/>
<path d="M272.442 179.559H269.026C265.712 179.559 262.938 177.056 262.566 173.843H271.631C271.766 175.872 272.037 177.8 272.442 179.559Z" fill="#00313E"/>
<path d="M273.189 157.001C272.614 158.658 272.208 160.62 271.904 162.716H262.535C262.941 159.503 265.714 157.001 269.029 157.001H273.189Z" fill="#00313E"/>
<path d="M281.982 162.716H273.02C273.324 160.518 273.764 158.556 274.339 157.001H280.697C281.238 158.556 281.678 160.518 281.982 162.716Z" fill="#00313E"/>
<path d="M272.715 173.843H282.32C282.117 175.94 281.847 177.868 281.475 179.559H273.527C273.155 177.868 272.884 175.94 272.715 173.843Z" fill="#00313E"/>
<path d="M282.457 169.65C282.457 170.698 282.423 171.747 282.355 172.727H272.648C272.581 171.713 272.547 170.698 272.547 169.65C272.547 167.587 272.648 165.625 272.851 163.799H282.118C282.355 165.625 282.457 167.587 282.457 169.65Z" fill="#00313E"/>
<path d="M292.466 162.716H283.098C282.793 160.62 282.387 158.658 281.812 157.001H285.973C289.321 157.001 292.061 159.503 292.466 162.716Z" fill="#00313E"/>
<path d="M283.37 173.843H292.435C292.029 177.056 289.289 179.559 285.975 179.559H282.559C282.964 177.8 283.235 175.872 283.37 173.843Z" fill="#00313E"/>
<path d="M292.499 163.799V172.761H283.469C283.536 171.747 283.57 170.698 283.57 169.683C283.57 167.688 283.469 165.726 283.266 163.832H292.499V163.799Z" fill="#00313E"/>
</g>
</g>
<defs>
<clipPath id="clip0_148_1303">
<rect x="312.5" width="200" height="312.5" rx="20" transform="rotate(90 312.5 0)" fill="white"/>
</clipPath>
<clipPath id="clip1_148_1303">
<rect width="30" height="22.5586" fill="white" transform="translate(262.5 157)"/>
</clipPath>
</defs>
</svg>
