<svg width="24" height="24" viewBox="0 0 24 24" fill="none" xmlns="http://www.w3.org/2000/svg">
<path d="M12.75 12C12.75 12.4142 12.4142 12.75 12 12.75C11.5858 12.75 11.25 12.4142 11.25 12C11.25 11.5858 11.5858 11.25 12 11.25C12.4142 11.25 12.75 11.5858 12.75 12Z" fill="#00313E"/>
<path d="M12.75 12C12.75 12.4142 12.4142 12.75 12 12.75C11.5858 12.75 11.25 12.4142 11.25 12C11.25 11.5858 11.5858 11.25 12 11.25M12.75 12C12.75 11.5858 12.4142 11.25 12 11.25M12.75 12H16.5M12 11.25V6.5M20.777 10C19.8675 5.99202 16.2832 3 12 3C7.02944 3 3 7.02944 3 12C3 16.9706 7.02944 21 12 21C16.2832 21 19.8675 18.008 20.777 14" stroke="#00313E" stroke-width="1.5" stroke-linecap="round" stroke-linejoin="round"/>
</svg>
