<svg width="141" height="34" viewBox="0 0 141 34" fill="none" xmlns="http://www.w3.org/2000/svg">
<path d="M35.9375 3.74858C35.9375 1.9517 34.4531 0.467325 32.6562 0.467325H11.5625C9.76562 0.467325 8.28125 1.9517 8.28125 3.74858C8.28125 5.54545 9.76562 7.02982 11.5625 7.02982H16.7969C17.7344 7.02982 18.4375 7.73295 18.4375 8.67045C18.4375 9.60795 17.7344 10.3111 16.7969 10.3111H3.28125C1.48437 10.3111 0 11.7955 0 13.5923C0 15.3892 1.48437 16.8736 3.28125 16.8736H10C10.9375 16.8736 11.6406 17.5767 11.6406 18.5142C11.6406 19.4517 10.9375 20.1548 10 20.1548H8.98438C7.1875 20.1548 5.70312 21.6392 5.70312 23.4361C5.70312 25.2329 7.1875 26.7173 8.98438 26.7173H32.6562C34.4531 26.7173 35.9375 25.2329 35.9375 23.4361C35.9375 21.6392 34.4531 20.1548 32.6562 20.1548H16.5625C15.625 20.1548 14.9219 19.4517 14.9219 18.5142C14.9219 17.5767 15.625 16.8736 16.5625 16.8736H27.8125C29.6094 16.8736 31.0938 15.3892 31.0938 13.5923C31.0938 11.7955 29.6094 10.3111 27.8125 10.3111H23.3594C22.4219 10.3111 21.7188 9.60795 21.7188 8.67045C21.7188 7.73295 22.4219 7.02982 23.3594 7.02982H32.6562C34.4531 7.02983 35.9375 5.54545 35.9375 3.74858Z" fill="#FFF8F0"/>
<path d="M64.8037 15.1273H55.2837V25.5923H50.8037V0.00732422H66.6237V4.13732H55.2837V11.1023H64.8037V15.1273Z" fill="#FFF8F0"/>
<path d="M67.5701 33.6073V30.0373H70.1251C71.8051 30.0373 72.8551 29.6523 73.5901 27.6223L74.0801 26.3273L67.1151 8.30232H71.6301L76.0751 20.9023L80.7651 8.30232H85.1751L76.7051 29.4423C75.4101 32.6623 73.5901 33.9923 70.7551 33.9923C69.5651 33.9923 68.5151 33.8523 67.5701 33.6073Z" fill="#FFF8F0"/>
<path d="M91.8705 25.5923H87.6005V8.30232H91.5555L91.9055 10.5423C92.9905 8.79232 95.0905 7.77732 97.4355 7.77732C101.776 7.77732 104.016 10.4723 104.016 14.9523V25.5923H99.7455V15.9673C99.7455 13.0623 98.3105 11.6623 96.1055 11.6623C93.4805 11.6623 91.8705 13.4823 91.8705 16.2823V25.5923Z" fill="#FFF8F0"/>
<path d="M113.356 26.0473C109.681 26.0473 107.441 23.9123 107.441 20.6573C107.441 17.4723 109.751 15.4773 113.846 15.1623L119.026 14.7773V14.3923C119.026 12.0473 117.626 11.1023 115.456 11.1023C112.936 11.1023 111.536 12.1523 111.536 13.9723H107.896C107.896 10.2273 110.976 7.77732 115.666 7.77732C120.321 7.77732 123.191 10.2973 123.191 15.0923V25.5923H119.446L119.131 23.0373C118.396 24.8223 116.051 26.0473 113.356 26.0473ZM114.756 22.8273C117.381 22.8273 119.061 21.2523 119.061 18.5923V17.6823L115.456 17.9623C112.796 18.2073 111.781 19.0823 111.781 20.4823C111.781 22.0573 112.831 22.8273 114.756 22.8273Z" fill="#FFF8F0"/>
<path d="M126.056 20.3423H130.116C130.151 21.8473 131.271 22.7923 133.231 22.7923C135.226 22.7923 136.311 21.9873 136.311 20.7273C136.311 19.8523 135.856 19.2223 134.316 18.8723L131.201 18.1373C128.086 17.4373 126.581 15.9673 126.581 13.2023C126.581 9.80732 129.451 7.77732 133.441 7.77732C137.326 7.77732 139.951 10.0173 139.986 13.3773H135.926C135.891 11.9073 134.911 10.9623 133.266 10.9623C131.586 10.9623 130.606 11.7323 130.606 13.0273C130.606 14.0073 131.376 14.6373 132.846 14.9873L135.961 15.7223C138.866 16.3873 140.336 17.7173 140.336 20.3773C140.336 23.8773 137.361 26.0473 133.091 26.0473C128.786 26.0473 126.056 23.7373 126.056 20.3423Z" fill="#FFF8F0"/>
</svg>
