<svg width="36" height="27" viewBox="0 0 36 27" fill="none" xmlns="http://www.w3.org/2000/svg">
<path d="M35.9375 3.28125C35.9375 1.48438 34.4531 0 32.6562 0H11.5625C9.76562 0 8.28125 1.48438 8.28125 3.28125C8.28125 5.07812 9.76562 6.5625 11.5625 6.5625H16.7969C17.7344 6.5625 18.4375 7.26562 18.4375 8.20312C18.4375 9.14062 17.7344 9.84375 16.7969 9.84375H3.28125C1.48437 9.84375 0 11.3281 0 13.125C0 14.9219 1.48437 16.4062 3.28125 16.4062H10C10.9375 16.4062 11.6406 17.1094 11.6406 18.0469C11.6406 18.9844 10.9375 19.6875 10 19.6875H8.98438C7.1875 19.6875 5.70312 21.1719 5.70312 22.9687C5.70312 24.7656 7.1875 26.25 8.98438 26.25H32.6562C34.4531 26.25 35.9375 24.7656 35.9375 22.9687C35.9375 21.1719 34.4531 19.6875 32.6562 19.6875H16.5625C15.625 19.6875 14.9219 18.9844 14.9219 18.0469C14.9219 17.1094 15.625 16.4062 16.5625 16.4062H27.8125C29.6094 16.4062 31.0938 14.9219 31.0938 13.125C31.0938 11.3281 29.6094 9.84375 27.8125 9.84375H23.3594C22.4219 9.84375 21.7188 9.14062 21.7188 8.20312C21.7188 7.26562 22.4219 6.5625 23.3594 6.5625H32.6562C34.4531 6.5625 35.9375 5.07813 35.9375 3.28125Z" fill="#00313E"/>
</svg>
