<svg width="24" height="24" viewBox="0 0 24 24" fill="none" xmlns="http://www.w3.org/2000/svg">
<path fill-rule="evenodd" clip-rule="evenodd" d="M16.1359 19.1733C15.173 20.072 14.2441 20.8085 13.5563 21.3204C13.5432 21.3302 13.5432 21.3301 13.5496 21.3254C13.5655 21.3136 13.6201 21.2728 13.6085 21.2812C12.7243 21.9193 11.274 21.9193 10.3898 21.2812C10.3735 21.2694 10.4877 21.3544 10.442 21.3204C9.75419 20.8085 8.82532 20.072 7.86246 19.1733C5.96913 17.4062 3.813 14.8931 3.26371 12.1471C2.15264 6.5926 6.65214 2.25 11.9991 2.25C17.3462 2.25 21.8453 6.59263 20.7346 12.1471C20.1855 14.8931 18.0293 17.4062 16.1359 19.1733ZM11.999 14.65C13.932 14.65 15.499 13.083 15.499 11.15C15.499 9.21703 13.932 7.65002 11.999 7.65002C10.066 7.65002 8.49902 9.21703 8.49902 11.15C8.49902 13.083 10.066 14.65 11.999 14.65Z" fill="#00313E"/>
</svg>
