<svg width="24" height="24" viewBox="0 0 24 24" fill="none" xmlns="http://www.w3.org/2000/svg">
<path fill-rule="evenodd" clip-rule="evenodd" d="M10.8 2.25H13.2C16.7622 2.25 18.5434 2.25 19.792 3.15717C20.1952 3.45015 20.5499 3.80477 20.8428 4.20802C21.75 5.45663 21.75 7.23775 21.75 10.8V13.2C21.75 16.7622 21.75 18.5434 20.8428 19.792C20.5499 20.1952 20.1952 20.5499 19.792 20.8428C18.5434 21.75 16.7622 21.75 13.2 21.75H10.8C7.23775 21.75 5.45663 21.75 4.20802 20.8428C3.80477 20.5499 3.45015 20.1952 3.15717 19.792C2.25 18.5434 2.25 16.7622 2.25 13.2V10.8C2.25 7.23775 2.25 5.45663 3.15717 4.20802C3.45015 3.80477 3.80477 3.45015 4.20802 3.15717C5.45663 2.25 7.23775 2.25 10.8 2.25ZM16.75 7C16.75 6.58579 16.4142 6.25 16 6.25C15.5858 6.25 15.25 6.58579 15.25 7V14C15.25 14.4142 15.5858 14.75 16 14.75C16.4142 14.75 16.75 14.4142 16.75 14V7ZM12.75 9C12.75 8.58579 12.4142 8.25 12 8.25C11.5858 8.25 11.25 8.58579 11.25 9V14C11.25 14.4142 11.5858 14.75 12 14.75C12.4142 14.75 12.75 14.4142 12.75 14V9ZM8.75 11C8.75 10.5858 8.41421 10.25 8 10.25C7.58579 10.25 7.25 10.5858 7.25 11V14C7.25 14.4142 7.58579 14.75 8 14.75C8.41421 14.75 8.75 14.4142 8.75 14V11ZM7 16.25C6.58579 16.25 6.25 16.5858 6.25 17C6.25 17.4142 6.58579 17.75 7 17.75H17C17.4142 17.75 17.75 17.4142 17.75 17C17.75 16.5858 17.4142 16.25 17 16.25H7Z" fill="#00313E"/>
</svg>
