<svg width="24" height="24" viewBox="0 0 24 24" fill="none" xmlns="http://www.w3.org/2000/svg">
<path fill-rule="evenodd" clip-rule="evenodd" d="M12 21.75C17.3848 21.75 21.75 17.3848 21.75 12C21.75 6.61522 17.3848 2.25 12 2.25C6.61522 2.25 2.25 6.61522 2.25 12C2.25 17.3848 6.61522 21.75 12 21.75ZM12 8.25C11.1433 8.25 10.5 8.91019 10.5 9.66274C10.5 10.0769 10.1642 10.4127 9.75 10.4127C9.33579 10.4127 9 10.0769 9 9.66274C9 8.02639 10.3714 6.75 12 6.75C13.6286 6.75 15 8.02639 15 9.66274C15 10.6474 14.4974 11.5087 13.7465 12.0313C13.5932 12.138 13.4149 12.2358 13.2853 12.3068L13.2853 12.3068L13.2853 12.3068C13.2502 12.3261 13.2187 12.3434 13.1922 12.3583C13.0396 12.4446 12.9585 12.5022 12.9049 12.558C12.4951 12.9838 12.3925 13.6134 12.6782 14.1448C12.8744 14.5097 12.7377 14.9644 12.3728 15.1606C12.008 15.3567 11.5532 15.22 11.3571 14.8552C10.7487 13.7236 10.9837 12.3911 11.8241 11.5178C12.035 11.2987 12.2741 11.1542 12.454 11.0525C12.5173 11.0167 12.5715 10.987 12.6195 10.9606L12.6195 10.9606L12.6196 10.9606C12.7295 10.9001 12.8075 10.8573 12.8897 10.8001C13.2681 10.5368 13.5 10.1205 13.5 9.66274C13.5 8.91019 12.8567 8.25 12 8.25ZM12.75 16.75C12.75 17.1642 12.4142 17.5 12 17.5C11.5858 17.5 11.25 17.1642 11.25 16.75C11.25 16.3358 11.5858 16 12 16C12.4142 16 12.75 16.3358 12.75 16.75Z" fill="#00313E"/>
</svg>
