<svg width="160" height="54" viewBox="0 0 160 54" fill="none" xmlns="http://www.w3.org/2000/svg">
<rect width="160" height="53.9831" rx="7.23164" fill="#252134"/>
<rect x="0.451977" y="0.451977" width="159.096" height="53.0791" rx="6.77966" stroke="#757185" stroke-opacity="0.2" stroke-width="0.903955"/>
<g clip-path="url(#clip0_148_1334)">
<path d="M26.4445 26.9935L12.8262 40.1071C12.1884 39.6713 11.8098 38.9463 11.8165 38.1739V15.8132C11.8098 15.0408 12.1884 14.3158 12.8262 13.88L26.4445 26.9935Z" fill="#2196F3"/>
<path d="M31.2195 22.4133L26.4543 26.9938L12.8359 13.8803C12.8872 13.8405 12.9407 13.8035 12.996 13.7695C13.7157 13.3333 14.6147 13.3192 15.3478 13.7325L31.2195 22.4133Z" fill="#4CAF50"/>
<path d="M36.9854 26.9938C36.9943 27.8658 36.5205 28.6712 35.7541 29.0871L31.2105 31.5743L26.4453 26.9938L31.2105 22.4133L35.7541 24.9006C36.5205 25.3165 36.9943 26.1219 36.9854 26.9938Z" fill="#FFC107"/>
<path d="M31.2195 31.574L15.3478 40.2548C14.6131 40.6618 13.7175 40.6477 12.996 40.2179C12.9407 40.1838 12.8872 40.1468 12.8359 40.1071L26.4543 26.9935L31.2195 31.574Z" fill="#F44336"/>
</g>
<path d="M53.8291 18.4269C51.3776 18.4269 49.7505 16.6914 49.7505 14.3158V14.0771C49.7505 12.0486 51.2149 10.0961 53.6555 10.0961C55.6298 10.0961 57.0291 11.311 57.1918 13.0575H56.1071C55.9552 11.7341 54.8596 11.0724 53.6555 11.0724C51.9959 11.0724 50.8352 12.309 50.8352 14.2073C50.8352 16.3876 52.0935 17.4724 53.8291 17.4724C54.7837 17.4724 55.5864 17.1469 56.1179 16.6263V15.2812H53.5471V14.3917H57.7884V15.2812H57.1159V16.9517C56.4108 17.8846 55.2718 18.4269 53.8291 18.4269ZM63.9938 18.2317H59.3077V10.313H63.8853V11.2676H60.3707V13.73H63.6575V14.6846H60.3707V17.2771H63.9938V18.2317ZM68.4153 18.2317H67.3522V11.2676H64.9441V10.313H70.8234V11.2676H68.4153V18.2317ZM75.8056 18.2317H74.7425V10.313H75.8056V18.2317ZM80.7352 18.2317H79.6722V11.2676H77.264V10.313H83.1433V11.2676H80.7352V18.2317ZM90.5878 18.4269C87.7567 18.4269 86.4983 16.1056 86.4983 14.37V14.1313C86.4983 12.2439 87.8217 10.0961 90.5878 10.0961C93.3539 10.0961 94.6773 12.2439 94.6773 14.1313V14.37C94.6773 16.1056 93.419 18.4269 90.5878 18.4269ZM90.5878 17.4507C92.4428 17.4507 93.5926 15.932 93.5926 14.2615C93.5926 12.5042 92.4428 11.0724 90.5878 11.0724C88.7329 11.0724 87.5831 12.5042 87.5831 14.2615C87.5831 15.932 88.7329 17.4507 90.5878 17.4507ZM97.4243 18.2317H96.4263V10.313H98.1619L102.186 17.2771H102.316V10.313H103.336V18.2317H101.579L97.5545 11.2676H97.4243V18.2317Z" fill="#FAFAFA"/>
<path d="M56.1124 42.0606C51.8493 42.0606 49.848 38.8877 49.848 35.9427V35.5847C49.848 32.5908 51.8981 29.5155 55.852 29.5155C59.0575 29.5155 61.2866 31.4355 61.5469 34.1854H58.8785C58.6669 32.8837 57.4629 32.005 55.852 32.005C53.7693 32.005 52.549 33.5671 52.549 35.7799C52.549 38.1067 53.8507 39.6362 56.1124 39.6362C57.3164 39.6362 58.309 39.1969 58.8785 38.481V37.4884H55.7707V35.5684H62.3117V37.4884H61.3354V39.506C60.3266 41.1494 58.4717 42.0606 56.1124 42.0606ZM68.2345 42.0606C65.1105 42.0606 63.3369 39.9291 63.3369 37.5047V37.1304C63.3369 34.6084 65.2081 32.5257 68.2345 32.5257C71.2772 32.5257 73.1484 34.6084 73.1484 37.1304V37.5047C73.1484 39.9291 71.3749 42.0606 68.2345 42.0606ZM68.2345 39.864C69.7478 39.864 70.545 38.7901 70.545 37.3257C70.545 35.8125 69.6989 34.7223 68.2345 34.7223C66.7864 34.7223 65.9403 35.8125 65.9403 37.3257C65.9403 38.7901 66.7376 39.864 68.2345 39.864ZM79.3097 42.0606C76.1857 42.0606 74.4121 39.9291 74.4121 37.5047V37.1304C74.4121 34.6084 76.2833 32.5257 79.3097 32.5257C82.3525 32.5257 84.2236 34.6084 84.2236 37.1304V37.5047C84.2236 39.9291 82.4501 42.0606 79.3097 42.0606ZM79.3097 39.864C80.823 39.864 81.6203 38.7901 81.6203 37.3257C81.6203 35.8125 80.7742 34.7223 79.3097 34.7223C77.8616 34.7223 77.0155 35.8125 77.0155 37.3257C77.0155 38.7901 77.8128 39.864 79.3097 39.864ZM89.5551 45.2986C88.6765 45.2986 87.7165 45.2335 86.968 45.1196V42.923C87.7328 43.0369 88.7253 43.1182 89.49 43.1182C91.589 43.1182 92.4839 42.4186 92.4839 40.8565V40.0918C91.9144 41.1982 90.8731 41.8165 89.4738 41.8165C87.0331 41.8165 85.4873 39.9128 85.4873 37.3908V37.0165C85.4873 34.4782 87.1633 32.5745 89.6365 32.5745C91.1822 32.5745 92.3212 33.3393 92.8744 34.7386V32.8349H94.9409V40.6938C94.9409 43.9806 93.1999 45.2986 89.5551 45.2986ZM90.2873 39.6199C91.4751 39.6199 92.4351 38.7901 92.4351 37.3582V36.8864C92.4351 35.5033 91.4263 34.7223 90.3036 34.7223C88.9856 34.7223 88.0907 35.6986 88.0907 37.1955C88.0907 38.7088 89.0019 39.6199 90.2873 39.6199ZM99.9288 41.7515H97.3091V31.7935H96.2515V29.8735H99.9288V41.7515ZM106.412 42.0606C103.369 42.0606 101.774 39.7501 101.774 37.4559V37.1304C101.774 34.7549 103.402 32.5257 106.314 32.5257C109.178 32.5257 110.756 34.6898 110.756 37.0979V37.9765H104.248C104.41 39.1806 105.094 39.9454 106.412 39.9454C107.355 39.9454 107.99 39.5549 108.202 38.9854H110.593C110.203 40.8077 108.641 42.0606 106.412 42.0606ZM106.314 34.641C105.175 34.641 104.475 35.2918 104.264 36.4959H108.283C108.104 35.3243 107.437 34.641 106.314 34.641ZM118.712 41.7515H116.044V29.7759H120.388C123.399 29.7759 125.221 31.3542 125.221 33.9413V34.2016C125.221 36.7562 123.399 38.3508 120.388 38.3508H118.712V41.7515ZM120.519 32.0864H118.712V36.0403H120.519C121.771 36.0403 122.52 35.2593 122.52 34.0715C122.52 32.8511 121.771 32.0864 120.519 32.0864ZM129.484 41.7515H126.864V31.7935H125.807V29.8735H129.484V41.7515ZM134.421 41.9793C132.501 41.9793 131.199 40.9216 131.199 39.1155C131.199 37.1467 132.826 36.2843 135.218 36.2843H136.829V36.2518C136.829 35.3406 136.406 34.885 135.462 34.885C134.73 34.885 133.184 34.9501 132.192 35.0152V32.8186C132.94 32.7535 134.193 32.6884 135.121 32.6884C137.854 32.6884 139.335 33.8111 139.335 36.2843V41.7515H137.268V40.043C136.878 41.2959 135.934 41.9793 134.421 41.9793ZM135.202 40.1732C136.048 40.1732 136.764 39.7827 136.829 38.4484V37.7325H135.202C134.291 37.7325 133.786 38.2206 133.786 38.9691C133.786 39.685 134.291 40.1732 135.202 40.1732ZM142.882 45.2823H141.287V43.0694H143.142C143.972 43.0694 144.395 42.7928 144.623 41.9467L144.72 41.5562H143.012L140.278 32.8349H142.898L144.883 39.5223H145.209L146.819 32.8349H149.293L146.803 42.4674C146.266 44.5664 145.241 45.2823 142.882 45.2823Z" fill="#FAFAFA"/>
<defs>
<clipPath id="clip0_148_1334">
<rect width="27.1186" height="27.1186" fill="white" transform="translate(10.8477 13.4323)"/>
</clipPath>
</defs>
</svg>
