<svg width="160" height="25" viewBox="0 0 160 25" fill="none" xmlns="http://www.w3.org/2000/svg">
<path d="M8.382 6.70341C8.84389 5.4395 9.07483 4.80755 9.27621 4.49795C10.558 2.52735 13.4433 2.52735 14.725 4.49795C14.9264 4.80755 15.1573 5.4395 15.6192 6.70341L15.6664 6.83258C15.7065 6.94213 15.7265 6.99691 15.7474 7.0458C16.0468 7.74714 16.719 8.21716 17.4805 8.25767C17.5336 8.26049 17.5919 8.26049 17.7085 8.26049H18.2066C18.5404 8.26049 18.7072 8.26049 18.7893 8.26465C21.8163 8.41781 23.0045 12.2651 20.591 14.0985C20.5256 14.1482 20.3877 14.2423 20.1121 14.4305C20.0636 14.4636 20.0393 14.4802 20.018 14.4956C19.3078 15.0084 19.014 15.9236 19.2929 16.754C19.3013 16.7789 19.3124 16.8094 19.3347 16.8704C19.5749 17.5275 19.6949 17.8561 19.7365 18.0222C20.412 20.7229 17.601 22.9675 15.1167 21.711C14.964 21.6337 14.6869 21.4548 14.1329 21.0969L13.2898 20.5522C13.0934 20.4254 12.9952 20.362 12.8988 20.3135C12.3337 20.0295 11.6675 20.0295 11.1024 20.3135C11.006 20.362 10.9078 20.4254 10.7115 20.5522L9.88532 21.0859C9.31757 21.4526 9.0337 21.636 8.87693 21.7148C6.39655 22.9613 3.59609 20.7252 4.26269 18.0304C4.30483 17.8601 4.42747 17.5245 4.67276 16.8533C4.69624 16.7891 4.70798 16.7569 4.71686 16.7303C4.99036 15.9114 4.70748 15.0094 4.01532 14.4934C3.99284 14.4766 3.96726 14.4586 3.91611 14.4227C3.62785 14.2201 3.48373 14.1188 3.41451 14.0643C1.05913 12.2104 2.25551 8.42762 5.24856 8.26526C5.33651 8.26049 5.51267 8.26049 5.865 8.26049H6.29592C6.40947 8.26049 6.46625 8.26049 6.51793 8.25782C7.28151 8.21827 7.95573 7.74683 8.25497 7.04321C8.27522 6.99559 8.29471 6.94226 8.33369 6.83561L8.382 6.70341Z" fill="#FFC700"/>
<path d="M42.382 6.70341C42.8439 5.4395 43.0748 4.80755 43.2762 4.49795C44.558 2.52735 47.4433 2.52735 48.725 4.49795C48.9264 4.80755 49.1573 5.4395 49.6192 6.70341L49.6664 6.83258C49.7065 6.94213 49.7265 6.99691 49.7474 7.0458C50.0468 7.74714 50.719 8.21716 51.4805 8.25767C51.5336 8.26049 51.5919 8.26049 51.7085 8.26049H52.2066C52.5404 8.26049 52.7072 8.26049 52.7893 8.26465C55.8163 8.41781 57.0045 12.2651 54.591 14.0985C54.5256 14.1482 54.3877 14.2423 54.1121 14.4305C54.0636 14.4636 54.0393 14.4802 54.018 14.4956C53.3078 15.0084 53.014 15.9236 53.2929 16.754C53.3013 16.7789 53.3124 16.8094 53.3347 16.8704C53.5749 17.5275 53.6949 17.8561 53.7365 18.0222C54.412 20.7229 51.601 22.9675 49.1167 21.711C48.964 21.6337 48.6869 21.4548 48.1329 21.0969L47.2898 20.5522C47.0934 20.4254 46.9952 20.362 46.8988 20.3135C46.3337 20.0295 45.6675 20.0295 45.1024 20.3135C45.006 20.362 44.9078 20.4254 44.7115 20.5522L43.8853 21.0859C43.3176 21.4526 43.0337 21.636 42.8769 21.7148C40.3966 22.9613 37.5961 20.7252 38.2627 18.0304C38.3048 17.8601 38.4275 17.5245 38.6728 16.8533C38.6962 16.7891 38.708 16.7569 38.7169 16.7303C38.9904 15.9114 38.7075 15.0094 38.0153 14.4934C37.9928 14.4766 37.9673 14.4586 37.9161 14.4227C37.6279 14.2201 37.4837 14.1188 37.4145 14.0643C35.0591 12.2104 36.2555 8.42762 39.2486 8.26526C39.3365 8.26049 39.5127 8.26049 39.865 8.26049H40.2959C40.4095 8.26049 40.4662 8.26049 40.5179 8.25782C41.2815 8.21827 41.9557 7.74683 42.255 7.04321C42.2752 6.99559 42.2947 6.94226 42.3337 6.83561L42.382 6.70341Z" fill="#FFC700"/>
<path d="M76.382 6.70341C76.8439 5.4395 77.0748 4.80755 77.2762 4.49795C78.558 2.52735 81.4433 2.52735 82.725 4.49795C82.9264 4.80755 83.1573 5.4395 83.6192 6.70341L83.6664 6.83258C83.7065 6.94213 83.7265 6.99691 83.7474 7.0458C84.0468 7.74714 84.719 8.21716 85.4805 8.25767C85.5336 8.26049 85.5919 8.26049 85.7085 8.26049H86.2066C86.5404 8.26049 86.7072 8.26049 86.7893 8.26465C89.8163 8.41781 91.0045 12.2651 88.591 14.0985C88.5256 14.1482 88.3877 14.2423 88.1121 14.4305C88.0636 14.4636 88.0393 14.4802 88.018 14.4956C87.3078 15.0084 87.014 15.9236 87.2929 16.754C87.3013 16.7789 87.3124 16.8094 87.3347 16.8704C87.5749 17.5275 87.6949 17.8561 87.7365 18.0222C88.412 20.7229 85.601 22.9675 83.1167 21.711C82.964 21.6337 82.6869 21.4548 82.1329 21.0969L81.2898 20.5522C81.0934 20.4254 80.9952 20.362 80.8988 20.3135C80.3337 20.0295 79.6675 20.0295 79.1024 20.3135C79.006 20.362 78.9078 20.4254 78.7115 20.5522L77.8853 21.0859C77.3176 21.4526 77.0337 21.636 76.8769 21.7148C74.3966 22.9613 71.5961 20.7252 72.2627 18.0304C72.3048 17.8601 72.4275 17.5245 72.6728 16.8533C72.6962 16.7891 72.708 16.7569 72.7169 16.7303C72.9904 15.9114 72.7075 15.0094 72.0153 14.4934C71.9928 14.4766 71.9673 14.4586 71.9161 14.4227C71.6279 14.2201 71.4837 14.1188 71.4145 14.0643C69.0591 12.2104 70.2555 8.42762 73.2486 8.26526C73.3365 8.26049 73.5127 8.26049 73.865 8.26049H74.2959C74.4095 8.26049 74.4662 8.26049 74.5179 8.25782C75.2815 8.21827 75.9557 7.74683 76.255 7.04321C76.2752 6.99559 76.2947 6.94226 76.3337 6.83561L76.382 6.70341Z" fill="#FFC700"/>
<path d="M110.382 6.70341C110.844 5.4395 111.075 4.80755 111.276 4.49795C112.558 2.52735 115.443 2.52735 116.725 4.49795C116.926 4.80755 117.157 5.4395 117.619 6.70341L117.666 6.83258C117.706 6.94213 117.726 6.99691 117.747 7.0458C118.047 7.74714 118.719 8.21716 119.48 8.25767C119.534 8.26049 119.592 8.26049 119.709 8.26049H120.207C120.54 8.26049 120.707 8.26049 120.789 8.26465C123.816 8.41781 125.005 12.2651 122.591 14.0985C122.526 14.1482 122.388 14.2423 122.112 14.4305C122.064 14.4636 122.039 14.4802 122.018 14.4956C121.308 15.0084 121.014 15.9236 121.293 16.754C121.301 16.7789 121.312 16.8094 121.335 16.8704C121.575 17.5275 121.695 17.8561 121.736 18.0222C122.412 20.7229 119.601 22.9675 117.117 21.711C116.964 21.6337 116.687 21.4548 116.133 21.0969L115.29 20.5522C115.093 20.4254 114.995 20.362 114.899 20.3135C114.334 20.0295 113.668 20.0295 113.102 20.3135C113.006 20.362 112.908 20.4254 112.711 20.5522L111.885 21.0859C111.318 21.4526 111.034 21.636 110.877 21.7148C108.397 22.9613 105.596 20.7252 106.263 18.0304C106.305 17.8601 106.427 17.5245 106.673 16.8533C106.696 16.7891 106.708 16.7569 106.717 16.7303C106.99 15.9114 106.707 15.0094 106.015 14.4934C105.993 14.4766 105.967 14.4586 105.916 14.4227C105.628 14.2201 105.484 14.1188 105.415 14.0643C103.059 12.2104 104.256 8.42762 107.249 8.26526C107.337 8.26049 107.513 8.26049 107.865 8.26049H108.296C108.409 8.26049 108.466 8.26049 108.518 8.25782C109.282 8.21827 109.956 7.74683 110.255 7.04321C110.275 6.99559 110.295 6.94226 110.334 6.83561L110.382 6.70341Z" fill="#FFC700"/>
<path d="M144.382 6.70341C144.844 5.4395 145.075 4.80755 145.276 4.49795C146.558 2.52735 149.443 2.52735 150.725 4.49795C150.926 4.80755 151.157 5.4395 151.619 6.70341L151.666 6.83258C151.706 6.94213 151.726 6.99691 151.747 7.0458C152.047 7.74713 152.719 8.21716 153.48 8.25767C153.534 8.26049 153.592 8.26049 153.709 8.26049H154.207C154.54 8.26049 154.707 8.26049 154.789 8.26465C157.816 8.41781 159.005 12.2651 156.591 14.0985C156.526 14.1482 156.388 14.2423 156.112 14.4305V14.4305C156.064 14.4636 156.039 14.4802 156.018 14.4956C155.308 15.0084 155.014 15.9236 155.293 16.754C155.301 16.7789 155.312 16.8094 155.335 16.8704V16.8704C155.575 17.5275 155.695 17.8561 155.736 18.0222C156.412 20.7229 153.601 22.9675 151.117 21.711C150.964 21.6337 150.687 21.4548 150.133 21.0969L149.29 20.5522C149.093 20.4254 148.995 20.362 148.899 20.3135C148.334 20.0295 147.668 20.0295 147.102 20.3135C147.006 20.362 146.908 20.4254 146.711 20.5522L145.885 21.0859C145.318 21.4526 145.034 21.636 144.877 21.7148C142.397 22.9613 139.596 20.7252 140.263 18.0304C140.305 17.8601 140.427 17.5245 140.673 16.8533V16.8533C140.696 16.7891 140.708 16.7569 140.717 16.7303C140.99 15.9114 140.707 15.0094 140.015 14.4934C139.993 14.4766 139.967 14.4586 139.916 14.4227V14.4227C139.628 14.2201 139.484 14.1188 139.415 14.0643C137.059 12.2104 138.256 8.42762 141.249 8.26526C141.337 8.26049 141.513 8.26049 141.865 8.26049H142.296C142.409 8.26049 142.466 8.26049 142.518 8.25782C143.282 8.21827 143.956 7.74683 144.255 7.04321C144.275 6.99559 144.295 6.94226 144.334 6.83561L144.382 6.70341Z" fill="#FFC700"/>
</svg>
