<svg width="160" height="24" viewBox="0 0 160 24" fill="none" xmlns="http://www.w3.org/2000/svg">
<path d="M8.382 6.00345C8.84389 4.73955 9.07483 4.1076 9.27621 3.798C10.558 1.82739 13.4433 1.82739 14.725 3.798C14.9264 4.1076 15.1573 4.73955 15.6192 6.00346L15.6664 6.13263C15.7065 6.24218 15.7265 6.29696 15.7474 6.34585C16.0468 7.04718 16.719 7.51721 17.4805 7.55772C17.5336 7.56054 17.5919 7.56054 17.7085 7.56054H18.2066C18.5404 7.56054 18.7072 7.56054 18.7893 7.56469C21.8163 7.71786 23.0045 11.5651 20.591 13.3985C20.5256 13.4482 20.3877 13.5423 20.1121 13.7305C20.0636 13.7637 20.0393 13.7803 20.018 13.7956C19.3078 14.3084 19.014 15.2237 19.2929 16.054C19.3013 16.0789 19.3124 16.1094 19.3347 16.1704C19.5749 16.8276 19.6949 17.1562 19.7365 17.3223C20.412 20.023 17.601 22.2676 15.1167 21.011C14.964 20.9338 14.6869 20.7548 14.1329 20.3969L13.2898 19.8523C13.0934 19.7254 12.9952 19.662 12.8988 19.6136C12.3337 19.3295 11.6675 19.3295 11.1024 19.6136C11.006 19.662 10.9078 19.7254 10.7115 19.8523L9.88532 20.3859C9.31757 20.7527 9.0337 20.9361 8.87693 21.0148C6.39655 22.2613 3.59609 20.0252 4.26269 17.3305C4.30483 17.1602 4.42747 16.8246 4.67276 16.1533C4.69624 16.0891 4.70798 16.057 4.71686 16.0304C4.99036 15.2115 4.70748 14.3095 4.01532 13.7934C3.99284 13.7767 3.96726 13.7587 3.91611 13.7227C3.62785 13.5202 3.48373 13.4189 3.41451 13.3644C1.05913 11.5105 2.25551 7.72767 5.24856 7.56531C5.33651 7.56054 5.51267 7.56054 5.865 7.56054H6.29592C6.40947 7.56054 6.46625 7.56054 6.51793 7.55787C7.28151 7.51832 7.95573 7.04688 8.25497 6.34326C8.27522 6.29564 8.29471 6.24231 8.33369 6.13566L8.382 6.00345Z" fill="#EBFF74"/>
<path d="M42.382 6.00345C42.8439 4.73955 43.0748 4.1076 43.2762 3.798C44.558 1.82739 47.4433 1.82739 48.725 3.798C48.9264 4.1076 49.1573 4.73955 49.6192 6.00346L49.6664 6.13263C49.7065 6.24218 49.7265 6.29696 49.7474 6.34585C50.0468 7.04718 50.719 7.51721 51.4805 7.55772C51.5336 7.56054 51.5919 7.56054 51.7085 7.56054H52.2066C52.5404 7.56054 52.7072 7.56054 52.7893 7.56469C55.8163 7.71786 57.0045 11.5651 54.591 13.3985C54.5256 13.4482 54.3877 13.5423 54.1121 13.7305C54.0636 13.7637 54.0393 13.7803 54.018 13.7956C53.3078 14.3084 53.014 15.2237 53.2929 16.054C53.3013 16.0789 53.3124 16.1094 53.3347 16.1704C53.5749 16.8276 53.6949 17.1562 53.7365 17.3223C54.412 20.023 51.601 22.2676 49.1167 21.011C48.964 20.9338 48.6869 20.7548 48.1329 20.3969L47.2898 19.8523C47.0934 19.7254 46.9952 19.662 46.8988 19.6136C46.3337 19.3295 45.6675 19.3295 45.1024 19.6136C45.006 19.662 44.9078 19.7254 44.7115 19.8523L43.8853 20.3859C43.3176 20.7527 43.0337 20.9361 42.8769 21.0148C40.3966 22.2613 37.5961 20.0252 38.2627 17.3305C38.3048 17.1602 38.4275 16.8246 38.6728 16.1533C38.6962 16.0891 38.708 16.057 38.7169 16.0304C38.9904 15.2115 38.7075 14.3095 38.0153 13.7934C37.9928 13.7767 37.9673 13.7587 37.9161 13.7227C37.6279 13.5202 37.4837 13.4189 37.4145 13.3644C35.0591 11.5105 36.2555 7.72767 39.2486 7.56531C39.3365 7.56054 39.5127 7.56054 39.865 7.56054H40.2959C40.4095 7.56054 40.4662 7.56054 40.5179 7.55787C41.2815 7.51832 41.9557 7.04688 42.255 6.34326C42.2752 6.29564 42.2947 6.24231 42.3337 6.13566L42.382 6.00345Z" fill="#EBFF74"/>
<path d="M76.382 6.00345C76.8439 4.73955 77.0748 4.1076 77.2762 3.798C78.558 1.82739 81.4433 1.82739 82.725 3.798C82.9264 4.1076 83.1573 4.73955 83.6192 6.00346L83.6664 6.13263C83.7065 6.24218 83.7265 6.29696 83.7474 6.34585C84.0468 7.04718 84.719 7.51721 85.4805 7.55772C85.5336 7.56054 85.5919 7.56054 85.7085 7.56054H86.2066C86.5404 7.56054 86.7072 7.56054 86.7893 7.56469C89.8163 7.71786 91.0045 11.5651 88.591 13.3985C88.5256 13.4482 88.3877 13.5423 88.1121 13.7305C88.0636 13.7637 88.0393 13.7803 88.018 13.7956C87.3078 14.3084 87.014 15.2237 87.2929 16.054C87.3013 16.0789 87.3124 16.1094 87.3347 16.1704C87.5749 16.8276 87.6949 17.1562 87.7365 17.3223C88.412 20.023 85.601 22.2676 83.1167 21.011C82.964 20.9338 82.6869 20.7548 82.1329 20.3969L81.2898 19.8523C81.0934 19.7254 80.9952 19.662 80.8988 19.6136C80.3337 19.3295 79.6675 19.3295 79.1024 19.6136C79.006 19.662 78.9078 19.7254 78.7115 19.8523L77.8853 20.3859C77.3176 20.7527 77.0337 20.9361 76.8769 21.0148C74.3966 22.2613 71.5961 20.0252 72.2627 17.3305C72.3048 17.1602 72.4275 16.8246 72.6728 16.1533C72.6962 16.0891 72.708 16.057 72.7169 16.0304C72.9904 15.2115 72.7075 14.3095 72.0153 13.7934C71.9928 13.7767 71.9673 13.7587 71.9161 13.7227C71.6279 13.5202 71.4837 13.4189 71.4145 13.3644C69.0591 11.5105 70.2555 7.72767 73.2486 7.56531C73.3365 7.56054 73.5127 7.56054 73.865 7.56054H74.2959C74.4095 7.56054 74.4662 7.56054 74.5179 7.55787C75.2815 7.51832 75.9557 7.04688 76.255 6.34326C76.2752 6.29564 76.2947 6.24231 76.3337 6.13566L76.382 6.00345Z" fill="#EBFF74"/>
<path d="M110.382 6.00345C110.844 4.73955 111.075 4.1076 111.276 3.798C112.558 1.82739 115.443 1.82739 116.725 3.798C116.926 4.1076 117.157 4.73955 117.619 6.00346L117.666 6.13263C117.706 6.24218 117.726 6.29696 117.747 6.34585C118.047 7.04718 118.719 7.51721 119.48 7.55772C119.534 7.56054 119.592 7.56054 119.709 7.56054H120.207C120.54 7.56054 120.707 7.56054 120.789 7.56469C123.816 7.71786 125.005 11.5651 122.591 13.3985C122.526 13.4482 122.388 13.5423 122.112 13.7305C122.064 13.7637 122.039 13.7803 122.018 13.7956C121.308 14.3084 121.014 15.2237 121.293 16.054C121.301 16.0789 121.312 16.1094 121.335 16.1704C121.575 16.8276 121.695 17.1562 121.736 17.3223C122.412 20.023 119.601 22.2676 117.117 21.011C116.964 20.9338 116.687 20.7548 116.133 20.3969L115.29 19.8523C115.093 19.7254 114.995 19.662 114.899 19.6136C114.334 19.3295 113.668 19.3295 113.102 19.6136C113.006 19.662 112.908 19.7254 112.711 19.8523L111.885 20.3859C111.318 20.7527 111.034 20.9361 110.877 21.0148C108.397 22.2613 105.596 20.0252 106.263 17.3305C106.305 17.1602 106.427 16.8246 106.673 16.1533C106.696 16.0891 106.708 16.057 106.717 16.0304C106.99 15.2115 106.707 14.3095 106.015 13.7934C105.993 13.7767 105.967 13.7587 105.916 13.7227C105.628 13.5202 105.484 13.4189 105.415 13.3644C103.059 11.5105 104.256 7.72767 107.249 7.56531C107.337 7.56054 107.513 7.56054 107.865 7.56054H108.296C108.409 7.56054 108.466 7.56054 108.518 7.55787C109.282 7.51832 109.956 7.04688 110.255 6.34326C110.275 6.29564 110.295 6.24231 110.334 6.13566L110.382 6.00345Z" fill="#EBFF74"/>
<path d="M144.382 6.00345C144.844 4.73955 145.075 4.1076 145.276 3.798C146.558 1.82739 149.443 1.82739 150.725 3.798C150.926 4.1076 151.157 4.73955 151.619 6.00346L151.666 6.13263C151.706 6.24218 151.726 6.29696 151.747 6.34585C152.047 7.04718 152.719 7.51721 153.48 7.55772C153.534 7.56054 153.592 7.56054 153.709 7.56054H154.207C154.54 7.56054 154.707 7.56054 154.789 7.56469C157.816 7.71786 159.005 11.5651 156.591 13.3985C156.526 13.4482 156.388 13.5423 156.112 13.7305V13.7305C156.064 13.7637 156.039 13.7803 156.018 13.7956C155.308 14.3084 155.014 15.2237 155.293 16.054C155.301 16.0789 155.312 16.1094 155.335 16.1704V16.1704C155.575 16.8276 155.695 17.1562 155.736 17.3223C156.412 20.023 153.601 22.2676 151.117 21.011C150.964 20.9338 150.687 20.7548 150.133 20.3969L149.29 19.8523C149.093 19.7254 148.995 19.662 148.899 19.6136C148.334 19.3295 147.668 19.3295 147.102 19.6136C147.006 19.662 146.908 19.7254 146.711 19.8523L145.885 20.3859C145.318 20.7527 145.034 20.9361 144.877 21.0148C142.397 22.2613 139.596 20.0252 140.263 17.3305C140.305 17.1602 140.427 16.8246 140.673 16.1533V16.1533C140.696 16.0891 140.708 16.057 140.717 16.0304C140.99 15.2115 140.707 14.3095 140.015 13.7934C139.993 13.7767 139.967 13.7587 139.916 13.7227V13.7227C139.628 13.5202 139.484 13.4189 139.415 13.3644C137.059 11.5105 138.256 7.72767 141.249 7.56531C141.337 7.56054 141.513 7.56054 141.865 7.56054H142.296C142.409 7.56054 142.466 7.56054 142.518 7.55787C143.282 7.51832 143.956 7.04688 144.255 6.34326C144.275 6.29564 144.295 6.24231 144.334 6.13566L144.382 6.00345Z" fill="#EBFF74"/>
</svg>
