<svg width="250" height="300" viewBox="0 0 250 300" fill="none" xmlns="http://www.w3.org/2000/svg">
<rect width="250" height="300" rx="20" fill="#FFF8F0"/>
<path d="M143.039 125.169C134.226 122.888 125.045 122.4 116.04 123.733C107.036 125.067 98.39 128.194 90.6164 132.931C82.8428 137.668 76.0993 143.917 70.7859 151.309C65.4724 158.7 61.6972 167.083 59.6839 175.961C57.6706 184.839 57.4603 194.03 59.0655 202.991C60.6707 211.951 64.0586 220.498 69.0284 228.125C73.9983 235.751 80.4488 242.303 87.9977 247.39C95.5466 252.477 104.04 255.997 112.975 257.741L116.007 242.204C109.152 240.866 102.636 238.166 96.8443 234.263C91.0527 230.36 86.1038 225.334 82.2908 219.482C78.4779 213.631 75.8787 207.074 74.6472 200.199C73.4157 193.325 73.577 186.273 75.1216 179.462C76.6662 172.651 79.5627 166.219 83.6392 160.548C87.7157 154.878 92.8893 150.083 98.8533 146.449C104.817 142.815 111.45 140.415 118.359 139.392C125.268 138.369 132.311 138.744 139.073 140.494L143.039 125.169Z" fill="#00313E" fill-opacity="0.2"/>
<path d="M77.9167 239.083C85.8241 246.991 95.5595 252.826 106.261 256.072C116.962 259.318 128.298 259.875 139.266 257.693C150.234 255.512 160.494 250.659 169.139 243.565C177.783 236.471 184.544 227.354 188.824 217.022C193.103 206.691 194.769 195.464 193.673 184.335C192.576 173.206 188.753 162.519 182.54 153.221C176.327 143.923 167.917 136.301 158.055 131.029C148.193 125.758 137.183 123 126 123V138.83C134.579 138.83 143.027 140.946 150.593 144.99C158.159 149.034 164.612 154.882 169.378 162.016C174.144 169.149 177.078 177.348 177.919 185.886C178.76 194.425 177.482 203.038 174.199 210.965C170.916 218.891 165.728 225.885 159.096 231.328C152.464 236.771 144.593 240.494 136.178 242.168C127.763 243.842 119.066 243.414 110.856 240.924C102.646 238.433 95.1766 233.957 89.11 227.89L77.9167 239.083Z" fill="#00313E"/>
<path d="M104.14 167.38H114.64V169.74L109.34 182H106.68L112.08 169.74H104.14V167.38ZM120.408 182.24C117.348 182.24 115.328 180.28 115.328 177.32H117.868C117.868 178.98 118.848 179.96 120.468 179.96C122.188 179.96 123.288 178.84 123.288 177.06C123.288 175.36 122.268 174.2 120.508 174.2C119.388 174.2 118.368 174.76 117.848 175.52L115.588 175.04L117.388 167.38H125.008V169.74H119.228L118.448 172.78C119.148 172.32 120.028 172.06 121.028 172.06C123.948 172.06 125.888 174.04 125.888 176.92C125.888 180.08 123.668 182.24 120.408 182.24ZM134.82 170.94C134.82 173.2 133.22 174.78 131 174.78C128.78 174.78 127.18 173.2 127.18 170.94C127.18 168.7 128.78 167.1 131 167.1C133.22 167.1 134.82 168.7 134.82 170.94ZM142.84 167.4L131.74 182H129.3L140.4 167.4H142.84ZM132.88 170.94C132.88 169.78 132.12 168.98 131 168.98C129.88 168.98 129.14 169.78 129.14 170.94C129.14 172.1 129.9 172.9 131 172.9C132.12 172.9 132.88 172.1 132.88 170.94ZM144.98 178.42C144.98 180.66 143.4 182.26 141.18 182.26C138.94 182.26 137.36 180.66 137.36 178.42C137.36 176.18 138.94 174.58 141.18 174.58C143.4 174.58 144.98 176.18 144.98 178.42ZM143.04 178.42C143.04 177.26 142.28 176.46 141.18 176.46C140.06 176.46 139.3 177.26 139.3 178.42C139.3 179.58 140.06 180.38 141.18 180.38C142.28 180.38 143.04 179.58 143.04 178.42Z" fill="#00313E"/>
<path d="M109.795 192.364V204H108.386V193.841H108.318L105.477 195.727V194.295L108.386 192.364H109.795ZM116.938 204.159C116.081 204.159 115.352 203.926 114.75 203.46C114.148 202.991 113.688 202.311 113.369 201.42C113.051 200.527 112.892 199.447 112.892 198.182C112.892 196.924 113.051 195.85 113.369 194.96C113.691 194.066 114.153 193.384 114.756 192.915C115.362 192.441 116.089 192.205 116.938 192.205C117.786 192.205 118.511 192.441 119.114 192.915C119.72 193.384 120.182 194.066 120.5 194.96C120.822 195.85 120.983 196.924 120.983 198.182C120.983 199.447 120.824 200.527 120.506 201.42C120.188 202.311 119.727 202.991 119.125 203.46C118.523 203.926 117.794 204.159 116.938 204.159ZM116.938 202.909C117.786 202.909 118.445 202.5 118.915 201.682C119.384 200.864 119.619 199.697 119.619 198.182C119.619 197.174 119.511 196.316 119.295 195.608C119.083 194.9 118.777 194.36 118.375 193.989C117.977 193.617 117.498 193.432 116.938 193.432C116.097 193.432 115.439 193.847 114.966 194.676C114.492 195.502 114.256 196.67 114.256 198.182C114.256 199.189 114.362 200.045 114.574 200.75C114.786 201.455 115.091 201.991 115.489 202.358C115.89 202.725 116.373 202.909 116.938 202.909ZM126.938 204.159C126.081 204.159 125.352 203.926 124.75 203.46C124.148 202.991 123.688 202.311 123.369 201.42C123.051 200.527 122.892 199.447 122.892 198.182C122.892 196.924 123.051 195.85 123.369 194.96C123.691 194.066 124.153 193.384 124.756 192.915C125.362 192.441 126.089 192.205 126.938 192.205C127.786 192.205 128.511 192.441 129.114 192.915C129.72 193.384 130.182 194.066 130.5 194.96C130.822 195.85 130.983 196.924 130.983 198.182C130.983 199.447 130.824 200.527 130.506 201.42C130.188 202.311 129.727 202.991 129.125 203.46C128.523 203.926 127.794 204.159 126.938 204.159ZM126.938 202.909C127.786 202.909 128.445 202.5 128.915 201.682C129.384 200.864 129.619 199.697 129.619 198.182C129.619 197.174 129.511 196.316 129.295 195.608C129.083 194.9 128.777 194.36 128.375 193.989C127.977 193.617 127.498 193.432 126.938 193.432C126.097 193.432 125.439 193.847 124.966 194.676C124.492 195.502 124.256 196.67 124.256 198.182C124.256 199.189 124.362 200.045 124.574 200.75C124.786 201.455 125.091 201.991 125.489 202.358C125.89 202.725 126.373 202.909 126.938 202.909ZM139.074 201.818V201.205C139.074 200.78 139.161 200.392 139.335 200.04C139.513 199.684 139.771 199.4 140.108 199.188C140.449 198.972 140.862 198.864 141.347 198.864C141.839 198.864 142.252 198.972 142.585 199.188C142.919 199.4 143.17 199.684 143.341 200.04C143.511 200.392 143.597 200.78 143.597 201.205V201.818C143.597 202.242 143.509 202.633 143.335 202.989C143.165 203.341 142.911 203.625 142.574 203.841C142.241 204.053 141.831 204.159 141.347 204.159C140.854 204.159 140.439 204.053 140.102 203.841C139.765 203.625 139.509 203.341 139.335 202.989C139.161 202.633 139.074 202.242 139.074 201.818ZM140.233 201.205V201.818C140.233 202.17 140.316 202.487 140.483 202.767C140.65 203.044 140.938 203.182 141.347 203.182C141.744 203.182 142.025 203.044 142.188 202.767C142.354 202.487 142.438 202.17 142.438 201.818V201.205C142.438 200.852 142.358 200.538 142.199 200.261C142.04 199.981 141.756 199.841 141.347 199.841C140.949 199.841 140.663 199.981 140.489 200.261C140.318 200.538 140.233 200.852 140.233 201.205ZM133.278 195.159V194.545C133.278 194.121 133.366 193.733 133.54 193.381C133.718 193.025 133.975 192.741 134.312 192.528C134.653 192.312 135.066 192.205 135.551 192.205C136.044 192.205 136.456 192.312 136.79 192.528C137.123 192.741 137.375 193.025 137.545 193.381C137.716 193.733 137.801 194.121 137.801 194.545V195.159C137.801 195.583 137.714 195.973 137.54 196.33C137.369 196.682 137.116 196.966 136.778 197.182C136.445 197.394 136.036 197.5 135.551 197.5C135.059 197.5 134.644 197.394 134.307 197.182C133.97 196.966 133.714 196.682 133.54 196.33C133.366 195.973 133.278 195.583 133.278 195.159ZM134.438 194.545V195.159C134.438 195.511 134.521 195.828 134.688 196.108C134.854 196.384 135.142 196.523 135.551 196.523C135.949 196.523 136.229 196.384 136.392 196.108C136.559 195.828 136.642 195.511 136.642 195.159V194.545C136.642 194.193 136.562 193.879 136.403 193.602C136.244 193.322 135.96 193.182 135.551 193.182C135.153 193.182 134.867 193.322 134.693 193.602C134.523 193.879 134.438 194.193 134.438 194.545ZM133.71 204L141.71 192.364H143.006L135.006 204H133.71Z" fill="#00313E"/>
<path d="M36.2259 34.9091V48H34.2443V36.8906H34.1676L31.0355 38.9361V37.044L34.3018 34.9091H36.2259ZM44.5563 48V38.1818H46.3908V39.7798H46.5123C46.7168 39.2386 47.0513 38.8168 47.5158 38.5142C47.9803 38.2074 48.5364 38.054 49.1841 38.054C49.8404 38.054 50.3901 38.2074 50.8333 38.5142C51.2807 38.821 51.611 39.2429 51.824 39.7798H51.9263C52.1607 39.2557 52.5336 38.8381 53.0449 38.527C53.5563 38.2116 54.1657 38.054 54.873 38.054C55.7637 38.054 56.4902 38.3331 57.0527 38.8913C57.6195 39.4496 57.9029 40.2912 57.9029 41.4162V48H55.9917V41.5952C55.9917 40.9304 55.8105 40.4489 55.4483 40.1506C55.0861 39.8523 54.6536 39.7031 54.1507 39.7031C53.5286 39.7031 53.0449 39.8949 52.6998 40.2784C52.3546 40.6577 52.182 41.1456 52.182 41.7422V48H50.2772V41.4737C50.2772 40.9411 50.111 40.5128 49.7786 40.1889C49.4462 39.8651 49.0137 39.7031 48.481 39.7031C48.1188 39.7031 47.7843 39.799 47.4775 39.9908C47.1749 40.1783 46.9299 40.4403 46.7424 40.777C46.5591 41.1136 46.4675 41.5036 46.4675 41.9467V48H44.5563ZM64.6001 48.1982C63.6797 48.1982 62.8764 47.9872 62.1903 47.5653C61.5043 47.1435 60.9716 46.5533 60.5923 45.7947C60.2131 45.0362 60.0234 44.1499 60.0234 43.1357C60.0234 42.1172 60.2131 41.2266 60.5923 40.4638C60.9716 39.701 61.5043 39.1087 62.1903 38.6868C62.8764 38.2649 63.6797 38.054 64.6001 38.054C65.5206 38.054 66.3239 38.2649 67.0099 38.6868C67.696 39.1087 68.2287 39.701 68.608 40.4638C68.9872 41.2266 69.1768 42.1172 69.1768 43.1357C69.1768 44.1499 68.9872 45.0362 68.608 45.7947C68.2287 46.5533 67.696 47.1435 67.0099 47.5653C66.3239 47.9872 65.5206 48.1982 64.6001 48.1982ZM64.6065 46.5938C65.2031 46.5938 65.6974 46.4361 66.0895 46.1207C66.4815 45.8054 66.7713 45.3857 66.9588 44.8615C67.1506 44.3374 67.2464 43.7599 67.2464 43.1293C67.2464 42.5028 67.1506 41.9276 66.9588 41.4034C66.7713 40.875 66.4815 40.451 66.0895 40.1314C65.6974 39.8118 65.2031 39.652 64.6065 39.652C64.0057 39.652 63.5071 39.8118 63.1108 40.1314C62.7188 40.451 62.4268 40.875 62.2351 41.4034C62.0476 41.9276 61.9538 42.5028 61.9538 43.1293C61.9538 43.7599 62.0476 44.3374 62.2351 44.8615C62.4268 45.3857 62.7188 45.8054 63.1108 46.1207C63.5071 46.4361 64.0057 46.5938 64.6065 46.5938ZM73.2214 42.1705V48H71.3102V38.1818H73.1447V39.7798H73.2662C73.492 39.2599 73.8457 38.8423 74.3272 38.527C74.813 38.2116 75.4245 38.054 76.1618 38.054C76.8308 38.054 77.4167 38.1946 77.9196 38.4759C78.4224 38.7528 78.8123 39.1662 79.0893 39.7159C79.3663 40.2656 79.5048 40.9453 79.5048 41.755V48H77.5936V41.9851C77.5936 41.2734 77.4082 40.7173 77.0375 40.3168C76.6667 39.9119 76.1575 39.7095 75.5098 39.7095C75.0666 39.7095 74.6724 39.8054 74.3272 39.9972C73.9863 40.1889 73.7157 40.4702 73.5154 40.8409C73.3194 41.2074 73.2214 41.6506 73.2214 42.1705ZM86.6511 38.1818V39.7159H81.2882V38.1818H86.6511ZM82.7264 35.8295H84.6376V45.1172C84.6376 45.4879 84.693 45.767 84.8038 45.9545C84.9146 46.1378 85.0574 46.2635 85.2321 46.3317C85.411 46.3956 85.6049 46.4276 85.8137 46.4276C85.9672 46.4276 86.1014 46.4169 86.2164 46.3956C86.3315 46.3743 86.421 46.3572 86.4849 46.3445L86.8301 47.9233C86.7193 47.9659 86.5616 48.0085 86.3571 48.0511C86.1525 48.098 85.8968 48.1236 85.59 48.1278C85.0872 48.1364 84.6184 48.0469 84.1838 47.8594C83.7491 47.6719 83.3975 47.3821 83.1291 46.9901C82.8606 46.598 82.7264 46.1058 82.7264 45.5135V35.8295ZM90.8874 42.1705V48H88.9762V34.9091H90.8619V39.7798H90.9833C91.2134 39.2514 91.565 38.8317 92.038 38.5206C92.511 38.2095 93.1289 38.054 93.8917 38.054C94.565 38.054 95.1531 38.1925 95.6559 38.4695C96.163 38.7464 96.555 39.1598 96.832 39.7095C97.1133 40.255 97.2539 40.9368 97.2539 41.755V48H95.3427V41.9851C95.3427 41.2649 95.1573 40.7067 94.7866 40.3104C94.4158 39.9098 93.9002 39.7095 93.2397 39.7095C92.788 39.7095 92.3832 39.8054 92.0252 39.9972C91.6715 40.1889 91.3924 40.4702 91.1879 40.8409C90.9876 41.2074 90.8874 41.6506 90.8874 42.1705ZM111.925 40.5788L110.193 40.8857C110.121 40.6641 110.006 40.4531 109.848 40.2528C109.694 40.0526 109.486 39.8885 109.221 39.7607C108.957 39.6328 108.627 39.5689 108.231 39.5689C107.689 39.5689 107.238 39.6903 106.876 39.9332C106.513 40.1719 106.332 40.4808 106.332 40.8601C106.332 41.1882 106.454 41.4524 106.697 41.6527C106.939 41.853 107.331 42.017 107.873 42.1449L109.432 42.5028C110.336 42.7116 111.009 43.0334 111.452 43.468C111.895 43.9027 112.117 44.4673 112.117 45.1619C112.117 45.75 111.947 46.2741 111.606 46.7344C111.269 47.1903 110.798 47.5483 110.193 47.8082C109.592 48.0682 108.895 48.1982 108.103 48.1982C107.003 48.1982 106.106 47.9638 105.412 47.495C104.717 47.022 104.291 46.3509 104.133 45.4815L105.981 45.2003C106.096 45.6818 106.332 46.0462 106.69 46.2933C107.048 46.5362 107.515 46.6577 108.09 46.6577C108.716 46.6577 109.217 46.5277 109.592 46.2678C109.967 46.0036 110.155 45.6818 110.155 45.3026C110.155 44.9957 110.04 44.7379 109.809 44.5291C109.584 44.3203 109.236 44.1626 108.768 44.0561L107.106 43.6918C106.189 43.483 105.512 43.1506 105.073 42.6946C104.638 42.2386 104.421 41.6612 104.421 40.9624C104.421 40.3828 104.583 39.8757 104.907 39.4411C105.231 39.0064 105.678 38.6676 106.249 38.4247C106.82 38.1776 107.474 38.054 108.211 38.054C109.273 38.054 110.108 38.2841 110.717 38.7443C111.327 39.2003 111.729 39.8118 111.925 40.5788ZM117.076 48.2173C116.453 48.2173 115.891 48.1023 115.388 47.8722C114.885 47.6378 114.487 47.299 114.193 46.8558C113.903 46.4126 113.758 45.8693 113.758 45.2259C113.758 44.6719 113.865 44.2159 114.078 43.858C114.291 43.5 114.578 43.2166 114.941 43.0078C115.303 42.799 115.708 42.6413 116.155 42.5348C116.603 42.4283 117.059 42.3473 117.523 42.2919C118.111 42.2237 118.588 42.1683 118.955 42.1257C119.321 42.0788 119.588 42.0043 119.754 41.902C119.92 41.7997 120.003 41.6335 120.003 41.4034V41.3587C120.003 40.8004 119.846 40.3679 119.53 40.0611C119.219 39.7543 118.755 39.6009 118.137 39.6009C117.493 39.6009 116.986 39.7436 116.615 40.0291C116.249 40.3104 115.995 40.6236 115.855 40.9688L114.059 40.5597C114.272 39.9631 114.583 39.4815 114.992 39.1151C115.405 38.7443 115.88 38.4759 116.417 38.3097C116.954 38.1392 117.519 38.054 118.111 38.054C118.503 38.054 118.919 38.1009 119.358 38.1946C119.801 38.2841 120.214 38.4503 120.598 38.6932C120.985 38.9361 121.303 39.2834 121.55 39.7351C121.797 40.1825 121.921 40.7642 121.921 41.4801V48H120.054V46.6577H119.978C119.854 46.9048 119.669 47.1477 119.422 47.3864C119.174 47.625 118.857 47.8232 118.469 47.9808C118.081 48.1385 117.617 48.2173 117.076 48.2173ZM117.491 46.6832C118.02 46.6832 118.471 46.5788 118.846 46.37C119.225 46.1612 119.513 45.8885 119.709 45.5518C119.909 45.2109 120.01 44.8466 120.01 44.4588V43.1932C119.941 43.2614 119.809 43.3253 119.613 43.3849C119.422 43.4403 119.202 43.4893 118.955 43.532C118.708 43.5703 118.467 43.6065 118.233 43.6406C117.998 43.6705 117.802 43.696 117.645 43.7173C117.274 43.7642 116.935 43.843 116.628 43.9538C116.326 44.0646 116.083 44.2244 115.9 44.4332C115.721 44.6378 115.631 44.9105 115.631 45.2514C115.631 45.7244 115.806 46.0824 116.155 46.3253C116.505 46.5639 116.95 46.6832 117.491 46.6832ZM132.514 38.1818L128.954 48H126.908L123.341 38.1818H125.393L127.88 45.7372H127.982L130.462 38.1818H132.514ZM134.31 48V38.1818H136.221V48H134.31ZM135.275 36.6669C134.943 36.6669 134.657 36.5561 134.419 36.3345C134.184 36.1087 134.067 35.8402 134.067 35.5291C134.067 35.2138 134.184 34.9453 134.419 34.7237C134.657 34.4979 134.943 34.3849 135.275 34.3849C135.608 34.3849 135.891 34.4979 136.126 34.7237C136.364 34.9453 136.483 35.2138 136.483 35.5291C136.483 35.8402 136.364 36.1087 136.126 36.3345C135.891 36.5561 135.608 36.6669 135.275 36.6669ZM140.704 42.1705V48H138.793V38.1818H140.627V39.7798H140.749C140.974 39.2599 141.328 38.8423 141.81 38.527C142.295 38.2116 142.907 38.054 143.644 38.054C144.313 38.054 144.899 38.1946 145.402 38.4759C145.905 38.7528 146.295 39.1662 146.572 39.7159C146.849 40.2656 146.987 40.9453 146.987 41.755V48H145.076V41.9851C145.076 41.2734 144.891 40.7173 144.52 40.3168C144.149 39.9119 143.64 39.7095 142.992 39.7095C142.549 39.7095 142.155 39.8054 141.81 39.9972C141.469 40.1889 141.198 40.4702 140.998 40.8409C140.802 41.2074 140.704 41.6506 140.704 42.1705ZM153.667 51.8864C152.887 51.8864 152.216 51.7841 151.653 51.5795C151.095 51.375 150.639 51.1044 150.286 50.7678C149.932 50.4311 149.668 50.0625 149.493 49.6619L151.136 48.9844C151.251 49.1719 151.404 49.37 151.596 49.5788C151.792 49.7919 152.056 49.973 152.388 50.1222C152.725 50.2713 153.158 50.3459 153.686 50.3459C154.411 50.3459 155.009 50.169 155.482 49.8153C155.955 49.4659 156.192 48.9077 156.192 48.1406V46.2102H156.07C155.955 46.419 155.789 46.6513 155.572 46.907C155.359 47.1626 155.065 47.3842 154.69 47.5717C154.315 47.7592 153.827 47.853 153.226 47.853C152.45 47.853 151.751 47.6719 151.129 47.3097C150.511 46.9432 150.021 46.4041 149.659 45.6925C149.301 44.9766 149.122 44.0966 149.122 43.0526C149.122 42.0085 149.299 41.1136 149.653 40.3679C150.011 39.6222 150.501 39.0511 151.123 38.6548C151.745 38.2543 152.45 38.054 153.239 38.054C153.848 38.054 154.34 38.1562 154.715 38.3608C155.09 38.5611 155.382 38.7955 155.591 39.0639C155.804 39.3324 155.968 39.5689 156.083 39.7734H156.224V38.1818H158.097V48.2173C158.097 49.0611 157.901 49.7536 157.509 50.2947C157.116 50.8359 156.586 51.2365 155.917 51.4964C155.252 51.7564 154.502 51.8864 153.667 51.8864ZM153.648 46.2678C154.197 46.2678 154.662 46.1399 155.041 45.8842C155.425 45.6243 155.714 45.2536 155.911 44.772C156.111 44.2862 156.211 43.7045 156.211 43.027C156.211 42.3665 156.113 41.7848 155.917 41.282C155.721 40.7791 155.433 40.3871 155.054 40.1058C154.675 39.8203 154.206 39.6776 153.648 39.6776C153.072 39.6776 152.593 39.8267 152.21 40.125C151.826 40.419 151.536 40.8196 151.34 41.3267C151.148 41.8338 151.053 42.4006 151.053 43.027C151.053 43.6705 151.151 44.2351 151.347 44.7209C151.543 45.2067 151.832 45.5859 152.216 45.8587C152.604 46.1314 153.081 46.2678 153.648 46.2678ZM165.423 51.6818V38.1818H167.29V39.7734H167.45C167.561 39.5689 167.72 39.3324 167.929 39.0639C168.138 38.7955 168.428 38.5611 168.798 38.3608C169.169 38.1562 169.659 38.054 170.269 38.054C171.061 38.054 171.769 38.2543 172.391 38.6548C173.013 39.0554 173.501 39.6328 173.855 40.3871C174.213 41.1413 174.392 42.049 174.392 43.1101C174.392 44.1712 174.215 45.081 173.861 45.8395C173.507 46.5937 173.021 47.1754 172.404 47.5845C171.786 47.9893 171.08 48.1918 170.288 48.1918C169.691 48.1918 169.203 48.0916 168.824 47.8913C168.449 47.6911 168.155 47.4567 167.942 47.1882C167.729 46.9197 167.565 46.6811 167.45 46.4723H167.335V51.6818H165.423ZM167.296 43.0909C167.296 43.7812 167.396 44.3864 167.597 44.9062C167.797 45.4261 168.087 45.8331 168.466 46.1271C168.845 46.4169 169.31 46.5618 169.86 46.5618C170.431 46.5618 170.908 46.4105 171.291 46.108C171.675 45.8011 171.965 45.3857 172.161 44.8615C172.361 44.3374 172.461 43.7472 172.461 43.0909C172.461 42.4432 172.363 41.8615 172.167 41.3459C171.975 40.8303 171.686 40.4233 171.298 40.125C170.914 39.8267 170.435 39.6776 169.86 39.6776C169.306 39.6776 168.837 39.8203 168.453 40.1058C168.074 40.3913 167.786 40.7898 167.59 41.3011C167.394 41.8125 167.296 42.4091 167.296 43.0909ZM178.444 34.9091V48H176.533V34.9091H178.444ZM183.873 48.2173C183.25 48.2173 182.688 48.1023 182.185 47.8722C181.682 47.6378 181.284 47.299 180.99 46.8558C180.7 46.4126 180.555 45.8693 180.555 45.2259C180.555 44.6719 180.662 44.2159 180.875 43.858C181.088 43.5 181.375 43.2166 181.738 43.0078C182.1 42.799 182.505 42.6413 182.952 42.5348C183.4 42.4283 183.855 42.3473 184.32 42.2919C184.908 42.2237 185.385 42.1683 185.752 42.1257C186.118 42.0788 186.385 42.0043 186.551 41.902C186.717 41.7997 186.8 41.6335 186.8 41.4034V41.3587C186.8 40.8004 186.642 40.3679 186.327 40.0611C186.016 39.7543 185.551 39.6009 184.934 39.6009C184.29 39.6009 183.783 39.7436 183.412 40.0291C183.046 40.3104 182.792 40.6236 182.652 40.9688L180.855 40.5597C181.069 39.9631 181.38 39.4815 181.789 39.1151C182.202 38.7443 182.677 38.4759 183.214 38.3097C183.751 38.1392 184.316 38.054 184.908 38.054C185.3 38.054 185.716 38.1009 186.154 38.1946C186.598 38.2841 187.011 38.4503 187.395 38.6932C187.782 38.9361 188.1 39.2834 188.347 39.7351C188.594 40.1825 188.718 40.7642 188.718 41.4801V48H186.851V46.6577H186.775C186.651 46.9048 186.466 47.1477 186.218 47.3864C185.971 47.625 185.654 47.8232 185.266 47.9808C184.878 48.1385 184.414 48.2173 183.873 48.2173ZM184.288 46.6832C184.816 46.6832 185.268 46.5788 185.643 46.37C186.022 46.1612 186.31 45.8885 186.506 45.5518C186.706 45.2109 186.806 44.8466 186.806 44.4588V43.1932C186.738 43.2614 186.606 43.3253 186.41 43.3849C186.218 43.4403 185.999 43.4893 185.752 43.532C185.505 43.5703 185.264 43.6065 185.029 43.6406C184.795 43.6705 184.599 43.696 184.441 43.7173C184.071 43.7642 183.732 43.843 183.425 43.9538C183.123 44.0646 182.88 44.2244 182.696 44.4332C182.517 44.6378 182.428 44.9105 182.428 45.2514C182.428 45.7244 182.603 46.0824 182.952 46.3253C183.301 46.5639 183.747 46.6832 184.288 46.6832ZM193.175 42.1705V48H191.263V38.1818H193.098V39.7798H193.219C193.445 39.2599 193.799 38.8423 194.28 38.527C194.766 38.2116 195.378 38.054 196.115 38.054C196.784 38.054 197.37 38.1946 197.873 38.4759C198.376 38.7528 198.765 39.1662 199.042 39.7159C199.319 40.2656 199.458 40.9453 199.458 41.755V48H197.547V41.9851C197.547 41.2734 197.361 40.7173 196.991 40.3168C196.62 39.9119 196.111 39.7095 195.463 39.7095C195.02 39.7095 194.626 39.8054 194.28 39.9972C193.939 40.1889 193.669 40.4702 193.469 40.8409C193.273 41.2074 193.175 41.6506 193.175 42.1705Z" fill="#00313E"/>
<path d="M36.8011 66.3636C36.7415 65.8598 36.4995 65.4688 36.0753 65.1903C35.651 64.9119 35.1307 64.7727 34.5142 64.7727C34.0634 64.7727 33.669 64.8456 33.331 64.9915C32.9962 65.1373 32.7344 65.3378 32.5455 65.593C32.3598 65.8482 32.267 66.1383 32.267 66.4631C32.267 66.7348 32.3317 66.9685 32.4609 67.1641C32.5935 67.3563 32.7625 67.517 32.968 67.6463C33.1735 67.7723 33.389 67.8767 33.6143 67.9595C33.8397 68.0391 34.0469 68.1037 34.2358 68.1534L35.2699 68.4318C35.535 68.5014 35.83 68.5975 36.1548 68.7202C36.483 68.8428 36.7962 69.0102 37.0945 69.2223C37.3961 69.4311 37.6446 69.6996 37.8402 70.0277C38.0357 70.3558 38.1335 70.7585 38.1335 71.2358C38.1335 71.786 37.9893 72.2831 37.701 72.7273C37.416 73.1714 36.9983 73.5244 36.4482 73.7862C35.9013 74.0481 35.2367 74.179 34.4545 74.179C33.7254 74.179 33.094 74.0613 32.5604 73.826C32.0301 73.5907 31.6125 73.2625 31.3075 72.8416C31.0059 72.4207 30.8352 71.9318 30.7955 71.375H32.0682C32.1013 71.7595 32.2306 72.0777 32.456 72.3295C32.6847 72.5781 32.973 72.7637 33.321 72.8864C33.6723 73.0057 34.0502 73.0653 34.4545 73.0653C34.9252 73.0653 35.3478 72.9891 35.7223 72.8366C36.0968 72.6809 36.3935 72.4654 36.6122 72.1903C36.831 71.9119 36.9403 71.5871 36.9403 71.2159C36.9403 70.8778 36.8459 70.6027 36.657 70.3906C36.468 70.1785 36.2195 70.0062 35.9112 69.8736C35.603 69.741 35.2699 69.625 34.9119 69.5256L33.6591 69.1676C32.8636 68.9389 32.2339 68.6125 31.7699 68.1882C31.3059 67.764 31.0739 67.2088 31.0739 66.5227C31.0739 65.9527 31.228 65.4555 31.5362 65.0312C31.8478 64.6037 32.2654 64.2723 32.7891 64.0369C33.3161 63.7983 33.9044 63.679 34.554 63.679C35.2102 63.679 35.7936 63.7966 36.304 64.032C36.8144 64.264 37.2188 64.5821 37.517 64.9865C37.8187 65.3909 37.9777 65.8499 37.9943 66.3636H36.8011ZM43.2033 74.1591C42.4675 74.1591 41.8328 73.9967 41.2992 73.6719C40.7689 73.3438 40.3596 72.8864 40.0712 72.2997C39.7862 71.7098 39.6436 71.0237 39.6436 70.2415C39.6436 69.4593 39.7862 68.7699 40.0712 68.1733C40.3596 67.5734 40.7606 67.1061 41.2743 66.7713C41.7914 66.4332 42.3946 66.2642 43.084 66.2642C43.4817 66.2642 43.8745 66.3305 44.2623 66.4631C44.65 66.5956 45.003 66.8111 45.3212 67.1094C45.6394 67.4044 45.8929 67.7955 46.0819 68.2827C46.2708 68.7699 46.3652 69.3698 46.3652 70.0824V70.5795H40.4789V69.5653H45.1721C45.1721 69.1345 45.0859 68.75 44.9135 68.4119C44.7445 68.0739 44.5025 67.8071 44.1877 67.6115C43.8761 67.416 43.5082 67.3182 43.084 67.3182C42.6167 67.3182 42.2123 67.4342 41.8709 67.6662C41.5328 67.8949 41.2727 68.1932 41.0904 68.5611C40.9081 68.929 40.8169 69.3234 40.8169 69.7443V70.4205C40.8169 70.9972 40.9164 71.486 41.1152 71.8871C41.3174 72.2848 41.5975 72.5881 41.9554 72.7969C42.3134 73.0024 42.7293 73.1051 43.2033 73.1051C43.5115 73.1051 43.79 73.062 44.0385 72.9759C44.2904 72.8864 44.5075 72.7538 44.6898 72.5781C44.8721 72.3991 45.013 72.1771 45.1124 71.9119L46.2459 72.2301C46.1266 72.6146 45.9261 72.9527 45.6444 73.2443C45.3626 73.5327 45.0146 73.758 44.6003 73.9205C44.186 74.0795 43.7203 74.1591 43.2033 74.1591ZM51.3517 74.1591C50.6159 74.1591 49.9812 73.9967 49.4476 73.6719C48.9173 73.3438 48.508 72.8864 48.2196 72.2997C47.9346 71.7098 47.7921 71.0237 47.7921 70.2415C47.7921 69.4593 47.9346 68.7699 48.2196 68.1733C48.508 67.5734 48.909 67.1061 49.4228 66.7713C49.9398 66.4332 50.543 66.2642 51.2324 66.2642C51.6301 66.2642 52.0229 66.3305 52.4107 66.4631C52.7985 66.5956 53.1515 66.8111 53.4696 67.1094C53.7878 67.4044 54.0414 67.7955 54.2303 68.2827C54.4192 68.7699 54.5137 69.3698 54.5137 70.0824V70.5795H48.6273V69.5653H53.3205C53.3205 69.1345 53.2343 68.75 53.062 68.4119C52.8929 68.0739 52.651 67.8071 52.3361 67.6115C52.0246 67.416 51.6567 67.3182 51.2324 67.3182C50.7651 67.3182 50.3607 67.4342 50.0194 67.6662C49.6813 67.8949 49.4211 68.1932 49.2388 68.5611C49.0565 68.929 48.9654 69.3234 48.9654 69.7443V70.4205C48.9654 70.9972 49.0648 71.486 49.2637 71.8871C49.4658 72.2848 49.7459 72.5881 50.1039 72.7969C50.4618 73.0024 50.8778 73.1051 51.3517 73.1051C51.66 73.1051 51.9384 73.062 52.187 72.9759C52.4389 72.8864 52.656 72.7538 52.8382 72.5781C53.0205 72.3991 53.1614 72.1771 53.2608 71.9119L54.3944 72.2301C54.275 72.6146 54.0745 72.9527 53.7928 73.2443C53.5111 73.5327 53.1631 73.758 52.7488 73.9205C52.3345 74.0795 51.8688 74.1591 51.3517 74.1591ZM60.236 74V66.3636H61.3695V67.5568H61.4689C61.628 67.1491 61.8849 66.8326 62.2395 66.6072C62.5942 66.3786 63.0201 66.2642 63.5172 66.2642C64.021 66.2642 64.4403 66.3786 64.775 66.6072C65.1131 66.8326 65.3766 67.1491 65.5655 67.5568H65.6451C65.8406 67.1624 66.1339 66.8492 66.525 66.6172C66.9161 66.3819 67.3851 66.2642 67.932 66.2642C68.6148 66.2642 69.1732 66.478 69.6074 66.9055C70.0416 67.3298 70.2587 67.991 70.2587 68.8892V74H69.0854V68.8892C69.0854 68.3258 68.9313 67.9231 68.623 67.6811C68.3148 67.4392 67.9519 67.3182 67.5343 67.3182C66.9973 67.3182 66.5814 67.4806 66.2864 67.8054C65.9914 68.1269 65.8439 68.5346 65.8439 69.0284V74H64.6507V68.7699C64.6507 68.3357 64.5099 67.986 64.2282 67.7209C63.9464 67.4524 63.5835 67.3182 63.1394 67.3182C62.8345 67.3182 62.5494 67.3994 62.2843 67.5618C62.0224 67.7242 61.8103 67.9496 61.6479 68.2379C61.4888 68.523 61.4093 68.8527 61.4093 69.2273V74H60.236ZM75.5062 74.1591C74.8168 74.1591 74.2119 73.995 73.6916 73.6669C73.1745 73.3388 72.7702 72.8797 72.4785 72.2898C72.1902 71.6998 72.046 71.0104 72.046 70.2216C72.046 69.4261 72.1902 68.7318 72.4785 68.1385C72.7702 67.5452 73.1745 67.0845 73.6916 66.7564C74.2119 66.4283 74.8168 66.2642 75.5062 66.2642C76.1956 66.2642 76.7988 66.4283 77.3159 66.7564C77.8362 67.0845 78.2406 67.5452 78.5289 68.1385C78.8206 68.7318 78.9664 69.4261 78.9664 70.2216C78.9664 71.0104 78.8206 71.6998 78.5289 72.2898C78.2406 72.8797 77.8362 73.3388 77.3159 73.6669C76.7988 73.995 76.1956 74.1591 75.5062 74.1591ZM75.5062 73.1051C76.0299 73.1051 76.4608 72.9709 76.7988 72.7024C77.1369 72.4339 77.3871 72.081 77.5495 71.6435C77.7119 71.206 77.7931 70.732 77.7931 70.2216C77.7931 69.7112 77.7119 69.2356 77.5495 68.7947C77.3871 68.3539 77.1369 67.9976 76.7988 67.7259C76.4608 67.4541 76.0299 67.3182 75.5062 67.3182C74.9825 67.3182 74.5517 67.4541 74.2136 67.7259C73.8755 67.9976 73.6253 68.3539 73.4629 68.7947C73.3005 69.2356 73.2193 69.7112 73.2193 70.2216C73.2193 70.732 73.3005 71.206 73.4629 71.6435C73.6253 72.081 73.8755 72.4339 74.2136 72.7024C74.5517 72.9709 74.9825 73.1051 75.5062 73.1051ZM80.7575 74V66.3636H81.891V67.517H81.9705C82.1097 67.1392 82.3616 66.8326 82.7262 66.5973C83.0908 66.362 83.5018 66.2443 83.9592 66.2443C84.0453 66.2443 84.1531 66.246 84.2823 66.2493C84.4116 66.2526 84.5094 66.2576 84.5756 66.2642V67.4574C84.5359 67.4474 84.4447 67.4325 84.3022 67.4126C84.163 67.3894 84.0155 67.3778 83.8597 67.3778C83.4885 67.3778 83.1571 67.4557 82.8654 67.6115C82.5771 67.764 82.3484 67.9761 82.1793 68.2479C82.0136 68.5163 81.9308 68.8229 81.9308 69.1676V74H80.7575ZM88.9357 74.1591C88.1999 74.1591 87.5652 73.9967 87.0316 73.6719C86.5013 73.3438 86.092 72.8864 85.8036 72.2997C85.5186 71.7098 85.3761 71.0237 85.3761 70.2415C85.3761 69.4593 85.5186 68.7699 85.8036 68.1733C86.092 67.5734 86.493 67.1061 87.0067 66.7713C87.5238 66.4332 88.127 66.2642 88.8164 66.2642C89.2141 66.2642 89.6069 66.3305 89.9947 66.4631C90.3825 66.5956 90.7354 66.8111 91.0536 67.1094C91.3718 67.4044 91.6254 67.7955 91.8143 68.2827C92.0032 68.7699 92.0977 69.3698 92.0977 70.0824V70.5795H86.2113V69.5653H90.9045C90.9045 69.1345 90.8183 68.75 90.646 68.4119C90.4769 68.0739 90.235 67.8071 89.9201 67.6115C89.6085 67.416 89.2406 67.3182 88.8164 67.3182C88.3491 67.3182 87.9447 67.4342 87.6033 67.6662C87.2653 67.8949 87.0051 68.1932 86.8228 68.5611C86.6405 68.929 86.5494 69.3234 86.5494 69.7443V70.4205C86.5494 70.9972 86.6488 71.486 86.8477 71.8871C87.0498 72.2848 87.3299 72.5881 87.6879 72.7969C88.0458 73.0024 88.4618 73.1051 88.9357 73.1051C89.244 73.1051 89.5224 73.062 89.771 72.9759C90.0228 72.8864 90.2399 72.7538 90.4222 72.5781C90.6045 72.3991 90.7454 72.1771 90.8448 71.9119L91.9783 72.2301C91.859 72.6146 91.6585 72.9527 91.3768 73.2443C91.0951 73.5327 90.747 73.758 90.3327 73.9205C89.9184 74.0795 89.4528 74.1591 88.9357 74.1591ZM100.703 74.1591C100.067 74.1591 99.5053 73.9983 99.0181 73.6768C98.5309 73.352 98.1497 72.8946 97.8746 72.3047C97.5996 71.7114 97.462 71.0104 97.462 70.2017C97.462 69.3996 97.5996 68.7036 97.8746 68.1136C98.1497 67.5237 98.5326 67.0679 99.0231 66.7464C99.5136 66.425 100.08 66.2642 100.723 66.2642C101.221 66.2642 101.613 66.3471 101.902 66.5128C102.193 66.6752 102.415 66.8608 102.568 67.0696C102.724 67.2751 102.845 67.4441 102.931 67.5767H103.03V63.8182H104.203V74H103.07V72.8267H102.931C102.845 72.9659 102.722 73.1416 102.563 73.3537C102.404 73.5625 102.177 73.7498 101.882 73.9155C101.587 74.0779 101.194 74.1591 100.703 74.1591ZM100.863 73.1051C101.333 73.1051 101.731 72.9825 102.056 72.7372C102.381 72.4886 102.627 72.1456 102.797 71.7081C102.966 71.2673 103.05 70.7585 103.05 70.1818C103.05 69.6117 102.967 69.1129 102.801 68.6854C102.636 68.2545 102.391 67.9197 102.066 67.6811C101.741 67.4392 101.34 67.3182 100.863 67.3182C100.365 67.3182 99.9511 67.4458 99.6197 67.701C99.2915 67.9529 99.0446 68.2959 98.8789 68.7301C98.7165 69.161 98.6353 69.6449 98.6353 70.1818C98.6353 70.7254 98.7182 71.2192 98.8839 71.6634C99.0529 72.1042 99.3015 72.4555 99.6296 72.7173C99.9611 72.9759 100.372 73.1051 100.863 73.1051ZM109.717 74.1591C108.981 74.1591 108.346 73.9967 107.813 73.6719C107.283 73.3438 106.873 72.8864 106.585 72.2997C106.3 71.7098 106.157 71.0237 106.157 70.2415C106.157 69.4593 106.3 68.7699 106.585 68.1733C106.873 67.5734 107.274 67.1061 107.788 66.7713C108.305 66.4332 108.908 66.2642 109.598 66.2642C109.995 66.2642 110.388 66.3305 110.776 66.4631C111.164 66.5956 111.517 66.8111 111.835 67.1094C112.153 67.4044 112.407 67.7955 112.596 68.2827C112.784 68.7699 112.879 69.3698 112.879 70.0824V70.5795H106.993V69.5653H111.686C111.686 69.1345 111.6 68.75 111.427 68.4119C111.258 68.0739 111.016 67.8071 110.701 67.6115C110.39 67.416 110.022 67.3182 109.598 67.3182C109.13 67.3182 108.726 67.4342 108.385 67.6662C108.047 67.8949 107.786 68.1932 107.604 68.5611C107.422 68.929 107.331 69.3234 107.331 69.7443V70.4205C107.331 70.9972 107.43 71.486 107.629 71.8871C107.831 72.2848 108.111 72.5881 108.469 72.7969C108.827 73.0024 109.243 73.1051 109.717 73.1051C110.025 73.1051 110.304 73.062 110.552 72.9759C110.804 72.8864 111.021 72.7538 111.203 72.5781C111.386 72.3991 111.527 72.1771 111.626 71.9119L112.76 72.2301C112.64 72.6146 112.44 72.9527 112.158 73.2443C111.876 73.5327 111.528 73.758 111.114 73.9205C110.7 74.0795 110.234 74.1591 109.717 74.1591ZM117.985 66.3636V67.358H114.027V66.3636H117.985ZM115.181 64.5341H116.354V71.8125C116.354 72.1439 116.402 72.3925 116.498 72.5582C116.598 72.7206 116.724 72.83 116.876 72.8864C117.032 72.9394 117.196 72.9659 117.368 72.9659C117.498 72.9659 117.604 72.9593 117.686 72.946C117.769 72.9295 117.836 72.9162 117.885 72.9062L118.124 73.9602C118.044 73.9901 117.933 74.0199 117.791 74.0497C117.648 74.0829 117.468 74.0994 117.249 74.0994C116.917 74.0994 116.593 74.0282 116.275 73.8857C115.96 73.7431 115.698 73.526 115.489 73.2344C115.283 72.9427 115.181 72.5748 115.181 72.1307V64.5341ZM121.997 74.179C121.513 74.179 121.074 74.0878 120.679 73.9055C120.285 73.7199 119.972 73.4531 119.74 73.1051C119.508 72.7538 119.392 72.3295 119.392 71.8324C119.392 71.3949 119.478 71.0402 119.65 70.7685C119.823 70.4934 120.053 70.2779 120.341 70.1222C120.63 69.9664 120.948 69.8504 121.296 69.7741C121.647 69.6946 122 69.6316 122.355 69.5852C122.819 69.5256 123.195 69.4808 123.483 69.451C123.775 69.4179 123.987 69.3632 124.12 69.2869C124.256 69.2107 124.324 69.0781 124.324 68.8892V68.8494C124.324 68.3589 124.189 67.9777 123.921 67.706C123.656 67.4342 123.253 67.2983 122.713 67.2983C122.153 67.2983 121.713 67.4209 121.395 67.6662C121.077 67.9115 120.853 68.1733 120.724 68.4517L119.61 68.054C119.809 67.59 120.074 67.2287 120.406 66.9702C120.741 66.7083 121.105 66.526 121.5 66.4233C121.897 66.3172 122.288 66.2642 122.673 66.2642C122.918 66.2642 123.2 66.294 123.518 66.3537C123.84 66.41 124.15 66.5277 124.448 66.7067C124.749 66.8857 125 67.1558 125.199 67.517C125.397 67.8783 125.497 68.3622 125.497 68.9688V74H124.324V72.9659H124.264C124.184 73.1316 124.052 73.3089 123.866 73.4979C123.681 73.6868 123.434 73.8475 123.125 73.9801C122.817 74.1127 122.441 74.179 121.997 74.179ZM122.176 73.125C122.64 73.125 123.031 73.0339 123.349 72.8516C123.671 72.6693 123.913 72.4339 124.075 72.1456C124.241 71.8572 124.324 71.554 124.324 71.2358V70.1619C124.274 70.2216 124.164 70.2763 123.995 70.326C123.83 70.3724 123.637 70.4138 123.419 70.4503C123.203 70.4834 122.993 70.5133 122.787 70.5398C122.585 70.563 122.421 70.5829 122.295 70.5994C121.99 70.6392 121.705 70.7038 121.44 70.7933C121.178 70.8795 120.966 71.0104 120.804 71.1861C120.645 71.3584 120.565 71.5937 120.565 71.892C120.565 72.2997 120.716 72.608 121.017 72.8168C121.322 73.0223 121.708 73.125 122.176 73.125ZM127.638 74V66.3636H128.812V74H127.638ZM128.235 65.0909C128.006 65.0909 127.809 65.013 127.643 64.8572C127.481 64.7015 127.4 64.5142 127.4 64.2955C127.4 64.0767 127.481 63.8894 127.643 63.7337C127.809 63.5779 128.006 63.5 128.235 63.5C128.464 63.5 128.659 63.5779 128.822 63.7337C128.987 63.8894 129.07 64.0767 129.07 64.2955C129.07 64.5142 128.987 64.7015 128.822 64.8572C128.659 65.013 128.464 65.0909 128.235 65.0909ZM132.134 63.8182V74H130.961V63.8182H132.134ZM139.394 69.4062V74H138.22V63.8182H139.394V67.5568H139.493C139.672 67.1624 139.941 66.8492 140.298 66.6172C140.66 66.3819 141.14 66.2642 141.74 66.2642C142.261 66.2642 142.716 66.3686 143.107 66.5774C143.499 66.7829 143.802 67.0994 144.017 67.527C144.236 67.9512 144.345 68.4915 144.345 69.1477V74H143.172V69.2273C143.172 68.6207 143.015 68.1518 142.7 67.8203C142.388 67.4856 141.956 67.3182 141.402 67.3182C141.018 67.3182 140.673 67.3994 140.368 67.5618C140.066 67.7242 139.828 67.9612 139.652 68.2727C139.48 68.5843 139.394 68.9621 139.394 69.4062ZM149.694 74.1591C148.958 74.1591 148.323 73.9967 147.789 73.6719C147.259 73.3438 146.85 72.8864 146.561 72.2997C146.276 71.7098 146.134 71.0237 146.134 70.2415C146.134 69.4593 146.276 68.7699 146.561 68.1733C146.85 67.5734 147.251 67.1061 147.765 66.7713C148.282 66.4332 148.885 66.2642 149.574 66.2642C149.972 66.2642 150.365 66.3305 150.752 66.4631C151.14 66.5956 151.493 66.8111 151.811 67.1094C152.13 67.4044 152.383 67.7955 152.572 68.2827C152.761 68.7699 152.855 69.3698 152.855 70.0824V70.5795H146.969V69.5653H151.662C151.662 69.1345 151.576 68.75 151.404 68.4119C151.235 68.0739 150.993 67.8071 150.678 67.6115C150.366 67.416 149.998 67.3182 149.574 67.3182C149.107 67.3182 148.703 67.4342 148.361 67.6662C148.023 67.8949 147.763 68.1932 147.581 68.5611C147.398 68.929 147.307 69.3234 147.307 69.7443V70.4205C147.307 70.9972 147.407 71.486 147.605 71.8871C147.808 72.2848 148.088 72.5881 148.446 72.7969C148.804 73.0024 149.22 73.1051 149.694 73.1051C150.002 73.1051 150.28 73.062 150.529 72.9759C150.781 72.8864 150.998 72.7538 151.18 72.5781C151.362 72.3991 151.503 72.1771 151.603 71.9119L152.736 72.2301C152.617 72.6146 152.416 72.9527 152.135 73.2443C151.853 73.5327 151.505 73.758 151.091 73.9205C150.676 74.0795 150.211 74.1591 149.694 74.1591ZM154.64 74V66.3636H155.774V67.517H155.853C155.993 67.1392 156.244 66.8326 156.609 66.5973C156.974 66.362 157.385 66.2443 157.842 66.2443C157.928 66.2443 158.036 66.246 158.165 66.2493C158.294 66.2526 158.392 66.2576 158.458 66.2642V67.4574C158.419 67.4474 158.328 67.4325 158.185 67.4126C158.046 67.3894 157.898 67.3778 157.743 67.3778C157.371 67.3778 157.04 67.4557 156.748 67.6115C156.46 67.764 156.231 67.9761 156.062 68.2479C155.896 68.5163 155.814 68.8229 155.814 69.1676V74H154.64ZM162.819 74.1591C162.083 74.1591 161.448 73.9967 160.914 73.6719C160.384 73.3438 159.975 72.8864 159.686 72.2997C159.401 71.7098 159.259 71.0237 159.259 70.2415C159.259 69.4593 159.401 68.7699 159.686 68.1733C159.975 67.5734 160.376 67.1061 160.89 66.7713C161.407 66.4332 162.01 66.2642 162.699 66.2642C163.097 66.2642 163.49 66.3305 163.877 66.4631C164.265 66.5956 164.618 66.8111 164.936 67.1094C165.255 67.4044 165.508 67.7955 165.697 68.2827C165.886 68.7699 165.98 69.3698 165.98 70.0824V70.5795H160.094V69.5653H164.787C164.787 69.1345 164.701 68.75 164.529 68.4119C164.36 68.0739 164.118 67.8071 163.803 67.6115C163.491 67.416 163.123 67.3182 162.699 67.3182C162.232 67.3182 161.828 67.4342 161.486 67.6662C161.148 67.8949 160.888 68.1932 160.706 68.5611C160.523 68.929 160.432 69.3234 160.432 69.7443V70.4205C160.432 70.9972 160.532 71.486 160.73 71.8871C160.933 72.2848 161.213 72.5881 161.571 72.7969C161.929 73.0024 162.345 73.1051 162.819 73.1051C163.127 73.1051 163.405 73.062 163.654 72.9759C163.906 72.8864 164.123 72.7538 164.305 72.5781C164.487 72.3991 164.628 72.1771 164.728 71.9119L165.861 72.2301C165.742 72.6146 165.541 72.9527 165.26 73.2443C164.978 73.5327 164.63 73.758 164.216 73.9205C163.801 74.0795 163.336 74.1591 162.819 74.1591Z" fill="#00313E"/>
<path d="M179.657 65.6716H180.407C180.407 65.2574 180.071 64.9216 179.657 64.9216V65.6716ZM178.907 69.2072C178.907 69.6214 179.243 69.9572 179.657 69.9572C180.071 69.9572 180.407 69.6214 180.407 69.2072H178.907ZM176.121 64.9216C175.707 64.9216 175.371 65.2574 175.371 65.6716C175.371 66.0858 175.707 66.4216 176.121 66.4216V64.9216ZM173.47 70.7982C173.177 71.091 173.177 71.5659 173.47 71.8588C173.763 72.1517 174.237 72.1517 174.53 71.8588L173.47 70.7982ZM178.907 65.6716V69.2072H180.407V65.6716H178.907ZM179.657 64.9216H176.121V66.4216H179.657V64.9216ZM176.652 69.7375L180.187 66.202L179.127 65.1413L175.591 68.6768L176.652 69.7375ZM174.53 71.8588L175.591 70.7982L174.53 69.7375L173.47 70.7982L174.53 71.8588Z" fill="#00313E"/>
</svg>
