<svg width="24" height="24" viewBox="0 0 24 24" fill="none" xmlns="http://www.w3.org/2000/svg">
<path d="M19.3188 7.67034C19.2906 8.5058 19.6248 9.31268 20.2355 9.88347C21.46 11.0279 21.46 12.9697 20.2355 14.1141C19.6248 14.6849 19.2906 15.4918 19.3188 16.3273C19.3754 18.0023 18.0023 19.3754 16.3273 19.3188C15.4918 19.2906 14.6849 19.6248 14.1141 20.2355C12.9697 21.46 11.0279 21.46 9.88347 20.2355C9.31268 19.6248 8.5058 19.2906 7.67034 19.3188C5.99528 19.3754 4.62221 18.0023 4.67881 16.3273C4.70705 15.4918 4.37283 14.6849 3.76211 14.1141C2.53763 12.9697 2.53763 11.0279 3.76211 9.88347C4.37283 9.31268 4.70705 8.5058 4.67881 7.67034C4.62221 5.99528 5.99528 4.62221 7.67034 4.67881C8.5058 4.70705 9.31268 4.37283 9.88347 3.76211C11.0279 2.53763 12.9697 2.53763 14.1141 3.76211C14.6849 4.37283 15.4918 4.70705 16.3273 4.67881" stroke="#00313E" stroke-width="1.5" stroke-linecap="round"/>
<path d="M8.5 12L9.96217 13.7407C10.2254 14.0541 10.3571 14.2108 10.5267 14.2461C10.5812 14.2574 10.6373 14.2596 10.6925 14.2524C10.8644 14.2302 11.0076 14.0841 11.2941 13.7917L15.5 9.5" stroke="#00313E" stroke-width="1.5" stroke-linecap="round" stroke-linejoin="round"/>
</svg>
