<svg width="160" height="54" viewBox="0 0 160 54" fill="none" xmlns="http://www.w3.org/2000/svg">
<rect width="160" height="53.9831" rx="7.23164" fill="#252134"/>
<rect x="0.451977" y="0.451977" width="159.096" height="53.0791" rx="6.77966" stroke="#757185" stroke-opacity="0.2" stroke-width="0.903955"/>
<g clip-path="url(#clip0_148_1343)">
<path d="M29.8824 15.9942C29.6228 16.7912 29.2024 17.5301 28.6959 18.1446V18.1457C28.1849 18.7637 27.5024 19.3101 26.7429 19.6724C26.0459 20.0047 25.2818 20.1839 24.5215 20.1245L24.2889 20.1064L24.2582 19.8747C24.1595 19.1276 24.2735 18.3712 24.5137 17.6713C24.7932 16.8567 25.2461 16.1135 25.732 15.5504L25.7319 15.5503C26.2347 14.9613 26.909 14.4487 27.631 14.0775C28.3556 13.7049 29.1338 13.472 29.842 13.4431L30.1097 13.4321L30.1391 13.6997C30.2249 14.4819 30.1206 15.2634 29.8824 15.9942Z" fill="#FAFAFA"/>
<path d="M34.804 23.0214C34.5474 23.1801 32.0666 24.7153 32.0973 27.8093C32.1298 31.5395 35.2926 32.8326 35.4672 32.904H35.4684L35.4759 32.9071L35.724 33.0098L35.639 33.2638C35.6341 33.2789 35.6397 33.2629 35.6323 33.2865C35.5517 33.5451 35.0046 35.2977 33.7688 37.1036C33.208 37.9228 32.6366 38.7408 31.962 39.3716C31.2636 40.0249 30.4659 40.4658 29.4804 40.4841C28.5515 40.5016 27.9434 40.2384 27.3113 39.965C26.7086 39.7042 26.0817 39.4329 25.1008 39.4329C24.0703 39.4329 23.4115 39.7135 22.7772 39.9839C22.1799 40.2382 21.6023 40.4843 20.7701 40.5175H20.7691C19.8081 40.5533 18.9749 40.0849 18.2344 39.391C17.5261 38.7273 16.9053 37.8582 16.3396 37.0401C15.0628 35.1965 13.9525 32.514 13.6093 29.7864C13.3272 27.5427 13.563 25.2636 14.6478 23.3813C15.2533 22.3282 16.0995 21.4686 17.0891 20.869C18.0741 20.272 19.201 19.9321 20.374 19.9147V19.9146C21.401 19.896 22.3693 20.2802 23.2166 20.6165C23.8162 20.8545 24.3505 21.0665 24.7511 21.0665C25.1048 21.0665 25.6264 20.8608 26.2344 20.6212C27.2614 20.2162 28.5176 19.7209 29.8459 19.8531C30.404 19.8773 31.566 20.0111 32.7538 20.6547C33.5104 21.0648 34.278 21.6805 34.9089 22.6038L35.0752 22.8474L34.8267 23.0079C34.8134 23.0164 34.8263 23.0076 34.804 23.0214Z" fill="#FAFAFA"/>
</g>
<path d="M52.9263 18.2751H50.2144V10.2697H52.9263C55.7792 10.2697 57.1568 12.233 57.1568 14.1422V14.3808C57.1568 16.2466 55.7792 18.2751 52.9263 18.2751ZM53.0348 11.2459H51.2775V17.2988H53.0348C54.9331 17.2988 56.0721 15.9754 56.0721 14.2615C56.0721 12.4825 54.9331 11.2459 53.0348 11.2459ZM61.3116 18.4269C59.2939 18.4269 58.2092 16.8975 58.2092 15.433V15.2378C58.2092 13.7517 59.3482 12.2439 61.3116 12.2439C63.275 12.2439 64.4139 13.7517 64.4139 15.2378V15.433C64.4139 16.8975 63.3292 18.4269 61.3116 18.4269ZM61.3116 17.4941C62.6133 17.4941 63.3726 16.5503 63.3726 15.3354C63.3726 14.0988 62.5807 13.1768 61.3116 13.1768C60.0424 13.1768 59.2505 14.0988 59.2505 15.3354C59.2505 16.5503 60.0099 17.4941 61.3116 17.4941ZM68.4168 18.2317H66.7897L65.1517 12.4391H66.1497L67.5165 17.4073H67.7334L68.7314 12.6344H70.1416L71.3022 17.4073H71.5192L72.7124 12.4391H73.6561L72.2351 18.2317H70.6189L69.4365 13.4154L68.4168 18.2317ZM76.1039 18.2317H75.0626V12.4391H75.887V13.7842C76.1473 12.7971 76.809 12.2656 77.9046 12.2656H77.948C79.4016 12.2656 80.0958 13.2093 80.0958 14.9232V18.2317H79.0544V14.7063C79.0544 13.8059 78.5121 13.2202 77.6334 13.2202C76.7222 13.2202 76.1039 13.8385 76.1039 14.7714V18.2317ZM83.1076 18.2317H82.0662V11.1375H81.2635V10.313H83.1076V18.2317ZM87.7734 18.4269C85.7558 18.4269 84.6711 16.8975 84.6711 15.433V15.2378C84.6711 13.7517 85.81 12.2439 87.7734 12.2439C89.7368 12.2439 90.8758 13.7517 90.8758 15.2378V15.433C90.8758 16.8975 89.7911 18.4269 87.7734 18.4269ZM87.7734 17.4941C89.0751 17.4941 89.8344 16.5503 89.8344 15.3354C89.8344 14.0988 89.0426 13.1768 87.7734 13.1768C86.5043 13.1768 85.7124 14.0988 85.7124 15.3354C85.7124 16.5503 86.4717 17.4941 87.7734 17.4941ZM94.0409 18.3836C92.7283 18.3836 91.9365 17.7002 91.9365 16.4961C91.9365 15.2703 92.7934 14.6303 94.3012 14.6303H95.7656V14.4893C95.7656 13.6975 95.3426 13.2852 94.5507 13.2852C93.8782 13.2852 93.0863 13.3178 92.609 13.3503V12.4391C93.0755 12.3958 93.6829 12.3741 94.2036 12.3741C95.9826 12.3741 96.7636 12.949 96.7636 14.5652V18.2317H95.9392V17.0819C95.6897 17.9388 95.0497 18.3836 94.0409 18.3836ZM94.2578 17.5591C94.9846 17.5591 95.7222 17.212 95.7656 16.0839V15.4113H94.2578C93.4226 15.4113 92.9561 15.8561 92.9561 16.4961C92.9561 17.1361 93.4226 17.5591 94.2578 17.5591ZM101.094 18.4269C99.445 18.4269 98.241 17.1036 98.241 15.433V15.2378C98.241 13.589 99.3908 12.2439 101.061 12.2439C101.907 12.2439 102.667 12.5802 103.111 13.3178V10.313H104.153V18.2317H103.328V17.0385C102.884 18.0147 102.016 18.4269 101.094 18.4269ZM101.235 17.5158C102.298 17.5158 103.155 16.7564 103.155 15.5307V15.0317C103.155 13.8385 102.255 13.1551 101.224 13.1551C100.063 13.1551 99.2823 14.0229 99.2823 15.3354C99.2823 16.6697 100.096 17.5158 101.235 17.5158ZM111.29 18.4269C109.273 18.4269 108.188 16.8975 108.188 15.433V15.2378C108.188 13.7517 109.327 12.2439 111.29 12.2439C113.254 12.2439 114.393 13.7517 114.393 15.2378V15.433C114.393 16.8975 113.308 18.4269 111.29 18.4269ZM111.29 17.4941C112.592 17.4941 113.351 16.5503 113.351 15.3354C113.351 14.0988 112.56 13.1768 111.29 13.1768C110.021 13.1768 109.229 14.0988 109.229 15.3354C109.229 16.5503 109.989 17.4941 111.29 17.4941ZM116.994 18.2317H115.952V12.4391H116.777V13.7842C117.037 12.7971 117.699 12.2656 118.794 12.2656H118.838C120.291 12.2656 120.986 13.2093 120.986 14.9232V18.2317H119.944V14.7063C119.944 13.8059 119.402 13.2202 118.523 13.2202C117.612 13.2202 116.994 13.8385 116.994 14.7714V18.2317ZM128.505 18.2968H127.615C126.325 18.2968 125.511 17.8086 125.511 16.2575V13.2202H124.513V12.4391H125.511V10.6819H126.509V12.4391H128.505V13.2202H126.509V16.3876C126.509 17.0059 126.867 17.3639 127.485 17.3639H128.505V18.2968ZM131.019 18.2317H129.978V10.313H131.019V13.4588C131.334 12.6995 131.93 12.2656 132.863 12.2656H132.907C134.295 12.2656 135.011 13.2202 135.011 14.9232V18.2317H133.97V14.7063C133.97 13.7625 133.384 13.2202 132.549 13.2202C131.616 13.2202 131.019 13.8927 131.019 14.8907V18.2317ZM139.379 18.4269C137.339 18.4269 136.483 16.8975 136.483 15.433V15.2378C136.483 13.7408 137.372 12.2439 139.314 12.2439C141.19 12.2439 142.08 13.6215 142.08 15.0642V15.5307H137.48C137.546 16.6697 138.131 17.5158 139.379 17.5158C140.29 17.5158 140.887 17.0493 141.006 16.5069H141.982C141.733 17.711 140.746 18.4269 139.379 18.4269ZM139.314 13.1551C138.272 13.1551 137.687 13.7951 137.524 14.7497H141.06C140.93 13.7625 140.355 13.1551 139.314 13.1551Z" fill="#FAFAFA"/>
<path d="M51.7349 41.7515H49.0664L52.9877 29.8735H57.2996L61.3674 41.7515H58.6013L57.6413 38.8064H52.6786L51.7349 41.7515ZM53.3783 36.5935H56.9091L55.4284 32.0538H54.8264L53.3783 36.5935ZM65.3738 45.0057H62.7704V32.8349H64.8369V35.0803C65.3738 33.4369 66.6592 32.5745 68.3026 32.5745C70.7758 32.5745 72.403 34.5108 72.403 37.0979V37.4721C72.403 40.0593 70.8897 42.0443 68.3026 42.0443C67.0823 42.0443 66.0247 41.5888 65.3738 40.6613V45.0057ZM67.5704 39.864C68.8884 39.864 69.7833 38.8064 69.7833 37.2769C69.7833 35.7637 68.9047 34.7386 67.5704 34.7386C66.3826 34.7386 65.3087 35.601 65.3087 37.0491V37.6511C65.3087 39.0504 66.4477 39.864 67.5704 39.864ZM76.8145 45.0057H74.2111V32.8349H76.2775V35.0803C76.8145 33.4369 78.0999 32.5745 79.7433 32.5745C82.2165 32.5745 83.8436 34.5108 83.8436 37.0979V37.4721C83.8436 40.0593 82.3304 42.0443 79.7433 42.0443C78.523 42.0443 77.4653 41.5888 76.8145 40.6613V45.0057ZM79.0111 39.864C80.3291 39.864 81.224 38.8064 81.224 37.2769C81.224 35.7637 80.3453 34.7386 79.0111 34.7386C77.8233 34.7386 76.7494 35.601 76.7494 37.0491V37.6511C76.7494 39.0504 77.8884 39.864 79.0111 39.864ZM93.3474 42.0606C90.1094 42.0606 88.3847 40.4172 88.3847 38.1067H90.9718C90.9718 39.0179 91.6715 39.8152 93.3474 39.8152C94.8281 39.8152 95.6254 39.1806 95.6254 38.2694C95.6254 37.5047 95.0071 37.0654 93.5589 36.9352L92.664 36.8538C90.2884 36.6586 88.7752 35.3243 88.7752 33.2091C88.7752 30.9311 90.5 29.5155 93.1522 29.5155C95.9508 29.5155 97.6267 31.0613 97.6267 33.3881H95.0233C95.0233 32.5257 94.3888 31.761 93.1522 31.761C91.9644 31.761 91.3786 32.4281 91.3786 33.2091C91.3786 33.8925 91.8179 34.4457 92.9081 34.5271L93.8193 34.6084C96.4064 34.8362 98.2288 36.0728 98.2288 38.2694C98.2288 40.5637 96.3576 42.0606 93.3474 42.0606ZM105.225 41.8654H103.972C101.288 41.8654 100.197 40.9704 100.197 38.2694V34.7386H98.8469V32.8349H100.197V30.4267H102.622V32.8349H105.225V34.7386H102.622V38.3671C102.622 39.1969 103.077 39.6688 103.907 39.6688H105.225V41.8654ZM111.273 42.0606C108.149 42.0606 106.375 39.9291 106.375 37.5047V37.1304C106.375 34.6084 108.246 32.5257 111.273 32.5257C114.315 32.5257 116.187 34.6084 116.187 37.1304V37.5047C116.187 39.9291 114.413 42.0606 111.273 42.0606ZM111.273 39.864C112.786 39.864 113.583 38.7901 113.583 37.3257C113.583 35.8125 112.737 34.7223 111.273 34.7223C109.825 34.7223 108.978 35.8125 108.978 37.3257C108.978 38.7901 109.776 39.864 111.273 39.864ZM120.607 41.7515H118.003V32.8349H120.07V35.7799C120.298 33.8274 121.355 32.721 123.161 32.721H123.503V34.9664H122.852C121.404 34.9664 120.607 35.7799 120.607 37.2118V41.7515ZM128.888 42.0606C125.846 42.0606 124.251 39.7501 124.251 37.4559V37.1304C124.251 34.7549 125.878 32.5257 128.791 32.5257C131.654 32.5257 133.233 34.6898 133.233 37.0979V37.9765H126.724C126.887 39.1806 127.57 39.9454 128.888 39.9454C129.832 39.9454 130.467 39.5549 130.678 38.9854H133.07C132.68 40.8077 131.118 42.0606 128.888 42.0606ZM128.791 34.641C127.652 34.641 126.952 35.2918 126.741 36.4959H130.76C130.581 35.3243 129.913 34.641 128.791 34.641Z" fill="#FAFAFA"/>
<defs>
<clipPath id="clip0_148_1343">
<rect width="27.1186" height="27.1186" fill="white" transform="translate(10.8477 13.4323)"/>
</clipPath>
</defs>
</svg>
