<svg width="18" height="18" viewBox="0 0 18 18" fill="none" xmlns="http://www.w3.org/2000/svg">
<path d="M5.76097 8.29648C5.31764 8.16884 4.87431 8.10408 4.44307 8.10408C3.77713 8.10408 3.22145 8.25626 2.79059 8.44262C3.20597 6.92192 4.20384 4.29797 6.19165 4.00247C6.37574 3.9751 6.52661 3.84198 6.57683 3.6628L7.01129 2.10886C7.04791 1.97745 7.0262 1.83678 6.95124 1.72274C6.87629 1.60869 6.75582 1.5326 6.62082 1.5141C6.47412 1.49408 6.32458 1.48389 6.17636 1.48389C3.79034 1.48389 1.42736 3.97434 0.430249 7.54028C-0.155068 9.63234 -0.326698 12.7776 1.11507 14.7573C1.92186 15.8651 3.09892 16.4566 4.61356 16.5157C4.61979 16.5159 4.62584 16.5161 4.63207 16.5161C6.50093 16.5161 8.15813 15.2575 8.66226 13.4556C8.96341 12.3784 8.82728 11.2488 8.27859 10.2739C7.73576 9.31003 6.84173 8.60746 5.76097 8.29648Z" fill="#00313E"/>
<path d="M17.4581 10.2741C16.9153 9.31003 16.0213 8.60746 14.9405 8.29648C14.4972 8.16884 14.0538 8.10408 13.6228 8.10408C12.9568 8.10408 12.401 8.25626 11.9701 8.44262C12.3855 6.92191 13.3834 4.29797 15.3714 4.00247C15.5555 3.9751 15.7061 3.84198 15.7565 3.6628L16.191 2.10886C16.2276 1.97745 16.2059 1.83678 16.131 1.72274C16.0562 1.60869 15.9357 1.5326 15.8005 1.5141C15.654 1.49408 15.5045 1.48389 15.3561 1.48389C12.9701 1.48389 10.6071 3.97434 9.60977 7.54028C9.02464 9.63234 8.85301 12.7776 10.295 14.7577C11.1016 15.8653 12.2788 16.457 13.7933 16.5159C13.7995 16.5161 13.8055 16.5163 13.812 16.5163C15.6806 16.5163 17.338 15.2577 17.8422 13.4558C18.1429 12.3786 18.0066 11.2488 17.4581 10.2741Z" fill="#00313E"/>
</svg>
