<svg width="283" height="302" viewBox="0 0 283 302" fill="none" xmlns="http://www.w3.org/2000/svg">
<rect width="283" height="302" rx="20" fill="#EBFF74"/>
<mask id="path-2-inside-1_148_1643" fill="white">
<path d="M22 81.7042C22 76.513 26.2083 72.3047 31.3995 72.3047H194.601C199.792 72.3047 204 76.513 204 81.7042V81.7042C204 86.8953 199.792 91.1036 194.601 91.1036H31.3995C26.2083 91.1036 22 86.8953 22 81.7042V81.7042Z"/>
</mask>
<path d="M22 72.3047H204H22ZM204 81.7042C204 87.4476 199.344 92.1036 193.601 92.1036H32.3995C26.656 92.1036 22 87.4476 22 81.7042C22 86.3431 26.2083 90.1036 31.3995 90.1036H194.601C199.792 90.1036 204 86.3431 204 81.7042ZM22 91.1036V72.3047V91.1036ZM204 72.3047V91.1036V72.3047Z" fill="#757185" fill-opacity="0.2" mask="url(#path-2-inside-1_148_1643)"/>
<path d="M25.0682 78.3319C25.3665 78.3343 25.6648 78.3911 25.9631 78.5024C26.2614 78.6137 26.5336 78.7983 26.7798 79.0564C27.026 79.3121 27.2237 79.6613 27.3729 80.104C27.522 80.5467 27.5966 81.1018 27.5966 81.7694C27.5966 82.4157 27.535 82.9898 27.4119 83.4917C27.2912 83.9913 27.116 84.4127 26.8864 84.7559C26.6591 85.0992 26.3821 85.3596 26.0554 85.5372C25.7311 85.7148 25.3641 85.8035 24.9545 85.8035C24.5473 85.8035 24.1839 85.723 23.8643 85.5621C23.5471 85.3987 23.2867 85.1726 23.0831 84.8838C22.8819 84.5926 22.7528 84.2552 22.696 83.8717H23.5625C23.6406 84.2055 23.7957 84.4813 24.0277 84.6991C24.2621 84.9146 24.571 85.0223 24.9545 85.0223C25.5156 85.0223 25.9583 84.7773 26.2827 84.2872C26.6094 83.7971 26.7727 83.1047 26.7727 82.2098H26.7159C26.5833 82.4086 26.4259 82.5803 26.2436 82.7247C26.0613 82.8691 25.8589 82.9804 25.6364 83.0585C25.4138 83.1366 25.1771 83.1757 24.9261 83.1757C24.5095 83.1757 24.1271 83.0727 23.7791 82.8667C23.4335 82.6584 23.1565 82.3731 22.9482 82.0109C22.7422 81.6463 22.6392 81.2297 22.6392 80.7609C22.6392 80.3158 22.7386 79.9086 22.9375 79.5393C23.1387 79.1676 23.4205 78.8717 23.7827 78.6515C24.1473 78.4314 24.5758 78.3248 25.0682 78.3319ZM25.0682 79.1132C24.7699 79.1132 24.5012 79.1878 24.2621 79.3369C24.0253 79.4837 23.8371 79.6826 23.6974 79.9335C23.5601 80.1821 23.4915 80.4579 23.4915 80.7609C23.4915 81.0639 23.5578 81.3398 23.6903 81.5883C23.8253 81.8345 24.0088 82.031 24.2408 82.1778C24.4751 82.3222 24.7415 82.3944 25.0398 82.3944C25.2647 82.3944 25.4742 82.3506 25.6683 82.2631C25.8625 82.1731 26.0317 82.0512 26.1761 81.8973C26.3229 81.741 26.4377 81.5647 26.5206 81.3682C26.6035 81.1693 26.6449 80.9622 26.6449 80.7467C26.6449 80.4626 26.5762 80.1963 26.4389 79.9477C26.304 79.6991 26.117 79.4979 25.8778 79.344C25.6411 79.1901 25.3712 79.1132 25.0682 79.1132ZM31.3652 85.8035C30.8302 85.8035 30.3745 85.6579 29.998 85.3667C29.6216 85.0732 29.334 84.6482 29.1351 84.0919C28.9363 83.5332 28.8368 82.8585 28.8368 82.0677C28.8368 81.2818 28.9363 80.6106 29.1351 80.0542C29.3364 79.4955 29.6252 79.0694 30.0016 78.7758C30.3804 78.4799 30.8349 78.3319 31.3652 78.3319C31.8955 78.3319 32.3489 78.4799 32.7253 78.7758C33.1041 79.0694 33.3929 79.4955 33.5918 80.0542C33.793 80.6106 33.8936 81.2818 33.8936 82.0677C33.8936 82.8585 33.7942 83.5332 33.5953 84.0919C33.3965 84.6482 33.1088 85.0732 32.7324 85.3667C32.356 85.6579 31.9003 85.8035 31.3652 85.8035ZM31.3652 85.0223C31.8955 85.0223 32.3075 84.7666 32.601 84.2552C32.8946 83.7439 33.0414 83.0147 33.0414 82.0677C33.0414 81.438 32.9739 80.9018 32.839 80.4591C32.7064 80.0164 32.5146 79.679 32.2637 79.447C32.0151 79.215 31.7156 79.099 31.3652 79.099C30.8397 79.099 30.4289 79.3582 30.133 79.8767C29.8371 80.3928 29.6891 81.1231 29.6891 82.0677C29.6891 82.6975 29.7554 83.2325 29.888 83.6729C30.0205 84.1132 30.2111 84.4482 30.4597 84.6778C30.7106 84.9075 31.0125 85.0223 31.3652 85.0223ZM37.6152 85.8035C37.0802 85.8035 36.6245 85.6579 36.248 85.3667C35.8716 85.0732 35.584 84.6482 35.3851 84.0919C35.1863 83.5332 35.0868 82.8585 35.0868 82.0677C35.0868 81.2818 35.1863 80.6106 35.3851 80.0542C35.5864 79.4955 35.8752 79.0694 36.2516 78.7758C36.6304 78.4799 37.0849 78.3319 37.6152 78.3319C38.1455 78.3319 38.5989 78.4799 38.9753 78.7758C39.3541 79.0694 39.6429 79.4955 39.8418 80.0542C40.043 80.6106 40.1436 81.2818 40.1436 82.0677C40.1436 82.8585 40.0442 83.5332 39.8453 84.0919C39.6465 84.6482 39.3588 85.0732 38.9824 85.3667C38.606 85.6579 38.1503 85.8035 37.6152 85.8035ZM37.6152 85.0223C38.1455 85.0223 38.5575 84.7666 38.851 84.2552C39.1446 83.7439 39.2914 83.0147 39.2914 82.0677C39.2914 81.438 39.2239 80.9018 39.089 80.4591C38.9564 80.0164 38.7646 79.679 38.5137 79.447C38.2651 79.215 37.9656 79.099 37.6152 79.099C37.0897 79.099 36.6789 79.3582 36.383 79.8767C36.0871 80.3928 35.9391 81.1231 35.9391 82.0677C35.9391 82.6975 36.0054 83.2325 36.138 83.6729C36.2705 84.1132 36.4611 84.4482 36.7097 84.6778C36.9606 84.9075 37.2625 85.0223 37.6152 85.0223ZM43.638 86.6132V77.5223H44.2203V86.6132H43.638ZM45.5982 80.2496C45.5556 79.8897 45.3828 79.6104 45.0797 79.4115C44.7767 79.2126 44.405 79.1132 43.9647 79.1132C43.6427 79.1132 43.361 79.1653 43.1195 79.2694C42.8804 79.3736 42.6934 79.5168 42.5584 79.6991C42.4258 79.8814 42.3596 80.0886 42.3596 80.3206C42.3596 80.5147 42.4057 80.6816 42.498 80.8213C42.5927 80.9586 42.7135 81.0734 42.8603 81.1657C43.007 81.2557 43.1609 81.3303 43.3219 81.3895C43.4829 81.4463 43.6309 81.4925 43.7658 81.528L44.5044 81.7268C44.6938 81.7765 44.9045 81.8452 45.1365 81.9328C45.3709 82.0204 45.5946 82.1399 45.8077 82.2915C46.0231 82.4406 46.2007 82.6324 46.3404 82.8667C46.4801 83.1011 46.5499 83.3888 46.5499 83.7297C46.5499 84.1227 46.4469 84.4778 46.2409 84.795C46.0373 85.1122 45.7391 85.3644 45.3461 85.5514C44.9554 85.7384 44.4808 85.8319 43.9221 85.8319C43.4012 85.8319 42.9502 85.7479 42.5691 85.5798C42.1903 85.4117 41.892 85.1773 41.6742 84.8767C41.4587 84.576 41.3368 84.2268 41.3084 83.8291H42.2175C42.2412 84.1037 42.3335 84.331 42.4945 84.5109C42.6578 84.6885 42.8638 84.8211 43.1124 84.9086C43.3633 84.9939 43.6332 85.0365 43.9221 85.0365C44.2582 85.0365 44.5601 84.982 44.8276 84.8731C45.0951 84.7619 45.307 84.608 45.4632 84.4115C45.6195 84.2126 45.6976 83.9806 45.6976 83.7155C45.6976 83.474 45.6301 83.2775 45.4952 83.126C45.3603 82.9745 45.1827 82.8514 44.9625 82.7567C44.7424 82.662 44.5044 82.5791 44.2488 82.5081L43.3539 82.2524C42.7857 82.089 42.3359 81.8559 42.0044 81.5528C41.673 81.2498 41.5073 80.8532 41.5073 80.3632C41.5073 79.956 41.6174 79.6009 41.8375 79.2979C42.0601 78.9925 42.3584 78.7557 42.7324 78.5876C43.1088 78.4172 43.5291 78.3319 43.9931 78.3319C44.4618 78.3319 44.8785 78.416 45.2431 78.5841C45.6077 78.7498 45.8965 78.9771 46.1096 79.2659C46.325 79.5547 46.4386 79.8826 46.4505 80.2496H45.5982Z" fill="#130D1B"/>
<mask id="path-5-inside-2_148_1643" fill="white">
<path d="M22 121.782C22 116.591 26.2083 112.383 31.3995 112.383H194.462C199.654 112.383 203.862 116.591 203.862 121.782V121.782C203.862 126.973 199.654 131.182 194.462 131.182H31.3995C26.2083 131.182 22 126.973 22 121.782V121.782Z"/>
</mask>
<path d="M22 112.383H203.862H22ZM203.862 121.782C203.862 127.526 199.206 132.182 193.462 132.182H32.3995C26.656 132.182 22 127.526 22 121.782C22 126.421 26.2083 130.182 31.3995 130.182H194.462C199.654 130.182 203.862 126.421 203.862 121.782ZM22 131.182V112.383V131.182ZM203.862 112.383V131.182V112.383Z" fill="#757185" fill-opacity="0.2" mask="url(#path-5-inside-2_148_1643)"/>
<path d="M25.1676 125.882C24.8693 125.877 24.571 125.82 24.2727 125.711C23.9744 125.602 23.7022 125.419 23.456 125.161C23.2098 124.9 23.0121 124.549 22.8629 124.106C22.7138 123.661 22.6392 123.102 22.6392 122.43C22.6392 121.786 22.6996 121.215 22.8203 120.718C22.9411 120.219 23.1162 119.799 23.3459 119.458C23.5755 119.114 23.8525 118.854 24.1768 118.676C24.5036 118.499 24.8717 118.41 25.2812 118.41C25.6884 118.41 26.0507 118.492 26.3679 118.655C26.6875 118.816 26.9479 119.041 27.1491 119.33C27.3504 119.619 27.4806 119.951 27.5398 120.328H26.6733C26.5928 120.001 26.4366 119.73 26.2045 119.514C25.9725 119.299 25.6648 119.191 25.2812 119.191C24.7178 119.191 24.2739 119.436 23.9496 119.926C23.6276 120.416 23.4654 121.104 23.4631 121.99H23.5199C23.6525 121.788 23.8099 121.617 23.9922 121.475C24.1768 121.33 24.3804 121.219 24.603 121.141C24.8255 121.063 25.0611 121.024 25.3097 121.024C25.7263 121.024 26.1075 121.128 26.4531 121.336C26.7988 121.542 27.0758 121.827 27.2841 122.192C27.4924 122.554 27.5966 122.97 27.5966 123.438C27.5966 123.888 27.496 124.3 27.2947 124.674C27.0935 125.046 26.8106 125.342 26.446 125.562C26.0838 125.78 25.6577 125.886 25.1676 125.882ZM25.1676 125.1C25.4659 125.1 25.7334 125.026 25.9702 124.877C26.2093 124.728 26.3975 124.527 26.5348 124.277C26.6745 124.026 26.7443 123.746 26.7443 123.438C26.7443 123.138 26.6768 122.864 26.5419 122.618C26.4093 122.37 26.2259 122.172 25.9915 122.025C25.7595 121.878 25.4943 121.805 25.196 121.805C24.9711 121.805 24.7616 121.85 24.5675 121.94C24.3733 122.027 24.2029 122.148 24.0561 122.302C23.9117 122.456 23.7981 122.632 23.7152 122.831C23.6323 123.028 23.5909 123.235 23.5909 123.453C23.5909 123.742 23.6584 124.011 23.7933 124.262C23.9306 124.513 24.1177 124.716 24.3544 124.87C24.5935 125.023 24.8646 125.1 25.1676 125.1ZM31.3652 125.882C30.8302 125.882 30.3745 125.736 29.998 125.445C29.6216 125.151 29.334 124.726 29.1351 124.17C28.9363 123.611 28.8368 122.937 28.8368 122.146C28.8368 121.36 28.9363 120.689 29.1351 120.132C29.3364 119.574 29.6252 119.148 30.0016 118.854C30.3804 118.558 30.8349 118.41 31.3652 118.41C31.8955 118.41 32.3489 118.558 32.7253 118.854C33.1041 119.148 33.3929 119.574 33.5918 120.132C33.793 120.689 33.8936 121.36 33.8936 122.146C33.8936 122.937 33.7942 123.611 33.5953 124.17C33.3965 124.726 33.1088 125.151 32.7324 125.445C32.356 125.736 31.9003 125.882 31.3652 125.882ZM31.3652 125.1C31.8955 125.1 32.3075 124.845 32.601 124.333C32.8946 123.822 33.0414 123.093 33.0414 122.146C33.0414 121.516 32.9739 120.98 32.839 120.537C32.7064 120.094 32.5146 119.757 32.2637 119.525C32.0151 119.293 31.7156 119.177 31.3652 119.177C30.8397 119.177 30.4289 119.436 30.133 119.955C29.8371 120.471 29.6891 121.201 29.6891 122.146C29.6891 122.776 29.7554 123.311 29.888 123.751C30.0205 124.191 30.2111 124.526 30.4597 124.756C30.7106 124.986 31.0125 125.1 31.3652 125.1ZM37.6152 125.882C37.0802 125.882 36.6245 125.736 36.248 125.445C35.8716 125.151 35.584 124.726 35.3851 124.17C35.1863 123.611 35.0868 122.937 35.0868 122.146C35.0868 121.36 35.1863 120.689 35.3851 120.132C35.5864 119.574 35.8752 119.148 36.2516 118.854C36.6304 118.558 37.0849 118.41 37.6152 118.41C38.1455 118.41 38.5989 118.558 38.9753 118.854C39.3541 119.148 39.6429 119.574 39.8418 120.132C40.043 120.689 40.1436 121.36 40.1436 122.146C40.1436 122.937 40.0442 123.611 39.8453 124.17C39.6465 124.726 39.3588 125.151 38.9824 125.445C38.606 125.736 38.1503 125.882 37.6152 125.882ZM37.6152 125.1C38.1455 125.1 38.5575 124.845 38.851 124.333C39.1446 123.822 39.2914 123.093 39.2914 122.146C39.2914 121.516 39.2239 120.98 39.089 120.537C38.9564 120.094 38.7646 119.757 38.5137 119.525C38.2651 119.293 37.9656 119.177 37.6152 119.177C37.0897 119.177 36.6789 119.436 36.383 119.955C36.0871 120.471 35.9391 121.201 35.9391 122.146C35.9391 122.776 36.0054 123.311 36.138 123.751C36.2705 124.191 36.4611 124.526 36.7097 124.756C36.9606 124.986 37.2625 125.1 37.6152 125.1ZM43.638 126.691V117.6H44.2203V126.691H43.638ZM45.5982 120.328C45.5556 119.968 45.3828 119.688 45.0797 119.49C44.7767 119.291 44.405 119.191 43.9647 119.191C43.6427 119.191 43.361 119.243 43.1195 119.348C42.8804 119.452 42.6934 119.595 42.5584 119.777C42.4258 119.96 42.3596 120.167 42.3596 120.399C42.3596 120.593 42.4057 120.76 42.498 120.899C42.5927 121.037 42.7135 121.152 42.8603 121.244C43.007 121.334 43.1609 121.408 43.3219 121.468C43.4829 121.524 43.6309 121.571 43.7658 121.606L44.5044 121.805C44.6938 121.855 44.9045 121.923 45.1365 122.011C45.3709 122.099 45.5946 122.218 45.8077 122.37C46.0231 122.519 46.2007 122.71 46.3404 122.945C46.4801 123.179 46.5499 123.467 46.5499 123.808C46.5499 124.201 46.4469 124.556 46.2409 124.873C46.0373 125.19 45.7391 125.443 45.3461 125.63C44.9554 125.817 44.4808 125.91 43.9221 125.91C43.4012 125.91 42.9502 125.826 42.5691 125.658C42.1903 125.49 41.892 125.255 41.6742 124.955C41.4587 124.654 41.3368 124.305 41.3084 123.907H42.2175C42.2412 124.182 42.3335 124.409 42.4945 124.589C42.6578 124.767 42.8638 124.899 43.1124 124.987C43.3633 125.072 43.6332 125.115 43.9221 125.115C44.2582 125.115 44.5601 125.06 44.8276 124.951C45.0951 124.84 45.307 124.686 45.4632 124.49C45.6195 124.291 45.6976 124.059 45.6976 123.794C45.6976 123.552 45.6301 123.356 45.4952 123.204C45.3603 123.053 45.1827 122.929 44.9625 122.835C44.7424 122.74 44.5044 122.657 44.2488 122.586L43.3539 122.331C42.7857 122.167 42.3359 121.934 42.0044 121.631C41.673 121.328 41.5073 120.931 41.5073 120.441C41.5073 120.034 41.6174 119.679 41.8375 119.376C42.0601 119.071 42.3584 118.834 42.7324 118.666C43.1088 118.495 43.5291 118.41 43.9931 118.41C44.4618 118.41 44.8785 118.494 45.2431 118.662C45.6077 118.828 45.8965 119.055 46.1096 119.344C46.325 119.633 46.4386 119.961 46.4505 120.328H45.5982Z" fill="#130D1B"/>
<path d="M49.7383 129.325L57.9362 123.501L78.1899 162.156L108.57 104.438L136.058 171.158L162.58 113.44L173.672 120.323L186.692 104.438L202.606 154.213" stroke="#00313E" stroke-width="1.04418"/>
<path d="M203.598 153.249C203.598 154.103 202.986 154.744 202.293 154.744C201.599 154.744 200.988 154.103 200.988 153.249C200.988 152.395 201.599 151.754 202.293 151.754C202.986 151.754 203.598 152.395 203.598 153.249Z" fill="#00313E" stroke="#EBFF74" stroke-width="0.522088"/>
<path d="M50.7309 129.37C50.7309 130.224 50.1192 130.865 49.4256 130.865C48.732 130.865 48.1204 130.224 48.1204 129.37C48.1204 128.516 48.732 127.875 49.4256 127.875C50.1192 127.875 50.7309 128.516 50.7309 129.37Z" fill="#00313E" stroke="#EBFF74" stroke-width="0.522088"/>
<mask id="path-11-inside-3_148_1643" fill="white">
<path d="M22 162.165C22 156.974 26.2083 152.766 31.3995 152.766H194.462C199.654 152.766 203.862 156.974 203.862 162.165V162.165C203.862 167.357 199.654 171.565 194.462 171.565H31.3995C26.2083 171.565 22 167.357 22 162.165V162.165Z"/>
</mask>
<path d="M22 152.766H203.862H22ZM203.862 162.165C203.862 167.909 199.206 172.565 193.462 172.565H32.3995C26.656 172.565 22 167.909 22 162.165C22 166.804 26.2083 170.565 31.3995 170.565H194.462C199.654 170.565 203.862 166.804 203.862 162.165ZM22 171.565V152.766V171.565ZM203.862 152.766V171.565V152.766Z" fill="#757185" fill-opacity="0.2" mask="url(#path-11-inside-3_148_1643)"/>
<path d="M25.2102 166.265C24.7415 166.265 24.3236 166.184 23.9567 166.023C23.5921 165.862 23.3021 165.639 23.0866 165.352C22.8736 165.063 22.7576 164.728 22.7386 164.347H23.6335C23.6525 164.581 23.733 164.784 23.875 164.954C24.017 165.122 24.2029 165.253 24.4325 165.345C24.6622 165.437 24.9167 165.483 25.196 165.483C25.5085 165.483 25.7855 165.429 26.027 165.32C26.2685 165.211 26.4579 165.06 26.5952 164.866C26.7325 164.671 26.8011 164.447 26.8011 164.191C26.8011 163.923 26.7348 163.688 26.6023 163.484C26.4697 163.278 26.2756 163.117 26.0199 163.001C25.7642 162.885 25.4517 162.827 25.0824 162.827H24.5V162.046H25.0824C25.3712 162.046 25.6245 161.994 25.8423 161.89C26.0625 161.786 26.2341 161.639 26.3572 161.449C26.4827 161.26 26.5455 161.037 26.5455 160.782C26.5455 160.536 26.491 160.321 26.3821 160.139C26.2732 159.957 26.1193 159.815 25.9205 159.713C25.724 159.611 25.492 159.56 25.2244 159.56C24.9735 159.56 24.7367 159.606 24.5142 159.699C24.294 159.789 24.1141 159.92 23.9744 160.093C23.8348 160.263 23.759 160.469 23.7472 160.711H22.8949C22.9091 160.33 23.0239 159.996 23.2393 159.709C23.4548 159.42 23.7365 159.196 24.0845 159.035C24.4349 158.874 24.8196 158.793 25.2386 158.793C25.6884 158.793 26.0743 158.884 26.3963 159.067C26.7183 159.246 26.9657 159.484 27.1385 159.78C27.3113 160.076 27.3977 160.396 27.3977 160.739C27.3977 161.149 27.29 161.498 27.0746 161.787C26.8615 162.076 26.5715 162.276 26.2045 162.387V162.444C26.6638 162.519 27.0225 162.715 27.2805 163.03C27.5386 163.342 27.6676 163.729 27.6676 164.191C27.6676 164.586 27.5599 164.941 27.3445 165.256C27.1314 165.569 26.8402 165.815 26.4709 165.995C26.1016 166.175 25.6813 166.265 25.2102 166.265ZM31.4922 166.265C30.9571 166.265 30.5014 166.119 30.125 165.828C29.7486 165.534 29.4609 165.109 29.2621 164.553C29.0632 163.994 28.9638 163.32 28.9638 162.529C28.9638 161.743 29.0632 161.072 29.2621 160.515C29.4633 159.957 29.7521 159.531 30.1286 159.237C30.5073 158.941 30.9619 158.793 31.4922 158.793C32.0225 158.793 32.4759 158.941 32.8523 159.237C33.2311 159.531 33.5199 159.957 33.7188 160.515C33.92 161.072 34.0206 161.743 34.0206 162.529C34.0206 163.32 33.9212 163.994 33.7223 164.553C33.5234 165.109 33.2358 165.534 32.8594 165.828C32.483 166.119 32.0272 166.265 31.4922 166.265ZM31.4922 165.483C32.0225 165.483 32.4344 165.228 32.728 164.716C33.0215 164.205 33.1683 163.476 33.1683 162.529C33.1683 161.899 33.1009 161.363 32.9659 160.92C32.8333 160.478 32.6416 160.14 32.3906 159.908C32.142 159.676 31.8426 159.56 31.4922 159.56C30.9666 159.56 30.5559 159.819 30.2599 160.338C29.964 160.854 29.8161 161.584 29.8161 162.529C29.8161 163.159 29.8823 163.694 30.0149 164.134C30.1475 164.574 30.3381 164.909 30.5866 165.139C30.8376 165.369 31.1394 165.483 31.4922 165.483ZM37.7422 166.265C37.2071 166.265 36.7514 166.119 36.375 165.828C35.9986 165.534 35.7109 165.109 35.5121 164.553C35.3132 163.994 35.2138 163.32 35.2138 162.529C35.2138 161.743 35.3132 161.072 35.5121 160.515C35.7133 159.957 36.0021 159.531 36.3786 159.237C36.7573 158.941 37.2119 158.793 37.7422 158.793C38.2725 158.793 38.7259 158.941 39.1023 159.237C39.4811 159.531 39.7699 159.957 39.9688 160.515C40.17 161.072 40.2706 161.743 40.2706 162.529C40.2706 163.32 40.1712 163.994 39.9723 164.553C39.7734 165.109 39.4858 165.534 39.1094 165.828C38.733 166.119 38.2772 166.265 37.7422 166.265ZM37.7422 165.483C38.2725 165.483 38.6844 165.228 38.978 164.716C39.2715 164.205 39.4183 163.476 39.4183 162.529C39.4183 161.899 39.3509 161.363 39.2159 160.92C39.0833 160.478 38.8916 160.14 38.6406 159.908C38.392 159.676 38.0926 159.56 37.7422 159.56C37.2166 159.56 36.8059 159.819 36.5099 160.338C36.214 160.854 36.0661 161.584 36.0661 162.529C36.0661 163.159 36.1323 163.694 36.2649 164.134C36.3975 164.574 36.5881 164.909 36.8366 165.139C37.0876 165.369 37.3894 165.483 37.7422 165.483ZM43.7649 167.074V157.983H44.3473V167.074H43.7649ZM45.7251 160.711C45.6825 160.351 45.5097 160.072 45.2067 159.873C44.9036 159.674 44.532 159.574 44.0916 159.574C43.7696 159.574 43.4879 159.626 43.2464 159.731C43.0073 159.835 42.8203 159.978 42.6854 160.16C42.5528 160.343 42.4865 160.55 42.4865 160.782C42.4865 160.976 42.5327 161.143 42.625 161.282C42.7197 161.42 42.8404 161.535 42.9872 161.627C43.134 161.717 43.2879 161.791 43.4489 161.851C43.6098 161.907 43.7578 161.954 43.8928 161.989L44.6314 162.188C44.8208 162.238 45.0315 162.306 45.2635 162.394C45.4979 162.482 45.7216 162.601 45.9347 162.753C46.1501 162.902 46.3277 163.094 46.4673 163.328C46.607 163.562 46.6768 163.85 46.6768 164.191C46.6768 164.584 46.5739 164.939 46.3679 165.256C46.1643 165.573 45.866 165.826 45.473 166.013C45.0824 166.2 44.6077 166.293 44.049 166.293C43.5282 166.293 43.0772 166.209 42.696 166.041C42.3172 165.873 42.0189 165.639 41.8011 165.338C41.5857 165.037 41.4638 164.688 41.4354 164.29H42.3445C42.3681 164.565 42.4605 164.792 42.6214 164.972C42.7848 165.15 42.9908 165.282 43.2393 165.37C43.4903 165.455 43.7602 165.498 44.049 165.498C44.3852 165.498 44.687 165.443 44.9545 165.334C45.2221 165.223 45.4339 165.069 45.5902 164.873C45.7464 164.674 45.8246 164.442 45.8246 164.177C45.8246 163.935 45.7571 163.739 45.6222 163.587C45.4872 163.436 45.3097 163.313 45.0895 163.218C44.8693 163.123 44.6314 163.04 44.3757 162.969L43.4808 162.714C42.9126 162.55 42.4628 162.317 42.1314 162.014C41.8 161.711 41.6342 161.314 41.6342 160.824C41.6342 160.417 41.7443 160.062 41.9645 159.759C42.187 159.454 42.4853 159.217 42.8594 159.049C43.2358 158.878 43.656 158.793 44.12 158.793C44.5888 158.793 45.0054 158.877 45.37 159.045C45.7346 159.211 46.0234 159.438 46.2365 159.727C46.4519 160.016 46.5656 160.344 46.5774 160.711H45.7251Z" fill="#130D1B"/>
<mask id="path-14-inside-4_148_1643" fill="white">
<path d="M22 202.548C22 197.357 26.2083 193.149 31.3995 193.149H194.462C199.654 193.149 203.862 197.357 203.862 202.548V202.548C203.862 207.74 199.654 211.948 194.462 211.948H31.3995C26.2083 211.948 22 207.74 22 202.548V202.548Z"/>
</mask>
<path d="M22 193.149H203.862H22ZM203.862 202.548C203.862 208.292 199.206 212.948 193.462 212.948H32.3995C26.656 212.948 22 208.292 22 202.548C22 207.187 26.2083 210.948 31.3995 210.948H194.462C199.654 210.948 203.862 207.187 203.862 202.548ZM22 211.948V193.149V211.948ZM203.862 193.149V211.948V193.149Z" fill="#757185" fill-opacity="0.2" mask="url(#path-14-inside-4_148_1643)"/>
<path d="M25.125 206.648C24.59 206.648 24.1342 206.502 23.7578 206.211C23.3814 205.917 23.0938 205.492 22.8949 204.936C22.696 204.377 22.5966 203.703 22.5966 202.912C22.5966 202.126 22.696 201.455 22.8949 200.898C23.0961 200.34 23.3849 199.914 23.7614 199.62C24.1402 199.324 24.5947 199.176 25.125 199.176C25.6553 199.176 26.1087 199.324 26.4851 199.62C26.8639 199.914 27.1527 200.34 27.3516 200.898C27.5528 201.455 27.6534 202.126 27.6534 202.912C27.6534 203.703 27.554 204.377 27.3551 204.936C27.1562 205.492 26.8686 205.917 26.4922 206.211C26.1158 206.502 25.66 206.648 25.125 206.648ZM25.125 205.867C25.6553 205.867 26.0672 205.611 26.3608 205.099C26.6544 204.588 26.8011 203.859 26.8011 202.912C26.8011 202.282 26.7337 201.746 26.5987 201.303C26.4661 200.861 26.2744 200.523 26.0234 200.291C25.7749 200.059 25.4754 199.943 25.125 199.943C24.5994 199.943 24.1887 200.202 23.8928 200.721C23.5968 201.237 23.4489 201.967 23.4489 202.912C23.4489 203.542 23.5152 204.077 23.6477 204.517C23.7803 204.957 23.9709 205.292 24.2195 205.522C24.4704 205.752 24.7723 205.867 25.125 205.867ZM31.1477 207.457V198.367H31.7301V207.457H31.1477ZM33.108 201.094C33.0653 200.734 32.8925 200.455 32.5895 200.256C32.2865 200.057 31.9148 199.957 31.4744 199.957C31.1525 199.957 30.8707 200.01 30.6293 200.114C30.3902 200.218 30.2031 200.361 30.0682 200.543C29.9356 200.726 29.8693 200.933 29.8693 201.165C29.8693 201.359 29.9155 201.526 30.0078 201.666C30.1025 201.803 30.2232 201.918 30.37 202.01C30.5168 202.1 30.6707 202.175 30.8317 202.234C30.9927 202.291 31.1406 202.337 31.2756 202.372L32.0142 202.571C32.2036 202.621 32.4143 202.689 32.6463 202.777C32.8807 202.865 33.1044 202.984 33.3175 203.136C33.5329 203.285 33.7105 203.477 33.8501 203.711C33.9898 203.945 34.0597 204.233 34.0597 204.574C34.0597 204.967 33.9567 205.322 33.7507 205.639C33.5471 205.956 33.2488 206.209 32.8558 206.396C32.4652 206.583 31.9905 206.676 31.4318 206.676C30.911 206.676 30.46 206.592 30.0788 206.424C29.7 206.256 29.4018 206.022 29.1839 205.721C28.9685 205.42 28.8466 205.071 28.8182 204.673H29.7273C29.7509 204.948 29.8433 205.175 30.0043 205.355C30.1676 205.533 30.3736 205.665 30.6222 205.753C30.8731 205.838 31.143 205.881 31.4318 205.881C31.768 205.881 32.0698 205.826 32.3374 205.717C32.6049 205.606 32.8168 205.452 32.973 205.256C33.1293 205.057 33.2074 204.825 33.2074 204.56C33.2074 204.318 33.1399 204.122 33.005 203.97C32.87 203.819 32.6925 203.696 32.4723 203.601C32.2521 203.506 32.0142 203.423 31.7585 203.352L30.8636 203.097C30.2955 202.933 29.8456 202.7 29.5142 202.397C29.1828 202.094 29.017 201.697 29.017 201.207C29.017 200.8 29.1271 200.445 29.3473 200.142C29.5698 199.837 29.8681 199.6 30.2422 199.432C30.6186 199.261 31.0388 199.176 31.5028 199.176C31.9716 199.176 32.3883 199.26 32.7528 199.428C33.1174 199.594 33.4063 199.821 33.6193 200.11C33.8348 200.399 33.9484 200.727 33.9602 201.094H33.108Z" fill="#130D1B"/>
<line x1="48.3633" y1="75.1523" x2="48.3633" y2="211.152" stroke="#757185" stroke-opacity="0.2" stroke-dasharray="2 2"/>
<path d="M39.5312 218.152V217.833L40.7315 216.519C40.8724 216.365 40.9884 216.231 41.0795 216.118C41.1706 216.003 41.2381 215.895 41.2819 215.794C41.3269 215.693 41.3494 215.586 41.3494 215.475C41.3494 215.347 41.3186 215.236 41.2571 215.143C41.1967 215.049 41.1138 214.977 41.0085 214.926C40.9031 214.875 40.7848 214.85 40.6534 214.85C40.5137 214.85 40.3918 214.879 40.2876 214.937C40.1846 214.994 40.1047 215.074 40.0479 215.176C39.9923 215.279 39.9644 215.4 39.9644 215.539H39.5454C39.5454 215.326 39.5945 215.139 39.6928 214.978C39.791 214.817 39.9248 214.691 40.0941 214.601C40.2645 214.511 40.4557 214.466 40.6676 214.466C40.8806 214.466 41.0694 214.511 41.234 214.601C41.3985 214.691 41.5275 214.812 41.621 214.965C41.7146 215.118 41.7613 215.288 41.7613 215.475C41.7613 215.609 41.7371 215.739 41.6885 215.867C41.6412 215.994 41.5583 216.135 41.4399 216.292C41.3228 216.447 41.16 216.636 40.9517 216.86L40.1349 217.733V217.762H41.8252V218.152H39.5312ZM43.837 214.516V218.152H43.3966V214.978H43.3753L42.4875 215.567V215.12L43.3966 214.516H43.837ZM46.5021 218.152H46.0404L47.3757 214.516H47.8302L49.1654 218.152H48.7038L47.6171 215.091H47.5887L46.5021 218.152ZM46.6725 216.732H48.5333V217.123H46.6725V216.732ZM49.675 219.175V215.425H50.0799V215.858H50.1296C50.1603 215.811 50.203 215.751 50.2574 215.677C50.313 215.603 50.3924 215.536 50.4953 215.478C50.5995 215.419 50.7404 215.39 50.9179 215.39C51.1476 215.39 51.35 215.447 51.5252 215.562C51.7004 215.677 51.8371 215.839 51.9353 216.05C52.0336 216.261 52.0827 216.509 52.0827 216.796C52.0827 217.085 52.0336 217.335 51.9353 217.547C51.8371 217.758 51.7009 217.921 51.5269 218.037C51.3529 218.152 51.1523 218.209 50.925 218.209C50.7498 218.209 50.6096 218.18 50.5042 218.122C50.3989 218.063 50.3178 217.996 50.261 217.922C50.2041 217.846 50.1603 217.783 50.1296 217.733H50.0941V219.175H49.675ZM50.087 216.789C50.087 216.995 50.1171 217.176 50.1775 217.334C50.2379 217.49 50.3261 217.613 50.4421 217.701C50.5581 217.789 50.7001 217.833 50.8682 217.833C51.0434 217.833 51.1896 217.787 51.3068 217.694C51.4251 217.601 51.5139 217.475 51.5731 217.318C51.6335 217.159 51.6637 216.983 51.6637 216.789C51.6637 216.597 51.6341 216.424 51.5749 216.27C51.5169 216.115 51.4287 215.993 51.3103 215.903C51.1931 215.812 51.0458 215.766 50.8682 215.766C50.6978 215.766 50.5545 215.809 50.4385 215.896C50.3225 215.981 50.2349 216.1 50.1757 216.254C50.1166 216.407 50.087 216.585 50.087 216.789ZM52.7219 218.152V215.425H53.1267V215.837H53.1551C53.2049 215.702 53.2948 215.593 53.425 215.509C53.5552 215.424 53.702 215.382 53.8654 215.382C53.8961 215.382 53.9346 215.383 53.9808 215.384C54.0269 215.385 54.0619 215.387 54.0855 215.39V215.816C54.0713 215.812 54.0388 215.807 53.9879 215.8C53.9382 215.791 53.8855 215.787 53.8299 215.787C53.6973 215.787 53.5789 215.815 53.4747 215.871C53.3718 215.925 53.2901 216.001 53.2297 216.098C53.1705 216.194 53.1409 216.303 53.1409 216.426V218.152H52.7219ZM54.5823 218.152V215.425H55.0013V218.152H54.5823ZM54.7953 214.971C54.7136 214.971 54.6432 214.943 54.584 214.887C54.526 214.831 54.497 214.765 54.497 214.686C54.497 214.608 54.526 214.541 54.584 214.486C54.6432 214.43 54.7136 214.402 54.7953 214.402C54.877 214.402 54.9468 214.43 55.0048 214.486C55.064 214.541 55.0936 214.608 55.0936 214.686C55.0936 214.765 55.064 214.831 55.0048 214.887C54.9468 214.943 54.877 214.971 54.7953 214.971ZM56.1878 214.516V218.152H55.7688V214.516H56.1878Z" fill="#D8D8D9"/>
<line x1="85.7031" y1="74.8477" x2="85.7031" y2="210.848" stroke="#757185" stroke-opacity="0.2" stroke-dasharray="2 2"/>
<path d="M76.5195 217.848V217.528L77.7198 216.214C77.8606 216.06 77.9766 215.926 78.0678 215.813C78.1589 215.698 78.2264 215.59 78.2702 215.49C78.3152 215.388 78.3377 215.281 78.3377 215.17C78.3377 215.042 78.3069 214.932 78.2453 214.838C78.185 214.745 78.1021 214.672 77.9968 214.621C77.8914 214.571 77.773 214.545 77.6416 214.545C77.502 214.545 77.38 214.574 77.2759 214.632C77.1729 214.689 77.093 214.769 77.0362 214.872C76.9805 214.975 76.9527 215.096 76.9527 215.234H76.5337C76.5337 215.021 76.5828 214.834 76.6811 214.673C76.7793 214.512 76.9131 214.386 77.0823 214.297C77.2528 214.207 77.444 214.162 77.6559 214.162C77.8689 214.162 78.0577 214.207 78.2223 214.297C78.3868 214.386 78.5158 214.508 78.6093 214.661C78.7028 214.813 78.7496 214.983 78.7496 215.17C78.7496 215.304 78.7253 215.435 78.6768 215.562C78.6295 215.689 78.5466 215.831 78.4282 215.987C78.311 216.142 78.1483 216.331 77.9399 216.555L77.1232 217.429V217.457H78.8135V217.848H76.5195ZM79.5468 217.848V217.528L80.7471 216.214C80.888 216.06 81.004 215.926 81.0951 215.813C81.1863 215.698 81.2537 215.59 81.2975 215.49C81.3425 215.388 81.365 215.281 81.365 215.17C81.365 215.042 81.3342 214.932 81.2727 214.838C81.2123 214.745 81.1295 214.672 81.0241 214.621C80.9188 214.571 80.8004 214.545 80.669 214.545C80.5293 214.545 80.4074 214.574 80.3032 214.632C80.2002 214.689 80.1203 214.769 80.0635 214.872C80.0079 214.975 79.9801 215.096 79.9801 215.234H79.561C79.561 215.021 79.6102 214.834 79.7084 214.673C79.8067 214.512 79.9404 214.386 80.1097 214.297C80.2801 214.207 80.4713 214.162 80.6832 214.162C80.8963 214.162 81.0851 214.207 81.2496 214.297C81.4141 214.386 81.5432 214.508 81.6367 214.661C81.7302 214.813 81.7769 214.983 81.7769 215.17C81.7769 215.304 81.7527 215.435 81.7041 215.562C81.6568 215.689 81.5739 215.831 81.4556 215.987C81.3384 216.142 81.1756 216.331 80.9673 216.555L80.1505 217.429V217.457H81.8409V217.848H79.5468ZM84.1935 217.848H83.7318L85.0671 214.211H85.5216L86.8568 217.848H86.3952L85.3085 214.787H85.2801L84.1935 217.848ZM84.3639 216.427H86.2247V216.818H84.3639V216.427ZM87.3664 218.87V215.12H87.7713V215.554H87.821C87.8518 215.506 87.8944 215.446 87.9488 215.373C88.0045 215.298 88.0838 215.232 88.1867 215.174C88.2909 215.114 88.4318 215.085 88.6093 215.085C88.839 215.085 89.0414 215.142 89.2166 215.257C89.3918 215.372 89.5285 215.535 89.6267 215.745C89.725 215.956 89.7741 216.205 89.7741 216.491C89.7741 216.78 89.725 217.03 89.6267 217.242C89.5285 217.453 89.3924 217.616 89.2184 217.732C89.0443 217.847 88.8437 217.904 88.6164 217.904C88.4412 217.904 88.301 217.875 88.1956 217.817C88.0903 217.758 88.0092 217.691 87.9524 217.617C87.8956 217.541 87.8518 217.478 87.821 217.429H87.7855V218.87H87.3664ZM87.7784 216.484C87.7784 216.69 87.8085 216.872 87.8689 217.029C87.9293 217.185 88.0175 217.308 88.1335 217.397C88.2495 217.484 88.3915 217.528 88.5596 217.528C88.7348 217.528 88.881 217.482 88.9982 217.39C89.1166 217.296 89.2053 217.171 89.2645 217.013C89.3249 216.855 89.3551 216.678 89.3551 216.484C89.3551 216.292 89.3255 216.119 89.2663 215.966C89.2083 215.81 89.1201 215.688 89.0017 215.598C88.8845 215.507 88.7372 215.461 88.5596 215.461C88.3892 215.461 88.2459 215.504 88.1299 215.591C88.0139 215.676 87.9263 215.796 87.8671 215.95C87.808 216.102 87.7784 216.28 87.7784 216.484ZM90.4133 217.848V215.12H90.8181V215.532H90.8465C90.8963 215.397 90.9862 215.288 91.1164 215.204C91.2466 215.12 91.3934 215.078 91.5568 215.078C91.5876 215.078 91.626 215.078 91.6722 215.08C91.7184 215.081 91.7533 215.083 91.7769 215.085V215.511C91.7627 215.507 91.7302 215.502 91.6793 215.495C91.6296 215.487 91.5769 215.483 91.5213 215.483C91.3887 215.483 91.2703 215.51 91.1661 215.566C91.0632 215.621 90.9815 215.696 90.9211 215.793C90.8619 215.889 90.8323 215.999 90.8323 216.122V217.848H90.4133ZM92.2737 217.848V215.12H92.6927V217.848H92.2737ZM92.4867 214.666C92.4051 214.666 92.3346 214.638 92.2754 214.582C92.2174 214.527 92.1884 214.46 92.1884 214.382C92.1884 214.304 92.2174 214.237 92.2754 214.181C92.3346 214.125 92.4051 214.098 92.4867 214.098C92.5684 214.098 92.6382 214.125 92.6962 214.181C92.7554 214.237 92.785 214.304 92.785 214.382C92.785 214.46 92.7554 214.527 92.6962 214.582C92.6382 214.638 92.5684 214.666 92.4867 214.666ZM93.8792 214.211V217.848H93.4602V214.211H93.8792Z" fill="#D8D8D9"/>
<line x1="124.98" y1="74.8477" x2="124.98" y2="210.848" stroke="#757185" stroke-opacity="0.2" stroke-dasharray="2 2"/>
<path d="M116.422 217.848V217.528L117.622 216.214C117.763 216.06 117.879 215.926 117.97 215.813C118.061 215.698 118.129 215.59 118.173 215.49C118.218 215.388 118.24 215.281 118.24 215.17C118.24 215.042 118.209 214.932 118.148 214.838C118.087 214.745 118.004 214.672 117.899 214.621C117.794 214.571 117.675 214.545 117.544 214.545C117.404 214.545 117.282 214.574 117.178 214.632C117.075 214.689 116.995 214.769 116.939 214.872C116.883 214.975 116.855 215.096 116.855 215.234H116.436C116.436 215.021 116.485 214.834 116.583 214.673C116.682 214.512 116.815 214.386 116.985 214.297C117.155 214.207 117.346 214.162 117.558 214.162C117.771 214.162 117.96 214.207 118.125 214.297C118.289 214.386 118.418 214.508 118.512 214.661C118.605 214.813 118.652 214.983 118.652 215.17C118.652 215.304 118.628 215.435 118.579 215.562C118.532 215.689 118.449 215.831 118.331 215.987C118.213 216.142 118.051 216.331 117.842 216.555L117.026 217.429V217.457H118.716V217.848H116.422ZM120.678 217.897C120.443 217.897 120.235 217.857 120.051 217.777C119.869 217.696 119.724 217.584 119.616 217.441C119.51 217.297 119.452 217.129 119.442 216.939H119.89C119.899 217.056 119.939 217.157 120.01 217.242C120.081 217.326 120.174 217.391 120.289 217.438C120.404 217.484 120.531 217.507 120.671 217.507C120.827 217.507 120.966 217.48 121.086 217.425C121.207 217.371 121.302 217.295 121.37 217.198C121.439 217.101 121.473 216.988 121.473 216.86C121.473 216.727 121.44 216.609 121.374 216.507C121.308 216.404 121.211 216.324 121.083 216.266C120.955 216.208 120.799 216.179 120.614 216.179H120.323V215.788H120.614C120.758 215.788 120.885 215.762 120.994 215.71C121.104 215.658 121.19 215.584 121.251 215.49C121.314 215.395 121.345 215.284 121.345 215.156C121.345 215.033 121.318 214.926 121.264 214.835C121.209 214.743 121.132 214.672 121.033 214.621C120.935 214.571 120.819 214.545 120.685 214.545C120.559 214.545 120.441 214.568 120.33 214.614C120.22 214.659 120.13 214.725 120.06 214.811C119.99 214.897 119.952 215 119.946 215.12H119.52C119.527 214.93 119.585 214.763 119.692 214.62C119.8 214.475 119.941 214.363 120.115 214.282C120.29 214.202 120.483 214.162 120.692 214.162C120.917 214.162 121.11 214.207 121.271 214.298C121.432 214.388 121.556 214.507 121.642 214.655C121.728 214.803 121.772 214.963 121.772 215.135C121.772 215.339 121.718 215.514 121.61 215.658C121.504 215.803 121.359 215.903 121.175 215.958V215.987C121.405 216.025 121.584 216.122 121.713 216.28C121.842 216.436 121.907 216.63 121.907 216.86C121.907 217.058 121.853 217.236 121.745 217.393C121.638 217.549 121.493 217.672 121.308 217.762C121.124 217.852 120.913 217.897 120.678 217.897ZM122.846 217.848H122.384L123.719 214.211H124.174L125.509 217.848H125.048L123.961 214.787H123.932L122.846 217.848ZM123.016 216.427H124.877V216.818H123.016V216.427ZM126.019 218.87V215.12H126.424V215.554H126.473C126.504 215.506 126.547 215.446 126.601 215.373C126.657 215.298 126.736 215.232 126.839 215.174C126.943 215.114 127.084 215.085 127.262 215.085C127.491 215.085 127.694 215.142 127.869 215.257C128.044 215.372 128.181 215.535 128.279 215.745C128.377 215.956 128.426 216.205 128.426 216.491C128.426 216.78 128.377 217.03 128.279 217.242C128.181 217.453 128.045 217.616 127.871 217.732C127.697 217.847 127.496 217.904 127.269 217.904C127.094 217.904 126.953 217.875 126.848 217.817C126.743 217.758 126.662 217.691 126.605 217.617C126.548 217.541 126.504 217.478 126.473 217.429H126.438V218.87H126.019ZM126.431 216.484C126.431 216.69 126.461 216.872 126.521 217.029C126.582 217.185 126.67 217.308 126.786 217.397C126.902 217.484 127.044 217.528 127.212 217.528C127.387 217.528 127.533 217.482 127.651 217.39C127.769 217.296 127.858 217.171 127.917 217.013C127.977 216.855 128.007 216.678 128.007 216.484C128.007 216.292 127.978 216.119 127.919 215.966C127.861 215.81 127.772 215.688 127.654 215.598C127.537 215.507 127.39 215.461 127.212 215.461C127.042 215.461 126.898 215.504 126.782 215.591C126.666 215.676 126.579 215.796 126.519 215.95C126.46 216.102 126.431 216.28 126.431 216.484ZM129.066 217.848V215.12H129.47V215.532H129.499C129.549 215.397 129.639 215.288 129.769 215.204C129.899 215.12 130.046 215.078 130.209 215.078C130.24 215.078 130.278 215.078 130.325 215.08C130.371 215.081 130.406 215.083 130.429 215.085V215.511C130.415 215.507 130.383 215.502 130.332 215.495C130.282 215.487 130.229 215.483 130.174 215.483C130.041 215.483 129.923 215.51 129.818 215.566C129.716 215.621 129.634 215.696 129.573 215.793C129.514 215.889 129.485 215.999 129.485 216.122V217.848H129.066ZM130.926 217.848V215.12H131.345V217.848H130.926ZM131.139 214.666C131.057 214.666 130.987 214.638 130.928 214.582C130.87 214.527 130.841 214.46 130.841 214.382C130.841 214.304 130.87 214.237 130.928 214.181C130.987 214.125 131.057 214.098 131.139 214.098C131.221 214.098 131.291 214.125 131.349 214.181C131.408 214.237 131.437 214.304 131.437 214.382C131.437 214.46 131.408 214.527 131.349 214.582C131.291 214.638 131.221 214.666 131.139 214.666ZM132.532 214.211V217.848H132.113V214.211H132.532Z" fill="#D8D8D9"/>
<line x1="164.43" y1="74.8477" x2="164.43" y2="210.848" stroke="#757185" stroke-opacity="0.2" stroke-dasharray="2 2"/>
<path d="M155.195 217.848V217.528L156.395 216.214C156.536 216.06 156.652 215.926 156.743 215.813C156.834 215.698 156.902 215.59 156.945 215.49C156.99 215.388 157.013 215.281 157.013 215.17C157.013 215.042 156.982 214.932 156.921 214.838C156.86 214.745 156.777 214.672 156.672 214.621C156.567 214.571 156.448 214.545 156.317 214.545C156.177 214.545 156.055 214.574 155.951 214.632C155.848 214.689 155.768 214.769 155.711 214.872C155.656 214.975 155.628 215.096 155.628 215.234H155.209C155.209 215.021 155.258 214.834 155.356 214.673C155.455 214.512 155.588 214.386 155.758 214.297C155.928 214.207 156.119 214.162 156.331 214.162C156.544 214.162 156.733 214.207 156.898 214.297C157.062 214.386 157.191 214.508 157.285 214.661C157.378 214.813 157.425 214.983 157.425 215.17C157.425 215.304 157.401 215.435 157.352 215.562C157.305 215.689 157.222 215.831 157.104 215.987C156.986 216.142 156.824 216.331 156.615 216.555L155.798 217.429V217.457H157.489V217.848H155.195ZM158.059 217.102V216.74L159.657 214.211H159.92V214.772H159.742L158.535 216.683V216.711H160.687V217.102H158.059ZM159.77 217.848V216.992V216.823V214.211H160.189V217.848H159.77ZM162.971 217.848H162.51L163.845 214.211H164.299L165.635 217.848H165.173L164.086 214.787H164.058L162.971 217.848ZM163.142 216.427H165.003V216.818H163.142V216.427ZM166.144 218.87V215.12H166.549V215.554H166.599C166.63 215.506 166.672 215.446 166.727 215.373C166.782 215.298 166.862 215.232 166.965 215.174C167.069 215.114 167.21 215.085 167.387 215.085C167.617 215.085 167.819 215.142 167.994 215.257C168.17 215.372 168.306 215.535 168.405 215.745C168.503 215.956 168.552 216.205 168.552 216.491C168.552 216.78 168.503 217.03 168.405 217.242C168.306 217.453 168.17 217.616 167.996 217.732C167.822 217.847 167.622 217.904 167.394 217.904C167.219 217.904 167.079 217.875 166.973 217.817C166.868 217.758 166.787 217.691 166.73 217.617C166.673 217.541 166.63 217.478 166.599 217.429H166.563V218.87H166.144ZM166.556 216.484C166.556 216.69 166.586 216.872 166.647 217.029C166.707 217.185 166.795 217.308 166.911 217.397C167.027 217.484 167.169 217.528 167.337 217.528C167.513 217.528 167.659 217.482 167.776 217.39C167.894 217.296 167.983 217.171 168.042 217.013C168.103 216.855 168.133 216.678 168.133 216.484C168.133 216.292 168.103 216.119 168.044 215.966C167.986 215.81 167.898 215.688 167.78 215.598C167.662 215.507 167.515 215.461 167.337 215.461C167.167 215.461 167.024 215.504 166.908 215.591C166.792 215.676 166.704 215.796 166.645 215.95C166.586 216.102 166.556 216.28 166.556 216.484ZM169.191 217.848V215.12H169.596V215.532H169.624C169.674 215.397 169.764 215.288 169.894 215.204C170.024 215.12 170.171 215.078 170.335 215.078C170.365 215.078 170.404 215.078 170.45 215.08C170.496 215.081 170.531 215.083 170.555 215.085V215.511C170.541 215.507 170.508 215.502 170.457 215.495C170.407 215.487 170.355 215.483 170.299 215.483C170.167 215.483 170.048 215.51 169.944 215.566C169.841 215.621 169.759 215.696 169.699 215.793C169.64 215.889 169.61 215.999 169.61 216.122V217.848H169.191ZM171.051 217.848V215.12H171.471V217.848H171.051ZM171.265 214.666C171.183 214.666 171.112 214.638 171.053 214.582C170.995 214.527 170.966 214.46 170.966 214.382C170.966 214.304 170.995 214.237 171.053 214.181C171.112 214.125 171.183 214.098 171.265 214.098C171.346 214.098 171.416 214.125 171.474 214.181C171.533 214.237 171.563 214.304 171.563 214.382C171.563 214.46 171.533 214.527 171.474 214.582C171.416 214.638 171.346 214.666 171.265 214.666ZM172.657 214.211V217.848H172.238V214.211H172.657Z" fill="#D8D8D9"/>
<path d="M28.8011 248.364C28.7415 247.86 28.4995 247.469 28.0753 247.19C27.651 246.912 27.1307 246.773 26.5142 246.773C26.0634 246.773 25.669 246.846 25.331 246.991C24.9962 247.137 24.7344 247.338 24.5455 247.593C24.3598 247.848 24.267 248.138 24.267 248.463C24.267 248.735 24.3317 248.969 24.4609 249.164C24.5935 249.356 24.7625 249.517 24.968 249.646C25.1735 249.772 25.389 249.877 25.6143 249.96C25.8397 250.039 26.0469 250.104 26.2358 250.153L27.2699 250.432C27.535 250.501 27.83 250.598 28.1548 250.72C28.483 250.843 28.7962 251.01 29.0945 251.222C29.3961 251.431 29.6446 251.7 29.8402 252.028C30.0357 252.356 30.1335 252.759 30.1335 253.236C30.1335 253.786 29.9893 254.283 29.701 254.727C29.416 255.171 28.9983 255.524 28.4482 255.786C27.9013 256.048 27.2367 256.179 26.4545 256.179C25.7254 256.179 25.094 256.061 24.5604 255.826C24.0301 255.591 23.6125 255.263 23.3075 254.842C23.0059 254.421 22.8352 253.932 22.7955 253.375H24.0682C24.1013 253.759 24.2306 254.078 24.456 254.33C24.6847 254.578 24.973 254.764 25.321 254.886C25.6723 255.006 26.0502 255.065 26.4545 255.065C26.9252 255.065 27.3478 254.989 27.7223 254.837C28.0968 254.681 28.3935 254.465 28.6122 254.19C28.831 253.912 28.9403 253.587 28.9403 253.216C28.9403 252.878 28.8459 252.603 28.657 252.391C28.468 252.179 28.2195 252.006 27.9112 251.874C27.603 251.741 27.2699 251.625 26.9119 251.526L25.6591 251.168C24.8636 250.939 24.2339 250.612 23.7699 250.188C23.3059 249.764 23.0739 249.209 23.0739 248.523C23.0739 247.953 23.228 247.455 23.5362 247.031C23.8478 246.604 24.2654 246.272 24.7891 246.037C25.3161 245.798 25.9044 245.679 26.554 245.679C27.2102 245.679 27.7936 245.797 28.304 246.032C28.8144 246.264 29.2188 246.582 29.517 246.987C29.8187 247.391 29.9777 247.85 29.9943 248.364H28.8011ZM35.3226 248.364V249.358H31.3652V248.364H35.3226ZM32.5186 246.534H33.6919V253.812C33.6919 254.144 33.74 254.393 33.8361 254.558C33.9355 254.721 34.0615 254.83 34.214 254.886C34.3697 254.939 34.5338 254.966 34.7061 254.966C34.8354 254.966 34.9415 254.959 35.0243 254.946C35.1072 254.929 35.1735 254.916 35.2232 254.906L35.4618 255.96C35.3823 255.99 35.2712 256.02 35.1287 256.05C34.9862 256.083 34.8056 256.099 34.5868 256.099C34.2554 256.099 33.9306 256.028 33.6124 255.886C33.2975 255.743 33.0357 255.526 32.8269 255.234C32.6214 254.943 32.5186 254.575 32.5186 254.131V246.534ZM40.1078 256.159C39.4184 256.159 38.8135 255.995 38.2931 255.667C37.7761 255.339 37.3717 254.88 37.0801 254.29C36.7917 253.7 36.6475 253.01 36.6475 252.222C36.6475 251.426 36.7917 250.732 37.0801 250.138C37.3717 249.545 37.7761 249.085 38.2931 248.756C38.8135 248.428 39.4184 248.264 40.1078 248.264C40.7972 248.264 41.4004 248.428 41.9174 248.756C42.4378 249.085 42.8422 249.545 43.1305 250.138C43.4222 250.732 43.568 251.426 43.568 252.222C43.568 253.01 43.4222 253.7 43.1305 254.29C42.8422 254.88 42.4378 255.339 41.9174 255.667C41.4004 255.995 40.7972 256.159 40.1078 256.159ZM40.1078 255.105C40.6315 255.105 41.0623 254.971 41.4004 254.702C41.7385 254.434 41.9887 254.081 42.1511 253.643C42.3135 253.206 42.3947 252.732 42.3947 252.222C42.3947 251.711 42.3135 251.236 42.1511 250.795C41.9887 250.354 41.7385 249.998 41.4004 249.726C41.0623 249.454 40.6315 249.318 40.1078 249.318C39.5841 249.318 39.1532 249.454 38.8152 249.726C38.4771 249.998 38.2269 250.354 38.0645 250.795C37.902 251.236 37.8208 251.711 37.8208 252.222C37.8208 252.732 37.902 253.206 38.0645 253.643C38.2269 254.081 38.4771 254.434 38.8152 254.702C39.1532 254.971 39.5841 255.105 40.1078 255.105ZM48.4613 256.159C47.7454 256.159 47.1289 255.99 46.6119 255.652C46.0948 255.314 45.6971 254.848 45.4187 254.255C45.1403 253.662 45.0011 252.984 45.0011 252.222C45.0011 251.446 45.1436 250.762 45.4286 250.168C45.717 249.572 46.118 249.106 46.6317 248.771C47.1488 248.433 47.752 248.264 48.4414 248.264C48.9783 248.264 49.4622 248.364 49.8931 248.562C50.324 248.761 50.677 249.04 50.9521 249.398C51.2272 249.756 51.3978 250.173 51.4641 250.651H50.2908C50.2013 250.303 50.0025 249.994 49.6942 249.726C49.3893 249.454 48.9783 249.318 48.4613 249.318C48.0039 249.318 47.6029 249.437 47.2582 249.676C46.9168 249.911 46.65 250.245 46.4577 250.675C46.2688 251.103 46.1744 251.605 46.1744 252.182C46.1744 252.772 46.2672 253.286 46.4528 253.723C46.6417 254.161 46.9068 254.5 47.2482 254.742C47.5929 254.984 47.9973 255.105 48.4613 255.105C48.7662 255.105 49.043 255.052 49.2915 254.946C49.5401 254.84 49.7506 254.688 49.9229 254.489C50.0953 254.29 50.2179 254.051 50.2908 253.773H51.4641C51.3978 254.223 51.2338 254.629 50.9719 254.991C50.7134 255.349 50.3704 255.634 49.9428 255.846C49.5186 256.055 49.0247 256.159 48.4613 256.159ZM54.2731 253.216L54.2532 251.764H54.4918L57.8327 248.364H59.2844L55.7248 251.963H55.6254L54.2731 253.216ZM53.1793 256V245.818H54.3526V256H53.1793ZM58.0316 256L55.0487 252.222L55.8839 251.406L59.5231 256H58.0316ZM66.2037 250.074L65.1497 250.372C65.0834 250.196 64.9856 250.026 64.8564 249.86C64.7304 249.691 64.5581 249.552 64.3393 249.442C64.1206 249.333 63.8405 249.278 63.4991 249.278C63.0318 249.278 62.6423 249.386 62.3308 249.602C62.0225 249.814 61.8684 250.084 61.8684 250.412C61.8684 250.704 61.9745 250.934 62.1866 251.103C62.3987 251.272 62.7302 251.413 63.1809 251.526L64.3145 251.804C64.9972 251.97 65.506 252.223 65.8407 252.565C66.1755 252.903 66.3429 253.339 66.3429 253.872C66.3429 254.31 66.2169 254.701 65.965 255.045C65.7164 255.39 65.3684 255.662 64.921 255.861C64.4735 256.06 63.9532 256.159 63.3599 256.159C62.581 256.159 61.9364 255.99 61.426 255.652C60.9155 255.314 60.5924 254.82 60.4565 254.17L61.5701 253.892C61.6762 254.303 61.8767 254.611 62.1717 254.817C62.47 255.022 62.8594 255.125 63.34 255.125C63.8869 255.125 64.3211 255.009 64.6426 254.777C64.9674 254.542 65.1298 254.26 65.1298 253.932C65.1298 253.667 65.037 253.445 64.8514 253.266C64.6658 253.083 64.3807 252.947 63.9963 252.858L62.7235 252.56C62.0242 252.394 61.5105 252.137 61.1824 251.789C60.8575 251.438 60.6951 250.999 60.6951 250.472C60.6951 250.041 60.8161 249.66 61.0581 249.328C61.3033 248.997 61.6364 248.737 62.0574 248.548C62.4816 248.359 62.9622 248.264 63.4991 248.264C64.2548 248.264 64.8481 248.43 65.2789 248.761C65.7131 249.093 66.0214 249.53 66.2037 250.074Z" fill="#00313E"/>
<path d="M34.7358 279.139C34.1525 279.139 33.6271 279.023 33.1598 278.791C32.6925 278.559 32.3179 278.241 32.0362 277.837C31.7545 277.432 31.6004 276.972 31.5739 276.455H32.767C32.8134 276.915 33.0223 277.296 33.3935 277.598C33.768 277.896 34.2154 278.045 34.7358 278.045C35.1534 278.045 35.5246 277.948 35.8494 277.752C36.1776 277.557 36.4344 277.288 36.62 276.947C36.8089 276.602 36.9034 276.213 36.9034 275.778C36.9034 275.334 36.8056 274.938 36.6101 274.59C36.4179 274.239 36.1527 273.962 35.8146 273.76C35.4766 273.558 35.0904 273.455 34.6562 273.452C34.3447 273.448 34.0249 273.496 33.6967 273.596C33.3686 273.692 33.0985 273.816 32.8864 273.969L31.733 273.83L32.3494 268.818H37.6392V269.912H33.3835L33.0256 272.915H33.0852C33.294 272.749 33.5559 272.612 33.8707 272.502C34.1856 272.393 34.5137 272.338 34.8551 272.338C35.4782 272.338 36.0334 272.487 36.5206 272.786C37.0111 273.08 37.3956 273.485 37.674 273.999C37.9557 274.512 38.0966 275.099 38.0966 275.759C38.0966 276.408 37.9508 276.988 37.6591 277.499C37.3707 278.006 36.973 278.407 36.4659 278.702C35.9588 278.993 35.3821 279.139 34.7358 279.139ZM43.3926 279.139C42.6435 279.139 42.0055 278.935 41.4785 278.528C40.9515 278.117 40.5488 277.522 40.2704 276.743C39.992 275.961 39.8528 275.016 39.8528 273.909C39.8528 272.809 39.992 271.869 40.2704 271.09C40.5521 270.308 40.9565 269.711 41.4835 269.3C42.0138 268.886 42.6502 268.679 43.3926 268.679C44.135 268.679 44.7697 268.886 45.2967 269.3C45.827 269.711 46.2314 270.308 46.5098 271.09C46.7915 271.869 46.9324 272.809 46.9324 273.909C46.9324 275.016 46.7931 275.961 46.5147 276.743C46.2363 277.522 45.8336 278.117 45.3066 278.528C44.7797 278.935 44.1416 279.139 43.3926 279.139ZM43.3926 278.045C44.135 278.045 44.7117 277.687 45.1227 276.972C45.5337 276.256 45.7392 275.235 45.7392 273.909C45.7392 273.027 45.6447 272.277 45.4558 271.657C45.2702 271.037 45.0017 270.565 44.6504 270.24C44.3024 269.915 43.8831 269.753 43.3926 269.753C42.6568 269.753 42.0817 270.116 41.6674 270.842C41.2531 271.564 41.046 272.587 41.046 273.909C41.046 274.791 41.1388 275.54 41.3244 276.156C41.51 276.773 41.7768 277.242 42.1248 277.563C42.4761 277.885 42.8987 278.045 43.3926 278.045ZM54.0119 277.091V276.554C54.0119 276.183 54.0881 275.843 54.2406 275.535C54.3964 275.223 54.6217 274.975 54.9167 274.789C55.215 274.6 55.5763 274.506 56.0005 274.506C56.4314 274.506 56.7927 274.6 57.0843 274.789C57.376 274.975 57.5964 275.223 57.7456 275.535C57.8947 275.843 57.9693 276.183 57.9693 276.554V277.091C57.9693 277.462 57.8931 277.804 57.7406 278.115C57.5914 278.423 57.3694 278.672 57.0744 278.861C56.7827 279.046 56.4248 279.139 56.0005 279.139C55.5697 279.139 55.2067 279.046 54.9118 278.861C54.6168 278.672 54.3931 278.423 54.2406 278.115C54.0881 277.804 54.0119 277.462 54.0119 277.091ZM55.0261 276.554V277.091C55.0261 277.399 55.099 277.676 55.2449 277.921C55.3907 278.163 55.6426 278.284 56.0005 278.284C56.3485 278.284 56.5938 278.163 56.7363 277.921C56.8822 277.676 56.9551 277.399 56.9551 277.091V276.554C56.9551 276.246 56.8855 275.971 56.7463 275.729C56.6071 275.483 56.3585 275.361 56.0005 275.361C55.6525 275.361 55.4023 275.483 55.2498 275.729C55.1007 275.971 55.0261 276.246 55.0261 276.554ZM48.9409 271.264V270.727C48.9409 270.356 49.0171 270.016 49.1696 269.708C49.3253 269.397 49.5507 269.148 49.8457 268.962C50.144 268.773 50.5053 268.679 50.9295 268.679C51.3604 268.679 51.7217 268.773 52.0133 268.962C52.305 269.148 52.5254 269.397 52.6745 269.708C52.8237 270.016 52.8983 270.356 52.8983 270.727V271.264C52.8983 271.635 52.822 271.977 52.6696 272.288C52.5204 272.597 52.2984 272.845 52.0034 273.034C51.7117 273.22 51.3538 273.312 50.9295 273.312C50.4986 273.312 50.1357 273.22 49.8407 273.034C49.5458 272.845 49.322 272.597 49.1696 272.288C49.0171 271.977 48.9409 271.635 48.9409 271.264ZM49.9551 270.727V271.264C49.9551 271.572 50.028 271.849 50.1738 272.094C50.3197 272.336 50.5716 272.457 50.9295 272.457C51.2775 272.457 51.5228 272.336 51.6653 272.094C51.8111 271.849 51.8841 271.572 51.8841 271.264V270.727C51.8841 270.419 51.8145 270.144 51.6752 269.902C51.536 269.657 51.2875 269.534 50.9295 269.534C50.5815 269.534 50.3313 269.657 50.1788 269.902C50.0297 270.144 49.9551 270.419 49.9551 270.727ZM49.3187 279L56.3187 268.818H57.4522L50.4522 279H49.3187Z" fill="#00313E"/>
<path d="M115.233 255V244.818H118.793C119.502 244.818 120.087 244.941 120.548 245.186C121.008 245.428 121.351 245.754 121.577 246.165C121.802 246.573 121.915 247.026 121.915 247.523C121.915 247.96 121.837 248.321 121.681 248.607C121.529 248.892 121.326 249.117 121.075 249.283C120.826 249.448 120.556 249.571 120.264 249.651V249.75C120.576 249.77 120.889 249.879 121.204 250.078C121.519 250.277 121.782 250.562 121.994 250.933C122.206 251.304 122.312 251.759 122.312 252.295C122.312 252.806 122.196 253.265 121.964 253.673C121.732 254.08 121.366 254.403 120.866 254.642C120.365 254.881 119.714 255 118.912 255H115.233ZM116.466 253.906H118.912C119.717 253.906 120.289 253.75 120.627 253.439C120.969 253.124 121.139 252.743 121.139 252.295C121.139 251.951 121.051 251.633 120.876 251.341C120.7 251.046 120.45 250.811 120.125 250.635C119.8 250.456 119.416 250.366 118.972 250.366H116.466V253.906ZM116.466 249.293H118.753C119.124 249.293 119.459 249.22 119.757 249.074C120.059 248.928 120.297 248.723 120.473 248.457C120.652 248.192 120.741 247.881 120.741 247.523C120.741 247.075 120.586 246.696 120.274 246.384C119.963 246.069 119.469 245.912 118.793 245.912H116.466V249.293ZM127.282 255.159C126.592 255.159 125.987 254.995 125.467 254.667C124.95 254.339 124.546 253.88 124.254 253.29C123.966 252.7 123.821 252.01 123.821 251.222C123.821 250.426 123.966 249.732 124.254 249.138C124.546 248.545 124.95 248.085 125.467 247.756C125.987 247.428 126.592 247.264 127.282 247.264C127.971 247.264 128.574 247.428 129.091 247.756C129.612 248.085 130.016 248.545 130.304 249.138C130.596 249.732 130.742 250.426 130.742 251.222C130.742 252.01 130.596 252.7 130.304 253.29C130.016 253.88 129.612 254.339 129.091 254.667C128.574 254.995 127.971 255.159 127.282 255.159ZM127.282 254.105C127.805 254.105 128.236 253.971 128.574 253.702C128.912 253.434 129.163 253.081 129.325 252.643C129.487 252.206 129.569 251.732 129.569 251.222C129.569 250.711 129.487 250.236 129.325 249.795C129.163 249.354 128.912 248.998 128.574 248.726C128.236 248.454 127.805 248.318 127.282 248.318C126.758 248.318 126.327 248.454 125.989 248.726C125.651 248.998 125.401 249.354 125.238 249.795C125.076 250.236 124.995 250.711 124.995 251.222C124.995 251.732 125.076 252.206 125.238 252.643C125.401 253.081 125.651 253.434 125.989 253.702C126.327 253.971 126.758 254.105 127.282 254.105ZM133.706 250.406V255H132.533V247.364H133.666V248.557H133.766C133.945 248.169 134.217 247.857 134.581 247.622C134.946 247.384 135.416 247.264 135.993 247.264C136.51 247.264 136.963 247.37 137.35 247.582C137.738 247.791 138.04 248.109 138.255 248.537C138.471 248.961 138.578 249.498 138.578 250.148V255H137.405V250.227C137.405 249.627 137.249 249.16 136.938 248.825C136.626 248.487 136.199 248.318 135.655 248.318C135.28 248.318 134.946 248.399 134.651 248.562C134.359 248.724 134.129 248.961 133.96 249.273C133.791 249.584 133.706 249.962 133.706 250.406ZM143.606 255.159C142.969 255.159 142.408 254.998 141.92 254.677C141.433 254.352 141.052 253.895 140.777 253.305C140.502 252.711 140.364 252.01 140.364 251.202C140.364 250.4 140.502 249.704 140.777 249.114C141.052 248.524 141.435 248.068 141.925 247.746C142.416 247.425 142.983 247.264 143.626 247.264C144.123 247.264 144.516 247.347 144.804 247.513C145.096 247.675 145.318 247.861 145.47 248.07C145.626 248.275 145.747 248.444 145.833 248.577H145.933V244.818H147.106V255H145.972V253.827H145.833C145.747 253.966 145.624 254.142 145.465 254.354C145.306 254.562 145.079 254.75 144.784 254.915C144.489 255.078 144.096 255.159 143.606 255.159ZM143.765 254.105C144.236 254.105 144.633 253.982 144.958 253.737C145.283 253.489 145.53 253.146 145.699 252.708C145.868 252.267 145.952 251.759 145.952 251.182C145.952 250.612 145.87 250.113 145.704 249.685C145.538 249.254 145.293 248.92 144.968 248.681C144.643 248.439 144.242 248.318 143.765 248.318C143.268 248.318 142.853 248.446 142.522 248.701C142.194 248.953 141.947 249.296 141.781 249.73C141.619 250.161 141.538 250.645 141.538 251.182C141.538 251.725 141.621 252.219 141.786 252.663C141.955 253.104 142.204 253.455 142.532 253.717C142.863 253.976 143.274 254.105 143.765 254.105ZM154.827 249.074L153.773 249.372C153.706 249.196 153.609 249.026 153.479 248.86C153.353 248.691 153.181 248.552 152.962 248.442C152.744 248.333 152.464 248.278 152.122 248.278C151.655 248.278 151.265 248.386 150.954 248.602C150.646 248.814 150.491 249.084 150.491 249.412C150.491 249.704 150.598 249.934 150.81 250.103C151.022 250.272 151.353 250.413 151.804 250.526L152.938 250.804C153.62 250.97 154.129 251.223 154.464 251.565C154.799 251.903 154.966 252.339 154.966 252.872C154.966 253.31 154.84 253.701 154.588 254.045C154.339 254.39 153.991 254.662 153.544 254.861C153.097 255.06 152.576 255.159 151.983 255.159C151.204 255.159 150.559 254.99 150.049 254.652C149.539 254.314 149.215 253.82 149.08 253.17L150.193 252.892C150.299 253.303 150.5 253.611 150.795 253.817C151.093 254.022 151.482 254.125 151.963 254.125C152.51 254.125 152.944 254.009 153.266 253.777C153.59 253.542 153.753 253.26 153.753 252.932C153.753 252.667 153.66 252.445 153.474 252.266C153.289 252.083 153.004 251.947 152.619 251.858L151.347 251.56C150.647 251.394 150.134 251.137 149.805 250.789C149.481 250.438 149.318 249.999 149.318 249.472C149.318 249.041 149.439 248.66 149.681 248.328C149.926 247.997 150.259 247.737 150.68 247.548C151.105 247.359 151.585 247.264 152.122 247.264C152.878 247.264 153.471 247.43 153.902 247.761C154.336 248.093 154.644 248.53 154.827 249.074Z" fill="black"/>
<path d="M126.932 278.139C126.276 278.139 125.691 278.027 125.177 277.801C124.666 277.576 124.26 277.263 123.959 276.862C123.661 276.457 123.498 275.988 123.472 275.455H124.724C124.751 275.783 124.864 276.066 125.062 276.305C125.261 276.54 125.522 276.722 125.843 276.852C126.165 276.981 126.521 277.045 126.912 277.045C127.349 277.045 127.737 276.969 128.075 276.817C128.413 276.664 128.679 276.452 128.871 276.18C129.063 275.909 129.159 275.594 129.159 275.236C129.159 274.861 129.066 274.531 128.881 274.246C128.695 273.958 128.423 273.733 128.065 273.57C127.707 273.408 127.27 273.327 126.753 273.327H125.938V272.233H126.753C127.157 272.233 127.512 272.16 127.817 272.014C128.125 271.868 128.365 271.663 128.538 271.398C128.713 271.133 128.801 270.821 128.801 270.463C128.801 270.118 128.725 269.818 128.572 269.563C128.42 269.308 128.205 269.109 127.926 268.967C127.651 268.824 127.326 268.753 126.952 268.753C126.6 268.753 126.269 268.817 125.957 268.947C125.649 269.073 125.397 269.257 125.202 269.499C125.006 269.737 124.9 270.026 124.884 270.364H123.69C123.71 269.83 123.871 269.363 124.173 268.962C124.474 268.557 124.869 268.242 125.356 268.017C125.846 267.792 126.385 267.679 126.972 267.679C127.601 267.679 128.142 267.807 128.592 268.062C129.043 268.314 129.389 268.647 129.631 269.061C129.873 269.475 129.994 269.923 129.994 270.403C129.994 270.977 129.844 271.466 129.542 271.87C129.244 272.274 128.838 272.554 128.324 272.71V272.79C128.967 272.896 129.469 273.169 129.83 273.61C130.192 274.048 130.372 274.589 130.372 275.236C130.372 275.789 130.221 276.286 129.92 276.727C129.621 277.165 129.214 277.509 128.697 277.761C128.18 278.013 127.591 278.139 126.932 278.139ZM135.727 278.139C134.978 278.139 134.339 277.935 133.812 277.528C133.286 277.117 132.883 276.522 132.604 275.743C132.326 274.961 132.187 274.016 132.187 272.909C132.187 271.809 132.326 270.869 132.604 270.09C132.886 269.308 133.29 268.711 133.817 268.3C134.348 267.886 134.984 267.679 135.727 267.679C136.469 267.679 137.104 267.886 137.631 268.3C138.161 268.711 138.565 269.308 138.844 270.09C139.125 270.869 139.266 271.809 139.266 272.909C139.266 274.016 139.127 274.961 138.849 275.743C138.57 276.522 138.168 277.117 137.641 277.528C137.114 277.935 136.476 278.139 135.727 278.139ZM135.727 277.045C136.469 277.045 137.046 276.687 137.457 275.972C137.868 275.256 138.073 274.235 138.073 272.909C138.073 272.027 137.979 271.277 137.79 270.657C137.604 270.037 137.336 269.565 136.984 269.24C136.636 268.915 136.217 268.753 135.727 268.753C134.991 268.753 134.416 269.116 134.001 269.842C133.587 270.564 133.38 271.587 133.38 272.909C133.38 273.791 133.473 274.54 133.658 275.156C133.844 275.773 134.111 276.242 134.459 276.563C134.81 276.885 135.233 277.045 135.727 277.045ZM146.346 276.091V275.554C146.346 275.183 146.422 274.843 146.575 274.535C146.73 274.223 146.956 273.975 147.251 273.789C147.549 273.6 147.91 273.506 148.335 273.506C148.765 273.506 149.127 273.6 149.418 273.789C149.71 273.975 149.93 274.223 150.08 274.535C150.229 274.843 150.303 275.183 150.303 275.554V276.091C150.303 276.462 150.227 276.804 150.075 277.115C149.925 277.423 149.703 277.672 149.408 277.861C149.117 278.046 148.759 278.139 148.335 278.139C147.904 278.139 147.541 278.046 147.246 277.861C146.951 277.672 146.727 277.423 146.575 277.115C146.422 276.804 146.346 276.462 146.346 276.091ZM147.36 275.554V276.091C147.36 276.399 147.433 276.676 147.579 276.921C147.725 277.163 147.977 277.284 148.335 277.284C148.683 277.284 148.928 277.163 149.07 276.921C149.216 276.676 149.289 276.399 149.289 276.091V275.554C149.289 275.246 149.219 274.971 149.08 274.729C148.941 274.483 148.692 274.361 148.335 274.361C147.987 274.361 147.736 274.483 147.584 274.729C147.435 274.971 147.36 275.246 147.36 275.554ZM141.275 270.264V269.727C141.275 269.356 141.351 269.016 141.504 268.708C141.659 268.397 141.885 268.148 142.18 267.962C142.478 267.773 142.839 267.679 143.263 267.679C143.694 267.679 144.056 267.773 144.347 267.962C144.639 268.148 144.859 268.397 145.009 268.708C145.158 269.016 145.232 269.356 145.232 269.727V270.264C145.232 270.635 145.156 270.977 145.004 271.288C144.854 271.597 144.632 271.845 144.337 272.034C144.046 272.22 143.688 272.312 143.263 272.312C142.833 272.312 142.47 272.22 142.175 272.034C141.88 271.845 141.656 271.597 141.504 271.288C141.351 270.977 141.275 270.635 141.275 270.264ZM142.289 269.727V270.264C142.289 270.572 142.362 270.849 142.508 271.094C142.654 271.336 142.906 271.457 143.263 271.457C143.612 271.457 143.857 271.336 143.999 271.094C144.145 270.849 144.218 270.572 144.218 270.264V269.727C144.218 269.419 144.148 269.144 144.009 268.902C143.87 268.657 143.621 268.534 143.263 268.534C142.915 268.534 142.665 268.657 142.513 268.902C142.364 269.144 142.289 269.419 142.289 269.727ZM141.653 278L148.653 267.818H149.786L142.786 278H141.653Z" fill="black"/>
<path d="M180.233 255V244.818H183.673C184.469 244.818 185.122 244.954 185.632 245.226C186.143 245.494 186.52 245.864 186.766 246.335C187.011 246.805 187.134 247.34 187.134 247.94C187.134 248.54 187.011 249.072 186.766 249.536C186.52 250 186.144 250.365 185.637 250.63C185.13 250.892 184.482 251.023 183.693 251.023H180.909V249.909H183.653C184.197 249.909 184.634 249.83 184.966 249.67C185.301 249.511 185.543 249.286 185.692 248.994C185.844 248.699 185.92 248.348 185.92 247.94C185.92 247.533 185.844 247.176 185.692 246.871C185.539 246.567 185.296 246.331 184.961 246.165C184.626 245.996 184.184 245.912 183.634 245.912H181.466V255H180.233ZM185.026 250.426L187.531 255H186.099L183.634 250.426H185.026ZM192.149 255.159C191.413 255.159 190.778 254.997 190.244 254.672C189.714 254.344 189.305 253.886 189.017 253.3C188.731 252.71 188.589 252.024 188.589 251.241C188.589 250.459 188.731 249.77 189.017 249.173C189.305 248.573 189.706 248.106 190.22 247.771C190.737 247.433 191.34 247.264 192.029 247.264C192.427 247.264 192.82 247.33 193.208 247.463C193.595 247.596 193.948 247.811 194.267 248.109C194.585 248.404 194.838 248.795 195.027 249.283C195.216 249.77 195.311 250.37 195.311 251.082V251.58H189.424V250.565H194.117C194.117 250.134 194.031 249.75 193.859 249.412C193.69 249.074 193.448 248.807 193.133 248.612C192.821 248.416 192.454 248.318 192.029 248.318C191.562 248.318 191.158 248.434 190.816 248.666C190.478 248.895 190.218 249.193 190.036 249.561C189.853 249.929 189.762 250.323 189.762 250.744V251.42C189.762 251.997 189.862 252.486 190.061 252.887C190.263 253.285 190.543 253.588 190.901 253.797C191.259 254.002 191.675 254.105 192.149 254.105C192.457 254.105 192.735 254.062 192.984 253.976C193.236 253.886 193.453 253.754 193.635 253.578C193.817 253.399 193.958 253.177 194.058 252.912L195.191 253.23C195.072 253.615 194.871 253.953 194.59 254.244C194.308 254.533 193.96 254.758 193.546 254.92C193.131 255.08 192.666 255.159 192.149 255.159ZM199.343 255.179C198.859 255.179 198.419 255.088 198.025 254.906C197.631 254.72 197.317 254.453 197.085 254.105C196.853 253.754 196.737 253.33 196.737 252.832C196.737 252.395 196.824 252.04 196.996 251.768C197.168 251.493 197.399 251.278 197.687 251.122C197.975 250.966 198.294 250.85 198.642 250.774C198.993 250.695 199.346 250.632 199.7 250.585C200.164 250.526 200.541 250.481 200.829 250.451C201.121 250.418 201.333 250.363 201.465 250.287C201.601 250.211 201.669 250.078 201.669 249.889V249.849C201.669 249.359 201.535 248.978 201.267 248.706C201.001 248.434 200.599 248.298 200.058 248.298C199.498 248.298 199.059 248.421 198.741 248.666C198.423 248.911 198.199 249.173 198.07 249.452L196.956 249.054C197.155 248.59 197.42 248.229 197.752 247.97C198.086 247.708 198.451 247.526 198.845 247.423C199.243 247.317 199.634 247.264 200.019 247.264C200.264 247.264 200.546 247.294 200.864 247.354C201.185 247.41 201.495 247.528 201.794 247.707C202.095 247.886 202.345 248.156 202.544 248.517C202.743 248.878 202.843 249.362 202.843 249.969V255H201.669V253.966H201.61C201.53 254.132 201.397 254.309 201.212 254.498C201.026 254.687 200.779 254.848 200.471 254.98C200.163 255.113 199.787 255.179 199.343 255.179ZM199.521 254.125C199.985 254.125 200.377 254.034 200.695 253.852C201.016 253.669 201.258 253.434 201.421 253.146C201.586 252.857 201.669 252.554 201.669 252.236V251.162C201.619 251.222 201.51 251.276 201.341 251.326C201.175 251.372 200.983 251.414 200.764 251.45C200.549 251.483 200.338 251.513 200.133 251.54C199.931 251.563 199.767 251.583 199.641 251.599C199.336 251.639 199.051 251.704 198.786 251.793C198.524 251.879 198.312 252.01 198.149 252.186C197.99 252.358 197.911 252.594 197.911 252.892C197.911 253.3 198.061 253.608 198.363 253.817C198.668 254.022 199.054 254.125 199.521 254.125ZM206.157 244.818V255H204.984V244.818H206.157ZM212.403 255V244.818H218.548V245.912H213.636V249.352H218.23V250.446H213.636V253.906H218.627V255H212.403ZM226.02 249.074L224.966 249.372C224.9 249.196 224.802 249.026 224.673 248.86C224.547 248.691 224.374 248.552 224.156 248.442C223.937 248.333 223.657 248.278 223.316 248.278C222.848 248.278 222.459 248.386 222.147 248.602C221.839 248.814 221.685 249.084 221.685 249.412C221.685 249.704 221.791 249.934 222.003 250.103C222.215 250.272 222.547 250.413 222.997 250.526L224.131 250.804C224.814 250.97 225.322 251.223 225.657 251.565C225.992 251.903 226.159 252.339 226.159 252.872C226.159 253.31 226.033 253.701 225.781 254.045C225.533 254.39 225.185 254.662 224.737 254.861C224.29 255.06 223.77 255.159 223.176 255.159C222.397 255.159 221.753 254.99 221.242 254.652C220.732 254.314 220.409 253.82 220.273 253.17L221.387 252.892C221.493 253.303 221.693 253.611 221.988 253.817C222.286 254.022 222.676 254.125 223.156 254.125C223.703 254.125 224.137 254.009 224.459 253.777C224.784 253.542 224.946 253.26 224.946 252.932C224.946 252.667 224.853 252.445 224.668 252.266C224.482 252.083 224.197 251.947 223.813 251.858L222.54 251.56C221.841 251.394 221.327 251.137 220.999 250.789C220.674 250.438 220.512 249.999 220.512 249.472C220.512 249.041 220.633 248.66 220.874 248.328C221.12 247.997 221.453 247.737 221.874 247.548C222.298 247.359 222.779 247.264 223.316 247.264C224.071 247.264 224.664 247.43 225.095 247.761C225.53 248.093 225.838 248.53 226.02 249.074ZM231.246 247.364V248.358H227.289V247.364H231.246ZM228.442 245.534H229.616V252.812C229.616 253.144 229.664 253.393 229.76 253.558C229.859 253.721 229.985 253.83 230.138 253.886C230.294 253.939 230.458 253.966 230.63 253.966C230.759 253.966 230.865 253.959 230.948 253.946C231.031 253.929 231.097 253.916 231.147 253.906L231.386 254.96C231.306 254.99 231.195 255.02 231.053 255.05C230.91 255.083 230.729 255.099 230.511 255.099C230.179 255.099 229.854 255.028 229.536 254.886C229.221 254.743 228.96 254.526 228.751 254.234C228.545 253.943 228.442 253.575 228.442 253.131V245.534ZM235.259 255.179C234.775 255.179 234.335 255.088 233.941 254.906C233.547 254.72 233.233 254.453 233.001 254.105C232.769 253.754 232.653 253.33 232.653 252.832C232.653 252.395 232.74 252.04 232.912 251.768C233.084 251.493 233.315 251.278 233.603 251.122C233.891 250.966 234.21 250.85 234.558 250.774C234.909 250.695 235.262 250.632 235.616 250.585C236.08 250.526 236.457 250.481 236.745 250.451C237.037 250.418 237.249 250.363 237.381 250.287C237.517 250.211 237.585 250.078 237.585 249.889V249.849C237.585 249.359 237.451 248.978 237.183 248.706C236.917 248.434 236.515 248.298 235.974 248.298C235.414 248.298 234.975 248.421 234.657 248.666C234.339 248.911 234.115 249.173 233.986 249.452L232.872 249.054C233.071 248.59 233.336 248.229 233.668 247.97C234.002 247.708 234.367 247.526 234.761 247.423C235.159 247.317 235.55 247.264 235.935 247.264C236.18 247.264 236.462 247.294 236.78 247.354C237.101 247.41 237.411 247.528 237.71 247.707C238.011 247.886 238.261 248.156 238.46 248.517C238.659 248.878 238.759 249.362 238.759 249.969V255H237.585V253.966H237.526C237.446 254.132 237.313 254.309 237.128 254.498C236.942 254.687 236.695 254.848 236.387 254.98C236.079 255.113 235.703 255.179 235.259 255.179ZM235.438 254.125C235.902 254.125 236.293 254.034 236.611 253.852C236.932 253.669 237.174 253.434 237.337 253.146C237.502 252.857 237.585 252.554 237.585 252.236V251.162C237.536 251.222 237.426 251.276 237.257 251.326C237.091 251.372 236.899 251.414 236.68 251.45C236.465 251.483 236.254 251.513 236.049 251.54C235.847 251.563 235.683 251.583 235.557 251.599C235.252 251.639 234.967 251.704 234.702 251.793C234.44 251.879 234.228 252.01 234.065 252.186C233.906 252.358 233.827 252.594 233.827 252.892C233.827 253.3 233.978 253.608 234.279 253.817C234.584 254.022 234.97 254.125 235.438 254.125ZM244.221 247.364V248.358H240.264V247.364H244.221ZM241.417 245.534H242.59V252.812C242.59 253.144 242.638 253.393 242.735 253.558C242.834 253.721 242.96 253.83 243.112 253.886C243.268 253.939 243.432 253.966 243.605 253.966C243.734 253.966 243.84 253.959 243.923 253.946C244.006 253.929 244.072 253.916 244.122 253.906L244.36 254.96C244.281 254.99 244.17 255.02 244.027 255.05C243.885 255.083 243.704 255.099 243.485 255.099C243.154 255.099 242.829 255.028 242.511 254.886C242.196 254.743 241.934 254.526 241.725 254.234C241.52 253.943 241.417 253.575 241.417 253.131V245.534ZM249.106 255.159C248.37 255.159 247.735 254.997 247.202 254.672C246.671 254.344 246.262 253.886 245.974 253.3C245.689 252.71 245.546 252.024 245.546 251.241C245.546 250.459 245.689 249.77 245.974 249.173C246.262 248.573 246.663 248.106 247.177 247.771C247.694 247.433 248.297 247.264 248.986 247.264C249.384 247.264 249.777 247.33 250.165 247.463C250.552 247.596 250.905 247.811 251.224 248.109C251.542 248.404 251.795 248.795 251.984 249.283C252.173 249.77 252.268 250.37 252.268 251.082V251.58H246.381V250.565H251.074C251.074 250.134 250.988 249.75 250.816 249.412C250.647 249.074 250.405 248.807 250.09 248.612C249.778 248.416 249.411 248.318 248.986 248.318C248.519 248.318 248.115 248.434 247.773 248.666C247.435 248.895 247.175 249.193 246.993 249.561C246.81 249.929 246.719 250.323 246.719 250.744V251.42C246.719 251.997 246.819 252.486 247.018 252.887C247.22 253.285 247.5 253.588 247.858 253.797C248.216 254.002 248.632 254.105 249.106 254.105C249.414 254.105 249.692 254.062 249.941 253.976C250.193 253.886 250.41 253.754 250.592 253.578C250.774 253.399 250.915 253.177 251.015 252.912L252.148 253.23C252.029 253.615 251.828 253.953 251.547 254.244C251.265 254.533 250.917 254.758 250.503 254.92C250.088 255.08 249.623 255.159 249.106 255.159Z" fill="black"/>
<path d="M202.554 278V277.105L205.915 273.426C206.309 272.995 206.634 272.621 206.889 272.303C207.144 271.981 207.333 271.679 207.456 271.398C207.582 271.113 207.645 270.814 207.645 270.503C207.645 270.145 207.559 269.835 207.386 269.573C207.217 269.311 206.985 269.109 206.69 268.967C206.395 268.824 206.064 268.753 205.696 268.753C205.305 268.753 204.964 268.834 204.672 268.996C204.384 269.156 204.16 269.379 204.001 269.668C203.845 269.956 203.767 270.294 203.767 270.682H202.594C202.594 270.085 202.731 269.562 203.006 269.111C203.281 268.66 203.656 268.309 204.13 268.057C204.607 267.805 205.143 267.679 205.736 267.679C206.332 267.679 206.861 267.805 207.322 268.057C207.782 268.309 208.144 268.648 208.406 269.076C208.667 269.504 208.798 269.979 208.798 270.503C208.798 270.877 208.73 271.244 208.594 271.602C208.462 271.956 208.23 272.352 207.898 272.79C207.57 273.224 207.115 273.754 206.531 274.381L204.244 276.827V276.906H208.977V278H202.554ZM214.352 278.139C213.603 278.139 212.964 277.935 212.438 277.528C211.911 277.117 211.508 276.522 211.229 275.743C210.951 274.961 210.812 274.016 210.812 272.909C210.812 271.809 210.951 270.869 211.229 270.09C211.511 269.308 211.915 268.711 212.442 268.3C212.973 267.886 213.609 267.679 214.352 267.679C215.094 267.679 215.729 267.886 216.256 268.3C216.786 268.711 217.19 269.308 217.469 270.09C217.75 270.869 217.891 271.809 217.891 272.909C217.891 274.016 217.752 274.961 217.474 275.743C217.195 276.522 216.793 277.117 216.266 277.528C215.739 277.935 215.101 278.139 214.352 278.139ZM214.352 277.045C215.094 277.045 215.671 276.687 216.082 275.972C216.493 275.256 216.698 274.235 216.698 272.909C216.698 272.027 216.604 271.277 216.415 270.657C216.229 270.037 215.961 269.565 215.609 269.24C215.261 268.915 214.842 268.753 214.352 268.753C213.616 268.753 213.041 269.116 212.626 269.842C212.212 270.564 212.005 271.587 212.005 272.909C212.005 273.791 212.098 274.54 212.283 275.156C212.469 275.773 212.736 276.242 213.084 276.563C213.435 276.885 213.858 277.045 214.352 277.045ZM224.971 276.091V275.554C224.971 275.183 225.047 274.843 225.2 274.535C225.355 274.223 225.581 273.975 225.876 273.789C226.174 273.6 226.535 273.506 226.96 273.506C227.39 273.506 227.752 273.6 228.043 273.789C228.335 273.975 228.555 274.223 228.705 274.535C228.854 274.843 228.928 275.183 228.928 275.554V276.091C228.928 276.462 228.852 276.804 228.7 277.115C228.55 277.423 228.328 277.672 228.033 277.861C227.742 278.046 227.384 278.139 226.96 278.139C226.529 278.139 226.166 278.046 225.871 277.861C225.576 277.672 225.352 277.423 225.2 277.115C225.047 276.804 224.971 276.462 224.971 276.091ZM225.985 275.554V276.091C225.985 276.399 226.058 276.676 226.204 276.921C226.35 277.163 226.602 277.284 226.96 277.284C227.308 277.284 227.553 277.163 227.695 276.921C227.841 276.676 227.914 276.399 227.914 276.091V275.554C227.914 275.246 227.844 274.971 227.705 274.729C227.566 274.483 227.317 274.361 226.96 274.361C226.612 274.361 226.361 274.483 226.209 274.729C226.06 274.971 225.985 275.246 225.985 275.554ZM219.9 270.264V269.727C219.9 269.356 219.976 269.016 220.129 268.708C220.284 268.397 220.51 268.148 220.805 267.962C221.103 267.773 221.464 267.679 221.888 267.679C222.319 267.679 222.681 267.773 222.972 267.962C223.264 268.148 223.484 268.397 223.634 268.708C223.783 269.016 223.857 269.356 223.857 269.727V270.264C223.857 270.635 223.781 270.977 223.629 271.288C223.479 271.597 223.257 271.845 222.962 272.034C222.671 272.22 222.313 272.312 221.888 272.312C221.458 272.312 221.095 272.22 220.8 272.034C220.505 271.845 220.281 271.597 220.129 271.288C219.976 270.977 219.9 270.635 219.9 270.264ZM220.914 269.727V270.264C220.914 270.572 220.987 270.849 221.133 271.094C221.279 271.336 221.531 271.457 221.888 271.457C222.237 271.457 222.482 271.336 222.624 271.094C222.77 270.849 222.843 270.572 222.843 270.264V269.727C222.843 269.419 222.773 269.144 222.634 268.902C222.495 268.657 222.246 268.534 221.888 268.534C221.54 268.534 221.29 268.657 221.138 268.902C220.989 269.144 220.914 269.419 220.914 269.727ZM220.278 278L227.278 267.818H228.411L221.411 278H220.278Z" fill="black"/>
<path d="M26.18 26.38V41H23.62V26.38H26.18ZM31.5008 41H29.0608V31.12H31.3208L31.5208 32.4C32.1408 31.4 33.3408 30.82 34.6808 30.82C37.1608 30.82 38.4408 32.36 38.4408 34.92V41H36.0008V35.5C36.0008 33.84 35.1808 33.04 33.9208 33.04C32.4208 33.04 31.5008 34.08 31.5008 35.68V41ZM40.2581 36.04C40.2581 32.98 42.2781 30.82 45.1981 30.82C47.8981 30.82 49.7381 32.32 49.9981 34.7H47.5581C47.2781 33.58 46.4581 33 45.2981 33C43.7381 33 42.6981 34.18 42.6981 36.04C42.6981 37.9 43.6581 39.06 45.2181 39.06C46.4381 39.06 47.2981 38.46 47.5581 37.38H50.0181C49.7181 39.68 47.7981 41.26 45.2181 41.26C42.2181 41.26 40.2581 39.18 40.2581 36.04ZM51.2542 36.04C51.2542 32.96 53.4742 30.84 56.5342 30.84C59.5942 30.84 61.8142 32.96 61.8142 36.04C61.8142 39.12 59.5942 41.24 56.5342 41.24C53.4742 41.24 51.2542 39.12 51.2542 36.04ZM53.6942 36.04C53.6942 37.84 54.8542 39.06 56.5342 39.06C58.2142 39.06 59.3742 37.84 59.3742 36.04C59.3742 34.24 58.2142 33.02 56.5342 33.02C54.8542 33.02 53.6942 34.24 53.6942 36.04ZM66.1883 41H63.7483V31.12H65.9883L66.1883 32.28C66.6883 31.46 67.6883 30.82 69.1083 30.82C70.6083 30.82 71.6483 31.56 72.1683 32.7C72.6683 31.56 73.8283 30.82 75.3283 30.82C77.7283 30.82 79.0483 32.26 79.0483 34.54V41H76.6283V35.18C76.6283 33.76 75.8683 33.02 74.7083 33.02C73.5283 33.02 72.6283 33.78 72.6283 35.4V41H70.1883V35.16C70.1883 33.78 69.4483 33.04 68.2883 33.04C67.1283 33.04 66.1883 33.8 66.1883 35.4V41ZM85.8636 41.26C82.9236 41.26 80.8636 39.12 80.8636 36.06C80.8636 32.96 82.8836 30.82 85.7836 30.82C88.7436 30.82 90.6236 32.8 90.6236 35.88V36.62L83.1836 36.64C83.3636 38.38 84.2836 39.26 85.9036 39.26C87.2436 39.26 88.1236 38.74 88.4036 37.8H90.6636C90.2436 39.96 88.4436 41.26 85.8636 41.26ZM85.8036 32.82C84.3636 32.82 83.4836 33.6 83.2436 35.08H88.2036C88.2036 33.72 87.2636 32.82 85.8036 32.82ZM107.722 41L106.742 39.9C105.582 40.78 104.102 41.26 102.342 41.26C99.1616 41.26 97.0216 39.58 97.0216 37.12C97.0216 35.34 98.1816 33.88 100.422 32.8C99.2816 31.48 98.8416 30.58 98.8416 29.48C98.8416 27.54 100.422 26.14 102.582 26.14C104.722 26.14 106.202 27.46 106.202 29.36C106.202 30.82 105.422 31.98 103.602 33.2L106.542 36.5C106.802 35.8 106.942 34.96 106.942 34H109.322C109.322 35.7 108.922 37.16 108.182 38.32L110.562 41H107.722ZM101.162 29.46C101.162 30.18 101.482 30.78 102.422 31.86C103.442 31.26 103.942 30.44 103.942 29.44C103.942 28.58 103.422 28.08 102.582 28.08C101.702 28.08 101.162 28.6 101.162 29.46ZM99.6016 36.88C99.6016 38.3 100.742 39.16 102.622 39.16C103.722 39.16 104.622 38.86 105.322 38.3L101.602 34.12C100.222 34.9 99.6016 35.74 99.6016 36.88ZM126.118 41H117.038V26.38H126.118V28.74H119.598V32.5H125.438V34.76H119.598V38.64H126.118V41ZM130.253 41H127.473L130.873 36.16L127.473 31.12H130.313L132.493 34.48L134.593 31.12H137.333L133.973 36.12L137.233 41H134.433L132.333 37.74L130.253 41ZM138.787 45.58V31.12H141.047L141.207 32.62C141.807 31.48 143.107 30.82 144.607 30.82C147.387 30.82 149.227 32.84 149.227 35.94C149.227 39.02 147.547 41.26 144.607 41.26C143.127 41.26 141.847 40.68 141.227 39.68V45.58H138.787ZM141.247 36.06C141.247 37.84 142.347 39.06 144.027 39.06C145.747 39.06 146.767 37.82 146.767 36.06C146.767 34.3 145.747 33.04 144.027 33.04C142.347 33.04 141.247 34.28 141.247 36.06ZM155.59 41.26C152.65 41.26 150.59 39.12 150.59 36.06C150.59 32.96 152.61 30.82 155.51 30.82C158.47 30.82 160.35 32.8 160.35 35.88V36.62L152.91 36.64C153.09 38.38 154.01 39.26 155.63 39.26C156.97 39.26 157.85 38.74 158.13 37.8H160.39C159.97 39.96 158.17 41.26 155.59 41.26ZM155.53 32.82C154.09 32.82 153.21 33.6 152.97 35.08H157.93C157.93 33.72 156.99 32.82 155.53 32.82ZM164.743 41H162.303V31.12H164.563L164.763 32.4C165.383 31.4 166.583 30.82 167.923 30.82C170.403 30.82 171.683 32.36 171.683 34.92V41H169.243V35.5C169.243 33.84 168.423 33.04 167.163 33.04C165.663 33.04 164.743 34.08 164.743 35.68V41ZM173.203 38H175.523C175.543 38.86 176.183 39.4 177.303 39.4C178.443 39.4 179.063 38.94 179.063 38.22C179.063 37.72 178.803 37.36 177.923 37.16L176.143 36.74C174.363 36.34 173.503 35.5 173.503 33.92C173.503 31.98 175.143 30.82 177.423 30.82C179.643 30.82 181.143 32.1 181.163 34.02H178.843C178.823 33.18 178.263 32.64 177.323 32.64C176.363 32.64 175.803 33.08 175.803 33.82C175.803 34.38 176.243 34.74 177.083 34.94L178.863 35.36C180.523 35.74 181.363 36.5 181.363 38.02C181.363 40.02 179.663 41.26 177.223 41.26C174.763 41.26 173.203 39.94 173.203 38ZM187.641 41.26C184.701 41.26 182.641 39.12 182.641 36.06C182.641 32.96 184.661 30.82 187.561 30.82C190.521 30.82 192.401 32.8 192.401 35.88V36.62L184.961 36.64C185.141 38.38 186.061 39.26 187.681 39.26C189.021 39.26 189.901 38.74 190.181 37.8H192.441C192.021 39.96 190.221 41.26 187.641 41.26ZM187.581 32.82C186.141 32.82 185.261 33.6 185.021 35.08H189.981C189.981 33.72 189.041 32.82 187.581 32.82ZM193.594 38H195.914C195.934 38.86 196.574 39.4 197.694 39.4C198.834 39.4 199.454 38.94 199.454 38.22C199.454 37.72 199.194 37.36 198.314 37.16L196.534 36.74C194.754 36.34 193.894 35.5 193.894 33.92C193.894 31.98 195.534 30.82 197.814 30.82C200.034 30.82 201.534 32.1 201.554 34.02H199.234C199.214 33.18 198.654 32.64 197.714 32.64C196.754 32.64 196.194 33.08 196.194 33.82C196.194 34.38 196.634 34.74 197.474 34.94L199.254 35.36C200.914 35.74 201.754 36.5 201.754 38.02C201.754 40.02 200.054 41.26 197.614 41.26C195.154 41.26 193.594 39.94 193.594 38Z" fill="#00313E"/>
</svg>
