<svg width="250" height="290" viewBox="0 0 250 290" fill="none" xmlns="http://www.w3.org/2000/svg">
<rect width="250" height="290" rx="20" fill="#FFF8F0"/>
<path d="M33.4134 34.9091V48H31.4382V34.9091H33.4134ZM38.0476 42.1705V48H36.1364V38.1818H37.9709V39.7798H38.0923C38.3182 39.2599 38.6719 38.8423 39.1534 38.527C39.6392 38.2116 40.2507 38.054 40.9879 38.054C41.657 38.054 42.2429 38.1946 42.7457 38.4759C43.2486 38.7528 43.6385 39.1662 43.9155 39.7159C44.1925 40.2656 44.331 40.9453 44.331 41.755V48H42.4197V41.9851C42.4197 41.2734 42.2344 40.7173 41.8636 40.3168C41.4929 39.9119 40.9837 39.7095 40.3359 39.7095C39.8928 39.7095 39.4986 39.8054 39.1534 39.9972C38.8125 40.1889 38.5419 40.4702 38.3416 40.8409C38.1456 41.2074 38.0476 41.6506 38.0476 42.1705ZM51.0298 48.1982C50.0795 48.1982 49.2614 47.983 48.5753 47.5526C47.8935 47.1179 47.3693 46.5192 47.0028 45.7564C46.6364 44.9936 46.4531 44.12 46.4531 43.1357C46.4531 42.1385 46.6406 41.2585 47.0156 40.4957C47.3906 39.7287 47.919 39.13 48.6009 38.6996C49.2827 38.2692 50.0859 38.054 51.0107 38.054C51.7564 38.054 52.4212 38.1925 53.005 38.4695C53.5888 38.7422 54.0597 39.1257 54.4176 39.62C54.7798 40.1143 54.995 40.6918 55.0632 41.3523H53.2031C53.1009 40.892 52.8665 40.4957 52.5 40.1634C52.1378 39.831 51.652 39.6648 51.0426 39.6648C50.5099 39.6648 50.0433 39.8054 49.6428 40.0866C49.2464 40.3636 48.9375 40.7599 48.7159 41.2756C48.4943 41.7869 48.3835 42.392 48.3835 43.0909C48.3835 43.8068 48.4922 44.4247 48.7095 44.9446C48.9268 45.4645 49.2337 45.8672 49.63 46.1527C50.0305 46.4382 50.5014 46.581 51.0426 46.581C51.4048 46.581 51.733 46.5149 52.027 46.3828C52.3253 46.2464 52.5746 46.0526 52.7749 45.8011C52.9794 45.5497 53.1222 45.2472 53.2031 44.8935H55.0632C54.995 45.5284 54.7884 46.0952 54.4432 46.5938C54.098 47.0923 53.6357 47.4844 53.0561 47.7699C52.4808 48.0554 51.8054 48.1982 51.0298 48.1982ZM61.2427 48.1982C60.3223 48.1982 59.519 47.9872 58.8329 47.5653C58.1468 47.1435 57.6142 46.5533 57.2349 45.7947C56.8556 45.0362 56.666 44.1499 56.666 43.1357C56.666 42.1172 56.8556 41.2266 57.2349 40.4638C57.6142 39.701 58.1468 39.1087 58.8329 38.6868C59.519 38.2649 60.3223 38.054 61.2427 38.054C62.1632 38.054 62.9664 38.2649 63.6525 38.6868C64.3386 39.1087 64.8713 39.701 65.2505 40.4638C65.6298 41.2266 65.8194 42.1172 65.8194 43.1357C65.8194 44.1499 65.6298 45.0362 65.2505 45.7947C64.8713 46.5533 64.3386 47.1435 63.6525 47.5653C62.9664 47.9872 62.1632 48.1982 61.2427 48.1982ZM61.2491 46.5938C61.8457 46.5938 62.34 46.4361 62.7321 46.1207C63.1241 45.8054 63.4139 45.3857 63.6014 44.8615C63.7931 44.3374 63.889 43.7599 63.889 43.1293C63.889 42.5028 63.7931 41.9276 63.6014 41.4034C63.4139 40.875 63.1241 40.451 62.7321 40.1314C62.34 39.8118 61.8457 39.652 61.2491 39.652C60.6483 39.652 60.1497 39.8118 59.7534 40.1314C59.3613 40.451 59.0694 40.875 58.8777 41.4034C58.6902 41.9276 58.5964 42.5028 58.5964 43.1293C58.5964 43.7599 58.6902 44.3374 58.8777 44.8615C59.0694 45.3857 59.3613 45.8054 59.7534 46.1207C60.1497 46.4361 60.6483 46.5938 61.2491 46.5938ZM67.9528 48V38.1818H69.7873V39.7798H69.9087C70.1133 39.2386 70.4478 38.8168 70.9123 38.5142C71.3768 38.2074 71.9329 38.054 72.5806 38.054C73.2369 38.054 73.7866 38.2074 74.2298 38.5142C74.6772 38.821 75.0075 39.2429 75.2205 39.7798H75.3228C75.5572 39.2557 75.93 38.8381 76.4414 38.527C76.9528 38.2116 77.5621 38.054 78.2695 38.054C79.1602 38.054 79.8867 38.3331 80.4492 38.8913C81.016 39.4496 81.2994 40.2912 81.2994 41.4162V48H79.3881V41.5952C79.3881 40.9304 79.207 40.4489 78.8448 40.1506C78.4826 39.8523 78.0501 39.7031 77.5472 39.7031C76.9251 39.7031 76.4414 39.8949 76.0962 40.2784C75.7511 40.6577 75.5785 41.1456 75.5785 41.7422V48H73.6737V41.4737C73.6737 40.9411 73.5075 40.5128 73.1751 40.1889C72.8427 39.8651 72.4102 39.7031 71.8775 39.7031C71.5153 39.7031 71.1808 39.799 70.8739 39.9908C70.5714 40.1783 70.3263 40.4403 70.1388 40.777C69.9556 41.1136 69.864 41.5036 69.864 41.9467V48H67.9528ZM88.0925 48.1982C87.1252 48.1982 86.2921 47.9915 85.5932 47.5781C84.8986 47.1605 84.3617 46.5746 83.9824 45.8203C83.6074 45.0618 83.4199 44.1733 83.4199 43.1548C83.4199 42.1491 83.6074 41.2628 83.9824 40.4957C84.3617 39.7287 84.8901 39.13 85.5676 38.6996C86.2495 38.2692 87.0463 38.054 87.9583 38.054C88.5123 38.054 89.0492 38.1456 89.5691 38.3288C90.089 38.5121 90.5556 38.7997 90.9689 39.1918C91.3823 39.5838 91.7083 40.093 91.9469 40.7195C92.1855 41.3416 92.3049 42.098 92.3049 42.9886V43.6662H84.5002V42.2344H90.432C90.432 41.7315 90.3297 41.2862 90.1252 40.8984C89.9206 40.5064 89.633 40.1974 89.2623 39.9716C88.8958 39.7457 88.4654 39.6328 87.9711 39.6328C87.4341 39.6328 86.9654 39.7649 86.5648 40.0291C86.1685 40.2891 85.8617 40.63 85.6444 41.0518C85.4313 41.4695 85.3248 41.9233 85.3248 42.4134V43.532C85.3248 44.1882 85.4398 44.7464 85.6699 45.2067C85.9043 45.6669 86.2303 46.0185 86.6479 46.2614C87.0655 46.5 87.5534 46.6193 88.1117 46.6193C88.4739 46.6193 88.8042 46.5682 89.1025 46.4659C89.4007 46.3594 89.6586 46.2017 89.8759 45.9929C90.0932 45.7841 90.2594 45.5263 90.3745 45.2195L92.1834 45.5455C92.0385 46.0781 91.7786 46.5447 91.4036 46.9453C91.0328 47.3416 90.5662 47.6506 90.0037 47.8722C89.4455 48.0895 88.8084 48.1982 88.0925 48.1982ZM102.046 48.2173C101.424 48.2173 100.862 48.1023 100.359 47.8722C99.856 47.6378 99.4576 47.299 99.1635 46.8558C98.8738 46.4126 98.7289 45.8693 98.7289 45.2259C98.7289 44.6719 98.8354 44.2159 99.0485 43.858C99.2615 43.5 99.5492 43.2166 99.9114 43.0078C100.274 42.799 100.678 42.6413 101.126 42.5348C101.573 42.4283 102.029 42.3473 102.494 42.2919C103.082 42.2237 103.559 42.1683 103.926 42.1257C104.292 42.0788 104.558 42.0043 104.725 41.902C104.891 41.7997 104.974 41.6335 104.974 41.4034V41.3587C104.974 40.8004 104.816 40.3679 104.501 40.0611C104.19 39.7543 103.725 39.6009 103.107 39.6009C102.464 39.6009 101.957 39.7436 101.586 40.0291C101.22 40.3104 100.966 40.6236 100.825 40.9688L99.0293 40.5597C99.2424 39.9631 99.5534 39.4815 99.9625 39.1151C100.376 38.7443 100.851 38.4759 101.388 38.3097C101.925 38.1392 102.49 38.054 103.082 38.054C103.474 38.054 103.889 38.1009 104.328 38.1946C104.771 38.2841 105.185 38.4503 105.568 38.6932C105.956 38.9361 106.274 39.2834 106.521 39.7351C106.768 40.1825 106.892 40.7642 106.892 41.4801V48H105.025V46.6577H104.948C104.825 46.9048 104.639 47.1477 104.392 47.3864C104.145 47.625 103.828 47.8232 103.44 47.9808C103.052 48.1385 102.588 48.2173 102.046 48.2173ZM102.462 46.6832C102.99 46.6832 103.442 46.5788 103.817 46.37C104.196 46.1612 104.484 45.8885 104.68 45.5518C104.88 45.2109 104.98 44.8466 104.98 44.4588V43.1932C104.912 43.2614 104.78 43.3253 104.584 43.3849C104.392 43.4403 104.173 43.4893 103.926 43.532C103.678 43.5703 103.438 43.6065 103.203 43.6406C102.969 43.6705 102.773 43.696 102.615 43.7173C102.244 43.7642 101.906 43.843 101.599 43.9538C101.296 44.0646 101.053 44.2244 100.87 44.4332C100.691 44.6378 100.602 44.9105 100.602 45.2514C100.602 45.7244 100.776 46.0824 101.126 46.3253C101.475 46.5639 101.921 46.6832 102.462 46.6832ZM111.348 42.1705V48H109.437V38.1818H111.272V39.7798H111.393C111.619 39.2599 111.973 38.8423 112.454 38.527C112.94 38.2116 113.551 38.054 114.289 38.054C114.958 38.054 115.544 38.1946 116.047 38.4759C116.549 38.7528 116.939 39.1662 117.216 39.7159C117.493 40.2656 117.632 40.9453 117.632 41.755V48H115.721V41.9851C115.721 41.2734 115.535 40.7173 115.164 40.3168C114.794 39.9119 114.284 39.7095 113.637 39.7095C113.194 39.7095 112.799 39.8054 112.454 39.9972C112.113 40.1889 111.843 40.4702 111.642 40.8409C111.446 41.2074 111.348 41.6506 111.348 42.1705ZM123.052 48.2173C122.43 48.2173 121.868 48.1023 121.365 47.8722C120.862 47.6378 120.463 47.299 120.169 46.8558C119.88 46.4126 119.735 45.8693 119.735 45.2259C119.735 44.6719 119.841 44.2159 120.054 43.858C120.267 43.5 120.555 43.2166 120.917 43.0078C121.279 42.799 121.684 42.6413 122.132 42.5348C122.579 42.4283 123.035 42.3473 123.5 42.2919C124.088 42.2237 124.565 42.1683 124.931 42.1257C125.298 42.0788 125.564 42.0043 125.73 41.902C125.897 41.7997 125.98 41.6335 125.98 41.4034V41.3587C125.98 40.8004 125.822 40.3679 125.507 40.0611C125.196 39.7543 124.731 39.6009 124.113 39.6009C123.47 39.6009 122.963 39.7436 122.592 40.0291C122.225 40.3104 121.972 40.6236 121.831 40.9688L120.035 40.5597C120.248 39.9631 120.559 39.4815 120.968 39.1151C121.382 38.7443 121.857 38.4759 122.394 38.3097C122.931 38.1392 123.495 38.054 124.088 38.054C124.48 38.054 124.895 38.1009 125.334 38.1946C125.777 38.2841 126.191 38.4503 126.574 38.6932C126.962 38.9361 127.279 39.2834 127.527 39.7351C127.774 40.1825 127.897 40.7642 127.897 41.4801V48H126.031V46.6577H125.954C125.831 46.9048 125.645 47.1477 125.398 47.3864C125.151 47.625 124.833 47.8232 124.446 47.9808C124.058 48.1385 123.593 48.2173 123.052 48.2173ZM123.468 46.6832C123.996 46.6832 124.448 46.5788 124.823 46.37C125.202 46.1612 125.49 45.8885 125.686 45.5518C125.886 45.2109 125.986 44.8466 125.986 44.4588V43.1932C125.918 43.2614 125.786 43.3253 125.59 43.3849C125.398 43.4403 125.179 43.4893 124.931 43.532C124.684 43.5703 124.444 43.6065 124.209 43.6406C123.975 43.6705 123.779 43.696 123.621 43.7173C123.25 43.7642 122.912 43.843 122.605 43.9538C122.302 44.0646 122.059 44.2244 121.876 44.4332C121.697 44.6378 121.608 44.9105 121.608 45.2514C121.608 45.7244 121.782 46.0824 122.132 46.3253C122.481 46.5639 122.926 46.6832 123.468 46.6832ZM132.354 34.9091V48H130.443V34.9091H132.354ZM136.134 51.6818C135.848 51.6818 135.588 51.6584 135.354 51.6115C135.119 51.5689 134.945 51.522 134.83 51.4709L135.29 49.9048C135.639 49.9986 135.95 50.0391 136.223 50.0263C136.496 50.0135 136.737 49.9112 136.945 49.7195C137.158 49.5277 137.346 49.2145 137.508 48.7798L137.744 48.1278L134.152 38.1818H136.197L138.684 45.8011H138.786L141.273 38.1818H143.325L139.278 49.3104C139.091 49.8217 138.852 50.2543 138.562 50.608C138.273 50.9659 137.928 51.2344 137.527 51.4134C137.126 51.5923 136.662 51.6818 136.134 51.6818ZM149.704 38.1818V39.7159H144.341V38.1818H149.704ZM145.779 35.8295H147.69V45.1172C147.69 45.4879 147.746 45.767 147.857 45.9545C147.967 46.1378 148.11 46.2635 148.285 46.3317C148.464 46.3956 148.658 46.4276 148.866 46.4276C149.02 46.4276 149.154 46.4169 149.269 46.3956C149.384 46.3743 149.474 46.3572 149.538 46.3445L149.883 47.9233C149.772 47.9659 149.614 48.0085 149.41 48.0511C149.205 48.098 148.95 48.1236 148.643 48.1278C148.14 48.1364 147.671 48.0469 147.237 47.8594C146.802 47.6719 146.45 47.3821 146.182 46.9901C145.913 46.598 145.779 46.1058 145.779 45.5135V35.8295ZM151.818 48V38.1818H153.729V48H151.818ZM152.783 36.6669C152.451 36.6669 152.165 36.5561 151.927 36.3345C151.692 36.1087 151.575 35.8402 151.575 35.5291C151.575 35.2138 151.692 34.9453 151.927 34.7237C152.165 34.4979 152.451 34.3849 152.783 34.3849C153.116 34.3849 153.399 34.4979 153.633 34.7237C153.872 34.9453 153.991 35.2138 153.991 35.5291C153.991 35.8402 153.872 36.1087 153.633 36.3345C153.399 36.5561 153.116 36.6669 152.783 36.6669ZM160.436 48.1982C159.486 48.1982 158.668 47.983 157.982 47.5526C157.3 47.1179 156.776 46.5192 156.409 45.7564C156.043 44.9936 155.859 44.12 155.859 43.1357C155.859 42.1385 156.047 41.2585 156.422 40.4957C156.797 39.7287 157.325 39.13 158.007 38.6996C158.689 38.2692 159.492 38.054 160.417 38.054C161.163 38.054 161.827 38.1925 162.411 38.4695C162.995 38.7422 163.466 39.1257 163.824 39.62C164.186 40.1143 164.401 40.6918 164.469 41.3523H162.609C162.507 40.892 162.273 40.4957 161.906 40.1634C161.544 39.831 161.058 39.6648 160.449 39.6648C159.916 39.6648 159.45 39.8054 159.049 40.0866C158.653 40.3636 158.344 40.7599 158.122 41.2756C157.901 41.7869 157.79 42.392 157.79 43.0909C157.79 43.8068 157.898 44.4247 158.116 44.9446C158.333 45.4645 158.64 45.8672 159.036 46.1527C159.437 46.4382 159.908 46.581 160.449 46.581C160.811 46.581 161.139 46.5149 161.433 46.3828C161.732 46.2464 161.981 46.0526 162.181 45.8011C162.386 45.5497 162.528 45.2472 162.609 44.8935H164.469C164.401 45.5284 164.195 46.0952 163.849 46.5938C163.504 47.0923 163.042 47.4844 162.462 47.7699C161.887 48.0554 161.212 48.1982 160.436 48.1982ZM173.871 40.5788L172.138 40.8857C172.066 40.6641 171.951 40.4531 171.793 40.2528C171.64 40.0526 171.431 39.8885 171.167 39.7607C170.903 39.6328 170.572 39.5689 170.176 39.5689C169.635 39.5689 169.183 39.6903 168.821 39.9332C168.459 40.1719 168.278 40.4808 168.278 40.8601C168.278 41.1882 168.399 41.4524 168.642 41.6527C168.885 41.853 169.277 42.017 169.818 42.1449L171.378 42.5028C172.281 42.7116 172.954 43.0334 173.398 43.468C173.841 43.9027 174.062 44.4673 174.062 45.1619C174.062 45.75 173.892 46.2741 173.551 46.7344C173.214 47.1903 172.743 47.5483 172.138 47.8082C171.537 48.0682 170.841 48.1982 170.048 48.1982C168.949 48.1982 168.052 47.9638 167.357 47.495C166.662 47.022 166.236 46.3509 166.079 45.4815L167.926 45.2003C168.041 45.6818 168.278 46.0462 168.635 46.2933C168.993 46.5362 169.46 46.6577 170.035 46.6577C170.662 46.6577 171.162 46.5277 171.537 46.2678C171.912 46.0036 172.1 45.6818 172.1 45.3026C172.1 44.9957 171.985 44.7379 171.755 44.5291C171.529 44.3203 171.182 44.1626 170.713 44.0561L169.051 43.6918C168.135 43.483 167.457 43.1506 167.018 42.6946C166.584 42.2386 166.366 41.6612 166.366 40.9624C166.366 40.3828 166.528 39.8757 166.852 39.4411C167.176 39.0064 167.623 38.6676 168.194 38.4247C168.765 38.1776 169.42 38.054 170.157 38.054C171.218 38.054 172.053 38.2841 172.662 38.7443C173.272 39.2003 173.675 39.8118 173.871 40.5788Z" fill="#00313E"/>
<rect x="30" y="60" width="71.6569" height="26" rx="13" fill="#EBFF74"/>
<path d="M41.707 76.4119V70.1705H42.9489V76.4119H41.707ZM39.2095 73.9098V72.6726H45.451V73.9098H39.2095ZM50.6884 78.1293C50.1098 78.1293 49.5897 78.0185 49.128 77.7969C48.6694 77.5722 48.3032 77.2644 48.0293 76.8736C47.7554 76.4827 47.6092 76.0365 47.5907 75.5348H48.9757C49.0095 75.9411 49.1896 76.275 49.5158 76.5366C49.842 76.7982 50.2329 76.929 50.6884 76.929C51.0516 76.929 51.3732 76.8459 51.6532 76.6797C51.9364 76.5104 52.158 76.2781 52.318 75.9826C52.4811 75.6871 52.5627 75.3501 52.5627 74.9716C52.5627 74.5869 52.4796 74.2437 52.3134 73.9421C52.1472 73.6405 51.9179 73.4035 51.6255 73.2312C51.3362 73.0588 51.0038 72.9711 50.6284 72.968C50.3422 72.968 50.0544 73.0173 49.7651 73.1158C49.4758 73.2143 49.2419 73.3435 49.0634 73.5036L47.7569 73.3097L48.2878 68.5455H53.486V69.7688H49.4743L49.1742 72.4141H49.2296C49.4142 72.2356 49.6589 72.0863 49.9636 71.9663C50.2714 71.8462 50.6007 71.7862 50.9515 71.7862C51.527 71.7862 52.0395 71.9232 52.4888 72.1971C52.9412 72.471 53.2967 72.8449 53.5552 73.3189C53.8168 73.7898 53.9461 74.3314 53.943 74.9439C53.9461 75.5563 53.8076 76.1026 53.5275 76.5827C53.2505 77.0629 52.8658 77.4414 52.3734 77.7184C51.8841 77.9923 51.3224 78.1293 50.6884 78.1293ZM56.2143 78.0877C55.9619 78.0877 55.745 77.9985 55.5634 77.82C55.3818 77.6384 55.291 77.4199 55.291 77.1644C55.291 76.9121 55.3818 76.6966 55.5634 76.5181C55.745 76.3365 55.9619 76.2457 56.2143 76.2457C56.4667 76.2457 56.6837 76.3365 56.8652 76.5181C57.0468 76.6966 57.1376 76.9121 57.1376 77.1644C57.1376 77.3337 57.0945 77.4891 57.0083 77.6307C56.9252 77.7692 56.8145 77.88 56.676 77.9631C56.5375 78.0462 56.3836 78.0877 56.2143 78.0877ZM61.9364 78.1293C61.3578 78.1293 60.8377 78.0185 60.3761 77.7969C59.9175 77.5722 59.5513 77.2644 59.2773 76.8736C59.0034 76.4827 58.8572 76.0365 58.8388 75.5348H60.2237C60.2576 75.9411 60.4376 76.275 60.7638 76.5366C61.0901 76.7982 61.4809 76.929 61.9364 76.929C62.2996 76.929 62.6212 76.8459 62.9013 76.6797C63.1844 76.5104 63.406 76.2781 63.5661 75.9826C63.7292 75.6871 63.8107 75.3501 63.8107 74.9716C63.8107 74.5869 63.7276 74.2437 63.5614 73.9421C63.3952 73.6405 63.166 73.4035 62.8736 73.2312C62.5843 73.0588 62.2519 72.9711 61.8764 72.968C61.5902 72.968 61.3024 73.0173 61.0131 73.1158C60.7238 73.2143 60.4899 73.3435 60.3114 73.5036L59.005 73.3097L59.5359 68.5455H64.734V69.7688H60.7223L60.4222 72.4141H60.4776C60.6623 72.2356 60.907 72.0863 61.2116 71.9663C61.5194 71.8462 61.8487 71.7862 62.1996 71.7862C62.7751 71.7862 63.2875 71.9232 63.7369 72.1971C64.1893 72.471 64.5447 72.8449 64.8033 73.3189C65.0649 73.7898 65.1941 74.3314 65.1911 74.9439C65.1941 75.5563 65.0556 76.1026 64.7756 76.5827C64.4986 77.0629 64.1139 77.4414 63.6214 77.7184C63.1321 77.9923 62.5704 78.1293 61.9364 78.1293ZM75.2527 76.2273V75.7287C75.2527 75.3717 75.3265 75.0455 75.4743 74.75C75.6251 74.4515 75.8436 74.2129 76.1298 74.0344C76.4191 73.8529 76.7684 73.7621 77.1777 73.7621C77.5963 73.7621 77.9471 73.8513 78.2303 74.0298C78.5134 74.2083 78.7273 74.4469 78.872 74.7454C79.0197 75.0439 79.0936 75.3717 79.0936 75.7287V76.2273C79.0936 76.5843 79.0197 76.9121 78.872 77.2106C78.7243 77.506 78.5073 77.7446 78.2211 77.9261C77.9379 78.1046 77.5901 78.1939 77.1777 78.1939C76.7623 78.1939 76.4114 78.1046 76.1252 77.9261C75.839 77.7446 75.622 77.506 75.4743 77.2106C75.3265 76.9121 75.2527 76.5843 75.2527 76.2273ZM76.3283 75.7287V76.2273C76.3283 76.492 76.3914 76.732 76.5176 76.9474C76.6438 77.1629 76.8638 77.2706 77.1777 77.2706C77.4886 77.2706 77.7056 77.1629 77.8287 76.9474C77.9518 76.732 78.0133 76.492 78.0133 76.2273V75.7287C78.0133 75.464 77.9533 75.224 77.8333 75.0085C77.7163 74.7931 77.4978 74.6854 77.1777 74.6854C76.87 74.6854 76.6515 74.7931 76.5222 75.0085C76.3929 75.224 76.3283 75.464 76.3283 75.7287ZM70.4977 70.8168V70.3182C70.4977 69.9612 70.5716 69.6334 70.7193 69.3349C70.8701 69.0363 71.0886 68.7978 71.3748 68.6193C71.6641 68.4408 72.0134 68.3516 72.4228 68.3516C72.8413 68.3516 73.1922 68.4408 73.4753 68.6193C73.7585 68.7978 73.9724 69.0363 74.117 69.3349C74.2617 69.6334 74.334 69.9612 74.334 70.3182V70.8168C74.334 71.1738 74.2601 71.5015 74.1124 71.8001C73.9677 72.0955 73.7523 72.334 73.4661 72.5156C73.1829 72.6941 72.8352 72.7834 72.4228 72.7834C72.0042 72.7834 71.6518 72.6941 71.3656 72.5156C71.0824 72.334 70.867 72.0955 70.7193 71.8001C70.5716 71.5015 70.4977 71.1738 70.4977 70.8168ZM71.5779 70.3182V70.8168C71.5779 71.0814 71.6395 71.3215 71.7626 71.5369C71.8888 71.7524 72.1088 71.8601 72.4228 71.8601C72.7305 71.8601 72.946 71.7524 73.0691 71.5369C73.1953 71.3215 73.2583 71.0814 73.2583 70.8168V70.3182C73.2583 70.0535 73.1983 69.8134 73.0783 69.598C72.9583 69.3826 72.7398 69.2749 72.4228 69.2749C72.115 69.2749 71.8965 69.3826 71.7672 69.598C71.641 69.8134 71.5779 70.0535 71.5779 70.3182ZM70.9363 78L77.4363 68.5455H78.5396L72.0396 78H70.9363Z" fill="#00313E"/>
<path d="M93.6569 70.1716H94.4069C94.4069 69.7574 94.0711 69.4216 93.6569 69.4216V70.1716ZM92.9069 73.7071C92.9069 74.1213 93.2426 74.4571 93.6569 74.4571C94.0711 74.4571 94.4069 74.1213 94.4069 73.7071H92.9069ZM90.1213 69.4216C89.7071 69.4216 89.3713 69.7574 89.3713 70.1716C89.3713 70.5858 89.7071 70.9216 90.1213 70.9216V69.4216ZM87.4697 75.2981C87.1768 75.591 87.1768 76.0659 87.4697 76.3588C87.7626 76.6516 88.2374 76.6516 88.5303 76.3588L87.4697 75.2981ZM92.9069 70.1716V73.7071H94.4069V70.1716H92.9069ZM93.6569 69.4216H90.1213V70.9216H93.6569V69.4216ZM90.6517 74.2374L94.1872 70.7019L93.1265 69.6412L89.591 73.1768L90.6517 74.2374ZM88.5303 76.3588L89.591 75.2981L88.5303 74.2374L87.4697 75.2981L88.5303 76.3588Z" fill="#00313E"/>
<line x1="51" y1="156.75" x2="218" y2="156.75" stroke="#00313E" stroke-opacity="0.05" stroke-width="0.5"/>
<line x1="51" y1="195.75" x2="218" y2="195.75" stroke="#00313E" stroke-opacity="0.05" stroke-width="0.5"/>
<line x1="51" y1="234.75" x2="218" y2="234.75" stroke="#00313E" stroke-opacity="0.05" stroke-width="0.5"/>
<line x1="210.5" y1="157" x2="210.5" y2="190" stroke="#00313E" stroke-opacity="0.2" stroke-dasharray="2 2"/>
<rect x="64" y="180" width="16" height="59" fill="#EBFF74"/>
<rect x="110" y="156" width="16" height="83" fill="#00313E"/>
<rect x="156" y="158" width="16" height="81" fill="#EBFF74"/>
<rect x="202" y="183" width="16" height="56" fill="#00313E"/>
<path d="M64.3977 245.273H65.4545V251.511C65.4545 252.068 65.3523 252.541 65.1477 252.93C64.9432 253.32 64.6548 253.615 64.2827 253.817C63.9105 254.018 63.4716 254.119 62.9659 254.119C62.4886 254.119 62.0639 254.033 61.6918 253.859C61.3196 253.683 61.027 253.433 60.8139 253.109C60.6009 252.786 60.4943 252.401 60.4943 251.955H61.5341C61.5341 252.202 61.5952 252.418 61.7173 252.602C61.8423 252.784 62.0128 252.926 62.2287 253.028C62.4446 253.131 62.6903 253.182 62.9659 253.182C63.2699 253.182 63.5284 253.118 63.7415 252.99C63.9545 252.862 64.1165 252.675 64.2273 252.428C64.3409 252.178 64.3977 251.872 64.3977 251.511V245.273ZM69.3622 254.153C68.9474 254.153 68.571 254.075 68.233 253.919C67.8949 253.76 67.6264 253.531 67.4276 253.233C67.2287 252.932 67.1293 252.568 67.1293 252.142C67.1293 251.767 67.2031 251.463 67.3509 251.23C67.4986 250.994 67.696 250.81 67.9432 250.676C68.1903 250.543 68.4631 250.443 68.7614 250.378C69.0625 250.31 69.3651 250.256 69.669 250.216C70.0668 250.165 70.3892 250.126 70.6364 250.101C70.8864 250.072 71.0682 250.026 71.1818 249.96C71.2983 249.895 71.3565 249.781 71.3565 249.619V249.585C71.3565 249.165 71.2415 248.838 71.0114 248.605C70.7841 248.372 70.4389 248.256 69.9759 248.256C69.4957 248.256 69.1193 248.361 68.8466 248.571C68.5739 248.781 68.3821 249.006 68.2713 249.244L67.3168 248.903C67.4872 248.506 67.7145 248.196 67.9986 247.974C68.2855 247.75 68.598 247.594 68.9361 247.506C69.277 247.415 69.6122 247.369 69.9418 247.369C70.152 247.369 70.3935 247.395 70.6662 247.446C70.9418 247.494 71.2074 247.595 71.4631 247.749C71.7216 247.902 71.9361 248.134 72.1065 248.443C72.277 248.753 72.3622 249.168 72.3622 249.688V254H71.3565V253.114H71.3054C71.2372 253.256 71.1236 253.408 70.9645 253.57C70.8054 253.732 70.5938 253.869 70.3295 253.983C70.0653 254.097 69.7429 254.153 69.3622 254.153ZM69.5156 253.25C69.9134 253.25 70.2486 253.172 70.5213 253.016C70.7969 252.859 71.0043 252.658 71.1435 252.411C71.2855 252.163 71.3565 251.903 71.3565 251.631V250.71C71.3139 250.761 71.2202 250.808 71.0753 250.851C70.9332 250.891 70.7685 250.926 70.581 250.957C70.3963 250.986 70.2159 251.011 70.0398 251.034C69.8665 251.054 69.7259 251.071 69.6179 251.085C69.3565 251.119 69.1122 251.175 68.8849 251.251C68.6605 251.325 68.4787 251.437 68.3395 251.588C68.2031 251.736 68.1349 251.937 68.1349 252.193C68.1349 252.543 68.2642 252.807 68.5227 252.986C68.7841 253.162 69.1151 253.25 69.5156 253.25ZM75.2035 250.062V254H74.1978V247.455H75.1694V248.477H75.2546C75.408 248.145 75.641 247.878 75.9535 247.676C76.266 247.472 76.6694 247.369 77.1637 247.369C77.6069 247.369 77.9947 247.46 78.3271 247.642C78.6594 247.821 78.918 248.094 79.1026 248.46C79.2873 248.824 79.3796 249.284 79.3796 249.841V254H78.3739V249.909C78.3739 249.395 78.2404 248.994 77.9734 248.707C77.7063 248.418 77.3398 248.273 76.8739 248.273C76.5529 248.273 76.266 248.342 76.0131 248.482C75.7631 248.621 75.5657 248.824 75.4208 249.091C75.2759 249.358 75.2035 249.682 75.2035 250.062Z" fill="#00313E" fill-opacity="0.5"/>
<path d="M107.389 254V245.273H112.622V246.21H108.446V249.159H112.23V250.097H108.446V254H107.389ZM116.559 254.136C115.929 254.136 115.385 253.997 114.927 253.719C114.473 253.438 114.122 253.045 113.875 252.543C113.63 252.037 113.508 251.449 113.508 250.778C113.508 250.108 113.63 249.517 113.875 249.006C114.122 248.491 114.466 248.091 114.906 247.804C115.349 247.514 115.866 247.369 116.457 247.369C116.798 247.369 117.135 247.426 117.467 247.54C117.799 247.653 118.102 247.838 118.375 248.094C118.647 248.347 118.865 248.682 119.027 249.099C119.189 249.517 119.27 250.031 119.27 250.642V251.068H114.224V250.199H118.247C118.247 249.83 118.173 249.5 118.025 249.21C117.88 248.92 117.673 248.692 117.403 248.524C117.136 248.357 116.821 248.273 116.457 248.273C116.056 248.273 115.71 248.372 115.417 248.571C115.127 248.767 114.904 249.023 114.748 249.338C114.592 249.653 114.514 249.991 114.514 250.352V250.932C114.514 251.426 114.599 251.845 114.77 252.189C114.943 252.53 115.183 252.79 115.49 252.969C115.797 253.145 116.153 253.233 116.559 253.233C116.824 253.233 117.062 253.196 117.275 253.122C117.491 253.045 117.677 252.932 117.833 252.781C117.99 252.628 118.11 252.437 118.196 252.21L119.167 252.483C119.065 252.812 118.893 253.102 118.652 253.352C118.41 253.599 118.112 253.793 117.757 253.932C117.402 254.068 117.002 254.136 116.559 254.136ZM120.936 254V245.273H121.941V248.494H122.027C122.1 248.381 122.203 248.236 122.333 248.06C122.467 247.881 122.657 247.722 122.904 247.582C123.154 247.44 123.493 247.369 123.919 247.369C124.47 247.369 124.956 247.507 125.376 247.783C125.797 248.058 126.125 248.449 126.36 248.955C126.596 249.46 126.714 250.057 126.714 250.744C126.714 251.438 126.596 252.038 126.36 252.547C126.125 253.053 125.798 253.445 125.38 253.723C124.963 253.999 124.481 254.136 123.936 254.136C123.515 254.136 123.179 254.067 122.926 253.928C122.673 253.786 122.478 253.625 122.342 253.446C122.206 253.264 122.1 253.114 122.027 252.994H121.907V254H120.936ZM121.924 250.727C121.924 251.222 121.997 251.658 122.142 252.036C122.287 252.411 122.498 252.705 122.777 252.918C123.055 253.128 123.396 253.233 123.799 253.233C124.22 253.233 124.571 253.122 124.852 252.901C125.136 252.676 125.349 252.375 125.491 251.997C125.636 251.616 125.708 251.193 125.708 250.727C125.708 250.267 125.637 249.852 125.495 249.483C125.356 249.111 125.145 248.817 124.86 248.601C124.579 248.382 124.225 248.273 123.799 248.273C123.39 248.273 123.047 248.376 122.768 248.584C122.49 248.788 122.279 249.075 122.137 249.445C121.995 249.811 121.924 250.239 121.924 250.727Z" fill="#00313E" fill-opacity="0.5"/>
<path d="M153.725 245.273H154.986L157.952 252.517H158.054L161.02 245.273H162.282V254H161.293V247.369H161.208L158.48 254H157.526L154.799 247.369H154.713V254H153.725V245.273ZM166.19 254.153C165.776 254.153 165.399 254.075 165.061 253.919C164.723 253.76 164.455 253.531 164.256 253.233C164.057 252.932 163.957 252.568 163.957 252.142C163.957 251.767 164.031 251.463 164.179 251.23C164.327 250.994 164.524 250.81 164.771 250.676C165.018 250.543 165.291 250.443 165.589 250.378C165.891 250.31 166.193 250.256 166.497 250.216C166.895 250.165 167.217 250.126 167.464 250.101C167.714 250.072 167.896 250.026 168.01 249.96C168.126 249.895 168.185 249.781 168.185 249.619V249.585C168.185 249.165 168.07 248.838 167.839 248.605C167.612 248.372 167.267 248.256 166.804 248.256C166.324 248.256 165.947 248.361 165.675 248.571C165.402 248.781 165.21 249.006 165.099 249.244L164.145 248.903C164.315 248.506 164.543 248.196 164.827 247.974C165.114 247.75 165.426 247.594 165.764 247.506C166.105 247.415 166.44 247.369 166.77 247.369C166.98 247.369 167.222 247.395 167.494 247.446C167.77 247.494 168.036 247.595 168.291 247.749C168.55 247.902 168.764 248.134 168.935 248.443C169.105 248.753 169.19 249.168 169.19 249.688V254H168.185V253.114H168.134C168.065 253.256 167.952 253.408 167.793 253.57C167.634 253.732 167.422 253.869 167.158 253.983C166.893 254.097 166.571 254.153 166.19 254.153ZM166.344 253.25C166.741 253.25 167.077 253.172 167.349 253.016C167.625 252.859 167.832 252.658 167.972 252.411C168.114 252.163 168.185 251.903 168.185 251.631V250.71C168.142 250.761 168.048 250.808 167.903 250.851C167.761 250.891 167.597 250.926 167.409 250.957C167.224 250.986 167.044 251.011 166.868 251.034C166.695 251.054 166.554 251.071 166.446 251.085C166.185 251.119 165.94 251.175 165.713 251.251C165.489 251.325 165.307 251.437 165.168 251.588C165.031 251.736 164.963 251.937 164.963 252.193C164.963 252.543 165.092 252.807 165.351 252.986C165.612 253.162 165.943 253.25 166.344 253.25ZM171.026 254V247.455H171.998V248.443H172.066C172.185 248.119 172.401 247.857 172.713 247.655C173.026 247.453 173.378 247.352 173.77 247.352C173.844 247.352 173.936 247.354 174.047 247.357C174.158 247.359 174.242 247.364 174.299 247.369V248.392C174.265 248.384 174.186 248.371 174.064 248.354C173.945 248.334 173.819 248.324 173.685 248.324C173.367 248.324 173.083 248.391 172.833 248.524C172.586 248.655 172.39 248.837 172.245 249.07C172.103 249.3 172.032 249.562 172.032 249.858V254H171.026Z" fill="#00313E" fill-opacity="0.5"/>
<path d="M201.415 254H200.307L203.511 245.273H204.602L207.807 254H206.699L204.091 246.653H204.023L201.415 254ZM201.824 250.591H206.29V251.528H201.824V250.591ZM209.03 256.455V247.455H210.001V248.494H210.121C210.195 248.381 210.297 248.236 210.428 248.06C210.561 247.881 210.751 247.722 210.999 247.582C211.249 247.44 211.587 247.369 212.013 247.369C212.564 247.369 213.05 247.507 213.47 247.783C213.891 248.058 214.219 248.449 214.455 248.955C214.69 249.46 214.808 250.057 214.808 250.744C214.808 251.438 214.69 252.038 214.455 252.547C214.219 253.053 213.892 253.445 213.474 253.723C213.057 253.999 212.575 254.136 212.03 254.136C211.609 254.136 211.273 254.067 211.02 253.928C210.767 253.786 210.572 253.625 210.436 253.446C210.3 253.264 210.195 253.114 210.121 252.994H210.036V256.455H209.03ZM210.018 250.727C210.018 251.222 210.091 251.658 210.236 252.036C210.381 252.411 210.592 252.705 210.871 252.918C211.149 253.128 211.49 253.233 211.893 253.233C212.314 253.233 212.665 253.122 212.946 252.901C213.23 252.676 213.443 252.375 213.585 251.997C213.73 251.616 213.803 251.193 213.803 250.727C213.803 250.267 213.732 249.852 213.589 249.483C213.45 249.111 213.239 248.817 212.955 248.601C212.673 248.382 212.32 248.273 211.893 248.273C211.484 248.273 211.141 248.376 210.862 248.584C210.584 248.788 210.374 249.075 210.232 249.445C210.089 249.811 210.018 250.239 210.018 250.727ZM216.342 254V247.455H217.314V248.443H217.382C217.501 248.119 217.717 247.857 218.03 247.655C218.342 247.453 218.695 247.352 219.087 247.352C219.161 247.352 219.253 247.354 219.364 247.357C219.474 247.359 219.558 247.364 219.615 247.369V248.392C219.581 248.384 219.503 248.371 219.381 248.354C219.261 248.334 219.135 248.324 219.001 248.324C218.683 248.324 218.399 248.391 218.149 248.524C217.902 248.655 217.706 248.837 217.561 249.07C217.419 249.3 217.348 249.562 217.348 249.858V254H216.342Z" fill="#00313E" fill-opacity="0.5"/>
<path d="M31.054 162V161.105L34.4148 157.426C34.8092 156.995 35.134 156.621 35.3892 156.303C35.6444 155.981 35.8333 155.679 35.956 155.398C36.0819 155.113 36.1449 154.814 36.1449 154.503C36.1449 154.145 36.0587 153.835 35.8864 153.573C35.7173 153.311 35.4853 153.109 35.1903 152.967C34.8954 152.824 34.5639 152.753 34.196 152.753C33.8049 152.753 33.4635 152.834 33.1719 152.996C32.8835 153.156 32.6598 153.379 32.5007 153.668C32.3449 153.956 32.267 154.294 32.267 154.682H31.0938C31.0938 154.085 31.2313 153.562 31.5064 153.111C31.7815 152.66 32.156 152.309 32.63 152.057C33.1072 151.805 33.6425 151.679 34.2358 151.679C34.8324 151.679 35.361 151.805 35.8217 152.057C36.2824 152.309 36.6437 152.648 36.9055 153.076C37.1674 153.504 37.2983 153.979 37.2983 154.503C37.2983 154.877 37.2304 155.244 37.0945 155.602C36.9619 155.956 36.7299 156.352 36.3984 156.79C36.0703 157.224 35.6146 157.754 35.0312 158.381L32.7443 160.827V160.906H37.4773V162H31.054ZM42.8516 162.139C42.1025 162.139 41.4645 161.935 40.9375 161.528C40.4105 161.117 40.0078 160.522 39.7294 159.743C39.451 158.961 39.3118 158.016 39.3118 156.909C39.3118 155.809 39.451 154.869 39.7294 154.09C40.0111 153.308 40.4155 152.711 40.9425 152.3C41.4728 151.886 42.1091 151.679 42.8516 151.679C43.594 151.679 44.2287 151.886 44.7557 152.3C45.286 152.711 45.6903 153.308 45.9688 154.09C46.2505 154.869 46.3913 155.809 46.3913 156.909C46.3913 158.016 46.2521 158.961 45.9737 159.743C45.6953 160.522 45.2926 161.117 44.7656 161.528C44.2386 161.935 43.6006 162.139 42.8516 162.139ZM42.8516 161.045C43.594 161.045 44.1707 160.687 44.5817 159.972C44.9927 159.256 45.1982 158.235 45.1982 156.909C45.1982 156.027 45.1037 155.277 44.9148 154.657C44.7292 154.037 44.4607 153.565 44.1094 153.24C43.7614 152.915 43.3421 152.753 42.8516 152.753C42.1158 152.753 41.5407 153.116 41.1264 153.842C40.7121 154.564 40.505 155.587 40.505 156.909C40.505 157.791 40.5978 158.54 40.7834 159.156C40.969 159.773 41.2358 160.242 41.5838 160.563C41.9351 160.885 42.3577 161.045 42.8516 161.045ZM49.3942 159.216L49.3743 157.764H49.6129L52.9538 154.364H54.4055L50.8459 157.963H50.7464L49.3942 159.216ZM48.3004 162V151.818H49.4737V162H48.3004ZM53.1527 162L50.1697 158.222L51.005 157.406L54.6442 162H53.1527Z" fill="#00313E" fill-opacity="0.5"/>
<path d="M36.6335 188.818V199H35.4006V190.111H35.3409L32.8551 191.761V190.509L35.4006 188.818H36.6335ZM42.8828 199.139C42.1338 199.139 41.4957 198.935 40.9688 198.528C40.4418 198.117 40.0391 197.522 39.7607 196.743C39.4822 195.961 39.343 195.016 39.343 193.909C39.343 192.809 39.4822 191.869 39.7607 191.09C40.0424 190.308 40.4467 189.711 40.9737 189.3C41.504 188.886 42.1404 188.679 42.8828 188.679C43.6252 188.679 44.2599 188.886 44.7869 189.3C45.3172 189.711 45.7216 190.308 46 191.09C46.2817 191.869 46.4226 192.809 46.4226 193.909C46.4226 195.016 46.2834 195.961 46.005 196.743C45.7266 197.522 45.3239 198.117 44.7969 198.528C44.2699 198.935 43.6319 199.139 42.8828 199.139ZM42.8828 198.045C43.6252 198.045 44.2019 197.687 44.6129 196.972C45.0239 196.256 45.2294 195.235 45.2294 193.909C45.2294 193.027 45.1349 192.277 44.946 191.657C44.7604 191.037 44.492 190.565 44.1406 190.24C43.7926 189.915 43.3733 189.753 42.8828 189.753C42.147 189.753 41.572 190.116 41.1577 190.842C40.7434 191.564 40.5362 192.587 40.5362 193.909C40.5362 194.791 40.629 195.54 40.8146 196.156C41.0002 196.773 41.267 197.242 41.6151 197.563C41.9664 197.885 42.389 198.045 42.8828 198.045ZM49.4254 196.216L49.4055 194.764H49.6442L52.9851 191.364H54.4368L50.8771 194.963H50.7777L49.4254 196.216ZM48.3317 199V188.818H49.505V199H48.3317ZM53.1839 199L50.201 195.222L51.0362 194.406L54.6754 199H53.1839Z" fill="#00313E" fill-opacity="0.5"/>
<path d="M44.6335 225.818V236H43.4006V227.111H43.3409L40.8551 228.761V227.509L43.4006 225.818H44.6335ZM48.6754 233.216L48.6555 231.764H48.8942L52.2351 228.364H53.6868L50.1271 231.963H50.0277L48.6754 233.216ZM47.5817 236V225.818H48.755V236H47.5817ZM52.4339 236L49.451 232.222L50.2862 231.406L53.9254 236H52.4339Z" fill="#00313E" fill-opacity="0.5"/>
<line x1="71.5" y1="155" x2="71.5" y2="179" stroke="#00313E" stroke-opacity="0.2" stroke-dasharray="2 2"/>
</svg>
