<svg width="154" height="39" viewBox="0 0 154 39" fill="none" xmlns="http://www.w3.org/2000/svg">
<g clip-path="url(#clip0_148_1693)">
<path d="M39.5 13.4001H54.7V16.3001H48.7V32.2001H45.4V16.2001H39.5V13.4001ZM54 18.5001H56.8V21.1001H56.9C57 20.7001 57.2 20.3001 57.4 20.0001C57.6 19.6001 57.9 19.3001 58.3 19.0001C58.7 18.7001 59.1 18.5001 59.5 18.3001C60 18.1001 60.4 18.0001 60.9 18.0001C61.3 18.0001 61.5 18.0001 61.7 18.0001C61.9 18.0001 62 18.1001 62.1 18.1001V21.0001C61.9 20.9001 61.6 20.9001 61.4 20.9001C61.2 20.9001 60.9 20.8001 60.7 20.8001C60.2 20.8001 59.7 20.9001 59.3 21.1001C58.8 21.3001 58.5 21.6001 58.1 22.0001C57.8 22.4001 57.5 22.9001 57.3 23.4001C57.1 23.9001 57 24.7001 57 25.4001V31.9001H54V18.5001ZM75.7 32.1001H72.8V30.2001H72.7C72.3 30.9001 71.8 31.4001 71 31.9001C70.2 32.4001 69.5 32.5001 68.7 32.5001C66.9 32.5001 65.6 32.0001 64.8 31.1001C64 30.2001 63.6 28.8001 63.6 27.1001V18.5001H66.6V26.8001C66.6 28.0001 66.8 28.8001 67.3 29.4001C67.8 29.9001 68.4 30.2001 69.3 30.2001C69.9 30.2001 70.4 30.1001 70.9 29.9001C71.4 29.7001 71.7 29.4001 72 29.1001C72.3 28.8001 72.5 28.3001 72.6 27.9001C72.8 27.4001 72.8 26.9001 72.8 26.4001V18.5001H75.8L75.7 32.1001ZM80.8 27.8001C80.9 28.7001 81.3 29.3001 81.8 29.7001C82.4 30.1001 83.1 30.2001 83.9 30.2001C84.2 30.2001 84.5 30.2001 84.9 30.1001C85.3 30.0001 85.6 29.9001 85.9 29.9001C86.2 29.7001 86.5 29.6001 86.7 29.4001C86.9 29.2001 87 28.9001 87 28.5001C87 28.1001 86.8 27.8001 86.5 27.5001C86.2 27.3001 85.9 27.0001 85.5 26.9001C85.1 26.7001 84.6 26.6001 84.1 26.5001C83.6 26.4001 83 26.3001 82.5 26.1001C82 25.9001 81.4 25.8001 80.8 25.6001C80.3 25.4001 79.8 25.2001 79.4 24.8001C79 24.5001 78.6 24.1001 78.4 23.7001C78.2 23.2001 78 22.6001 78 22.0001C78 21.2001 78.2 20.6001 78.5 20.1001C78.9 19.6001 79.3 19.2001 79.9 18.9001C80.5 18.6001 81.1 18.4001 81.8 18.2001C82.5 18.0001 83.2 18.0001 83.8 18.0001C84.5 18.0001 85.2 18.1001 85.8 18.2001C86.4 18.4001 87 18.6001 87.5 19.0001C88 19.3001 88.5 19.8001 88.8 20.3001C89.2 20.8001 89.3 21.5001 89.5 22.3001H86.3C86.1 21.5001 85.8 21.1001 85.3 20.9001C84.8 20.7001 84.2 20.5001 83.5 20.5001C83.3 20.5001 83 20.5001 82.7 20.6001C82.4 20.7001 82.2 20.7001 81.9 20.8001C81.7 20.9001 81.4 21.0001 81.2 21.3001C81 21.5001 80.9 21.8001 80.9 22.1001C80.9 22.5001 81.1 22.8001 81.3 23.0001C81.5 23.2001 81.9 23.4001 82.3 23.6001C82.7 23.8001 83.2 23.9001 83.7 24.0001C84.2 24.1001 84.8 24.2001 85.4 24.4001C86 24.6001 86.5 24.7001 87 24.9001C87.5 25.1001 88 25.3001 88.4 25.7001C88.8 26.0001 89.2 26.4001 89.4 26.8001C89.6 27.3001 89.8 27.9001 89.8 28.5001C89.8 29.3001 89.6 30.0001 89.3 30.5001C88.9 31.0001 88.5 31.6001 87.9 31.9001C87.3 32.3001 86.6 32.5001 85.9 32.7001C85.1 32.9001 84.5 32.9001 83.8 32.9001C83 32.9001 82.1 32.8001 81.4 32.6001C80.6 32.4001 80 32.1001 79.5 31.7001C79 31.3001 78.5 30.8001 78.2 30.2001C77.9 29.6001 77.7 28.9001 77.7 28.1001L80.8 27.8001ZM90.7 18.5001H93V14.4001H96V18.5001H98.7V20.8001H96V28.1001C96 28.4001 96 28.7001 96.1 28.9001C96.1 29.1001 96.2 29.4001 96.3 29.5001C96.4 29.7001 96.5 29.8001 96.8 29.9001C97 30.0001 97.3 30.1001 97.6 30.1001C97.8 30.1001 98.1 30.1001 98.2 30.1001C98.4 30.1001 98.7 30.0001 98.8 30.0001V32.3001C98.5 32.4001 98.1 32.4001 97.8 32.4001C97.3 32.3001 97 32.3001 96.7 32.3001C95.9 32.3001 95.3 32.2001 94.8 32.1001C94.3 31.9001 94 31.7001 93.7 31.4001C93.4 31.1001 93.2 30.7001 93.2 30.3001C93.1 29.8001 93 29.3001 93 28.8001V20.7001H90.7V18.5001ZM100.8 18.5001H103.7V20.4001H103.8C104.3 19.6001 104.8 19.0001 105.5 18.7001C106.3 18.3001 107.1 18.2001 108 18.2001C109.1 18.2001 110 18.4001 110.8 18.8001C111.6 19.2001 112.2 19.7001 112.8 20.4001C113.3 21.1001 113.7 21.8001 114 22.7001C114.2 23.6001 114.4 24.5001 114.4 25.5001C114.4 26.4001 114.2 27.3001 114 28.1001C113.8 28.9001 113.4 29.8001 112.9 30.4001C112.4 31.0001 111.8 31.6001 111.1 32.0001C110.3 32.4001 109.5 32.6001 108.5 32.6001C108 32.6001 107.6 32.5001 107.2 32.4001C106.7 32.3001 106.4 32.2001 105.9 32.0001C105.5 31.8001 105.1 31.6001 104.8 31.3001C104.4 31.0001 104.2 30.7001 104 30.3001H103.9V37.1001H100.9L100.8 18.5001ZM111.2 25.4001C111.2 24.8001 111.1 24.2001 111 23.6001C110.8 23.0001 110.6 22.5001 110.2 22.1001C109.8 21.7001 109.4 21.3001 109 21.0001C108.5 20.7001 107.9 20.6001 107.3 20.6001C106 20.6001 105.1 21.1001 104.4 21.9001C103.8 22.8001 103.4 23.9001 103.4 25.4001C103.4 26.1001 103.5 26.8001 103.6 27.3001C103.8 27.9001 104 28.4001 104.4 28.8001C104.7 29.3001 105.2 29.6001 105.6 29.8001C106.1 30.0001 106.6 30.2001 107.3 30.2001C108 30.2001 108.6 30.0001 109 29.7001C109.5 29.4001 109.8 29.0001 110.2 28.6001C110.5 28.1001 110.7 27.6001 110.9 27.1001C111.2 26.5001 111.2 26.0001 111.2 25.4001ZM116.6 13.4001H119.6V16.3001H116.6V13.4001ZM116.6 18.5001H119.6V32.1001H116.6V18.5001ZM122.2 13.4001H125.2V32.2001H122.2V13.4001ZM134.4 32.5001C133.3 32.5001 132.4 32.3001 131.5 32.0001C130.7 31.6001 129.9 31.2001 129.3 30.5001C128.7 29.9001 128.2 29.1001 127.9 28.2001C127.6 27.3001 127.4 26.3001 127.4 25.3001C127.4 24.2001 127.6 23.3001 127.9 22.4001C128.2 21.5001 128.7 20.7001 129.3 20.1001C129.9 19.5001 130.6 19.0001 131.5 18.6001C132.3 18.2001 133.3 18.1001 134.4 18.1001C135.5 18.1001 136.4 18.3001 137.3 18.6001C138.1 19.0001 138.9 19.4001 139.5 20.1001C140.1 20.7001 140.6 21.5001 140.9 22.4001C141.2 23.3001 141.4 24.2001 141.4 25.3001C141.4 26.4001 141.2 27.3001 140.9 28.2001C140.6 29.0001 140.1 29.9001 139.5 30.5001C138.9 31.1001 138.2 31.6001 137.3 32.0001C136.5 32.3001 135.5 32.5001 134.4 32.5001ZM134.4 30.1001C135.1 30.1001 135.7 29.9001 136.1 29.6001C136.6 29.3001 137 28.9001 137.3 28.5001C137.6 28.0001 137.8 27.5001 138 27.0001C138.2 26.4001 138.2 25.9001 138.2 25.3001C138.2 24.7001 138.1 24.2001 138 23.6001C137.9 23.0001 137.6 22.5001 137.3 22.1001C137 21.6001 136.5 21.3001 136.1 21.0001C135.6 20.7001 135 20.5001 134.4 20.5001C133.8 20.5001 133.1 20.7001 132.7 21.0001C132.2 21.3001 131.8 21.7001 131.5 22.1001C131.2 22.6001 131 23.1001 130.8 23.6001C130.6 24.2001 130.6 24.7001 130.6 25.3001C130.6 25.9001 130.7 26.5001 130.8 27.0001C130.9 27.5001 131.2 28.1001 131.5 28.5001C131.8 29.0001 132.3 29.3001 132.7 29.6001C133.2 30.0001 133.8 30.1001 134.4 30.1001ZM142.2 18.5001H144.5V14.4001H147.5V18.5001H150.2V20.8001H147.5V28.1001C147.5 28.4001 147.5 28.7001 147.6 28.9001C147.6 29.1001 147.7 29.4001 147.8 29.5001C147.9 29.6001 148 29.8001 148.3 29.9001C148.5 30.0001 148.8 30.1001 149.1 30.1001C149.3 30.1001 149.6 30.1001 149.7 30.1001C149.9 30.1001 150.2 30.0001 150.3 30.0001V32.3001C150 32.4001 149.6 32.4001 149.3 32.4001C149 32.5001 148.7 32.5001 148.3 32.5001C147.5 32.5001 146.9 32.4001 146.4 32.3001C145.9 32.1001 145.6 31.9001 145.3 31.6001C145 31.3001 144.8 30.9001 144.8 30.5001C144.7 30.0001 144.6 29.5001 144.6 29.0001V20.9001H142.3L142.2 18.5001Z" fill="black"/>
<path d="M36 13.4H22.2L18 0.300049L13.7 13.4H0L11.1 21.5L6.8 34.5L17.9 26.3L29 34.5L24.8 21.4L36 13.4Z" fill="#00B67A"/>
<path d="M25.8 24.4L24.8 21.5L18 26.5L25.8 24.4Z" fill="#005128"/>
</g>
<defs>
<clipPath id="clip0_148_1693">
<rect width="154" height="38.4" fill="white" transform="translate(0 0.300049)"/>
</clipPath>
</defs>
</svg>
