<svg width="105" height="35" viewBox="0 0 105 35" fill="none" xmlns="http://www.w3.org/2000/svg">
<g clip-path="url(#clip0_148_1706)">
<path d="M44.5984 18.3C44.5984 23.2 40.6984 26.9 35.9984 26.9C31.2984 26.9 27.3984 23.3 27.3984 18.3C27.3984 13.3 31.2984 9.69995 35.9984 9.69995C40.6984 9.69995 44.5984 13.4 44.5984 18.3ZM40.7984 18.3C40.7984 15.2 38.5984 13.1 35.9984 13.1C33.3984 13.1 31.0984 15.3 31.0984 18.3C31.0984 21.4 33.2984 23.5 35.8984 23.5C38.5984 23.5 40.7984 21.4 40.7984 18.3Z" fill="#FF4131"/>
<path d="M63.0984 18.3C63.0984 23.2 59.1984 26.9 54.4984 26.9C49.7984 26.9 45.8984 23.3 45.8984 18.3C45.8984 13.3 49.7984 9.69995 54.4984 9.69995C59.1984 9.79995 63.0984 13.4 63.0984 18.3ZM59.2984 18.3C59.2984 15.2 57.0984 13.1 54.4984 13.1C51.8984 13.1 49.6984 15.3 49.6984 18.3C49.6984 21.4 51.8984 23.5 54.4984 23.5C57.0984 23.5 59.2984 21.4 59.2984 18.3Z" fill="#FFBC00"/>
<path d="M80.8 10.3V25.7C80.8 32 77.1 34.6 72.7 34.6C68.5 34.6 66.1 31.8 65.1 29.6L68.4 28.2C69 29.6 70.4 31.2 72.7 31.2C75.5 31.2 77.3 29.5 77.3 26.2V25H77.2C76.4 26 74.7 26.9 72.7 26.9C68.4 26.9 64.5 23.2 64.5 18.4C64.5 13.6 68.4 9.80005 72.7 9.80005C74.7 9.80005 76.4 10.7 77.2 11.7H77.3V10.3H80.8ZM77.5 18.4C77.5 15.4 75.5 13.2 72.9 13.2C70.3 13.2 68.1 15.4 68.1 18.4C68.1 21.4 70.3 23.6 72.9 23.6C75.5 23.5 77.5 21.3 77.5 18.4Z" fill="#0085F7"/>
<path d="M86.7 1.30005V26.4H83V1.30005H86.7Z" fill="#00A94B"/>
<path d="M101.001 21.2L103.901 23.1C103.001 24.5 100.701 26.9 96.8008 26.9C91.9008 26.9 88.3008 23.1 88.3008 18.3C88.3008 13.2 92.0008 9.69995 96.4008 9.69995C100.801 9.69995 103.001 13.2 103.701 15.1L104.101 16.1L92.7008 20.8C93.6008 22.5 94.9008 23.4 96.9008 23.4C98.7008 23.5 100.101 22.6 101.001 21.2ZM92.0008 18.1L99.7008 14.9C99.3008 13.8 98.0008 13.1 96.5008 13.1C94.6008 13.1 91.9008 14.8 92.0008 18.1Z" fill="#FF4131"/>
<path d="M13.5 16.1V12.5H25.7C25.8 13.1 25.9 13.9 25.9 14.7C25.9 17.4 25.2 20.8 22.8 23.2C20.5 25.6 17.5 26.9 13.5 26.9C6.2 26.9 0 20.9 0 13.6C0 6.30005 6.2 0.300049 13.5 0.300049C17.6 0.300049 20.4 1.90005 22.6 4.00005L20 6.50005C18.4 5.00005 16.3 3.90005 13.4 3.90005C8 3.90005 3.9 8.20005 3.9 13.6C3.9 19 8.1 23.3 13.5 23.3C17 23.3 18.9 21.9 20.2 20.6C21.2 19.6 21.9 18.1 22.2 16.1H13.5Z" fill="#0085F7"/>
</g>
<defs>
<clipPath id="clip0_148_1706">
<rect width="104.1" height="34.3" fill="white" transform="translate(0 0.300049)"/>
</clipPath>
</defs>
</svg>
