<svg width="250" height="153" viewBox="0 0 250 153" fill="none" xmlns="http://www.w3.org/2000/svg">
<rect width="250" height="152.861" rx="20" fill="#EBFF74"/>
<g clip-path="url(#clip0_85_3594)">
<path d="M34.8941 33.3295H26.3203V24.8519H35.086C34.8941 26.6434 34.7981 28.4988 34.7981 30.3863C34.7981 31.378 34.8301 32.3697 34.8941 33.3295Z" fill="#00313E"/>
<path d="M35.7244 39.759H32.4932C29.358 39.759 26.7347 37.3917 26.3828 34.3525H34.9566C35.0846 36.272 35.3405 38.0955 35.7244 39.759Z" fill="#00313E"/>
<path d="M36.429 18.4218C35.8851 19.9893 35.5012 21.8448 35.2133 23.8282H26.3516C26.7355 20.7891 29.3588 18.4218 32.494 18.4218H36.429Z" fill="#00313E"/>
<path d="M44.7512 23.8282H36.2734C36.5614 21.7488 36.9773 19.8933 37.5211 18.4218H43.5356C44.0474 19.8933 44.4633 21.7488 44.7512 23.8282Z" fill="#00313E"/>
<path d="M35.9844 34.3526H45.07C44.8781 36.336 44.6221 38.1595 44.2702 39.7591H36.7522C36.4003 38.1595 36.1443 36.336 35.9844 34.3526Z" fill="#00313E"/>
<path d="M45.1939 30.3859C45.1939 31.3776 45.1619 32.3694 45.0979 33.2971H35.9163C35.8523 32.3374 35.8203 31.3776 35.8203 30.3859C35.8203 28.4345 35.9163 26.579 36.1082 24.8515H44.874C45.0979 26.579 45.1939 28.4345 45.1939 30.3859Z" fill="#00313E"/>
<path d="M54.6633 23.8282H45.8016C45.5137 21.8448 45.1298 19.9893 44.5859 18.4218H48.5209C51.6881 18.4218 54.2794 20.7891 54.6633 23.8282Z" fill="#00313E"/>
<path d="M46.0569 34.3525H54.6306C54.2467 37.3917 51.6554 39.759 48.5202 39.759H45.2891C45.673 38.0955 45.9289 36.272 46.0569 34.3525Z" fill="#00313E"/>
<path d="M54.6986 24.8515V33.3291H46.1568C46.2208 32.3694 46.2528 31.3776 46.2528 30.4179C46.2528 28.5305 46.1568 26.675 45.9648 24.8835H54.6986V24.8515Z" fill="#00313E"/>
</g>
<path d="M31.3253 70.0681V81.0748H29.9925V71.4654H29.928L27.2408 73.2497V71.8953L29.9925 70.0681H31.3253ZM34.4908 81.0748V80.1074L38.1239 76.1303C38.5503 75.6646 38.9014 75.2597 39.1773 74.9157C39.4532 74.5682 39.6574 74.2422 39.7899 73.9376C39.9261 73.6295 39.9942 73.307 39.9942 72.9702C39.9942 72.5833 39.901 72.2483 39.7147 71.9652C39.532 71.6822 39.2812 71.4636 38.9623 71.3095C38.6434 71.1555 38.2851 71.0784 37.8874 71.0784C37.4646 71.0784 37.0956 71.1662 36.7803 71.3418C36.4686 71.5138 36.2267 71.7556 36.0548 72.0673C35.8864 72.379 35.8022 72.7445 35.8022 73.1637H34.5338C34.5338 72.5188 34.6825 71.9527 34.9799 71.4654C35.2773 70.9781 35.6821 70.5983 36.1945 70.326C36.7104 70.0537 37.2891 69.9176 37.9304 69.9176C38.5753 69.9176 39.1468 70.0537 39.6448 70.326C40.1429 70.5983 40.5334 70.9656 40.8165 71.4278C41.0995 71.89 41.241 72.4041 41.241 72.9702C41.241 73.3751 41.1676 73.771 41.0207 74.158C40.8774 74.5413 40.6266 74.9695 40.2683 75.4424C39.9136 75.9118 39.4209 76.4851 38.7903 77.1622L36.3181 79.8064V79.8924H41.4345V81.0748H34.4908ZM47.3732 81.2253C46.6638 81.2253 46.0314 81.1034 45.476 80.8598C44.9243 80.6162 44.4854 80.2776 44.1593 79.844C43.8368 79.4069 43.6613 78.8999 43.6326 78.3231H44.987C45.0156 78.6778 45.1374 78.9841 45.3524 79.2421C45.5674 79.4965 45.8487 79.6936 46.1962 79.8333C46.5437 79.973 46.9289 80.0429 47.3517 80.0429C47.8246 80.0429 48.2438 79.9605 48.6093 79.7957C48.9747 79.6309 49.2614 79.4015 49.4692 79.1077C49.677 78.814 49.7809 78.4736 49.7809 78.0866C49.7809 77.6818 49.6806 77.3253 49.4799 77.0171C49.2793 76.7054 48.9855 76.4618 48.5985 76.2862C48.2116 76.1106 47.7386 76.0229 47.1797 76.0229H46.2983V74.8405H47.1797C47.6168 74.8405 48.0002 74.7617 48.3298 74.604C48.663 74.4464 48.9228 74.2242 49.1091 73.9376C49.299 73.651 49.3939 73.3142 49.3939 72.9272C49.3939 72.5546 49.3115 72.2303 49.1467 71.9545C48.9819 71.6786 48.749 71.4636 48.4481 71.3095C48.1507 71.1555 47.7995 71.0784 47.3947 71.0784C47.0149 71.0784 46.6566 71.1483 46.3198 71.288C45.9866 71.4242 45.7143 71.623 45.5029 71.8846C45.2915 72.1426 45.1769 72.4543 45.1589 72.8197H43.8691C43.8906 72.2429 44.0644 71.7377 44.3904 71.3042C44.7165 70.8671 45.1428 70.5267 45.6695 70.283C46.1998 70.0394 46.782 69.9176 47.4162 69.9176C48.0969 69.9176 48.6809 70.0555 49.1682 70.3314C49.6555 70.6037 50.0299 70.9638 50.2915 71.4117C50.553 71.8595 50.6838 72.3432 50.6838 72.8627C50.6838 73.4826 50.5208 74.0111 50.1947 74.4482C49.8723 74.8853 49.4334 75.188 48.878 75.3564V75.4424C49.5731 75.5571 50.1159 75.8527 50.5064 76.3292C50.897 76.8021 51.0922 77.388 51.0922 78.0866C51.0922 78.685 50.9292 79.2224 50.6032 79.6989C50.2807 80.1719 49.84 80.5445 49.2811 80.8168C48.7221 81.0891 48.0862 81.2253 47.3732 81.2253ZM53.0324 78.8175V77.7212L57.8693 70.0681H58.6647V71.7664H58.1273L54.4727 77.5492V77.6352H60.9865V78.8175H53.0324ZM58.2133 81.0748V78.4843V77.9738V70.0681H59.4816V81.0748H58.2133ZM74.9531 81.2253C74.3225 81.2253 73.7546 81.0998 73.2494 80.849C72.7442 80.5982 72.3394 80.2543 72.0348 79.8172C71.7303 79.3801 71.5637 78.882 71.535 78.3231H72.8248C72.875 78.8211 73.1007 79.2332 73.502 79.5592C73.9069 79.8817 74.3906 80.0429 74.9531 80.0429C75.4045 80.0429 75.8058 79.9372 76.157 79.7258C76.5117 79.5144 76.7893 79.2242 76.99 78.8552C77.1942 78.4825 77.2963 78.0615 77.2963 77.5922C77.2963 77.1121 77.1906 76.6839 76.9792 76.3077C76.7714 75.9279 76.4848 75.6287 76.1193 75.4102C75.7539 75.1916 75.3365 75.0806 74.8671 75.077C74.5303 75.0734 74.1846 75.1253 73.8299 75.2328C73.4751 75.3367 73.1831 75.4711 72.9538 75.6359L71.707 75.4854L72.3734 70.0681H78.0917V71.2504H73.4913L73.1043 74.4965H73.1688C73.3945 74.3174 73.6776 74.1687 74.018 74.0505C74.3583 73.9322 74.713 73.8731 75.0821 73.8731C75.7557 73.8731 76.3558 74.0343 76.8825 74.3568C77.4128 74.6757 77.8284 75.1128 78.1293 75.6682C78.4339 76.2235 78.5862 76.8577 78.5862 77.5707C78.5862 78.2729 78.4285 78.8999 78.1132 79.4517C77.8015 79.9999 77.3716 80.4334 76.8234 80.7523C76.2752 81.0676 75.6518 81.2253 74.9531 81.2253ZM84.3757 81.2253C83.9243 81.2181 83.4728 81.1321 83.0214 80.9673C82.5699 80.8025 82.1579 80.5248 81.7853 80.1343C81.4126 79.7401 81.1135 79.2081 80.8877 78.5381C80.662 77.8645 80.5492 77.0189 80.5492 76.0014C80.5492 75.0268 80.6405 74.1633 80.8233 73.4109C81.006 72.6549 81.2711 72.019 81.6187 71.503C81.9662 70.9835 82.3854 70.5894 82.8763 70.3207C83.3707 70.0519 83.9278 69.9176 84.5477 69.9176C85.1639 69.9176 85.7121 70.0412 86.1922 70.2884C86.6759 70.532 87.0701 70.8724 87.3746 71.3095C87.6792 71.7467 87.8762 72.2501 87.9658 72.8197H86.6544C86.5326 72.3253 86.2961 71.9151 85.945 71.589C85.5939 71.263 85.1281 71.0999 84.5477 71.0999C83.695 71.0999 83.0232 71.4708 82.5323 72.2124C82.045 72.9541 81.7996 73.9949 81.796 75.3349H81.882C82.0826 75.0304 82.3209 74.7706 82.5968 74.5557C82.8763 74.3371 83.1844 74.1687 83.5212 74.0505C83.858 73.9322 84.2145 73.8731 84.5907 73.8731C85.2213 73.8731 85.7981 74.0308 86.3212 74.3461C86.8443 74.6578 87.2635 75.0895 87.5788 75.6413C87.8941 76.1895 88.0518 76.8183 88.0518 77.5277C88.0518 78.2084 87.8995 78.8319 87.595 79.398C87.2904 79.9605 86.8622 80.4083 86.3105 80.7416C85.7623 81.0712 85.1174 81.2324 84.3757 81.2253ZM84.3757 80.0429C84.8272 80.0429 85.232 79.93 85.5903 79.7043C85.9522 79.4786 86.237 79.1758 86.4448 78.796C86.6562 78.4162 86.7619 77.9935 86.7619 77.5277C86.7619 77.0727 86.6598 76.6588 86.4556 76.2862C86.2549 75.91 85.9773 75.6108 85.6226 75.3887C85.2714 75.1665 84.8702 75.0555 84.4187 75.0555C84.0783 75.0555 83.7612 75.1236 83.4674 75.2597C83.1736 75.3923 82.9157 75.575 82.6935 75.8079C82.475 76.0408 82.303 76.3077 82.1776 76.6087C82.0522 76.906 81.9895 77.2196 81.9895 77.5492C81.9895 77.9863 82.0916 78.3947 82.2958 78.7745C82.5036 79.1543 82.7867 79.4607 83.145 79.6936C83.5069 79.9264 83.9171 80.0429 84.3757 80.0429ZM90.5092 81.0748L95.4321 71.3364V71.2504H89.7568V70.0681H96.808V71.3149L91.9065 81.0748H90.5092ZM102.115 81.2253C101.377 81.2253 100.725 81.0945 100.159 80.8329C99.5964 80.5678 99.1575 80.2041 98.8422 79.7419C98.5269 79.2761 98.371 78.7459 98.3746 78.1511C98.371 77.6853 98.4624 77.2554 98.6487 76.8613C98.835 76.4636 99.0894 76.1321 99.4118 75.867C99.7379 75.5983 100.102 75.4281 100.503 75.3564V75.2919C99.9762 75.1558 99.557 74.8602 99.2452 74.4052C98.9335 73.9466 98.7795 73.4253 98.783 72.8412C98.7795 72.2823 98.921 71.7825 99.2076 71.3418C99.4943 70.9011 99.8884 70.5535 100.39 70.2992C100.895 70.0448 101.47 69.9176 102.115 69.9176C102.753 69.9176 103.323 70.0448 103.824 70.2992C104.326 70.5535 104.72 70.9011 105.007 71.3418C105.297 71.7825 105.444 72.2823 105.447 72.8412C105.444 73.4253 105.284 73.9466 104.969 74.4052C104.657 74.8602 104.243 75.1558 103.727 75.2919V75.3564C104.125 75.4281 104.483 75.5983 104.802 75.867C105.121 76.1321 105.376 76.4636 105.565 76.8613C105.755 77.2554 105.852 77.6853 105.856 78.1511C105.852 78.7459 105.691 79.2761 105.372 79.7419C105.057 80.2041 104.618 80.5678 104.055 80.8329C103.496 81.0945 102.85 81.2253 102.115 81.2253ZM102.115 80.0429C102.613 80.0429 103.043 79.9623 103.405 79.801C103.767 79.6398 104.046 79.4123 104.243 79.1185C104.44 78.8247 104.541 78.4807 104.544 78.0866C104.541 77.671 104.433 77.3038 104.222 76.9849C104.011 76.666 103.722 76.4152 103.357 76.2325C102.995 76.0497 102.581 75.9584 102.115 75.9584C101.646 75.9584 101.227 76.0497 100.858 76.2325C100.492 76.4152 100.204 76.666 99.9923 76.9849C99.7845 77.3038 99.6824 77.671 99.6859 78.0866C99.6824 78.4807 99.7773 78.8247 99.9708 79.1185C100.168 79.4123 100.449 79.6398 100.815 79.801C101.18 79.9623 101.614 80.0429 102.115 80.0429ZM102.115 74.819C102.509 74.819 102.859 74.7402 103.163 74.5825C103.471 74.4249 103.713 74.2045 103.889 73.9215C104.064 73.6384 104.154 73.307 104.157 72.9272C104.154 72.5546 104.066 72.2303 103.894 71.9545C103.722 71.675 103.484 71.46 103.179 71.3095C102.875 71.1555 102.52 71.0784 102.115 71.0784C101.703 71.0784 101.343 71.1555 101.035 71.3095C100.727 71.46 100.489 71.675 100.32 71.9545C100.152 72.2303 100.069 72.5546 100.073 72.9272C100.069 73.307 100.154 73.6384 100.325 73.9215C100.501 74.2045 100.743 74.4249 101.051 74.5825C101.359 74.7402 101.714 74.819 102.115 74.819ZM119.933 69.9176C120.384 69.9212 120.835 70.0072 121.287 70.1755C121.738 70.3439 122.15 70.6234 122.523 71.014C122.896 71.4009 123.195 71.9294 123.42 72.5994C123.646 73.2694 123.759 74.1096 123.759 75.12C123.759 76.0981 123.666 76.967 123.48 77.7265C123.297 78.4825 123.032 79.1203 122.684 79.6398C122.34 80.1593 121.921 80.5535 121.427 80.8222C120.936 81.0909 120.38 81.2253 119.761 81.2253C119.144 81.2253 118.594 81.1034 118.111 80.8598C117.631 80.6126 117.236 80.2704 116.928 79.8333C116.624 79.3926 116.428 78.882 116.342 78.3016H117.654C117.772 78.8068 118.007 79.2242 118.358 79.5538C118.713 79.8799 119.18 80.0429 119.761 80.0429C120.61 80.0429 121.28 79.6721 121.771 78.9304C122.265 78.1887 122.512 77.1407 122.512 75.7864H122.426C122.226 76.0874 121.987 76.3471 121.711 76.5657C121.436 76.7842 121.129 76.9526 120.792 77.0709C120.456 77.1891 120.097 77.2482 119.718 77.2482C119.087 77.2482 118.508 77.0924 117.982 76.7806C117.459 76.4654 117.039 76.0336 116.724 75.4854C116.412 74.9337 116.256 74.3031 116.256 73.5936C116.256 72.9201 116.407 72.3038 116.708 71.7449C117.012 71.1823 117.439 70.7345 117.987 70.4013C118.539 70.0681 119.187 69.9068 119.933 69.9176ZM119.933 71.0999C119.481 71.0999 119.074 71.2128 118.713 71.4385C118.354 71.6607 118.069 71.9616 117.858 72.3414C117.65 72.7176 117.546 73.135 117.546 73.5936C117.546 74.0523 117.647 74.4697 117.847 74.8459C118.051 75.2185 118.329 75.5159 118.68 75.738C119.035 75.9566 119.438 76.0659 119.89 76.0659C120.23 76.0659 120.547 75.9996 120.841 75.867C121.135 75.7309 121.391 75.5463 121.609 75.3134C121.831 75.077 122.005 74.81 122.131 74.5127C122.256 74.2117 122.319 73.8982 122.319 73.5721C122.319 73.1422 122.215 72.7391 122.007 72.3629C121.803 71.9867 121.52 71.6822 121.158 71.4493C120.8 71.2164 120.391 71.0999 119.933 71.0999ZM129.463 81.2253C128.653 81.2253 127.963 81.0049 127.393 80.5642C126.824 80.1199 126.388 79.4768 126.088 78.6348C125.787 77.7892 125.636 76.7681 125.636 75.5714C125.636 74.3819 125.787 73.3661 126.088 72.5241C126.392 71.6786 126.829 71.0337 127.399 70.5894C127.972 70.1415 128.66 69.9176 129.463 69.9176C130.265 69.9176 130.951 70.1415 131.521 70.5894C132.094 71.0337 132.531 71.6786 132.832 72.5241C133.137 73.3661 133.289 74.3819 133.289 75.5714C133.289 76.7681 133.139 77.7892 132.838 78.6348C132.537 79.4768 132.101 80.1199 131.532 80.5642C130.962 81.0049 130.272 81.2253 129.463 81.2253ZM129.463 80.0429C130.265 80.0429 130.889 79.6559 131.333 78.882C131.777 78.1081 131.999 77.0046 131.999 75.5714C131.999 74.6184 131.897 73.8068 131.693 73.1368C131.492 72.4668 131.202 71.9563 130.822 71.6051C130.446 71.254 129.993 71.0784 129.463 71.0784C128.667 71.0784 128.046 71.4708 127.598 72.2554C127.15 73.0365 126.926 74.1418 126.926 75.5714C126.926 76.5245 127.026 77.3342 127.227 78.0006C127.428 78.6671 127.716 79.174 128.092 79.5216C128.472 79.8691 128.929 80.0429 129.463 80.0429ZM138.857 81.2253C138.119 81.2253 137.467 81.0945 136.901 80.8329C136.338 80.5678 135.899 80.2041 135.584 79.7419C135.269 79.2761 135.113 78.7459 135.116 78.1511C135.113 77.6853 135.204 77.2554 135.391 76.8613C135.577 76.4636 135.831 76.1321 136.154 75.867C136.48 75.5983 136.843 75.4281 137.245 75.3564V75.2919C136.718 75.1558 136.299 74.8602 135.987 74.4052C135.675 73.9466 135.521 73.4253 135.525 72.8412C135.521 72.2823 135.663 71.7825 135.949 71.3418C136.236 70.9011 136.63 70.5535 137.132 70.2992C137.637 70.0448 138.212 69.9176 138.857 69.9176C139.495 69.9176 140.064 70.0448 140.566 70.2992C141.068 70.5535 141.462 70.9011 141.748 71.3418C142.039 71.7825 142.186 72.2823 142.189 72.8412C142.186 73.4253 142.026 73.9466 141.711 74.4052C141.399 74.8602 140.985 75.1558 140.469 75.2919V75.3564C140.867 75.4281 141.225 75.5983 141.544 75.867C141.863 76.1321 142.117 76.4636 142.307 76.8613C142.497 77.2554 142.594 77.6853 142.598 78.1511C142.594 78.7459 142.433 79.2761 142.114 79.7419C141.799 80.2041 141.36 80.5678 140.797 80.8329C140.238 81.0945 139.592 81.2253 138.857 81.2253ZM138.857 80.0429C139.355 80.0429 139.785 79.9623 140.147 79.801C140.509 79.6398 140.788 79.4123 140.985 79.1185C141.182 78.8247 141.283 78.4807 141.286 78.0866C141.283 77.671 141.175 77.3038 140.964 76.9849C140.752 76.666 140.464 76.4152 140.099 76.2325C139.737 76.0497 139.323 75.9584 138.857 75.9584C138.388 75.9584 137.968 76.0497 137.599 76.2325C137.234 76.4152 136.946 76.666 136.734 76.9849C136.526 77.3038 136.424 77.671 136.428 78.0866C136.424 78.4807 136.519 78.8247 136.713 79.1185C136.91 79.4123 137.191 79.6398 137.556 79.801C137.922 79.9623 138.355 80.0429 138.857 80.0429ZM138.857 74.819C139.251 74.819 139.6 74.7402 139.905 74.5825C140.213 74.4249 140.455 74.2045 140.631 73.9215C140.806 73.6384 140.896 73.307 140.899 72.9272C140.896 72.5546 140.808 72.2303 140.636 71.9545C140.464 71.675 140.226 71.46 139.921 71.3095C139.617 71.1555 139.262 71.0784 138.857 71.0784C138.445 71.0784 138.085 71.1555 137.777 71.3095C137.469 71.46 137.23 71.675 137.062 71.9545C136.894 72.2303 136.811 72.5546 136.815 72.9272C136.811 73.307 136.895 73.6384 137.067 73.9215C137.243 74.2045 137.485 74.4249 137.793 74.5825C138.101 74.7402 138.456 74.819 138.857 74.819ZM145.001 81.0748L149.924 71.3364V71.2504H144.249V70.0681H151.3V71.3149L146.399 81.0748H145.001ZM165.471 81.2253C165.019 81.2181 164.568 81.1321 164.117 80.9673C163.665 80.8025 163.253 80.5248 162.88 80.1343C162.508 79.7401 162.209 79.2081 161.983 78.5381C161.757 77.8645 161.644 77.0189 161.644 76.0014C161.644 75.0268 161.736 74.1633 161.918 73.4109C162.101 72.6549 162.366 72.019 162.714 71.503C163.061 70.9835 163.481 70.5894 163.971 70.3207C164.466 70.0519 165.023 69.9176 165.643 69.9176C166.259 69.9176 166.807 70.0412 167.287 70.2884C167.771 70.532 168.165 70.8724 168.47 71.3095C168.774 71.7467 168.971 72.2501 169.061 72.8197H167.75C167.628 72.3253 167.391 71.9151 167.04 71.589C166.689 71.263 166.223 71.0999 165.643 71.0999C164.79 71.0999 164.118 71.4708 163.627 72.2124C163.14 72.9541 162.895 73.9949 162.891 75.3349H162.977C163.178 75.0304 163.416 74.7706 163.692 74.5557C163.971 74.3371 164.28 74.1687 164.616 74.0505C164.953 73.9322 165.31 73.8731 165.686 73.8731C166.316 73.8731 166.893 74.0308 167.416 74.3461C167.94 74.6578 168.359 75.0895 168.674 75.6413C168.989 76.1895 169.147 76.8183 169.147 77.5277C169.147 78.2084 168.995 78.8319 168.69 79.398C168.386 79.9605 167.957 80.4083 167.406 80.7416C166.857 81.0712 166.213 81.2324 165.471 81.2253ZM165.471 80.0429C165.922 80.0429 166.327 79.93 166.686 79.7043C167.047 79.4786 167.332 79.1758 167.54 78.796C167.751 78.4162 167.857 77.9935 167.857 77.5277C167.857 77.0727 167.755 76.6588 167.551 76.2862C167.35 75.91 167.072 75.6108 166.718 75.3887C166.367 75.1665 165.965 75.0555 165.514 75.0555C165.174 75.0555 164.856 75.1236 164.563 75.2597C164.269 75.3923 164.011 75.575 163.789 75.8079C163.57 76.0408 163.398 76.3077 163.273 76.6087C163.147 76.906 163.085 77.2196 163.085 77.5492C163.085 77.9863 163.187 78.3947 163.391 78.7745C163.599 79.1543 163.882 79.4607 164.24 79.6936C164.602 79.9264 165.012 80.0429 165.471 80.0429ZM174.7 81.2253C174.069 81.2253 173.502 81.0998 172.996 80.849C172.491 80.5982 172.086 80.2543 171.782 79.8172C171.477 79.3801 171.311 78.882 171.282 78.3231H172.572C172.622 78.8211 172.848 79.2332 173.249 79.5592C173.654 79.8817 174.138 80.0429 174.7 80.0429C175.151 80.0429 175.553 79.9372 175.904 79.7258C176.259 79.5144 176.536 79.2242 176.737 78.8552C176.941 78.4825 177.043 78.0615 177.043 77.5922C177.043 77.1121 176.938 76.6839 176.726 76.3077C176.518 75.9279 176.232 75.6287 175.866 75.4102C175.501 75.1916 175.083 75.0806 174.614 75.077C174.277 75.0734 173.931 75.1253 173.577 75.2328C173.222 75.3367 172.93 75.4711 172.701 75.6359L171.454 75.4854L172.12 70.0681H177.839V71.2504H173.238L172.851 74.4965H172.916C173.141 74.3174 173.425 74.1687 173.765 74.0505C174.105 73.9322 174.46 73.8731 174.829 73.8731C175.503 73.8731 176.103 74.0343 176.629 74.3568C177.16 74.6757 177.575 75.1128 177.876 75.6682C178.181 76.2235 178.333 76.8577 178.333 77.5707C178.333 78.2729 178.175 78.8999 177.86 79.4517C177.548 79.9999 177.118 80.4334 176.57 80.7523C176.022 81.0676 175.399 81.2253 174.7 81.2253ZM180.21 78.8175V77.7212L185.047 70.0681H185.842V71.7664H185.305L181.65 77.5492V77.6352H188.164V78.8175H180.21ZM185.391 81.0748V78.4843V77.9738V70.0681H186.659V81.0748H185.391ZM193.897 81.2253C193.188 81.2253 192.555 81.1034 192 80.8598C191.448 80.6162 191.009 80.2776 190.683 79.844C190.361 79.4069 190.185 78.8999 190.157 78.3231H191.511C191.54 78.6778 191.662 78.9841 191.877 79.2421C192.091 79.4965 192.373 79.6936 192.72 79.8333C193.068 79.973 193.453 80.0429 193.876 80.0429C194.349 80.0429 194.768 79.9605 195.133 79.7957C195.499 79.6309 195.785 79.4015 195.993 79.1077C196.201 78.814 196.305 78.4736 196.305 78.0866C196.305 77.6818 196.205 77.3253 196.004 77.0171C195.803 76.7054 195.51 76.4618 195.123 76.2862C194.736 76.1106 194.263 76.0229 193.704 76.0229H192.822V74.8405H193.704C194.141 74.8405 194.524 74.7617 194.854 74.604C195.187 74.4464 195.447 74.2242 195.633 73.9376C195.823 73.651 195.918 73.3142 195.918 72.9272C195.918 72.5546 195.836 72.2303 195.671 71.9545C195.506 71.6786 195.273 71.4636 194.972 71.3095C194.675 71.1555 194.324 71.0784 193.919 71.0784C193.539 71.0784 193.181 71.1483 192.844 71.288C192.511 71.4242 192.238 71.623 192.027 71.8846C191.816 72.1426 191.701 72.4543 191.683 72.8197H190.393C190.415 72.2429 190.588 71.7377 190.915 71.3042C191.241 70.8671 191.667 70.5267 192.194 70.283C192.724 70.0394 193.306 69.9176 193.94 69.9176C194.621 69.9176 195.205 70.0555 195.692 70.3314C196.18 70.6037 196.554 70.9638 196.816 71.4117C197.077 71.8595 197.208 72.3432 197.208 72.8627C197.208 73.4826 197.045 74.0111 196.719 74.4482C196.396 74.8853 195.957 75.188 195.402 75.3564V75.4424C196.097 75.5571 196.64 75.8527 197.031 76.3292C197.421 76.8021 197.616 77.388 197.616 78.0866C197.616 78.685 197.453 79.2224 197.127 79.6989C196.805 80.1719 196.364 80.5445 195.805 80.8168C195.246 81.0891 194.61 81.2253 193.897 81.2253Z" fill="#00313E"/>
<path d="M28.8209 87.4632V92.9666H28.1544V88.1619H28.1222L26.7786 89.054V88.3768L28.1544 87.4632H28.8209ZM30.4036 92.9666V92.4829L32.2201 90.4943C32.4333 90.2615 32.6089 90.059 32.7468 89.887C32.8848 89.7133 32.9869 89.5502 33.0532 89.398C33.1213 89.2439 33.1553 89.0827 33.1553 88.9143C33.1553 88.7208 33.1087 88.5533 33.0156 88.4118C32.9242 88.2703 32.7988 88.161 32.6394 88.0839C32.4799 88.0069 32.3008 87.9684 32.1019 87.9684C31.8905 87.9684 31.706 88.0123 31.5484 88.1001C31.3925 88.1861 31.2716 88.307 31.1856 88.4628C31.1014 88.6187 31.0593 88.8014 31.0593 89.011H30.4251C30.4251 88.6886 30.4995 88.4055 30.6481 88.1619C30.7968 87.9182 30.9993 87.7283 31.2555 87.5922C31.5134 87.456 31.8027 87.388 32.1234 87.388C32.4459 87.388 32.7316 87.456 32.9806 87.5922C33.2296 87.7283 33.4249 87.912 33.5664 88.1431C33.708 88.3742 33.7787 88.6312 33.7787 88.9143C33.7787 89.1167 33.742 89.3147 33.6685 89.5081C33.5969 89.6998 33.4715 89.9139 33.2923 90.1504C33.115 90.3851 32.8687 90.6717 32.5534 91.0103L31.3173 92.3324V92.3754H33.8755V92.9666H30.4036ZM36.9415 87.2052L35.168 93.7942H34.5876L36.3611 87.2052H36.9415ZM37.6825 92.9666V92.4829L39.4991 90.4943C39.7122 90.2615 39.8878 90.059 40.0257 89.887C40.1637 89.7133 40.2658 89.5502 40.3321 89.398C40.4002 89.2439 40.4342 89.0827 40.4342 88.9143C40.4342 88.7208 40.3876 88.5533 40.2945 88.4118C40.2031 88.2703 40.0777 88.161 39.9183 88.0839C39.7588 88.0069 39.5797 87.9684 39.3808 87.9684C39.1694 87.9684 38.9849 88.0123 38.8273 88.1001C38.6714 88.1861 38.5505 88.307 38.4645 88.4628C38.3803 88.6187 38.3382 88.8014 38.3382 89.011H37.704C37.704 88.6886 37.7784 88.4055 37.9271 88.1619C38.0757 87.9182 38.2782 87.7283 38.5344 87.5922C38.7923 87.456 39.0817 87.388 39.4023 87.388C39.7248 87.388 40.0105 87.456 40.2595 87.5922C40.5085 87.7283 40.7038 87.912 40.8453 88.1431C40.9869 88.3742 41.0576 88.6312 41.0576 88.9143C41.0576 89.1167 41.0209 89.3147 40.9475 89.5081C40.8758 89.6998 40.7504 89.9139 40.5712 90.1504C40.3939 90.3851 40.1476 90.6717 39.8323 91.0103L38.5962 92.3324V92.3754H41.1544V92.9666H37.6825ZM43.984 93.0418C43.6687 93.0418 43.3847 92.9791 43.1321 92.8537C42.8795 92.7283 42.6771 92.5563 42.5248 92.3378C42.3726 92.1192 42.2893 91.8702 42.2749 91.5907H42.9198C42.9449 91.8397 43.0578 92.0457 43.2584 92.2088C43.4609 92.37 43.7027 92.4506 43.984 92.4506C44.2097 92.4506 44.4103 92.3978 44.5859 92.2921C44.7633 92.1864 44.9021 92.0413 45.0024 91.8567C45.1045 91.6704 45.1556 91.4599 45.1556 91.2253C45.1556 90.9852 45.1027 90.7711 44.997 90.583C44.8931 90.3931 44.7498 90.2435 44.5671 90.1343C44.3844 90.025 44.1757 89.9694 43.941 89.9677C43.7726 89.9659 43.5997 89.9918 43.4223 90.0456C43.245 90.0975 43.099 90.1647 42.9843 90.2471L42.3609 90.1719L42.6941 87.4632H45.5533V88.0544H43.2531L43.0596 89.6774H43.0918C43.2047 89.5879 43.3462 89.5135 43.5164 89.4544C43.6866 89.3953 43.8639 89.3657 44.0485 89.3657C44.3853 89.3657 44.6853 89.4463 44.9487 89.6076C45.2138 89.767 45.4216 89.9856 45.5721 90.2632C45.7244 90.5409 45.8005 90.858 45.8005 91.2145C45.8005 91.5656 45.7217 91.8791 45.564 92.155C45.4082 92.4291 45.1932 92.6459 44.9191 92.8053C44.645 92.963 44.3333 93.0418 43.984 93.0418Z" fill="#00313E"/>
<path d="M30.9115 126.202C30.8712 125.861 30.7077 125.597 30.4211 125.409C30.1344 125.221 29.7829 125.127 29.3664 125.127C29.0618 125.127 28.7953 125.176 28.5669 125.275C28.3408 125.373 28.1638 125.509 28.0362 125.681C27.9108 125.854 27.8481 126.05 27.8481 126.269C27.8481 126.453 27.8918 126.611 27.9791 126.743C28.0687 126.873 28.1829 126.981 28.3217 127.068C28.4606 127.154 28.6061 127.224 28.7584 127.28C28.9107 127.334 29.0506 127.378 29.1783 127.411L29.8769 127.599C30.0561 127.646 30.2554 127.711 30.4748 127.794C30.6965 127.877 30.9081 127.99 31.1097 128.133C31.3134 128.274 31.4814 128.456 31.6135 128.677C31.7456 128.899 31.8117 129.171 31.8117 129.494C31.8117 129.865 31.7143 130.201 31.5195 130.501C31.3269 130.801 31.0447 131.04 30.673 131.217C30.3035 131.394 29.8545 131.482 29.3261 131.482C28.8334 131.482 28.4068 131.403 28.0463 131.244C27.688 131.085 27.4058 130.863 27.1998 130.579C26.996 130.294 26.8807 129.964 26.8538 129.588H27.7137C27.7361 129.847 27.8235 130.062 27.9757 130.233C28.1303 130.401 28.3251 130.526 28.5602 130.609C28.7976 130.689 29.0529 130.73 29.3261 130.73C29.644 130.73 29.9295 130.678 30.1826 130.575C30.4356 130.47 30.6361 130.324 30.7839 130.139C30.9316 129.95 31.0055 129.731 31.0055 129.48C31.0055 129.252 30.9417 129.066 30.8141 128.923C30.6864 128.779 30.5185 128.663 30.3102 128.573C30.102 128.484 29.8769 128.405 29.6351 128.338L28.7886 128.096C28.2512 127.942 27.8257 127.721 27.5122 127.435C27.1987 127.148 27.0419 126.773 27.0419 126.309C27.0419 125.924 27.1461 125.588 27.3543 125.302C27.5648 125.013 27.847 124.789 28.2008 124.63C28.5568 124.469 28.9543 124.388 29.3932 124.388C29.8366 124.388 30.2307 124.468 30.5756 124.627C30.9204 124.783 31.1936 124.998 31.3952 125.271C31.599 125.545 31.7065 125.855 31.7176 126.202H30.9115ZM34.5921 131.482C34.2652 131.482 33.9684 131.421 33.702 131.297C33.4355 131.172 33.2239 130.992 33.0671 130.757C32.9104 130.519 32.832 130.233 32.832 129.897C32.832 129.601 32.8902 129.362 33.0067 129.178C33.1231 128.992 33.2787 128.847 33.4736 128.741C33.6684 128.636 33.8833 128.558 34.1185 128.506C34.3558 128.452 34.5943 128.41 34.8339 128.378C35.1474 128.338 35.4016 128.308 35.5964 128.288C35.7935 128.265 35.9368 128.228 36.0264 128.177C36.1182 128.125 36.1641 128.036 36.1641 127.908V127.881C36.1641 127.55 36.0734 127.292 35.892 127.109C35.7129 126.925 35.4408 126.833 35.0758 126.833C34.6973 126.833 34.4006 126.916 34.1857 127.082C33.9707 127.248 33.8195 127.425 33.7322 127.613L32.9798 127.344C33.1141 127.03 33.2933 126.786 33.5172 126.612C33.7434 126.435 33.9897 126.312 34.2562 126.242C34.5249 126.171 34.7892 126.135 35.0489 126.135C35.2146 126.135 35.405 126.155 35.6199 126.195C35.8372 126.233 36.0465 126.313 36.2481 126.434C36.4518 126.555 36.6209 126.737 36.7553 126.981C36.8896 127.225 36.9568 127.552 36.9568 127.962V131.361H36.1641V130.663H36.1238C36.07 130.775 35.9805 130.894 35.8551 131.022C35.7297 131.15 35.5628 131.258 35.3546 131.348C35.1463 131.437 34.8922 131.482 34.5921 131.482ZM34.713 130.77C35.0265 130.77 35.2908 130.709 35.5057 130.585C35.723 130.462 35.8864 130.303 35.9961 130.108C36.1081 129.914 36.1641 129.709 36.1641 129.494V128.768C36.1305 128.808 36.0566 128.845 35.9424 128.879C35.8304 128.91 35.7006 128.938 35.5528 128.963C35.4072 128.985 35.265 129.006 35.1262 129.023C34.9896 129.039 34.8787 129.053 34.7936 129.064C34.5876 129.091 34.395 129.134 34.2159 129.195C34.039 129.253 33.8957 129.341 33.7859 129.46C33.6785 129.577 33.6247 129.736 33.6247 129.937C33.6247 130.212 33.7266 130.421 33.9304 130.562C34.1364 130.701 34.3973 130.77 34.713 130.77ZM38.4037 131.361V126.202H39.1695V126.981H39.2233C39.3173 126.726 39.4875 126.519 39.7339 126.36C39.9802 126.201 40.2579 126.121 40.5669 126.121C40.6251 126.121 40.6979 126.122 40.7852 126.125C40.8725 126.127 40.9386 126.13 40.9834 126.135V126.941C40.9565 126.934 40.8949 126.924 40.7987 126.911C40.7046 126.895 40.6049 126.887 40.4997 126.887C40.2489 126.887 40.025 126.94 39.8279 127.045C39.6331 127.148 39.4786 127.291 39.3644 127.475C39.2524 127.656 39.1964 127.863 39.1964 128.096V131.361H38.4037ZM43.4413 131.482C43.1144 131.482 42.8177 131.421 42.5512 131.297C42.2847 131.172 42.0731 130.992 41.9164 130.757C41.7596 130.519 41.6812 130.233 41.6812 129.897C41.6812 129.601 41.7394 129.362 41.8559 129.178C41.9723 128.992 42.128 128.847 42.3228 128.741C42.5176 128.636 42.7326 128.558 42.9677 128.506C43.2051 128.452 43.4436 128.41 43.6832 128.378C43.9967 128.338 44.2508 128.308 44.4457 128.288C44.6427 128.265 44.786 128.228 44.8756 128.177C44.9674 128.125 45.0133 128.036 45.0133 127.908V127.881C45.0133 127.55 44.9226 127.292 44.7413 127.109C44.5621 126.925 44.29 126.833 43.925 126.833C43.5466 126.833 43.2499 126.916 43.0349 127.082C42.8199 127.248 42.6688 127.425 42.5814 127.613L41.829 127.344C41.9634 127.03 42.1425 126.786 42.3665 126.612C42.5926 126.435 42.839 126.312 43.1054 126.242C43.3741 126.171 43.6384 126.135 43.8981 126.135C44.0639 126.135 44.2542 126.155 44.4692 126.195C44.6864 126.233 44.8958 126.313 45.0973 126.434C45.3011 126.555 45.4702 126.737 45.6045 126.981C45.7389 127.225 45.8061 127.552 45.8061 127.962V131.361H45.0133V130.663H44.973C44.9193 130.775 44.8297 130.894 44.7043 131.022C44.5789 131.15 44.4121 131.258 44.2038 131.348C43.9956 131.437 43.7414 131.482 43.4413 131.482ZM43.5623 130.77C43.8758 130.77 44.14 130.709 44.355 130.585C44.5722 130.462 44.7357 130.303 44.8454 130.108C44.9573 129.914 45.0133 129.709 45.0133 129.494V128.768C44.9797 128.808 44.9058 128.845 44.7916 128.879C44.6797 128.91 44.5498 128.938 44.402 128.963C44.2564 128.985 44.1142 129.006 43.9754 129.023C43.8388 129.039 43.728 129.053 43.6429 129.064C43.4368 129.091 43.2443 129.134 43.0651 129.195C42.8882 129.253 42.7449 129.341 42.6352 129.46C42.5277 129.577 42.4739 129.736 42.4739 129.937C42.4739 130.212 42.5758 130.421 42.7796 130.562C42.9856 130.701 43.2465 130.77 43.5623 130.77ZM48.0457 128.258V131.361H47.2529V124.482H48.0457V127.008H48.1128C48.2338 126.742 48.4151 126.53 48.657 126.373C48.9011 126.214 49.2258 126.135 49.6311 126.135C49.9827 126.135 50.2906 126.205 50.5548 126.346C50.819 126.485 51.0239 126.699 51.1695 126.988C51.3173 127.275 51.3912 127.64 51.3912 128.083V131.361H50.5985V128.137C50.5985 127.727 50.4921 127.41 50.2794 127.186C50.0689 126.96 49.7766 126.847 49.4027 126.847C49.1429 126.847 48.91 126.902 48.704 127.011C48.5002 127.121 48.339 127.281 48.2203 127.492C48.1039 127.702 48.0457 127.958 48.0457 128.258ZM57.7321 131.361H55.6092V124.482H57.8262C58.4935 124.482 59.0645 124.62 59.5392 124.895C60.014 125.168 60.3779 125.561 60.6309 126.074C60.884 126.585 61.0105 127.196 61.0105 127.908C61.0105 128.625 60.8828 129.242 60.6276 129.759C60.3723 130.274 60.0005 130.67 59.5124 130.948C59.0242 131.224 58.4308 131.361 57.7321 131.361ZM56.4423 130.622H57.6784C58.2472 130.622 58.7185 130.513 59.0925 130.293C59.4665 130.074 59.7453 129.761 59.9289 129.356C60.1125 128.951 60.2043 128.468 60.2043 127.908C60.2043 127.353 60.1136 126.875 59.9322 126.474C59.7509 126.071 59.4799 125.762 59.1194 125.547C58.7588 125.33 58.3099 125.221 57.7724 125.221H56.4423V130.622Z" fill="#00313E"/>
<ellipse cx="217.105" cy="127.861" rx="6.57895" ry="6.57895" transform="rotate(-180 217.105 127.861)" fill="#8DE6E1"/>
<ellipse cx="210.527" cy="127.861" rx="6.57895" ry="6.57895" transform="rotate(-180 210.527 127.861)" fill="#00313E"/>
<defs>
<clipPath id="clip0_85_3594">
<rect width="28.3767" height="21.3379" fill="white" transform="translate(26.3164 18.4211)"/>
</clipPath>
</defs>
</svg>
