<svg width="33" height="32" viewBox="0 0 33 32" fill="none" xmlns="http://www.w3.org/2000/svg">
<path d="M8.33984 28H11.0065H23.0065H25.6732" stroke="#00313E" stroke-width="2" stroke-linecap="round" stroke-linejoin="round"/>
<path d="M5.03281 14.816C5.4949 17.563 5.98096 19.6786 7.8193 21.6056C9.46295 23.3286 10.2848 24.19 10.5439 24.6802C10.7257 25.0239 10.7512 25.0877 10.857 25.4619C11.0078 25.9954 11.0078 26.6636 11.0078 28H23.0078V26.9823C23.0078 25.9342 23.0078 25.4101 23.1024 24.983C23.1477 24.7784 23.1522 24.762 23.2195 24.5635C23.3599 24.1492 23.8602 23.3234 24.8608 21.6717L24.8608 21.6716C26.0061 19.7811 26.3411 17.8905 26.3411 16V15.3333C26.3411 14.2288 25.4457 13.3333 24.3411 13.3333C23.2366 13.3333 22.3411 14.2288 22.3411 15.3333V13.3333C22.3411 12.2288 21.4457 11.3333 20.3411 11.3333C19.2366 11.3333 18.3411 12.2288 18.3411 13.3333V11.3333C18.3411 10.2288 17.4457 9.33333 16.3411 9.33333C15.2366 9.33333 14.3411 10.2288 14.3411 11.3333V6C14.3411 4.89543 13.4457 4 12.3411 4C11.2366 4 10.3411 4.89543 10.3411 6V16L8.24552 13.3805C7.17194 12.0385 5.00781 12.7976 5.00781 14.5162C5.00781 14.6163 5.01619 14.7172 5.03281 14.816Z" fill="#00313E"/>
</svg>
