<svg width="20" height="24" viewBox="0 0 20 24" fill="none" xmlns="http://www.w3.org/2000/svg">
<path d="M15.4286 15.8778C17.6359 14.4734 18.7395 13.7711 18.9372 12.8C18.9998 12.4929 18.9998 12.1763 18.9373 11.8692C18.7397 10.8981 17.6361 10.1958 15.429 8.79107L7.89646 3.99713C5.38594 2.39935 4.13068 1.60046 3.11143 1.90267C2.79142 1.99756 2.49549 2.16 2.24362 2.37903C1.44141 3.07663 1.44141 4.56455 1.44141 7.54039L1.44141 17.1272C1.44141 20.1028 1.44141 21.5905 2.24355 22.2881C2.4954 22.5072 2.7913 22.6696 3.1113 22.7645C4.13047 23.0668 5.38568 22.2681 7.89611 20.6707L15.4286 15.8778Z" stroke="#00313E" stroke-width="2" stroke-linejoin="round"/>
</svg>
