<svg width="32" height="32" viewBox="0 0 32 32" fill="none" xmlns="http://www.w3.org/2000/svg">
<path d="M13.3333 25.3332C18.488 25.3332 22.6667 21.1545 22.6667 15.9998C22.6667 10.8452 18.488 6.6665 13.3333 6.6665C8.17868 6.6665 4 10.8452 4 15.9998C4 21.1545 8.17868 25.3332 13.3333 25.3332ZM13.3333 25.3332H21.8323C22.1921 25.3332 22.372 25.3332 22.5245 25.2608C22.5746 25.2371 22.6219 25.2079 22.6655 25.1737C22.7985 25.0696 22.8789 24.9087 23.0398 24.5869L23.4592 23.7481C23.923 22.8205 24.1549 22.3567 24.5019 22.2785C24.6104 22.2541 24.7229 22.2541 24.8314 22.2785C25.1784 22.3567 25.4103 22.8205 25.8741 23.7481L26.2935 24.5869C26.4544 24.9087 26.5349 25.0696 26.6678 25.1737C26.7114 25.2079 26.7587 25.2371 26.8088 25.2608C26.9614 25.3332 27.1412 25.3332 27.501 25.3332H28" stroke="#00313E" stroke-width="1.5" stroke-linecap="round" stroke-linejoin="round"/>
<path fill-rule="evenodd" clip-rule="evenodd" d="M13.3333 26.3332C19.0403 26.3332 23.6667 21.7068 23.6667 15.9998C23.6667 10.2929 19.0403 5.6665 13.3333 5.6665C7.62639 5.6665 3 10.2929 3 15.9998C3 21.7068 7.62639 26.3332 13.3333 26.3332ZM13.3333 13.3332C14.0697 13.3332 14.6667 12.7362 14.6667 11.9998C14.6667 11.2635 14.0697 10.6665 13.3333 10.6665C12.597 10.6665 12 11.2635 12 11.9998C12 12.7362 12.597 13.3332 13.3333 13.3332ZM10.6667 15.9998C10.6667 15.2635 10.0697 14.6665 9.33333 14.6665C8.59695 14.6665 8 15.2635 8 15.9998C8 16.7362 8.59695 17.3332 9.33333 17.3332C10.0697 17.3332 10.6667 16.7362 10.6667 15.9998ZM14.6667 19.9998C14.6667 20.7362 14.0697 21.3332 13.3333 21.3332C12.597 21.3332 12 20.7362 12 19.9998C12 19.2635 12.597 18.6665 13.3333 18.6665C14.0697 18.6665 14.6667 19.2635 14.6667 19.9998ZM18.6667 15.9998C18.6667 15.2635 18.0697 14.6665 17.3333 14.6665C16.597 14.6665 16 15.2635 16 15.9998C16 16.7362 16.597 17.3332 17.3333 17.3332C18.0697 17.3332 18.6667 16.7362 18.6667 15.9998Z" fill="#00313E"/>
</svg>
