<svg width="33" height="32" viewBox="0 0 33 32" fill="none" xmlns="http://www.w3.org/2000/svg">
<path fill-rule="evenodd" clip-rule="evenodd" d="M6.94208 13.1122C5.02341 12.2391 4.06407 11.8025 3.74458 11.2116C3.42368 10.6181 3.42368 9.90273 3.74458 9.30919C4.06407 8.71828 5.02341 8.2817 6.94208 7.40854L14.8509 3.80936C15.5021 3.51302 15.8277 3.36485 16.1715 3.33542C16.285 3.32569 16.3992 3.32569 16.5127 3.33542C16.8565 3.36485 17.1821 3.51302 17.8332 3.80936L25.7421 7.40854C27.6608 8.2817 28.6201 8.71827 28.9396 9.30919C29.2605 9.90273 29.2605 10.6181 28.9396 11.2116C28.6201 11.8025 27.6608 12.2391 25.7421 13.1122L25.7421 13.1123C27.6608 13.9854 28.6201 14.422 28.9396 15.0129C29.2605 15.6064 29.2605 16.3218 28.9396 16.9153C28.6201 17.5062 27.6608 17.9428 25.7421 18.8159C27.6608 19.6891 28.6201 20.1257 28.9396 20.7166C29.2605 21.3101 29.2605 22.0255 28.9396 22.619C28.6201 23.2099 27.6608 23.6465 25.7421 24.5197L17.8332 28.1188L17.8332 28.1188C17.1821 28.4152 16.8565 28.5633 16.5127 28.5928C16.3992 28.6025 16.285 28.6025 16.1715 28.5928C15.8277 28.5633 15.5021 28.4152 14.8509 28.1188L6.94208 24.5197C5.02341 23.6465 4.06407 23.2099 3.74458 22.619C3.42368 22.0255 3.42368 21.3101 3.74458 20.7166C4.06407 20.1257 5.02341 19.6891 6.94208 18.8159C5.02341 17.9428 4.06407 17.5062 3.74458 16.9153C3.42368 16.3218 3.42368 15.6064 3.74458 15.0129C4.06407 14.422 5.02341 13.9854 6.94208 13.1122ZM7.80707 12.8938L7.67826 12.9527C7.57796 13.0423 7.49422 13.1538 7.43497 13.2842C7.20644 13.787 7.42876 14.3798 7.93154 14.6084L14.4418 17.5676L14.5528 17.6181C15.0925 17.8643 15.5698 18.082 16.0897 18.1265C16.2598 18.1411 16.4309 18.1411 16.601 18.1265C17.1209 18.082 17.5982 17.8643 18.1379 17.6181L18.2488 17.5676L24.7591 14.6084C25.2619 14.3798 25.4842 13.787 25.2557 13.2842C25.2015 13.165 25.1269 13.0616 25.0378 12.9762L24.8576 12.8938L24.9053 12.8693C24.6267 12.6814 24.2599 12.6384 23.9315 12.7876L17.4212 15.7469C16.7061 16.0719 16.5621 16.1225 16.4306 16.1338C16.3739 16.1386 16.3168 16.1386 16.2601 16.1338C16.1285 16.1225 15.9846 16.0719 15.2695 15.7469L8.75914 12.7876C8.42638 12.6364 8.05417 12.6826 7.77424 12.8769L7.80707 12.8938ZM7.80707 18.6886L7.35435 18.8954C7.29567 19.3221 7.51936 19.7543 7.93154 19.9417L14.4418 22.9009L14.5528 22.9515C15.0925 23.1977 15.5698 23.4154 16.0897 23.4599C16.2598 23.4744 16.4309 23.4744 16.601 23.4599C17.1209 23.4154 17.5982 23.1977 18.1379 22.9515L18.2488 22.9009L24.7591 19.9417C25.1672 19.7562 25.3906 19.3307 25.338 18.9081L24.8576 18.6886L25.2003 18.5124C24.9415 18.0848 24.3978 17.909 23.9315 18.121L17.4212 21.0802C16.7061 21.4053 16.5621 21.4559 16.4306 21.4671C16.3739 21.472 16.3168 21.472 16.2601 21.4671C16.1285 21.4559 15.9846 21.4053 15.2695 21.0802L8.75914 18.121C8.2892 17.9073 7.74057 18.0876 7.48429 18.5226L7.80707 18.6886Z" fill="#00313E"/>
</svg>
