<svg width="24" height="24" viewBox="0 0 24 24" fill="none" xmlns="http://www.w3.org/2000/svg">
<path d="M8.382 6.00345C8.84389 4.73955 9.07483 4.1076 9.27621 3.798C10.558 1.82739 13.4433 1.82739 14.725 3.798C14.9264 4.1076 15.1573 4.73955 15.6192 6.00346L15.6664 6.13263C15.7065 6.24218 15.7265 6.29696 15.7474 6.34585C16.0468 7.04718 16.719 7.51721 17.4805 7.55772C17.5336 7.56054 17.5919 7.56054 17.7085 7.56054H18.2066C18.5404 7.56054 18.7072 7.56054 18.7893 7.56469C21.8163 7.71786 23.0045 11.5651 20.591 13.3985C20.5256 13.4482 20.3877 13.5423 20.1121 13.7305C20.0636 13.7637 20.0393 13.7803 20.018 13.7956C19.3078 14.3084 19.014 15.2237 19.2929 16.054C19.3013 16.0789 19.3124 16.1094 19.3347 16.1704C19.5749 16.8276 19.6949 17.1562 19.7365 17.3223C20.412 20.023 17.601 22.2676 15.1167 21.011C14.964 20.9338 14.6869 20.7548 14.1329 20.3969L13.2898 19.8523C13.0934 19.7254 12.9952 19.662 12.8988 19.6136C12.3337 19.3295 11.6675 19.3295 11.1024 19.6136C11.006 19.662 10.9078 19.7254 10.7115 19.8523L9.88532 20.3859C9.31757 20.7527 9.0337 20.9361 8.87693 21.0148C6.39655 22.2613 3.59609 20.0252 4.26269 17.3305C4.30483 17.1602 4.42747 16.8246 4.67276 16.1533C4.69624 16.0891 4.70798 16.057 4.71686 16.0304C4.99036 15.2115 4.70748 14.3095 4.01532 13.7934C3.99284 13.7767 3.96726 13.7587 3.91611 13.7227C3.62785 13.5202 3.48373 13.4189 3.41451 13.3644C1.05913 11.5105 2.25551 7.72767 5.24856 7.56531C5.33651 7.56054 5.51267 7.56054 5.865 7.56054H6.29592C6.40947 7.56054 6.46625 7.56054 6.51793 7.55787C7.28151 7.51832 7.95573 7.04688 8.25497 6.34326C8.27522 6.29564 8.29471 6.24231 8.33369 6.13566L8.382 6.00345Z" fill="#FFC700"/>
</svg>
