<svg width="198" height="284" viewBox="0 0 198 284" fill="none" xmlns="http://www.w3.org/2000/svg">
<rect width="197.667" height="283.47" rx="20" fill="white"/>
<path d="M22.1222 38H20.4602L25.267 24.9091H26.9034L31.7102 38H30.0483L26.1364 26.9801H26.0341L22.1222 38ZM22.7358 32.8864H29.4347V34.2926H22.7358V32.8864ZM35.0533 32.0938V38H33.5447V28.1818H35.0021V29.7159H35.13C35.3601 29.2173 35.7095 28.8168 36.1783 28.5142C36.647 28.2074 37.2521 28.054 37.9936 28.054C38.6584 28.054 39.2401 28.1903 39.7386 28.4631C40.2372 28.7315 40.625 29.1406 40.902 29.6903C41.179 30.2358 41.3175 30.9261 41.3175 31.7614V38H39.8089V31.8636C39.8089 31.0923 39.6087 30.4915 39.2081 30.0611C38.8075 29.6264 38.2578 29.4091 37.5589 29.4091C37.0774 29.4091 36.647 29.5135 36.2678 29.7223C35.8928 29.9311 35.5966 30.2358 35.3793 30.6364C35.1619 31.0369 35.0533 31.5227 35.0533 32.0938ZM46.9632 38.2301C46.3411 38.2301 45.7765 38.1129 45.2694 37.8786C44.7623 37.6399 44.3596 37.2969 44.0613 36.8494C43.763 36.3977 43.6138 35.8523 43.6138 35.2131C43.6138 34.6506 43.7246 34.1946 43.9462 33.8452C44.1678 33.4915 44.464 33.2145 44.8347 33.0142C45.2054 32.8139 45.6145 32.6648 46.062 32.5668C46.5137 32.4645 46.9675 32.3835 47.4235 32.3239C48.0201 32.2472 48.5037 32.1896 48.8745 32.1513C49.2495 32.1087 49.5222 32.0384 49.6926 31.9403C49.8674 31.8423 49.9547 31.6719 49.9547 31.429V31.3778C49.9547 30.7472 49.7821 30.2571 49.437 29.9077C49.0961 29.5582 48.5783 29.3835 47.8837 29.3835C47.1635 29.3835 46.5989 29.5412 46.1898 29.8565C45.7807 30.1719 45.4931 30.5085 45.3269 30.8665L43.8951 30.3551C44.1507 29.7585 44.4917 29.294 44.9178 28.9616C45.3482 28.625 45.8169 28.3906 46.324 28.2585C46.8354 28.1222 47.3382 28.054 47.8326 28.054C48.1479 28.054 48.5101 28.0923 48.9192 28.169C49.3326 28.2415 49.731 28.3928 50.1145 28.6229C50.5023 28.853 50.824 29.2003 51.0797 29.6648C51.3354 30.1293 51.4632 30.7514 51.4632 31.5312V38H49.9547V36.6705H49.878C49.7757 36.8835 49.6053 37.1115 49.3667 37.3544C49.128 37.5973 48.8105 37.804 48.4142 37.9744C48.0179 38.1449 47.5343 38.2301 46.9632 38.2301ZM47.1934 36.875C47.79 36.875 48.2928 36.7578 48.7019 36.5234C49.1152 36.2891 49.4263 35.9865 49.6351 35.6158C49.8482 35.245 49.9547 34.8551 49.9547 34.446V33.0653C49.8908 33.142 49.7502 33.2124 49.5328 33.2763C49.3198 33.3359 49.0726 33.3892 48.7914 33.4361C48.5144 33.4787 48.2438 33.517 47.9796 33.5511C47.7196 33.581 47.5087 33.6065 47.3468 33.6278C46.9547 33.679 46.5882 33.7621 46.2473 33.8771C45.9107 33.9879 45.638 34.1562 45.4292 34.3821C45.2246 34.6037 45.1223 34.9062 45.1223 35.2898C45.1223 35.8139 45.3162 36.2102 45.704 36.4787C46.0961 36.7429 46.5925 36.875 47.1934 36.875ZM55.7251 24.9091V38H54.2166V24.9091H55.7251ZM59.4597 41.6818C59.204 41.6818 58.976 41.6605 58.7757 41.6179C58.5755 41.5795 58.437 41.5412 58.3603 41.5028L58.7438 40.1733C59.1103 40.267 59.4341 40.3011 59.7154 40.2756C59.9966 40.25 60.2459 40.1243 60.4632 39.8984C60.6848 39.6768 60.8873 39.3168 61.0705 38.8182L61.3517 38.0511L57.7211 28.1818H59.3574L62.0676 36.0057H62.1699L64.8801 28.1818H66.5165L62.3489 39.4318C62.1614 39.9389 61.9292 40.3587 61.6522 40.6911C61.3752 41.0277 61.0534 41.277 60.687 41.4389C60.3248 41.6009 59.9157 41.6818 59.4597 41.6818ZM72.7775 28.1818V29.4602H67.6895V28.1818H72.7775ZM69.1724 25.8295H70.6809V35.1875C70.6809 35.6136 70.7427 35.9332 70.8663 36.1463C70.9941 36.3551 71.1561 36.4957 71.3521 36.5682C71.5524 36.6364 71.7633 36.6705 71.9849 36.6705C72.1511 36.6705 72.2875 36.6619 72.394 36.6449C72.5005 36.6236 72.5858 36.6065 72.6497 36.5938L72.9565 37.9489C72.8542 37.9872 72.7115 38.0256 72.5282 38.0639C72.345 38.1065 72.1127 38.1278 71.8315 38.1278C71.4054 38.1278 70.9877 38.0362 70.5787 37.853C70.1738 37.6697 69.8372 37.3906 69.5687 37.0156C69.3045 36.6406 69.1724 36.1676 69.1724 35.5966V25.8295ZM75.0467 38V28.1818H76.5552V38H75.0467ZM75.8137 26.5455C75.5197 26.5455 75.2662 26.4453 75.0531 26.245C74.8443 26.0447 74.7399 25.804 74.7399 25.5227C74.7399 25.2415 74.8443 25.0007 75.0531 24.8004C75.2662 24.6001 75.5197 24.5 75.8137 24.5C76.1078 24.5 76.3592 24.6001 76.568 24.8004C76.7811 25.0007 76.8876 25.2415 76.8876 25.5227C76.8876 25.804 76.7811 26.0447 76.568 26.245C76.3592 26.4453 76.1078 26.5455 75.8137 26.5455ZM83.3068 38.2045C82.3864 38.2045 81.5938 37.9872 80.929 37.5526C80.2642 37.1179 79.7528 36.5192 79.3949 35.7564C79.0369 34.9936 78.858 34.1222 78.858 33.142C78.858 32.1449 79.0412 31.2649 79.4077 30.5021C79.7784 29.7351 80.294 29.1364 80.9545 28.706C81.6193 28.2713 82.3949 28.054 83.2812 28.054C83.9716 28.054 84.5938 28.1818 85.1477 28.4375C85.7017 28.6932 86.1555 29.0511 86.5092 29.5114C86.8629 29.9716 87.0824 30.5085 87.1676 31.1222H85.6591C85.544 30.6747 85.2884 30.2784 84.892 29.9332C84.5 29.5838 83.9716 29.4091 83.3068 29.4091C82.7188 29.4091 82.2031 29.5625 81.7599 29.8693C81.321 30.1719 80.978 30.6001 80.7308 31.1541C80.4879 31.7038 80.3665 32.3494 80.3665 33.0909C80.3665 33.8494 80.4858 34.5099 80.7244 35.0724C80.9673 35.6349 81.3082 36.0717 81.7472 36.3828C82.1903 36.6939 82.7102 36.8494 83.3068 36.8494C83.6989 36.8494 84.0547 36.7812 84.3743 36.6449C84.6939 36.5085 84.9645 36.3125 85.1861 36.0568C85.4077 35.8011 85.5653 35.4943 85.6591 35.1364H87.1676C87.0824 35.7159 86.8714 36.2379 86.5348 36.7024C86.2024 37.1626 85.7614 37.5291 85.2116 37.8018C84.6662 38.0703 84.0313 38.2045 83.3068 38.2045ZM92.2621 38.2301C91.6399 38.2301 91.0753 38.1129 90.5682 37.8786C90.0611 37.6399 89.6584 37.2969 89.3601 36.8494C89.0618 36.3977 88.9126 35.8523 88.9126 35.2131C88.9126 34.6506 89.0234 34.1946 89.245 33.8452C89.4666 33.4915 89.7628 33.2145 90.1335 33.0142C90.5043 32.8139 90.9134 32.6648 91.3608 32.5668C91.8125 32.4645 92.2663 32.3835 92.7223 32.3239C93.3189 32.2472 93.8026 32.1896 94.1733 32.1513C94.5483 32.1087 94.821 32.0384 94.9915 31.9403C95.1662 31.8423 95.2536 31.6719 95.2536 31.429V31.3778C95.2536 30.7472 95.081 30.2571 94.7358 29.9077C94.3949 29.5582 93.8771 29.3835 93.1825 29.3835C92.4624 29.3835 91.8977 29.5412 91.4886 29.8565C91.0795 30.1719 90.7919 30.5085 90.6257 30.8665L89.1939 30.3551C89.4496 29.7585 89.7905 29.294 90.2166 28.9616C90.647 28.625 91.1158 28.3906 91.6229 28.2585C92.1342 28.1222 92.6371 28.054 93.1314 28.054C93.4467 28.054 93.8089 28.0923 94.218 28.169C94.6314 28.2415 95.0298 28.3928 95.4134 28.6229C95.8011 28.853 96.1229 29.2003 96.3786 29.6648C96.6342 30.1293 96.7621 30.7514 96.7621 31.5312V38H95.2536V36.6705H95.1768C95.0746 36.8835 94.9041 37.1115 94.6655 37.3544C94.4268 37.5973 94.1094 37.804 93.7131 37.9744C93.3168 38.1449 92.8331 38.2301 92.2621 38.2301ZM92.4922 36.875C93.0888 36.875 93.5916 36.7578 94.0007 36.5234C94.4141 36.2891 94.7251 35.9865 94.9339 35.6158C95.147 35.245 95.2536 34.8551 95.2536 34.446V33.0653C95.1896 33.142 95.049 33.2124 94.8317 33.2763C94.6186 33.3359 94.3714 33.3892 94.0902 33.4361C93.8132 33.4787 93.5426 33.517 93.2784 33.5511C93.0185 33.581 92.8075 33.6065 92.6456 33.6278C92.2536 33.679 91.8871 33.7621 91.5462 33.8771C91.2095 33.9879 90.9368 34.1562 90.728 34.3821C90.5234 34.6037 90.4212 34.9062 90.4212 35.2898C90.4212 35.8139 90.6151 36.2102 91.0028 36.4787C91.3949 36.7429 91.8913 36.875 92.4922 36.875ZM101.024 24.9091V38H99.5154V24.9091H101.024ZM109.591 38H107.929L112.736 24.9091H114.372L119.179 38H117.517L113.605 26.9801H113.503L109.591 38ZM110.205 32.8864H116.903V34.2926H110.205V32.8864ZM122.803 24.9091V38H121.218V24.9091H122.803Z" fill="#00313E"/>
<circle cx="176.668" cy="26" r="1" fill="#00313E" fill-opacity="0.5"/>
<circle cx="176.668" cy="31" r="1" fill="#00313E" fill-opacity="0.5"/>
<circle cx="176.668" cy="36" r="1" fill="#00313E" fill-opacity="0.5"/>
<path d="M26.8011 53.3636C26.7415 52.8598 26.4995 52.4688 26.0753 52.1903C25.651 51.9119 25.1307 51.7727 24.5142 51.7727C24.0634 51.7727 23.669 51.8456 23.331 51.9915C22.9962 52.1373 22.7344 52.3378 22.5455 52.593C22.3598 52.8482 22.267 53.1383 22.267 53.4631C22.267 53.7348 22.3317 53.9685 22.4609 54.1641C22.5935 54.3563 22.7625 54.517 22.968 54.6463C23.1735 54.7723 23.389 54.8767 23.6143 54.9595C23.8397 55.0391 24.0469 55.1037 24.2358 55.1534L25.2699 55.4318C25.535 55.5014 25.83 55.5975 26.1548 55.7202C26.483 55.8428 26.7962 56.0102 27.0945 56.2223C27.3961 56.4311 27.6446 56.6996 27.8402 57.0277C28.0357 57.3558 28.1335 57.7585 28.1335 58.2358C28.1335 58.786 27.9893 59.2831 27.701 59.7273C27.416 60.1714 26.9983 60.5244 26.4482 60.7862C25.9013 61.0481 25.2367 61.179 24.4545 61.179C23.7254 61.179 23.094 61.0613 22.5604 60.826C22.0301 60.5907 21.6125 60.2625 21.3075 59.8416C21.0059 59.4207 20.8352 58.9318 20.7955 58.375H22.0682C22.1013 58.7595 22.2306 59.0777 22.456 59.3295C22.6847 59.5781 22.973 59.7637 23.321 59.8864C23.6723 60.0057 24.0502 60.0653 24.4545 60.0653C24.9252 60.0653 25.3478 59.9891 25.7223 59.8366C26.0968 59.6809 26.3935 59.4654 26.6122 59.1903C26.831 58.9119 26.9403 58.5871 26.9403 58.2159C26.9403 57.8778 26.8459 57.6027 26.657 57.3906C26.468 57.1785 26.2195 57.0062 25.9112 56.8736C25.603 56.741 25.2699 56.625 24.9119 56.5256L23.6591 56.1676C22.8636 55.9389 22.2339 55.6125 21.7699 55.1882C21.3059 54.764 21.0739 54.2088 21.0739 53.5227C21.0739 52.9527 21.228 52.4555 21.5362 52.0312C21.8478 51.6037 22.2654 51.2723 22.7891 51.0369C23.3161 50.7983 23.9044 50.679 24.554 50.679C25.2102 50.679 25.7936 50.7966 26.304 51.032C26.8144 51.264 27.2188 51.5821 27.517 51.9865C27.8187 52.3909 27.9777 52.8499 27.9943 53.3636H26.8011ZM33.2033 61.1591C32.4675 61.1591 31.8328 60.9967 31.2992 60.6719C30.7689 60.3438 30.3596 59.8864 30.0712 59.2997C29.7862 58.7098 29.6436 58.0237 29.6436 57.2415C29.6436 56.4593 29.7862 55.7699 30.0712 55.1733C30.3596 54.5734 30.7606 54.1061 31.2743 53.7713C31.7914 53.4332 32.3946 53.2642 33.084 53.2642C33.4817 53.2642 33.8745 53.3305 34.2623 53.4631C34.65 53.5956 35.003 53.8111 35.3212 54.1094C35.6394 54.4044 35.8929 54.7955 36.0819 55.2827C36.2708 55.7699 36.3652 56.3698 36.3652 57.0824V57.5795H30.4789V56.5653H35.1721C35.1721 56.1345 35.0859 55.75 34.9135 55.4119C34.7445 55.0739 34.5025 54.8071 34.1877 54.6115C33.8761 54.416 33.5082 54.3182 33.084 54.3182C32.6167 54.3182 32.2123 54.4342 31.8709 54.6662C31.5328 54.8949 31.2727 55.1932 31.0904 55.5611C30.9081 55.929 30.8169 56.3234 30.8169 56.7443V57.4205C30.8169 57.9972 30.9164 58.486 31.1152 58.8871C31.3174 59.2848 31.5975 59.5881 31.9554 59.7969C32.3134 60.0024 32.7293 60.1051 33.2033 60.1051C33.5115 60.1051 33.79 60.062 34.0385 59.9759C34.2904 59.8864 34.5075 59.7538 34.6898 59.5781C34.8721 59.3991 35.013 59.1771 35.1124 58.9119L36.2459 59.2301C36.1266 59.6146 35.9261 59.9527 35.6444 60.2443C35.3626 60.5327 35.0146 60.758 34.6003 60.9205C34.186 61.0795 33.7203 61.1591 33.2033 61.1591ZM38.15 63.8636V53.3636H39.2836V54.5767H39.4228C39.5089 54.4441 39.6283 54.2751 39.7807 54.0696C39.9365 53.8608 40.1586 53.6752 40.4469 53.5128C40.7386 53.3471 41.133 53.2642 41.6301 53.2642C42.2731 53.2642 42.8399 53.425 43.3304 53.7464C43.821 54.0679 44.2038 54.5237 44.4789 55.1136C44.754 55.7036 44.8915 56.3996 44.8915 57.2017C44.8915 58.0104 44.754 58.7114 44.4789 59.3047C44.2038 59.8946 43.8226 60.352 43.3354 60.6768C42.8482 60.9983 42.2864 61.1591 41.65 61.1591C41.1595 61.1591 40.7667 61.0779 40.4718 60.9155C40.1768 60.7498 39.9498 60.5625 39.7907 60.3537C39.6316 60.1416 39.5089 59.9659 39.4228 59.8267H39.3233V63.8636H38.15ZM39.3034 57.1818C39.3034 57.7585 39.388 58.2673 39.557 58.7081C39.726 59.1456 39.973 59.4886 40.2978 59.7372C40.6226 59.9825 41.0203 60.1051 41.4909 60.1051C41.9815 60.1051 42.3908 59.9759 42.7189 59.7173C43.0504 59.4555 43.2989 59.1042 43.4647 58.6634C43.6337 58.2192 43.7182 57.7254 43.7182 57.1818C43.7182 56.6449 43.6354 56.161 43.4696 55.7301C43.3072 55.2959 43.0603 54.9529 42.7289 54.701C42.4007 54.4458 41.9881 54.3182 41.4909 54.3182C41.0137 54.3182 40.6126 54.4392 40.2878 54.6811C39.963 54.9197 39.7177 55.2545 39.552 55.6854C39.3863 56.1129 39.3034 56.6117 39.3034 57.1818ZM50.0023 53.3636V54.358H46.0449V53.3636H50.0023ZM47.1983 51.5341H48.3716V58.8125C48.3716 59.1439 48.4197 59.3925 48.5158 59.5582C48.6152 59.7206 48.7412 59.83 48.8936 59.8864C49.0494 59.9394 49.2135 59.9659 49.3858 59.9659C49.5151 59.9659 49.6212 59.9593 49.704 59.946C49.7869 59.9295 49.8532 59.9162 49.9029 59.9062L50.1415 60.9602C50.062 60.9901 49.9509 61.0199 49.8084 61.0497C49.6659 61.0829 49.4853 61.0994 49.2665 61.0994C48.9351 61.0994 48.6103 61.0282 48.2921 60.8857C47.9772 60.7431 47.7154 60.526 47.5066 60.2344C47.3011 59.9427 47.1983 59.5748 47.1983 59.1307V51.5341ZM54.8869 61.1591C54.1511 61.1591 53.5164 60.9967 52.9828 60.6719C52.4525 60.3438 52.0431 59.8864 51.7548 59.2997C51.4698 58.7098 51.3272 58.0237 51.3272 57.2415C51.3272 56.4593 51.4698 55.7699 51.7548 55.1733C52.0431 54.5734 52.4442 54.1061 52.9579 53.7713C53.475 53.4332 54.0782 53.2642 54.7676 53.2642C55.1653 53.2642 55.5581 53.3305 55.9458 53.4631C56.3336 53.5956 56.6866 53.8111 57.0048 54.1094C57.323 54.4044 57.5765 54.7955 57.7654 55.2827C57.9544 55.7699 58.0488 56.3698 58.0488 57.0824V57.5795H52.1625V56.5653H56.8556C56.8556 56.1345 56.7695 55.75 56.5971 55.4119C56.4281 55.0739 56.1861 54.8071 55.8713 54.6115C55.5597 54.416 55.1918 54.3182 54.7676 54.3182C54.3002 54.3182 53.8959 54.4342 53.5545 54.6662C53.2164 54.8949 52.9563 55.1932 52.774 55.5611C52.5917 55.929 52.5005 56.3234 52.5005 56.7443V57.4205C52.5005 57.9972 52.6 58.486 52.7988 58.8871C53.001 59.2848 53.2811 59.5881 53.639 59.7969C53.997 60.0024 54.4129 60.1051 54.8869 60.1051C55.1951 60.1051 55.4735 60.062 55.7221 59.9759C55.974 59.8864 56.1911 59.7538 56.3734 59.5781C56.5557 59.3991 56.6966 59.1771 56.796 58.9119L57.9295 59.2301C57.8102 59.6146 57.6097 59.9527 57.3279 60.2443C57.0462 60.5327 56.6982 60.758 56.2839 60.9205C55.8696 61.0795 55.4039 61.1591 54.8869 61.1591ZM59.8336 61V53.3636H60.9672V54.5568H61.0666C61.2257 54.1491 61.4825 53.8326 61.8372 53.6072C62.1918 53.3786 62.6177 53.2642 63.1149 53.2642C63.6187 53.2642 64.0379 53.3786 64.3727 53.6072C64.7108 53.8326 64.9743 54.1491 65.1632 54.5568H65.2427C65.4383 54.1624 65.7316 53.8492 66.1227 53.6172C66.5138 53.3819 66.9828 53.2642 67.5297 53.2642C68.2124 53.2642 68.7709 53.478 69.2051 53.9055C69.6393 54.3298 69.8564 54.991 69.8564 55.8892V61H68.6831V55.8892C68.6831 55.3258 68.5289 54.9231 68.2207 54.6811C67.9125 54.4392 67.5495 54.3182 67.1319 54.3182C66.595 54.3182 66.179 54.4806 65.8841 54.8054C65.5891 55.1269 65.4416 55.5346 65.4416 56.0284V61H64.2484V55.7699C64.2484 55.3357 64.1075 54.986 63.8258 54.7209C63.5441 54.4524 63.1812 54.3182 62.737 54.3182C62.4321 54.3182 62.1471 54.3994 61.8819 54.5618C61.6201 54.7242 61.408 54.9496 61.2456 55.2379C61.0865 55.523 61.0069 55.8527 61.0069 56.2273V61H59.8336ZM72.1607 61V50.8182H73.334V54.5767H73.4334C73.5196 54.4441 73.6389 54.2751 73.7914 54.0696C73.9471 53.8608 74.1692 53.6752 74.4576 53.5128C74.7492 53.3471 75.1436 53.2642 75.6408 53.2642C76.2838 53.2642 76.8506 53.425 77.3411 53.7464C77.8316 54.0679 78.2144 54.5237 78.4895 55.1136C78.7646 55.7036 78.9022 56.3996 78.9022 57.2017C78.9022 58.0104 78.7646 58.7114 78.4895 59.3047C78.2144 59.8946 77.8333 60.352 77.3461 60.6768C76.8588 60.9983 76.2971 61.1591 75.6607 61.1591C75.1702 61.1591 74.7774 61.0779 74.4824 60.9155C74.1874 60.7498 73.9604 60.5625 73.8013 60.3537C73.6422 60.1416 73.5196 59.9659 73.4334 59.8267H73.2942V61H72.1607ZM73.3141 57.1818C73.3141 57.7585 73.3986 58.2673 73.5676 58.7081C73.7367 59.1456 73.9836 59.4886 74.3084 59.7372C74.6332 59.9825 75.031 60.1051 75.5016 60.1051C75.9921 60.1051 76.4015 59.9759 76.7296 59.7173C77.061 59.4555 77.3096 59.1042 77.4753 58.6634C77.6444 58.2192 77.7289 57.7254 77.7289 57.1818C77.7289 56.6449 77.646 56.161 77.4803 55.7301C77.3179 55.2959 77.071 54.9529 76.7395 54.701C76.4114 54.4458 75.9988 54.3182 75.5016 54.3182C75.0243 54.3182 74.6233 54.4392 74.2985 54.6811C73.9737 54.9197 73.7284 55.2545 73.5627 55.6854C73.397 56.1129 73.3141 56.6117 73.3141 57.1818ZM83.8986 61.1591C83.1628 61.1591 82.5281 60.9967 81.9945 60.6719C81.4642 60.3438 81.0549 59.8864 80.7665 59.2997C80.4815 58.7098 80.339 58.0237 80.339 57.2415C80.339 56.4593 80.4815 55.7699 80.7665 55.1733C81.0549 54.5734 81.4559 54.1061 81.9696 53.7713C82.4867 53.4332 83.0899 53.2642 83.7793 53.2642C84.177 53.2642 84.5698 53.3305 84.9576 53.4631C85.3453 53.5956 85.6983 53.8111 86.0165 54.1094C86.3347 54.4044 86.5882 54.7955 86.7772 55.2827C86.9661 55.7699 87.0605 56.3698 87.0605 57.0824V57.5795H81.1742V56.5653H85.8674C85.8674 56.1345 85.7812 55.75 85.6088 55.4119C85.4398 55.0739 85.1979 54.8071 84.883 54.6115C84.5714 54.416 84.2035 54.3182 83.7793 54.3182C83.312 54.3182 82.9076 54.4342 82.5662 54.6662C82.2282 54.8949 81.968 55.1932 81.7857 55.5611C81.6034 55.929 81.5123 56.3234 81.5123 56.7443V57.4205C81.5123 57.9972 81.6117 58.486 81.8105 58.8871C82.0127 59.2848 82.2928 59.5881 82.6507 59.7969C83.0087 60.0024 83.4247 60.1051 83.8986 60.1051C84.2069 60.1051 84.4853 60.062 84.7338 59.9759C84.9857 59.8864 85.2028 59.7538 85.3851 59.5781C85.5674 59.3991 85.7083 59.1771 85.8077 58.9119L86.9412 59.2301C86.8219 59.6146 86.6214 59.9527 86.3397 60.2443C86.0579 60.5327 85.7099 60.758 85.2956 60.9205C84.8813 61.0795 84.4157 61.1591 83.8986 61.1591ZM88.8453 61V53.3636H89.9789V54.517H90.0584C90.1976 54.1392 90.4495 53.8326 90.8141 53.5973C91.1787 53.362 91.5897 53.2443 92.0471 53.2443C92.1332 53.2443 92.2409 53.246 92.3702 53.2493C92.4995 53.2526 92.5972 53.2576 92.6635 53.2642V54.4574C92.6238 54.4474 92.5326 54.4325 92.3901 54.4126C92.2509 54.3894 92.1034 54.3778 91.9476 54.3778C91.5764 54.3778 91.245 54.4557 90.9533 54.6115C90.665 54.764 90.4363 54.9761 90.2672 55.2479C90.1015 55.5163 90.0186 55.8229 90.0186 56.1676V61H88.8453ZM97.9719 61V60.1051L101.333 56.4261C101.727 55.9953 102.052 55.6207 102.307 55.3026C102.562 54.9811 102.751 54.6795 102.874 54.3977C103 54.1127 103.063 53.8144 103.063 53.5028C103.063 53.1449 102.977 52.835 102.804 52.5732C102.635 52.3113 102.403 52.1091 102.108 51.9666C101.813 51.8241 101.482 51.7528 101.114 51.7528C100.723 51.7528 100.382 51.834 100.09 51.9964C99.8015 52.1555 99.5778 52.3793 99.4187 52.6676C99.2629 52.956 99.185 53.294 99.185 53.6818H98.0117C98.0117 53.0852 98.1493 52.5616 98.4244 52.1108C98.6995 51.66 99.074 51.3087 99.5479 51.0568C100.025 50.8049 100.56 50.679 101.154 50.679C101.75 50.679 102.279 50.8049 102.74 51.0568C103.2 51.3087 103.562 51.6484 103.824 52.076C104.085 52.5036 104.216 52.9792 104.216 53.5028C104.216 53.8774 104.148 54.2436 104.012 54.6016C103.88 54.9562 103.648 55.3523 103.316 55.7898C102.988 56.224 102.533 56.7543 101.949 57.3807L99.6623 59.8267V59.9062H104.395V61H97.9719ZM109.77 61.1392C109.02 61.1392 108.382 60.9354 107.855 60.5277C107.328 60.1167 106.926 59.5218 106.647 58.7429C106.369 57.9607 106.23 57.0161 106.23 55.9091C106.23 54.8087 106.369 53.8691 106.647 53.0902C106.929 52.308 107.333 51.7114 107.86 51.3004C108.391 50.8861 109.027 50.679 109.77 50.679C110.512 50.679 111.147 50.8861 111.674 51.3004C112.204 51.7114 112.608 52.308 112.887 53.0902C113.168 53.8691 113.309 54.8087 113.309 55.9091C113.309 57.0161 113.17 57.9607 112.892 58.7429C112.613 59.5218 112.211 60.1167 111.684 60.5277C111.157 60.9354 110.519 61.1392 109.77 61.1392ZM109.77 60.0455C110.512 60.0455 111.089 59.6875 111.5 58.9716C111.911 58.2557 112.116 57.2348 112.116 55.9091C112.116 55.0275 112.022 54.2768 111.833 53.657C111.647 53.0372 111.379 52.5649 111.027 52.2401C110.679 51.9152 110.26 51.7528 109.77 51.7528C109.034 51.7528 108.459 52.1158 108.044 52.8416C107.63 53.5642 107.423 54.5866 107.423 55.9091C107.423 56.7907 107.516 57.5398 107.701 58.1562C107.887 58.7727 108.154 59.2417 108.502 59.5632C108.853 59.8847 109.276 60.0455 109.77 60.0455ZM115.199 61V60.1051L118.559 56.4261C118.954 55.9953 119.279 55.6207 119.534 55.3026C119.789 54.9811 119.978 54.6795 120.1 54.3977C120.226 54.1127 120.289 53.8144 120.289 53.5028C120.289 53.1449 120.203 52.835 120.031 52.5732C119.862 52.3113 119.63 52.1091 119.335 51.9666C119.04 51.8241 118.708 51.7528 118.341 51.7528C117.949 51.7528 117.608 51.834 117.316 51.9964C117.028 52.1555 116.804 52.3793 116.645 52.6676C116.489 52.956 116.412 53.294 116.412 53.6818H115.238C115.238 53.0852 115.376 52.5616 115.651 52.1108C115.926 51.66 116.301 51.3087 116.775 51.0568C117.252 50.8049 117.787 50.679 118.38 50.679C118.977 50.679 119.506 50.8049 119.966 51.0568C120.427 51.3087 120.788 51.6484 121.05 52.076C121.312 52.5036 121.443 52.9792 121.443 53.5028C121.443 53.8774 121.375 54.2436 121.239 54.6016C121.106 54.9562 120.874 55.3523 120.543 55.7898C120.215 56.224 119.759 56.7543 119.176 57.3807L116.889 59.8267V59.9062H121.622V61H115.199ZM127.115 61.1392C126.459 61.1392 125.874 61.0265 125.36 60.8011C124.85 60.5758 124.444 60.2625 124.142 59.8615C123.844 59.4571 123.682 58.9882 123.655 58.4545H124.908C124.935 58.7827 125.047 59.0661 125.246 59.3047C125.445 59.54 125.705 59.7223 126.027 59.8516C126.348 59.9808 126.704 60.0455 127.096 60.0455C127.533 60.0455 127.921 59.9692 128.259 59.8168C128.597 59.6643 128.862 59.4522 129.054 59.1804C129.247 58.9086 129.343 58.5938 129.343 58.2358C129.343 57.8613 129.25 57.5315 129.064 57.2464C128.879 56.9581 128.607 56.7327 128.249 56.5703C127.891 56.4079 127.453 56.3267 126.936 56.3267H126.121V55.233H126.936C127.341 55.233 127.695 55.16 128 55.0142C128.309 54.8684 128.549 54.6629 128.721 54.3977C128.897 54.1326 128.985 53.821 128.985 53.4631C128.985 53.1184 128.908 52.8184 128.756 52.5632C128.604 52.308 128.388 52.1091 128.11 51.9666C127.835 51.8241 127.51 51.7528 127.135 51.7528C126.784 51.7528 126.453 51.8175 126.141 51.9467C125.833 52.0727 125.581 52.2566 125.385 52.4986C125.19 52.7372 125.084 53.0256 125.067 53.3636H123.874C123.894 52.83 124.055 52.3627 124.356 51.9616C124.658 51.5573 125.052 51.2424 125.539 51.017C126.03 50.7917 126.569 50.679 127.155 50.679C127.785 50.679 128.325 50.8066 128.776 51.0618C129.227 51.3137 129.573 51.6468 129.815 52.0611C130.057 52.4754 130.178 52.9228 130.178 53.4034C130.178 53.9768 130.027 54.4657 129.725 54.87C129.427 55.2744 129.021 55.5545 128.507 55.7102V55.7898C129.15 55.8958 129.653 56.1693 130.014 56.6101C130.375 57.0476 130.556 57.5895 130.556 58.2358C130.556 58.7893 130.405 59.2865 130.103 59.7273C129.805 60.1648 129.397 60.5095 128.88 60.7614C128.363 61.0133 127.775 61.1392 127.115 61.1392Z" fill="#00313E" fill-opacity="0.8"/>
<path d="M22.512 124.08C21.8347 124.08 21.312 123.835 20.944 123.344C20.5813 122.848 20.4 122.133 20.4 121.2C20.4 120.555 20.4853 120.005 20.656 119.552C20.832 119.099 21.0827 118.755 21.408 118.52C21.7333 118.28 22.12 118.16 22.568 118.16C23.0587 118.16 23.464 118.301 23.784 118.584C24.104 118.867 24.2987 119.256 24.368 119.752H23.664C23.616 119.421 23.4933 119.171 23.296 119C23.104 118.824 22.8587 118.736 22.56 118.736C22.0853 118.736 21.7253 118.939 21.48 119.344C21.24 119.749 21.12 120.357 21.12 121.168V121.688L20.936 121.616C20.984 121.365 21.0907 121.147 21.256 120.96C21.4213 120.773 21.6267 120.629 21.872 120.528C22.1173 120.421 22.3813 120.368 22.664 120.368C23.0267 120.368 23.3413 120.448 23.608 120.608C23.88 120.763 24.0907 120.981 24.24 121.264C24.3947 121.541 24.472 121.867 24.472 122.24C24.472 122.608 24.3893 122.931 24.224 123.208C24.0587 123.485 23.8293 123.701 23.536 123.856C23.2427 124.005 22.9013 124.08 22.512 124.08ZM22.536 123.504C22.8987 123.504 23.192 123.389 23.416 123.16C23.64 122.931 23.752 122.621 23.752 122.232C23.752 121.827 23.6427 121.509 23.424 121.28C23.2107 121.045 22.9093 120.928 22.52 120.928C22.1467 120.928 21.8347 121.037 21.584 121.256C21.3387 121.475 21.216 121.776 21.216 122.16C21.216 122.427 21.272 122.661 21.384 122.864C21.5013 123.067 21.6587 123.224 21.856 123.336C22.0587 123.448 22.2853 123.504 22.536 123.504ZM27.5859 124.08C27.1325 124.08 26.7352 123.955 26.3939 123.704C26.0579 123.448 25.7939 123.096 25.6019 122.648C25.4152 122.195 25.3219 121.677 25.3219 121.096C25.3219 120.515 25.4152 120.005 25.6019 119.568C25.7885 119.125 26.0525 118.781 26.3939 118.536C26.7352 118.285 27.1325 118.16 27.5859 118.16C28.0392 118.16 28.4339 118.285 28.7699 118.536C29.1112 118.781 29.3752 119.125 29.5619 119.568C29.7539 120.005 29.8499 120.515 29.8499 121.096C29.8499 121.683 29.7539 122.2 29.5619 122.648C29.3752 123.096 29.1112 123.448 28.7699 123.704C28.4339 123.955 28.0392 124.08 27.5859 124.08ZM27.5859 123.504C27.9112 123.504 28.1885 123.408 28.4179 123.216C28.6472 123.019 28.8232 122.741 28.9459 122.384C29.0685 122.021 29.1299 121.589 29.1299 121.088C29.1299 120.592 29.0685 120.168 28.9459 119.816C28.8285 119.464 28.6552 119.197 28.4259 119.016C28.1965 118.829 27.9165 118.736 27.5859 118.736C27.2552 118.736 26.9752 118.829 26.7459 119.016C26.5165 119.203 26.3405 119.472 26.2179 119.824C26.1005 120.171 26.0419 120.592 26.0419 121.088C26.0419 121.589 26.1032 122.021 26.2259 122.384C26.3485 122.747 26.5245 123.024 26.7539 123.216C26.9832 123.408 27.2605 123.504 27.5859 123.504ZM30.89 124V118.08H31.53V124H30.89ZM33.554 124L31.386 121.88L33.474 119.92H34.354L32.01 122.064L32.05 121.688L34.434 124H33.554Z" fill="#00313E" fill-opacity="0.5"/>
<path d="M23.136 154V152.48L23.152 152.32V149.032H23.368L20.936 152.36L20.72 152.096H24.56V152.672H20.272V152.176L23.168 148.24H23.824V154H23.136ZM27.1329 154.08C26.5622 154.08 26.1062 153.928 25.7649 153.624C25.4235 153.315 25.2155 152.915 25.1409 152.424H25.8449C25.9142 152.771 26.0609 153.037 26.2849 153.224C26.5142 153.411 26.7915 153.504 27.1169 153.504C27.4582 153.504 27.7462 153.397 27.9809 153.184C28.2209 152.971 28.3409 152.632 28.3409 152.168C28.3409 151.704 28.2209 151.357 27.9809 151.128C27.7462 150.893 27.4475 150.776 27.0849 150.776C26.8235 150.776 26.5969 150.829 26.4049 150.936C26.2129 151.043 26.0849 151.168 26.0209 151.312H25.4289L25.6929 148.24H28.7329V148.816H26.0849L26.3089 148.576L26.1249 150.896L25.9729 150.84C26.0689 150.68 26.2235 150.541 26.4369 150.424C26.6502 150.307 26.9115 150.248 27.2209 150.248C27.5782 150.248 27.8929 150.325 28.1649 150.48C28.4422 150.635 28.6582 150.856 28.8129 151.144C28.9729 151.427 29.0529 151.768 29.0529 152.168C29.0529 152.568 28.9729 152.912 28.8129 153.2C28.6582 153.483 28.4369 153.701 28.1489 153.856C27.8662 154.005 27.5275 154.08 27.1329 154.08ZM30.0306 154V148.08H30.6706V154H30.0306ZM32.6946 154L30.5266 151.88L32.6146 149.92H33.4946L31.1506 152.064L31.1906 151.688L33.5746 154H32.6946Z" fill="#00313E" fill-opacity="0.5"/>
<path d="M22.368 184.08C21.984 184.08 21.6453 184.011 21.352 183.872C21.064 183.728 20.8293 183.52 20.648 183.248C20.472 182.976 20.3627 182.648 20.32 182.264H21.008C21.0667 182.664 21.2133 182.971 21.448 183.184C21.6827 183.397 21.992 183.504 22.376 183.504C22.7387 183.504 23.024 183.408 23.232 183.216C23.44 183.024 23.544 182.763 23.544 182.432C23.544 182.085 23.4427 181.805 23.24 181.592C23.0373 181.373 22.7653 181.264 22.424 181.264H21.704V180.704H22.4C22.7093 180.704 22.9547 180.616 23.136 180.44C23.3227 180.259 23.416 180.019 23.416 179.72C23.416 179.405 23.3173 179.163 23.12 178.992C22.928 178.821 22.6667 178.736 22.336 178.736C22.0107 178.736 21.7333 178.832 21.504 179.024C21.2747 179.211 21.1387 179.48 21.096 179.832H20.4C20.432 179.491 20.5333 179.197 20.704 178.952C20.8747 178.701 21.1013 178.507 21.384 178.368C21.672 178.229 21.9947 178.16 22.352 178.16C22.6987 178.16 23.0053 178.221 23.272 178.344C23.5387 178.467 23.7467 178.643 23.896 178.872C24.0453 179.096 24.12 179.36 24.12 179.664C24.12 179.936 24.0587 180.176 23.936 180.384C23.8133 180.592 23.6453 180.755 23.432 180.872C23.224 180.989 22.984 181.048 22.712 181.048L22.664 180.88C22.9893 180.88 23.2693 180.949 23.504 181.088C23.744 181.221 23.928 181.405 24.056 181.64C24.1893 181.875 24.256 182.147 24.256 182.456C24.256 182.776 24.176 183.059 24.016 183.304C23.856 183.549 23.6347 183.741 23.352 183.88C23.0693 184.013 22.7413 184.08 22.368 184.08ZM27.3984 184.08C26.945 184.08 26.5477 183.955 26.2064 183.704C25.8704 183.448 25.6064 183.096 25.4144 182.648C25.2277 182.195 25.1344 181.677 25.1344 181.096C25.1344 180.515 25.2277 180.005 25.4144 179.568C25.601 179.125 25.865 178.781 26.2064 178.536C26.5477 178.285 26.945 178.16 27.3984 178.16C27.8517 178.16 28.2464 178.285 28.5824 178.536C28.9237 178.781 29.1877 179.125 29.3744 179.568C29.5664 180.005 29.6624 180.515 29.6624 181.096C29.6624 181.683 29.5664 182.2 29.3744 182.648C29.1877 183.096 28.9237 183.448 28.5824 183.704C28.2464 183.955 27.8517 184.08 27.3984 184.08ZM27.3984 183.504C27.7237 183.504 28.001 183.408 28.2304 183.216C28.4597 183.019 28.6357 182.741 28.7584 182.384C28.881 182.021 28.9424 181.589 28.9424 181.088C28.9424 180.592 28.881 180.168 28.7584 179.816C28.641 179.464 28.4677 179.197 28.2384 179.016C28.009 178.829 27.729 178.736 27.3984 178.736C27.0677 178.736 26.7877 178.829 26.5584 179.016C26.329 179.203 26.153 179.472 26.0304 179.824C25.913 180.171 25.8544 180.592 25.8544 181.088C25.8544 181.589 25.9157 182.021 26.0384 182.384C26.161 182.747 26.337 183.024 26.5664 183.216C26.7957 183.408 27.073 183.504 27.3984 183.504ZM30.7025 184V178.08H31.3425V184H30.7025ZM33.3665 184L31.1985 181.88L33.2865 179.92H34.1665L31.8225 182.064L31.8625 181.688L34.2465 184H33.3665Z" fill="#00313E" fill-opacity="0.5"/>
<path d="M21.8 214V208.896L21.968 208.936C21.904 209.08 21.7813 209.224 21.6 209.368C21.4187 209.512 21.208 209.637 20.968 209.744C20.7333 209.851 20.4907 209.923 20.24 209.96V209.344C20.4907 209.301 20.7307 209.227 20.96 209.12C21.1893 209.013 21.392 208.885 21.568 208.736C21.7493 208.581 21.8827 208.416 21.968 208.24H22.44V214H21.8ZM25.3751 214.08C24.8044 214.08 24.3484 213.928 24.0071 213.624C23.6657 213.315 23.4577 212.915 23.3831 212.424H24.0871C24.1564 212.771 24.3031 213.037 24.5271 213.224C24.7564 213.411 25.0337 213.504 25.3591 213.504C25.7004 213.504 25.9884 213.397 26.2231 213.184C26.4631 212.971 26.5831 212.632 26.5831 212.168C26.5831 211.704 26.4631 211.357 26.2231 211.128C25.9884 210.893 25.6897 210.776 25.3271 210.776C25.0657 210.776 24.8391 210.829 24.6471 210.936C24.4551 211.043 24.3271 211.168 24.2631 211.312H23.6711L23.9351 208.24H26.9751V208.816H24.3271L24.5511 208.576L24.3671 210.896L24.2151 210.84C24.3111 210.68 24.4657 210.541 24.6791 210.424C24.8924 210.307 25.1537 210.248 25.4631 210.248C25.8204 210.248 26.1351 210.325 26.4071 210.48C26.6844 210.635 26.9004 210.856 27.0551 211.144C27.2151 211.427 27.2951 211.768 27.2951 212.168C27.2951 212.568 27.2151 212.912 27.0551 213.2C26.9004 213.483 26.6791 213.701 26.3911 213.856C26.1084 214.005 25.7697 214.08 25.3751 214.08ZM28.2728 214V208.08H28.9128V214H28.2728ZM30.9368 214L28.7688 211.88L30.8568 209.92H31.7368L29.3928 212.064L29.4328 211.688L31.8168 214H30.9368Z" fill="#00313E" fill-opacity="0.5"/>
<path d="M22.664 244.08C22.2107 244.08 21.8133 243.955 21.472 243.704C21.136 243.448 20.872 243.096 20.68 242.648C20.4933 242.195 20.4 241.677 20.4 241.096C20.4 240.515 20.4933 240.005 20.68 239.568C20.8667 239.125 21.1307 238.781 21.472 238.536C21.8133 238.285 22.2107 238.16 22.664 238.16C23.1173 238.16 23.512 238.285 23.848 238.536C24.1893 238.781 24.4533 239.125 24.64 239.568C24.832 240.005 24.928 240.515 24.928 241.096C24.928 241.683 24.832 242.2 24.64 242.648C24.4533 243.096 24.1893 243.448 23.848 243.704C23.512 243.955 23.1173 244.08 22.664 244.08ZM22.664 243.504C22.9893 243.504 23.2667 243.408 23.496 243.216C23.7253 243.019 23.9013 242.741 24.024 242.384C24.1467 242.021 24.208 241.589 24.208 241.088C24.208 240.592 24.1467 240.168 24.024 239.816C23.9067 239.464 23.7333 239.197 23.504 239.016C23.2747 238.829 22.9947 238.736 22.664 238.736C22.3333 238.736 22.0533 238.829 21.824 239.016C21.5947 239.203 21.4187 239.472 21.296 239.824C21.1787 240.171 21.12 240.592 21.12 241.088C21.12 241.589 21.1813 242.021 21.304 242.384C21.4267 242.747 21.6027 243.024 21.832 243.216C22.0613 243.408 22.3387 243.504 22.664 243.504Z" fill="#00313E" fill-opacity="0.5"/>
<line x1="36.9258" y1="119.5" x2="177.668" y2="119.5" stroke="#00313E" stroke-opacity="0.2" stroke-dasharray="2 2"/>
<line x1="36.9258" y1="151" x2="177.668" y2="151" stroke="#00313E" stroke-opacity="0.2" stroke-dasharray="2 2"/>
<line x1="36.9258" y1="182.5" x2="177.668" y2="182.5" stroke="#00313E" stroke-opacity="0.2" stroke-dasharray="2 2"/>
<line x1="36.9258" y1="214" x2="177.668" y2="214" stroke="#00313E" stroke-opacity="0.2" stroke-dasharray="2 2"/>
<line x1="36.9258" y1="245.5" x2="177.668" y2="245.5" stroke="#00313E" stroke-opacity="0.2" stroke-dasharray="2 2"/>
<rect x="75.668" y="151.47" width="10" height="94" rx="5" fill="#00313E"/>
<path d="M40.507 265V259.896L40.675 259.936C40.611 260.08 40.4884 260.224 40.307 260.368C40.1257 260.512 39.915 260.637 39.675 260.744C39.4404 260.851 39.1977 260.923 38.947 260.96V260.344C39.1977 260.301 39.4377 260.227 39.667 260.12C39.8964 260.013 40.099 259.885 40.275 259.736C40.4564 259.581 40.5897 259.416 40.675 259.24H41.147V265H40.507Z" fill="#00313E" fill-opacity="0.5"/>
<path d="M60.3751 265.08C59.8044 265.08 59.3484 264.928 59.0071 264.624C58.6657 264.315 58.4577 263.915 58.3831 263.424H59.0871C59.1564 263.771 59.3031 264.037 59.5271 264.224C59.7564 264.411 60.0337 264.504 60.3591 264.504C60.7004 264.504 60.9884 264.397 61.2231 264.184C61.4631 263.971 61.5831 263.632 61.5831 263.168C61.5831 262.704 61.4631 262.357 61.2231 262.128C60.9884 261.893 60.6897 261.776 60.3271 261.776C60.0657 261.776 59.8391 261.829 59.6471 261.936C59.4551 262.043 59.3271 262.168 59.2631 262.312H58.6711L58.9351 259.24H61.9751V259.816H59.3271L59.5511 259.576L59.3671 261.896L59.2151 261.84C59.3111 261.68 59.4657 261.541 59.6791 261.424C59.8924 261.307 60.1537 261.248 60.4631 261.248C60.8204 261.248 61.1351 261.325 61.4071 261.48C61.6844 261.635 61.9004 261.856 62.0551 262.144C62.2151 262.427 62.2951 262.768 62.2951 263.168C62.2951 263.568 62.2151 263.912 62.0551 264.2C61.9004 264.483 61.6791 264.701 61.3911 264.856C61.1084 265.005 60.7697 265.08 60.3751 265.08Z" fill="#00313E" fill-opacity="0.5"/>
<path d="M80.4 266V260.258L80.589 260.303C80.517 260.465 80.379 260.627 80.175 260.789C79.971 260.951 79.734 261.092 79.464 261.212C79.2 261.332 78.927 261.413 78.645 261.455V260.762C78.927 260.714 79.197 260.63 79.455 260.51C79.713 260.39 79.941 260.246 80.139 260.078C80.343 259.904 80.493 259.718 80.589 259.52H81.12V266H80.4ZM84.8876 266.09C84.3776 266.09 83.9306 265.949 83.5466 265.667C83.1686 265.379 82.8716 264.983 82.6556 264.479C82.4456 263.969 82.3406 263.387 82.3406 262.733C82.3406 262.079 82.4456 261.506 82.6556 261.014C82.8656 260.516 83.1626 260.129 83.5466 259.853C83.9306 259.571 84.3776 259.43 84.8876 259.43C85.3976 259.43 85.8416 259.571 86.2196 259.853C86.6036 260.129 86.9006 260.516 87.1106 261.014C87.3266 261.506 87.4346 262.079 87.4346 262.733C87.4346 263.393 87.3266 263.975 87.1106 264.479C86.9006 264.983 86.6036 265.379 86.2196 265.667C85.8416 265.949 85.3976 266.09 84.8876 266.09ZM84.8876 265.442C85.2536 265.442 85.5656 265.334 85.8236 265.118C86.0816 264.896 86.2796 264.584 86.4176 264.182C86.5556 263.774 86.6246 263.288 86.6246 262.724C86.6246 262.166 86.5556 261.689 86.4176 261.293C86.2856 260.897 86.0906 260.597 85.8326 260.393C85.5746 260.183 85.2596 260.078 84.8876 260.078C84.5156 260.078 84.2006 260.183 83.9426 260.393C83.6846 260.603 83.4866 260.906 83.3486 261.302C83.2166 261.692 83.1506 262.166 83.1506 262.724C83.1506 263.288 83.2196 263.774 83.3576 264.182C83.4956 264.59 83.6936 264.902 83.9516 265.118C84.2096 265.334 84.5216 265.442 84.8876 265.442Z" fill="#00313E"/>
<path d="M105.507 265V259.896L105.675 259.936C105.611 260.08 105.488 260.224 105.307 260.368C105.126 260.512 104.915 260.637 104.675 260.744C104.44 260.851 104.198 260.923 103.947 260.96V260.344C104.198 260.301 104.438 260.227 104.667 260.12C104.896 260.013 105.099 259.885 105.275 259.736C105.456 259.581 105.59 259.416 105.675 259.24H106.147V265H105.507ZM109.082 265.08C108.511 265.08 108.055 264.928 107.714 264.624C107.373 264.315 107.165 263.915 107.09 263.424H107.794C107.863 263.771 108.01 264.037 108.234 264.224C108.463 264.411 108.741 264.504 109.066 264.504C109.407 264.504 109.695 264.397 109.93 264.184C110.17 263.971 110.29 263.632 110.29 263.168C110.29 262.704 110.17 262.357 109.93 262.128C109.695 261.893 109.397 261.776 109.034 261.776C108.773 261.776 108.546 261.829 108.354 261.936C108.162 262.043 108.034 262.168 107.97 262.312H107.378L107.642 259.24H110.682V259.816H108.034L108.258 259.576L108.074 261.896L107.922 261.84C108.018 261.68 108.173 261.541 108.386 261.424C108.599 261.307 108.861 261.248 109.17 261.248C109.527 261.248 109.842 261.325 110.114 261.48C110.391 261.635 110.607 261.856 110.762 262.144C110.922 262.427 111.002 262.768 111.002 263.168C111.002 263.568 110.922 263.912 110.762 264.2C110.607 264.483 110.386 264.701 110.098 264.856C109.815 265.005 109.477 265.08 109.082 265.08Z" fill="#00313E" fill-opacity="0.5"/>
<path d="M127.359 265V264.44C127.935 263.965 128.415 263.549 128.799 263.192C129.188 262.835 129.498 262.517 129.727 262.24C129.962 261.963 130.127 261.709 130.223 261.48C130.324 261.245 130.375 261.016 130.375 260.792C130.375 260.461 130.276 260.203 130.079 260.016C129.882 259.829 129.61 259.736 129.263 259.736C128.906 259.736 128.618 259.837 128.399 260.04C128.18 260.243 128.047 260.533 127.999 260.912H127.311C127.364 260.389 127.564 259.968 127.911 259.648C128.263 259.323 128.73 259.16 129.311 259.16C129.85 259.16 130.279 259.304 130.599 259.592C130.919 259.88 131.079 260.275 131.079 260.776C131.079 261.048 131.026 261.32 130.919 261.592C130.818 261.864 130.647 262.149 130.407 262.448C130.172 262.747 129.86 263.077 129.471 263.44C129.087 263.797 128.61 264.203 128.039 264.656L127.887 264.424H131.175V265H127.359ZM134.172 265.08C133.718 265.08 133.321 264.955 132.98 264.704C132.644 264.448 132.38 264.096 132.188 263.648C132.001 263.195 131.908 262.677 131.908 262.096C131.908 261.515 132.001 261.005 132.188 260.568C132.374 260.125 132.638 259.781 132.98 259.536C133.321 259.285 133.718 259.16 134.172 259.16C134.625 259.16 135.02 259.285 135.356 259.536C135.697 259.781 135.961 260.125 136.148 260.568C136.34 261.005 136.436 261.515 136.436 262.096C136.436 262.683 136.34 263.2 136.148 263.648C135.961 264.096 135.697 264.448 135.356 264.704C135.02 264.955 134.625 265.08 134.172 265.08ZM134.172 264.504C134.497 264.504 134.774 264.408 135.004 264.216C135.233 264.019 135.409 263.741 135.532 263.384C135.654 263.021 135.716 262.589 135.716 262.088C135.716 261.592 135.654 261.168 135.532 260.816C135.414 260.464 135.241 260.197 135.012 260.016C134.782 259.829 134.502 259.736 134.172 259.736C133.841 259.736 133.561 259.829 133.332 260.016C133.102 260.203 132.926 260.472 132.804 260.824C132.686 261.171 132.628 261.592 132.628 262.088C132.628 262.589 132.689 263.021 132.812 263.384C132.934 263.747 133.11 264.024 133.34 264.216C133.569 264.408 133.846 264.504 134.172 264.504Z" fill="#00313E" fill-opacity="0.5"/>
<path d="M152.695 265V264.44C153.271 263.965 153.751 263.549 154.135 263.192C154.524 262.835 154.834 262.517 155.063 262.24C155.298 261.963 155.463 261.709 155.559 261.48C155.66 261.245 155.711 261.016 155.711 260.792C155.711 260.461 155.612 260.203 155.415 260.016C155.218 259.829 154.946 259.736 154.599 259.736C154.242 259.736 153.954 259.837 153.735 260.04C153.516 260.243 153.383 260.533 153.335 260.912H152.647C152.7 260.389 152.9 259.968 153.247 259.648C153.599 259.323 154.066 259.16 154.647 259.16C155.186 259.16 155.615 259.304 155.935 259.592C156.255 259.88 156.415 260.275 156.415 260.776C156.415 261.048 156.362 261.32 156.255 261.592C156.154 261.864 155.983 262.149 155.743 262.448C155.508 262.747 155.196 263.077 154.807 263.44C154.423 263.797 153.946 264.203 153.375 264.656L153.223 264.424H156.511V265H152.695ZM159.07 265.08C158.5 265.08 158.044 264.928 157.702 264.624C157.361 264.315 157.153 263.915 157.078 263.424H157.782C157.852 263.771 157.998 264.037 158.222 264.224C158.452 264.411 158.729 264.504 159.054 264.504C159.396 264.504 159.684 264.397 159.918 264.184C160.158 263.971 160.278 263.632 160.278 263.168C160.278 262.704 160.158 262.357 159.918 262.128C159.684 261.893 159.385 261.776 159.022 261.776C158.761 261.776 158.534 261.829 158.342 261.936C158.15 262.043 158.022 262.168 157.958 262.312H157.366L157.63 259.24H160.67V259.816H158.022L158.246 259.576L158.062 261.896L157.91 261.84C158.006 261.68 158.161 261.541 158.374 261.424C158.588 261.307 158.849 261.248 159.158 261.248C159.516 261.248 159.83 261.325 160.102 261.48C160.38 261.635 160.596 261.856 160.75 262.144C160.91 262.427 160.99 262.768 160.99 263.168C160.99 263.568 160.91 263.912 160.75 264.2C160.596 264.483 160.374 264.701 160.086 264.856C159.804 265.005 159.465 265.08 159.07 265.08Z" fill="#00313E" fill-opacity="0.5"/>
<path d="M179.075 265.08C178.691 265.08 178.352 265.011 178.059 264.872C177.771 264.728 177.536 264.52 177.355 264.248C177.179 263.976 177.07 263.648 177.027 263.264H177.715C177.774 263.664 177.92 263.971 178.155 264.184C178.39 264.397 178.699 264.504 179.083 264.504C179.446 264.504 179.731 264.408 179.939 264.216C180.147 264.024 180.251 263.763 180.251 263.432C180.251 263.085 180.15 262.805 179.947 262.592C179.744 262.373 179.472 262.264 179.131 262.264H178.411V261.704H179.107C179.416 261.704 179.662 261.616 179.843 261.44C180.03 261.259 180.123 261.019 180.123 260.72C180.123 260.405 180.024 260.163 179.827 259.992C179.635 259.821 179.374 259.736 179.043 259.736C178.718 259.736 178.44 259.832 178.211 260.024C177.982 260.211 177.846 260.48 177.803 260.832H177.107C177.139 260.491 177.24 260.197 177.411 259.952C177.582 259.701 177.808 259.507 178.091 259.368C178.379 259.229 178.702 259.16 179.059 259.16C179.406 259.16 179.712 259.221 179.979 259.344C180.246 259.467 180.454 259.643 180.603 259.872C180.752 260.096 180.827 260.36 180.827 260.664C180.827 260.936 180.766 261.176 180.643 261.384C180.52 261.592 180.352 261.755 180.139 261.872C179.931 261.989 179.691 262.048 179.419 262.048L179.371 261.88C179.696 261.88 179.976 261.949 180.211 262.088C180.451 262.221 180.635 262.405 180.763 262.64C180.896 262.875 180.963 263.147 180.963 263.456C180.963 263.776 180.883 264.059 180.723 264.304C180.563 264.549 180.342 264.741 180.059 264.88C179.776 265.013 179.448 265.08 179.075 265.08ZM184.105 265.08C183.652 265.08 183.255 264.955 182.913 264.704C182.577 264.448 182.313 264.096 182.121 263.648C181.935 263.195 181.841 262.677 181.841 262.096C181.841 261.515 181.935 261.005 182.121 260.568C182.308 260.125 182.572 259.781 182.913 259.536C183.255 259.285 183.652 259.16 184.105 259.16C184.559 259.16 184.953 259.285 185.289 259.536C185.631 259.781 185.895 260.125 186.081 260.568C186.273 261.005 186.369 261.515 186.369 262.096C186.369 262.683 186.273 263.2 186.081 263.648C185.895 264.096 185.631 264.448 185.289 264.704C184.953 264.955 184.559 265.08 184.105 265.08ZM184.105 264.504C184.431 264.504 184.708 264.408 184.937 264.216C185.167 264.019 185.343 263.741 185.465 263.384C185.588 263.021 185.649 262.589 185.649 262.088C185.649 261.592 185.588 261.168 185.465 260.816C185.348 260.464 185.175 260.197 184.945 260.016C184.716 259.829 184.436 259.736 184.105 259.736C183.775 259.736 183.495 259.829 183.265 260.016C183.036 260.203 182.86 260.472 182.737 260.824C182.62 261.171 182.561 261.592 182.561 262.088C182.561 262.589 182.623 263.021 182.745 263.384C182.868 263.747 183.044 264.024 183.273 264.216C183.503 264.408 183.78 264.504 184.105 264.504Z" fill="#00313E" fill-opacity="0.5"/>
<path d="M28.0156 228.163C35.661 231.246 57.1562 228.515 65.2401 187.805C70.6661 160.48 75.0743 152.125 78.5044 151.105C83.3605 149.66 84.4678 158.086 85.4693 163.053C89.1904 181.506 97.3376 206.666 105.473 201.678C117.129 194.532 121.265 163.843 133.673 168.887C146.081 173.932 152.849 205.462 161.121 192.85C167.739 182.761 174.908 167.906 177.665 161.741" stroke="#8DE6E1"/>
<ellipse cx="80.4304" cy="151" rx="4.45386" ry="5" fill="#8DE6E1"/>
<ellipse cx="80.4301" cy="151" rx="2.67232" ry="3" fill="#00313E"/>
</svg>
