<svg width="33" height="32" viewBox="0 0 33 32" fill="none" xmlns="http://www.w3.org/2000/svg">
<path fill-rule="evenodd" clip-rule="evenodd" d="M25.3438 12V20C25.3438 23.7497 25.3438 25.6246 24.3888 26.9389C24.0804 27.3634 23.7071 27.7367 23.2827 28.0451C21.9683 29 20.0935 29 16.3438 29C12.594 29 10.7192 29 9.40482 28.0451C8.98035 27.7367 8.60706 27.3634 8.29867 26.9389C7.34375 25.6246 7.34375 23.7497 7.34375 20V12C7.34375 8.25027 7.34375 6.3754 8.29867 5.06107C8.60706 4.6366 8.98035 4.26331 9.40482 3.95492C10.7192 3 12.594 3 16.3438 3C20.0935 3 21.9683 3 23.2827 3.95492C23.7071 4.26331 24.0804 4.6366 24.3888 5.06107C25.3438 6.3754 25.3438 8.25027 25.3438 12ZM17.3438 6.33333C17.3438 6.88562 16.896 7.33333 16.3438 7.33333C15.7915 7.33333 15.3438 6.88562 15.3438 6.33333C15.3438 5.78105 15.7915 5.33333 16.3438 5.33333C16.896 5.33333 17.3438 5.78105 17.3438 6.33333ZM12.6771 25.3333C12.6771 24.781 13.1248 24.3333 13.6771 24.3333H19.0104C19.5627 24.3333 20.0104 24.781 20.0104 25.3333C20.0104 25.8856 19.5627 26.3333 19.0104 26.3333H13.6771C13.1248 26.3333 12.6771 25.8856 12.6771 25.3333Z" fill="#00313E"/>
</svg>
