<svg width="204" height="218" viewBox="0 0 204 218" fill="none" xmlns="http://www.w3.org/2000/svg">
<rect x="0.292969" y="0.433655" width="203.411" height="217.068" rx="20" fill="#00313E"/>
<mask id="path-2-inside-1_86_3641" fill="white">
<path d="M16.1055 59.1598C16.1055 55.4286 19.1303 52.4038 22.8615 52.4038L140.165 52.4038C143.896 52.4038 146.921 55.4286 146.921 59.1598V59.1598C146.921 62.8911 143.896 65.9159 140.165 65.9159L22.8615 65.9159C19.1302 65.9159 16.1055 62.8911 16.1055 59.1598V59.1598Z"/>
</mask>
<path d="M16.1055 52.4038L146.921 52.4038L16.1055 52.4038ZM146.921 59.1598C146.921 63.2881 143.575 66.6346 139.446 66.6346L23.5803 66.6346C19.4521 66.6346 16.1055 63.2881 16.1055 59.1598C16.1055 62.4941 19.1302 65.1971 22.8615 65.1971L140.165 65.1971C143.896 65.1971 146.921 62.4941 146.921 59.1598ZM16.1055 65.9159L16.1055 52.4038L16.1055 65.9159ZM146.921 52.4038L146.921 65.9159L146.921 52.4038Z" fill="#757185" fill-opacity="0.2" mask="url(#path-2-inside-1_86_3641)"/>
<path d="M18.1883 62.3133L18.1883 55.779H18.6069L18.6069 62.3133H18.1883ZM19.5972 57.7393C19.5666 57.4807 19.4424 57.2799 19.2246 57.1369C19.0067 56.994 18.7396 56.9225 18.4231 56.9225C18.1917 56.9225 17.9892 56.96 17.8156 57.0348C17.6437 57.1097 17.5093 57.2126 17.4123 57.3437C17.317 57.4747 17.2694 57.6236 17.2694 57.7904C17.2694 57.9299 17.3026 58.0498 17.3689 58.1502C17.437 58.2489 17.5238 58.3315 17.6293 58.3978C17.7348 58.4625 17.8454 58.5161 17.9611 58.5586C18.0768 58.5995 18.1832 58.6327 18.2801 58.6582L18.8111 58.8011C18.9472 58.8369 19.0986 58.8862 19.2654 58.9492C19.4339 59.0121 19.5947 59.0981 19.7478 59.207C19.9027 59.3142 20.0303 59.452 20.1307 59.6205C20.2311 59.7889 20.2813 59.9957 20.2813 60.2407C20.2813 60.5232 20.2072 60.7784 20.0592 61.0064C19.9129 61.2344 19.6985 61.4157 19.416 61.5501C19.1352 61.6845 18.794 61.7517 18.3925 61.7517C18.0181 61.7517 17.6939 61.6913 17.42 61.5705C17.1477 61.4497 16.9333 61.2812 16.7768 61.0651C16.6219 60.849 16.5343 60.598 16.5139 60.3122H17.1673C17.1843 60.5096 17.2507 60.6729 17.3664 60.8022C17.4838 60.9299 17.6318 61.0251 17.8105 61.0881C17.9909 61.1494 18.1849 61.18 18.3925 61.18C18.6341 61.18 18.851 61.1409 19.0433 61.0626C19.2356 60.9826 19.3879 60.872 19.5002 60.7308C19.6125 60.5878 19.6687 60.4211 19.6687 60.2305C19.6687 60.0569 19.6202 59.9157 19.5232 59.8068C19.4262 59.6979 19.2986 59.6094 19.1403 59.5413C18.9821 59.4733 18.8111 59.4137 18.6273 59.3627L17.9841 59.1789C17.5757 59.0615 17.2524 58.8939 17.0141 58.676C16.7759 58.4582 16.6568 58.1732 16.6568 57.821C16.6568 57.5283 16.7359 57.2731 16.8942 57.0552C17.0541 56.8357 17.2685 56.6656 17.5374 56.5448C17.8079 56.4222 18.11 56.361 18.4435 56.361C18.7804 56.361 19.0799 56.4214 19.342 56.5422C19.604 56.6613 19.8116 56.8247 19.9648 57.0323C20.1196 57.2399 20.2013 57.4755 20.2098 57.7393H19.5972ZM22.8943 56.361C23.1087 56.3627 23.3231 56.4035 23.5375 56.4835C23.7519 56.5635 23.9476 56.6962 24.1246 56.8817C24.3016 57.0655 24.4437 57.3164 24.5509 57.6347C24.6581 57.9529 24.7117 58.3519 24.7117 58.8317C24.7117 59.2963 24.6674 59.7089 24.5789 60.0697C24.4922 60.4287 24.3662 60.7316 24.2012 60.9783C24.0378 61.2251 23.8387 61.4123 23.6039 61.5399C23.3708 61.6675 23.107 61.7313 22.8126 61.7313C22.52 61.7313 22.2588 61.6735 22.029 61.5578C21.801 61.4403 21.6138 61.2778 21.4675 61.0702C21.3229 60.8609 21.2301 60.6185 21.1893 60.3428H21.8121C21.8682 60.5827 21.9797 60.781 22.1465 60.9375C22.3149 61.0924 22.537 61.1698 22.8126 61.1698C23.2159 61.1698 23.5341 60.9937 23.7673 60.6414C24.0021 60.2892 24.1195 59.7915 24.1195 59.1482H24.0787C23.9834 59.2912 23.8702 59.4146 23.7392 59.5184C23.6082 59.6222 23.4627 59.7021 23.3027 59.7583C23.1428 59.8144 22.9726 59.8425 22.7922 59.8425C22.4927 59.8425 22.2179 59.7685 21.9678 59.6205C21.7194 59.4707 21.5203 59.2657 21.3705 59.0053C21.2225 58.7433 21.1485 58.4438 21.1485 58.1069C21.1485 57.7869 21.2199 57.4943 21.3629 57.2288C21.5075 56.9617 21.71 56.749 21.9703 56.5907C22.2324 56.4325 22.5404 56.3559 22.8943 56.361ZM22.8943 56.9225C22.6799 56.9225 22.4868 56.9761 22.3149 57.0833C22.1448 57.1888 22.0095 57.3318 21.9091 57.5121C21.8104 57.6908 21.761 57.889 21.761 58.1069C21.761 58.3247 21.8087 58.5229 21.904 58.7016C22.001 58.8785 22.1328 59.0198 22.2996 59.1253C22.4681 59.2291 22.6595 59.281 22.8739 59.281C23.0356 59.281 23.1862 59.2495 23.3257 59.1865C23.4652 59.1219 23.5869 59.0342 23.6907 58.9236C23.7962 58.8113 23.8787 58.6846 23.9383 58.5433C23.9978 58.4004 24.0276 58.2515 24.0276 58.0966C24.0276 57.8924 23.9783 57.701 23.8796 57.5223C23.7826 57.3437 23.6481 57.199 23.4763 57.0884C23.3061 56.9778 23.1121 56.9225 22.8943 56.9225ZM27.4204 61.7313C27.0359 61.7313 26.7083 61.6267 26.4377 61.4174C26.1672 61.2064 25.9604 60.9009 25.8175 60.501C25.6746 60.0995 25.6031 59.6145 25.6031 59.0462C25.6031 58.4812 25.6746 57.9988 25.8175 57.5989C25.9621 57.1973 26.1697 56.891 26.4403 56.68C26.7126 56.4673 27.0393 56.361 27.4204 56.361C27.8016 56.361 28.1275 56.4673 28.398 56.68C28.6703 56.891 28.8779 57.1973 29.0208 57.5989C29.1655 57.9988 29.2378 58.4812 29.2378 59.0462C29.2378 59.6145 29.1663 60.0995 29.0234 60.501C28.8804 60.9009 28.6737 61.2064 28.4031 61.4174C28.1326 61.6267 27.805 61.7313 27.4204 61.7313ZM27.4204 61.1698C27.8016 61.1698 28.0977 60.986 28.3087 60.6185C28.5197 60.2509 28.6252 59.7268 28.6252 59.0462C28.6252 58.5935 28.5767 58.2081 28.4797 57.8899C28.3844 57.5717 28.2466 57.3292 28.0662 57.1624C27.8875 56.9957 27.6723 56.9123 27.4204 56.9123C27.0427 56.9123 26.7474 57.0986 26.5347 57.4713C26.322 57.8422 26.2157 58.3672 26.2157 59.0462C26.2157 59.4988 26.2633 59.8834 26.3586 60.1999C26.4539 60.5164 26.5909 60.7571 26.7696 60.9222C26.9499 61.0873 27.1669 61.1698 27.4204 61.1698ZM31.9127 61.7313C31.5282 61.7313 31.2006 61.6267 30.93 61.4174C30.6595 61.2064 30.4527 60.9009 30.3098 60.501C30.1669 60.0995 30.0954 59.6145 30.0954 59.0462C30.0954 58.4812 30.1669 57.9988 30.3098 57.5989C30.4544 57.1973 30.662 56.891 30.9326 56.68C31.2049 56.4673 31.5316 56.361 31.9127 56.361C32.2939 56.361 32.6198 56.4673 32.8903 56.68C33.1626 56.891 33.3702 57.1973 33.5131 57.5989C33.6578 57.9988 33.7301 58.4812 33.7301 59.0462C33.7301 59.6145 33.6586 60.0995 33.5157 60.501C33.3727 60.9009 33.166 61.2064 32.8954 61.4174C32.6249 61.6267 32.2973 61.7313 31.9127 61.7313ZM31.9127 61.1698C32.2939 61.1698 32.59 60.986 32.801 60.6185C33.012 60.2509 33.1175 59.7268 33.1175 59.0462C33.1175 58.5935 33.069 58.2081 32.972 57.8899C32.8767 57.5717 32.7389 57.3292 32.5585 57.1624C32.3798 56.9957 32.1646 56.9123 31.9127 56.9123C31.535 56.9123 31.2397 57.0986 31.027 57.4713C30.8143 57.8422 30.708 58.3672 30.708 59.0462C30.708 59.4988 30.7556 59.8834 30.8509 60.1999C30.9462 60.5164 31.0832 60.7571 31.2619 60.9222C31.4422 61.0873 31.6592 61.1698 31.9127 61.1698Z" fill="#FFF8F0"/>
<mask id="path-5-inside-2_86_3641" fill="white">
<path d="M16.1055 87.9667C16.1055 84.2355 19.1303 81.2107 22.8615 81.2107L140.066 81.2107C143.797 81.2107 146.822 84.2355 146.822 87.9667V87.9667C146.822 91.698 143.797 94.7228 140.066 94.7228L22.8615 94.7228C19.1302 94.7228 16.1055 91.698 16.1055 87.9667V87.9667Z"/>
</mask>
<path d="M16.1055 81.2107L146.822 81.2107L16.1055 81.2107ZM146.822 87.9667C146.822 92.0949 143.475 95.4415 139.347 95.4415L23.5803 95.4415C19.4521 95.4415 16.1055 92.0949 16.1055 87.9667C16.1055 91.301 19.1302 94.004 22.8615 94.004L140.066 94.004C143.797 94.004 146.822 91.301 146.822 87.9667ZM16.1055 94.7228L16.1055 81.2107L16.1055 94.7228ZM146.822 81.2107L146.822 94.7228L146.822 81.2107Z" fill="#757185" fill-opacity="0.2" mask="url(#path-5-inside-2_86_3641)"/>
<path d="M18.1883 91.1202L18.1883 84.5859H18.6069L18.6069 91.1202H18.1883ZM19.5972 86.5462C19.5666 86.2875 19.4424 86.0867 19.2246 85.9438C19.0067 85.8009 18.7396 85.7294 18.4231 85.7294C18.1917 85.7294 17.9892 85.7668 17.8156 85.8417C17.6437 85.9166 17.5093 86.0195 17.4123 86.1506C17.317 86.2816 17.2694 86.4305 17.2694 86.5972C17.2694 86.7368 17.3026 86.8567 17.3689 86.9571C17.437 87.0558 17.5238 87.1384 17.6293 87.2047C17.7348 87.2694 17.8454 87.323 17.9611 87.3655C18.0768 87.4064 18.1832 87.4395 18.2801 87.4651L18.8111 87.608C18.9472 87.6437 19.0986 87.6931 19.2654 87.756C19.4339 87.819 19.5947 87.9049 19.7478 88.0138C19.9027 88.121 20.0303 88.2589 20.1307 88.4273C20.2311 88.5958 20.2813 88.8025 20.2813 89.0476C20.2813 89.33 20.2072 89.5853 20.0592 89.8133C19.9129 90.0413 19.6985 90.2226 19.416 90.357C19.1352 90.4914 18.794 90.5586 18.3925 90.5586C18.0181 90.5586 17.6939 90.4982 17.42 90.3774C17.1477 90.2566 16.9333 90.0881 16.7768 89.872C16.6219 89.6559 16.5343 89.4049 16.5139 89.119H17.1673C17.1843 89.3164 17.2507 89.4798 17.3664 89.6091C17.4838 89.7367 17.6318 89.832 17.8105 89.895C17.9909 89.9562 18.1849 89.9869 18.3925 89.9869C18.6341 89.9869 18.851 89.9477 19.0433 89.8695C19.2356 89.7895 19.3879 89.6789 19.5002 89.5376C19.6125 89.3947 19.6687 89.228 19.6687 89.0374C19.6687 88.8638 19.6202 88.7226 19.5232 88.6137C19.4262 88.5048 19.2986 88.4163 19.1403 88.3482C18.9821 88.2801 18.8111 88.2206 18.6273 88.1695L17.9841 87.9858C17.5757 87.8684 17.2524 87.7007 17.0141 87.4829C16.7759 87.2651 16.6568 86.9801 16.6568 86.6279C16.6568 86.3352 16.7359 86.0799 16.8942 85.8621C17.0541 85.6426 17.2685 85.4725 17.5374 85.3516C17.8079 85.2291 18.11 85.1679 18.4435 85.1679C18.7804 85.1679 19.0799 85.2283 19.342 85.3491C19.604 85.4682 19.8116 85.6316 19.9648 85.8392C20.1196 86.0468 20.2013 86.2824 20.2098 86.5462H19.5972ZM22.9658 90.5382C22.7514 90.5348 22.537 90.494 22.3226 90.4157C22.1082 90.3374 21.9125 90.2055 21.7355 90.0201C21.5585 89.8329 21.4165 89.5802 21.3093 89.262C21.2021 88.9421 21.1485 88.5405 21.1485 88.0572C21.1485 87.5944 21.1918 87.1843 21.2786 86.827C21.3654 86.4679 21.4913 86.1659 21.6564 85.9208C21.8214 85.6741 22.0205 85.4869 22.2537 85.3593C22.4885 85.2317 22.7531 85.1679 23.0475 85.1679C23.3402 85.1679 23.6005 85.2266 23.8285 85.344C24.0582 85.4597 24.2454 85.6214 24.3901 85.829C24.5347 86.0365 24.6283 86.2756 24.6708 86.5462H24.048C23.9902 86.3114 23.8779 86.1165 23.7111 85.9617C23.5443 85.8068 23.3231 85.7294 23.0475 85.7294C22.6425 85.7294 22.3234 85.9055 22.0903 86.2578C21.8589 86.61 21.7423 87.1043 21.7406 87.7407H21.7815C21.8768 87.5961 21.9899 87.4727 22.1209 87.3706C22.2537 87.2668 22.4 87.1868 22.56 87.1307C22.7199 87.0745 22.8892 87.0465 23.0679 87.0465C23.3674 87.0465 23.6413 87.1213 23.8898 87.2711C24.1382 87.4191 24.3373 87.6242 24.487 87.8862C24.6368 88.1466 24.7117 88.4452 24.7117 88.7821C24.7117 89.1054 24.6393 89.4015 24.4947 89.6704C24.3501 89.9375 24.1467 90.1502 23.8847 90.3085C23.6243 90.465 23.318 90.5416 22.9658 90.5382ZM22.9658 89.9767C23.1802 89.9767 23.3725 89.9231 23.5426 89.8159C23.7145 89.7087 23.8498 89.5649 23.9485 89.3845C24.0489 89.2041 24.0991 89.0033 24.0991 88.7821C24.0991 88.566 24.0506 88.3695 23.9536 88.1925C23.8583 88.0138 23.7264 87.8718 23.558 87.7663C23.3912 87.6608 23.2006 87.608 22.9862 87.608C22.8246 87.608 22.674 87.6403 22.5344 87.705C22.3949 87.768 22.2724 87.8547 22.1669 87.9653C22.0631 88.0759 21.9814 88.2027 21.9218 88.3457C21.8623 88.4869 21.8325 88.6358 21.8325 88.7923C21.8325 88.9999 21.881 89.1939 21.978 89.3743C22.0767 89.5547 22.2111 89.7002 22.3813 89.8108C22.5531 89.9214 22.748 89.9767 22.9658 89.9767ZM27.4204 90.5382C27.0359 90.5382 26.7083 90.4336 26.4377 90.2243C26.1672 90.0133 25.9604 89.7078 25.8175 89.3079C25.6746 88.9063 25.6031 88.4214 25.6031 87.853C25.6031 87.2881 25.6746 86.8057 25.8175 86.4058C25.9621 86.0042 26.1697 85.6979 26.4403 85.4869C26.7126 85.2742 27.0393 85.1679 27.4204 85.1679C27.8016 85.1679 28.1275 85.2742 28.398 85.4869C28.6703 85.6979 28.8779 86.0042 29.0208 86.4058C29.1655 86.8057 29.2378 87.2881 29.2378 87.853C29.2378 88.4214 29.1663 88.9063 29.0234 89.3079C28.8804 89.7078 28.6737 90.0133 28.4031 90.2243C28.1326 90.4336 27.805 90.5382 27.4204 90.5382ZM27.4204 89.9767C27.8016 89.9767 28.0977 89.7929 28.3087 89.4253C28.5197 89.0578 28.6252 88.5337 28.6252 87.853C28.6252 87.4004 28.5767 87.015 28.4797 86.6968C28.3844 86.3786 28.2466 86.1361 28.0662 85.9693C27.8875 85.8026 27.6723 85.7192 27.4204 85.7192C27.0427 85.7192 26.7474 85.9055 26.5347 86.2782C26.322 86.6491 26.2157 87.1741 26.2157 87.853C26.2157 88.3057 26.2633 88.6902 26.3586 89.0067C26.4539 89.3232 26.5909 89.564 26.7696 89.7291C26.9499 89.8941 27.1669 89.9767 27.4204 89.9767ZM31.9127 90.5382C31.5282 90.5382 31.2006 90.4336 30.93 90.2243C30.6595 90.0133 30.4527 89.7078 30.3098 89.3079C30.1669 88.9063 30.0954 88.4214 30.0954 87.853C30.0954 87.2881 30.1669 86.8057 30.3098 86.4058C30.4544 86.0042 30.662 85.6979 30.9326 85.4869C31.2049 85.2742 31.5316 85.1679 31.9127 85.1679C32.2939 85.1679 32.6198 85.2742 32.8903 85.4869C33.1626 85.6979 33.3702 86.0042 33.5131 86.4058C33.6578 86.8057 33.7301 87.2881 33.7301 87.853C33.7301 88.4214 33.6586 88.9063 33.5157 89.3079C33.3727 89.7078 33.166 90.0133 32.8954 90.2243C32.6249 90.4336 32.2973 90.5382 31.9127 90.5382ZM31.9127 89.9767C32.2939 89.9767 32.59 89.7929 32.801 89.4253C33.012 89.0578 33.1175 88.5337 33.1175 87.853C33.1175 87.4004 33.069 87.015 32.972 86.6968C32.8767 86.3786 32.7389 86.1361 32.5585 85.9693C32.3798 85.8026 32.1646 85.7192 31.9127 85.7192C31.535 85.7192 31.2397 85.9055 31.027 86.2782C30.8143 86.6491 30.708 87.1741 30.708 87.853C30.708 88.3057 30.7556 88.6902 30.8509 89.0067C30.9462 89.3232 31.0832 89.564 31.2619 89.7291C31.4422 89.8941 31.6592 89.9767 31.9127 89.9767Z" fill="#FFF8F0"/>
<path d="M36.0469 93.3889L41.9393 89.2022L56.497 116.987L78.3335 75.5002L98.0904 123.457L117.154 81.9706L125.126 86.9185L134.485 75.5002L145.923 111.277" stroke="#FFF8F0" stroke-width="0.750519"/>
<path d="M146.634 110.584C146.634 111.198 146.195 111.658 145.696 111.658C145.198 111.658 144.758 111.198 144.758 110.584C144.758 109.97 145.198 109.509 145.696 109.509C146.195 109.509 146.634 109.97 146.634 110.584Z" fill="#FFF8F0" stroke="#EBFF74" stroke-width="0.37526"/>
<path d="M36.7592 93.4211C36.7592 94.0352 36.3196 94.4955 35.8211 94.4955C35.3225 94.4955 34.8829 94.0352 34.8829 93.4211C34.8829 92.807 35.3225 92.3467 35.8211 92.3467C36.3196 92.3467 36.7592 92.807 36.7592 93.4211Z" fill="#FFF8F0" stroke="#EBFF74" stroke-width="0.37526"/>
<mask id="path-11-inside-3_86_3641" fill="white">
<path d="M16.1055 116.993C16.1055 113.261 19.1303 110.237 22.8615 110.237L140.066 110.237C143.797 110.237 146.822 113.261 146.822 116.993V116.993C146.822 120.724 143.797 123.749 140.066 123.749L22.8615 123.749C19.1302 123.749 16.1055 120.724 16.1055 116.993V116.993Z"/>
</mask>
<path d="M16.1055 110.237L146.822 110.237L16.1055 110.237ZM146.822 116.993C146.822 121.121 143.475 124.467 139.347 124.467L23.5803 124.467C19.4521 124.467 16.1055 121.121 16.1055 116.993C16.1055 120.327 19.1302 123.03 22.8615 123.03L140.066 123.03C143.797 123.03 146.822 120.327 146.822 116.993ZM16.1055 123.749L16.1055 110.237L16.1055 123.749ZM146.822 110.237L146.822 123.749L146.822 110.237Z" fill="#757185" fill-opacity="0.2" mask="url(#path-11-inside-3_86_3641)"/>
<path d="M18.1883 120.146L18.1883 113.612H18.6069L18.6069 120.146H18.1883ZM19.5972 115.572C19.5666 115.313 19.4424 115.113 19.2246 114.97C19.0067 114.827 18.7396 114.755 18.4231 114.755C18.1917 114.755 17.9892 114.793 17.8156 114.868C17.6437 114.942 17.5093 115.045 17.4123 115.176C17.317 115.307 17.2694 115.456 17.2694 115.623C17.2694 115.763 17.3026 115.883 17.3689 115.983C17.437 116.082 17.5238 116.164 17.6293 116.231C17.7348 116.295 17.8454 116.349 17.9611 116.391C18.0768 116.432 18.1832 116.465 18.2801 116.491L18.8111 116.634C18.9472 116.67 19.0986 116.719 19.2654 116.782C19.4339 116.845 19.5947 116.931 19.7478 117.04C19.9027 117.147 20.0303 117.285 20.1307 117.453C20.2311 117.622 20.2813 117.828 20.2813 118.073C20.2813 118.356 20.2072 118.611 20.0592 118.839C19.9129 119.067 19.6985 119.248 19.416 119.383C19.1352 119.517 18.794 119.584 18.3925 119.584C18.0181 119.584 17.6939 119.524 17.42 119.403C17.1477 119.282 16.9333 119.114 16.7768 118.898C16.6219 118.682 16.5343 118.431 16.5139 118.145H17.1673C17.1843 118.342 17.2507 118.506 17.3664 118.635C17.4838 118.763 17.6318 118.858 17.8105 118.921C17.9909 118.982 18.1849 119.013 18.3925 119.013C18.6341 119.013 18.851 118.974 19.0433 118.895C19.2356 118.815 19.3879 118.705 19.5002 118.563C19.6125 118.421 19.6687 118.254 19.6687 118.063C19.6687 117.89 19.6202 117.748 19.5232 117.639C19.4262 117.531 19.2986 117.442 19.1403 117.374C18.9821 117.306 18.8111 117.246 18.6273 117.195L17.9841 117.012C17.5757 116.894 17.2524 116.727 17.0141 116.509C16.7759 116.291 16.6568 116.006 16.6568 115.654C16.6568 115.361 16.7359 115.106 16.8942 114.888C17.0541 114.668 17.2685 114.498 17.5374 114.377C17.8079 114.255 18.11 114.194 18.4435 114.194C18.7804 114.194 19.0799 114.254 19.342 114.375C19.604 114.494 19.8116 114.657 19.9648 114.865C20.1196 115.073 20.2013 115.308 20.2098 115.572H19.5972ZM22.9964 119.564C22.6595 119.564 22.3592 119.506 22.0954 119.39C21.8334 119.275 21.6249 119.114 21.4701 118.908C21.3169 118.7 21.2335 118.46 21.2199 118.186H21.8631C21.8768 118.354 21.9346 118.5 22.0367 118.622C22.1388 118.743 22.2724 118.837 22.4374 118.903C22.6025 118.969 22.7854 119.002 22.9862 119.002C23.2108 119.002 23.4099 118.963 23.5835 118.885C23.757 118.807 23.8932 118.698 23.9919 118.558C24.0906 118.419 24.1399 118.257 24.1399 118.073C24.1399 117.881 24.0923 117.712 23.997 117.565C23.9017 117.417 23.7622 117.302 23.5784 117.218C23.3946 117.135 23.17 117.093 22.9045 117.093H22.4859L22.4859 116.532H22.9045C23.1121 116.532 23.2942 116.494 23.4508 116.419C23.609 116.345 23.7324 116.239 23.8209 116.103C23.911 115.967 23.9561 115.807 23.9561 115.623C23.9561 115.446 23.917 115.292 23.8387 115.161C23.7605 115.03 23.6498 114.928 23.5069 114.855C23.3657 114.782 23.1989 114.745 23.0066 114.745C22.8263 114.745 22.6561 114.778 22.4961 114.845C22.3379 114.909 22.2086 115.004 22.1082 115.128C22.0078 115.25 21.9533 115.398 21.9448 115.572H21.3322C21.3424 115.298 21.425 115.058 21.5798 114.852C21.7347 114.645 21.9372 114.483 22.1873 114.367C22.4391 114.252 22.7157 114.194 23.0168 114.194C23.3402 114.194 23.6175 114.259 23.8489 114.39C24.0804 114.52 24.2582 114.691 24.3824 114.903C24.5066 115.116 24.5687 115.346 24.5687 115.592C24.5687 115.887 24.4913 116.138 24.3365 116.345C24.1833 116.553 23.9749 116.697 23.7111 116.777V116.818C24.0412 116.872 24.299 117.012 24.4845 117.239C24.67 117.463 24.7627 117.742 24.7627 118.073C24.7627 118.358 24.6853 118.613 24.5304 118.839C24.3773 119.064 24.168 119.241 23.9025 119.37C23.6371 119.499 23.335 119.564 22.9964 119.564ZM27.5117 119.564C27.1271 119.564 26.7996 119.459 26.529 119.25C26.2584 119.039 26.0517 118.734 25.9088 118.334C25.7658 117.932 25.6944 117.447 25.6944 116.879C25.6944 116.314 25.7658 115.832 25.9088 115.432C26.0534 115.03 26.261 114.724 26.5316 114.513C26.8038 114.3 27.1305 114.194 27.5117 114.194C27.8929 114.194 28.2187 114.3 28.4893 114.513C28.7615 114.724 28.9691 115.03 29.1121 115.432C29.2567 115.832 29.329 116.314 29.329 116.879C29.329 117.447 29.2576 117.932 29.1146 118.334C28.9717 118.734 28.7649 119.039 28.4944 119.25C28.2238 119.459 27.8963 119.564 27.5117 119.564ZM27.5117 119.002C27.8929 119.002 28.1889 118.819 28.3999 118.451C28.6109 118.084 28.7164 117.56 28.7164 116.879C28.7164 116.426 28.6679 116.041 28.571 115.723C28.4757 115.404 28.3378 115.162 28.1575 114.995C27.9788 114.828 27.7635 114.745 27.5117 114.745C27.1339 114.745 26.8387 114.931 26.626 115.304C26.4133 115.675 26.3069 116.2 26.3069 116.879C26.3069 117.331 26.3546 117.716 26.4499 118.033C26.5452 118.349 26.6821 118.59 26.8608 118.755C27.0412 118.92 27.2581 119.002 27.5117 119.002ZM32.004 119.564C31.6194 119.564 31.2919 119.459 31.0213 119.25C30.7507 119.039 30.544 118.734 30.4011 118.334C30.2581 117.932 30.1866 117.447 30.1866 116.879C30.1866 116.314 30.2581 115.832 30.4011 115.432C30.5457 115.03 30.7533 114.724 31.0238 114.513C31.2961 114.3 31.6228 114.194 32.004 114.194C32.3852 114.194 32.711 114.3 32.9816 114.513C33.2538 114.724 33.4614 115.03 33.6044 115.432C33.749 115.832 33.8213 116.314 33.8213 116.879C33.8213 117.447 33.7499 117.932 33.6069 118.334C33.464 118.734 33.2572 119.039 32.9867 119.25C32.7161 119.459 32.3886 119.564 32.004 119.564ZM32.004 119.002C32.3852 119.002 32.6812 118.819 32.8922 118.451C33.1032 118.084 33.2087 117.56 33.2087 116.879C33.2087 116.426 33.1602 116.041 33.0632 115.723C32.968 115.404 32.8301 115.162 32.6498 114.995C32.4711 114.828 32.2558 114.745 32.004 114.745C31.6262 114.745 31.331 114.931 31.1183 115.304C30.9056 115.675 30.7992 116.2 30.7992 116.879C30.7992 117.331 30.8469 117.716 30.9422 118.033C31.0375 118.349 31.1744 118.59 31.3531 118.755C31.5335 118.92 31.7504 119.002 32.004 119.002Z" fill="#FFF8F0"/>
<mask id="path-14-inside-4_86_3641" fill="white">
<path d="M16.1055 146.019C16.1055 142.287 19.1303 139.263 22.8615 139.263L140.066 139.263C143.797 139.263 146.822 142.287 146.822 146.019V146.019C146.822 149.75 143.797 152.775 140.066 152.775L22.8615 152.775C19.1302 152.775 16.1055 149.75 16.1055 146.019V146.019Z"/>
</mask>
<path d="M16.1055 139.263L146.822 139.263L16.1055 139.263ZM146.822 146.019C146.822 150.147 143.475 153.493 139.347 153.493L23.5803 153.493C19.4521 153.493 16.1055 150.147 16.1055 146.019C16.1055 149.353 19.1302 152.056 22.8615 152.056L140.066 152.056C143.797 152.056 146.822 149.353 146.822 146.019ZM16.1055 152.775L16.1055 139.263L16.1055 152.775ZM146.822 139.263L146.822 152.775L146.822 139.263Z" fill="#757185" fill-opacity="0.2" mask="url(#path-14-inside-4_86_3641)"/>
<path d="M18.1883 149.172L18.1883 142.638H18.6069L18.6069 149.172H18.1883ZM19.5972 144.598C19.5666 144.339 19.4424 144.139 19.2246 143.996C19.0067 143.853 18.7396 143.781 18.4231 143.781C18.1917 143.781 17.9892 143.819 17.8156 143.894C17.6437 143.969 17.5093 144.071 17.4123 144.202C17.317 144.334 17.2694 144.482 17.2694 144.649C17.2694 144.789 17.3026 144.909 17.3689 145.009C17.437 145.108 17.5238 145.19 17.6293 145.257C17.7348 145.321 17.8454 145.375 17.9611 145.417C18.0768 145.458 18.1832 145.491 18.2801 145.517L18.8111 145.66C18.9472 145.696 19.0986 145.745 19.2654 145.808C19.4339 145.871 19.5947 145.957 19.7478 146.066C19.9027 146.173 20.0303 146.311 20.1307 146.479C20.2311 146.648 20.2813 146.854 20.2813 147.1C20.2813 147.382 20.2072 147.637 20.0592 147.865C19.9129 148.093 19.6985 148.274 19.416 148.409C19.1352 148.543 18.794 148.611 18.3925 148.611C18.0181 148.611 17.6939 148.55 17.42 148.429C17.1477 148.309 16.9333 148.14 16.7768 147.924C16.6219 147.708 16.5343 147.457 16.5139 147.171H17.1673C17.1843 147.368 17.2507 147.532 17.3664 147.661C17.4838 147.789 17.6318 147.884 17.8105 147.947C17.9909 148.008 18.1849 148.039 18.3925 148.039C18.6341 148.039 18.851 148 19.0433 147.921C19.2356 147.841 19.3879 147.731 19.5002 147.59C19.6125 147.447 19.6687 147.28 19.6687 147.089C19.6687 146.916 19.6202 146.775 19.5232 146.666C19.4262 146.557 19.2986 146.468 19.1403 146.4C18.9821 146.332 18.8111 146.273 18.6273 146.221L17.9841 146.038C17.5757 145.92 17.2524 145.753 17.0141 145.535C16.7759 145.317 16.6568 145.032 16.6568 144.68C16.6568 144.387 16.7359 144.132 16.8942 143.914C17.0541 143.695 17.2685 143.524 17.5374 143.404C17.8079 143.281 18.11 143.22 18.4435 143.22C18.7804 143.22 19.0799 143.28 19.342 143.401C19.604 143.52 19.8116 143.684 19.9648 143.891C20.1196 144.099 20.2013 144.334 20.2098 144.598H19.5972ZM22.9352 148.59C22.5506 148.59 22.223 148.485 21.9525 148.276C21.6819 148.065 21.4752 147.76 21.3322 147.36C21.1893 146.958 21.1178 146.473 21.1178 145.905C21.1178 145.34 21.1893 144.858 21.3322 144.458C21.4769 144.056 21.6845 143.75 21.955 143.539C22.2273 143.326 22.554 143.22 22.9352 143.22C23.3163 143.22 23.6422 143.326 23.9127 143.539C24.185 143.75 24.3926 144.056 24.5355 144.458C24.6802 144.858 24.7525 145.34 24.7525 145.905C24.7525 146.473 24.681 146.958 24.5381 147.36C24.3952 147.76 24.1884 148.065 23.9179 148.276C23.6473 148.485 23.3197 148.59 22.9352 148.59ZM22.9352 148.029C23.3163 148.029 23.6124 147.845 23.8234 147.477C24.0344 147.11 24.1399 146.586 24.1399 145.905C24.1399 145.452 24.0914 145.067 23.9944 144.749C23.8991 144.431 23.7613 144.188 23.5809 144.021C23.4023 143.855 23.187 143.771 22.9352 143.771C22.5574 143.771 22.2622 143.957 22.0495 144.33C21.8368 144.701 21.7304 145.226 21.7304 145.905C21.7304 146.358 21.7781 146.742 21.8733 147.059C21.9686 147.375 22.1056 147.616 22.2843 147.781C22.4647 147.946 22.6816 148.029 22.9352 148.029Z" fill="#FFF8F0"/>
<line x1="35.0859" y1="54.6068" x2="35.0859" y2="152.359" stroke="#757185" stroke-opacity="0.2" stroke-width="0.718767" stroke-dasharray="1.44 1.44"/>
<path d="M28.7377 156.797V156.567L29.6005 155.623C29.7017 155.512 29.7851 155.416 29.8506 155.334C29.9161 155.252 29.9646 155.174 29.9961 155.102C30.0284 155.029 30.0446 154.952 30.0446 154.872C30.0446 154.78 30.0225 154.701 29.9782 154.633C29.9348 154.566 29.8753 154.514 29.7996 154.478C29.7238 154.441 29.6387 154.423 29.5443 154.423C29.4439 154.423 29.3563 154.444 29.2814 154.485C29.2074 154.526 29.15 154.584 29.1091 154.658C29.0691 154.732 29.0491 154.819 29.0491 154.918H28.7479C28.7479 154.765 28.7833 154.631 28.8539 154.515C28.9245 154.399 29.0206 154.309 29.1423 154.244C29.2648 154.18 29.4022 154.147 29.5545 154.147C29.7077 154.147 29.8434 154.18 29.9616 154.244C30.0799 154.309 30.1726 154.396 30.2398 154.506C30.3071 154.616 30.3407 154.738 30.3407 154.872C30.3407 154.968 30.3232 155.062 30.2883 155.154C30.2543 155.245 30.1948 155.347 30.1097 155.459C30.0254 155.571 29.9085 155.707 29.7587 155.868L29.1717 156.496V156.516H30.3866V156.797H28.7377ZM31.8326 154.183L31.8326 156.797H31.5161L31.5161 154.515H31.5008L30.8626 154.939V154.617L31.5161 154.183H31.8326ZM33.7482 156.797H33.4164L34.3761 154.183L34.7028 154.183L35.6625 156.797H35.3307L34.5496 154.596H34.5292L33.7482 156.797ZM33.8707 155.776H35.2082V156.056H33.8707V155.776ZM36.0288 157.532L36.0288 154.836H36.3198V155.148H36.3555C36.3776 155.114 36.4082 155.07 36.4474 155.018C36.4874 154.964 36.5444 154.916 36.6184 154.875C36.6933 154.832 36.7945 154.811 36.9221 154.811C37.0872 154.811 37.2327 154.852 37.3586 154.935C37.4845 155.017 37.5828 155.134 37.6534 155.286C37.724 155.437 37.7593 155.616 37.7593 155.822C37.7593 156.029 37.724 156.209 37.6534 156.362C37.5828 156.513 37.485 156.63 37.3599 156.714C37.2348 156.796 37.0906 156.838 36.9272 156.838C36.8013 156.838 36.7005 156.817 36.6248 156.775C36.5491 156.732 36.4908 156.684 36.4499 156.631C36.4091 156.576 36.3776 156.531 36.3555 156.496H36.33V157.532H36.0288ZM36.3249 155.817C36.3249 155.965 36.3466 156.095 36.39 156.208C36.4333 156.321 36.4967 156.409 36.5801 156.473C36.6635 156.535 36.7656 156.567 36.8864 156.567C37.0123 156.567 37.1174 156.534 37.2016 156.467C37.2867 156.4 37.3505 156.31 37.3931 156.197C37.4365 156.083 37.4582 155.956 37.4582 155.817C37.4582 155.679 37.4369 155.555 37.3943 155.444C37.3527 155.332 37.2893 155.244 37.2042 155.18C37.12 155.114 37.014 155.081 36.8864 155.081C36.7639 155.081 36.6609 155.113 36.5776 155.175C36.4942 155.236 36.4312 155.322 36.3887 155.432C36.3461 155.542 36.3249 155.67 36.3249 155.817ZM38.2188 156.797V154.836H38.5098V155.133H38.5302C38.5659 155.036 38.6306 154.957 38.7242 154.896C38.8178 154.836 38.9233 154.806 39.0407 154.806C39.0628 154.806 39.0904 154.806 39.1236 154.807C39.1568 154.808 39.1819 154.809 39.1989 154.811L39.1989 155.117C39.1887 155.115 39.1653 155.111 39.1287 155.106C39.093 155.1 39.0551 155.097 39.0151 155.097C38.9199 155.097 38.8348 155.117 38.7599 155.157C38.6859 155.196 38.6272 155.25 38.5838 155.32C38.5412 155.389 38.52 155.468 38.52 155.556L38.52 156.797H38.2188ZM39.5559 156.797V154.836H39.8571L39.8571 156.797H39.5559ZM39.7091 154.51C39.6504 154.51 39.5998 154.49 39.5572 154.45C39.5155 154.41 39.4947 154.362 39.4947 154.306C39.4947 154.249 39.5155 154.201 39.5572 154.161C39.5998 154.121 39.6504 154.101 39.7091 154.101C39.7678 154.101 39.818 154.121 39.8597 154.161C39.9022 154.201 39.9235 154.249 39.9235 154.306C39.9235 154.362 39.9022 154.41 39.8597 154.45C39.818 154.49 39.7678 154.51 39.7091 154.51ZM40.71 154.183L40.71 156.797H40.4088V154.183H40.71Z" fill="#D8D8D9"/>
<line x1="62.0664" y1="54.3879" x2="62.0664" y2="152.14" stroke="#757185" stroke-opacity="0.2" stroke-width="0.718767" stroke-dasharray="1.44 1.44"/>
<path d="M55.4655 156.578V156.348L56.3282 155.404C56.4295 155.293 56.5129 155.197 56.5784 155.115C56.6439 155.033 56.6924 154.955 56.7239 154.883C56.7562 154.81 56.7724 154.733 56.7724 154.653C56.7724 154.561 56.7502 154.482 56.706 154.415C56.6626 154.347 56.6031 154.295 56.5273 154.259C56.4516 154.222 56.3665 154.204 56.2721 154.204C56.1717 154.204 56.0841 154.225 56.0092 154.267C55.9352 154.307 55.8777 154.365 55.8369 154.439C55.7969 154.513 55.7769 154.6 55.7769 154.699H55.4757C55.4757 154.546 55.511 154.412 55.5817 154.296C55.6523 154.18 55.7484 154.09 55.8701 154.025C55.9926 153.961 56.13 153.928 56.2823 153.928C56.4354 153.928 56.5711 153.961 56.6894 154.025C56.8077 154.09 56.9004 154.177 56.9676 154.287C57.0348 154.397 57.0684 154.519 57.0684 154.653C57.0684 154.749 57.051 154.843 57.0161 154.935C56.9821 155.026 56.9225 155.128 56.8375 155.24C56.7532 155.352 56.6362 155.488 56.4865 155.649L55.8994 156.277V156.297H57.1144V156.578H55.4655ZM57.6415 156.578V156.348L58.5042 155.404C58.6054 155.293 58.6888 155.197 58.7543 155.115C58.8198 155.033 58.8683 154.955 58.8998 154.883C58.9322 154.81 58.9483 154.733 58.9483 154.653C58.9483 154.561 58.9262 154.482 58.882 154.415C58.8386 154.347 58.779 154.295 58.7033 154.259C58.6276 154.222 58.5425 154.204 58.448 154.204C58.3476 154.204 58.26 154.225 58.1851 154.267C58.1111 154.307 58.0537 154.365 58.0129 154.439C57.9729 154.513 57.9529 154.6 57.9529 154.699H57.6517C57.6517 154.546 57.687 154.412 57.7576 154.296C57.8282 154.18 57.9244 154.09 58.046 154.025C58.1686 153.961 58.306 153.928 58.4583 153.928C58.6114 153.928 58.7471 153.961 58.8654 154.025C58.9836 154.09 59.0764 154.177 59.1436 154.287C59.2108 154.397 59.2444 154.519 59.2444 154.653C59.2444 154.749 59.227 154.843 59.1921 154.935C59.158 155.026 59.0985 155.128 59.0134 155.24C58.9292 155.352 58.8122 155.488 58.6624 155.649L58.0754 156.277V156.297H59.2903V156.578H57.6415ZM60.9813 156.578H60.6495L61.6092 153.964H61.936L62.8957 156.578H62.5639L61.7828 154.378H61.7624L60.9813 156.578ZM61.1039 155.557H62.4413V155.838H61.1039V155.557ZM63.2619 157.313V154.617H63.5529V154.929H63.5887C63.6108 154.895 63.6414 154.851 63.6805 154.799C63.7205 154.745 63.7775 154.697 63.8516 154.656C63.9264 154.613 64.0277 154.592 64.1553 154.592C64.3204 154.592 64.4658 154.633 64.5918 154.716C64.7177 154.798 64.816 154.915 64.8866 155.067C64.9572 155.218 64.9925 155.397 64.9925 155.603C64.9925 155.81 64.9572 155.99 64.8866 156.143C64.816 156.294 64.7181 156.411 64.593 156.495C64.468 156.577 64.3238 156.619 64.1604 156.619C64.0345 156.619 63.9337 156.598 63.8579 156.556C63.7822 156.514 63.7239 156.465 63.6831 156.412C63.6423 156.357 63.6108 156.312 63.5887 156.277H63.5631V157.313H63.2619ZM63.558 155.598C63.558 155.746 63.5797 155.876 63.6231 155.989C63.6665 156.102 63.7299 156.19 63.8133 156.254C63.8967 156.317 63.9988 156.348 64.1196 156.348C64.2455 156.348 64.3506 156.315 64.4348 156.248C64.5199 156.181 64.5837 156.091 64.6262 155.978C64.6696 155.864 64.6913 155.737 64.6913 155.598C64.6913 155.46 64.67 155.336 64.6275 155.225C64.5858 155.114 64.5224 155.025 64.4373 154.961C64.3531 154.895 64.2472 154.863 64.1196 154.863C63.997 154.863 63.8941 154.894 63.8107 154.956C63.7273 155.017 63.6644 155.103 63.6218 155.213C63.5793 155.323 63.558 155.451 63.558 155.598ZM65.4519 156.578V154.617H65.7429V154.914H65.7633C65.7991 154.817 65.8637 154.738 65.9573 154.677C66.0509 154.617 66.1564 154.587 66.2738 154.587C66.2959 154.587 66.3236 154.587 66.3568 154.588C66.39 154.589 66.4151 154.59 66.4321 154.592V154.898C66.4219 154.896 66.3985 154.892 66.3619 154.887C66.3262 154.881 66.2883 154.878 66.2483 154.878C66.153 154.878 66.0679 154.898 65.9931 154.938C65.919 154.977 65.8603 155.031 65.8169 155.101C65.7744 155.17 65.7531 155.249 65.7531 155.337V156.578H65.4519ZM66.7891 156.578V154.617H67.0903V156.578H66.7891ZM66.9422 154.291C66.8835 154.291 66.8329 154.271 66.7904 154.231C66.7487 154.191 66.7278 154.143 66.7278 154.087C66.7278 154.03 66.7487 153.982 66.7904 153.942C66.8329 153.902 66.8835 153.882 66.9422 153.882C67.001 153.882 67.0512 153.902 67.0928 153.942C67.1354 153.982 67.1567 154.03 67.1567 154.087C67.1567 154.143 67.1354 154.191 67.0928 154.231C67.0512 154.271 67.001 154.291 66.9422 154.291ZM67.9431 153.964V156.578H67.6419V153.964H67.9431Z" fill="#D8D8D9"/>
<line x1="90.5156" y1="54.388" x2="90.5156" y2="152.14" stroke="#757185" stroke-opacity="0.2" stroke-width="0.718767" stroke-dasharray="1.44 1.44"/>
<path d="M84.364 156.578V156.348L85.2267 155.404C85.3279 155.293 85.4113 155.197 85.4768 155.115C85.5423 155.033 85.5908 154.955 85.6223 154.883C85.6546 154.81 85.6708 154.733 85.6708 154.653C85.6708 154.561 85.6487 154.482 85.6044 154.415C85.5611 154.347 85.5015 154.296 85.4258 154.259C85.3501 154.222 85.265 154.204 85.1705 154.204C85.0701 154.204 84.9825 154.225 84.9076 154.267C84.8336 154.307 84.7762 154.365 84.7353 154.439C84.6954 154.513 84.6754 154.6 84.6754 154.699H84.3742C84.3742 154.546 84.4095 154.412 84.4801 154.296C84.5507 154.18 84.6469 154.09 84.7685 154.025C84.891 153.961 85.0284 153.928 85.1807 153.928C85.3339 153.928 85.4696 153.961 85.5879 154.025C85.7061 154.09 85.7989 154.177 85.8661 154.287C85.9333 154.397 85.9669 154.519 85.9669 154.653C85.9669 154.749 85.9495 154.843 85.9146 154.935C85.8805 155.026 85.821 155.128 85.7359 155.24C85.6517 155.352 85.5347 155.488 85.3849 155.649L84.7979 156.277V156.297H86.0128V156.578H84.364ZM87.4231 156.614C87.2546 156.614 87.1044 156.585 86.9726 156.527C86.8415 156.469 86.7373 156.389 86.6599 156.286C86.5833 156.182 86.5416 156.061 86.5348 155.924H86.8564C86.8632 156.009 86.8922 156.081 86.9432 156.143C86.9943 156.203 87.061 156.25 87.1436 156.283C87.2261 156.316 87.3176 156.333 87.418 156.333C87.5303 156.333 87.6298 156.313 87.7166 156.274C87.8034 156.235 87.8714 156.181 87.9208 156.111C87.9701 156.041 87.9948 155.96 87.9948 155.868C87.9948 155.772 87.971 155.688 87.9233 155.614C87.8757 155.54 87.8059 155.482 87.714 155.441C87.6222 155.399 87.5098 155.378 87.3771 155.378H87.1678V155.097H87.3771C87.4809 155.097 87.572 155.079 87.6502 155.041C87.7294 155.004 87.791 154.951 87.8353 154.883C87.8804 154.815 87.9029 154.735 87.9029 154.643C87.9029 154.555 87.8834 154.478 87.8442 154.412C87.8051 154.347 87.7498 154.296 87.6783 154.259C87.6077 154.222 87.5243 154.204 87.4282 154.204C87.338 154.204 87.2529 154.221 87.1729 154.254C87.0938 154.286 87.0291 154.333 86.9789 154.396C86.9287 154.457 86.9015 154.531 86.8973 154.618H86.591C86.5961 154.481 86.6373 154.361 86.7148 154.258C86.7922 154.154 86.8934 154.073 87.0185 154.015C87.1444 153.957 87.2827 153.928 87.4333 153.928C87.5949 153.928 87.7336 153.961 87.8493 154.027C87.965 154.091 88.0539 154.177 88.1161 154.283C88.1782 154.39 88.2092 154.504 88.2092 154.628C88.2092 154.775 88.1705 154.901 88.0931 155.004C88.0165 155.108 87.9123 155.18 87.7804 155.22V155.24C87.9455 155.268 88.0744 155.338 88.1671 155.451C88.2598 155.563 88.3062 155.702 88.3062 155.868C88.3062 156.01 88.2675 156.138 88.1901 156.251C88.1135 156.363 88.0088 156.452 87.8761 156.517C87.7434 156.581 87.5924 156.614 87.4231 156.614ZM88.9813 156.578H88.6495L89.6092 153.964H89.9359L90.8957 156.578H90.5638L89.7828 154.378H89.7624L88.9813 156.578ZM89.1038 155.557H90.4413V155.838H89.1038V155.557ZM91.2619 157.313V154.618H91.5529V154.929H91.5886C91.6108 154.895 91.6414 154.852 91.6805 154.799C91.7205 154.745 91.7775 154.698 91.8515 154.656C91.9264 154.613 92.0277 154.592 92.1553 154.592C92.3203 154.592 92.4658 154.633 92.5918 154.716C92.7177 154.798 92.8159 154.915 92.8866 155.067C92.9572 155.218 92.9925 155.397 92.9925 155.603C92.9925 155.81 92.9572 155.99 92.8866 156.143C92.8159 156.294 92.7181 156.412 92.593 156.495C92.468 156.577 92.3238 156.619 92.1604 156.619C92.0345 156.619 91.9337 156.598 91.8579 156.556C91.7822 156.514 91.7239 156.466 91.6831 156.412C91.6422 156.358 91.6108 156.312 91.5886 156.277H91.5631V157.313H91.2619ZM91.558 155.598C91.558 155.746 91.5797 155.876 91.6231 155.99C91.6665 156.102 91.7299 156.19 91.8133 156.254C91.8966 156.317 91.9987 156.348 92.1196 156.348C92.2455 156.348 92.3506 156.315 92.4348 156.249C92.5199 156.181 92.5837 156.091 92.6262 155.978C92.6696 155.864 92.6913 155.737 92.6913 155.598C92.6913 155.46 92.67 155.336 92.6275 155.225C92.5858 155.114 92.5224 155.026 92.4373 154.961C92.3531 154.895 92.2472 154.863 92.1196 154.863C91.997 154.863 91.8941 154.894 91.8107 154.956C91.7273 155.017 91.6644 155.103 91.6218 155.214C91.5793 155.323 91.558 155.451 91.558 155.598ZM93.4519 156.578V154.618H93.7429V154.914H93.7633C93.7991 154.817 93.8637 154.738 93.9573 154.678C94.0509 154.617 94.1564 154.587 94.2738 154.587C94.2959 154.587 94.3236 154.587 94.3568 154.588C94.39 154.589 94.4151 154.59 94.4321 154.592V154.898C94.4219 154.896 94.3985 154.892 94.3619 154.887C94.3261 154.881 94.2883 154.878 94.2483 154.878C94.153 154.878 94.0679 154.898 93.993 154.938C93.919 154.977 93.8603 155.032 93.8169 155.101C93.7744 155.17 93.7531 155.249 93.7531 155.337V156.578H93.4519ZM94.7891 156.578V154.618H95.0903V156.578H94.7891ZM94.9422 154.291C94.8835 154.291 94.8329 154.271 94.7904 154.231C94.7487 154.191 94.7278 154.143 94.7278 154.087C94.7278 154.031 94.7487 153.982 94.7904 153.942C94.8329 153.902 94.8835 153.883 94.9422 153.883C95.0009 153.883 95.0511 153.902 95.0928 153.942C95.1354 153.982 95.1566 154.031 95.1566 154.087C95.1566 154.143 95.1354 154.191 95.0928 154.231C95.0511 154.271 95.0009 154.291 94.9422 154.291ZM95.9431 153.964V156.578H95.6419V153.964H95.9431Z" fill="#D8D8D9"/>
<line x1="118.652" y1="54.388" x2="118.652" y2="152.14" stroke="#757185" stroke-opacity="0.2" stroke-width="0.718767" stroke-dasharray="1.44 1.44"/>
<path d="M112.015 156.578V156.348L112.877 155.404C112.979 155.293 113.062 155.197 113.127 155.115C113.193 155.033 113.241 154.955 113.273 154.883C113.305 154.81 113.321 154.733 113.321 154.653C113.321 154.561 113.299 154.482 113.255 154.415C113.212 154.347 113.152 154.296 113.076 154.259C113.001 154.222 112.916 154.204 112.821 154.204C112.721 154.204 112.633 154.225 112.558 154.267C112.484 154.307 112.427 154.365 112.386 154.439C112.346 154.513 112.326 154.6 112.326 154.699H112.025C112.025 154.546 112.06 154.412 112.131 154.296C112.201 154.18 112.297 154.09 112.419 154.025C112.542 153.961 112.679 153.928 112.831 153.928C112.985 153.928 113.12 153.961 113.238 154.025C113.357 154.09 113.449 154.177 113.517 154.287C113.584 154.397 113.618 154.519 113.618 154.653C113.618 154.749 113.6 154.843 113.565 154.935C113.531 155.026 113.472 155.128 113.387 155.24C113.302 155.352 113.185 155.488 113.036 155.649L112.449 156.277V156.297H113.663V156.578H112.015ZM114.073 156.042V155.782L115.222 153.964H115.411V154.367H115.283L114.415 155.741V155.761H115.962V156.042H114.073ZM115.303 156.578V155.963V155.842V153.964H115.605V156.578H115.303ZM117.604 156.578H117.272L118.232 153.964H118.559L119.518 156.578H119.187L118.406 154.378H118.385L117.604 156.578ZM117.727 155.557H119.064V155.838H117.727V155.557ZM119.885 157.313V154.618H120.176V154.929H120.211C120.234 154.895 120.264 154.852 120.303 154.799C120.343 154.745 120.4 154.698 120.474 154.656C120.549 154.613 120.65 154.592 120.778 154.592C120.943 154.592 121.089 154.633 121.215 154.716C121.34 154.798 121.439 154.915 121.509 155.067C121.58 155.218 121.615 155.397 121.615 155.603C121.615 155.81 121.58 155.99 121.509 156.143C121.439 156.294 121.341 156.412 121.216 156.495C121.091 156.577 120.947 156.619 120.783 156.619C120.657 156.619 120.556 156.598 120.481 156.556C120.405 156.514 120.347 156.466 120.306 156.412C120.265 156.358 120.234 156.312 120.211 156.277H120.186V157.313H119.885ZM120.181 155.598C120.181 155.746 120.203 155.876 120.246 155.99C120.289 156.102 120.353 156.19 120.436 156.254C120.519 156.317 120.622 156.348 120.742 156.348C120.868 156.348 120.973 156.315 121.058 156.249C121.143 156.181 121.206 156.091 121.249 155.978C121.292 155.864 121.314 155.737 121.314 155.598C121.314 155.46 121.293 155.336 121.25 155.225C121.209 155.114 121.145 155.026 121.06 154.961C120.976 154.895 120.87 154.863 120.742 154.863C120.62 154.863 120.517 154.894 120.434 154.956C120.35 155.017 120.287 155.103 120.245 155.214C120.202 155.323 120.181 155.451 120.181 155.598ZM122.075 156.578V154.618H122.366V154.914H122.386C122.422 154.817 122.487 154.738 122.58 154.678C122.674 154.617 122.779 154.587 122.897 154.587C122.919 154.587 122.946 154.587 122.98 154.588C123.013 154.589 123.038 154.59 123.055 154.592V154.898C123.045 154.896 123.021 154.892 122.985 154.887C122.949 154.881 122.911 154.878 122.871 154.878C122.776 154.878 122.691 154.898 122.616 154.938C122.542 154.977 122.483 155.032 122.44 155.101C122.397 155.17 122.376 155.249 122.376 155.337V156.578H122.075ZM123.412 156.578V154.618H123.713V156.578H123.412ZM123.565 154.291C123.506 154.291 123.456 154.271 123.413 154.231C123.371 154.191 123.351 154.143 123.351 154.087C123.351 154.031 123.371 153.982 123.413 153.942C123.456 153.902 123.506 153.883 123.565 153.883C123.624 153.883 123.674 153.902 123.716 153.942C123.758 153.982 123.779 154.031 123.779 154.087C123.779 154.143 123.758 154.191 123.716 154.231C123.674 154.271 123.624 154.291 123.565 154.291ZM124.566 153.964V156.578H124.265V153.964H124.566Z" fill="#D8D8D9"/>
<path d="M21.3142 178.449C21.2713 178.087 21.0974 177.806 20.7925 177.606C20.4876 177.406 20.1135 177.306 19.6704 177.306C19.3465 177.306 19.063 177.358 18.82 177.463C18.5794 177.568 18.3912 177.712 18.2554 177.895C18.122 178.079 18.0553 178.287 18.0553 178.521C18.0553 178.716 18.1017 178.884 18.1946 179.025C18.2899 179.163 18.4114 179.278 18.5591 179.371C18.7068 179.462 18.8617 179.537 19.0237 179.596C19.1857 179.653 19.3345 179.7 19.4703 179.736L20.2136 179.936C20.4042 179.986 20.6162 180.055 20.8497 180.143C21.0855 180.231 21.3106 180.351 21.525 180.504C21.7418 180.654 21.9205 180.847 22.0611 181.083C22.2016 181.319 22.2719 181.608 22.2719 181.951C22.2719 182.347 22.1683 182.704 21.961 183.023C21.7561 183.342 21.456 183.596 21.0605 183.784C20.6674 183.973 20.1898 184.067 19.6276 184.067C19.1035 184.067 18.6496 183.982 18.2661 183.813C17.8849 183.644 17.5848 183.408 17.3656 183.105C17.1488 182.803 17.0261 182.451 16.9975 182.051H17.9123C17.9361 182.328 18.0291 182.556 18.191 182.737C18.3554 182.916 18.5627 183.049 18.8128 183.138C19.0653 183.223 19.3369 183.266 19.6276 183.266C19.9658 183.266 20.2696 183.211 20.5388 183.102C20.808 182.99 21.0212 182.835 21.1784 182.637C21.3357 182.437 21.4143 182.204 21.4143 181.937C21.4143 181.694 21.3464 181.496 21.2106 181.344C21.0748 181.191 20.8961 181.067 20.6746 180.972C20.453 180.877 20.2136 180.793 19.9563 180.722L19.0558 180.465C18.4841 180.3 18.0314 180.066 17.6979 179.761C17.3644 179.456 17.1976 179.057 17.1976 178.564C17.1976 178.154 17.3084 177.796 17.53 177.492C17.7539 177.184 18.0541 176.946 18.4305 176.777C18.8093 176.605 19.2321 176.52 19.699 176.52C20.1707 176.52 20.59 176.604 20.9569 176.773C21.3237 176.94 21.6144 177.169 21.8288 177.459C22.0456 177.75 22.1599 178.08 22.1718 178.449H21.3142ZM26.0016 178.449V179.164H23.1572L23.1572 178.449H26.0016ZM23.9862 177.134H24.8296L24.8296 182.366C24.8296 182.604 24.8641 182.783 24.9332 182.902C25.0047 183.018 25.0952 183.097 25.2048 183.138C25.3167 183.176 25.4347 183.195 25.5585 183.195C25.6515 183.195 25.7277 183.19 25.7872 183.18C25.8468 183.169 25.8944 183.159 25.9302 183.152L26.1017 183.909C26.0445 183.931 25.9647 183.952 25.8623 183.974C25.7598 183.998 25.63 184.009 25.4728 184.009C25.2346 184.009 25.0011 183.958 24.7724 183.856C24.5461 183.753 24.3579 183.597 24.2078 183.388C24.0601 183.178 23.9862 182.914 23.9862 182.594L23.9862 177.134ZM29.4411 184.052C28.9455 184.052 28.5108 183.934 28.1368 183.699C27.7651 183.463 27.4745 183.133 27.2648 182.709C27.0576 182.285 26.954 181.789 26.954 181.222C26.954 180.65 27.0576 180.151 27.2648 179.725C27.4745 179.299 27.7651 178.967 28.1368 178.732C28.5108 178.496 28.9455 178.378 29.4411 178.378C29.9366 178.378 30.3701 178.496 30.7418 178.732C31.1158 178.967 31.4064 179.299 31.6137 179.725C31.8233 180.151 31.9282 180.65 31.9282 181.222C31.9282 181.789 31.8233 182.285 31.6137 182.709C31.4064 183.133 31.1158 183.463 30.7418 183.699C30.3701 183.934 29.9366 184.052 29.4411 184.052ZM29.4411 183.295C29.8175 183.295 30.1272 183.198 30.3701 183.005C30.6131 182.812 30.793 182.559 30.9097 182.244C31.0265 181.93 31.0848 181.589 31.0848 181.222C31.0848 180.855 31.0265 180.513 30.9097 180.197C30.793 179.88 30.6131 179.624 30.3701 179.428C30.1272 179.233 29.8175 179.135 29.4411 179.135C29.0647 179.135 28.755 179.233 28.512 179.428C28.269 179.624 28.0891 179.88 27.9724 180.197C27.8557 180.513 27.7973 180.855 27.7973 181.222C27.7973 181.589 27.8557 181.93 27.9724 182.244C28.0891 182.559 28.269 182.812 28.512 183.005C28.755 183.198 29.0647 183.295 29.4411 183.295ZM35.4453 184.052C34.9307 184.052 34.4876 183.931 34.116 183.688C33.7443 183.445 33.4585 183.11 33.2584 182.684C33.0583 182.257 32.9582 181.77 32.9582 181.222C32.9582 180.665 33.0606 180.173 33.2655 179.746C33.4728 179.318 33.761 178.983 34.1303 178.742C34.5019 178.499 34.9355 178.378 35.431 178.378C35.8169 178.378 36.1647 178.449 36.4744 178.592C36.7841 178.735 37.0378 178.935 37.2356 179.192C37.4333 179.45 37.556 179.75 37.6036 180.093H36.7603C36.696 179.843 36.5531 179.621 36.3315 179.428C36.1123 179.233 35.8169 179.135 35.4453 179.135C35.1165 179.135 34.8283 179.221 34.5805 179.393C34.3352 179.562 34.1434 179.801 34.0052 180.111C33.8694 180.418 33.8015 180.779 33.8015 181.194C33.8015 181.618 33.8682 181.987 34.0016 182.301C34.1374 182.616 34.328 182.86 34.5734 183.034C34.8211 183.208 35.1118 183.295 35.4453 183.295C35.6645 183.295 35.8634 183.257 36.0421 183.18C36.2207 183.104 36.372 182.995 36.4959 182.852C36.6198 182.709 36.7079 182.537 36.7603 182.337H37.6036C37.556 182.661 37.4381 182.953 37.2499 183.213C37.0641 183.47 36.8175 183.675 36.5102 183.827C36.2052 183.977 35.8503 184.052 35.4453 184.052ZM39.6226 181.937L39.6083 180.893H39.7798L42.1812 178.449H43.2246L40.6661 181.036H40.5946L39.6226 181.937ZM38.8365 183.938L38.8365 176.62H39.6798L39.6798 183.938H38.8365ZM42.3241 183.938L40.1801 181.222L40.7804 180.636L43.3961 183.938H42.3241ZM48.1979 179.678L47.4404 179.893C47.3927 179.767 47.3224 179.644 47.2295 179.525C47.139 179.403 47.0151 179.303 46.8579 179.225C46.7007 179.146 46.4994 179.107 46.254 179.107C45.9181 179.107 45.6382 179.184 45.4142 179.339C45.1927 179.491 45.0819 179.686 45.0819 179.921C45.0819 180.131 45.1581 180.297 45.3106 180.418C45.4631 180.54 45.7013 180.641 46.0253 180.722L46.84 180.922C47.3308 181.041 47.6965 181.223 47.9371 181.469C48.1777 181.712 48.298 182.025 48.298 182.409C48.298 182.723 48.2075 183.004 48.0264 183.252C47.8477 183.5 47.5976 183.695 47.276 183.838C46.9544 183.981 46.5804 184.052 46.1539 184.052C45.5941 184.052 45.1307 183.931 44.7639 183.688C44.397 183.445 44.1647 183.09 44.0671 182.623L44.8675 182.423C44.9437 182.718 45.0879 182.94 45.2999 183.088C45.5143 183.235 45.7942 183.309 46.1396 183.309C46.5327 183.309 46.8448 183.226 47.0759 183.059C47.3093 182.89 47.4261 182.687 47.4261 182.451C47.4261 182.261 47.3594 182.101 47.226 181.973C47.0925 181.842 46.8877 181.744 46.6113 181.68L45.6965 181.465C45.1939 181.346 44.8246 181.161 44.5888 180.911C44.3553 180.659 44.2386 180.343 44.2386 179.964C44.2386 179.655 44.3255 179.381 44.4994 179.142C44.6757 178.904 44.9151 178.717 45.2177 178.581C45.5226 178.446 45.8681 178.378 46.254 178.378C46.7971 178.378 47.2236 178.497 47.5333 178.735C47.8453 178.973 48.0669 179.288 48.1979 179.678Z" fill="#FFF8F0"/>
<path d="M25.4703 201.476C25.0511 201.476 24.6735 201.392 24.3376 201.225C24.0017 201.059 23.7325 200.83 23.53 200.539C23.3275 200.249 23.2167 199.918 23.1976 199.546H24.0553C24.0886 199.877 24.2387 200.151 24.5055 200.368C24.7747 200.582 25.0963 200.689 25.4703 200.689C25.7705 200.689 26.0373 200.619 26.2708 200.479C26.5066 200.338 26.6913 200.145 26.8247 199.9C26.9604 199.652 27.0283 199.372 27.0283 199.06C27.0283 198.741 26.9581 198.456 26.8175 198.206C26.6793 197.953 26.4888 197.754 26.2458 197.609C26.0028 197.464 25.7252 197.39 25.4132 197.388C25.1892 197.385 24.9593 197.42 24.7235 197.491C24.4876 197.56 24.2935 197.65 24.141 197.759L23.312 197.659L23.7551 194.057H27.5572L27.5572 194.843H24.4984L24.2411 197.002H24.284C24.434 196.883 24.6222 196.784 24.8486 196.705C25.0749 196.626 25.3107 196.587 25.5561 196.587C26.004 196.587 26.403 196.694 26.7532 196.909C27.1058 197.121 27.3821 197.411 27.5822 197.781C27.7847 198.15 27.886 198.572 27.886 199.046C27.886 199.513 27.7811 199.93 27.5715 200.296C27.3642 200.661 27.0784 200.949 26.7139 201.161C26.3494 201.371 25.9349 201.476 25.4703 201.476ZM31.6925 201.476C31.1542 201.476 30.6956 201.329 30.3168 201.036C29.938 200.741 29.6486 200.313 29.4484 199.753C29.2483 199.191 29.1483 198.512 29.1483 197.716C29.1483 196.925 29.2483 196.25 29.4484 195.69C29.6509 195.128 29.9416 194.699 30.3204 194.404C30.7015 194.106 31.1589 193.957 31.6925 193.957C32.2262 193.957 32.6824 194.106 33.0612 194.404C33.4423 194.699 33.733 195.128 33.9331 195.69C34.1356 196.25 34.2368 196.925 34.2368 197.716C34.2368 198.512 34.1368 199.191 33.9367 199.753C33.7365 200.313 33.4471 200.741 33.0683 201.036C32.6895 201.329 32.2309 201.476 31.6925 201.476ZM31.6925 200.689C32.2262 200.689 32.6407 200.432 32.9361 199.918C33.2315 199.403 33.3792 198.669 33.3792 197.716C33.3792 197.083 33.3113 196.543 33.1755 196.098C33.0421 195.652 32.8491 195.313 32.5966 195.079C32.3465 194.846 32.0451 194.729 31.6925 194.729C31.1637 194.729 30.7504 194.99 30.4526 195.512C30.1548 196.031 30.0059 196.766 30.0059 197.716C30.0059 198.35 30.0726 198.888 30.206 199.332C30.3394 199.775 30.5312 200.112 30.7813 200.343C31.0338 200.574 31.3376 200.689 31.6925 200.689ZM39.3254 200.003V199.617C39.3254 199.351 39.3802 199.106 39.4897 198.885C39.6017 198.661 39.7637 198.482 39.9757 198.349C40.1901 198.213 40.4498 198.145 40.7547 198.145C41.0644 198.145 41.3241 198.213 41.5337 198.349C41.7434 198.482 41.9018 198.661 42.009 198.885C42.1162 199.106 42.1698 199.351 42.1698 199.617V200.003C42.1698 200.27 42.115 200.516 42.0054 200.739C41.8982 200.961 41.7386 201.14 41.5266 201.275C41.3169 201.409 41.0597 201.476 40.7547 201.476C40.445 201.476 40.1842 201.409 39.9722 201.275C39.7601 201.14 39.5993 200.961 39.4897 200.739C39.3802 200.516 39.3254 200.27 39.3254 200.003ZM40.0543 199.617V200.003C40.0543 200.225 40.1068 200.424 40.2116 200.6C40.3164 200.774 40.4974 200.861 40.7547 200.861C41.0049 200.861 41.1812 200.774 41.2836 200.6C41.3884 200.424 41.4408 200.225 41.4408 200.003V199.617C41.4408 199.396 41.3908 199.198 41.2907 199.024C41.1907 198.848 41.012 198.76 40.7547 198.76C40.5046 198.76 40.3247 198.848 40.2151 199.024C40.1079 199.198 40.0543 199.396 40.0543 199.617ZM35.6805 195.815L35.6805 195.429C35.6805 195.163 35.7353 194.918 35.8449 194.697C35.9568 194.473 36.1188 194.294 36.3308 194.161C36.5452 194.025 36.8049 193.957 37.1098 193.957C37.4195 193.957 37.6792 194.025 37.8889 194.161C38.0985 194.294 38.2569 194.473 38.3641 194.697C38.4713 194.918 38.5249 195.163 38.5249 195.429V195.815C38.5249 196.082 38.4701 196.328 38.3605 196.551C38.2533 196.773 38.0937 196.952 37.8817 197.087C37.6721 197.221 37.4148 197.288 37.1098 197.288C36.8001 197.288 36.5393 197.221 36.3273 197.087C36.1152 196.952 35.9544 196.773 35.8449 196.551C35.7353 196.328 35.6805 196.082 35.6805 195.815ZM36.4095 195.429V195.815C36.4095 196.037 36.4619 196.236 36.5667 196.412C36.6715 196.586 36.8526 196.673 37.1098 196.673C37.36 196.673 37.5363 196.586 37.6387 196.412C37.7435 196.236 37.7959 196.037 37.7959 195.815V195.429C37.7959 195.208 37.7459 195.01 37.6459 194.836C37.5458 194.66 37.3671 194.572 37.1098 194.572C36.8597 194.572 36.6798 194.66 36.5703 194.836C36.4631 195.01 36.4095 195.208 36.4095 195.429ZM35.9521 201.376L40.9834 194.057L41.7982 194.057L36.7668 201.376H35.9521Z" fill="#FFF8F0"/>
<path d="M83.6401 183.219L83.6401 175.901H86.1987C86.7085 175.901 87.129 175.989 87.4601 176.165C87.7912 176.339 88.0378 176.574 88.1998 176.869C88.3618 177.162 88.4428 177.487 88.4428 177.845C88.4428 178.159 88.3868 178.419 88.2748 178.624C88.1653 178.828 88.0199 178.99 87.8389 179.11C87.6602 179.229 87.4661 179.317 87.2564 179.374V179.445C87.4803 179.46 87.7055 179.538 87.9318 179.681C88.1581 179.824 88.3475 180.029 88.5 180.296C88.6524 180.563 88.7287 180.889 88.7287 181.275C88.7287 181.642 88.6453 181.972 88.4785 182.265C88.3118 182.558 88.0485 182.79 87.6888 182.962C87.3291 183.133 86.861 183.219 86.2844 183.219H83.6401ZM84.5263 182.433H86.2844C86.8633 182.433 87.2743 182.321 87.5173 182.097C87.7626 181.871 87.8853 181.597 87.8853 181.275C87.8853 181.027 87.8222 180.799 87.6959 180.589C87.5697 180.377 87.3898 180.208 87.1564 180.082C86.9229 179.953 86.6465 179.889 86.3273 179.889H84.5263L84.5263 182.433ZM84.5263 179.117H86.1701C86.4369 179.117 86.6775 179.064 86.8919 178.959C87.1087 178.855 87.2802 178.707 87.4065 178.516C87.5351 178.326 87.5995 178.102 87.5995 177.845C87.5995 177.523 87.4875 177.25 87.2636 177.026C87.0396 176.8 86.6847 176.687 86.1987 176.687H84.5263V179.117ZM92.3003 183.333C91.8048 183.333 91.37 183.215 90.996 182.98C90.6244 182.744 90.3337 182.414 90.1241 181.99C89.9168 181.566 89.8132 181.07 89.8132 180.503C89.8132 179.931 89.9168 179.432 90.1241 179.006C90.3337 178.58 90.6244 178.248 90.996 178.013C91.37 177.777 91.8048 177.659 92.3003 177.659C92.7958 177.659 93.2294 177.777 93.601 178.013C93.975 178.248 94.2657 178.58 94.4729 179.006C94.6826 179.432 94.7874 179.931 94.7874 180.503C94.7874 181.07 94.6826 181.566 94.4729 181.99C94.2657 182.414 93.975 182.744 93.601 182.98C93.2294 183.215 92.7958 183.333 92.3003 183.333ZM92.3003 182.576C92.6767 182.576 92.9864 182.479 93.2294 182.286C93.4724 182.093 93.6522 181.84 93.769 181.525C93.8857 181.211 93.9441 180.87 93.9441 180.503C93.9441 180.136 93.8857 179.794 93.769 179.478C93.6522 179.161 93.4724 178.905 93.2294 178.709C92.9864 178.514 92.6767 178.416 92.3003 178.416C91.9239 178.416 91.6142 178.514 91.3712 178.709C91.1282 178.905 90.9483 179.161 90.8316 179.478C90.7149 179.794 90.6565 180.136 90.6565 180.503C90.6565 180.87 90.7149 181.211 90.8316 181.525C90.9483 181.84 91.1282 182.093 91.3712 182.286C91.6142 182.479 91.9239 182.576 92.3003 182.576ZM96.918 179.917L96.918 183.219H96.0747L96.0747 177.73H96.8895V178.588H96.9609C97.0896 178.309 97.2849 178.085 97.547 177.916C97.809 177.745 98.1473 177.659 98.5618 177.659C98.9334 177.659 99.2586 177.735 99.5374 177.887C99.8161 178.038 100.033 178.266 100.188 178.574C100.343 178.878 100.42 179.264 100.42 179.731L100.42 183.219H99.5767L99.5767 179.789C99.5767 179.357 99.4647 179.021 99.2408 178.781C99.0168 178.538 98.7095 178.416 98.3188 178.416C98.0496 178.416 97.809 178.475 97.597 178.591C97.3873 178.708 97.2218 178.878 97.1003 179.102C96.9788 179.326 96.918 179.598 96.918 179.917ZM104.034 183.333C103.576 183.333 103.172 183.218 102.822 182.987C102.472 182.753 102.198 182.425 102 182C101.803 181.574 101.704 181.07 101.704 180.489C101.704 179.912 101.803 179.412 102 178.988C102.198 178.564 102.473 178.236 102.826 178.005C103.178 177.774 103.586 177.659 104.048 177.659C104.405 177.659 104.688 177.718 104.895 177.837C105.104 177.954 105.264 178.088 105.374 178.238C105.486 178.385 105.573 178.507 105.634 178.602H105.706L105.706 175.901H106.549L106.549 183.219H105.735V182.376H105.634C105.573 182.476 105.484 182.602 105.37 182.754C105.256 182.905 105.093 183.039 104.881 183.158C104.668 183.275 104.386 183.333 104.034 183.333ZM104.148 182.576C104.486 182.576 104.772 182.488 105.006 182.311C105.239 182.133 105.417 181.886 105.538 181.572C105.66 181.255 105.72 180.889 105.72 180.475C105.72 180.065 105.661 179.706 105.542 179.399C105.422 179.089 105.246 178.849 105.013 178.677C104.779 178.503 104.491 178.416 104.148 178.416C103.791 178.416 103.493 178.508 103.255 178.691C103.019 178.873 102.841 179.119 102.722 179.431C102.605 179.741 102.547 180.089 102.547 180.475C102.547 180.865 102.607 181.22 102.726 181.539C102.847 181.856 103.026 182.109 103.262 182.297C103.5 182.483 103.795 182.576 104.148 182.576ZM112.099 178.959L111.341 179.174C111.294 179.048 111.223 178.925 111.13 178.806C111.04 178.684 110.916 178.584 110.759 178.506C110.602 178.427 110.4 178.388 110.155 178.388C109.819 178.388 109.539 178.465 109.315 178.62C109.094 178.772 108.983 178.967 108.983 179.202C108.983 179.412 109.059 179.578 109.211 179.699C109.364 179.821 109.602 179.922 109.926 180.003L110.741 180.203C111.232 180.322 111.597 180.504 111.838 180.75C112.079 180.993 112.199 181.306 112.199 181.69C112.199 182.004 112.108 182.285 111.927 182.533C111.749 182.781 111.498 182.976 111.177 183.119C110.855 183.262 110.481 183.333 110.055 183.333C109.495 183.333 109.032 183.212 108.665 182.969C108.298 182.726 108.066 182.371 107.968 181.904L108.768 181.704C108.845 181.999 108.989 182.221 109.201 182.369C109.415 182.516 109.695 182.59 110.041 182.59C110.434 182.59 110.746 182.507 110.977 182.34C111.21 182.171 111.327 181.968 111.327 181.732C111.327 181.542 111.26 181.382 111.127 181.254C110.993 181.123 110.789 181.025 110.512 180.961L109.597 180.746C109.095 180.627 108.726 180.442 108.49 180.192C108.256 179.94 108.139 179.624 108.139 179.245C108.139 178.936 108.226 178.662 108.4 178.423C108.577 178.185 108.816 177.998 109.119 177.862C109.424 177.727 109.769 177.659 110.155 177.659C110.698 177.659 111.124 177.778 111.434 178.016C111.746 178.254 111.968 178.569 112.099 178.959Z" fill="#FFF8F0"/>
<path d="M91.8144 200.757C91.3427 200.757 90.9223 200.676 90.553 200.514C90.1861 200.352 89.8943 200.126 89.6775 199.838C89.4631 199.548 89.3464 199.211 89.3273 198.827H90.2278C90.2469 199.063 90.3279 199.266 90.4708 199.438C90.6138 199.607 90.8008 199.738 91.0318 199.831C91.2629 199.924 91.519 199.97 91.8001 199.97C92.1146 199.97 92.3933 199.916 92.6363 199.806C92.8793 199.696 93.0699 199.544 93.2081 199.349C93.3462 199.153 93.4153 198.927 93.4153 198.67C93.4153 198.401 93.3486 198.164 93.2152 197.959C93.0818 197.751 92.8864 197.589 92.6292 197.473C92.3719 197.356 92.0574 197.298 91.6858 197.298H91.0997V196.511H91.6858C91.9764 196.511 92.2313 196.459 92.4505 196.354C92.672 196.249 92.8448 196.102 92.9686 195.911C93.0949 195.72 93.158 195.497 93.158 195.239C93.158 194.991 93.1032 194.776 92.9936 194.592C92.8841 194.409 92.7292 194.266 92.5291 194.164C92.3314 194.061 92.0979 194.01 91.8287 194.01C91.5762 194.01 91.338 194.056 91.114 194.149C90.8925 194.24 90.7114 194.372 90.5709 194.546C90.4303 194.718 90.3541 194.925 90.3422 195.168H89.4846C89.4988 194.784 89.6144 194.448 89.8312 194.16C90.048 193.869 90.3315 193.643 90.6816 193.481C91.0342 193.319 91.4213 193.238 91.843 193.238C92.2956 193.238 92.684 193.33 93.0079 193.513C93.3319 193.694 93.5809 193.934 93.7548 194.232C93.9287 194.529 94.0156 194.851 94.0156 195.196C94.0156 195.609 93.9073 195.96 93.6905 196.251C93.4761 196.541 93.1842 196.742 92.815 196.854V196.912C93.2771 196.988 93.6381 197.184 93.8977 197.501C94.1574 197.816 94.2872 198.205 94.2872 198.67C94.2872 199.068 94.1788 199.425 93.962 199.742C93.7476 200.056 93.4546 200.304 93.083 200.485C92.7113 200.666 92.2885 200.757 91.8144 200.757ZM98.1358 200.757C97.5974 200.757 97.1388 200.61 96.76 200.317C96.3812 200.022 96.0918 199.594 95.8917 199.034C95.6916 198.472 95.5915 197.793 95.5915 196.997C95.5915 196.206 95.6916 195.531 95.8917 194.971C96.0942 194.409 96.3848 193.98 96.7636 193.685C97.1448 193.387 97.6022 193.238 98.1358 193.238C98.6694 193.238 99.1256 193.387 99.5044 193.685C99.8856 193.98 100.176 194.409 100.376 194.971C100.579 195.531 100.68 196.206 100.68 196.997C100.68 197.793 100.58 198.472 100.38 199.034C100.18 199.594 99.8903 200.022 99.5116 200.317C99.1328 200.61 98.6742 200.757 98.1358 200.757ZM98.1358 199.97C98.6694 199.97 99.0839 199.713 99.3793 199.199C99.6747 198.684 99.8225 197.95 99.8225 196.997C99.8225 196.364 99.7546 195.824 99.6188 195.379C99.4854 194.933 99.2924 194.594 99.0399 194.36C98.7897 194.127 98.4884 194.01 98.1358 194.01C97.6069 194.01 97.1936 194.271 96.8958 194.793C96.598 195.312 96.4491 196.047 96.4491 196.997C96.4491 197.631 96.5158 198.169 96.6493 198.613C96.7827 199.056 96.9744 199.393 97.2246 199.624C97.4771 199.855 97.7808 199.97 98.1358 199.97ZM105.769 199.284V198.898C105.769 198.632 105.823 198.387 105.933 198.166C106.045 197.942 106.207 197.763 106.419 197.63C106.633 197.494 106.893 197.426 107.198 197.426C107.508 197.426 107.767 197.494 107.977 197.63C108.187 197.763 108.345 197.942 108.452 198.166C108.559 198.387 108.613 198.632 108.613 198.898V199.284C108.613 199.551 108.558 199.797 108.449 200.02C108.341 200.242 108.182 200.421 107.97 200.556C107.76 200.69 107.503 200.757 107.198 200.757C106.888 200.757 106.627 200.69 106.415 200.556C106.203 200.421 106.043 200.242 105.933 200.02C105.823 199.797 105.769 199.551 105.769 199.284ZM106.498 198.898V199.284C106.498 199.506 106.55 199.705 106.655 199.881C106.76 200.055 106.941 200.142 107.198 200.142C107.448 200.142 107.624 200.055 107.727 199.881C107.832 199.705 107.884 199.506 107.884 199.284V198.898C107.884 198.677 107.834 198.479 107.734 198.305C107.634 198.129 107.455 198.041 107.198 198.041C106.948 198.041 106.768 198.129 106.658 198.305C106.551 198.479 106.498 198.677 106.498 198.898ZM102.124 195.096V194.71C102.124 194.444 102.179 194.199 102.288 193.978C102.4 193.754 102.562 193.575 102.774 193.442C102.988 193.306 103.248 193.238 103.553 193.238C103.863 193.238 104.122 193.306 104.332 193.442C104.542 193.575 104.7 193.754 104.807 193.978C104.915 194.199 104.968 194.444 104.968 194.71V195.096C104.968 195.363 104.913 195.609 104.804 195.832C104.697 196.054 104.537 196.233 104.325 196.368C104.115 196.502 103.858 196.569 103.553 196.569C103.243 196.569 102.983 196.502 102.771 196.368C102.558 196.233 102.398 196.054 102.288 195.832C102.179 195.609 102.124 195.363 102.124 195.096ZM102.853 194.71V195.096C102.853 195.318 102.905 195.517 103.01 195.693C103.115 195.867 103.296 195.954 103.553 195.954C103.803 195.954 103.98 195.867 104.082 195.693C104.187 195.517 104.239 195.318 104.239 195.096V194.71C104.239 194.489 104.189 194.291 104.089 194.117C103.989 193.941 103.81 193.853 103.553 193.853C103.303 193.853 103.123 193.941 103.014 194.117C102.906 194.291 102.853 194.489 102.853 194.71ZM102.395 200.657L107.427 193.338H108.241L103.21 200.657H102.395Z" fill="#FFF8F0"/>
<path d="M130.007 183.219L130.007 175.901H132.48C133.052 175.901 133.521 175.998 133.888 176.194C134.255 176.387 134.526 176.652 134.703 176.991C134.879 177.329 134.967 177.714 134.967 178.145C134.967 178.576 134.879 178.958 134.703 179.292C134.526 179.625 134.256 179.887 133.892 180.078C133.527 180.266 133.061 180.36 132.494 180.36H130.493V179.56H132.466C132.857 179.56 133.171 179.503 133.409 179.388C133.65 179.274 133.824 179.112 133.931 178.902C134.04 178.69 134.095 178.438 134.095 178.145C134.095 177.852 134.04 177.596 133.931 177.376C133.821 177.157 133.646 176.988 133.406 176.869C133.165 176.748 132.847 176.687 132.452 176.687H130.894L130.894 183.219H130.007ZM133.452 179.931L135.253 183.219H134.224L132.452 179.931H133.452ZM138.572 183.333C138.043 183.333 137.587 183.217 137.203 182.983C136.822 182.747 136.528 182.419 136.321 181.997C136.116 181.573 136.013 181.08 136.013 180.517C136.013 179.955 136.116 179.46 136.321 179.031C136.528 178.6 136.816 178.264 137.185 178.023C137.557 177.78 137.991 177.659 138.486 177.659C138.772 177.659 139.054 177.706 139.333 177.802C139.612 177.897 139.865 178.052 140.094 178.266C140.323 178.478 140.505 178.759 140.641 179.11C140.777 179.46 140.845 179.891 140.845 180.403V180.76H136.614V180.032H139.987C139.987 179.722 139.925 179.445 139.801 179.202C139.68 178.959 139.506 178.768 139.279 178.627C139.055 178.487 138.791 178.416 138.486 178.416C138.15 178.416 137.86 178.5 137.614 178.666C137.371 178.831 137.184 179.045 137.053 179.31C136.922 179.574 136.857 179.858 136.857 180.16V180.646C136.857 181.061 136.928 181.412 137.071 181.7C137.216 181.986 137.418 182.204 137.675 182.354C137.932 182.502 138.231 182.576 138.572 182.576C138.793 182.576 138.994 182.545 139.172 182.483C139.353 182.419 139.509 182.323 139.64 182.197C139.771 182.068 139.873 181.909 139.944 181.718L140.759 181.947C140.673 182.223 140.529 182.466 140.326 182.676C140.124 182.883 139.874 183.045 139.576 183.162C139.278 183.276 138.944 183.333 138.572 183.333ZM143.743 183.348C143.395 183.348 143.079 183.282 142.796 183.151C142.512 183.018 142.287 182.826 142.12 182.576C141.954 182.323 141.87 182.018 141.87 181.661C141.87 181.347 141.932 181.092 142.056 180.896C142.18 180.699 142.345 180.544 142.553 180.432C142.76 180.32 142.989 180.236 143.239 180.182C143.491 180.124 143.745 180.079 144 180.046C144.333 180.003 144.604 179.971 144.811 179.949C145.021 179.925 145.173 179.886 145.268 179.831C145.366 179.777 145.415 179.681 145.415 179.546V179.517C145.415 179.164 145.319 178.89 145.126 178.695C144.935 178.5 144.646 178.402 144.257 178.402C143.855 178.402 143.539 178.49 143.31 178.666C143.082 178.843 142.921 179.031 142.828 179.231L142.027 178.945C142.17 178.612 142.361 178.352 142.599 178.166C142.84 177.978 143.102 177.847 143.385 177.773C143.671 177.697 143.952 177.659 144.229 177.659C144.405 177.659 144.607 177.68 144.836 177.723C145.067 177.764 145.29 177.848 145.504 177.977C145.721 178.105 145.901 178.3 146.044 178.559C146.187 178.819 146.258 179.167 146.258 179.603L146.258 183.219H145.415V182.476H145.372C145.315 182.595 145.22 182.722 145.086 182.858C144.953 182.994 144.775 183.109 144.554 183.205C144.332 183.3 144.062 183.348 143.743 183.348ZM143.871 182.59C144.205 182.59 144.486 182.525 144.715 182.394C144.946 182.263 145.12 182.093 145.236 181.886C145.355 181.679 145.415 181.461 145.415 181.232V180.46C145.379 180.503 145.301 180.543 145.179 180.578C145.06 180.612 144.922 180.641 144.765 180.668C144.61 180.691 144.458 180.713 144.311 180.732C144.165 180.749 144.048 180.763 143.957 180.775C143.738 180.803 143.533 180.85 143.342 180.914C143.154 180.976 143.002 181.07 142.885 181.196C142.771 181.32 142.713 181.489 142.713 181.704C142.713 181.997 142.822 182.218 143.039 182.369C143.258 182.516 143.535 182.59 143.871 182.59ZM148.641 175.901L148.641 183.219L147.798 183.219V175.901L148.641 175.901ZM153.13 183.219L153.13 175.901H157.547V176.687H154.016V179.16H157.318L157.318 179.946H154.016V182.433H157.604V183.219H153.13ZM162.918 178.959L162.16 179.174C162.112 179.048 162.042 178.925 161.949 178.806C161.859 178.684 161.735 178.584 161.578 178.506C161.42 178.427 161.219 178.388 160.974 178.388C160.638 178.388 160.358 178.465 160.134 178.62C159.912 178.772 159.802 178.967 159.802 179.202C159.802 179.412 159.878 179.578 160.03 179.699C160.183 179.821 160.421 179.922 160.745 180.003L161.56 180.203C162.05 180.322 162.416 180.504 162.657 180.75C162.897 180.993 163.018 181.306 163.018 181.69C163.018 182.004 162.927 182.285 162.746 182.533C162.567 182.781 162.317 182.976 161.996 183.119C161.674 183.262 161.3 183.333 160.874 183.333C160.314 183.333 159.85 183.212 159.484 182.969C159.117 182.726 158.884 182.371 158.787 181.904L159.587 181.704C159.663 181.999 159.808 182.221 160.02 182.369C160.234 182.516 160.514 182.59 160.859 182.59C161.252 182.59 161.564 182.507 161.796 182.34C162.029 182.171 162.146 181.968 162.146 181.732C162.146 181.542 162.079 181.382 161.946 181.254C161.812 181.123 161.607 181.025 161.331 180.961L160.416 180.746C159.914 180.627 159.544 180.442 159.308 180.192C159.075 179.94 158.958 179.624 158.958 179.245C158.958 178.936 159.045 178.662 159.219 178.423C159.395 178.185 159.635 177.998 159.937 177.862C160.242 177.727 160.588 177.659 160.974 177.659C161.517 177.659 161.943 177.778 162.253 178.016C162.565 178.254 162.787 178.569 162.918 178.959ZM166.674 177.73V178.445H163.83V177.73H166.674ZM164.659 176.415H165.502L165.502 181.647C165.502 181.885 165.537 182.064 165.606 182.183C165.677 182.299 165.768 182.378 165.877 182.419C165.989 182.457 166.107 182.476 166.231 182.476C166.324 182.476 166.4 182.471 166.46 182.461C166.519 182.45 166.567 182.44 166.603 182.433L166.774 183.19C166.717 183.212 166.637 183.233 166.535 183.255C166.432 183.279 166.303 183.29 166.145 183.29C165.907 183.29 165.674 183.239 165.445 183.137C165.219 183.034 165.03 182.878 164.88 182.669C164.733 182.459 164.659 182.195 164.659 181.875L164.659 176.415ZM169.558 183.348C169.21 183.348 168.894 183.282 168.611 183.151C168.327 183.018 168.102 182.826 167.936 182.576C167.769 182.323 167.685 182.018 167.685 181.661C167.685 181.347 167.747 181.092 167.871 180.896C167.995 180.699 168.161 180.544 168.368 180.432C168.575 180.32 168.804 180.236 169.054 180.182C169.307 180.124 169.56 180.079 169.815 180.046C170.149 180.003 170.419 179.971 170.626 179.949C170.836 179.925 170.988 179.886 171.084 179.831C171.181 179.777 171.23 179.681 171.23 179.546V179.517C171.23 179.164 171.134 178.89 170.941 178.695C170.75 178.5 170.461 178.402 170.072 178.402C169.67 178.402 169.354 178.49 169.126 178.666C168.897 178.843 168.736 179.031 168.643 179.231L167.843 178.945C167.986 178.612 168.176 178.352 168.414 178.166C168.655 177.978 168.917 177.847 169.201 177.773C169.486 177.697 169.768 177.659 170.044 177.659C170.22 177.659 170.423 177.68 170.651 177.723C170.882 177.764 171.105 177.848 171.32 177.977C171.536 178.105 171.716 178.3 171.859 178.559C172.002 178.819 172.074 179.167 172.074 179.603L172.074 183.219H171.23V182.476H171.187C171.13 182.595 171.035 182.722 170.901 182.858C170.768 182.994 170.591 183.109 170.369 183.205C170.147 183.3 169.877 183.348 169.558 183.348ZM169.687 182.59C170.02 182.59 170.301 182.525 170.53 182.394C170.761 182.263 170.935 182.093 171.052 181.886C171.171 181.679 171.23 181.461 171.23 181.232V180.46C171.195 180.503 171.116 180.543 170.994 180.578C170.875 180.612 170.737 180.641 170.58 180.668C170.425 180.691 170.274 180.713 170.126 180.732C169.981 180.749 169.863 180.763 169.772 180.775C169.553 180.803 169.348 180.85 169.158 180.914C168.969 180.976 168.817 181.07 168.7 181.196C168.586 181.32 168.529 181.489 168.529 181.704C168.529 181.997 168.637 182.218 168.854 182.369C169.073 182.516 169.351 182.59 169.687 182.59ZM176 177.73V178.445L173.155 178.445V177.73L176 177.73ZM173.984 176.415H174.828L174.828 181.647C174.828 181.885 174.862 182.064 174.931 182.183C175.003 182.299 175.093 182.378 175.203 182.419C175.315 182.457 175.433 182.476 175.557 182.476C175.65 182.476 175.726 182.471 175.785 182.461C175.845 182.45 175.893 182.44 175.928 182.433L176.1 183.19C176.043 183.212 175.963 183.233 175.86 183.255C175.758 183.279 175.628 183.29 175.471 183.29C175.233 183.29 174.999 183.239 174.771 183.137C174.544 183.034 174.356 182.878 174.206 182.669C174.058 182.459 173.984 182.195 173.984 181.875L173.984 176.415ZM179.511 183.333C178.982 183.333 178.526 183.217 178.142 182.983C177.761 182.747 177.467 182.419 177.259 181.997C177.055 181.573 176.952 181.08 176.952 180.517C176.952 179.955 177.055 179.46 177.259 179.031C177.467 178.6 177.755 178.264 178.124 178.023C178.496 177.78 178.929 177.659 179.425 177.659C179.711 177.659 179.993 177.706 180.272 177.802C180.551 177.897 180.804 178.052 181.033 178.266C181.262 178.478 181.444 178.759 181.58 179.11C181.716 179.46 181.783 179.891 181.783 180.403L181.783 180.76H177.553V180.032H180.926C180.926 179.722 180.864 179.445 180.74 179.202C180.619 178.959 180.445 178.768 180.218 178.627C179.994 178.487 179.73 178.416 179.425 178.416C179.089 178.416 178.798 178.5 178.553 178.666C178.31 178.831 178.123 179.045 177.992 179.31C177.861 179.574 177.796 179.858 177.796 180.16L177.796 180.646C177.796 181.061 177.867 181.412 178.01 181.7C178.155 181.986 178.357 182.204 178.614 182.354C178.871 182.502 179.17 182.576 179.511 182.576C179.732 182.576 179.932 182.545 180.111 182.483C180.292 182.419 180.448 182.323 180.579 182.197C180.71 182.068 180.811 181.909 180.883 181.718L181.698 181.947C181.612 182.223 181.468 182.466 181.265 182.676C181.063 182.883 180.813 183.045 180.515 183.162C180.217 183.276 179.882 183.333 179.511 183.333Z" fill="#FFF8F0"/>
<path d="M146.379 200.657V200.013L148.794 197.369C149.078 197.059 149.311 196.79 149.495 196.561C149.678 196.33 149.814 196.114 149.902 195.911C149.993 195.706 150.038 195.492 150.038 195.268C150.038 195.011 149.976 194.788 149.852 194.6C149.731 194.411 149.564 194.266 149.352 194.164C149.14 194.061 148.901 194.01 148.637 194.01C148.356 194.01 148.111 194.068 147.901 194.185C147.694 194.299 147.533 194.46 147.419 194.668C147.307 194.875 147.251 195.118 147.251 195.396H146.407C146.407 194.968 146.506 194.591 146.704 194.267C146.902 193.943 147.171 193.691 147.511 193.51C147.854 193.329 148.239 193.238 148.666 193.238C149.094 193.238 149.474 193.329 149.806 193.51C150.137 193.691 150.396 193.935 150.585 194.242C150.773 194.55 150.867 194.891 150.867 195.268C150.867 195.537 150.818 195.8 150.72 196.058C150.625 196.312 150.458 196.597 150.22 196.912C149.984 197.224 149.657 197.605 149.237 198.055L147.594 199.813V199.87H150.996V200.657H146.379ZM154.858 200.757C154.32 200.757 153.861 200.61 153.483 200.317C153.104 200.022 152.814 199.594 152.614 199.034C152.414 198.472 152.314 197.793 152.314 196.997C152.314 196.206 152.414 195.531 152.614 194.971C152.817 194.409 153.107 193.98 153.486 193.685C153.867 193.387 154.325 193.238 154.858 193.238C155.392 193.238 155.848 193.387 156.227 193.685C156.608 193.98 156.899 194.409 157.099 194.971C157.301 195.531 157.403 196.206 157.403 196.997C157.403 197.793 157.303 198.472 157.102 199.034C156.902 199.594 156.613 200.022 156.234 200.317C155.855 200.61 155.397 200.757 154.858 200.757ZM154.858 199.97C155.392 199.97 155.807 199.713 156.102 199.199C156.397 198.684 156.545 197.95 156.545 196.997C156.545 196.364 156.477 195.824 156.341 195.379C156.208 194.933 156.015 194.594 155.762 194.36C155.512 194.127 155.211 194.01 154.858 194.01C154.33 194.01 153.916 194.271 153.618 194.793C153.321 195.312 153.172 196.047 153.172 196.997C153.172 197.631 153.238 198.169 153.372 198.613C153.505 199.056 153.697 199.393 153.947 199.624C154.2 199.855 154.503 199.97 154.858 199.97ZM162.491 199.284V198.898C162.491 198.632 162.546 198.387 162.656 198.166C162.768 197.942 162.93 197.763 163.142 197.63C163.356 197.494 163.616 197.426 163.921 197.426C164.23 197.426 164.49 197.494 164.7 197.63C164.909 197.763 165.068 197.942 165.175 198.166C165.282 198.387 165.336 198.632 165.336 198.898V199.284C165.336 199.551 165.281 199.797 165.171 200.02C165.064 200.242 164.904 200.421 164.692 200.556C164.483 200.69 164.225 200.757 163.921 200.757C163.611 200.757 163.35 200.69 163.138 200.556C162.926 200.421 162.765 200.242 162.656 200.02C162.546 199.797 162.491 199.551 162.491 199.284ZM163.22 198.898V199.284C163.22 199.506 163.273 199.705 163.377 199.881C163.482 200.055 163.663 200.142 163.921 200.142C164.171 200.142 164.347 200.055 164.449 199.881C164.554 199.705 164.607 199.506 164.607 199.284V198.898C164.607 198.677 164.557 198.479 164.457 198.305C164.357 198.129 164.178 198.041 163.921 198.041C163.67 198.041 163.491 198.129 163.381 198.305C163.274 198.479 163.22 198.677 163.22 198.898ZM158.846 195.096V194.71C158.846 194.444 158.901 194.199 159.011 193.978C159.123 193.754 159.285 193.575 159.497 193.442C159.711 193.306 159.971 193.238 160.276 193.238C160.585 193.238 160.845 193.306 161.055 193.442C161.264 193.575 161.423 193.754 161.53 193.978C161.637 194.199 161.691 194.444 161.691 194.71V195.096C161.691 195.363 161.636 195.609 161.526 195.832C161.419 196.054 161.26 196.233 161.048 196.368C160.838 196.502 160.581 196.569 160.276 196.569C159.966 196.569 159.705 196.502 159.493 196.368C159.281 196.233 159.12 196.054 159.011 195.832C158.901 195.609 158.846 195.363 158.846 195.096ZM159.575 194.71V195.096C159.575 195.318 159.628 195.517 159.733 195.693C159.837 195.867 160.018 195.954 160.276 195.954C160.526 195.954 160.702 195.867 160.805 195.693C160.909 195.517 160.962 195.318 160.962 195.096V194.71C160.962 194.489 160.912 194.291 160.812 194.117C160.712 193.941 160.533 193.853 160.276 193.853C160.026 193.853 159.846 193.941 159.736 194.117C159.629 194.291 159.575 194.489 159.575 194.71ZM159.118 200.657L164.149 193.338L164.964 193.338L159.933 200.657H159.118Z" fill="#FFF8F0"/>
<path d="M19.3759 20.8172L19.3759 33.809H17.6149L17.6149 20.8172L19.3759 20.8172ZM23.8071 33.809H22.118L22.118 25.022H23.6454L23.8251 26.3697C24.3821 25.3634 25.4962 24.7705 26.7361 24.7705C29.0541 24.7705 30.1143 26.19 30.1143 28.4362L30.1143 33.809H28.4252L28.4252 28.8135C28.4252 27.0346 27.5986 26.3158 26.3048 26.3158C24.7235 26.3158 23.8071 27.4479 23.8071 29.1549L23.8071 33.809ZM31.8788 29.4245C31.8788 26.6752 33.6218 24.7705 36.1914 24.7705C38.4016 24.7705 39.9469 26.0283 40.2524 27.9869L38.5633 27.9869C38.2758 26.8729 37.3773 26.2799 36.2453 26.2799C34.646 26.2799 33.5499 27.5018 33.5499 29.4065C33.5499 31.2933 34.5741 32.5152 36.1734 32.5152C37.3773 32.5152 38.2758 31.8863 38.5813 30.844L40.2704 30.844C39.929 32.7488 38.2938 34.0246 36.1734 34.0246C33.5858 34.0246 31.8788 32.1917 31.8788 29.4245ZM41.4775 29.4065C41.4775 26.6932 43.4182 24.7884 46.0597 24.7884C48.6832 24.7884 50.6239 26.6932 50.6239 29.4065C50.6239 32.1199 48.6832 34.0246 46.0597 34.0246C43.4182 34.0246 41.4775 32.1199 41.4775 29.4065ZM43.1846 29.4065C43.1846 31.2394 44.3526 32.5152 46.0597 32.5152C47.7488 32.5152 48.9347 31.2394 48.9347 29.4065C48.9347 27.5737 47.7488 26.2978 46.0597 26.2978C44.3526 26.2978 43.1846 27.5737 43.1846 29.4065ZM54.1827 33.809H52.4936L52.4936 25.022H54.003L54.1648 26.1721C54.614 25.3455 55.5484 24.7705 56.7883 24.7705C58.1539 24.7705 59.1243 25.4533 59.5735 26.5494C59.9868 25.4533 61.047 24.7705 62.4126 24.7705C64.4252 24.7705 65.6471 26.0283 65.6471 28.0588L65.6471 33.809H63.9939L63.9939 28.4721C63.9939 27.0885 63.2212 26.2978 62.0353 26.2978C60.7595 26.2978 59.9149 27.1963 59.9149 28.5979L59.9149 33.809L58.2438 33.809L58.2438 28.4541C58.2438 27.0705 57.4891 26.3158 56.3031 26.3158C55.0273 26.3158 54.1827 27.1963 54.1827 28.5979L54.1827 33.809ZM71.78 34.0246C69.1925 34.0246 67.4135 32.1558 67.4135 29.4245C67.4135 26.6752 69.1565 24.7705 71.7082 24.7705C74.2059 24.7705 75.8411 26.4955 75.8411 29.101V29.73L69.0487 29.7479C69.1745 31.5988 70.1448 32.623 71.816 32.623C73.1277 32.623 73.9902 32.0839 74.2778 31.0776L75.859 31.0776C75.4278 32.9644 73.9543 34.0246 71.78 34.0246ZM71.7082 26.19C70.2347 26.19 69.3003 27.0705 69.0847 28.6159L74.152 28.6159C74.152 27.1604 73.1996 26.19 71.7082 26.19ZM91.3693 33.809L90.345 32.641C89.3387 33.5394 87.9551 34.0426 86.3199 34.0426C83.5347 34.0426 81.7018 32.605 81.7018 30.4308C81.7018 28.8315 82.7261 27.5557 84.8824 26.4416C83.7683 25.1658 83.355 24.3751 83.355 23.4048C83.355 21.7696 84.6308 20.6016 86.4637 20.6016C88.2426 20.6016 89.4645 21.6977 89.4645 23.297C89.4645 24.5908 88.7997 25.597 87.1285 26.7291L90.2372 30.269C90.5247 29.5682 90.6864 28.7057 90.6864 27.7354H92.3216C92.3216 29.2088 91.9622 30.5026 91.3333 31.5089L93.3459 33.809H91.3693ZM84.9543 23.3868C84.9543 24.0697 85.2597 24.6087 86.266 25.7588C87.3621 25.0939 87.8832 24.3033 87.8832 23.3329C87.8832 22.4884 87.3442 21.9673 86.4457 21.9673C85.5293 21.9673 84.9543 22.5243 84.9543 23.3868ZM83.4628 30.305C83.4628 31.7245 84.5949 32.5871 86.4816 32.5871C87.6856 32.5871 88.6559 32.2277 89.3747 31.5269L85.7269 27.394C84.1097 28.2924 83.4628 29.137 83.4628 30.305ZM107.208 33.809L99.2834 33.809L99.2834 20.8172L107.208 20.8172L107.208 22.4345L101.044 22.4345V26.4955L106.597 26.4955V28.0588L101.044 28.0588V32.1738H107.208V33.809ZM110.371 33.809H108.43L111.503 29.4604L108.448 25.022L110.406 25.022L112.635 28.2924L114.809 25.022L116.732 25.022L113.677 29.4604L116.678 33.809H114.719L112.527 30.5925L110.371 33.809ZM118.141 37.7442L118.141 25.022H119.668L119.794 26.6033C120.387 25.3994 121.573 24.7705 122.975 24.7705C125.49 24.7705 127.054 26.6572 127.054 29.3526C127.054 32.03 125.58 34.0426 122.975 34.0426C121.573 34.0426 120.405 33.4496 119.83 32.3714L119.83 37.7442H118.141ZM119.848 29.4245C119.848 31.2214 120.89 32.5152 122.615 32.5152C124.34 32.5152 125.364 31.2214 125.364 29.4245C125.364 27.6096 124.34 26.3158 122.615 26.3158C120.89 26.3158 119.848 27.5916 119.848 29.4245ZM132.707 34.0246C130.119 34.0246 128.34 32.1558 128.34 29.4245C128.34 26.6752 130.083 24.7705 132.635 24.7705C135.133 24.7705 136.768 26.4955 136.768 29.101V29.73L129.975 29.7479C130.101 31.5988 131.072 32.623 132.743 32.623C134.054 32.623 134.917 32.0839 135.205 31.0776L136.786 31.0776C136.355 32.9644 134.881 34.0246 132.707 34.0246ZM132.635 26.19C131.161 26.19 130.227 27.0705 130.011 28.6159L135.079 28.6159C135.079 27.1604 134.126 26.19 132.635 26.19ZM140.344 33.809L138.654 33.809V25.022L140.182 25.022L140.362 26.3697C140.919 25.3634 142.033 24.7705 143.273 24.7705C145.591 24.7705 146.651 26.19 146.651 28.4362V33.809H144.962V28.8135C144.962 27.0346 144.135 26.3158 142.841 26.3158C141.26 26.3158 140.344 27.4479 140.344 29.1549V33.809ZM148.166 31.2573L149.783 31.2573C149.783 32.1558 150.466 32.6949 151.58 32.6949C152.766 32.6949 153.449 32.2097 153.449 31.4011C153.449 30.8081 153.162 30.4487 152.245 30.2151L150.7 29.8557C149.137 29.4784 148.4 28.7057 148.4 27.4119C148.4 25.7947 149.765 24.7705 151.706 24.7705C153.629 24.7705 154.887 25.8486 154.923 27.5197L153.305 27.5197C153.269 26.6393 152.676 26.0822 151.652 26.0822C150.592 26.0822 149.999 26.5494 149.999 27.358C149.999 27.951 150.43 28.3463 151.293 28.562L152.838 28.9393C154.33 29.2987 155.066 29.9815 155.066 31.2933C155.066 32.9644 153.629 34.0246 151.544 34.0246C149.478 34.0246 148.166 32.9285 148.166 31.2573ZM160.731 34.0246C158.143 34.0246 156.364 32.1558 156.364 29.4245C156.364 26.6752 158.108 24.7705 160.659 24.7705C163.157 24.7705 164.792 26.4955 164.792 29.101V29.73L158 29.7479C158.125 31.5988 159.096 32.623 160.767 32.623C162.079 32.623 162.941 32.0839 163.229 31.0776H164.81C164.379 32.9644 162.905 34.0246 160.731 34.0246ZM160.659 26.19C159.186 26.19 158.251 27.0705 158.036 28.6159L163.103 28.6159C163.103 27.1604 162.151 26.19 160.659 26.19ZM165.96 31.2573H167.577C167.577 32.1558 168.26 32.6949 169.374 32.6949C170.56 32.6949 171.243 32.2097 171.243 31.4011C171.243 30.8081 170.955 30.4487 170.039 30.2151L168.494 29.8557C166.93 29.4784 166.194 28.7057 166.194 27.4119C166.194 25.7947 167.559 24.7705 169.5 24.7705C171.423 24.7705 172.68 25.8486 172.716 27.5197L171.099 27.5197C171.063 26.6393 170.47 26.0822 169.446 26.0822C168.386 26.0822 167.793 26.5494 167.793 27.358C167.793 27.951 168.224 28.3463 169.087 28.562L170.632 28.9393C172.123 29.2987 172.86 29.9815 172.86 31.2933C172.86 32.9644 171.423 34.0246 169.338 34.0246C167.272 34.0246 165.96 32.9285 165.96 31.2573Z" fill="#FFF8F0"/>
</svg>
