<svg width="175" height="62" viewBox="0 0 175 62" fill="none" xmlns="http://www.w3.org/2000/svg">
<rect width="175" height="62" rx="16" fill="#EBFF74"/>
<g clip-path="url(#clip0_254_4363)">
<path d="M53.6201 26.992L24.959 10.609C24.2625 10.2109 23.4701 10.0005 22.6678 10.0005C21.855 10.0005 21.0538 10.2161 20.3508 10.624C18.9321 11.447 18.0508 12.9772 18.0508 14.6175V47.3835C18.0508 49.0236 18.9321 50.5538 20.3504 51.3768C21.0534 51.7851 21.8548 52.0007 22.6676 52.0007C23.4695 52.0007 24.2619 51.7901 24.9588 51.3919L53.6195 35.0088C55.0543 34.1886 55.9455 32.6528 55.9455 31.0004C55.9455 29.348 55.0547 27.8122 53.6201 26.992ZM41.2002 23.1182L37.265 28.5996L27.852 15.4881L41.2002 23.1182ZM22.4871 49.1845C22.2311 49.1597 21.98 49.085 21.7559 48.9549C21.1977 48.6311 20.8509 48.0288 20.8509 47.3835V14.6173C20.8509 13.9719 21.1977 13.3697 21.756 13.0459C21.9795 12.9161 22.2285 12.8388 22.4844 12.8125L35.5414 31.0004L22.4871 49.1845ZM27.852 46.5129L37.265 33.4012L41.2002 38.8826L27.852 46.5129ZM52.2303 32.5776L43.6441 37.4856L38.9883 31.0004L43.6441 24.5152L52.2303 29.4232C52.7948 29.746 53.1456 30.3502 53.1456 31.0004C53.1456 31.6506 52.795 32.255 52.2303 32.5776Z" fill="#00313E"/>
</g>
<path d="M75.3235 16C75.2298 15.7131 75.1062 15.456 74.9528 15.2287C74.8022 14.9986 74.6218 14.8026 74.4116 14.6406C74.2042 14.4787 73.9684 14.3551 73.7042 14.2699C73.44 14.1847 73.1502 14.142 72.8349 14.142C72.3178 14.142 71.8477 14.2756 71.4244 14.5426C71.0011 14.8097 70.6644 15.2031 70.4144 15.723C70.1644 16.2429 70.0394 16.8807 70.0394 17.6364C70.0394 18.392 70.1658 19.0298 70.4187 19.5497C70.6715 20.0696 71.0138 20.4631 71.4457 20.7301C71.8775 20.9972 72.3633 21.1307 72.9031 21.1307C73.4031 21.1307 73.8434 21.0241 74.2241 20.8111C74.6076 20.5952 74.9059 20.2912 75.119 19.8991C75.3349 19.5043 75.4428 19.0398 75.4428 18.5057L75.7667 18.5739H73.1417V17.6364H76.4656V18.5739C76.4656 19.2926 76.3121 19.9176 76.0053 20.4489C75.7013 20.9801 75.2809 21.392 74.744 21.6847C74.2099 21.9744 73.5962 22.1193 72.9031 22.1193C72.1303 22.1193 71.4513 21.9375 70.8661 21.5739C70.2837 21.2102 69.8292 20.6932 69.5025 20.0227C69.1786 19.3523 69.0167 18.5568 69.0167 17.6364C69.0167 16.946 69.109 16.3253 69.2937 15.7741C69.4812 15.2202 69.7454 14.7486 70.0863 14.3594C70.4272 13.9702 70.8306 13.6719 71.2965 13.4645C71.7624 13.2571 72.2752 13.1534 72.8349 13.1534C73.2951 13.1534 73.7241 13.223 74.1218 13.3622C74.5224 13.4986 74.8789 13.6932 75.1914 13.946C75.5067 14.196 75.7695 14.4957 75.9798 14.8452C76.19 15.1918 76.3349 15.5767 76.4144 16H75.3235ZM80.8835 22.1364C80.2528 22.1364 79.7088 21.9972 79.2514 21.7188C78.7969 21.4375 78.446 21.0455 78.1989 20.5426C77.9545 20.0369 77.8324 19.4489 77.8324 18.7784C77.8324 18.108 77.9545 17.517 78.1989 17.0057C78.446 16.4915 78.7898 16.0909 79.2301 15.804C79.6733 15.5142 80.1903 15.3693 80.7812 15.3693C81.1222 15.3693 81.4588 15.4261 81.7912 15.5398C82.1236 15.6534 82.4261 15.8381 82.6989 16.0938C82.9716 16.3466 83.1889 16.6818 83.3509 17.0994C83.5128 17.517 83.5938 18.0312 83.5938 18.642V19.0682H78.5483V18.1989H82.571C82.571 17.8295 82.4972 17.5 82.3494 17.2102C82.2045 16.9205 81.9972 16.6918 81.7273 16.5241C81.4602 16.3565 81.1449 16.2727 80.7812 16.2727C80.3807 16.2727 80.0341 16.3722 79.7415 16.571C79.4517 16.767 79.2287 17.0227 79.0724 17.3381C78.9162 17.6534 78.8381 17.9915 78.8381 18.3523V18.9318C78.8381 19.4261 78.9233 19.8452 79.0938 20.1889C79.267 20.5298 79.5071 20.7898 79.8139 20.9688C80.1207 21.1449 80.4773 21.233 80.8835 21.233C81.1477 21.233 81.3864 21.196 81.5994 21.1222C81.8153 21.0455 82.0014 20.9318 82.1577 20.7812C82.3139 20.6278 82.4347 20.4375 82.5199 20.2102L83.4915 20.483C83.3892 20.8125 83.2173 21.1023 82.9759 21.3523C82.7344 21.5994 82.4361 21.7926 82.081 21.9318C81.7259 22.0682 81.3267 22.1364 80.8835 22.1364ZM87.9702 15.4545V16.3068H84.5781V15.4545H87.9702ZM85.5668 13.8864H86.5724V20.125C86.5724 20.4091 86.6136 20.6222 86.696 20.7642C86.7813 20.9034 86.8892 20.9972 87.0199 21.0455C87.1534 21.0909 87.294 21.1136 87.4418 21.1136C87.5526 21.1136 87.6435 21.108 87.7145 21.0966C87.7855 21.0824 87.8423 21.071 87.8849 21.0625L88.0895 21.9659C88.0213 21.9915 87.9261 22.017 87.804 22.0426C87.6818 22.071 87.527 22.0852 87.3395 22.0852C87.0554 22.0852 86.777 22.0241 86.5043 21.902C86.2344 21.7798 86.0099 21.5938 85.831 21.3438C85.6548 21.0938 85.5668 20.7784 85.5668 20.3977V13.8864ZM92.858 22V15.4545H93.8636V22H92.858ZM93.3693 14.3636C93.1733 14.3636 93.0043 14.2969 92.8622 14.1634C92.723 14.0298 92.6534 13.8693 92.6534 13.6818C92.6534 13.4943 92.723 13.3338 92.8622 13.2003C93.0043 13.0668 93.1733 13 93.3693 13C93.5653 13 93.733 13.0668 93.8722 13.2003C94.0142 13.3338 94.0852 13.4943 94.0852 13.6818C94.0852 13.8693 94.0142 14.0298 93.8722 14.1634C93.733 14.2969 93.5653 14.3636 93.3693 14.3636ZM98.5522 15.4545V16.3068H95.1602V15.4545H98.5522ZM96.1488 13.8864H97.1545V20.125C97.1545 20.4091 97.1957 20.6222 97.2781 20.7642C97.3633 20.9034 97.4712 20.9972 97.6019 21.0455C97.7354 21.0909 97.8761 21.1136 98.0238 21.1136C98.1346 21.1136 98.2255 21.108 98.2965 21.0966C98.3675 21.0824 98.4244 21.071 98.467 21.0625L98.6715 21.9659C98.6033 21.9915 98.5082 22.017 98.386 22.0426C98.2638 22.071 98.109 22.0852 97.9215 22.0852C97.6374 22.0852 97.359 22.0241 97.0863 21.902C96.8164 21.7798 96.592 21.5938 96.413 21.3438C96.2369 21.0938 96.1488 20.7784 96.1488 20.3977V13.8864ZM106.099 22.1364C105.508 22.1364 104.99 21.9957 104.544 21.7145C104.1 21.4332 103.754 21.0398 103.504 20.5341C103.257 20.0284 103.133 19.4375 103.133 18.7614C103.133 18.0795 103.257 17.4844 103.504 16.9759C103.754 16.4673 104.1 16.0724 104.544 15.7912C104.99 15.5099 105.508 15.3693 106.099 15.3693C106.69 15.3693 107.207 15.5099 107.65 15.7912C108.096 16.0724 108.443 16.4673 108.69 16.9759C108.94 17.4844 109.065 18.0795 109.065 18.7614C109.065 19.4375 108.94 20.0284 108.69 20.5341C108.443 21.0398 108.096 21.4332 107.65 21.7145C107.207 21.9957 106.69 22.1364 106.099 22.1364ZM106.099 21.233C106.548 21.233 106.917 21.1179 107.207 20.8878C107.497 20.6577 107.711 20.3551 107.85 19.9801C107.99 19.6051 108.059 19.1989 108.059 18.7614C108.059 18.3239 107.99 17.9162 107.85 17.5384C107.711 17.1605 107.497 16.8551 107.207 16.6222C106.917 16.3892 106.548 16.2727 106.099 16.2727C105.65 16.2727 105.281 16.3892 104.991 16.6222C104.701 16.8551 104.487 17.1605 104.348 17.5384C104.208 17.9162 104.139 18.3239 104.139 18.7614C104.139 19.1989 104.208 19.6051 104.348 19.9801C104.487 20.3551 104.701 20.6577 104.991 20.8878C105.281 21.1179 105.65 21.233 106.099 21.233ZM111.606 18.0625V22H110.6V15.4545H111.572V16.4773H111.657C111.81 16.1449 112.043 15.8778 112.356 15.6761C112.668 15.4716 113.072 15.3693 113.566 15.3693C114.009 15.3693 114.397 15.4602 114.729 15.642C115.062 15.821 115.32 16.0938 115.505 16.4602C115.69 16.8239 115.782 17.2841 115.782 17.8409V22H114.776V17.9091C114.776 17.3949 114.643 16.9943 114.376 16.7074C114.109 16.4176 113.742 16.2727 113.276 16.2727C112.955 16.2727 112.668 16.3423 112.415 16.4815C112.165 16.6207 111.968 16.8239 111.823 17.0909C111.678 17.358 111.606 17.6818 111.606 18.0625Z" fill="#00313E"/>
<path d="M77.419 36.0398C77.3092 35.6951 77.1615 35.3864 76.9759 35.1136C76.794 34.8371 76.5762 34.6023 76.3224 34.4091C76.0687 34.2121 75.7789 34.0625 75.4531 33.9602C75.1312 33.858 74.777 33.8068 74.3906 33.8068C73.7353 33.8068 73.1444 33.9754 72.6179 34.3125C72.0914 34.6496 71.6747 35.1439 71.3679 35.7955C71.0649 36.4432 70.9134 37.2367 70.9134 38.1761C70.9134 39.1193 71.0668 39.9167 71.3736 40.5682C71.6804 41.2197 72.1009 41.714 72.6349 42.0511C73.169 42.3883 73.777 42.5568 74.4588 42.5568C75.0914 42.5568 75.6425 42.428 76.1122 42.1705C76.5857 41.9129 76.9512 41.5492 77.2088 41.0795C77.4702 40.6061 77.6009 40.0492 77.6009 39.4091L78.0554 39.4943H74.7259V38.0455H79.2997V39.3693C79.2997 40.3466 79.0914 41.1951 78.6747 41.9148C78.2618 42.6307 77.6899 43.1837 76.9588 43.5739C76.2315 43.964 75.3982 44.1591 74.4588 44.1591C73.4058 44.1591 72.4815 43.9167 71.6861 43.4318C70.8944 42.947 70.277 42.2595 69.8338 41.3693C69.3906 40.4754 69.169 39.4148 69.169 38.1875C69.169 37.2595 69.2978 36.4261 69.5554 35.6875C69.813 34.9489 70.1747 34.322 70.6406 33.8068C71.1103 33.2879 71.6615 32.892 72.294 32.6193C72.9304 32.3428 73.6255 32.2045 74.3793 32.2045C75.008 32.2045 75.5933 32.2973 76.1349 32.483C76.6804 32.6686 77.1652 32.9318 77.5895 33.2727C78.0175 33.6136 78.3717 34.0189 78.652 34.4886C78.9323 34.9545 79.1217 35.4716 79.2202 36.0398H77.419ZM85.0682 44.1761C84.25 44.1761 83.536 43.9886 82.9261 43.6136C82.3163 43.2386 81.8428 42.714 81.5057 42.0398C81.1686 41.3655 81 40.5777 81 39.6761C81 38.7708 81.1686 37.9792 81.5057 37.3011C81.8428 36.6231 82.3163 36.0966 82.9261 35.7216C83.536 35.3466 84.25 35.1591 85.0682 35.1591C85.8864 35.1591 86.6004 35.3466 87.2102 35.7216C87.8201 36.0966 88.2936 36.6231 88.6307 37.3011C88.9678 37.9792 89.1364 38.7708 89.1364 39.6761C89.1364 40.5777 88.9678 41.3655 88.6307 42.0398C88.2936 42.714 87.8201 43.2386 87.2102 43.6136C86.6004 43.9886 85.8864 44.1761 85.0682 44.1761ZM85.0739 42.75C85.6042 42.75 86.0436 42.6098 86.392 42.3295C86.7405 42.0492 86.9981 41.6761 87.1648 41.2102C87.3352 40.7443 87.4205 40.2311 87.4205 39.6705C87.4205 39.1136 87.3352 38.6023 87.1648 38.1364C86.9981 37.6667 86.7405 37.2898 86.392 37.0057C86.0436 36.7216 85.6042 36.5795 85.0739 36.5795C84.5398 36.5795 84.0966 36.7216 83.7443 37.0057C83.3958 37.2898 83.1364 37.6667 82.9659 38.1364C82.7992 38.6023 82.7159 39.1136 82.7159 39.6705C82.7159 40.2311 82.7992 40.7443 82.9659 41.2102C83.1364 41.6761 83.3958 42.0492 83.7443 42.3295C84.0966 42.6098 84.5398 42.75 85.0739 42.75ZM94.7088 44.1761C93.8906 44.1761 93.1766 43.9886 92.5668 43.6136C91.9569 43.2386 91.4834 42.714 91.1463 42.0398C90.8092 41.3655 90.6406 40.5777 90.6406 39.6761C90.6406 38.7708 90.8092 37.9792 91.1463 37.3011C91.4834 36.6231 91.9569 36.0966 92.5668 35.7216C93.1766 35.3466 93.8906 35.1591 94.7088 35.1591C95.527 35.1591 96.241 35.3466 96.8509 35.7216C97.4607 36.0966 97.9342 36.6231 98.2713 37.3011C98.6084 37.9792 98.777 38.7708 98.777 39.6761C98.777 40.5777 98.6084 41.3655 98.2713 42.0398C97.9342 42.714 97.4607 43.2386 96.8509 43.6136C96.241 43.9886 95.527 44.1761 94.7088 44.1761ZM94.7145 42.75C95.2448 42.75 95.6842 42.6098 96.0327 42.3295C96.3812 42.0492 96.6387 41.6761 96.8054 41.2102C96.9759 40.7443 97.0611 40.2311 97.0611 39.6705C97.0611 39.1136 96.9759 38.6023 96.8054 38.1364C96.6387 37.6667 96.3812 37.2898 96.0327 37.0057C95.6842 36.7216 95.2448 36.5795 94.7145 36.5795C94.1804 36.5795 93.7372 36.7216 93.3849 37.0057C93.0365 37.2898 92.777 37.6667 92.6065 38.1364C92.4399 38.6023 92.3565 39.1136 92.3565 39.6705C92.3565 40.2311 92.4399 40.7443 92.6065 41.2102C92.777 41.6761 93.0365 42.0492 93.3849 42.3295C93.7372 42.6098 94.1804 42.75 94.7145 42.75ZM104.332 47.4545C103.639 47.4545 103.043 47.3636 102.543 47.1818C102.046 47 101.641 46.7595 101.327 46.4602C101.012 46.161 100.777 45.8333 100.622 45.4773L102.082 44.875C102.185 45.0417 102.321 45.2178 102.491 45.4034C102.666 45.5928 102.901 45.7538 103.196 45.8864C103.495 46.0189 103.88 46.0852 104.349 46.0852C104.993 46.0852 105.526 45.928 105.946 45.6136C106.366 45.303 106.577 44.8068 106.577 44.125V42.4091H106.469C106.366 42.5947 106.219 42.8011 106.026 43.0284C105.836 43.2557 105.575 43.4527 105.241 43.6193C104.908 43.786 104.474 43.8693 103.94 43.8693C103.251 43.8693 102.63 43.7083 102.077 43.3864C101.527 43.0606 101.092 42.5814 100.77 41.9489C100.452 41.3125 100.293 40.5303 100.293 39.6023C100.293 38.6742 100.45 37.8788 100.764 37.2159C101.082 36.553 101.518 36.0455 102.071 35.6932C102.624 35.3371 103.251 35.1591 103.952 35.1591C104.493 35.1591 104.931 35.25 105.264 35.4318C105.598 35.6098 105.857 35.8182 106.043 36.0568C106.232 36.2955 106.378 36.5057 106.48 36.6875H106.605V35.2727H108.27V44.1932C108.27 44.9432 108.096 45.5587 107.747 46.0398C107.399 46.5208 106.927 46.8769 106.332 47.108C105.741 47.339 105.075 47.4545 104.332 47.4545ZM104.315 42.4602C104.804 42.4602 105.217 42.3466 105.554 42.1193C105.895 41.8883 106.152 41.5587 106.327 41.1307C106.505 40.6989 106.594 40.1818 106.594 39.5795C106.594 38.9924 106.507 38.4754 106.332 38.0284C106.158 37.5814 105.902 37.233 105.565 36.983C105.228 36.7292 104.812 36.6023 104.315 36.6023C103.804 36.6023 103.378 36.7348 103.037 37C102.696 37.2614 102.438 37.6174 102.264 38.0682C102.094 38.5189 102.009 39.0227 102.009 39.5795C102.009 40.1515 102.096 40.6534 102.27 41.0852C102.444 41.517 102.702 41.8542 103.043 42.0966C103.387 42.339 103.812 42.4602 104.315 42.4602ZM112.247 32.3636V44H110.548V32.3636H112.247ZM118.294 44.1761C117.434 44.1761 116.694 43.9924 116.072 43.625C115.455 43.2538 114.978 42.733 114.641 42.0625C114.307 41.3883 114.141 40.5985 114.141 39.6932C114.141 38.7992 114.307 38.0114 114.641 37.3295C114.978 36.6477 115.447 36.1155 116.05 35.733C116.656 35.3504 117.364 35.1591 118.175 35.1591C118.667 35.1591 119.144 35.2405 119.607 35.4034C120.069 35.5663 120.483 35.822 120.851 36.1705C121.218 36.5189 121.508 36.9716 121.72 37.5284C121.932 38.0814 122.038 38.7538 122.038 39.5455V40.1477H115.101V38.875H120.374C120.374 38.428 120.283 38.0322 120.101 37.6875C119.919 37.339 119.663 37.0644 119.334 36.8636C119.008 36.6629 118.625 36.5625 118.186 36.5625C117.709 36.5625 117.292 36.6799 116.936 36.9148C116.584 37.1458 116.311 37.4489 116.118 37.8239C115.929 38.1951 115.834 38.5985 115.834 39.0341V40.0284C115.834 40.6117 115.936 41.108 116.141 41.517C116.349 41.9261 116.639 42.2386 117.01 42.4545C117.381 42.6667 117.815 42.7727 118.311 42.7727C118.633 42.7727 118.927 42.7273 119.192 42.6364C119.457 42.5417 119.686 42.4015 119.879 42.2159C120.072 42.0303 120.22 41.8011 120.322 41.5284L121.93 41.8182C121.802 42.2917 121.571 42.7064 121.237 43.0625C120.908 43.4148 120.493 43.6894 119.993 43.8864C119.497 44.0795 118.93 44.1761 118.294 44.1761ZM128.158 47.2727V35.2727H129.817V36.6875H129.959C130.057 36.5057 130.199 36.2955 130.385 36.0568C130.571 35.8182 130.828 35.6098 131.158 35.4318C131.487 35.25 131.923 35.1591 132.464 35.1591C133.169 35.1591 133.798 35.3371 134.351 35.6932C134.904 36.0492 135.338 36.5625 135.652 37.233C135.97 37.9034 136.129 38.7102 136.129 39.6534C136.129 40.5966 135.972 41.4053 135.658 42.0795C135.343 42.75 134.911 43.267 134.362 43.6307C133.813 43.9905 133.186 44.1705 132.482 44.1705C131.951 44.1705 131.518 44.0814 131.18 43.9034C130.847 43.7254 130.586 43.517 130.396 43.2784C130.207 43.0398 130.061 42.8277 129.959 42.642H129.857V47.2727H128.158ZM129.822 39.6364C129.822 40.25 129.911 40.7879 130.089 41.25C130.268 41.7121 130.525 42.0739 130.862 42.3352C131.199 42.5928 131.612 42.7216 132.101 42.7216C132.608 42.7216 133.033 42.5871 133.374 42.3182C133.714 42.0455 133.972 41.6761 134.146 41.2102C134.324 40.7443 134.413 40.2197 134.413 39.6364C134.413 39.0606 134.326 38.5436 134.152 38.0852C133.982 37.6269 133.724 37.2652 133.379 37C133.038 36.7348 132.612 36.6023 132.101 36.6023C131.608 36.6023 131.192 36.7292 130.851 36.983C130.514 37.2367 130.258 37.5909 130.084 38.0455C129.91 38.5 129.822 39.0303 129.822 39.6364ZM139.732 32.3636V44H138.033V32.3636H139.732ZM144.557 44.1932C144.004 44.1932 143.504 44.0909 143.057 43.8864C142.61 43.678 142.256 43.3769 141.994 42.983C141.737 42.589 141.608 42.1061 141.608 41.5341C141.608 41.0417 141.703 40.6364 141.892 40.3182C142.081 40 142.337 39.7481 142.659 39.5625C142.981 39.3769 143.341 39.2367 143.739 39.142C144.136 39.0473 144.542 38.9754 144.955 38.9261C145.477 38.8655 145.902 38.8163 146.227 38.7784C146.553 38.7367 146.79 38.6705 146.938 38.5795C147.085 38.4886 147.159 38.3409 147.159 38.1364V38.0966C147.159 37.6004 147.019 37.2159 146.739 36.9432C146.462 36.6705 146.049 36.5341 145.5 36.5341C144.928 36.5341 144.477 36.661 144.148 36.9148C143.822 37.1648 143.597 37.4432 143.472 37.75L141.875 37.3864C142.064 36.8561 142.341 36.428 142.705 36.1023C143.072 35.7727 143.494 35.5341 143.972 35.3864C144.449 35.2348 144.951 35.1591 145.477 35.1591C145.826 35.1591 146.195 35.2008 146.585 35.2841C146.979 35.3636 147.347 35.5114 147.688 35.7273C148.032 35.9432 148.314 36.2519 148.534 36.6534C148.754 37.0511 148.864 37.5682 148.864 38.2045V44H147.205V42.8068H147.136C147.027 43.0265 146.862 43.2424 146.642 43.4545C146.422 43.6667 146.14 43.8428 145.795 43.983C145.451 44.1231 145.038 44.1932 144.557 44.1932ZM144.926 42.8295C145.396 42.8295 145.797 42.7367 146.131 42.5511C146.468 42.3655 146.723 42.1231 146.898 41.8239C147.076 41.5208 147.165 41.197 147.165 40.8523V39.7273C147.104 39.7879 146.987 39.8447 146.812 39.8977C146.642 39.947 146.447 39.9905 146.227 40.0284C146.008 40.0625 145.794 40.0947 145.585 40.125C145.377 40.1515 145.203 40.1742 145.062 40.1932C144.733 40.2348 144.432 40.3049 144.159 40.4034C143.89 40.5019 143.674 40.6439 143.511 40.8295C143.352 41.0114 143.273 41.2538 143.273 41.5568C143.273 41.9773 143.428 42.2955 143.739 42.5114C144.049 42.7235 144.445 42.8295 144.926 42.8295ZM151.888 47.2727C151.634 47.2727 151.403 47.2519 151.195 47.2102C150.986 47.1723 150.831 47.1307 150.729 47.0852L151.138 45.6932C151.448 45.7765 151.725 45.8125 151.967 45.8011C152.21 45.7898 152.424 45.6989 152.609 45.5284C152.799 45.358 152.965 45.0795 153.109 44.6932L153.32 44.1136L150.126 35.2727H151.945L154.155 42.0455H154.246L156.456 35.2727H158.28L154.683 45.1648C154.517 45.6193 154.304 46.0038 154.047 46.3182C153.789 46.6364 153.482 46.875 153.126 47.0341C152.77 47.1932 152.357 47.2727 151.888 47.2727Z" fill="#00313E"/>
<defs>
<clipPath id="clip0_254_4363">
<rect width="42" height="42" fill="white" transform="translate(16 10)"/>
</clipPath>
</defs>
</svg>
