<svg width="42" height="42" viewBox="0 0 42 42" fill="none" xmlns="http://www.w3.org/2000/svg">
<path d="M31.5 12.25V12.25C31.5 9.35051 29.1495 7 26.25 7H17.85C12.6004 7 9.97556 7 8.1355 8.33688C7.54124 8.76864 7.01864 9.29124 6.58688 9.8855C5.25 11.7256 5.25 14.3504 5.25 19.6V26.25M16.625 35H25.375C29.4606 35 31.5034 35 33.0498 34.1734C34.2708 33.5208 35.2708 32.5208 35.9234 31.2998C36.75 29.7534 36.75 27.7106 36.75 23.625V23.625C36.75 19.5394 36.75 17.4966 35.9234 15.9502C35.2708 14.7292 34.2708 13.7292 33.0498 13.0766C31.5034 12.25 29.4606 12.25 25.375 12.25H16.625C12.5394 12.25 10.4966 12.25 8.95022 13.0766C7.72923 13.7292 6.72919 14.7292 6.07655 15.9502C5.25 17.4966 5.25 19.5394 5.25 23.625V23.625C5.25 27.7106 5.25 29.7534 6.07655 31.2998C6.72919 32.5208 7.72923 33.5208 8.95022 34.1734C10.4966 35 12.5394 35 16.625 35Z" stroke="#00313E" stroke-width="2.625" stroke-linecap="round" stroke-linejoin="round"/>
<path fill-rule="evenodd" clip-rule="evenodd" d="M16.625 10.9375H25.375C29.4536 10.9375 31.4929 10.9375 33.0891 11.6376C34.9992 12.4755 36.5245 14.0008 37.3624 15.9109C38.0625 17.5071 38.0625 19.5464 38.0625 23.625C38.0625 27.7036 38.0625 29.7429 37.3624 31.3391C36.5245 33.2492 34.9992 34.7745 33.0891 35.6124C31.4929 36.3125 29.4536 36.3125 25.375 36.3125H16.625C12.5464 36.3125 10.5071 36.3125 8.91091 35.6124C7.0008 34.7745 5.47548 33.2492 4.63763 31.3391C3.9375 29.7429 3.9375 27.7036 3.9375 23.625C3.9375 19.5464 3.9375 17.5071 4.63763 15.9109C5.47548 14.0008 7.0008 12.4755 8.91091 11.6376C10.5071 10.9375 12.5464 10.9375 16.625 10.9375ZM26.25 17.0625C25.5251 17.0625 24.9375 17.6501 24.9375 18.375C24.9375 19.0999 25.5251 19.6875 26.25 19.6875H29.75C30.4749 19.6875 31.0625 19.0999 31.0625 18.375C31.0625 17.6501 30.4749 17.0625 29.75 17.0625H26.25Z" fill="#00313E"/>
</svg>
