<svg width="42" height="42" viewBox="0 0 42 42" fill="none" xmlns="http://www.w3.org/2000/svg">
<path fill-rule="evenodd" clip-rule="evenodd" d="M18.9 3.9375H23.1C29.3339 3.9375 32.4509 3.9375 34.636 5.52505C35.3417 6.03776 35.9622 6.65835 36.475 7.36404C38.0625 9.54911 38.0625 12.6661 38.0625 18.9V23.1C38.0625 29.3339 38.0625 32.4509 36.475 34.636C35.9622 35.3417 35.3417 35.9622 34.636 36.475C32.4509 38.0625 29.3339 38.0625 23.1 38.0625H18.9C12.6661 38.0625 9.54911 38.0625 7.36404 36.475C6.65835 35.9622 6.03776 35.3417 5.52505 34.636C3.9375 32.4509 3.9375 29.3339 3.9375 23.1V18.9C3.9375 12.6661 3.9375 9.54911 5.52505 7.36404C6.03776 6.65835 6.65835 6.03776 7.36404 5.52505C9.54911 3.9375 12.6661 3.9375 18.9 3.9375ZM29.3125 12.25C29.3125 11.5251 28.7249 10.9375 28 10.9375C27.2751 10.9375 26.6875 11.5251 26.6875 12.25V24.5C26.6875 25.2249 27.2751 25.8125 28 25.8125C28.7249 25.8125 29.3125 25.2249 29.3125 24.5V12.25ZM22.3125 15.75C22.3125 15.0251 21.7249 14.4375 21 14.4375C20.2751 14.4375 19.6875 15.0251 19.6875 15.75V24.5C19.6875 25.2249 20.2751 25.8125 21 25.8125C21.7249 25.8125 22.3125 25.2249 22.3125 24.5V15.75ZM15.3125 19.25C15.3125 18.5251 14.7249 17.9375 14 17.9375C13.2751 17.9375 12.6875 18.5251 12.6875 19.25V24.5C12.6875 25.2249 13.2751 25.8125 14 25.8125C14.7249 25.8125 15.3125 25.2249 15.3125 24.5V19.25ZM12.25 28.4375C11.5251 28.4375 10.9375 29.0251 10.9375 29.75C10.9375 30.4749 11.5251 31.0625 12.25 31.0625H29.75C30.4749 31.0625 31.0625 30.4749 31.0625 29.75C31.0625 29.0251 30.4749 28.4375 29.75 28.4375H12.25Z" fill="#FFF8F0"/>
</svg>
