<svg width="163" height="66" viewBox="0 0 163 66" fill="none" xmlns="http://www.w3.org/2000/svg">
<rect width="163" height="66" rx="16" fill="#EBFF74"/>
<g clip-path="url(#clip0_254_4346)">
<path d="M51.3867 12H26.6133C21.8639 12 18 15.8639 18 20.6133V45.3867C18 50.1361 21.8639 54 26.6133 54H51.3867C56.1361 54 60 50.1361 60 45.3867V20.6133C60 15.8639 56.1361 12 51.3867 12ZM57.5391 45.3867C57.5391 48.7791 54.7791 51.5391 51.3867 51.5391H26.6133C23.2209 51.5391 20.4609 48.7791 20.4609 45.3867V20.6133C20.4609 17.2209 23.2209 14.4609 26.6133 14.4609H51.3867C54.7791 14.4609 57.5391 17.2209 57.5391 20.6133V45.3867Z" fill="#00313E"/>
<path d="M43.0745 22.1324C42.9326 21.6033 42.5934 21.161 42.119 20.8871C41.1399 20.3218 39.8831 20.6584 39.3176 21.6378L39.002 22.1845L38.6863 21.6377C38.1209 20.6585 36.8642 20.3218 35.8849 20.8871C34.9056 21.4525 34.5689 22.7091 35.1343 23.6885L36.6339 26.286L31.1005 35.8701H27.0664C25.9356 35.8701 25.0156 36.7901 25.0156 37.9209C25.0156 39.0517 25.9356 39.9716 27.0664 39.9716H42.6409L40.2728 35.8701H35.8366L42.8696 23.6886C43.1435 23.2142 43.2163 22.6615 43.0745 22.1324Z" fill="#00313E"/>
<path d="M50.9375 35.8711H46.9033L42.3172 27.9277L39.9492 32.0293L47.0699 44.3625C47.3438 44.837 47.7859 45.1764 48.3152 45.3182C48.4919 45.3655 48.6711 45.389 48.8493 45.389C49.2046 45.389 49.5554 45.2958 49.8715 45.1133C50.8508 44.5478 51.1874 43.2911 50.622 42.3119L49.2713 39.9727H50.9375C52.0683 39.9727 52.9882 39.0527 52.9882 37.9219C52.9882 36.7911 52.0683 35.8711 50.9375 35.8711Z" fill="#00313E"/>
<path d="M27.7831 41.6133L27.3798 42.3119C26.8144 43.2911 27.1512 44.5479 28.1305 45.1132C28.4526 45.2992 28.8047 45.3876 29.1524 45.3875C29.8616 45.3875 30.5524 45.0197 30.9319 44.3626L32.5192 41.6133H27.7831Z" fill="#00313E"/>
</g>
<path d="M77.3235 18C77.2298 17.7131 77.1062 17.456 76.9528 17.2287C76.8022 16.9986 76.6218 16.8026 76.4116 16.6406C76.2042 16.4787 75.9684 16.3551 75.7042 16.2699C75.44 16.1847 75.1502 16.142 74.8349 16.142C74.3178 16.142 73.8477 16.2756 73.4244 16.5426C73.0011 16.8097 72.6644 17.2031 72.4144 17.723C72.1644 18.2429 72.0394 18.8807 72.0394 19.6364C72.0394 20.392 72.1658 21.0298 72.4187 21.5497C72.6715 22.0696 73.0138 22.4631 73.4457 22.7301C73.8775 22.9972 74.3633 23.1307 74.9031 23.1307C75.4031 23.1307 75.8434 23.0241 76.2241 22.8111C76.6076 22.5952 76.9059 22.2912 77.119 21.8991C77.3349 21.5043 77.4428 21.0398 77.4428 20.5057L77.7667 20.5739H75.1417V19.6364H78.4656V20.5739C78.4656 21.2926 78.3121 21.9176 78.0053 22.4489C77.7013 22.9801 77.2809 23.392 76.744 23.6847C76.2099 23.9744 75.5962 24.1193 74.9031 24.1193C74.1303 24.1193 73.4513 23.9375 72.8661 23.5739C72.2837 23.2102 71.8292 22.6932 71.5025 22.0227C71.1786 21.3523 71.0167 20.5568 71.0167 19.6364C71.0167 18.946 71.109 18.3253 71.2937 17.7741C71.4812 17.2202 71.7454 16.7486 72.0863 16.3594C72.4272 15.9702 72.8306 15.6719 73.2965 15.4645C73.7624 15.2571 74.2752 15.1534 74.8349 15.1534C75.2951 15.1534 75.7241 15.223 76.1218 15.3622C76.5224 15.4986 76.8789 15.6932 77.1914 15.946C77.5067 16.196 77.7695 16.4957 77.9798 16.8452C78.19 17.1918 78.3349 17.5767 78.4144 18H77.3235ZM82.8835 24.1364C82.2528 24.1364 81.7088 23.9972 81.2514 23.7188C80.7969 23.4375 80.446 23.0455 80.1989 22.5426C79.9545 22.0369 79.8324 21.4489 79.8324 20.7784C79.8324 20.108 79.9545 19.517 80.1989 19.0057C80.446 18.4915 80.7898 18.0909 81.2301 17.804C81.6733 17.5142 82.1903 17.3693 82.7812 17.3693C83.1222 17.3693 83.4588 17.4261 83.7912 17.5398C84.1236 17.6534 84.4261 17.8381 84.6989 18.0938C84.9716 18.3466 85.1889 18.6818 85.3509 19.0994C85.5128 19.517 85.5938 20.0312 85.5938 20.642V21.0682H80.5483V20.1989H84.571C84.571 19.8295 84.4972 19.5 84.3494 19.2102C84.2045 18.9205 83.9972 18.6918 83.7273 18.5241C83.4602 18.3565 83.1449 18.2727 82.7812 18.2727C82.3807 18.2727 82.0341 18.3722 81.7415 18.571C81.4517 18.767 81.2287 19.0227 81.0724 19.3381C80.9162 19.6534 80.8381 19.9915 80.8381 20.3523V20.9318C80.8381 21.4261 80.9233 21.8452 81.0938 22.1889C81.267 22.5298 81.5071 22.7898 81.8139 22.9688C82.1207 23.1449 82.4773 23.233 82.8835 23.233C83.1477 23.233 83.3864 23.196 83.5994 23.1222C83.8153 23.0455 84.0014 22.9318 84.1577 22.7812C84.3139 22.6278 84.4347 22.4375 84.5199 22.2102L85.4915 22.483C85.3892 22.8125 85.2173 23.1023 84.9759 23.3523C84.7344 23.5994 84.4361 23.7926 84.081 23.9318C83.7259 24.0682 83.3267 24.1364 82.8835 24.1364ZM89.9702 17.4545V18.3068H86.5781V17.4545H89.9702ZM87.5668 15.8864H88.5724V22.125C88.5724 22.4091 88.6136 22.6222 88.696 22.7642C88.7813 22.9034 88.8892 22.9972 89.0199 23.0455C89.1534 23.0909 89.294 23.1136 89.4418 23.1136C89.5526 23.1136 89.6435 23.108 89.7145 23.0966C89.7855 23.0824 89.8423 23.071 89.8849 23.0625L90.0895 23.9659C90.0213 23.9915 89.9261 24.017 89.804 24.0426C89.6818 24.071 89.527 24.0852 89.3395 24.0852C89.0554 24.0852 88.777 24.0241 88.5043 23.902C88.2344 23.7798 88.0099 23.5938 87.831 23.3438C87.6548 23.0938 87.5668 22.7784 87.5668 22.3977V15.8864ZM94.858 24V17.4545H95.8636V24H94.858ZM95.3693 16.3636C95.1733 16.3636 95.0043 16.2969 94.8622 16.1634C94.723 16.0298 94.6534 15.8693 94.6534 15.6818C94.6534 15.4943 94.723 15.3338 94.8622 15.2003C95.0043 15.0668 95.1733 15 95.3693 15C95.5653 15 95.733 15.0668 95.8722 15.2003C96.0142 15.3338 96.0852 15.4943 96.0852 15.6818C96.0852 15.8693 96.0142 16.0298 95.8722 16.1634C95.733 16.2969 95.5653 16.3636 95.3693 16.3636ZM100.552 17.4545V18.3068H97.1602V17.4545H100.552ZM98.1488 15.8864H99.1545V22.125C99.1545 22.4091 99.1957 22.6222 99.2781 22.7642C99.3633 22.9034 99.4712 22.9972 99.6019 23.0455C99.7354 23.0909 99.8761 23.1136 100.024 23.1136C100.135 23.1136 100.225 23.108 100.297 23.0966C100.368 23.0824 100.424 23.071 100.467 23.0625L100.672 23.9659C100.603 23.9915 100.508 24.017 100.386 24.0426C100.264 24.071 100.109 24.0852 99.9215 24.0852C99.6374 24.0852 99.359 24.0241 99.0863 23.902C98.8164 23.7798 98.592 23.5938 98.413 23.3438C98.2369 23.0938 98.1488 22.7784 98.1488 22.3977V15.8864ZM108.099 24.1364C107.508 24.1364 106.99 23.9957 106.544 23.7145C106.1 23.4332 105.754 23.0398 105.504 22.5341C105.257 22.0284 105.133 21.4375 105.133 20.7614C105.133 20.0795 105.257 19.4844 105.504 18.9759C105.754 18.4673 106.1 18.0724 106.544 17.7912C106.99 17.5099 107.508 17.3693 108.099 17.3693C108.69 17.3693 109.207 17.5099 109.65 17.7912C110.096 18.0724 110.443 18.4673 110.69 18.9759C110.94 19.4844 111.065 20.0795 111.065 20.7614C111.065 21.4375 110.94 22.0284 110.69 22.5341C110.443 23.0398 110.096 23.4332 109.65 23.7145C109.207 23.9957 108.69 24.1364 108.099 24.1364ZM108.099 23.233C108.548 23.233 108.917 23.1179 109.207 22.8878C109.497 22.6577 109.711 22.3551 109.85 21.9801C109.99 21.6051 110.059 21.1989 110.059 20.7614C110.059 20.3239 109.99 19.9162 109.85 19.5384C109.711 19.1605 109.497 18.8551 109.207 18.6222C108.917 18.3892 108.548 18.2727 108.099 18.2727C107.65 18.2727 107.281 18.3892 106.991 18.6222C106.701 18.8551 106.487 19.1605 106.348 19.5384C106.208 19.9162 106.139 20.3239 106.139 20.7614C106.139 21.1989 106.208 21.6051 106.348 21.9801C106.487 22.3551 106.701 22.6577 106.991 22.8878C107.281 23.1179 107.65 23.233 108.099 23.233ZM113.606 20.0625V24H112.6V17.4545H113.572V18.4773H113.657C113.81 18.1449 114.043 17.8778 114.356 17.6761C114.668 17.4716 115.072 17.3693 115.566 17.3693C116.009 17.3693 116.397 17.4602 116.729 17.642C117.062 17.821 117.32 18.0938 117.505 18.4602C117.69 18.8239 117.782 19.2841 117.782 19.8409V24H116.776V19.9091C116.776 19.3949 116.643 18.9943 116.376 18.7074C116.109 18.4176 115.742 18.2727 115.276 18.2727C114.955 18.2727 114.668 18.3423 114.415 18.4815C114.165 18.6207 113.968 18.8239 113.823 19.0909C113.678 19.358 113.606 19.6818 113.606 20.0625Z" fill="#00313E"/>
<path d="M72.5192 46H70.6555L74.843 34.3636H76.8714L81.0589 46H79.1953L75.9055 36.4773H75.8146L72.5192 46ZM72.8317 41.4432H78.8771V42.9205H72.8317V41.4432ZM82.603 49.2727V37.2727H84.2621V38.6875H84.4041C84.5026 38.5057 84.6446 38.2955 84.8303 38.0568C85.0159 37.8182 85.2734 37.6098 85.603 37.4318C85.9325 37.25 86.3681 37.1591 86.9098 37.1591C87.6143 37.1591 88.2431 37.3371 88.7962 37.6932C89.3492 38.0492 89.7829 38.5625 90.0973 39.233C90.4155 39.9034 90.5746 40.7102 90.5746 41.6534C90.5746 42.5966 90.4174 43.4053 90.103 44.0795C89.7886 44.75 89.3568 45.267 88.8075 45.6307C88.2583 45.9905 87.6314 46.1705 86.9268 46.1705C86.3965 46.1705 85.9628 46.0814 85.6257 45.9034C85.2924 45.7254 85.031 45.517 84.8416 45.2784C84.6522 45.0398 84.5064 44.8277 84.4041 44.642H84.3018V49.2727H82.603ZM84.2678 41.6364C84.2678 42.25 84.3568 42.7879 84.5348 43.25C84.7128 43.7121 84.9704 44.0739 85.3075 44.3352C85.6446 44.5928 86.0575 44.7216 86.5462 44.7216C87.0537 44.7216 87.478 44.5871 87.8189 44.3182C88.1598 44.0455 88.4174 43.6761 88.5916 43.2102C88.7696 42.7443 88.8587 42.2197 88.8587 41.6364C88.8587 41.0606 88.7715 40.5436 88.5973 40.0852C88.4268 39.6269 88.1693 39.2652 87.8246 39C87.4837 38.7348 87.0575 38.6023 86.5462 38.6023C86.0537 38.6023 85.6371 38.7292 85.2962 38.983C84.959 39.2367 84.7034 39.5909 84.5291 40.0455C84.3549 40.5 84.2678 41.0303 84.2678 41.6364ZM92.478 49.2727V37.2727H94.1371V38.6875H94.2791C94.3776 38.5057 94.5196 38.2955 94.7053 38.0568C94.8909 37.8182 95.1484 37.6098 95.478 37.4318C95.8075 37.25 96.2431 37.1591 96.7848 37.1591C97.4893 37.1591 98.1181 37.3371 98.6712 37.6932C99.2242 38.0492 99.6579 38.5625 99.9723 39.233C100.29 39.9034 100.45 40.7102 100.45 41.6534C100.45 42.5966 100.292 43.4053 99.978 44.0795C99.6636 44.75 99.2318 45.267 98.6825 45.6307C98.1333 45.9905 97.5064 46.1705 96.8018 46.1705C96.2715 46.1705 95.8378 46.0814 95.5007 45.9034C95.1674 45.7254 94.906 45.517 94.7166 45.2784C94.5272 45.0398 94.3814 44.8277 94.2791 44.642H94.1768V49.2727H92.478ZM94.1428 41.6364C94.1428 42.25 94.2318 42.7879 94.4098 43.25C94.5878 43.7121 94.8454 44.0739 95.1825 44.3352C95.5196 44.5928 95.9325 44.7216 96.4212 44.7216C96.9287 44.7216 97.353 44.5871 97.6939 44.3182C98.0348 44.0455 98.2924 43.6761 98.4666 43.2102C98.6446 42.7443 98.7337 42.2197 98.7337 41.6364C98.7337 41.0606 98.6465 40.5436 98.4723 40.0852C98.3018 39.6269 98.0443 39.2652 97.6996 39C97.3587 38.7348 96.9325 38.6023 96.4212 38.6023C95.9287 38.6023 95.5121 38.7292 95.1712 38.983C94.834 39.2367 94.5784 39.5909 94.4041 40.0455C94.2299 40.5 94.1428 41.0303 94.1428 41.6364ZM113.127 39.4034L111.587 39.6761C111.523 39.4792 111.421 39.2917 111.281 39.1136C111.144 38.9356 110.959 38.7898 110.724 38.6761C110.489 38.5625 110.195 38.5057 109.843 38.5057C109.362 38.5057 108.96 38.6136 108.638 38.8295C108.317 39.0417 108.156 39.3163 108.156 39.6534C108.156 39.9451 108.263 40.1799 108.479 40.358C108.695 40.536 109.044 40.6818 109.525 40.7955L110.911 41.1136C111.714 41.2992 112.313 41.5852 112.707 41.9716C113.101 42.358 113.298 42.8598 113.298 43.4773C113.298 44 113.146 44.4659 112.843 44.875C112.544 45.2803 112.125 45.5985 111.587 45.8295C111.053 46.0606 110.434 46.1761 109.729 46.1761C108.752 46.1761 107.955 45.9678 107.337 45.5511C106.72 45.1307 106.341 44.5341 106.201 43.7614L107.843 43.5114C107.945 43.9394 108.156 44.2633 108.474 44.483C108.792 44.6989 109.207 44.8068 109.718 44.8068C110.275 44.8068 110.72 44.6913 111.053 44.4602C111.387 44.2254 111.553 43.9394 111.553 43.6023C111.553 43.3295 111.451 43.1004 111.246 42.9148C111.046 42.7292 110.737 42.589 110.32 42.4943L108.843 42.1705C108.029 41.9848 107.426 41.6894 107.036 41.2841C106.65 40.8788 106.457 40.3655 106.457 39.7443C106.457 39.2292 106.601 38.7784 106.888 38.392C107.176 38.0057 107.574 37.7045 108.082 37.4886C108.589 37.2689 109.171 37.1591 109.826 37.1591C110.769 37.1591 111.512 37.3636 112.053 37.7727C112.595 38.178 112.953 38.7216 113.127 39.4034ZM119.239 37.2727V38.6364H114.472V37.2727H119.239ZM115.751 35.1818H117.45V43.4375C117.45 43.767 117.499 44.0152 117.597 44.1818C117.696 44.3447 117.823 44.4564 117.978 44.517C118.137 44.5739 118.309 44.6023 118.495 44.6023C118.631 44.6023 118.751 44.5928 118.853 44.5739C118.955 44.5549 119.035 44.5398 119.092 44.5284L119.398 45.9318C119.3 45.9697 119.16 46.0076 118.978 46.0455C118.796 46.0871 118.569 46.1098 118.296 46.1136C117.849 46.1212 117.433 46.0417 117.046 45.875C116.66 45.7083 116.347 45.4508 116.109 45.1023C115.87 44.7538 115.751 44.3163 115.751 43.7898V35.1818ZM124.701 46.1761C123.883 46.1761 123.169 45.9886 122.559 45.6136C121.949 45.2386 121.476 44.714 121.138 44.0398C120.801 43.3655 120.633 42.5777 120.633 41.6761C120.633 40.7708 120.801 39.9792 121.138 39.3011C121.476 38.6231 121.949 38.0966 122.559 37.7216C123.169 37.3466 123.883 37.1591 124.701 37.1591C125.519 37.1591 126.233 37.3466 126.843 37.7216C127.453 38.0966 127.926 38.6231 128.263 39.3011C128.601 39.9792 128.769 40.7708 128.769 41.6761C128.769 42.5777 128.601 43.3655 128.263 44.0398C127.926 44.714 127.453 45.2386 126.843 45.6136C126.233 45.9886 125.519 46.1761 124.701 46.1761ZM124.707 44.75C125.237 44.75 125.676 44.6098 126.025 44.3295C126.373 44.0492 126.631 43.6761 126.798 43.2102C126.968 42.7443 127.053 42.2311 127.053 41.6705C127.053 41.1136 126.968 40.6023 126.798 40.1364C126.631 39.6667 126.373 39.2898 126.025 39.0057C125.676 38.7216 125.237 38.5795 124.707 38.5795C124.173 38.5795 123.729 38.7216 123.377 39.0057C123.029 39.2898 122.769 39.6667 122.599 40.1364C122.432 40.6023 122.349 41.1136 122.349 41.6705C122.349 42.2311 122.432 42.7443 122.599 43.2102C122.769 43.6761 123.029 44.0492 123.377 44.3295C123.729 44.6098 124.173 44.75 124.707 44.75ZM130.665 46V37.2727H132.308V38.6591H132.398C132.558 38.1894 132.838 37.8201 133.239 37.5511C133.645 37.2784 134.103 37.142 134.614 37.142C134.72 37.142 134.845 37.1458 134.989 37.1534C135.137 37.161 135.253 37.1705 135.336 37.1818V38.8068C135.268 38.7879 135.147 38.767 134.972 38.7443C134.798 38.7178 134.624 38.7045 134.45 38.7045C134.048 38.7045 133.69 38.7898 133.376 38.9602C133.065 39.1269 132.819 39.3598 132.637 39.6591C132.455 39.9545 132.364 40.2917 132.364 40.6705V46H130.665ZM140.255 46.1761C139.395 46.1761 138.655 45.9924 138.033 45.625C137.416 45.2538 136.939 44.733 136.602 44.0625C136.268 43.3883 136.102 42.5985 136.102 41.6932C136.102 40.7992 136.268 40.0114 136.602 39.3295C136.939 38.6477 137.408 38.1155 138.011 37.733C138.617 37.3504 139.325 37.1591 140.136 37.1591C140.628 37.1591 141.105 37.2405 141.567 37.4034C142.03 37.5663 142.444 37.822 142.812 38.1705C143.179 38.5189 143.469 38.9716 143.681 39.5284C143.893 40.0814 143.999 40.7538 143.999 41.5455V42.1477H137.062V40.875H142.335C142.335 40.428 142.244 40.0322 142.062 39.6875C141.88 39.339 141.624 39.0644 141.295 38.8636C140.969 38.6629 140.586 38.5625 140.147 38.5625C139.67 38.5625 139.253 38.6799 138.897 38.9148C138.545 39.1458 138.272 39.4489 138.079 39.8239C137.889 40.1951 137.795 40.5985 137.795 41.0341V42.0284C137.795 42.6117 137.897 43.108 138.102 43.517C138.31 43.9261 138.6 44.2386 138.971 44.4545C139.342 44.6667 139.776 44.7727 140.272 44.7727C140.594 44.7727 140.888 44.7273 141.153 44.6364C141.418 44.5417 141.647 44.4015 141.84 44.2159C142.033 44.0303 142.181 43.8011 142.283 43.5284L143.891 43.8182C143.763 44.2917 143.531 44.7064 143.198 45.0625C142.869 45.4148 142.454 45.6894 141.954 45.8864C141.458 46.0795 140.891 46.1761 140.255 46.1761Z" fill="#00313E"/>
<defs>
<clipPath id="clip0_254_4346">
<rect width="42" height="42" fill="white" transform="translate(18 12)"/>
</clipPath>
</defs>
</svg>
