<svg width="32" height="33" viewBox="0 0 32 33" fill="none" xmlns="http://www.w3.org/2000/svg">
<path d="M12.2176 8.64552C12.7336 7.17034 12.9917 6.43274 13.2229 6.08447C14.5415 4.0981 17.4585 4.0981 18.7771 6.08447C19.0083 6.43274 19.2787 7.20568 19.8195 8.75156V8.75156C19.9325 9.07467 19.9891 9.23623 20.05 9.37074C20.546 10.4665 21.5939 11.2101 22.792 11.3165C22.939 11.3295 23.1013 11.3295 23.426 11.3295H23.7519C24.6879 11.3295 25.1559 11.3295 25.3897 11.3628C28.147 11.7554 29.2355 15.1559 27.2187 17.0766C27.0477 17.2395 26.6667 17.5112 25.9046 18.0548V18.0548C25.687 18.21 25.5782 18.2876 25.4854 18.3645C24.4796 19.1977 24.053 20.5415 24.3943 21.8023C24.4257 21.9185 24.4713 22.0489 24.5625 22.3096V22.3096C24.9468 23.4082 25.139 23.9575 25.186 24.2448C25.6147 26.8627 22.9621 28.908 20.5392 27.8278C20.2733 27.7093 19.806 27.394 18.8715 26.7633L18.261 26.3514C17.8803 26.0945 17.6899 25.966 17.5019 25.8711C16.5574 25.3944 15.4426 25.3944 14.4981 25.8711C14.3101 25.966 14.1197 26.0945 13.739 26.3514L13.1555 26.7451C12.1992 27.3904 11.7211 27.7131 11.4485 27.8333C9.03238 28.8988 6.3957 26.8657 6.8118 24.2581C6.85875 23.9639 7.05523 23.4022 7.44819 22.2789V22.2789C7.54051 22.0151 7.58666 21.8831 7.61848 21.765C7.95325 20.5225 7.54292 19.1983 6.56424 18.3627C6.47123 18.2833 6.36208 18.2032 6.14376 18.0429V18.0429C5.3848 17.4857 5.00533 17.2071 4.83355 17.0379C2.87072 15.105 3.96662 11.7606 6.69273 11.3642C6.93131 11.3295 7.40208 11.3295 8.34363 11.3295H8.58489C8.89912 11.3295 9.05623 11.3295 9.19862 11.3173C10.4038 11.2138 11.4583 10.4655 11.9539 9.36212C12.0125 9.23176 12.0644 9.08346 12.1681 8.78685L12.2176 8.64552Z" stroke="#00313E" stroke-width="2" stroke-linejoin="round"/>
</svg>
