<svg width="42" height="42" viewBox="0 0 42 42" fill="none" xmlns="http://www.w3.org/2000/svg">
<path fill-rule="evenodd" clip-rule="evenodd" d="M21 38.0625C30.4234 38.0625 38.0625 30.4234 38.0625 21C38.0625 11.5766 30.4234 3.9375 21 3.9375C11.5766 3.9375 3.9375 11.5766 3.9375 21C3.9375 30.4234 11.5766 38.0625 21 38.0625ZM23.625 21C23.625 22.4497 22.4497 23.625 21 23.625C19.5503 23.625 18.375 22.4497 18.375 21C18.375 19.5503 19.5503 18.375 21 18.375C22.4497 18.375 23.625 19.5503 23.625 21ZM13.5625 21C13.5625 16.8924 16.8924 13.5625 21 13.5625C25.1076 13.5625 28.4375 16.8924 28.4375 21C28.4375 25.1076 25.1076 28.4375 21 28.4375C16.8924 28.4375 13.5625 25.1076 13.5625 21ZM21 10.9375C15.4426 10.9375 10.9375 15.4426 10.9375 21C10.9375 26.5574 15.4426 31.0625 21 31.0625C26.5574 31.0625 31.0625 26.5574 31.0625 21C31.0625 15.4426 26.5574 10.9375 21 10.9375Z" fill="#00313E"/>
</svg>
