<svg width="32" height="33" viewBox="0 0 32 33" fill="none" xmlns="http://www.w3.org/2000/svg">
<path d="M28 16.5C28 23.1274 22.6274 28.5 16 28.5C9.37258 28.5 4 23.1274 4 16.5C4 9.87258 9.37258 4.5 16 4.5C22.6274 4.5 28 9.87258 28 16.5Z" stroke="#00313E" stroke-width="2" stroke-linejoin="round"/>
<path d="M22.6667 16.5C22.6667 20.1819 19.6819 23.1667 16 23.1667C12.3181 23.1667 9.33333 20.1819 9.33333 16.5C9.33333 12.8181 12.3181 9.83333 16 9.83333C19.6819 9.83333 22.6667 12.8181 22.6667 16.5Z" stroke="#00313E" stroke-width="2" stroke-linejoin="round"/>
<path d="M18 16.5C18 17.6046 17.1046 18.5 16 18.5C14.8954 18.5 14 17.6046 14 16.5C14 15.3954 14.8954 14.5 16 14.5C17.1046 14.5 18 15.3954 18 16.5Z" fill="#00313E"/>
</svg>
