<svg width="32" height="33" viewBox="0 0 32 33" fill="none" xmlns="http://www.w3.org/2000/svg">
<path d="M28 16.5C28 23.1274 22.6274 28.5 16 28.5C9.37258 28.5 4 23.1274 4 16.5C4 9.87258 9.37258 4.5 16 4.5C22.6274 4.5 28 9.87258 28 16.5Z" stroke="#00313E" stroke-width="2" stroke-linejoin="round"/>
<path fill-rule="evenodd" clip-rule="evenodd" d="M21.0752 13.0729C21.941 11.6299 22.3739 10.9084 22.1796 10.5692C22.1207 10.4663 22.0354 10.381 21.9325 10.3221C21.5933 10.1278 20.8718 10.5607 19.4288 11.4265L14.3739 14.4594C14.2603 14.5276 14.2034 14.5617 14.1549 14.6058C14.1387 14.6204 14.1233 14.6358 14.1087 14.6519C14.0647 14.7005 14.0306 14.7573 13.9623 14.871L10.9294 19.9259C10.0636 21.3689 9.63071 22.0904 9.82502 22.4296C9.88395 22.5325 9.96924 22.6178 10.0721 22.6767C10.4113 22.871 11.1328 22.4381 12.5758 21.5723L17.6307 18.5394C17.7444 18.4712 17.8012 18.437 17.8498 18.393C17.8659 18.3784 17.8813 18.363 17.8959 18.3469C17.94 18.2983 17.9741 18.2415 18.0423 18.1278L21.0752 13.0729ZM16.7086 17.205C17.0991 16.8145 17.0991 16.1814 16.7086 15.7908C16.3181 15.4003 15.6849 15.4003 15.2944 15.7908C14.9038 16.1814 14.9038 16.8145 15.2944 17.205C15.6849 17.5956 16.3181 17.5956 16.7086 17.205Z" fill="#00313E"/>
</svg>
