<svg width="32" height="32" viewBox="0 0 32 32" fill="none" xmlns="http://www.w3.org/2000/svg">
<path fill-rule="evenodd" clip-rule="evenodd" d="M25 12V20C25 23.7497 25 25.6246 24.0451 26.9389C23.7367 27.3634 23.3634 27.7367 22.9389 28.0451C21.6246 29 19.7497 29 16 29C12.2503 29 10.3754 29 9.06107 28.0451C8.6366 27.7367 8.26331 27.3634 7.95492 26.9389C7 25.6246 7 23.7497 7 20V12C7 8.25027 7 6.3754 7.95492 5.06107C8.26331 4.6366 8.6366 4.26331 9.06107 3.95492C10.3754 3 12.2503 3 16 3C19.7497 3 21.6246 3 22.9389 3.95492C23.3634 4.26331 23.7367 4.6366 24.0451 5.06107C25 6.3754 25 8.25027 25 12ZM17 6.33333C17 6.88562 16.5523 7.33333 16 7.33333C15.4477 7.33333 15 6.88562 15 6.33333C15 5.78105 15.4477 5.33333 16 5.33333C16.5523 5.33333 17 5.78105 17 6.33333ZM12.3333 25.3333C12.3333 24.781 12.781 24.3333 13.3333 24.3333H18.6667C19.219 24.3333 19.6667 24.781 19.6667 25.3333C19.6667 25.8856 19.219 26.3333 18.6667 26.3333H13.3333C12.781 26.3333 12.3333 25.8856 12.3333 25.3333Z" fill="#FFF8F0"/>
</svg>
