<svg width="24" height="24" viewBox="0 0 24 24" fill="none" xmlns="http://www.w3.org/2000/svg">
<path fill-rule="evenodd" clip-rule="evenodd" d="M12 21.75C17.3848 21.75 21.75 17.3848 21.75 12C21.75 6.61522 17.3848 2.25 12 2.25C6.61522 2.25 2.25 6.61522 2.25 12C2.25 17.3848 6.61522 21.75 12 21.75ZM15.0644 10.4939C15.3372 10.1822 15.3056 9.70833 14.9939 9.43557C14.6822 9.16281 14.2083 9.19439 13.9356 9.50612L11.1667 12.6705C11.1207 12.7231 11.0808 12.7687 11.0449 12.8092C11.0121 12.7661 10.9758 12.7177 10.9338 12.6618L10.1 11.55C9.85147 11.2186 9.38137 11.1515 9.05 11.4C8.71863 11.6485 8.65147 12.1186 8.9 12.45L9.73382 13.5618L9.75262 13.5868C9.87185 13.7459 9.99686 13.9127 10.118 14.0404C10.2537 14.1834 10.4597 14.3613 10.7625 14.4276C10.9077 14.4594 11.0574 14.465 11.2047 14.4443C11.5116 14.4009 11.7304 14.2391 11.8764 14.1067C12.0069 13.9884 12.1441 13.8315 12.2749 13.6819L12.2956 13.6583L15.0644 10.4939Z" fill="#EBFF74"/>
</svg>
