<svg width="24" height="24" viewBox="0 0 24 24" fill="none" xmlns="http://www.w3.org/2000/svg">
<path d="M21 4.5L19.5 3M3 4.5L4.5 3" stroke="#00313E" stroke-width="1.5" stroke-linecap="round"/>
<path fill-rule="evenodd" clip-rule="evenodd" d="M12 21.75C17.3848 21.75 21.75 17.3848 21.75 12C21.75 6.61522 17.3848 2.25 12 2.25C6.61522 2.25 2.25 6.61522 2.25 12C2.25 17.3848 6.61522 21.75 12 21.75ZM16.5 11.2993L13.3266 11.2993C13.1945 11.0497 12.994 10.8418 12.75 10.7007L12.75 6.54931C12.75 6.1351 12.4142 5.79931 12 5.79931C11.5858 5.79931 11.25 6.1351 11.25 6.54931L11.25 10.7007C10.8016 10.96 10.5 11.4448 10.5 12C10.5 12.8284 11.1716 13.5 12 13.5C12.5346 13.5 13.0039 13.2203 13.2695 12.7993L16.5 12.7993C16.9142 12.7993 17.25 12.4635 17.25 12.0493C17.25 11.6351 16.9142 11.2993 16.5 11.2993Z" fill="#00313E"/>
</svg>
