<svg width="24" height="24" viewBox="0 0 24 24" fill="none" xmlns="http://www.w3.org/2000/svg">
<path d="M9.41887 21H13.3375M13.3375 21H17.2561M13.3375 21V18.0805M17.4619 16.9085C17.3942 16.9503 17.3256 16.9912 17.2562 17.0312C13.5081 19.1912 8.71541 17.9094 6.55143 14.1681C4.38745 10.4268 5.67074 5.64285 9.41886 3.48283M17.4619 16.9085L15.9538 14.3909M17.4619 16.9085C17.8283 16.6791 18.1756 16.4198 18.5 16.1341M9.41886 3.48283L10.9277 6.00013M9.41886 3.48283C9.89267 3.21055 10.504 3 10.504 3" stroke="#00313E" stroke-width="1.5" stroke-linecap="round" stroke-linejoin="round"/>
<path d="M18.9805 10.255C18.9805 12.2569 17.9347 14.0145 16.3597 15.0114C15.4905 15.5615 14.4602 15.88 13.3555 15.88C10.2489 15.88 7.73047 13.3616 7.73047 10.255C7.73047 8.15472 8.88155 6.32329 10.5873 5.35717C11.323 4.94046 12.1619 4.68472 13.0561 4.63783C13.1552 4.63264 13.255 4.63 13.3555 4.63C16.4621 4.63 18.9805 7.1484 18.9805 10.255Z" fill="#00313E"/>
</svg>
