<svg width="24" height="24" viewBox="0 0 24 24" fill="none" xmlns="http://www.w3.org/2000/svg">
<path d="M2.53304 15.9281C3.7062 13.0963 6.46957 11.25 9.53473 11.25H12.4575C15.5226 11.25 18.286 13.0963 19.4592 15.9281V15.9281C20.6077 18.7004 18.5701 21.75 15.5693 21.75H6.42287C3.42206 21.75 1.38451 18.7004 2.53304 15.9281V15.9281Z" fill="#00313E"/>
<path d="M7.25098 6C7.25098 3.92893 8.92991 2.25 11.001 2.25C13.072 2.25 14.751 3.92893 14.751 6C14.751 8.07107 13.072 9.75 11.001 9.75C8.92991 9.75 7.25098 8.07107 7.25098 6Z" fill="#00313E"/>
<path d="M17 4.50352C17.4705 4.91964 17.75 5.4395 17.7501 6.00337C17.7503 6.56725 17.4709 7.08699 17.0006 7.50293M19.7086 3C20.3748 3.90386 20.75 4.92428 20.7502 6.00422C20.7504 7.08097 20.3779 8.09839 19.7156 9" stroke="#00313E" stroke-width="1.5" stroke-linecap="round" stroke-linejoin="round"/>
</svg>
