<svg width="24" height="24" viewBox="0 0 24 24" fill="none" xmlns="http://www.w3.org/2000/svg">
<path fill-rule="evenodd" clip-rule="evenodd" d="M19.9333 13.75C20.8361 12.3369 21.5029 10.8036 21.6898 9.21817C22.4088 2.79753 15.5095 0.817526 12.0095 4.82053C8.50977 0.819547 1.60939 2.7997 2.30923 9.21853C2.45672 10.8038 3.10375 12.337 3.99914 13.75H3C2.58579 13.75 2.25 14.0858 2.25 14.5C2.25 14.9142 2.58579 15.25 3 15.25H4.57369L4.6532 15.2502H4.65321C4.78702 15.2505 4.92501 15.2509 5.06354 15.2419C7.2078 17.9486 10.0154 20.0423 11.3033 20.9312C11.586 21.1264 11.7274 21.224 11.9123 21.2458C11.968 21.2524 12.0387 21.2521 12.0943 21.245C12.279 21.2217 12.4196 21.1229 12.7007 20.9254C13.9725 20.0318 16.7358 17.9364 18.8751 15.2298C19.0664 15.2514 19.2594 15.2508 19.4452 15.2502L19.5339 15.25H21C21.4142 15.25 21.75 14.9142 21.75 14.5C21.75 14.0858 21.4142 13.75 21 13.75H19.9333ZM19.9333 13.75H19.5339C19.2986 13.75 19.1651 13.7495 19.0652 13.7416C19.0047 13.7368 18.9799 13.7307 18.9731 13.7286C18.9572 13.7215 18.9421 13.7128 18.928 13.7026L15.2253 10.4181C15.2243 10.4166 15.2232 10.4151 15.2222 10.4136L18.8703 13.6296C18.8132 13.5473 18.7454 13.4322 18.6269 13.2291L17.1008 10.6129L17.0782 10.5742C16.8103 10.1149 16.5757 9.71257 16.3524 9.41763C16.1208 9.11185 15.8106 8.79459 15.3467 8.68474C15.1159 8.6301 14.8765 8.62292 14.6429 8.66364C14.1732 8.74551 13.8445 9.04363 13.5951 9.33498C13.3545 9.61602 13.0962 10.0035 12.8013 10.446L12.7764 10.4833L11.6758 12.1342C11.4074 12.5368 11.2409 12.7845 11.1009 12.9501C11.0185 13.0476 10.974 13.0808 10.9597 13.0898C10.9305 13.0969 10.9002 13.0988 10.8703 13.0952C10.855 13.0879 10.8068 13.0603 10.7134 12.9735C10.5544 12.8259 10.3593 12.6001 10.0444 12.2327L10.0189 12.2029C9.74667 11.8853 9.50241 11.6003 9.27861 11.3921C9.04039 11.1705 8.74371 10.9558 8.34972 10.8924C8.1142 10.8545 7.87341 10.8651 7.64215 10.9237C7.2553 11.0216 6.97872 11.2617 6.76099 11.5034C6.55643 11.7305 6.33829 12.036 6.09518 12.3764L6.07235 12.4084L5.42811 13.3103C5.30494 13.4827 5.23508 13.5798 5.17765 13.649C5.13487 13.7005 5.1187 13.7119 5.11885 13.7115C5.11888 13.7115 5.1194 13.711 5.12036 13.7104C5.10701 13.719 5.09289 13.7263 5.07816 13.7321C5.08531 13.7293 5.07328 13.7373 4.99484 13.743C4.90516 13.7495 4.7856 13.75 4.57369 13.75H3.99914C4.32507 14.2643 4.68391 14.7628 5.06354 15.2419C5.25625 15.2295 5.44998 15.1989 5.63485 15.125C5.7379 15.0838 5.83681 15.0329 5.93022 14.973C6.21826 14.7883 6.41737 14.5078 6.60262 14.2469L6.64871 14.1822L7.29295 13.2802C7.56616 12.8977 7.73491 12.6634 7.87555 12.5073C7.95826 12.4155 8.00225 12.3846 8.01634 12.3764C8.04549 12.3698 8.07558 12.3684 8.1052 12.3724C8.11997 12.3794 8.16651 12.4063 8.257 12.4904C8.41088 12.6336 8.59965 12.852 8.90555 13.2089L8.93153 13.2392L8.93155 13.2393C9.21221 13.5667 9.46321 13.8596 9.69262 14.0727C9.93596 14.2987 10.2401 14.5183 10.6437 14.5781C10.8839 14.6136 11.1289 14.5989 11.3631 14.5346C11.7566 14.4267 12.0321 14.1721 12.2465 13.9185C12.4486 13.6793 12.6625 13.3584 12.9017 12.9995L12.9239 12.9663L14.0245 11.3153C14.3517 10.8245 14.56 10.5144 14.7346 10.3105C14.8369 10.191 14.8928 10.1508 14.9115 10.1397L15.2253 10.4181C15.3728 10.6295 15.5489 10.9295 15.8051 11.3687L17.3312 13.9849L17.3757 14.0615L17.3757 14.0616C17.5534 14.3683 17.7444 14.6981 18.0496 14.9185C18.1483 14.9898 18.2541 15.0507 18.3654 15.1C18.5292 15.1725 18.7014 15.2103 18.8751 15.2298C19.2509 14.7544 19.6075 14.26 19.9333 13.75ZM14.9115 10.1397C14.9377 10.1363 14.9642 10.1371 14.9901 10.142C15.0081 10.1543 15.0615 10.1977 15.1565 10.3231C15.1779 10.3513 15.1997 10.3814 15.2222 10.4136L14.9115 10.1397ZM10.9553 13.0921C10.9547 13.0924 10.9544 13.0926 10.9544 13.0926C10.9544 13.0927 10.9547 13.0926 10.9551 13.0924C10.9557 13.0921 10.9565 13.0917 10.9578 13.0909C10.9567 13.0914 10.9559 13.0918 10.9553 13.0921ZM10.8759 13.0974C10.8759 13.0975 10.8748 13.0971 10.8724 13.0961C10.8746 13.0967 10.8758 13.0973 10.8759 13.0974ZM8.02145 12.3738C8.02142 12.3739 8.02026 12.3745 8.01804 12.3754C8.02036 12.3741 8.02147 12.3737 8.02145 12.3738ZM8.10342 12.3716C8.101 12.3705 8.09986 12.3702 8.09989 12.3703C8.09991 12.3704 8.10053 12.3707 8.10171 12.3711C8.10219 12.3712 8.10276 12.3714 8.10342 12.3716ZM14.9864 10.1396C14.9842 10.1383 14.9831 10.1378 14.9831 10.1379C14.9831 10.138 14.9836 10.1382 14.9844 10.1387C14.9849 10.1389 14.9856 10.1393 14.9864 10.1396ZM18.929 13.7036C18.9295 13.704 18.9298 13.7041 18.9297 13.7041L18.928 13.7027C18.9284 13.7031 18.9288 13.7034 18.929 13.7036ZM14.917 10.1367C14.9165 10.1369 14.916 10.1372 14.9154 10.1375C14.9176 10.1367 14.9187 10.1361 14.9187 10.136C14.9187 10.1359 14.9182 10.1361 14.917 10.1367Z" fill="#00313E"/>
</svg>
