<svg width="24" height="24" viewBox="0 0 24 24" fill="none" xmlns="http://www.w3.org/2000/svg">
<path d="M10 17.75V17.75C9.63711 18.7177 10.3525 19.75 11.386 19.75H18.0397C18.5872 19.75 18.8609 19.75 19.0645 19.7162C20.4518 19.4855 21.376 18.1564 21.1091 16.7756C21.07 16.573 20.9747 16.3164 20.784 15.8031V15.8031C20.6253 15.3759 20.546 15.1623 20.4537 14.9759C19.8451 13.7459 18.6484 12.9139 17.2836 12.7716C17.0767 12.75 16.8488 12.75 16.3931 12.75H14.6075C14.3945 12.75 14.288 12.75 14.1821 12.7556C13.9157 12.7697 13.6513 12.8105 13.393 12.8773C13.2904 12.9038 13.1889 12.9358 12.9857 13V13" stroke="#00313E" stroke-width="1.5" stroke-linejoin="round"/>
<path d="M13.0996 8.25C13.0996 6.73122 14.3308 5.5 15.8496 5.5C17.3684 5.5 18.5996 6.73122 18.5996 8.25C18.5996 9.76878 17.3684 11 15.8496 11C14.3308 11 13.0996 9.76878 13.0996 8.25Z" fill="#00313E"/>
<path d="M5.6 6.25C5.6 4.73122 6.83122 3.5 8.35 3.5C9.86878 3.5 11.1 4.73122 11.1 6.25C11.1 7.76878 9.86878 9 8.35 9C6.83122 9 5.6 7.76878 5.6 6.25Z" fill="#00313E"/>
<path d="M14.0948 14.2194C13.9645 13.6034 13.8994 13.2953 13.8081 13.031C13.248 11.4092 11.8144 10.2471 10.1119 10.0346C9.83431 10 9.51946 10 8.88976 10H7.73587C7.08569 10 6.7606 10 6.46821 10.0385C4.96381 10.2365 3.66052 11.1794 3.00174 12.5463C2.87371 12.812 2.77199 13.1207 2.56857 13.7383V13.7383C2.32585 14.4751 2.20449 14.8435 2.16869 15.1384C1.9797 16.6948 3.02108 18.1343 4.55849 18.4417C4.84977 18.5 5.23765 18.5 6.01343 18.5H10.6248C11.2369 18.5 11.543 18.5 11.7835 18.4607C13.2862 18.2149 14.3665 16.8823 14.296 15.3613C14.2848 15.1178 14.2214 14.8183 14.0948 14.2194V14.2194Z" fill="#00313E"/>
</svg>
