<svg width="24" height="24" viewBox="0 0 24 24" fill="none" xmlns="http://www.w3.org/2000/svg">
<path fill-rule="evenodd" clip-rule="evenodd" d="M12 21.75C17.3848 21.75 21.75 17.3848 21.75 12C21.75 6.61522 17.3848 2.25 12 2.25C6.61522 2.25 2.25 6.61522 2.25 12C2.25 17.3848 6.61522 21.75 12 21.75ZM10.0303 8.96967C9.73744 8.67678 9.26256 8.67678 8.96967 8.96967C8.67678 9.26256 8.67678 9.73744 8.96967 10.0303L10.9393 12L8.96967 13.9697C8.67678 14.2626 8.67678 14.7374 8.96967 15.0303C9.26256 15.3232 9.73744 15.3232 10.0303 15.0303L12 13.0607L13.9697 15.0303C14.2626 15.3232 14.7374 15.3232 15.0303 15.0303C15.3232 14.7374 15.3232 14.2626 15.0303 13.9697L13.0607 12L15.0303 10.0303C15.3232 9.73744 15.3232 9.26256 15.0303 8.96967C14.7374 8.67678 14.2626 8.67678 13.9697 8.96967L12 10.9393L10.0303 8.96967Z" fill="#FF0000"/>
</svg>
