<svg width="24" height="24" viewBox="0 0 24 24" fill="none" xmlns="http://www.w3.org/2000/svg">
<path d="M9.71428 21.75H14.2857C16.818 21.75 18.0842 21.75 19.0609 21.2796C20.0305 20.8127 20.8127 20.0305 21.2796 19.0609C21.75 18.0842 21.75 16.818 21.75 14.2857C21.75 14.0192 21.75 13.8859 21.7005 13.7831C21.6513 13.681 21.569 13.5987 21.4669 13.5495C21.3641 13.5 21.2308 13.5 20.9643 13.5H3.03571C2.76916 13.5 2.63588 13.5 2.53306 13.5495C2.431 13.5987 2.34866 13.681 2.29952 13.7831C2.25 13.8859 2.25 14.0192 2.25 14.2857C2.25 16.818 2.25 18.0842 2.7204 19.0609C3.18729 20.0305 3.96954 20.8127 4.93905 21.2796C5.91584 21.75 7.18199 21.75 9.71428 21.75Z" fill="#00313E"/>
<path d="M8 7V7C8 4.79086 9.79086 3 12 3V3C14.2091 3 16 4.79086 16 7V7" stroke="#00313E" stroke-width="1.5" stroke-linejoin="round"/>
<path fill-rule="evenodd" clip-rule="evenodd" d="M7.45238 6.25H16.5476C16.9677 6.25 17.1777 6.25 17.355 6.26328C19.6984 6.43889 21.5611 8.30165 21.7367 10.645C21.75 10.8223 21.75 11.0323 21.75 11.4524C21.75 11.4966 21.75 11.5187 21.7486 11.5374C21.7301 11.784 21.534 11.9801 21.2874 11.9986C21.2687 12 21.2466 12 21.2024 12H2.79762C2.7534 12 2.73129 12 2.71263 11.9986C2.46596 11.9801 2.26988 11.784 2.2514 11.5374C2.25 11.5187 2.25 11.4966 2.25 11.4524C2.25 11.0323 2.25 10.8223 2.26328 10.645C2.43889 8.30165 4.30165 6.43889 6.64503 6.26328C6.82227 6.25 7.03231 6.25 7.45238 6.25ZM10 8.62891C9.58579 8.62891 9.25 8.96469 9.25 9.37891C9.25 9.79312 9.58579 10.1289 10 10.1289H14C14.4142 10.1289 14.75 9.79312 14.75 9.37891C14.75 8.96469 14.4142 8.62891 14 8.62891H10Z" fill="#00313E"/>
</svg>
