<svg width="24" height="24" viewBox="0 0 24 24" fill="none" xmlns="http://www.w3.org/2000/svg">
<path d="M2.47802 7.91553C2.25 8.79884 2.25 9.94652 2.25 12.0001C2.25 14.3277 2.25 15.4915 2.582 16.4257C3.16141 18.056 4.44414 19.3387 6.07444 19.9181C7.0086 20.2501 8.1724 20.2501 10.5 20.2501H13.5C15.8276 20.2501 16.9914 20.2501 17.9256 19.9181C19.5559 19.3387 20.8386 18.056 21.418 16.4257C21.75 15.4915 21.75 14.3277 21.75 12.0001C21.75 9.94654 21.75 8.79886 21.522 7.91555L17.754 10.6921C16.6402 11.5128 15.7625 12.1596 15.002 12.6179C14.2228 13.0875 13.5145 13.3927 12.7288 13.493C12.2452 13.5548 11.7557 13.5548 11.2721 13.4931C10.4864 13.3928 9.77801 13.0876 8.99883 12.6181C8.23833 12.1598 7.36057 11.513 6.24672 10.6923L2.47802 7.91553Z" fill="#00313E"/>
<path fill-rule="evenodd" clip-rule="evenodd" d="M16.0755 3.78277C15.4047 3.75 14.5776 3.75 13.5019 3.75H10.5019C8.1743 3.75 7.0105 3.75 6.07634 4.082C4.82271 4.52754 3.7746 5.38895 3.09375 6.50448L7.10835 9.46247C8.25881 10.3101 9.08106 10.915 9.77494 11.3332C10.457 11.7442 10.9621 11.941 11.464 12.005C11.8214 12.0507 12.1832 12.0507 12.5406 12.005C13.0425 11.9409 13.5476 11.7441 14.2296 11.3331C14.9235 10.9149 15.7457 10.31 16.8961 9.46225L18.9412 7.95532C17.2748 7.68695 16.002 6.24211 16.002 4.5C16.002 4.25418 16.0273 4.01428 16.0755 3.78277Z" fill="#00313E"/>
<path d="M21.5 4.5C21.5 5.60457 20.6046 6.5 19.5 6.5C18.3954 6.5 17.5 5.60457 17.5 4.5C17.5 3.39543 18.3954 2.5 19.5 2.5C20.6046 2.5 21.5 3.39543 21.5 4.5Z" fill="#00313E"/>
</svg>
