<svg width="135" height="38" viewBox="0 0 135 38" fill="none" xmlns="http://www.w3.org/2000/svg">
<g clip-path="url(#clip0_515_4848)">
<path d="M30.5677 18.5415C30.5677 26.1141 26.8502 32.7688 21.1133 36.8994C30.1087 35.6143 37.0388 27.8581 37.0388 18.5415C37.0388 9.17896 30.1087 1.46865 21.1133 0.183594C26.8043 4.26822 30.5677 10.9689 30.5677 18.5415Z" fill="#00313E"/>
<path d="M12.9414 36.165C14.2264 36.5781 15.5115 36.8535 16.8883 36.9453C21.8909 32.3558 25.0117 25.7928 25.0117 18.4956C25.0117 11.1983 21.845 4.63537 16.8883 0.0917969C15.5115 0.229481 14.1805 0.504849 12.9414 0.872006C17.1637 5.50737 19.7338 11.7032 19.7338 18.5415C19.7338 25.3798 17.1637 31.5297 12.9414 36.165Z" fill="#00313E"/>
<path d="M0 18.5412C-2.789e-07 24.9206 3.21263 30.5657 8.16926 33.8701C12.2539 30.0149 14.824 24.5534 14.824 18.5412C14.824 12.4831 12.2539 7.02166 8.16926 3.2124C3.21263 6.51682 2.808e-07 12.116 0 18.5412Z" fill="#00313E"/>
<mask id="mask0_515_4848" style="mask-type:luminance" maskUnits="userSpaceOnUse" x="48" y="0" width="87" height="38">
<path d="M134.815 0H48.1484V37.037H134.815V0Z" fill="white"/>
</mask>
<g mask="url(#mask0_515_4848)">
<path d="M57.3556 12.1384C54.026 12.1384 52.1201 14.5495 52.1201 18.1777C52.1201 21.9206 54.2786 23.9643 57.3786 23.9643C60.2949 23.9643 62.063 22.3569 62.063 19.6703V19.6014H56.9882V17.0066H64.7956V26.4443H62.3156L62.1319 24.5154C61.2134 25.8014 59.3075 26.6969 57.0342 26.6969C52.3268 26.6969 49.043 23.2754 49.043 18.1088C49.043 13.011 52.3727 9.38282 57.4245 9.38282C61.2593 9.38282 64.2216 11.6103 64.7038 15.0317H61.6038C61.0756 13.0569 59.3764 12.1384 57.3556 12.1384ZM74.6749 15.0547V17.6495H73.6416C71.6208 17.6495 70.3579 18.7288 70.3579 20.9332V26.4443H67.5564V15.1236H70.1971L70.3579 16.7769C70.8401 15.6517 71.9194 14.894 73.4349 14.894C73.8253 14.894 74.2157 14.9399 74.6749 15.0547ZM79.4982 26.7429C77.0871 26.7429 75.6175 25.3421 75.6175 23.2066C75.6175 21.1169 77.133 19.808 79.8197 19.6014L83.2182 19.3488V19.0962C83.2182 17.5577 82.2997 16.9377 80.876 16.9377C79.2227 16.9377 78.3041 17.6266 78.3041 18.8206H75.916C75.916 16.3636 77.9367 14.7562 81.0138 14.7562C84.0678 14.7562 85.9508 16.4095 85.9508 19.5554V26.4443H83.4938L83.2871 24.768C82.8049 25.9392 81.2664 26.7429 79.4982 26.7429ZM80.4167 24.6303C82.139 24.6303 83.2412 23.5969 83.2412 21.8517V21.2547L80.876 21.4384C79.1308 21.5992 78.4649 22.1732 78.4649 23.0917C78.4649 24.1251 79.1538 24.6303 80.4167 24.6303ZM88.703 31.7029V15.1006H91.2978L91.4815 16.8229C92.1704 15.514 93.663 14.7562 95.3852 14.7562C98.577 14.7562 100.689 17.0754 100.689 20.6347C100.689 24.171 98.7607 26.7429 95.3852 26.7429C93.6859 26.7429 92.2163 26.0769 91.5044 24.9288V31.7029H88.703ZM91.5274 20.7725C91.5274 22.8162 92.7904 24.2169 94.7193 24.2169C96.6941 24.2169 97.8652 22.7932 97.8652 20.7725C97.8652 18.7517 96.6941 17.3051 94.7193 17.3051C92.7904 17.3051 91.5274 18.7288 91.5274 20.7725ZM105.721 26.4443H102.92V9.35986H105.744V16.5703C106.456 15.468 107.788 14.7562 109.418 14.7562C112.22 14.7562 113.69 16.5243 113.69 19.4636V26.4443H110.888V20.1295C110.888 18.2236 109.947 17.3051 108.523 17.3051C106.755 17.3051 105.721 18.5451 105.721 20.2443V26.4443ZM115.776 20.7495C115.776 17.2132 118.325 14.7792 121.838 14.7792C125.352 14.7792 127.901 17.2132 127.901 20.7495C127.901 24.2858 125.352 26.7199 121.838 26.7199C118.325 26.7199 115.776 24.2858 115.776 20.7495ZM118.578 20.7495C118.578 22.8162 119.91 24.2169 121.838 24.2169C123.767 24.2169 125.099 22.8162 125.099 20.7495C125.099 18.6829 123.767 17.2821 121.838 17.2821C119.91 17.2821 118.578 18.6829 118.578 20.7495Z" fill="#00313E"/>
</g>
</g>
<defs>
<clipPath id="clip0_515_4848">
<rect width="135" height="38" fill="white"/>
</clipPath>
</defs>
</svg>
