<svg width="150" height="40" viewBox="0 0 150 40" fill="none" xmlns="http://www.w3.org/2000/svg">
<path d="M4.03369 17.3904C6.08067 18.749 8.87037 19.1475 11.2434 19.1475C14.5585 19.1475 17.0583 18.4592 18.7792 17.0643C20.5001 15.6695 21.3516 13.8399 21.3516 11.5755C21.3516 8.94884 19.9748 6.50332 17.6018 5.30774C16.8409 4.92732 16.0439 4.61938 15.2106 4.42011C13.9969 4.13028 12.6745 3.98535 11.2253 3.98535C7.91028 3.98535 5.3923 4.69183 3.6895 6.06857C1.96859 7.46341 1.11719 9.29302 1.11719 11.5574C1.11719 12.8979 1.37079 14.0572 1.87801 15.0354C2.40334 16.0318 3.16417 16.8107 4.03369 17.3904ZM8.87037 6.37652C9.43193 5.39832 10.229 4.90922 11.2434 4.90922C12.2579 4.90922 13.0368 5.39832 13.6165 6.37652C14.178 7.35473 14.4679 9.09376 14.4679 11.5755C14.4679 14.0572 14.178 15.7963 13.6165 16.7745C13.0549 17.7527 12.2579 18.2418 11.2434 18.2418C10.229 18.2418 9.45004 17.7527 8.87037 16.7745C8.3088 15.7963 8.01897 14.0572 8.01897 11.5755C8.01897 9.09376 8.3088 7.35473 8.87037 6.37652Z" fill="#00313E"/>
<path d="M21.2445 23.2235C19.9402 21.883 18.1469 21.2308 15.8463 21.2308H7.11489C5.73816 21.2308 4.77807 21.0859 4.23462 20.8142C3.81797 20.5968 3.47379 20.2345 3.43756 19.7273C3.40133 19.3288 3.6006 19.0208 3.83609 18.7129C2.36878 18.5861 0.774671 19.4194 0.285568 20.8504C-0.366568 22.8068 0.194994 24.9625 1.82534 26.2306C3.05715 27.1725 4.8143 27.6616 7.11489 27.6616H15.8463C19.5236 27.6616 21.3713 28.658 21.3713 30.6506C21.3713 32.2085 20.5018 33.5309 18.7809 34.5815C16.8607 35.759 14.5782 36.3024 12.3501 36.4293C9.94081 36.5742 7.7308 36.1938 5.50266 35.3242C6.40841 34.654 6.96997 33.549 6.95185 32.4259C6.93374 31.3027 6.35406 30.1977 5.4302 29.5637C4.48823 28.9478 3.2383 28.821 2.20575 29.2739C1.51738 29.5818 0.937705 30.1253 0.539177 30.7774C0.158764 31.3933 -0.058615 32.136 0.0138446 32.8606C0.104419 33.6939 0.593522 34.4728 1.22754 35.0163C3.05715 36.6285 5.95553 37.0995 8.31047 37.3712C10.9552 37.6611 13.5276 37.4437 16.118 36.9002C18.2556 36.4474 20.3931 35.451 21.7698 33.6939C22.8205 32.3353 23.219 30.4694 23.219 28.7848C23.2009 26.4298 22.5488 24.564 21.2445 23.2235Z" fill="#00313E"/>
<path d="M25.086 9.49236C27.0169 9.49236 28.5822 7.92707 28.5822 5.99619C28.5822 4.0653 27.0169 2.5 25.086 2.5C23.1551 2.5 21.5898 4.0653 21.5898 5.99619C21.5898 7.92707 23.1551 9.49236 25.086 9.49236Z" fill="#00313E"/>
<path d="M44.6601 31.4305C42.5083 31.4305 40.6331 30.9694 39.0346 30.0471C37.4361 29.1249 36.2065 27.8441 35.3458 26.2046C34.485 24.5651 34.0547 22.6899 34.0547 20.5791C34.0547 18.1198 34.4748 16.0397 35.315 14.3388C36.1758 12.6378 37.3644 11.3569 38.8809 10.4962C40.3975 9.63544 42.1497 9.20507 44.1375 9.20507C45.4286 9.20507 46.6685 9.4305 47.8571 9.88136C48.1646 9.7379 48.6052 9.59445 49.179 9.45099C49.7733 9.30754 50.2344 9.22556 50.5623 9.20507C51.1566 10.7216 51.4538 13.0374 51.4538 16.1525H48.472C48.267 14.8409 47.7547 13.8264 46.9349 13.1091C46.1357 12.3919 45.1725 12.0332 44.0453 12.0332C42.6927 12.0332 41.6271 12.6173 40.8483 13.7854C40.0901 14.9331 39.7109 16.9312 39.7109 19.7798C39.7109 22.9359 40.0901 25.1697 40.8483 26.4813C41.6066 27.7928 42.7645 28.4486 44.322 28.4486C44.8958 28.4486 45.3774 28.3872 45.7668 28.2642C46.1562 28.1412 46.4841 27.9363 46.7505 27.6494V24.145C46.7505 23.6121 46.5148 23.233 46.0435 23.0076C45.5926 22.7617 44.8753 22.6387 43.8916 22.6387C43.8916 22.2698 43.9634 21.8394 44.1068 21.3476C44.2503 20.8557 44.4245 20.4971 44.6294 20.2717H51.2693C52.0686 20.2717 52.6219 20.5074 52.9293 20.9787C53.2367 21.4501 53.3904 21.9009 53.3904 22.3313C53.3904 22.5362 53.3392 22.7207 53.2367 22.8846C52.499 22.8846 51.9251 22.9666 51.5153 23.1305V26.6657C51.5153 27.3215 51.628 27.7826 51.8534 28.049C51.9969 28.1925 52.0686 28.3769 52.0686 28.6023C52.0686 28.9712 51.7304 29.3811 51.0542 29.832C50.3779 30.2828 49.4659 30.662 48.3183 30.9694C47.1911 31.2768 45.9717 31.4305 44.6601 31.4305ZM56.282 11.3262C56.282 10.8139 56.1283 10.4347 55.8208 10.1888C55.5339 9.92235 54.9909 9.78914 54.1916 9.78914V8.55952C54.9294 8.14965 55.8618 7.80125 56.989 7.51434C58.1161 7.22743 59.0281 7.08398 59.7249 7.08398C60.2167 7.08398 60.5651 7.18645 60.7701 7.39138C60.975 7.59632 61.0775 7.95496 61.0775 8.4673V27.6494C61.0775 28.2847 61.2004 28.7253 61.4464 28.9712C61.7128 29.2172 62.1534 29.3401 62.7682 29.3401C62.7682 29.9139 62.5223 30.4673 62.0304 31.0001H55.2983C54.8269 30.4878 54.5912 29.9344 54.5912 29.3401C55.1855 29.3401 55.6159 29.2172 55.8823 28.9712C56.1487 28.7048 56.282 28.2642 56.282 27.6494V11.3262ZM71.3859 9.26655C71.3859 10.1478 71.1092 10.8548 70.5559 11.3877C70.023 11.9 69.3057 12.1562 68.404 12.1562C67.5228 12.1562 66.8158 11.9 66.2829 11.3877C65.7706 10.8548 65.5144 10.1478 65.5144 9.26655C65.5144 8.40582 65.7808 7.70903 66.3137 7.1762C66.867 6.64336 67.5843 6.37695 68.4655 6.37695C69.3467 6.37695 70.0538 6.64336 70.5866 7.1762C71.1194 7.70903 71.3859 8.40582 71.3859 9.26655ZM70.8018 27.6801C70.8018 28.2744 70.9452 28.7048 71.2321 28.9712C71.5396 29.2172 72.0007 29.3401 72.6155 29.3401C72.6155 29.9754 72.3798 30.5287 71.9084 31.0001H64.9611C64.4897 30.5287 64.2541 29.9754 64.2541 29.3401C64.8689 29.3401 65.3095 29.2172 65.5759 28.9712C65.8628 28.7048 66.0063 28.2642 66.0063 27.6494V18.7347C66.0063 18.1608 65.8628 17.751 65.5759 17.505C65.3095 17.2591 64.7766 17.1361 63.9774 17.1361V15.7836C64.4692 15.4762 65.2992 15.1585 66.4674 14.8306C67.656 14.4822 68.6602 14.308 69.4799 14.308C69.9513 14.308 70.2894 14.4207 70.4944 14.6462C70.6993 14.8511 70.8018 15.2097 70.8018 15.7221V27.6801ZM98.8532 27.6801C98.8532 28.5614 99.3553 29.0942 100.359 29.2786V30.1701C99.5807 30.8464 98.3203 31.1845 96.5784 31.1845C95.7176 31.1845 95.0414 31.0718 94.5495 30.8464C94.0577 30.6005 93.8117 30.1804 93.8117 29.586V19.3495C93.8117 18.6937 93.6273 18.1916 93.2584 17.8432C92.91 17.4743 92.4387 17.2899 91.8443 17.2899C91.1066 17.2899 90.4713 17.5358 89.9384 18.0276C89.9589 18.1301 89.9692 18.2838 89.9692 18.4887V27.6801C89.9692 28.2744 90.0921 28.7048 90.3381 28.9712C90.584 29.2172 90.9734 29.3401 91.5062 29.3401C91.5062 29.9549 91.2603 30.5083 90.7684 31.0001H84.2207C83.7494 30.4878 83.5137 29.9344 83.5137 29.3401C84.026 29.3401 84.3949 29.2172 84.6203 28.9712C84.8458 28.7048 84.9585 28.2744 84.9585 27.6801V19.3495C84.9585 18.7142 84.774 18.2121 84.4052 17.8432C84.0363 17.4743 83.5752 17.2899 83.0218 17.2899C82.612 17.2899 82.2021 17.3923 81.7922 17.5973C81.3823 17.7817 81.0442 18.0379 80.7778 18.3658V27.6801C80.7778 28.2744 80.8802 28.7048 81.0852 28.9712C81.3106 29.2172 81.6795 29.3401 82.1918 29.3401C82.1918 29.9754 81.9459 30.5287 81.4541 31.0001H74.7834C74.2915 30.5083 74.0456 29.9549 74.0456 29.3401C74.6604 29.3401 75.101 29.2172 75.3675 28.9712C75.6339 28.7048 75.7671 28.2744 75.7671 27.6801V18.6732C75.7671 18.1198 75.6134 17.7305 75.306 17.505C74.9986 17.2591 74.4657 17.1361 73.7075 17.1361V15.7836C74.3633 15.3942 75.2855 15.0458 76.4741 14.7384C77.6832 14.431 78.5952 14.2773 79.21 14.2773C79.6609 14.2773 80.0093 14.4207 80.2552 14.7077C80.5216 14.9741 80.6958 15.4864 80.7778 16.2447C81.3106 15.6299 81.9869 15.1483 82.8067 14.7999C83.6264 14.4515 84.5384 14.2773 85.5426 14.2773C87.5919 14.2773 88.924 14.9638 89.5388 16.3369C90.0716 15.6811 90.7582 15.179 91.5984 14.8306C92.4592 14.4617 93.4121 14.2773 94.4573 14.2773C95.9123 14.2773 97.0087 14.6359 97.7465 15.3532C98.4843 16.0705 98.8532 17.1157 98.8532 18.4887V27.6801ZM109.22 31.3382C109.036 31.3382 108.636 31.3178 108.021 31.2768V33.5208C108.021 34.0741 108.216 34.4943 108.605 34.7812C109.015 35.0681 109.476 35.2115 109.989 35.2115C109.989 35.8264 109.753 36.3694 109.282 36.8408H102.488C101.996 36.3489 101.75 35.8059 101.75 35.2115C102.344 35.2115 102.734 35.0886 102.918 34.8427C103.103 34.5967 103.195 34.1561 103.195 33.5208V18.7961C103.195 18.2428 103.041 17.8534 102.734 17.628C102.426 17.3821 101.894 17.2591 101.135 17.2591V15.8758C101.791 15.4864 102.621 15.1483 103.625 14.8614C104.65 14.554 105.439 14.4002 105.992 14.4002C106.423 14.4002 106.771 14.4925 107.038 14.6769C107.304 14.8409 107.499 15.1585 107.622 15.6299C108.462 14.8101 109.702 14.4002 111.341 14.4002C112.468 14.4002 113.503 14.6872 114.446 15.261C115.389 15.8348 116.137 16.7058 116.69 17.8739C117.264 19.0216 117.551 20.4254 117.551 22.0854C117.551 23.9913 117.182 25.641 116.444 27.0346C115.706 28.4281 114.702 29.4938 113.432 30.2316C112.161 30.9694 110.757 31.3382 109.22 31.3382ZM112.233 22.8231C112.233 20.8353 111.925 19.3905 111.31 18.4887C110.696 17.587 109.886 17.1361 108.882 17.1361C108.554 17.1361 108.267 17.1976 108.021 17.3206V28.7868C108.37 28.9917 108.759 29.0942 109.189 29.0942C110.091 29.0942 110.819 28.5716 111.372 27.5264C111.946 26.4813 112.233 24.9135 112.233 22.8231ZM125.524 31.3075C124.519 31.3075 123.515 31.164 122.511 30.8771C121.527 30.5697 120.718 30.1394 120.083 29.586C119.447 29.0327 119.13 28.3769 119.13 27.6186C119.13 26.9014 119.335 26.3275 119.744 25.8972C120.154 25.4463 120.677 25.2209 121.312 25.2209C121.886 25.2209 122.368 25.4053 122.757 25.7742C123.167 26.1431 123.372 26.6247 123.372 27.219C123.372 27.4854 123.331 27.7211 123.249 27.9261C123.187 28.1105 123.064 28.3154 122.88 28.5409C123.044 28.7048 123.351 28.838 123.802 28.9405C124.253 29.0225 124.735 29.0635 125.247 29.0635C125.944 29.0635 126.487 28.9405 126.876 28.6946C127.286 28.4281 127.491 28.09 127.491 27.6801C127.491 27.1268 127.235 26.6554 126.722 26.2661C126.21 25.8562 125.39 25.3541 124.263 24.7598C123.116 24.145 122.245 23.6429 121.65 23.2535C121.056 22.8436 120.523 22.3005 120.052 21.6243C119.601 20.9275 119.376 20.077 119.376 19.0728C119.376 17.6792 119.949 16.5521 121.097 15.6913C122.245 14.8306 123.833 14.4002 125.862 14.4002C127.85 14.4002 129.325 14.7589 130.288 15.4762C131.272 16.1729 131.764 17.0132 131.764 17.9969C131.764 18.6117 131.559 19.1138 131.149 19.5032C130.76 19.8925 130.278 20.0872 129.704 20.0872C129.171 20.0872 128.71 19.9335 128.321 19.6261C127.952 19.2982 127.768 18.8781 127.768 18.3658C127.768 18.0994 127.809 17.8329 127.891 17.5665C127.973 17.2796 128.085 17.0439 128.229 16.8595C127.819 16.5316 127.204 16.3676 126.384 16.3676C125.729 16.3676 125.216 16.5213 124.847 16.8287C124.478 17.1361 124.294 17.5255 124.294 17.9969C124.294 18.6322 124.55 19.1548 125.062 19.5646C125.575 19.9745 126.395 20.4664 127.522 21.0402C128.587 21.5935 129.428 22.0751 130.042 22.485C130.657 22.8949 131.19 23.4379 131.641 24.1142C132.092 24.7905 132.317 25.6205 132.317 26.6042C132.317 28.2027 131.661 29.3913 130.35 30.1701C129.059 30.9284 127.45 31.3075 125.524 31.3075ZM142.849 27.8646C144.14 27.8646 145.339 27.4547 146.446 26.635C146.61 26.7989 146.753 27.0448 146.876 27.3727C146.999 27.7006 147.061 27.9875 147.061 28.2335C147.061 28.6023 146.815 29.0327 146.323 29.5246C145.831 29.9959 145.144 30.4058 144.263 30.7542C143.403 31.1026 142.429 31.2768 141.343 31.2768C139.826 31.2768 138.494 30.9489 137.347 30.2931C136.22 29.6373 135.349 28.6843 134.734 27.4342C134.119 26.1841 133.812 24.7086 133.812 23.0076C133.812 21.2656 134.139 19.7388 134.795 18.4272C135.471 17.1157 136.394 16.1115 137.562 15.4147C138.73 14.6974 140.052 14.3388 141.527 14.3388C143.392 14.3388 144.878 14.8818 145.985 15.968C147.091 17.0542 147.645 18.5605 147.645 20.4869C147.645 21.3886 147.501 22.1059 147.214 22.6387C146.927 23.151 146.415 23.4072 145.677 23.4072H139.037C139.16 26.3788 140.431 27.8646 142.849 27.8646ZM141.343 16.4599C140.708 16.4599 140.175 16.8185 139.744 17.5358C139.314 18.2326 139.078 19.4109 139.037 21.0709H142.142C142.47 21.0709 142.685 20.9582 142.788 20.7328C142.89 20.5074 142.941 20.159 142.941 19.6876C142.941 18.4785 142.798 17.6382 142.511 17.1669C142.224 16.6955 141.835 16.4599 141.343 16.4599Z" fill="#00313E"/>
</svg>
