<svg width="168" height="38" viewBox="0 0 168 38" fill="none" xmlns="http://www.w3.org/2000/svg">
<path d="M25.5172 5.88631C26.1309 5.27108 26.5105 4.42227 26.5105 3.48471C26.5105 1.60651 24.9879 0.0839844 23.1097 0.0839844C21.9224 0.0839844 20.8784 0.693401 20.2702 1.61557C20.1086 1.7775 1.43606 24.7898 1.3097 24.9815C0.696005 25.5968 0.316406 26.4456 0.316406 27.3831C0.316406 29.2613 1.83893 30.7838 3.71713 30.7838C4.90451 30.7838 5.94842 30.1744 6.55664 29.2522C6.71806 29.0901 25.3908 6.07783 25.5172 5.88631Z" fill="#00313E"/>
<path d="M29.6301 18.4159C30.2454 17.8005 30.6258 16.9505 30.6258 16.0116C30.6258 14.1334 29.1033 12.6108 27.2251 12.6108C26.0372 12.6108 24.993 13.221 24.3847 14.1438C24.2218 14.3068 11.5371 29.9954 11.4098 30.1886C10.7945 30.804 10.4141 31.654 10.4141 32.5929C10.4141 34.4711 11.9366 35.9937 13.8148 35.9937C15.0027 35.9937 16.0469 35.3837 16.6552 34.4607C16.8181 34.2977 29.5029 18.6091 29.6301 18.4159Z" fill="#00313E"/>
<path d="M36.939 8.93507C37.4029 7.11512 36.3036 5.2637 34.4836 4.79979C32.6637 4.33588 30.8123 5.43517 30.3484 7.25511C29.8845 9.07506 30.9837 10.9265 32.8037 11.3904C34.6236 11.8543 36.4751 10.755 36.939 8.93507Z" fill="#00313E"/>
<path d="M6.33738 11.2698C8.09272 10.6019 8.97428 8.63751 8.3064 6.88217C7.63853 5.12683 5.67412 4.24527 3.91879 4.91315C2.16345 5.58103 1.28189 7.54543 1.94977 9.30076C2.61765 11.0561 4.58205 11.9377 6.33738 11.2698Z" fill="#00313E"/>
<mask id="mask0_515_4875" style="mask-type:luminance" maskUnits="userSpaceOnUse" x="48" y="0" width="120" height="38">
<path d="M167.407 0H48.1484V37.037H167.407V0Z" fill="white"/>
</mask>
<g mask="url(#mask0_515_4875)">
<path d="M53.2559 27.1113L48.207 10.1395H49.9847L53.4218 21.8017C53.6588 22.6313 53.8721 23.4847 54.0855 24.5987C54.3699 23.3661 54.607 22.6313 54.8677 21.8017L58.5655 10.1395H60.3433L64.041 21.8017C64.3018 22.655 64.5388 23.5084 64.7996 24.5987C65.0603 23.295 65.2736 22.4654 65.4633 21.8254L68.9714 10.1395H70.7018L65.6055 27.1113H63.9936L59.4425 12.6995L54.8914 27.1113H53.2559ZM71.4646 27.1113H69.7342L75.9683 10.1395H78.0779L84.3831 27.1113H82.6053L80.946 22.6076H73.1238L71.4646 27.1113ZM76.7979 12.5336L73.6453 21.1143H80.4008L77.2246 12.5336C77.1534 12.2965 77.0349 12.0121 77.0112 11.8461C76.9875 11.9884 76.8927 12.2965 76.7979 12.5336ZM89.0568 20.0239L83.2968 10.1395H85.2168L89.4123 17.4639C89.602 17.8195 89.7442 18.1039 89.9101 18.4832C90.1234 18.0565 90.1234 18.0565 90.4316 17.4639L94.5797 10.1395H96.4523L90.7634 20.0239V27.1113H89.0568V20.0239ZM101.648 9.78394V24.3143H108.902V27.1113H98.614V9.78394H101.648ZM114.403 9.78394V27.1113H111.369V9.78394H114.403ZM121.231 27.1113H118.244V9.78394H121.254L129.385 22.0624V9.78394H132.371V27.1113H129.385L121.231 14.8328V27.1113ZM146.968 27.1113H136.207V9.78394H146.968V12.581H139.241V17.0373H146.163V19.7158H139.241V24.3143H146.968V27.1113Z" fill="#00313E"/>
</g>
</svg>
