<svg width="122" height="38" viewBox="0 0 122 38" fill="none" xmlns="http://www.w3.org/2000/svg">
<path fill-rule="evenodd" clip-rule="evenodd" d="M11.9969 1.18555C7.04471 3.06879 3.06898 7.04451 1.25549 11.9967C0.488247 14.0892 0.0697496 16.3212 0 18.4834C0 20.7154 0.418498 22.9474 1.18574 25.0399L18.4836 7.74201L11.9969 1.18555Z" fill="#00313E"/>
<path opacity="0.5" fill-rule="evenodd" clip-rule="evenodd" d="M18.4823 0C16.2503 0 14.0183 0.418498 11.9258 1.18574L18.4823 7.74221L29.2935 18.4836L35.7802 11.9272C33.8969 7.04471 29.9909 3.06898 25.0387 1.18574C22.9462 0.418498 20.7143 0 18.4823 0Z" fill="#00313E"/>
<path opacity="0.5" fill-rule="evenodd" clip-rule="evenodd" d="M7.74396 18.4839L1.1875 25.0403C3.07074 29.9926 6.97671 33.8985 11.9987 35.7818C14.0912 36.549 16.3231 36.9675 18.5551 36.9675C20.7871 36.9675 23.0191 36.549 25.1116 35.7818L18.4853 29.2951L7.74396 18.4839Z" fill="#00313E"/>
<path fill-rule="evenodd" clip-rule="evenodd" d="M35.7823 11.9971L29.2956 18.4838L18.4844 29.295L25.0408 35.8514C29.9931 33.8984 33.899 29.9925 35.7823 25.0402C36.5495 22.9478 36.968 20.7158 36.968 18.4838C37.0378 16.2518 36.6193 14.0896 35.7823 11.9971Z" fill="#00313E"/>
<mask id="mask0_515_4885" style="mask-type:luminance" maskUnits="userSpaceOnUse" x="48" y="0" width="74" height="38">
<path d="M121.482 0H48.1484V37.037H121.482V0Z" fill="white"/>
</mask>
<g mask="url(#mask0_515_4885)">
<path d="M51.4429 23.3712H54.2444C54.9639 23.3712 55.6299 23.2487 56.2422 23.0038C56.8699 22.7435 57.4133 22.3838 57.8726 21.9245C58.3471 21.4652 58.7069 20.9294 58.9518 20.3171C59.2121 19.7048 59.3422 19.0388 59.3422 18.3193C59.3422 17.5998 59.2121 16.9339 58.9518 16.3215C58.6916 15.6939 58.3318 15.1504 57.8726 14.6912C57.4133 14.2319 56.8699 13.8722 56.2422 13.6119C55.6299 13.3517 54.9639 13.2215 54.2444 13.2215H51.4429V23.3712ZM48.1133 26.3334V10.2593H54.2904C55.4997 10.2593 56.6173 10.466 57.6429 10.8793C58.6686 11.2773 59.5642 11.8438 60.3296 12.5786C61.095 13.3134 61.6921 14.1707 62.1207 15.1504C62.5647 16.1302 62.7866 17.1865 62.7866 18.3193C62.7866 19.4675 62.5723 20.5238 62.1437 21.4882C61.715 22.4527 61.1104 23.3023 60.3296 24.0371C59.5642 24.7566 58.6686 25.323 57.6429 25.7364C56.6173 26.1344 55.4997 26.3334 54.2904 26.3334H48.1133ZM70.7153 26.563C69.5213 26.563 68.4343 26.2875 67.4546 25.7364C66.4901 25.1852 65.7247 24.4428 65.1583 23.509C64.5919 22.5751 64.3087 21.5265 64.3087 20.363C64.3087 19.1996 64.5766 18.1509 65.1124 17.2171C65.6635 16.2833 66.4059 15.5408 67.3398 14.9897C68.2736 14.4386 69.3146 14.163 70.4627 14.163C71.6109 14.163 72.6289 14.4462 73.5168 15.0127C74.4047 15.5791 75.1013 16.3445 75.6064 17.309C76.1269 18.2734 76.3872 19.368 76.3872 20.5927V21.4193H67.5235C67.6613 21.8939 67.8832 22.3225 68.1894 22.7052C68.5109 23.088 68.9013 23.3865 69.3605 23.6008C69.8351 23.8151 70.3403 23.9223 70.8761 23.9223C71.4119 23.9223 71.9017 23.8381 72.3457 23.6697C72.805 23.5013 73.1953 23.264 73.5168 22.9578L75.5835 24.8408C74.8487 25.4378 74.0909 25.8741 73.3101 26.1497C72.5447 26.4252 71.6798 26.563 70.7153 26.563ZM67.4776 19.169H73.2872C73.18 18.6944 72.981 18.281 72.6901 17.929C72.4146 17.5615 72.0778 17.2783 71.6798 17.0793C71.2971 16.865 70.8684 16.7578 70.3938 16.7578C69.904 16.7578 69.46 16.8573 69.062 17.0564C68.664 17.2554 68.3272 17.5386 68.0516 17.906C67.7914 18.2581 67.6 18.6791 67.4776 19.169ZM76.1317 26.3334L80.7243 20.2482L76.2465 14.3697H79.8976L82.5384 17.929L85.1562 14.3697H88.6925L84.2836 20.2023L88.968 26.3334H85.2939L82.4695 22.5215L79.6451 26.3334H76.1317ZM90.1549 26.3334V14.3697H93.3008V26.3334H90.1549ZM91.7164 12.946C91.2265 12.946 90.8055 12.7699 90.4534 12.4178C90.1013 12.0657 89.9253 11.6448 89.9253 11.1549C89.9253 10.6497 90.1013 10.2287 90.4534 9.89191C90.8055 9.53982 91.2265 9.36377 91.7164 9.36377C92.2216 9.36377 92.6426 9.53982 92.9794 9.89191C93.3315 10.2287 93.5075 10.6497 93.5075 11.1549C93.5075 11.6448 93.3315 12.0657 92.9794 12.4178C92.6426 12.7699 92.2216 12.946 91.7164 12.946ZM101.778 31.2475C100.859 31.2475 99.971 31.148 99.1137 30.949C98.2564 30.7652 97.4833 30.4973 96.7944 30.1452L97.8967 27.7112C98.5549 28.0327 99.1979 28.2699 99.8256 28.423C100.453 28.5761 101.081 28.6527 101.709 28.6527C102.642 28.6527 103.347 28.4536 103.821 28.0556C104.311 27.6576 104.556 27.0606 104.556 26.2645V25.323C103.576 26.0425 102.482 26.4023 101.272 26.4023C100.139 26.4023 99.1137 26.1344 98.1952 25.5986C97.292 25.0475 96.5648 24.305 96.0137 23.3712C95.4779 22.4373 95.21 21.404 95.21 20.2712C95.21 19.1383 95.4779 18.1127 96.0137 17.1941C96.5648 16.2756 97.3073 15.5485 98.2411 15.0127C99.1749 14.4615 100.216 14.186 101.364 14.186C101.946 14.186 102.512 14.2702 103.063 14.4386C103.615 14.607 104.127 14.8443 104.602 15.1504V14.3697H107.702V26.3104C107.702 27.8872 107.189 29.1043 106.163 29.9615C105.153 30.8188 103.691 31.2475 101.778 31.2475ZM101.755 23.7386C102.336 23.7386 102.864 23.6467 103.339 23.463C103.814 23.264 104.219 22.9885 104.556 22.6364V17.9519C104.219 17.6151 103.806 17.3549 103.316 17.1712C102.841 16.9722 102.329 16.8727 101.778 16.8727C101.119 16.8727 100.53 17.0257 100.009 17.3319C99.4888 17.6228 99.0754 18.0285 98.7693 18.549C98.4631 19.0541 98.31 19.6282 98.31 20.2712C98.31 20.9294 98.4554 21.5188 98.7463 22.0393C99.0525 22.5598 99.4658 22.9731 99.9863 23.2793C100.522 23.5855 101.112 23.7386 101.755 23.7386ZM110.158 26.3334V14.3697H113.304V15.3571C114.207 14.5457 115.325 14.1401 116.656 14.1401C117.59 14.1401 118.409 14.3467 119.113 14.7601C119.833 15.1581 120.392 15.7169 120.79 16.4364C121.188 17.1406 121.387 17.9672 121.387 18.9164V26.3334H118.241V19.3756C118.241 18.5949 118.019 17.9825 117.575 17.5386C117.131 17.0793 116.526 16.8497 115.761 16.8497C115.225 16.8497 114.751 16.9569 114.337 17.1712C113.924 17.3702 113.579 17.6611 113.304 18.0438V26.3334H110.158Z" fill="#00313E"/>
<path d="M99.2845 13.6647C99.2845 13.5988 99.2743 13.5398 99.2541 13.4874C99.2355 13.4334 99.2001 13.3845 99.1478 13.3406C99.0954 13.295 99.022 13.2503 98.9275 13.2064C98.833 13.1625 98.7106 13.1169 98.5604 13.0697C98.3933 13.0157 98.2346 12.9549 98.0844 12.8874C97.9359 12.8199 97.8042 12.7414 97.6894 12.6519C97.5763 12.5608 97.4869 12.4553 97.421 12.3355C97.3569 12.2156 97.3248 12.0764 97.3248 11.9177C97.3248 11.7641 97.3586 11.6249 97.4261 11.5C97.4936 11.3734 97.5881 11.2653 97.7097 11.1759C97.8312 11.0847 97.9747 11.0147 98.1401 10.9657C98.3072 10.9168 98.4903 10.8923 98.6895 10.8923C98.9612 10.8923 99.1984 10.9413 99.4009 11.0392C99.6035 11.1371 99.7605 11.2712 99.8719 11.4417C99.9849 11.6122 100.041 11.8071 100.041 12.0266H99.287C99.287 11.9186 99.2642 11.824 99.2186 11.743C99.1748 11.6603 99.1072 11.5953 99.0161 11.5481C98.9266 11.5008 98.8136 11.4772 98.6768 11.4772C98.5452 11.4772 98.4355 11.4974 98.3477 11.5379C98.2599 11.5768 98.1941 11.6299 98.1502 11.6974C98.1063 11.7633 98.0844 11.8375 98.0844 11.9202C98.0844 11.9827 98.0996 12.0392 98.13 12.0899C98.162 12.1405 98.2093 12.1878 98.2717 12.2317C98.3342 12.2755 98.411 12.3169 98.5021 12.3557C98.5933 12.3945 98.6988 12.4325 98.8186 12.4696C99.0195 12.5304 99.1959 12.5988 99.3478 12.6747C99.5014 12.7507 99.6296 12.8359 99.7326 12.9304C99.8356 13.025 99.9132 13.1321 99.9655 13.252C100.018 13.3718 100.044 13.5077 100.044 13.6596C100.044 13.82 100.013 13.9634 99.9503 14.09C99.8879 14.2166 99.7976 14.3238 99.6794 14.4116C99.5613 14.4993 99.4203 14.566 99.2566 14.6116C99.0929 14.6571 98.9098 14.6799 98.7072 14.6799C98.5249 14.6799 98.3452 14.6563 98.1679 14.609C97.9907 14.5601 97.8295 14.4867 97.6844 14.3888C97.5409 14.2909 97.4261 14.166 97.34 14.0141C97.2539 13.8622 97.2109 13.6824 97.2109 13.4748H97.973C97.973 13.5896 97.9907 13.6866 98.0262 13.7659C98.0616 13.8453 98.1114 13.9094 98.1755 13.9584C98.2414 14.0073 98.319 14.0428 98.4085 14.0647C98.4996 14.0866 98.5992 14.0976 98.7072 14.0976C98.8389 14.0976 98.9469 14.079 99.0313 14.0419C99.1174 14.0048 99.1807 13.9533 99.2212 13.8875C99.2634 13.8216 99.2845 13.7474 99.2845 13.6647ZM103.298 10.943V14.6293H102.541V10.943H103.298ZM104.432 10.943V11.5379H101.424V10.943H104.432ZM107.989 10.943H108.746V13.3786C108.746 13.6621 108.685 13.901 108.564 14.0951C108.444 14.2892 108.278 14.4352 108.065 14.5331C107.854 14.631 107.611 14.6799 107.336 14.6799C107.061 14.6799 106.816 14.631 106.602 14.5331C106.389 14.4352 106.222 14.2892 106.1 14.0951C105.981 13.901 105.921 13.6621 105.921 13.3786V10.943H106.68V13.3786C106.68 13.544 106.706 13.679 106.759 13.7837C106.811 13.8883 106.886 13.9651 106.984 14.0141C107.084 14.063 107.201 14.0875 107.336 14.0875C107.474 14.0875 107.592 14.063 107.688 14.0141C107.786 13.9651 107.86 13.8883 107.911 13.7837C107.963 13.679 107.989 13.544 107.989 13.3786V10.943ZM111.592 14.6293H110.79L110.795 14.0368H111.592C111.791 14.0368 111.959 13.9921 112.096 13.9027C112.233 13.8115 112.336 13.679 112.405 13.5052C112.476 13.3313 112.511 13.1212 112.511 12.8747V12.695C112.511 12.5059 112.491 12.3397 112.45 12.1962C112.412 12.0527 112.353 11.9321 112.276 11.8342C112.198 11.7363 112.103 11.6628 111.99 11.6139C111.877 11.5633 111.747 11.5379 111.6 11.5379H110.774V10.943H111.6C111.846 10.943 112.072 10.9851 112.276 11.0695C112.482 11.1522 112.66 11.2712 112.81 11.4265C112.96 11.5818 113.076 11.7675 113.157 11.9835C113.24 12.1979 113.281 12.4367 113.281 12.7V12.8747C113.281 13.1364 113.24 13.3752 113.157 13.5912C113.076 13.8073 112.96 13.993 112.81 14.1482C112.661 14.3018 112.483 14.4208 112.276 14.5052C112.07 14.5879 111.842 14.6293 111.592 14.6293ZM111.22 10.943V14.6293H110.46V10.943H111.22ZM115.729 10.943V14.6293H114.972V10.943H115.729ZM120.558 12.7V12.8747C120.558 13.1549 120.52 13.4064 120.444 13.6292C120.368 13.852 120.261 14.0419 120.122 14.1989C119.984 14.3542 119.819 14.4732 119.626 14.5559C119.435 14.6386 119.224 14.6799 118.991 14.6799C118.759 14.6799 118.548 14.6386 118.355 14.5559C118.164 14.4732 117.999 14.3542 117.859 14.1989C117.719 14.0419 117.61 13.852 117.532 13.6292C117.456 13.4064 117.418 13.1549 117.418 12.8747V12.7C117.418 12.4182 117.456 12.1667 117.532 11.9456C117.608 11.7228 117.715 11.5329 117.854 11.3759C117.994 11.2189 118.159 11.0991 118.35 11.0164C118.542 10.9337 118.754 10.8923 118.986 10.8923C119.218 10.8923 119.43 10.9337 119.621 11.0164C119.813 11.0991 119.979 11.2189 120.117 11.3759C120.257 11.5329 120.365 11.7228 120.441 11.9456C120.519 12.1667 120.558 12.4182 120.558 12.7ZM119.791 12.8747V12.695C119.791 12.4992 119.773 12.327 119.737 12.1785C119.702 12.03 119.65 11.905 119.581 11.8038C119.511 11.7025 119.427 11.6265 119.327 11.5759C119.228 11.5236 119.114 11.4974 118.986 11.4974C118.857 11.4974 118.743 11.5236 118.644 11.5759C118.546 11.6265 118.462 11.7025 118.393 11.8038C118.326 11.905 118.274 12.03 118.239 12.1785C118.203 12.327 118.185 12.4992 118.185 12.695V12.8747C118.185 13.0688 118.203 13.241 118.239 13.3912C118.274 13.5398 118.326 13.6655 118.396 13.7685C118.465 13.8697 118.549 13.9465 118.649 13.9989C118.748 14.0512 118.862 14.0774 118.991 14.0774C119.119 14.0774 119.233 14.0512 119.332 13.9989C119.432 13.9465 119.516 13.8697 119.583 13.7685C119.651 13.6655 119.702 13.5398 119.737 13.3912C119.773 13.241 119.791 13.0688 119.791 12.8747Z" fill="#00313E"/>
</g>
</svg>
