<svg width="154" height="40" viewBox="0 0 154 40" fill="none" xmlns="http://www.w3.org/2000/svg">
<g clip-path="url(#clip0_515_4811)">
<path d="M6.80851 28.5141C6.80851 30.3864 5.2766 31.9184 3.40426 31.9184C1.53191 31.9184 9.93268e-07 30.3864 9.11425e-07 28.5141L0 3.66305C-8.185e-08 1.79071 1.53191 0.258789 3.40425 0.258789C5.27659 0.258789 6.80851 1.79071 6.80851 3.66305V28.5141Z" fill="#00313E"/>
<path d="M17.871 36.5956C17.871 38.468 16.3391 39.9999 14.4668 39.9999C12.5944 39.9999 11.0625 38.468 11.0625 36.5956V11.7446C11.0625 9.87224 12.5944 8.34033 14.4668 8.34033C16.3391 8.34033 17.871 9.87224 17.871 11.7446V36.5956Z" fill="#00313E"/>
<path d="M28.9374 28.5141C28.9374 30.3864 27.4055 31.9184 25.5331 31.9184C23.6608 31.9184 22.1289 30.3864 22.1289 28.5141V3.66305C22.1289 1.79071 23.6608 0.258789 25.5331 0.258789C27.4055 0.258789 28.9374 1.79071 28.9374 3.66305V28.5141Z" fill="#00313E"/>
<path d="M39.9999 36.5956C39.9999 38.468 38.468 40 36.5957 40C34.7233 40 33.1914 38.468 33.1914 36.5956V12.5447C33.1914 10.6723 34.7233 9.14038 36.5957 9.14038C38.468 9.14038 39.9999 10.6723 39.9999 12.5447V36.5956Z" fill="#00313E"/>
<mask id="mask0_515_4811" style="mask-type:luminance" maskUnits="userSpaceOnUse" x="52" y="0" width="102" height="40">
<path d="M153.6 0H52V40H153.6V0Z" fill="white"/>
</mask>
<g mask="url(#mask0_515_4811)">
<path d="M64.2328 24.9151V28.3999H52.168V9.91994H64.2328V13.4047H56.26V17.4967H63.1768V20.8231H56.26V24.9151H64.2328ZM71.2622 28.3999H67.2758V14.6455H70.6286L70.9454 16.5199C72.239 15.1207 73.7702 14.4079 75.6446 14.4079C77.3342 14.4079 78.4694 14.9095 79.1822 15.8599C79.3934 16.1239 79.5518 16.3879 79.6838 16.7047C81.0302 15.1471 82.5614 14.4079 84.4622 14.4079C86.2046 14.4079 87.3662 14.9095 88.079 15.8599C88.8182 16.8367 89.0294 17.9719 89.0294 20.7703V28.3999H85.0694V21.6679C85.0694 20.0839 84.9638 19.3975 84.5414 18.8431C84.0926 18.3151 83.4854 18.1039 82.535 18.1039C81.6638 18.1039 80.8982 18.3679 80.1062 19.0279C80.159 19.5295 80.159 20.0839 80.159 20.7703V28.3999H76.1726V21.6679C76.1726 20.0839 76.0934 19.3975 75.6446 18.8431C75.2222 18.3151 74.615 18.1039 73.7174 18.1039C72.7406 18.1039 71.843 18.4471 71.2622 19.0543V28.3999ZM98.7976 28.6111C97.768 28.6111 96.6592 28.4263 95.6032 28.0303L92.5672 28.3999V8.33594H96.5536V16.4407C97.5304 15.0943 98.8504 14.3815 100.645 14.3815C103.708 14.3815 105.767 16.6783 105.767 20.9815C105.767 25.8919 102.969 28.6111 98.7976 28.6111ZM96.5536 19.7143V25.0471C97.1608 25.3111 97.7416 25.4167 98.3488 25.4167C100.276 25.4167 101.622 24.1495 101.622 21.3775C101.622 19.0543 100.619 17.9191 99.1672 17.9191C98.0056 17.9191 97.1608 18.5527 96.5536 19.7143ZM112.28 28.3999H108.293V8.33594H112.28V28.3999ZM122.342 28.6111C117.326 28.6111 114.818 26.2879 114.818 21.4831C114.818 16.8895 117.934 14.3815 121.498 14.3815C125.273 14.3815 127.094 16.6519 127.094 20.6119C127.094 21.3511 127.042 22.0111 126.989 22.6711H118.884C119.28 24.7303 120.679 25.4431 123.24 25.4431C124.296 25.4431 125.378 25.3375 126.302 25.2055L126.118 28.3471C125.167 28.5055 123.874 28.6111 122.342 28.6111ZM121.392 17.3383C120.019 17.3383 119.016 18.3151 118.805 20.5063L123.319 20.2687C123.319 18.2623 122.712 17.3383 121.392 17.3383ZM133.756 28.3999H129.769V14.6455H133.122L133.439 16.5199C134.732 15.1207 136.264 14.4079 138.138 14.4079C139.828 14.4079 140.963 14.9095 141.676 15.8599C141.887 16.1239 142.045 16.3879 142.177 16.7047C143.524 15.1471 145.055 14.4079 146.956 14.4079C148.698 14.4079 149.86 14.9095 150.572 15.8599C151.312 16.8367 151.523 17.9719 151.523 20.7703V28.3999H147.563V21.6679C147.563 20.0839 147.457 19.3975 147.035 18.8431C146.586 18.3151 145.979 18.1039 145.028 18.1039C144.157 18.1039 143.392 18.3679 142.6 19.0279C142.652 19.5295 142.652 20.0839 142.652 20.7703V28.3999H138.666V21.6679C138.666 20.0839 138.587 19.3975 138.138 18.8431C137.716 18.3151 137.108 18.1039 136.211 18.1039C135.234 18.1039 134.336 18.4471 133.756 19.0543V28.3999Z" fill="#00313E"/>
</g>
</g>
<defs>
<clipPath id="clip0_515_4811">
<rect width="154" height="40" fill="white"/>
</clipPath>
</defs>
</svg>
