<svg width="139" height="38" viewBox="0 0 139 38" fill="none" xmlns="http://www.w3.org/2000/svg">
<path fill-rule="evenodd" clip-rule="evenodd" d="M27.17 37.037L37.037 0L0 9.86701L8.29427 18.1613L29.1723 7.86531L18.7333 28.6003L27.17 37.037Z" fill="#00313E"/>
<path opacity="0.5" fill-rule="evenodd" clip-rule="evenodd" d="M29.171 7.86523L18.732 28.6003H8.29297V18.1612L29.171 7.86523Z" fill="#00313E"/>
<mask id="mask0_515_4821" style="mask-type:luminance" maskUnits="userSpaceOnUse" x="44" y="0" width="95" height="38">
<path d="M138.519 0H44.4453V37.037H138.519V0Z" fill="white"/>
</mask>
<g mask="url(#mask0_515_4821)">
<path d="M52.83 26.7288C51.6765 26.7288 50.6019 26.5233 49.6063 26.1125C48.6266 25.6858 47.7653 25.1011 47.0226 24.3584C46.2799 23.6157 45.6952 22.7466 45.2686 21.751C44.8577 20.7396 44.6523 19.6493 44.6523 18.4799C44.6523 17.3263 44.8577 16.2596 45.2686 15.2799C45.6952 14.2843 46.2799 13.4152 47.0226 12.6725C47.7653 11.9298 48.6266 11.353 49.6063 10.9421C50.6019 10.5154 51.6765 10.3021 52.83 10.3021C53.9836 10.3021 55.0503 10.5154 56.03 10.9421C57.0098 11.353 57.871 11.9298 58.6137 12.6725C59.3565 13.4152 59.9332 14.2843 60.3441 15.2799C60.755 16.2596 60.9604 17.3263 60.9604 18.4799C60.9604 19.6493 60.755 20.7396 60.3441 21.751C59.9332 22.7466 59.3565 23.6157 58.6137 24.3584C57.871 25.1011 57.0098 25.6858 56.03 26.1125C55.0503 26.5233 53.9836 26.7288 52.83 26.7288ZM52.83 24.4295C53.6044 24.4295 54.3313 24.2794 55.0108 23.9792C55.7061 23.6631 56.3145 23.2364 56.836 22.6992C57.3574 22.1619 57.7604 21.5377 58.0449 20.8266C58.3293 20.0996 58.4715 19.3174 58.4715 18.4799C58.4715 17.6582 58.3293 16.8917 58.0449 16.1806C57.7604 15.4695 57.3574 14.8453 56.836 14.308C56.3145 13.7708 55.714 13.352 55.0345 13.0517C54.355 12.7515 53.6202 12.6014 52.83 12.6014C52.0399 12.6014 51.2972 12.7515 50.6019 13.0517C49.9066 13.352 49.2982 13.7708 48.7767 14.308C48.271 14.8453 47.8681 15.4695 47.5678 16.1806C47.2834 16.8917 47.1412 17.6582 47.1412 18.4799C47.1412 19.3174 47.2834 20.0996 47.5678 20.8266C47.8681 21.5377 48.271 22.1619 48.7767 22.6992C49.2982 23.2364 49.9066 23.6631 50.6019 23.9792C51.2972 24.2794 52.0399 24.4295 52.83 24.4295ZM65.9513 31.7777H63.6047V20.6132C63.6047 19.4596 63.8733 18.4246 64.4106 17.508C64.9637 16.5915 65.7064 15.8725 66.6387 15.351C67.5711 14.8137 68.622 14.5451 69.7913 14.5451C70.9607 14.5451 72.0116 14.8216 72.9439 15.3747C73.8763 15.912 74.6111 16.6468 75.1484 17.5792C75.6857 18.4957 75.9543 19.5071 75.9543 20.6132C75.9543 21.7826 75.6936 22.8335 75.1721 23.7658C74.6506 24.6824 73.9316 25.4093 73.015 25.9466C72.1143 26.468 71.0713 26.7288 69.8862 26.7288C68.9538 26.7288 68.0926 26.5075 67.3024 26.0651C66.5281 25.6226 65.9039 25.0458 65.4299 24.3347C64.9716 23.6078 64.7424 22.8177 64.7424 21.9643L65.9513 22.5806V31.7777ZM69.7913 24.5243C70.5182 24.5243 71.1662 24.3505 71.735 24.0029C72.3197 23.6394 72.778 23.1653 73.1099 22.5806C73.4417 21.9801 73.6076 21.3322 73.6076 20.6369C73.6076 19.9258 73.4417 19.2779 73.1099 18.6932C72.778 18.1085 72.3197 17.6424 71.735 17.2947C71.1662 16.9471 70.5182 16.7732 69.7913 16.7732C69.0644 16.7732 68.4086 16.9471 67.8239 17.2947C67.255 17.6424 66.7968 18.1085 66.4491 18.6932C66.1173 19.2779 65.9513 19.9258 65.9513 20.6369C65.9513 21.3322 66.1173 21.9801 66.4491 22.5806C66.7968 23.1653 67.255 23.6394 67.8239 24.0029C68.4086 24.3505 69.0644 24.5243 69.7913 24.5243ZM83.8906 26.7525C82.9424 26.7525 82.1365 26.5629 81.4728 26.1836C80.8091 25.8043 80.3034 25.2829 79.9558 24.6192C79.6239 23.9396 79.458 23.1574 79.458 22.2725V11.8192H81.8047V22.2014C81.8047 22.9599 82.0101 23.5525 82.421 23.9792C82.8476 24.4058 83.4086 24.6192 84.1039 24.6192C84.4832 24.6192 84.8624 24.5559 85.2417 24.4295C85.6368 24.3031 85.9765 24.1372 86.261 23.9317V26.0888C85.9607 26.2784 85.5973 26.4364 85.1706 26.5629C84.7439 26.6893 84.3173 26.7525 83.8906 26.7525ZM86.261 16.868H77.1587V14.8295H86.261V16.868ZM89.75 14.8295H92.0967V26.4443H89.75V14.8295ZM90.9115 12.5303C90.6429 12.5303 90.39 12.4671 90.153 12.3406C89.916 12.1984 89.7263 12.0088 89.5841 11.7717C89.4419 11.5347 89.3708 11.274 89.3708 10.9895C89.3708 10.7051 89.4419 10.4443 89.5841 10.2073C89.7263 9.97023 89.916 9.7806 90.153 9.63838C90.39 9.49616 90.6429 9.42505 90.9115 9.42505C91.196 9.42505 91.4488 9.49616 91.67 9.63838C91.9071 9.7806 92.0888 9.97023 92.2152 10.2073C92.3574 10.4443 92.4286 10.7051 92.4286 10.9895C92.4286 11.274 92.3574 11.5347 92.2152 11.7717C92.0888 12.0088 91.9071 12.1984 91.67 12.3406C91.4488 12.4671 91.196 12.5303 90.9115 12.5303ZM110.332 14.4977C111.501 14.4977 112.481 14.7584 113.271 15.2799C114.077 15.8014 114.685 16.5046 115.096 17.3895C115.523 18.2745 115.736 19.2542 115.736 20.3288V26.4443H113.39V20.708C113.39 19.9969 113.271 19.3411 113.034 18.7406C112.813 18.1401 112.457 17.6582 111.967 17.2947C111.493 16.9312 110.893 16.7495 110.166 16.7495C109.471 16.7495 108.886 16.9312 108.412 17.2947C107.938 17.6424 107.582 18.1164 107.345 18.7169C107.108 19.3016 106.99 19.9495 106.99 20.6606V26.4443H104.643V20.6606C104.643 19.9495 104.524 19.3016 104.287 18.7169C104.066 18.1164 103.711 17.6424 103.221 17.2947C102.747 16.9312 102.146 16.7495 101.419 16.7495C100.692 16.7495 100.092 16.9312 99.6173 17.2947C99.159 17.6582 98.8192 18.1401 98.598 18.7406C98.3768 19.3411 98.2661 19.9969 98.2661 20.708V26.4443H95.9195V20.3525C95.9195 19.2621 96.117 18.2745 96.5121 17.3895C96.9229 16.5046 97.5234 15.8014 98.3136 15.2799C99.1195 14.7584 100.1 14.4977 101.253 14.4977C102.233 14.4977 103.079 14.6873 103.79 15.0666C104.517 15.4458 105.078 15.9673 105.473 16.631C105.883 17.2947 106.097 18.0611 106.113 18.9303H105.591C105.623 18.0611 105.836 17.2947 106.231 16.631C106.642 15.9673 107.195 15.4458 107.89 15.0666C108.601 14.6873 109.415 14.4977 110.332 14.4977ZM124.188 26.7288C123.066 26.7288 122.062 26.4522 121.177 25.8992C120.308 25.3461 119.621 24.6112 119.115 23.6947C118.609 22.7624 118.356 21.7352 118.356 20.6132C118.356 19.5071 118.625 18.4957 119.162 17.5792C119.715 16.6468 120.458 15.912 121.391 15.3747C122.323 14.8216 123.374 14.5451 124.543 14.5451C125.713 14.5451 126.763 14.8137 127.696 15.351C128.628 15.8725 129.363 16.5915 129.9 17.508C130.453 18.4246 130.73 19.4596 130.73 20.6132V26.4443H128.502V22.1066L129.308 21.4903C129.308 22.47 129.086 23.355 128.644 24.1451C128.217 24.9352 127.617 25.5673 126.842 26.0414C126.084 26.4996 125.199 26.7288 124.188 26.7288ZM124.543 24.5006C125.27 24.5006 125.926 24.3268 126.511 23.9792C127.095 23.6315 127.554 23.1653 127.885 22.5806C128.217 21.9801 128.383 21.3322 128.383 20.6369C128.383 19.9258 128.217 19.2779 127.885 18.6932C127.554 18.1085 127.095 17.6424 126.511 17.2947C125.926 16.9312 125.27 16.7495 124.543 16.7495C123.816 16.7495 123.16 16.9312 122.576 17.2947C122.007 17.6424 121.549 18.1085 121.201 18.6932C120.869 19.2779 120.703 19.9258 120.703 20.6369C120.703 21.3322 120.869 21.9801 121.201 22.5806C121.549 23.1653 122.007 23.6315 122.576 23.9792C123.16 24.3268 123.816 24.5006 124.543 24.5006ZM134.565 9.49616H136.912V26.4443H134.565V9.49616Z" fill="#00313E"/>
</g>
</svg>
