<svg width="160" height="38" viewBox="0 0 160 38" fill="none" xmlns="http://www.w3.org/2000/svg">
<g clip-path="url(#clip0_515_4839)">
<path fill-rule="evenodd" clip-rule="evenodd" d="M18.6333 0.887695C18.2845 0.887695 18.0055 0.887695 17.6568 0.957445C17.308 0.957445 17.029 1.02719 16.6803 1.09694C16.4013 1.16669 16.0525 1.23644 15.7735 1.30619C15.4945 1.37594 15.1458 1.51544 14.8668 1.65494C14.5878 1.79444 14.3088 1.93394 14.0298 2.07344C13.7508 2.21294 13.4718 2.42219 13.1928 2.56169C12.9138 2.77093 12.7046 2.91043 12.4256 3.11968C12.2163 3.32893 11.9373 3.53818 11.7281 3.74743C11.5188 3.95668 11.3096 4.23568 11.1003 4.44492C10.8911 4.72392 10.6818 4.93317 10.5423 5.21217C10.4028 5.49117 10.1936 5.77017 10.0541 6.04917C9.91455 6.32816 9.77505 6.60716 9.63555 6.95591C9.49605 7.23491 9.4263 7.58366 9.35655 7.86265C9.2868 8.14165 9.21705 8.4904 9.14731 8.7694C9.07756 9.0484 9.07756 9.39715 9.00781 9.74589C9.00781 9.95514 9.00781 10.1644 9.00781 10.4434C9.00781 10.7921 9.00781 11.0711 9.07756 11.4199C9.07756 11.7686 9.14731 12.0476 9.21705 12.3964C9.2868 12.6754 9.35655 13.0241 9.4263 13.3031C9.49605 13.5821 9.63555 13.9309 9.77505 14.2099C9.91455 14.4889 9.9843 14.6981 10.1238 14.9074C10.3331 14.9074 10.5423 14.9074 10.7516 14.9771C10.9608 14.9771 11.1003 15.0469 11.3096 15.0469C11.5188 15.0469 11.6583 15.1166 11.8676 15.1166C12.2163 15.1864 12.5651 15.2561 12.9138 15.3956C13.1231 15.4654 13.2626 15.5351 13.4718 15.6049C13.6113 15.6746 13.8206 15.7444 13.9601 15.8141C14.3088 15.9536 14.6576 16.0931 14.9366 16.3024C15.0063 16.3721 15.0761 16.3721 15.1458 16.4419C15.2853 16.5116 15.4248 16.5814 15.4945 16.6511L15.5643 16.7209C15.634 16.7906 15.7038 16.7906 15.7735 16.8604C15.8433 16.9301 15.913 16.9999 15.9828 16.9999C16.0525 17.0696 16.1223 17.1394 16.192 17.1394C16.3315 17.2788 16.471 17.3486 16.6105 17.4881C16.8895 17.6973 17.1685 17.9763 17.4475 18.2553C17.7265 18.5343 17.9358 18.8133 18.145 19.0923C18.2148 19.1621 18.2845 19.2318 18.2845 19.3016C18.424 19.5108 18.6333 19.7201 18.7728 19.9991C18.7728 19.9991 18.7728 19.9991 18.7728 20.0688C18.8425 20.0688 18.9123 20.0688 18.982 20.0688C19.0518 20.0688 19.1215 20.0688 19.1913 20.0688C19.3308 20.0688 19.54 20.0688 19.6795 19.9991C19.8888 19.9293 20.1678 19.9293 20.377 19.8596C20.4468 19.8596 20.5165 19.7898 20.5863 19.7898C20.656 19.7898 20.7258 19.7201 20.7955 19.7201C20.935 19.6503 21.0745 19.6503 21.2838 19.5806C21.3535 19.5806 21.4233 19.5108 21.493 19.5108C21.5628 19.5108 21.6325 19.4411 21.7023 19.4411C21.9115 19.3713 22.1208 19.2318 22.33 19.1621C22.609 19.0226 22.888 18.8831 23.167 18.6738C23.446 18.5343 23.725 18.3251 23.9342 18.1158C24.2132 17.9066 24.4225 17.6973 24.7015 17.4881C24.9107 17.2788 25.1897 17.0696 25.399 16.7906C25.5385 16.6511 25.6082 16.5814 25.678 16.4419C25.7477 16.3721 25.7477 16.3024 25.8175 16.2326C25.8872 16.1629 25.8872 16.0931 25.957 16.0234C26.1662 15.7444 26.3057 15.4654 26.4452 15.1864C26.5847 14.9074 26.7242 14.6284 26.8637 14.3494C27.0032 14.0704 27.1427 13.7914 27.2125 13.4426C27.2822 13.1636 27.4217 12.8149 27.4915 12.5359C27.5612 12.2569 27.631 11.9081 27.631 11.5594C27.7007 11.2106 27.7007 10.9316 27.7007 10.5829C27.7007 10.5131 27.7007 10.4434 27.7007 10.3736C27.7007 10.0249 27.7007 9.74589 27.631 9.39715C27.631 9.0484 27.5612 8.7694 27.4915 8.42065C27.4217 8.14165 27.352 7.79291 27.2822 7.51391C27.2125 7.23491 27.073 6.88616 26.9335 6.60716C27.352 6.46766 27.2125 6.18866 27.073 5.90967C26.9335 5.63067 26.7242 5.35167 26.5847 5.07267C26.3755 4.79367 26.236 4.58442 26.0267 4.30543C25.8175 4.09618 25.6082 3.81718 25.399 3.60793C25.1897 3.39868 24.9107 3.18943 24.7015 2.98018C24.4225 2.77093 24.2132 2.56169 23.9342 2.42219C23.6553 2.21294 23.3763 2.07344 23.0973 1.93394C22.8183 1.79444 22.5393 1.65494 22.1905 1.51544C21.9115 1.37594 21.5628 1.30619 21.2838 1.23644C21.0048 1.16669 20.656 1.09694 20.377 1.02719C19.9585 0.957445 19.6795 0.957445 19.3308 0.887695C19.1215 0.887695 18.9123 0.887695 18.6333 0.887695Z" fill="#00313E"/>
<path opacity="0.8" fill-rule="evenodd" clip-rule="evenodd" d="M9.77388 16.3721C9.42513 16.3721 9.14613 16.3721 8.79738 16.4418C8.44864 16.4418 8.16964 16.5116 7.82089 16.5813C7.47214 16.6511 7.19314 16.7208 6.91414 16.7906C6.63515 16.8603 6.2864 16.9998 6.0074 17.1393C5.7284 17.2788 5.4494 17.4183 5.1704 17.5578C5.10065 17.5578 5.03091 17.6276 4.96116 17.6276C4.68216 17.7671 4.40316 17.9763 4.12416 18.1158C3.84516 18.3251 3.63591 18.5343 3.35691 18.7436C3.14767 18.9528 2.86867 19.1621 2.65942 19.4411C2.45017 19.6503 2.24092 19.9293 2.03167 20.2083C1.89217 20.4175 1.68292 20.6965 1.54343 20.9755C1.40393 21.2545 1.19468 21.5335 1.05518 21.8125C0.915683 22.0915 0.776184 22.3705 0.706434 22.7193C0.566935 22.9983 0.497185 23.347 0.427437 23.626C0.357686 23.905 0.287937 24.2538 0.218187 24.5328C0.218187 24.8118 0.148438 25.1605 0.148438 25.5093C0.148438 25.858 0.148438 26.137 0.148438 26.4858C0.148438 26.8345 0.218187 27.1135 0.218187 27.4623C0.287937 27.7413 0.357686 28.09 0.427437 28.369C0.497185 28.648 0.636685 28.9967 0.706434 29.2757C0.845933 29.5547 0.915683 29.9035 1.05518 30.1825C1.12493 30.3917 1.26443 30.601 1.40393 30.8102C1.54343 31.0892 1.75267 31.3682 1.89217 31.6472C2.10142 31.9262 2.31067 32.1355 2.51992 32.4145C2.72917 32.6237 2.93842 32.9027 3.21742 33.112C3.42666 33.3212 3.70566 33.5305 3.98466 33.7397C4.26366 33.949 4.47291 34.0885 4.75191 34.2977C5.03091 34.4372 5.3099 34.6465 5.5889 34.786C5.8679 34.9255 6.1469 35.065 6.49565 35.1347C6.77465 35.2742 7.12339 35.344 7.40239 35.4137C7.68139 35.4835 8.03014 35.5532 8.30914 35.623C8.58813 35.6927 8.93688 35.6927 9.28563 35.6927C9.63438 35.6927 9.91338 35.6927 10.2621 35.6927C10.6108 35.6927 10.8898 35.623 11.2386 35.623C11.5873 35.5532 11.8663 35.4835 12.1453 35.4137C12.4243 35.344 12.7731 35.2045 13.0521 35.1347C13.3311 34.9952 13.6798 34.9255 13.9588 34.786C14.1681 34.7162 14.3773 34.5767 14.5866 34.4372C14.8656 34.2977 15.1446 34.0885 15.4236 33.949C15.7026 33.7397 15.9118 33.5305 16.1908 33.3212C16.4001 33.112 16.679 32.9027 16.8883 32.6237C17.0975 32.4145 17.3068 32.1355 17.516 31.8565C17.6555 31.6472 17.795 31.438 17.9345 31.159C17.8648 30.9497 17.7253 30.7405 17.6555 30.5312C17.5858 30.3917 17.516 30.1825 17.4463 30.043C17.3765 29.9035 17.3068 29.6942 17.237 29.5547C17.0975 29.206 17.0278 28.8572 16.958 28.5085C16.8883 28.2993 16.8883 28.1598 16.8185 27.9505C16.8185 27.7413 16.7488 27.6018 16.7488 27.3925C16.679 27.0438 16.679 26.6253 16.679 26.2765C16.679 26.0673 16.679 25.9278 16.679 25.7185C16.679 25.6488 16.679 25.5093 16.679 25.4395C16.679 25.3698 16.679 25.2303 16.679 25.1605C16.679 24.8118 16.7488 24.3933 16.8185 24.0445C16.8883 23.6958 16.958 23.347 17.0975 22.9983C17.1673 22.6495 17.3068 22.3008 17.4463 21.952C17.5858 21.6033 17.7253 21.2545 17.9345 20.9755C17.9345 20.9755 17.9345 20.9755 17.9345 20.9058C17.795 20.6268 17.5858 20.3478 17.3765 20.1385C17.3068 20.0688 17.3068 19.999 17.237 19.9293C17.0975 19.7201 16.958 19.5806 16.7488 19.3713C16.5395 19.1621 16.2606 18.9528 16.0513 18.7436C15.7723 18.5343 15.5631 18.3251 15.2841 18.1856C15.0051 17.9763 14.7261 17.8368 14.4471 17.6973C14.1681 17.5578 13.8891 17.4183 13.6101 17.2788C13.3311 17.1393 12.9823 17.0696 12.7033 16.9301C12.4243 16.8603 12.0756 16.7208 11.7966 16.7208C11.4478 16.6511 11.1688 16.5813 10.8201 16.5813C10.4016 16.3721 10.0528 16.3721 9.77388 16.3721Z" fill="#00313E"/>
<path opacity="0.5" fill-rule="evenodd" clip-rule="evenodd" d="M27.9792 16.3721C27.8397 16.5813 27.7699 16.7208 27.6304 16.9301C27.5607 16.9998 27.4909 17.0696 27.4909 17.1393C27.4212 17.2091 27.3514 17.2788 27.3514 17.3486C27.2119 17.4881 27.1422 17.6276 27.0027 17.7671C26.8632 17.9066 26.7237 18.0461 26.654 18.1856C26.5842 18.2553 26.5145 18.3251 26.4447 18.3948C26.375 18.4646 26.3052 18.5343 26.2355 18.6041C25.9565 18.8831 25.6775 19.0923 25.3985 19.3016C25.1195 19.5108 24.7707 19.7201 24.4917 19.9293C24.2127 20.1385 23.864 20.278 23.5152 20.4873C23.1665 20.6268 22.8177 20.7663 22.469 20.9058C22.3992 20.9058 22.3295 20.9755 22.19 20.9755C21.911 21.0453 21.632 21.115 21.4227 21.1848C21.074 21.2545 20.7252 21.3243 20.3067 21.394C20.0975 21.394 19.958 21.4638 19.7487 21.4638C19.679 21.4638 19.5395 21.4638 19.4697 21.4638C19.4 21.4638 19.2605 21.4638 19.1907 21.4638H19.121C19.0512 21.6033 18.9815 21.7428 18.9117 21.8823C18.9117 21.952 18.842 22.0218 18.842 22.0915C18.842 22.1613 18.7722 22.231 18.7722 22.3008C18.6327 22.5798 18.563 22.9285 18.4932 23.2075C18.4235 23.4865 18.3537 23.8353 18.284 24.1143C18.2142 24.3933 18.2142 24.742 18.1445 25.0908C18.1445 25.2303 18.1445 25.4395 18.1445 25.579C18.1445 25.6488 18.1445 25.7185 18.1445 25.7883C18.1445 25.858 18.1445 25.9278 18.1445 25.9975C18.1445 26.3463 18.1445 26.6253 18.2142 26.974C18.284 27.3228 18.284 27.6018 18.3537 27.9505C18.4235 28.09 18.4235 28.2295 18.4932 28.4388C18.4932 28.5085 18.563 28.5782 18.563 28.648C18.563 28.7177 18.6327 28.7875 18.6327 28.8572C18.6327 28.927 18.7025 28.9967 18.7025 29.0665C18.7722 29.2757 18.842 29.485 18.9815 29.764C19.121 30.043 19.2605 30.322 19.4 30.601C19.5395 30.88 19.7487 31.159 19.8882 31.438C20.0975 31.717 20.3067 31.9262 20.516 32.2052C20.7252 32.4145 20.9345 32.6935 21.2135 32.9027C21.4227 33.112 21.7017 33.3212 21.911 33.5305C22.19 33.7397 22.3992 33.8792 22.6782 34.0885C22.748 34.1582 22.8177 34.1582 22.8875 34.228C23.1665 34.3675 23.4455 34.507 23.7245 34.6465C24.0035 34.786 24.2825 34.9255 24.6312 34.9952C24.9102 35.065 25.259 35.2045 25.538 35.2742C25.817 35.344 26.1657 35.4137 26.5145 35.4137C26.8632 35.4137 27.1422 35.4835 27.4909 35.4835C27.8397 35.4835 28.1187 35.4835 28.4674 35.4835C28.8162 35.4835 29.0952 35.4137 29.4439 35.344C29.7229 35.2742 30.0717 35.2045 30.3507 35.1347C30.6297 35.065 30.9784 34.9255 31.2574 34.8557C31.5364 34.7162 31.8154 34.5767 32.1642 34.4372C32.4432 34.2977 32.7222 34.1582 33.0012 33.949C33.2802 33.7397 33.5592 33.6002 33.7684 33.391C34.0474 33.1817 34.2567 32.9725 34.4659 32.7632C34.6752 32.554 34.8844 32.275 35.0937 32.0657C35.3029 31.7867 35.5122 31.5775 35.6516 31.2985C35.7911 31.0892 35.9306 30.9497 36.0004 30.7405C36.1399 30.4615 36.2794 30.1825 36.4189 29.9035C36.5584 29.6245 36.6979 29.3455 36.7676 28.9967C36.8374 28.7177 36.9769 28.369 37.0466 28.09C37.1164 27.811 37.1861 27.4623 37.1861 27.1135C37.2559 26.7648 37.2559 26.4858 37.2559 26.137C37.2559 25.7883 37.2559 25.5093 37.2559 25.1605C37.2559 24.8118 37.1861 24.5328 37.1164 24.184C37.0466 23.905 36.9769 23.5563 36.9071 23.2773C36.8374 22.9983 36.6979 22.6495 36.6281 22.3705C36.4886 22.0915 36.3491 21.8125 36.2096 21.4638C36.0701 21.1848 35.9306 20.9058 35.7214 20.6268C35.5121 20.3478 35.3727 20.0688 35.1634 19.8596C34.9542 19.5806 34.7449 19.3713 34.5357 19.1621C34.3264 18.9528 34.0474 18.7436 33.8382 18.5343C33.5592 18.3251 33.3499 18.1158 33.0709 17.9763C32.8617 17.8368 32.7222 17.6973 32.5129 17.6276C32.2339 17.4881 31.9549 17.3486 31.6759 17.2091C31.3969 17.0696 31.1179 16.9301 30.7692 16.8603C30.4902 16.7906 30.1414 16.6511 29.8624 16.5813C29.5834 16.5116 29.2347 16.4418 28.8859 16.4418C28.4674 16.3721 28.2582 16.3721 27.9792 16.3721Z" fill="#00313E"/>
<mask id="mask0_515_4839" style="mask-type:luminance" maskUnits="userSpaceOnUse" x="48" y="0" width="112" height="38">
<path d="M160 0H48.1484V37.037H160V0Z" fill="white"/>
</mask>
<g mask="url(#mask0_515_4839)">
<path d="M61.2148 26.8522H54.3681L48.2148 9.83658H55.6681L60.117 22.981L65.1436 9.83658H67.7436L61.2148 26.8522ZM76.6956 27.141C71.9578 27.141 67.6823 25.1477 67.6823 20.0922C67.6823 15.0077 71.9578 12.8699 76.6956 12.8699C81.4045 12.8699 85.68 14.2277 85.68 18.9077C85.68 19.341 85.6511 19.7455 85.5934 20.1788H74.7311C74.7023 20.641 74.7023 21.0744 74.7023 21.4499C74.7023 24.3677 75.28 25.061 76.6956 25.061C78.0245 25.061 78.4289 24.2522 78.4289 22.8077C78.4289 22.6055 78.4 22.4033 78.4 22.1722H85.42C85.42 22.2877 85.4489 22.4033 85.4489 22.5188C85.4489 25.7255 81.4911 27.141 76.6956 27.141ZM74.76 18.4166H78.4867C78.5156 18.1566 78.5156 17.8966 78.5156 17.6655C78.5156 15.8166 77.8223 15.0077 76.6089 15.0077C75.4534 15.0077 74.7311 15.8166 74.7311 17.6944C74.7311 17.9255 74.7311 18.1566 74.76 18.4166ZM96.243 27.141C90.4074 27.141 87.3741 24.7144 87.3741 20.0055C87.3741 15.3255 90.4074 12.8699 96.243 12.8699C102.049 12.8699 105.111 14.4299 105.111 17.4055C105.111 17.6077 105.083 17.8099 105.054 18.041H98.0919C98.1208 17.6944 98.1497 17.4055 98.1497 17.1166C98.1497 15.701 97.3697 14.9788 96.3874 14.9788C95.1163 14.9788 94.3074 16.0188 94.3074 20.0055C94.3074 24.021 95.1163 25.061 96.3874 25.061C97.3697 25.061 98.1497 24.8588 98.1497 22.8366C98.1497 22.4322 98.1208 21.941 98.0919 21.3922H105.054C105.083 21.7099 105.111 22.0277 105.111 22.2877C105.111 25.4944 102.049 27.141 96.243 27.141ZM113.889 27.141C110.48 27.141 108.4 25.9855 108.4 23.2122V15.3544H106.84V13.1588H108.4V10.4144L114.9 9.77881V13.1588H118.569V15.3544H114.9V22.981C114.9 23.9055 115.391 24.3388 116.2 24.3388C116.922 24.3388 117.384 23.9633 117.818 23.2699L119.147 24.3099C118.164 26.0433 116.662 27.141 113.889 27.141ZM127.924 26.8522H121.424V13.1588H126.017C126.652 13.4188 127.432 14.2855 127.692 15.8166C128.617 13.8522 130.119 12.8699 132.43 12.8699C135.666 12.8699 137.861 15.0077 137.861 18.0122C137.861 18.9366 137.659 19.9766 137.197 20.8722H131.13C131.275 20.1788 131.304 19.5144 131.304 19.0233C131.304 17.3477 130.784 16.5388 129.657 16.5388C128.79 16.5388 127.924 17.2033 127.924 19.1099V26.8522ZM144.908 27.141C141.528 27.141 139.708 25.6388 139.708 23.6166C139.708 21.5077 140.95 20.6122 146.179 19.2544C149.126 18.4744 149.675 17.8388 149.675 16.5099C149.675 15.5277 149.126 15.0077 148.375 15.0077C147.595 15.0077 147.075 15.5566 147.075 16.741C147.075 16.9722 147.104 17.261 147.161 17.521H140.17C140.141 17.3188 140.112 17.1166 140.112 16.9433C140.112 14.7477 142.424 12.8699 148.288 12.8699C153.632 12.8699 156.175 14.8633 156.175 18.8499V23.241C156.175 23.8477 156.406 24.1366 156.868 24.1366C157.272 24.1366 157.561 23.9344 157.792 23.501L159.092 24.4255C158.284 26.0433 156.752 27.141 154.326 27.141C152.101 27.141 150.83 26.3322 150.166 25.1188C149.184 26.3899 147.652 27.141 144.908 27.141ZM148.028 24.541C148.895 24.541 149.675 23.8477 149.675 22.2877V19.8033C149.241 20.2655 148.895 20.4677 148.172 20.8433C147.277 21.3055 146.699 21.8255 146.699 22.981C146.699 23.9344 147.161 24.541 148.028 24.541Z" fill="#00313E"/>
</g>
</g>
<defs>
<clipPath id="clip0_515_4839">
<rect width="160" height="38" fill="white"/>
</clipPath>
</defs>
</svg>
