<svg width="136" height="38" viewBox="0 0 136 38" fill="none" xmlns="http://www.w3.org/2000/svg">
<g clip-path="url(#clip0_515_4803)">
<path opacity="0.5" fill-rule="evenodd" clip-rule="evenodd" d="M14.907 0C11.4544 0 8.31568 1.25549 5.80469 3.13873L22.9107 23.6974L36.8781 13.1827C36.2503 5.80665 29.9729 0 22.283 0" fill="#00313E"/>
<path fill-rule="evenodd" clip-rule="evenodd" d="M22.285 37.0371C30.4457 37.0371 37.037 30.4457 37.037 22.285V21.5003L24.3252 30.9165C22.9127 32.0151 20.8726 31.7012 19.774 30.4457L1.56937 8.47461C0.627746 10.3578 0 12.555 0 14.7521V22.1281C0 30.2888 6.59134 36.8801 14.752 36.8801" fill="#00313E"/>
<mask id="mask0_515_4803" style="mask-type:luminance" maskUnits="userSpaceOnUse" x="48" y="0" width="88" height="38">
<path d="M135.556 0H48.1484V37.037H135.556V0Z" fill="white"/>
</mask>
<g mask="url(#mask0_515_4803)">
<path d="M55.1399 11.0919L55.4614 11.3675C55.5991 12.9289 55.6451 14.5593 55.6451 16.1208C55.6451 19.2897 55.2317 22.5275 54.9332 24.663L55.5073 24.686C57.7577 22.4356 59.8473 18.8304 59.8473 16.1897C59.8473 14.0771 58.9747 12.6763 58.1251 11.7808L58.171 11.4823C59.5717 11.2067 61.1103 11.1149 62.2354 11.0919C62.7177 11.4593 63.0162 11.9645 63.0162 12.906C63.0162 13.5489 62.8554 14.3297 62.534 15.363C61.5925 18.4171 55.9895 25.7423 53.2799 27.4415C52.1088 27.3497 50.9836 26.9823 50.134 26.5C50.3865 23.5837 50.5703 20.5526 50.5703 17.7282C50.5703 16.0978 50.4784 14.6052 50.3636 13.3652L48.2969 11.7349L48.3428 11.4363C49.9503 11.2756 53.5325 11.0919 55.1399 11.0919ZM67.1883 13.0208C66.2927 13.0208 65.6268 12.4467 65.6268 11.643C65.6268 10.426 66.8209 9.69116 67.8083 9.69116C68.7038 9.69116 69.3468 10.2652 69.3468 11.046C69.3468 12.286 68.1757 13.0208 67.1883 13.0208ZM70.7705 24.4793C69.6683 25.7193 67.4179 27.4415 65.489 27.4415C63.8586 27.4415 62.5957 26.5919 62.5957 24.8697C62.5957 24.043 62.9172 22.9408 63.3305 21.6319C63.7438 20.346 64.1801 18.8993 64.4786 17.223L63.606 15.9141L63.6749 15.5697C65.7416 15.34 67.4868 15.2482 69.186 15.2252L69.5075 15.4549C69.5075 16.3734 69.232 18.3252 68.6809 20.2771C68.0838 22.3897 67.0964 24.7089 67.0964 25.88C67.0964 26.0867 67.1194 26.3393 67.1883 26.4312C68.2446 25.9719 69.852 24.8237 70.7016 23.8823L70.7705 23.9512V24.4793ZM80.3152 23.7904C80.3152 26.4082 77.6285 27.4415 75.4011 27.4415C72.967 27.4415 70.4411 26.6837 69.5915 25.5126C70.0278 24.4563 70.7626 23.5149 71.5204 22.7341H71.75C72.2781 24.0889 73.587 26.8904 75.0796 26.8904C75.7685 26.8904 76.3885 26.4771 76.3885 25.6275C76.3885 24.4334 75.5389 24.043 74.4367 23.3541C72.6226 22.2289 71.4515 21.4252 71.4515 19.7719C71.4515 16.4423 75.447 15.2252 78.0878 15.2252C80.5448 15.2252 82.1752 16.1208 82.1752 17.5675C82.1752 18.463 81.647 19.0141 80.8893 19.4045C79.7411 19.5423 78.6159 19.5652 77.4678 19.5652L77.3989 19.3356C77.95 18.7156 78.5011 18.1186 78.5011 17.5215C78.5011 16.8556 77.8122 15.96 76.8937 15.96C76.1818 15.96 75.47 16.4423 75.47 17.6363C75.47 18.8304 76.2278 19.5193 77.33 20.2082C79.1441 21.3334 80.3152 22.1371 80.3152 23.7904ZM98.9066 24.4793C97.8043 25.7193 95.0947 27.4415 93.1658 27.4415C91.5355 27.4415 90.6399 26.5919 90.6399 25.0993C90.6399 23.8593 91.3058 21.7926 92.2703 19.8867L91.9029 19.7719C91.834 19.9097 91.4666 20.7363 91.3747 20.92C89.9051 24.1119 88.3666 27.4415 85.1747 27.4415C83.3606 27.4415 82.4192 26.3623 82.4192 24.8697C82.4192 24.066 82.9932 22.5734 83.5443 21.0349C84.1184 19.4963 84.6925 17.9349 84.6925 16.9704C84.6925 16.626 84.5547 16.5341 84.3481 16.5341C83.9806 16.5341 83.4295 16.7408 82.9703 17.0163L82.9014 16.9704L82.9932 16.3734C84.0266 15.8223 85.4503 15.2252 86.7132 15.2252C88.4584 15.2252 89.2392 16.1208 89.2392 17.6134C89.2392 18.44 88.7569 20.0015 88.2747 21.4712C87.7925 22.9637 87.3103 24.3645 87.3103 24.8926C87.3103 25.306 87.5399 25.4437 87.7925 25.4437C88.2977 25.4437 89.0325 24.4793 89.8821 22.826C90.8236 21.0119 91.9488 18.3712 93.1658 15.2252C94.7962 15.34 96.6562 16.1437 97.3221 16.7867C97.3221 18.3941 94.7962 23.7675 94.7962 26.0867C94.7962 26.2245 94.8192 26.3623 94.8651 26.4312C96.771 25.6504 98.034 24.686 98.8377 23.8363L98.9066 23.9052V24.4793ZM114.149 24.2497C113.047 25.4897 110.108 27.4415 108.179 27.4415C106.548 27.4415 105.653 26.5919 105.653 25.0993C105.653 24.2497 105.974 23.4689 107.145 21.4023L106.365 21.4712C105.446 23.6756 103.839 27.4415 101.29 27.4415C99.4527 27.4415 98.1438 25.6045 98.1438 23.0326C98.1438 18.4171 100.67 15.2252 104.321 15.2252C105.538 15.2252 106.48 15.7304 107.077 16.7637L106.847 17.3378C106.342 16.6719 105.768 15.96 105.033 15.96C104 15.96 103.104 19.1289 103.104 22.7112C103.104 24.1578 103.334 24.9615 103.77 24.9615C104.137 24.9615 104.551 24.2037 105.4 22.183C106.043 20.6904 106.916 18.5319 107.972 15.4778C109.648 15.7075 111.485 16.626 112.266 17.4986C112.266 18.3023 111.646 20.1163 111.026 21.8845C110.429 23.6526 109.809 25.3978 109.809 26.0867C109.809 26.2245 109.832 26.3623 109.878 26.4312C111.784 25.6504 113.277 24.4563 114.08 23.6067L114.149 23.6756V24.2497ZM115.988 27.4415C114.197 27.4415 113.095 26.4541 113.095 24.8697C113.095 23.9741 113.301 23.0326 113.784 21.563L115.781 15.4778C116.31 13.8704 116.539 12.9289 116.654 12.0334L115.827 10.5408L115.896 10.1963C117.71 9.98967 119.501 9.87486 121.407 9.8519L121.706 10.0586C121.706 10.9082 121.27 13.6867 120.053 17.5215C119.387 19.6112 117.619 24.2037 117.619 25.88C117.619 26.0867 117.664 26.3393 117.687 26.4312C118.904 25.926 120.833 24.663 121.614 23.7904L121.683 23.8593V24.3875C120.236 26.0178 117.55 27.4415 115.988 27.4415ZM132.26 26.7986C130.79 30.3808 127.369 32.8149 123.695 32.8149C121.559 32.8149 119.217 32.126 118.964 30.0593C119.653 28.7045 121.307 27.1889 122.661 26.5919C121.559 26.2475 121.008 25.3289 121.008 24.1808C121.008 23.3541 121.605 22.0223 122.225 20.6675C122.822 19.2897 123.419 17.8889 123.419 16.9475C123.419 16.603 123.281 16.5112 123.075 16.5112C122.845 16.5112 122.34 16.6489 122.133 16.7867L122.064 16.7408L122.156 16.2126C122.868 15.7304 124.177 15.2252 125.44 15.2252C127.185 15.2252 127.966 16.0978 127.966 17.5904C127.966 18.4171 127.438 19.8178 126.933 21.1497C126.404 22.4586 125.899 23.6756 125.899 24.2037C125.899 24.6171 126.129 24.7549 126.381 24.7549C126.749 24.7549 127.3 24.1578 127.989 23.0097C128.907 21.4252 130.055 18.8534 131.204 15.4549C132.604 15.6845 134.694 16.4652 135.498 17.4986C135.222 18.1875 133.224 24.4793 132.26 26.7986ZM122.937 28.0615C122.937 29.9675 123.993 31.9652 125.761 31.9652C126.381 31.9652 127.07 30.1282 127.782 27.8778C128.471 25.6504 129.183 23.0326 129.872 21.3793L129.413 21.4712C129.091 22.1141 128.747 22.7341 128.379 23.3312C127.208 25.2141 125.738 26.7526 123.764 26.7526C123.534 26.7526 123.327 26.7297 123.121 26.7067C123.006 27.143 122.937 27.6023 122.937 28.0615Z" fill="#00313E"/>
</g>
</g>
<defs>
<clipPath id="clip0_515_4803">
<rect width="136" height="38" fill="white"/>
</clipPath>
</defs>
</svg>
