<svg width="181" height="40" viewBox="0 0 181 40" fill="none" xmlns="http://www.w3.org/2000/svg">
<path d="M27.5567 6.35733C28.2195 5.69288 28.6294 4.77616 28.6294 3.7636C28.6294 1.73515 26.9851 0.0908203 24.9567 0.0908203C23.6743 0.0908203 22.5469 0.74899 21.89 1.74493C21.7155 1.91982 1.54907 26.7731 1.4126 26.9802C0.749811 27.6446 0.339844 28.5613 0.339844 29.5739C0.339844 31.6023 1.98417 33.2467 4.01262 33.2467C5.29499 33.2467 6.42241 32.5885 7.0793 31.5925C7.25363 31.4175 27.4202 6.56417 27.5567 6.35733Z" fill="#00313E"/>
<path d="M31.9994 19.8896C32.6639 19.225 33.0748 18.3069 33.0748 17.2929C33.0748 15.2644 31.4305 13.6201 29.402 13.6201C28.1191 13.6201 26.9913 14.279 26.3344 15.2757C26.1584 15.4517 12.459 32.3954 12.3214 32.6041C11.657 33.2687 11.2461 34.1867 11.2461 35.2008C11.2461 37.2292 12.8904 38.8736 14.9189 38.8736C16.2018 38.8736 17.3296 38.2148 17.9865 37.218C18.1625 37.042 31.862 20.0983 31.9994 19.8896Z" fill="#00313E"/>
<path d="M39.8926 9.64987C40.3937 7.68433 39.2064 5.68479 37.2409 5.18377C35.2754 4.68275 33.2758 5.86998 32.7748 7.83552C32.2738 9.80106 33.461 11.8006 35.4265 12.3016C37.3921 12.8026 39.3916 11.6154 39.8926 9.64987Z" fill="#00313E"/>
<path d="M6.84296 12.1714C8.73873 11.4501 9.69081 9.32855 8.9695 7.43278C8.2482 5.53702 6.12664 4.58494 4.23088 5.30624C2.33512 6.02755 1.38303 8.1491 2.10434 10.0449C2.82565 11.9406 4.9472 12.8927 6.84296 12.1714Z" fill="#00313E"/>
<mask id="mask0_515_4829" style="mask-type:luminance" maskUnits="userSpaceOnUse" x="52" y="0" width="129" height="40">
<path d="M180.8 0H52V40H180.8V0Z" fill="white"/>
</mask>
<g mask="url(#mask0_515_4829)">
<path d="M57.5153 29.2803L52.0625 10.9507H53.9825L57.6945 23.5459C57.9505 24.4419 58.1809 25.3635 58.4113 26.5667C58.7185 25.2355 58.9745 24.4419 59.2561 23.5459L63.2497 10.9507H65.1697L69.1633 23.5459C69.4449 24.4675 69.7009 25.3891 69.9825 26.5667C70.2641 25.1587 70.4945 24.2627 70.6993 23.5715L74.4881 10.9507H76.3569L70.8529 29.2803H69.1121L64.1969 13.7155L59.2817 29.2803H57.5153ZM77.1807 29.2803H75.3119L82.0447 10.9507H84.3231L91.1327 29.2803H89.2127L87.4207 24.4163H78.9727L77.1807 29.2803ZM82.9407 13.5363L79.5359 22.8034H86.8319L83.4015 13.5363C83.3247 13.2803 83.1967 12.973 83.1711 12.7938C83.1455 12.9474 83.0431 13.2803 82.9407 13.5363ZM96.1803 21.6259L89.9595 10.9507H92.0331L96.5643 18.861C96.7691 19.245 96.9227 19.5523 97.1019 19.9619C97.3323 19.5011 97.3323 19.501 97.6651 18.861L102.145 10.9507H104.167L98.0235 21.6259V29.2803H96.1803V21.6259ZM109.779 10.5667V26.2595H117.612V29.2803H106.502V10.5667H109.779ZM123.554 10.5667V29.2803H120.277V10.5667H123.554ZM130.927 29.2803H127.702V10.5667H130.953L139.734 23.8274V10.5667H142.959V29.2803H139.734L130.927 16.0195V29.2803ZM158.724 29.2803H147.102V10.5667H158.724V13.5875H150.379V18.4002H157.854V21.2931H150.379V26.2595H158.724V29.2803Z" fill="#00313E"/>
</g>
</svg>
