<svg width="136" height="40" viewBox="0 0 136 40" fill="none" xmlns="http://www.w3.org/2000/svg">
<g clip-path="url(#clip0_515_4870)">
<path d="M132.917 20.4377L117.187 0.428014H114.547V4.92222H117.294L133.416 25.3944H135.663V0.428068H132.917V20.4377ZM92.828 21.8502C89.9717 20.0782 88.3217 16.8161 88.3217 12.8762C88.3217 7.27638 92.2808 2.60384 97.8089 2.60384C101.34 2.60384 103.479 3.78081 105.405 5.45773L107.225 3.31701C104.729 1.21253 102.125 0 97.9162 0C90.4258 0 85.397 6.06363 85.397 12.9475C85.397 17.2457 87.1422 21.0173 90.2296 23.3507L92.8268 21.8502H92.828ZM75.9058 0.427953V25.3943H78.7241V0.427953H75.9058ZM54.4953 6.66975C54.4953 4.38732 56.5636 2.60378 59.8102 2.60378C62.3774 2.60378 64.6969 3.42446 67.0146 5.31422L68.656 3.13863C66.1232 1.10586 63.5195 0.0717275 59.8813 0.0717275C55.1381 0.0717275 51.6783 2.92518 51.6783 6.91987C51.6783 11.0571 54.313 12.9281 60.0596 14.1593C65.2982 15.282 66.5515 16.5859 66.5515 18.94C66.5515 21.4725 64.3397 23.2188 60.9871 23.2188C57.5269 23.2188 55.0308 22.0416 52.427 19.6876L50.6796 21.757C53.675 24.4319 56.9203 25.7513 60.8798 25.7513C65.8376 25.7513 69.4034 22.9704 69.4034 18.6542C69.4034 14.801 66.8384 12.7597 61.2728 11.5564C55.7809 10.3696 54.4953 9.05986 54.4953 6.66975ZM28.2899 22.828V25.3944H46.3377V22.828H28.2899ZM28.2899 11.5206V14.0882C33.7705 14.0882 40.8558 14.0882 46.3377 14.0882V11.5206C40.8558 11.5206 33.7705 11.5206 28.2899 11.5206ZM46.3377 0.427953H28.2899V2.99623H31.1074H41.5775H46.3377V0.427953ZM96.2477 14.5889C96.7728 13.6419 97.3728 12.7922 98.0095 12.0555C101.379 12.0555 104.747 12.0555 108.116 12.0555V22.0067C107.339 22.7 106.43 23.3583 105.405 23.925V14.5888C102.353 14.5889 99.3003 14.5889 96.2477 14.5889ZM21.9341 12.8762C21.9341 5.81395 16.5133 0.427953 8.66611 0.427953H0V3.03173H2.81706H8.66611C14.5174 3.03173 19.0098 6.95359 19.0098 12.9474C19.0098 18.5104 14.9792 22.7918 8.66611 22.7918H2.81706H0V25.3943H8.66611C16.5133 25.3944 21.9341 19.9384 21.9341 12.8762Z" fill="#00313E"/>
<path d="M2.84302 2.84375H0V23.0034H2.84302V2.84375Z" fill="#00313E"/>
<path d="M132.378 36.2178C132.378 37.4777 131.475 38.5073 130.173 38.5073C128.869 38.5073 127.945 37.457 127.945 36.1971V36.1764C127.945 34.914 128.848 33.8844 130.152 33.8844C131.454 33.8844 132.378 34.936 132.378 36.1971V36.2178ZM134.07 36.1971V36.1764C134.07 34.0848 132.442 32.3931 130.173 32.3931C127.903 32.3931 126.254 34.1055 126.254 36.1971V36.2178C126.254 38.3079 127.882 39.9999 130.152 39.9999C132.421 39.9999 134.07 38.2872 134.07 36.1971ZM116.674 39.873V32.5197H115.056V39.873H116.674ZM105.477 36.1971V36.1764C105.477 34.1055 103.88 32.5197 101.568 32.5197H98.7009V33.9801H100.319H101.568C101.589 33.9801 101.609 33.9801 101.63 33.9801C101.651 33.9801 101.672 33.9814 101.691 33.9827C101.712 33.9827 101.732 33.9854 101.752 33.9854C101.771 33.9878 101.792 33.9878 101.811 33.9904C101.832 33.993 101.852 33.9943 101.871 33.9956C101.89 33.9983 101.91 34.0009 101.929 34.0035C101.949 34.0061 101.968 34.0085 101.987 34.0112C102.007 34.0151 102.025 34.019 102.044 34.0217C102.063 34.0243 102.082 34.0293 102.1 34.0319C102.119 34.0372 102.138 34.0398 102.157 34.0448C102.175 34.05 102.193 34.0539 102.211 34.0578C102.229 34.0631 102.247 34.0681 102.265 34.0733C102.284 34.0785 102.3 34.0836 102.319 34.0887C102.335 34.094 102.353 34.0992 102.37 34.1055C102.388 34.1121 102.405 34.1173 102.423 34.1236C102.44 34.1302 102.457 34.1367 102.474 34.1431C102.49 34.1496 102.507 34.1561 102.524 34.1638C102.541 34.1716 102.557 34.1782 102.573 34.1845C102.589 34.1923 102.605 34.1999 102.621 34.2078C102.638 34.2157 102.653 34.2233 102.669 34.2311C102.686 34.2388 102.701 34.2479 102.715 34.2569C102.732 34.2647 102.748 34.2737 102.762 34.2828C102.778 34.2907 102.793 34.3009 102.807 34.3088C102.823 34.3191 102.837 34.3295 102.851 34.3371C102.867 34.3476 102.881 34.3578 102.895 34.367C102.909 34.3759 102.924 34.3864 102.938 34.3966C102.952 34.4071 102.965 34.4173 102.98 34.4289C102.994 34.4394 103.007 34.4509 103.019 34.4614C103.034 34.4717 103.047 34.4821 103.059 34.495C103.072 34.5053 103.086 34.517 103.098 34.5286C103.111 34.5391 103.124 34.5519 103.137 34.5635C103.149 34.5753 103.162 34.5881 103.173 34.5996C103.185 34.6114 103.198 34.6243 103.209 34.6371C103.221 34.6502 103.233 34.6631 103.245 34.6747C103.256 34.6891 103.268 34.7006 103.278 34.7148C103.29 34.7279 103.3 34.7408 103.312 34.7536C103.322 34.768 103.332 34.7822 103.344 34.795C103.353 34.8081 103.363 34.8236 103.374 34.8364C103.384 34.8506 103.395 34.865 103.405 34.8792C103.414 34.8934 103.424 34.9088 103.434 34.9219C103.442 34.9374 103.451 34.9529 103.461 34.9671C103.47 34.9813 103.478 34.997 103.488 35.0125C103.497 35.028 103.505 35.0435 103.514 35.0589C103.521 35.0746 103.53 35.0901 103.538 35.1056C103.546 35.121 103.553 35.1366 103.561 35.152C103.569 35.169 103.577 35.1858 103.584 35.2013C103.591 35.2181 103.597 35.2349 103.605 35.2504C103.612 35.2684 103.618 35.2841 103.625 35.3009C103.631 35.3177 103.638 35.3345 103.644 35.3513C103.651 35.3694 103.656 35.3849 103.662 35.403C103.667 35.4211 103.674 35.4381 103.679 35.4549C103.684 35.473 103.69 35.491 103.695 35.5092C103.7 35.5273 103.704 35.5441 103.709 35.5622C103.714 35.5802 103.718 35.5983 103.722 35.6165C103.726 35.6359 103.73 35.654 103.734 35.6721C103.737 35.6901 103.741 35.7082 103.745 35.7277C103.748 35.7471 103.751 35.7652 103.754 35.7833C103.757 35.8027 103.759 35.822 103.762 35.8402C103.765 35.8609 103.767 35.879 103.77 35.8984C103.771 35.9178 103.774 35.9385 103.775 35.9566C103.778 35.9773 103.779 35.9968 103.78 36.0161C103.781 36.0368 103.781 36.0549 103.782 36.0756C103.784 36.0963 103.784 36.117 103.785 36.1351C103.785 36.1558 103.785 36.1765 103.785 36.1973V36.218C103.785 37.5203 102.893 38.4143 101.568 38.4143H100.319H98.701V39.8732H101.568C103.88 39.873 105.477 38.2665 105.477 36.1971ZM88.9842 36.6692V32.5197H87.3677V36.7326C87.3677 37.8993 86.7686 38.4968 85.7804 38.4968C84.7922 38.4968 84.1935 37.8786 84.1935 36.6807V32.5197H82.5752V36.7222C82.5752 38.8862 83.7832 39.9894 85.7599 39.9894C87.7349 39.9894 88.9842 38.8964 88.9842 36.6692ZM73.3854 34.0111V32.5197H67.2922V34.0111H69.5297V39.8731H71.1479V34.0111H73.3854ZM58.5005 37.7V37.678C58.5005 36.3961 57.6597 35.8606 56.1683 35.4715C54.8968 35.1468 54.5814 34.9889 54.5814 34.5051V34.4844C54.5814 34.1274 54.9072 33.8429 55.5269 33.8429C56.1479 33.8429 56.788 34.1172 57.4399 34.5673L58.2807 33.3489C57.5341 32.7512 56.6197 32.4151 55.5487 32.4151C54.046 32.4151 52.975 33.2973 52.975 34.6321V34.6528C52.975 36.1117 53.9309 36.5231 55.4118 36.9007C56.6407 37.2162 56.8927 37.4257 56.8927 37.8359V37.8566C56.8927 38.2872 56.4941 38.551 55.8322 38.551C54.9914 38.551 54.2981 38.2033 53.6356 37.6573L52.6797 38.802C53.5619 39.5911 54.6861 39.9792 55.8012 39.9792C57.3867 39.9792 58.5005 39.1592 58.5005 37.7Z" fill="#00313E"/>
<path fill-rule="evenodd" clip-rule="evenodd" d="M115.87 25.3939C117.029 25.3939 117.968 24.4548 117.968 23.2959C117.968 22.1355 117.029 21.1953 115.87 21.1953C114.71 21.1953 113.77 22.1355 113.77 23.2959C113.77 24.4547 114.71 25.3939 115.87 25.3939Z" fill="#00313E"/>
</g>
<defs>
<clipPath id="clip0_515_4870">
<rect width="136" height="40" fill="white"/>
</clipPath>
</defs>
</svg>
