<svg width="321" height="100" viewBox="0 0 321 100" fill="none" xmlns="http://www.w3.org/2000/svg">
<rect width="320.658" height="99.4516" rx="20" fill="#EBFF74"/>
<path d="M64.6453 61.7758H60.1953V68.7258H54.1453V61.7758H35.5953V56.1758L52.1453 32.1758H60.1953V56.1758H64.6453V61.7758ZM42.3953 56.1758H54.1453V39.0758L42.3953 56.1758ZM72.9883 69.3258C70.7883 69.3258 68.9383 67.5258 68.9383 65.3758C68.9383 63.1758 70.7883 61.3758 72.9883 61.3758C75.1883 61.3758 77.0383 63.1758 77.0383 65.3758C77.0383 67.5258 75.1883 69.3258 72.9883 69.3258ZM94.2578 69.3258C86.6078 69.3258 81.5578 64.4258 81.5578 57.0258H87.9078C87.9078 61.1758 90.3578 63.6258 94.4078 63.6258C98.7078 63.6258 101.458 60.8258 101.458 56.3758C101.458 52.1258 98.9078 49.2258 94.5078 49.2258C91.7078 49.2258 89.1578 50.6258 87.8578 52.5258L82.2078 51.3258L86.7078 32.1758H105.758V38.0758H91.3078L89.3578 45.6758C91.1078 44.5258 93.3078 43.8758 95.8078 43.8758C103.108 43.8758 107.958 48.8258 107.958 56.0258C107.958 63.9258 102.408 69.3258 94.2578 69.3258Z" fill="#00313E"/>
<path d="M124.342 40.2602C124.598 39.4726 125.712 39.4726 125.968 40.2602L127.65 45.4369C127.765 45.7891 128.093 46.0276 128.463 46.0276H133.906C134.734 46.0276 135.079 47.0872 134.409 47.574L130.005 50.7733C129.706 50.991 129.58 51.3769 129.695 51.7291L131.377 56.9058C131.633 57.6933 130.731 58.3482 130.061 57.8615L125.658 54.6621C125.358 54.4445 124.952 54.4445 124.653 54.6621L120.249 57.8615C119.579 58.3482 118.678 57.6933 118.934 56.9058L120.616 51.7291C120.73 51.3769 120.605 50.991 120.305 50.7733L115.902 47.574C115.232 47.0872 115.576 46.0276 116.404 46.0276H121.847C122.218 46.0276 122.546 45.7891 122.66 45.4369L124.342 40.2602Z" fill="#00313E"/>
<path d="M154.981 26.2506C154.602 26.2506 154.248 26.172 153.919 26.0147C153.595 25.8574 153.316 25.642 153.083 25.3685C152.854 25.0915 152.69 24.7735 152.591 24.4145L153.468 24.1785C153.53 24.4213 153.639 24.6316 153.796 24.8094C153.954 24.9838 154.137 25.1205 154.345 25.2197C154.557 25.3155 154.778 25.3633 155.007 25.3633C155.308 25.3633 155.578 25.2915 155.817 25.1479C156.06 25.0009 156.251 24.8077 156.392 24.5683C156.532 24.3255 156.602 24.0605 156.602 23.7733C156.602 23.4758 156.528 23.2074 156.381 22.9681C156.238 22.7253 156.045 22.5338 155.802 22.3936C155.559 22.2534 155.294 22.1833 155.007 22.1833C154.682 22.1833 154.403 22.2517 154.171 22.3885C153.942 22.5218 153.76 22.686 153.627 22.8809L152.817 22.5731L153.042 18.711H157.007V19.5778H153.483L153.889 19.1982L153.699 22.291L153.499 22.0295C153.704 21.8106 153.949 21.6414 154.232 21.5217C154.52 21.402 154.812 21.3422 155.109 21.3422C155.568 21.3422 155.978 21.4499 156.34 21.6653C156.703 21.8773 156.99 22.1679 157.202 22.5372C157.414 22.9031 157.52 23.3151 157.52 23.7733C157.52 24.2281 157.404 24.6435 157.171 25.0197C156.939 25.3924 156.629 25.6916 156.243 25.9173C155.86 26.1395 155.439 26.2506 154.981 26.2506Z" fill="#6A6A6A"/>
<path d="M155.986 39.6613V38.3021H152.591V37.4353L155.027 32.2755H156.063L153.627 37.4353H155.986V35.358H156.91V37.4353H157.679V38.3021H156.91V39.6613H155.986Z" fill="#6A6A6A"/>
<path d="M154.822 53.3694C154.456 53.3694 154.116 53.3027 153.801 53.1694C153.487 53.0326 153.215 52.8411 152.986 52.5949C152.76 52.3453 152.594 52.0495 152.488 51.7076L153.366 51.4563C153.478 51.7982 153.666 52.0581 153.93 52.2359C154.193 52.4137 154.489 52.5009 154.817 52.4975C155.118 52.4906 155.378 52.4223 155.597 52.2923C155.819 52.159 155.99 51.9777 156.11 51.7486C156.233 51.5195 156.294 51.2545 156.294 50.9536C156.294 50.4955 156.157 50.1245 155.884 49.8406C155.61 49.5534 155.251 49.4098 154.807 49.4098C154.684 49.4098 154.554 49.4269 154.417 49.4611C154.284 49.4953 154.159 49.5432 154.043 49.6047L153.601 48.8815L156.34 46.4042L156.458 46.7119H152.781V45.84H157.135V46.7171L154.802 48.9533L154.791 48.6302C155.28 48.596 155.708 48.6764 156.074 48.8713C156.44 49.0662 156.723 49.3448 156.925 49.7073C157.13 50.0697 157.233 50.4852 157.233 50.9536C157.233 51.4255 157.127 51.8427 156.915 52.2051C156.703 52.5676 156.416 52.8531 156.053 53.0617C155.691 53.2668 155.28 53.3694 154.822 53.3694Z" fill="#6A6A6A"/>
<path d="M152.591 66.7852L152.596 65.9645L155.874 63.0154C156.147 62.7692 156.33 62.5366 156.422 62.3178C156.518 62.0955 156.566 61.8682 156.566 61.6356C156.566 61.3518 156.501 61.0954 156.371 60.8663C156.241 60.6372 156.063 60.456 155.838 60.3226C155.615 60.1893 155.362 60.1226 155.079 60.1226C154.785 60.1226 154.523 60.1927 154.294 60.3329C154.065 60.4696 153.884 60.6526 153.75 60.8817C153.62 61.1108 153.557 61.3604 153.56 61.6305H152.627C152.627 61.1655 152.735 60.7552 152.95 60.3995C153.165 60.0405 153.458 59.7601 153.827 59.5584C154.2 59.3532 154.622 59.2506 155.094 59.2506C155.552 59.2506 155.963 59.3566 156.325 59.5686C156.687 59.7772 156.973 60.0627 157.182 60.4252C157.394 60.7842 157.5 61.1911 157.5 61.6459C157.5 61.9673 157.458 62.246 157.376 62.4819C157.298 62.7179 157.175 62.9367 157.007 63.1385C156.84 63.3368 156.629 63.5488 156.376 63.7745L153.653 66.221L153.535 65.9133H157.5V66.7852H152.591Z" fill="#6A6A6A"/>
<path d="M154.084 80.3548V73.9795L152.694 74.8206V73.7999L154.084 72.969H155.012V80.3548H154.084Z" fill="#6A6A6A"/>
<path d="M164.978 19.6465C165.074 19.3507 165.492 19.3507 165.588 19.6465L166.22 21.5904C166.263 21.7227 166.386 21.8122 166.525 21.8122H168.569C168.88 21.8122 169.01 22.2101 168.758 22.3929L167.104 23.5943C166.992 23.6761 166.945 23.821 166.988 23.9532L167.619 25.8972C167.716 26.1929 167.377 26.4389 167.125 26.2561L165.472 25.0547C165.359 24.9729 165.207 24.9729 165.094 25.0547L163.441 26.2561C163.189 26.4389 162.851 26.1929 162.947 25.8972L163.579 23.9532C163.621 23.821 163.574 23.6761 163.462 23.5944L161.808 22.3929C161.557 22.2101 161.686 21.8122 161.997 21.8122H164.041C164.18 21.8122 164.303 21.7227 164.346 21.5904L164.978 19.6465Z" fill="#00313E"/>
<path d="M164.978 32.9089C165.074 32.6131 165.492 32.6131 165.588 32.9089L166.22 34.8528C166.263 34.9851 166.386 35.0746 166.525 35.0746H168.569C168.88 35.0746 169.01 35.4726 168.758 35.6553L167.104 36.8568C166.992 36.9385 166.945 37.0834 166.988 37.2157L167.619 39.1596C167.716 39.4553 167.377 39.7013 167.125 39.5185L165.472 38.3171C165.359 38.2353 165.207 38.2353 165.094 38.3171L163.441 39.5185C163.189 39.7013 162.851 39.4553 162.947 39.1596L163.579 37.2157C163.621 37.0834 163.574 36.9385 163.462 36.8568L161.808 35.6553C161.557 35.4726 161.686 35.0746 161.997 35.0746H164.041C164.18 35.0746 164.303 34.9851 164.346 34.8528L164.978 32.9089Z" fill="#00313E"/>
<path d="M164.978 46.1713C165.074 45.8756 165.492 45.8756 165.588 46.1713L166.22 48.1152C166.263 48.2475 166.386 48.337 166.525 48.337H168.569C168.88 48.337 169.01 48.735 168.758 48.9178L167.104 50.1192C166.992 50.2009 166.945 50.3458 166.988 50.4781L167.619 52.422C167.716 52.7178 167.377 52.9637 167.125 52.7809L165.472 51.5795C165.359 51.4977 165.207 51.4977 165.094 51.5795L163.441 52.7809C163.189 52.9637 162.851 52.7178 162.947 52.422L163.579 50.4781C163.621 50.3458 163.574 50.2009 163.462 50.1192L161.808 48.9178C161.557 48.735 161.686 48.337 161.997 48.337H164.041C164.18 48.337 164.303 48.2475 164.346 48.1152L164.978 46.1713Z" fill="#00313E"/>
<path d="M164.978 59.4337C165.074 59.138 165.492 59.138 165.588 59.4337L166.22 61.3777C166.263 61.5099 166.386 61.5995 166.525 61.5995H168.569C168.88 61.5995 169.01 61.9974 168.758 62.1802L167.104 63.3816C166.992 63.4633 166.945 63.6082 166.988 63.7405L167.619 65.6844C167.716 65.9802 167.377 66.2261 167.125 66.0433L165.472 64.8419C165.359 64.7602 165.207 64.7602 165.094 64.8419L163.441 66.0433C163.189 66.2261 162.851 65.9802 162.947 65.6844L163.579 63.7405C163.621 63.6082 163.574 63.4633 163.462 63.3816L161.808 62.1802C161.557 61.9974 161.686 61.5995 161.997 61.5995H164.041C164.18 61.5995 164.303 61.5099 164.346 61.3777L164.978 59.4337Z" fill="#00313E"/>
<path d="M164.978 72.6961C165.074 72.4004 165.492 72.4004 165.588 72.6961L166.22 74.6401C166.263 74.7723 166.386 74.8619 166.525 74.8619H168.569C168.88 74.8619 169.01 75.2598 168.758 75.4426L167.104 76.644C166.992 76.7257 166.945 76.8706 166.988 77.0029L167.619 78.9468C167.716 79.2426 167.377 79.4885 167.125 79.3057L165.472 78.1043C165.359 78.0226 165.207 78.0226 165.094 78.1043L163.441 79.3057C163.189 79.4885 162.851 79.2426 162.947 78.9468L163.579 77.0029C163.621 76.8706 163.574 76.7257 163.462 76.644L161.808 75.4426C161.557 75.2598 161.686 74.8619 161.997 74.8619H164.041C164.18 74.8619 164.303 74.7723 164.346 74.6401L164.978 72.6961Z" fill="#00313E"/>
<rect x="175.336" y="21.5161" width="111.129" height="3.41935" rx="1.70968" fill="#00313E"/>
<rect x="175.336" y="34.7661" width="71.8064" height="3.41935" rx="1.70968" fill="#00313E"/>
<rect x="175.336" y="48.0161" width="58.5564" height="3.41935" rx="1.70968" fill="#00313E"/>
<rect x="175.336" y="61.2661" width="34.621" height="3.41935" rx="1.70968" fill="#00313E"/>
<rect x="175.336" y="74.5161" width="14.9597" height="3.41935" rx="1.70968" fill="#00313E"/>
</svg>
