<svg width="50" height="50" viewBox="0 0 50 50" fill="none" xmlns="http://www.w3.org/2000/svg">
<path fill-rule="evenodd" clip-rule="evenodd" d="M25.4904 48.5587C35.8826 48.5587 45.0983 41.696 48.0394 31.696C39.8604 33.0591 31.042 29.671 25.4904 23.6567C19.9388 29.671 11.1205 33.0591 2.94141 31.696C6.07866 41.892 15.0983 48.5587 25.4904 48.5587Z" fill="#057475"/>
<path fill-rule="evenodd" clip-rule="evenodd" d="M49.0197 26.7939C49.0197 15.8017 43.1739 5.72053 32.1569 2.48022C33.1687 8.551 31.4243 15.1719 28.2354 20.3234C33.5069 25.846 41.5311 28.6661 49.0197 26.7939Z" fill="#69C5C5"/>
<path fill-rule="evenodd" clip-rule="evenodd" d="M22.5492 20.1273C19.2811 15.0995 17.6293 8.47031 18.6276 2.48022C7.69973 5.75859 1.96094 15.8948 1.96094 26.7939C9.41518 28.6575 17.5239 25.9064 22.5492 20.1273Z" fill="#69C5C5"/>
<path fill-rule="evenodd" clip-rule="evenodd" d="M25.4897 16.0098C27.0583 13.0686 27.8426 9.73529 27.8426 6.20588C27.8426 4.63726 27.6465 3.06863 27.2544 1.5C26.6661 1.5 26.0779 1.5 25.4897 1.5C24.9014 1.5 24.3132 1.5 23.725 1.5C23.3328 3.06863 23.1367 4.63726 23.1367 6.20588C23.1367 9.73529 24.1171 13.0686 25.4897 16.0098Z" fill="#057475"/>
</svg>
