<svg width="50" height="50" viewBox="0 0 50 50" fill="none" xmlns="http://www.w3.org/2000/svg">
<g clip-path="url(#clip0_611_4901)">
<path d="M8.51064 35.6427C8.51064 41.1274 1.37903e-06 41.1274 1.13928e-06 35.6427L0 4.57884C-2.3975e-07 -0.905838 8.51064 -0.905838 8.51064 4.57884V35.6427Z" fill="#FFF8F0"/>
<path d="M22.3426 45.7447C22.3426 51.2294 13.832 51.2294 13.832 45.7447V14.6809C13.832 9.19622 22.3426 9.19622 22.3426 14.6809V45.7447Z" fill="#FFF8F0"/>
<path d="M36.1708 35.6427C36.1708 41.1274 27.6602 41.1274 27.6602 35.6427V4.57884C27.6602 -0.905838 36.1708 -0.905838 36.1708 4.57884V35.6427Z" fill="#FFF8F0"/>
<path d="M49.9989 45.7447C49.9989 51.2294 41.4883 51.2294 41.4883 45.7447V15.6809C41.4883 10.1962 49.9989 10.1962 49.9989 15.6809V45.7447Z" fill="#FFF8F0"/>
</g>
<defs>
<clipPath id="clip0_611_4901">
<rect width="50" height="50" fill="white"/>
</clipPath>
</defs>
</svg>
