<svg width="50" height="50" viewBox="0 0 50 50" fill="none" xmlns="http://www.w3.org/2000/svg">
<path d="M41.9314 26C45.578 28.3026 48 32.3685 48 37C48 44.1797 42.1797 50 35 50C27.8203 50 22 44.1797 22 37C22 32.2389 24.6222 28.248 28.3066 26C32.5327 28.5647 37.8809 28.7518 41.9314 26Z" fill="#FFF8F0"/>
<path d="M22 13.0153C22.0203 8.70253 24.1849 4.49395 28.1126 2.03961C34.2014 -1.76505 42.2216 0.0865593 46.0262 6.17529C49.8309 12.2641 47.9793 20.2842 41.8905 24.0889C37.8529 26.6119 33.0789 26.503 29.22 24.5697C29.1555 19.6267 26.4801 14.9921 22 13.0153Z" fill="#FFF8F0"/>
<path d="M19.8376 36.6117C15.9949 38.5697 11.2623 38.5741 7.28114 36.2075C1.10953 32.5388 -0.919497 24.5617 2.74919 18.39C6.41788 12.2184 14.395 10.1894 20.5666 13.8581C24.6592 16.2909 26.7498 20.5842 26.7996 24.9C22.4355 27.2222 19.5419 31.7238 19.8376 36.6117Z" fill="#FFF8F0"/>
</svg>
