<svg width="50" height="50" viewBox="0 0 50 50" fill="none" xmlns="http://www.w3.org/2000/svg">
<path d="M49.8662 12.0624C50.4925 9.60553 49.0085 7.1061 46.5516 6.47982C44.0946 5.85355 41.5952 7.33758 40.9689 9.79451C40.3427 12.2514 41.8267 14.7509 44.2836 15.3771C46.7405 16.0034 49.24 14.5194 49.8662 12.0624Z" fill="#1C3CF1"/>
<path d="M34.4477 7.94628C38.6903 2.65222 31.2517 -2.66888 27.3643 2.18078C27.1462 2.39939 1.93817 33.466 1.76757 33.7248C-2.71175 39.3138 4.41428 45.0253 8.85094 39.4903C9.06886 39.2715 34.2771 8.20482 34.4477 7.94628Z" fill="#1C3CF1"/>
<path d="M40.0007 24.8616C44.0722 19.7814 36.9464 14.0701 32.9194 19.0942C32.6994 19.3142 15.5752 40.4938 15.4032 40.7547C11.3049 46.0625 18.4307 51.7737 22.4845 46.522C22.7045 46.302 39.829 25.1224 40.0007 24.8616Z" fill="#1C3CF1"/>
<path d="M8.55583 15.214C10.9255 14.3124 12.1156 11.6605 11.214 9.29076C10.3124 6.92106 7.66043 5.73095 5.29073 6.63259C2.92102 7.53422 1.73092 10.1862 2.63255 12.5559C3.53418 14.9256 6.18613 16.1157 8.55583 15.214Z" fill="#1C3CF1"/>
</svg>
