<svg width="51" height="51" viewBox="0 0 51 51" fill="none" xmlns="http://www.w3.org/2000/svg">
<g clip-path="url(#clip0_619_4961)">
<path d="M14.6067 33.6427C9.1977 33.6427 0.75 34.4195 0.75 26.6179C0.75 22.6496 3.63652 19.2075 7.77479 19.2075C21.2734 19.2075 32.21 30.1441 32.21 43.6427C32.21 47.5151 29.1039 50.7777 25.1852 50.7777C17.5025 50.7777 18.1604 42.5856 18.1604 37.224C18.1604 35.2405 16.5626 33.6427 14.6067 33.6427Z" fill="#FFF8F0"/>
<path d="M33.6461 14.6067C33.6461 9.1977 34.4229 0.75 26.6214 0.75C22.653 0.75 19.2109 3.63652 19.2109 7.77479C19.2109 21.2734 30.1475 32.2101 43.6461 32.2101C47.5185 32.2101 50.7811 29.104 50.7811 25.1853C50.7811 17.5025 42.589 18.1605 37.2274 18.1605C35.2439 18.1605 33.6461 16.5627 33.6461 14.6067Z" fill="#FFF8F0"/>
</g>
<defs>
<clipPath id="clip0_619_4961">
<rect width="51" height="51" fill="white"/>
</clipPath>
</defs>
</svg>
