<svg width="50" height="50" viewBox="0 0 50 50" fill="none" xmlns="http://www.w3.org/2000/svg">
<g clip-path="url(#clip0_619_4964)">
<path d="M17.5 12C17.5 10.8954 18.3954 10 19.5 10H30.5C31.6046 10 32.5 10.8954 32.5 12V38C32.5 39.1046 31.6046 40 30.5 40H19.5C18.3954 40 17.5 39.1046 17.5 38V12Z" fill="#FFF8F0"/>
<path fill-rule="evenodd" clip-rule="evenodd" d="M5 0H45C47.7614 0 50 2.23858 50 5V45C50 47.7614 47.7614 50 45 50H5C2.23858 50 0 47.7614 0 45V5C0 2.23858 2.23858 0 5 0ZM25 47C37.1503 47 47 37.1503 47 25C47 12.8497 37.1503 3 25 3C12.8497 3 3 12.8497 3 25C3 37.1503 12.8497 47 25 47Z" fill="#FFF8F0"/>
</g>
<defs>
<clipPath id="clip0_619_4964">
<rect width="50" height="50" fill="white"/>
</clipPath>
</defs>
</svg>
