<svg width="50" height="50" viewBox="0 0 50 50" fill="none" xmlns="http://www.w3.org/2000/svg">
<g clip-path="url(#clip0_619_4955)">
<path d="M33.3463 14.324C42.1184 14.3846 49.342 21.7227 49.2208 30.4543C49.1064 39.1523 41.9097 46.2683 33.2184 46.2885C24.4935 46.3087 17.2093 38.9638 17.2699 30.2187C17.3304 21.3861 24.5339 14.2702 33.3463 14.324ZM45.397 30.3197C45.4104 23.5337 39.917 18.0267 33.1646 18.0536C26.5401 18.0806 21.087 23.5538 21.0197 30.2456C20.9456 36.8499 26.4795 42.4444 33.0905 42.4646C39.9506 42.4915 45.3835 37.1327 45.397 30.3197Z" fill="#FFF8F0"/>
<path d="M23.1387 48.8601C14.0502 46.901 7.04198 37.6779 6.75923 27.9499C6.46301 17.8718 13.3298 8.56115 23.0848 5.80095C32.0184 3.27638 42.9111 6.92523 46.735 13.8594C36.5452 4.37612 20.4371 5.72786 12.9125 17.8112C7.29107 26.8391 8.71156 41.6701 23.1387 48.8601Z" fill="#FFF8F0"/>
<path d="M19.4329 50C9.07214 47.7667 1.08285 37.2524 0.760517 26.1626C0.422833 14.6737 8.25095 4.05968 19.3715 0.913082C29.5557 -1.96491 41.9733 2.19474 46.3325 10.0996C34.7162 -0.711218 16.3531 0.82975 7.77513 14.6046C1.36681 24.8963 2.98616 41.8035 19.4329 50Z" fill="#FFF8F0"/>
<path d="M46.3648 17.3939C36.2127 8.38629 23.9129 12.1698 18.6686 19.4742C15.2621 24.2271 14.2724 29.458 15.7468 35.0659C17.2009 40.5796 20.8094 44.417 26.3635 47.1772C18.8234 45.8576 12.751 38.3849 12.0441 30.2053C11.3237 21.7968 16.7903 13.5229 24.9497 10.6819C32.8062 7.94197 42.0158 10.7897 46.3648 17.3939Z" fill="#FFF8F0"/>
<path d="M33.2449 36.3987C36.6098 36.3987 39.3375 33.6709 39.3375 30.306C39.3375 26.9412 36.6098 24.2134 33.2449 24.2134C29.88 24.2134 27.1523 26.9412 27.1523 30.306C27.1523 33.6709 29.88 36.3987 33.2449 36.3987Z" fill="#FFF8F0"/>
</g>
<defs>
<clipPath id="clip0_619_4955">
<rect width="50" height="50" fill="white"/>
</clipPath>
</defs>
</svg>
