<svg width="50" height="50" viewBox="0 0 50 50" fill="none" xmlns="http://www.w3.org/2000/svg">
<g clip-path="url(#clip0_619_4967)">
<path fill-rule="evenodd" clip-rule="evenodd" d="M28.2617 49.8148C28.2617 50 28.2617 50 28.2617 50C56.1715 46.0752 55.897 4.31801 28.2617 0C28.2617 0.185185 28.2617 0.185188 28.2617 0.185188C28.2617 2.03704 28.4469 3.70371 28.8173 5.55556C48.9813 10.0822 49.1488 40.1559 28.6321 44.2593C28.4469 46.1111 28.2617 47.963 28.2617 49.8148Z" fill="#FFF8F0"/>
<path fill-rule="evenodd" clip-rule="evenodd" d="M21.0379 50.0002V49.815C21.0379 47.9632 20.8527 46.2965 20.4823 44.4446C0.489883 39.9565 0.0630417 10.0933 20.4823 5.92616C20.8527 4.25949 21.0379 2.40763 21.0379 0.555786V0.370605C-7.044 3.88084 -6.73083 46.0952 21.0379 50.0002Z" fill="#FFF8F0"/>
<path fill-rule="evenodd" clip-rule="evenodd" d="M24.5565 4.44434C23.4454 12.5925 19.1862 19.9999 12.5195 24.9999C19.1862 29.9999 23.4454 37.4073 24.5565 45.5555C25.6677 37.4073 30.1121 29.8147 36.7788 24.9999C30.1121 19.9999 25.6677 12.5925 24.5565 4.44434Z" fill="#FFF8F0"/>
</g>
<defs>
<clipPath id="clip0_619_4967">
<rect width="50" height="50" fill="white"/>
</clipPath>
</defs>
</svg>
