<svg width="218" height="100" viewBox="0 0 218 100" fill="none" xmlns="http://www.w3.org/2000/svg">
<rect width="218" height="100" rx="15" fill="#8DE6E1"/>
<path d="M25.299 42.6364V26.2727H26.3473V42.6364H25.299ZM28.5781 31.348C28.5099 30.7429 28.2287 30.2741 27.7344 29.9418C27.2401 29.6051 26.6179 29.4368 25.8679 29.4368C25.331 29.4368 24.8665 29.522 24.4744 29.6925C24.0824 29.8587 23.7777 30.0888 23.5604 30.3828C23.3473 30.6726 23.2408 31.0028 23.2408 31.3736C23.2408 31.6847 23.3132 31.9531 23.4581 32.179C23.6072 32.4048 23.8011 32.5945 24.0398 32.7479C24.2827 32.897 24.5426 33.0227 24.8196 33.125C25.0966 33.223 25.3629 33.304 25.6186 33.3679L26.897 33.7003C27.3146 33.8026 27.7429 33.9411 28.1818 34.1158C28.6207 34.2905 29.0277 34.5206 29.4027 34.8061C29.7777 35.0916 30.0803 35.4453 30.3104 35.8672C30.5447 36.2891 30.6619 36.794 30.6619 37.3821C30.6619 38.1236 30.4702 38.782 30.0866 39.3572C29.7074 39.9325 29.1555 40.3864 28.4311 40.7188C27.7109 41.0511 26.8395 41.2173 25.8168 41.2173C24.8366 41.2173 23.9886 41.0618 23.2727 40.7507C22.5568 40.4396 21.9964 39.9986 21.5916 39.4276C21.1868 38.8523 20.9631 38.1705 20.9205 37.3821H22.902C22.9403 37.8551 23.0938 38.2493 23.3622 38.5646C23.6349 38.8757 23.9822 39.108 24.4041 39.2614C24.8303 39.4105 25.2969 39.4851 25.804 39.4851C26.3622 39.4851 26.8587 39.3977 27.2933 39.223C27.7322 39.044 28.0774 38.7969 28.3288 38.4815C28.5803 38.1619 28.706 37.7891 28.706 37.3629C28.706 36.9751 28.5952 36.6577 28.3736 36.4105C28.1563 36.1634 27.8601 35.9588 27.4851 35.7969C27.1143 35.6349 26.6946 35.4922 26.2259 35.3686L24.679 34.9467C23.6307 34.6612 22.7997 34.2415 22.1861 33.6875C21.5767 33.1335 21.272 32.4006 21.272 31.4886C21.272 30.7344 21.4766 30.076 21.8857 29.5135C22.2947 28.951 22.8487 28.5142 23.5476 28.2031C24.2464 27.8878 25.0348 27.7301 25.9126 27.7301C26.799 27.7301 27.581 27.8857 28.2585 28.1967C28.9403 28.5078 29.4773 28.9361 29.8693 29.4815C30.2614 30.0227 30.4659 30.6449 30.483 31.348H28.5781ZM32.8432 41V39.5682L37.2729 34.9787C37.7459 34.4801 38.1358 34.0433 38.4426 33.6683C38.7537 33.2891 38.986 32.929 39.1394 32.5881C39.2928 32.2472 39.3695 31.8849 39.3695 31.5014C39.3695 31.0668 39.2672 30.6918 39.0627 30.3764C38.8581 30.0568 38.579 29.8118 38.2253 29.6413C37.8716 29.4666 37.4732 29.3793 37.03 29.3793C36.5613 29.3793 36.1522 29.4751 35.8027 29.6669C35.4533 29.8587 35.1848 30.1293 34.9973 30.4787C34.8098 30.8281 34.7161 31.2372 34.7161 31.706H32.8304C32.8304 30.9091 33.0137 30.2124 33.3801 29.6158C33.7466 29.0192 34.2495 28.5568 34.8887 28.2287C35.5279 27.8963 36.2544 27.7301 37.0684 27.7301C37.8908 27.7301 38.6152 27.8942 39.2417 28.2223C39.8723 28.5462 40.3645 28.9893 40.7182 29.5518C41.0719 30.1101 41.2488 30.7408 41.2488 31.4439C41.2488 31.9297 41.1571 32.4048 40.9739 32.8693C40.7949 33.3338 40.4817 33.8516 40.0343 34.4226C39.5868 34.9893 38.9647 35.6776 38.1678 36.4872L35.5662 39.2102V39.3061H41.4597V41H32.8432ZM48.2033 41.179C47.4022 41.179 46.682 41.0256 46.0428 40.7188C45.4078 40.4077 44.9007 39.9815 44.5215 39.4403C44.1422 38.8991 43.9398 38.2812 43.9142 37.5866H45.8319C45.8787 38.1491 46.128 38.6115 46.5797 38.9737C47.0314 39.3359 47.5726 39.517 48.2033 39.517C48.7061 39.517 49.1515 39.402 49.5392 39.1719C49.9313 38.9375 50.2381 38.6158 50.4597 38.2067C50.6855 37.7976 50.7985 37.331 50.7985 36.8068C50.7985 36.2741 50.6834 35.799 50.4533 35.3814C50.2232 34.9638 49.9057 34.6357 49.5009 34.397C49.1003 34.1584 48.6401 34.0369 48.1202 34.0327C47.7239 34.0327 47.3255 34.1009 46.9249 34.2372C46.5243 34.3736 46.2005 34.5526 45.9533 34.7741L44.1444 34.5057L44.8794 27.9091H52.0769V29.603H46.5222L46.1067 33.2656H46.1834C46.4391 33.0185 46.7779 32.8118 47.1998 32.6456C47.6259 32.4794 48.0819 32.3963 48.5676 32.3963C49.3645 32.3963 50.074 32.5859 50.6962 32.9652C51.3226 33.3445 51.8148 33.8622 52.1728 34.5185C52.535 35.1705 52.714 35.9205 52.7097 36.7685C52.714 37.6165 52.5222 38.3729 52.1344 39.0376C51.7509 39.7024 51.2182 40.2266 50.5364 40.6101C49.8588 40.9893 49.0811 41.179 48.2033 41.179ZM57.0819 39.2102L56.986 39.907C56.9221 40.4183 56.8134 40.951 56.66 41.505C56.5108 42.0632 56.3553 42.581 56.1934 43.0582C56.0357 43.5355 55.9057 43.9148 55.8034 44.196H54.4483C54.5037 43.9318 54.5804 43.5739 54.6784 43.1222C54.7765 42.6747 54.8723 42.174 54.9661 41.62C55.0598 41.0661 55.1301 40.5014 55.177 39.9261L55.2409 39.2102H57.0819ZM63.1399 27.9091V41H61.1584V29.8906H61.0817L57.9496 31.9361V30.044L61.2159 27.9091H63.1399ZM71.2386 41.2173C70.2287 41.2131 69.3658 40.9467 68.6499 40.4183C67.9339 39.8899 67.3864 39.1207 67.0071 38.1108C66.6278 37.1009 66.4382 35.8842 66.4382 34.4609C66.4382 33.0419 66.6278 31.8295 67.0071 30.8239C67.3906 29.8182 67.9403 29.0511 68.6562 28.5227C69.3764 27.9943 70.2372 27.7301 71.2386 27.7301C72.2401 27.7301 73.0987 27.9964 73.8146 28.5291C74.5305 29.0575 75.0781 29.8246 75.4574 30.8303C75.8409 31.8317 76.0327 33.0419 76.0327 34.4609C76.0327 35.8885 75.843 37.1072 75.4638 38.1172C75.0845 39.1229 74.5369 39.892 73.821 40.4247C73.1051 40.9531 72.2443 41.2173 71.2386 41.2173ZM71.2386 39.5107C72.125 39.5107 72.8175 39.0781 73.3161 38.2131C73.8189 37.348 74.0703 36.0973 74.0703 34.4609C74.0703 33.3743 73.9553 32.456 73.7251 31.706C73.4993 30.9517 73.1733 30.3807 72.7472 29.9929C72.3253 29.6009 71.8224 29.4048 71.2386 29.4048C70.3565 29.4048 69.6641 29.8395 69.1612 30.7088C68.6584 31.5781 68.4048 32.8288 68.4006 34.4609C68.4006 35.5518 68.5135 36.4744 68.7393 37.2287C68.9695 37.9787 69.2955 38.5476 69.7173 38.9354C70.1392 39.3189 70.6463 39.5107 71.2386 39.5107ZM82.8578 41.2173C81.8478 41.2131 80.9849 40.9467 80.269 40.4183C79.5531 39.8899 79.0055 39.1207 78.6262 38.1108C78.247 37.1009 78.0574 35.8842 78.0574 34.4609C78.0574 33.0419 78.247 31.8295 78.6262 30.8239C79.0098 29.8182 79.5595 29.0511 80.2754 28.5227C80.9956 27.9943 81.8564 27.7301 82.8578 27.7301C83.8592 27.7301 84.7179 27.9964 85.4338 28.5291C86.1497 29.0575 86.6973 29.8246 87.0765 30.8303C87.46 31.8317 87.6518 33.0419 87.6518 34.4609C87.6518 35.8885 87.4622 37.1072 87.0829 38.1172C86.7037 39.1229 86.1561 39.892 85.4402 40.4247C84.7243 40.9531 83.8635 41.2173 82.8578 41.2173ZM82.8578 39.5107C83.7441 39.5107 84.4366 39.0781 84.9352 38.2131C85.438 37.348 85.6895 36.0973 85.6895 34.4609C85.6895 33.3743 85.5744 32.456 85.3443 31.706C85.1184 30.9517 84.7924 30.3807 84.3663 29.9929C83.9444 29.6009 83.4416 29.4048 82.8578 29.4048C81.9757 29.4048 81.2832 29.8395 80.7804 30.7088C80.2775 31.5781 80.024 32.8288 80.0197 34.4609C80.0197 35.5518 80.1326 36.4744 80.3585 37.2287C80.5886 37.9787 80.9146 38.5476 81.3365 38.9354C81.7583 39.3189 82.2654 39.5107 82.8578 39.5107ZM90.7296 41.1214C90.3801 41.1214 90.0797 40.9979 89.8283 40.7507C89.5769 40.4993 89.4512 40.1967 89.4512 39.843C89.4512 39.4936 89.5769 39.1953 89.8283 38.9482C90.0797 38.6967 90.3801 38.571 90.7296 38.571C91.079 38.571 91.3794 38.6967 91.6309 38.9482C91.8823 39.1953 92.008 39.4936 92.008 39.843C92.008 40.0774 91.9483 40.2926 91.829 40.4886C91.714 40.6804 91.5605 40.8338 91.3688 40.9489C91.177 41.0639 90.964 41.1214 90.7296 41.1214ZM98.6254 41.2173C97.6154 41.2131 96.7525 40.9467 96.0366 40.4183C95.3207 39.8899 94.7731 39.1207 94.3938 38.1108C94.0146 37.1009 93.8249 35.8842 93.8249 34.4609C93.8249 33.0419 94.0146 31.8295 94.3938 30.8239C94.7773 29.8182 95.3271 29.0511 96.043 28.5227C96.7631 27.9943 97.6239 27.7301 98.6254 27.7301C99.6268 27.7301 100.485 27.9964 101.201 28.5291C101.917 29.0575 102.465 29.8246 102.844 30.8303C103.228 31.8317 103.419 33.0419 103.419 34.4609C103.419 35.8885 103.23 37.1072 102.85 38.1172C102.471 39.1229 101.924 39.892 101.208 40.4247C100.492 40.9531 99.631 41.2173 98.6254 41.2173ZM98.6254 39.5107C99.5117 39.5107 100.204 39.0781 100.703 38.2131C101.206 37.348 101.457 36.0973 101.457 34.4609C101.457 33.3743 101.342 32.456 101.112 31.706C100.886 30.9517 100.56 30.3807 100.134 29.9929C99.712 29.6009 99.2092 29.4048 98.6254 29.4048C97.7433 29.4048 97.0508 29.8395 96.5479 30.7088C96.0451 31.5781 95.7915 32.8288 95.7873 34.4609C95.7873 35.5518 95.9002 36.4744 96.1261 37.2287C96.3562 37.9787 96.6822 38.5476 97.104 38.9354C97.5259 39.3189 98.033 39.5107 98.6254 39.5107ZM110.008 41.179C109.207 41.179 108.487 41.0256 107.847 40.7188C107.213 40.4077 106.705 39.9815 106.326 39.4403C105.947 38.8991 105.744 38.2812 105.719 37.5866H107.637C107.683 38.1491 107.933 38.6115 108.384 38.9737C108.836 39.3359 109.377 39.517 110.008 39.517C110.511 39.517 110.956 39.402 111.344 39.1719C111.736 38.9375 112.043 38.6158 112.264 38.2067C112.49 37.7976 112.603 37.331 112.603 36.8068C112.603 36.2741 112.488 35.799 112.258 35.3814C112.028 34.9638 111.71 34.6357 111.306 34.397C110.905 34.1584 110.445 34.0369 109.925 34.0327C109.529 34.0327 109.13 34.1009 108.73 34.2372C108.329 34.3736 108.005 34.5526 107.758 34.7741L105.949 34.5057L106.684 27.9091H113.882V29.603H108.327L107.911 33.2656H107.988C108.244 33.0185 108.583 32.8118 109.004 32.6456C109.431 32.4794 109.887 32.3963 110.372 32.3963C111.169 32.3963 111.879 32.5859 112.501 32.9652C113.127 33.3445 113.619 33.8622 113.977 34.5185C114.34 35.1705 114.519 35.9205 114.514 36.7685C114.519 37.6165 114.327 38.3729 113.939 39.0376C113.556 39.7024 113.023 40.2266 112.341 40.6101C111.664 40.9893 110.886 41.179 110.008 41.179Z" fill="#00313E"/>
<path d="M20.6761 61.9119V60.8182H28.3125V61.9119H25.1108V71H23.8778V61.9119H20.6761ZM32.0511 71.1591C31.3617 71.1591 30.7569 70.995 30.2365 70.6669C29.7195 70.3388 29.3151 69.8797 29.0234 69.2898C28.7351 68.6998 28.5909 68.0104 28.5909 67.2216C28.5909 66.4261 28.7351 65.7318 29.0234 65.1385C29.3151 64.5452 29.7195 64.0845 30.2365 63.7564C30.7569 63.4283 31.3617 63.2642 32.0511 63.2642C32.7405 63.2642 33.3438 63.4283 33.8608 63.7564C34.3812 64.0845 34.7855 64.5452 35.0739 65.1385C35.3655 65.7318 35.5114 66.4261 35.5114 67.2216C35.5114 68.0104 35.3655 68.6998 35.0739 69.2898C34.7855 69.8797 34.3812 70.3388 33.8608 70.6669C33.3438 70.995 32.7405 71.1591 32.0511 71.1591ZM32.0511 70.1051C32.5748 70.1051 33.0057 69.9709 33.3438 69.7024C33.6818 69.4339 33.9321 69.081 34.0945 68.6435C34.2569 68.206 34.3381 67.732 34.3381 67.2216C34.3381 66.7112 34.2569 66.2356 34.0945 65.7947C33.9321 65.3539 33.6818 64.9976 33.3438 64.7259C33.0057 64.4541 32.5748 64.3182 32.0511 64.3182C31.5275 64.3182 31.0966 64.4541 30.7585 64.7259C30.4205 64.9976 30.1702 65.3539 30.0078 65.7947C29.8454 66.2356 29.7642 66.7112 29.7642 67.2216C29.7642 67.732 29.8454 68.206 30.0078 68.6435C30.1702 69.081 30.4205 69.4339 30.7585 69.7024C31.0966 69.9709 31.5275 70.1051 32.0511 70.1051ZM40.6234 63.3636V64.358H36.666V63.3636H40.6234ZM37.8194 61.5341H38.9927V68.8125C38.9927 69.1439 39.0408 69.3925 39.1369 69.5582C39.2363 69.7206 39.3623 69.83 39.5147 69.8864C39.6705 69.9394 39.8346 69.9659 40.0069 69.9659C40.1362 69.9659 40.2422 69.9593 40.3251 69.946C40.408 69.9295 40.4743 69.9162 40.524 69.9062L40.7626 70.9602C40.6831 70.9901 40.572 71.0199 40.4295 71.0497C40.287 71.0829 40.1064 71.0994 39.8876 71.0994C39.5562 71.0994 39.2314 71.0282 38.9132 70.8857C38.5983 70.7431 38.3365 70.526 38.1277 70.2344C37.9222 69.9427 37.8194 69.5748 37.8194 69.1307V61.5341ZM44.6355 71.179C44.1516 71.179 43.7124 71.0878 43.318 70.9055C42.9236 70.7199 42.6104 70.4531 42.3784 70.1051C42.1464 69.7538 42.0304 69.3295 42.0304 68.8324C42.0304 68.3949 42.1165 68.0402 42.2889 67.7685C42.4612 67.4934 42.6916 67.2779 42.9799 67.1222C43.2683 66.9664 43.5865 66.8504 43.9345 66.7741C44.2858 66.6946 44.6388 66.6316 44.9934 66.5852C45.4574 66.5256 45.8336 66.4808 46.122 66.451C46.4136 66.4179 46.6258 66.3632 46.7583 66.2869C46.8942 66.2107 46.9622 66.0781 46.9622 65.8892V65.8494C46.9622 65.3589 46.8279 64.9777 46.5595 64.706C46.2943 64.4342 45.8916 64.2983 45.3514 64.2983C44.7913 64.2983 44.3521 64.4209 44.0339 64.6662C43.7157 64.9115 43.492 65.1733 43.3627 65.4517L42.2491 65.054C42.448 64.59 42.7131 64.2287 43.0446 63.9702C43.3793 63.7083 43.7439 63.526 44.1383 63.4233C44.536 63.3172 44.9271 63.2642 45.3116 63.2642C45.5569 63.2642 45.8386 63.294 46.1568 63.3537C46.4783 63.41 46.7882 63.5277 47.0865 63.7067C47.3881 63.8857 47.6383 64.1558 47.8372 64.517C48.036 64.8783 48.1355 65.3622 48.1355 65.9688V71H46.9622V69.9659H46.9025C46.823 70.1316 46.6904 70.3089 46.5048 70.4979C46.3192 70.6868 46.0723 70.8475 45.764 70.9801C45.4558 71.1127 45.0796 71.179 44.6355 71.179ZM44.8145 70.125C45.2785 70.125 45.6696 70.0339 45.9877 69.8516C46.3092 69.6693 46.5512 69.4339 46.7136 69.1456C46.8793 68.8572 46.9622 68.554 46.9622 68.2358V67.1619C46.9125 67.2216 46.8031 67.2763 46.6341 67.326C46.4683 67.3724 46.2761 67.4138 46.0574 67.4503C45.8419 67.4834 45.6315 67.5133 45.426 67.5398C45.2238 67.563 45.0597 67.5829 44.9338 67.5994C44.6288 67.6392 44.3438 67.7038 44.0787 67.7933C43.8168 67.8795 43.6047 68.0104 43.4423 68.1861C43.2832 68.3584 43.2037 68.5937 43.2037 68.892C43.2037 69.2997 43.3545 69.608 43.6561 69.8168C43.961 70.0223 44.3471 70.125 44.8145 70.125ZM51.4503 60.8182V71H50.277V60.8182H51.4503ZM62.9458 65.0739L61.8919 65.3722C61.8256 65.1965 61.7278 65.0258 61.5985 64.8601C61.4726 64.6911 61.3002 64.5518 61.0815 64.4425C60.8627 64.3331 60.5827 64.2784 60.2413 64.2784C59.774 64.2784 59.3845 64.3861 59.073 64.6016C58.7647 64.8137 58.6106 65.0838 58.6106 65.4119C58.6106 65.7036 58.7167 65.9339 58.9288 66.103C59.1409 66.272 59.4724 66.4129 59.9231 66.5256L61.0566 66.804C61.7394 66.9697 62.2482 67.2232 62.5829 67.5646C62.9177 67.9027 63.085 68.3385 63.085 68.8722C63.085 69.3097 62.9591 69.7008 62.7072 70.0455C62.4586 70.3902 62.1106 70.6619 61.6632 70.8608C61.2157 71.0597 60.6954 71.1591 60.1021 71.1591C59.3232 71.1591 58.6786 70.9901 58.1681 70.652C57.6577 70.3139 57.3346 69.8201 57.1987 69.1705L58.3123 68.892C58.4184 69.303 58.6189 69.6113 58.9139 69.8168C59.2122 70.0223 59.6016 70.125 60.0822 70.125C60.6291 70.125 61.0633 70.009 61.3848 69.777C61.7096 69.5417 61.872 69.2599 61.872 68.9318C61.872 68.6667 61.7792 68.4446 61.5936 68.2656C61.408 68.0833 61.1229 67.9474 60.7385 67.858L59.4657 67.5597C58.7664 67.3939 58.2527 67.1371 57.9245 66.7891C57.5997 66.4377 57.4373 65.9986 57.4373 65.4716C57.4373 65.0407 57.5583 64.6596 57.8002 64.3281C58.0455 63.9967 58.3786 63.7365 58.7995 63.5476C59.2238 63.3587 59.7044 63.2642 60.2413 63.2642C60.997 63.2642 61.5903 63.4299 62.0211 63.7614C62.4553 64.0928 62.7636 64.5303 62.9458 65.0739ZM64.8512 73.8636V63.3636H65.9847V64.5767H66.1239C66.2101 64.4441 66.3294 64.2751 66.4819 64.0696C66.6377 63.8608 66.8597 63.6752 67.1481 63.5128C67.4397 63.3471 67.8342 63.2642 68.3313 63.2642C68.9743 63.2642 69.5411 63.425 70.0316 63.7464C70.5221 64.0679 70.9049 64.5237 71.18 65.1136C71.4551 65.7036 71.5927 66.3996 71.5927 67.2017C71.5927 68.0104 71.4551 68.7114 71.18 69.3047C70.9049 69.8946 70.5238 70.352 70.0366 70.6768C69.5494 70.9983 68.9876 71.1591 68.3512 71.1591C67.8607 71.1591 67.4679 71.0779 67.1729 70.9155C66.878 70.7498 66.6509 70.5625 66.4918 70.3537C66.3327 70.1416 66.2101 69.9659 66.1239 69.8267H66.0245V73.8636H64.8512ZM66.0046 67.1818C66.0046 67.7585 66.0891 68.2673 66.2582 68.7081C66.4272 69.1456 66.6741 69.4886 66.9989 69.7372C67.3237 69.9825 67.7215 70.1051 68.1921 70.1051C68.6826 70.1051 69.092 69.9759 69.4201 69.7173C69.7515 69.4555 70.0001 69.1042 70.1658 68.6634C70.3349 68.2192 70.4194 67.7254 70.4194 67.1818C70.4194 66.6449 70.3365 66.161 70.1708 65.7301C70.0084 65.2959 69.7615 64.9529 69.43 64.701C69.1019 64.4458 68.6893 64.3182 68.1921 64.3182C67.7148 64.3182 67.3138 64.4392 66.989 64.6811C66.6642 64.9197 66.4189 65.2545 66.2532 65.6854C66.0875 66.1129 66.0046 66.6117 66.0046 67.1818ZM76.5842 71.1591C75.8484 71.1591 75.2137 70.9967 74.68 70.6719C74.1497 70.3438 73.7404 69.8864 73.4521 69.2997C73.167 68.7098 73.0245 68.0237 73.0245 67.2415C73.0245 66.4593 73.167 65.7699 73.4521 65.1733C73.7404 64.5734 74.1415 64.1061 74.6552 63.7713C75.1722 63.4332 75.7754 63.2642 76.4648 63.2642C76.8626 63.2642 77.2553 63.3305 77.6431 63.4631C78.0309 63.5956 78.3839 63.8111 78.7021 64.1094C79.0202 64.4044 79.2738 64.7955 79.4627 65.2827C79.6516 65.7699 79.7461 66.3698 79.7461 67.0824V67.5795H73.8597V66.5653H78.5529C78.5529 66.1345 78.4667 65.75 78.2944 65.4119C78.1254 65.0739 77.8834 64.8071 77.5685 64.6115C77.257 64.416 76.8891 64.3182 76.4648 64.3182C75.9975 64.3182 75.5932 64.4342 75.2518 64.6662C74.9137 64.8949 74.6535 65.1932 74.4712 65.5611C74.2889 65.929 74.1978 66.3234 74.1978 66.7443V67.4205C74.1978 67.9972 74.2972 68.486 74.4961 68.8871C74.6983 69.2848 74.9783 69.5881 75.3363 69.7969C75.6942 70.0024 76.1102 70.1051 76.5842 70.1051C76.8924 70.1051 77.1708 70.062 77.4194 69.9759C77.6713 69.8864 77.8884 69.7538 78.0707 69.5781C78.253 69.3991 78.3938 69.1771 78.4933 68.9119L79.6268 69.2301C79.5075 69.6146 79.3069 69.9527 79.0252 70.2443C78.7435 70.5327 78.3955 70.758 77.9812 70.9205C77.5669 71.0795 77.1012 71.1591 76.5842 71.1591ZM82.7042 66.4062V71H81.5309V63.3636H82.6644V64.5568H82.7638C82.9428 64.169 83.2146 63.8575 83.5792 63.6222C83.9438 63.3835 84.4144 63.2642 84.9911 63.2642C85.5082 63.2642 85.9606 63.3703 86.3484 63.5824C86.7362 63.7912 87.0378 64.1094 87.2532 64.5369C87.4686 64.9612 87.5763 65.4981 87.5763 66.1477V71H86.4031V66.2273C86.4031 65.6274 86.2473 65.16 85.9357 64.8253C85.6242 64.4872 85.1966 64.3182 84.6531 64.3182C84.2785 64.3182 83.9438 64.3994 83.6488 64.5618C83.3571 64.7242 83.1268 64.9612 82.9577 65.2727C82.7887 65.5843 82.7042 65.9621 82.7042 66.4062ZM92.6039 71.1591C91.9675 71.1591 91.4057 70.9983 90.9185 70.6768C90.4313 70.352 90.0501 69.8946 89.775 69.3047C89.4999 68.7114 89.3624 68.0104 89.3624 67.2017C89.3624 66.3996 89.4999 65.7036 89.775 65.1136C90.0501 64.5237 90.4329 64.0679 90.9235 63.7464C91.414 63.425 91.9808 63.2642 92.6238 63.2642C93.1209 63.2642 93.5137 63.3471 93.802 63.5128C94.0937 63.6752 94.3158 63.8608 94.4682 64.0696C94.624 64.2751 94.745 64.4441 94.8311 64.5767H94.9306V60.8182H96.1039V71H94.9703V69.8267H94.8311C94.745 69.9659 94.6223 70.1416 94.4632 70.3537C94.3042 70.5625 94.0771 70.7498 93.7821 70.9155C93.4872 71.0779 93.0944 71.1591 92.6039 71.1591ZM92.763 70.1051C93.2336 70.1051 93.6313 69.9825 93.9561 69.7372C94.281 69.4886 94.5279 69.1456 94.6969 68.7081C94.8659 68.2673 94.9505 67.7585 94.9505 67.1818C94.9505 66.6117 94.8676 66.1129 94.7019 65.6854C94.5362 65.2545 94.2909 64.9197 93.9661 64.6811C93.6413 64.4392 93.2402 64.3182 92.763 64.3182C92.2658 64.3182 91.8515 64.4458 91.5201 64.701C91.1919 64.9529 90.945 65.2959 90.7793 65.7301C90.6169 66.161 90.5357 66.6449 90.5357 67.1818C90.5357 67.7254 90.6185 68.2192 90.7843 68.6634C90.9533 69.1042 91.2019 69.4555 91.53 69.7173C91.8614 69.9759 92.2724 70.1051 92.763 70.1051ZM98.4157 71V63.3636H99.589V71H98.4157ZM99.0123 62.0909C98.7836 62.0909 98.5864 62.013 98.4206 61.8572C98.2582 61.7015 98.177 61.5142 98.177 61.2955C98.177 61.0767 98.2582 60.8894 98.4206 60.7337C98.5864 60.5779 98.7836 60.5 99.0123 60.5C99.2409 60.5 99.4365 60.5779 99.5989 60.7337C99.7646 60.8894 99.8475 61.0767 99.8475 61.2955C99.8475 61.5142 99.7646 61.7015 99.5989 61.8572C99.4365 62.013 99.2409 62.0909 99.0123 62.0909ZM102.911 66.4062V71H101.738V63.3636H102.871V64.5568H102.971C103.15 64.169 103.422 63.8575 103.786 63.6222C104.151 63.3835 104.621 63.2642 105.198 63.2642C105.715 63.2642 106.168 63.3703 106.555 63.5824C106.943 63.7912 107.245 64.1094 107.46 64.5369C107.676 64.9612 107.783 65.4981 107.783 66.1477V71H106.61V66.2273C106.61 65.6274 106.454 65.16 106.143 64.8253C105.831 64.4872 105.404 64.3182 104.86 64.3182C104.486 64.3182 104.151 64.3994 103.856 64.5618C103.564 64.7242 103.334 64.9612 103.165 65.2727C102.996 65.5843 102.911 65.9621 102.911 66.4062ZM113.01 74.0227C112.443 74.0227 111.956 73.9498 111.548 73.804C111.14 73.6615 110.801 73.4725 110.529 73.2372C110.26 73.0052 110.047 72.7566 109.888 72.4915L110.822 71.8352C110.928 71.9744 111.063 72.1335 111.225 72.3125C111.387 72.4948 111.609 72.6522 111.891 72.7848C112.176 72.9207 112.549 72.9886 113.01 72.9886C113.626 72.9886 114.135 72.8395 114.536 72.5412C114.937 72.2429 115.138 71.7756 115.138 71.1392V69.5881H115.038C114.952 69.7273 114.829 69.8996 114.67 70.1051C114.515 70.3073 114.289 70.4879 113.994 70.647C113.702 70.8028 113.308 70.8807 112.811 70.8807C112.194 70.8807 111.641 70.7348 111.15 70.4432C110.663 70.1515 110.277 69.7273 109.992 69.1705C109.71 68.6136 109.569 67.9375 109.569 67.142C109.569 66.3598 109.707 65.6787 109.982 65.0987C110.257 64.5154 110.64 64.0646 111.131 63.7464C111.621 63.425 112.188 63.2642 112.831 63.2642C113.328 63.2642 113.722 63.3471 114.014 63.5128C114.309 63.6752 114.534 63.8608 114.69 64.0696C114.849 64.2751 114.972 64.4441 115.058 64.5767H115.177V63.3636H116.311V71.2188C116.311 71.875 116.162 72.4086 115.863 72.8196C115.568 73.2339 115.171 73.5372 114.67 73.7294C114.173 73.925 113.62 74.0227 113.01 74.0227ZM112.97 69.8267C113.441 69.8267 113.838 69.719 114.163 69.5036C114.488 69.2881 114.735 68.9782 114.904 68.5739C115.073 68.1695 115.157 67.6856 115.157 67.1222C115.157 66.572 115.075 66.0864 114.909 65.6655C114.743 65.2446 114.498 64.9148 114.173 64.6761C113.848 64.4375 113.447 64.3182 112.97 64.3182C112.473 64.3182 112.059 64.4441 111.727 64.696C111.399 64.9479 111.152 65.286 110.986 65.7102C110.824 66.1345 110.743 66.6051 110.743 67.1222C110.743 67.6525 110.826 68.1214 110.991 68.5291C111.16 68.9335 111.409 69.2517 111.737 69.4837C112.068 69.7124 112.479 69.8267 112.97 69.8267Z" fill="#00313E"/>
<rect x="122" y="57" width="40" height="19" rx="9.5" fill="#00313E"/>
<path d="M131.631 71.1193C131.131 71.1193 130.68 71.0199 130.28 70.821C129.879 70.6222 129.558 70.3494 129.317 70.0028C129.075 69.6562 128.943 69.2614 128.92 68.8182H129.943C129.983 69.2131 130.162 69.5398 130.48 69.7983C130.801 70.054 131.185 70.1818 131.631 70.1818C131.989 70.1818 132.307 70.098 132.585 69.9304C132.866 69.7628 133.087 69.5327 133.246 69.2401C133.408 68.9446 133.489 68.6108 133.489 68.2386C133.489 67.858 133.405 67.5185 133.237 67.2202C133.072 66.919 132.845 66.6818 132.555 66.5085C132.266 66.3352 131.935 66.2472 131.562 66.2443C131.295 66.2415 131.021 66.2827 130.74 66.3679C130.459 66.4503 130.227 66.5568 130.045 66.6875L129.057 66.5682L129.585 62.2727H134.119V63.2102H130.472L130.165 65.7841H130.216C130.395 65.642 130.619 65.5241 130.889 65.4304C131.159 65.3366 131.44 65.2898 131.733 65.2898C132.267 65.2898 132.743 65.4176 133.161 65.6733C133.581 65.9261 133.911 66.2727 134.149 66.7131C134.391 67.1534 134.511 67.6562 134.511 68.2216C134.511 68.7784 134.386 69.2756 134.136 69.7131C133.889 70.1477 133.548 70.4915 133.114 70.7443C132.679 70.9943 132.185 71.1193 131.631 71.1193ZM136.626 71.0682C136.416 71.0682 136.235 70.9929 136.085 70.8423C135.934 70.6918 135.859 70.5114 135.859 70.3011C135.859 70.0909 135.934 69.9105 136.085 69.7599C136.235 69.6094 136.416 69.5341 136.626 69.5341C136.836 69.5341 137.017 69.6094 137.167 69.7599C137.318 69.9105 137.393 70.0909 137.393 70.3011C137.393 70.4403 137.358 70.5682 137.287 70.6847C137.218 70.8011 137.126 70.8949 137.01 70.9659C136.896 71.0341 136.768 71.0682 136.626 71.0682ZM141.723 71.1193C141.081 71.1193 140.534 70.9446 140.082 70.5952C139.63 70.2429 139.285 69.733 139.047 69.0653C138.808 68.3949 138.689 67.5852 138.689 66.6364C138.689 65.6932 138.808 64.8878 139.047 64.2202C139.288 63.5497 139.635 63.0384 140.086 62.6861C140.541 62.331 141.086 62.1534 141.723 62.1534C142.359 62.1534 142.903 62.331 143.355 62.6861C143.809 63.0384 144.156 63.5497 144.395 64.2202C144.636 64.8878 144.757 65.6932 144.757 66.6364C144.757 67.5852 144.637 68.3949 144.399 69.0653C144.16 69.733 143.815 70.2429 143.363 70.5952C142.912 70.9446 142.365 71.1193 141.723 71.1193ZM141.723 70.1818C142.359 70.1818 142.853 69.875 143.206 69.2614C143.558 68.6477 143.734 67.7727 143.734 66.6364C143.734 65.8807 143.653 65.2372 143.491 64.706C143.332 64.1747 143.102 63.7699 142.801 63.4915C142.502 63.2131 142.143 63.0739 141.723 63.0739C141.092 63.0739 140.599 63.3849 140.244 64.0071C139.889 64.6264 139.711 65.5028 139.711 66.6364C139.711 67.392 139.791 68.0341 139.95 68.5625C140.109 69.0909 140.338 69.4929 140.636 69.7685C140.937 70.044 141.299 70.1818 141.723 70.1818ZM150.825 69.3636V68.9034C150.825 68.5852 150.89 68.294 151.021 68.0298C151.154 67.7628 151.348 67.5497 151.6 67.3906C151.856 67.2287 152.166 67.1477 152.529 67.1477C152.899 67.1477 153.208 67.2287 153.458 67.3906C153.708 67.5497 153.897 67.7628 154.025 68.0298C154.153 68.294 154.217 68.5852 154.217 68.9034V69.3636C154.217 69.6818 154.152 69.9744 154.021 70.2415C153.893 70.5057 153.703 70.7187 153.45 70.8807C153.2 71.0398 152.893 71.1193 152.529 71.1193C152.16 71.1193 151.849 71.0398 151.596 70.8807C151.343 70.7187 151.152 70.5057 151.021 70.2415C150.89 69.9744 150.825 69.6818 150.825 69.3636ZM151.694 68.9034V69.3636C151.694 69.6278 151.757 69.8651 151.882 70.0753C152.007 70.2827 152.223 70.3864 152.529 70.3864C152.828 70.3864 153.038 70.2827 153.16 70.0753C153.285 69.8651 153.348 69.6278 153.348 69.3636V68.9034C153.348 68.6392 153.288 68.4034 153.169 68.196C153.049 67.9858 152.836 67.8807 152.529 67.8807C152.231 67.8807 152.017 67.9858 151.886 68.196C151.758 68.4034 151.694 68.6392 151.694 68.9034ZM146.478 64.3693V63.9091C146.478 63.5909 146.544 63.2997 146.674 63.0355C146.808 62.7685 147.001 62.5554 147.254 62.3963C147.51 62.2344 147.819 62.1534 148.183 62.1534C148.552 62.1534 148.862 62.2344 149.112 62.3963C149.362 62.5554 149.551 62.7685 149.679 63.0355C149.806 63.2997 149.87 63.5909 149.87 63.9091V64.3693C149.87 64.6875 149.805 64.9801 149.674 65.2472C149.547 65.5114 149.356 65.7244 149.103 65.8864C148.853 66.0455 148.547 66.125 148.183 66.125C147.814 66.125 147.502 66.0455 147.25 65.8864C146.997 65.7244 146.805 65.5114 146.674 65.2472C146.544 64.9801 146.478 64.6875 146.478 64.3693ZM147.348 63.9091V64.3693C147.348 64.6335 147.41 64.8707 147.535 65.081C147.66 65.2884 147.876 65.392 148.183 65.392C148.481 65.392 148.691 65.2884 148.814 65.081C148.939 64.8707 149.001 64.6335 149.001 64.3693V63.9091C149.001 63.6449 148.941 63.4091 148.822 63.2017C148.703 62.9915 148.49 62.8864 148.183 62.8864C147.885 62.8864 147.67 62.9915 147.539 63.2017C147.412 63.4091 147.348 63.6449 147.348 63.9091ZM146.802 71L152.802 62.2727H153.774L147.774 71H146.802Z" fill="#FFF8F0"/>
</svg>
