<svg width="240" height="96" viewBox="0 0 240 96" fill="none" xmlns="http://www.w3.org/2000/svg">
<rect width="240" height="96" rx="15" fill="#EBFF74"/>
<path d="M28.5781 28.348C28.5099 27.7429 28.2287 27.2741 27.7344 26.9418C27.2401 26.6051 26.6179 26.4368 25.8679 26.4368C25.331 26.4368 24.8665 26.522 24.4744 26.6925C24.0824 26.8587 23.7777 27.0888 23.5604 27.3828C23.3473 27.6726 23.2408 28.0028 23.2408 28.3736C23.2408 28.6847 23.3132 28.9531 23.4581 29.179C23.6072 29.4048 23.8011 29.5945 24.0398 29.7479C24.2827 29.897 24.5426 30.0227 24.8196 30.125C25.0966 30.223 25.3629 30.304 25.6186 30.3679L26.897 30.7003C27.3146 30.8026 27.7429 30.9411 28.1818 31.1158C28.6207 31.2905 29.0277 31.5206 29.4027 31.8061C29.7777 32.0916 30.0803 32.4453 30.3104 32.8672C30.5447 33.2891 30.6619 33.794 30.6619 34.3821C30.6619 35.1236 30.4702 35.782 30.0866 36.3572C29.7074 36.9325 29.1555 37.3864 28.4311 37.7188C27.7109 38.0511 26.8395 38.2173 25.8168 38.2173C24.8366 38.2173 23.9886 38.0618 23.2727 37.7507C22.5568 37.4396 21.9964 36.9986 21.5916 36.4276C21.1868 35.8523 20.9631 35.1705 20.9205 34.3821H22.902C22.9403 34.8551 23.0938 35.2493 23.3622 35.5646C23.6349 35.8757 23.9822 36.108 24.4041 36.2614C24.8303 36.4105 25.2969 36.4851 25.804 36.4851C26.3622 36.4851 26.8587 36.3977 27.2933 36.223C27.7322 36.044 28.0774 35.7969 28.3288 35.4815C28.5803 35.1619 28.706 34.7891 28.706 34.3629C28.706 33.9751 28.5952 33.6577 28.3736 33.4105C28.1563 33.1634 27.8601 32.9588 27.4851 32.7969C27.1143 32.6349 26.6946 32.4922 26.2259 32.3686L24.679 31.9467C23.6307 31.6612 22.7997 31.2415 22.1861 30.6875C21.5767 30.1335 21.272 29.4006 21.272 28.4886C21.272 27.7344 21.4766 27.076 21.8857 26.5135C22.2947 25.951 22.8487 25.5142 23.5476 25.2031C24.2464 24.8878 25.0348 24.7301 25.9126 24.7301C26.799 24.7301 27.581 24.8857 28.2585 25.1967C28.9403 25.5078 29.4773 25.9361 29.8693 26.4815C30.2614 27.0227 30.4659 27.6449 30.483 28.348H28.5781ZM39.0882 33.9283V28.1818H41.0059V38H39.1266V36.2997H39.0243C38.7985 36.8239 38.4363 37.2607 37.9377 37.6101C37.4434 37.9553 36.8276 38.1278 36.0904 38.1278C35.4597 38.1278 34.9015 37.9893 34.4157 37.7124C33.9341 37.4311 33.5549 37.0156 33.2779 36.4659C33.0051 35.9162 32.8688 35.2365 32.8688 34.4268V28.1818H34.78V34.1967C34.78 34.8658 34.9654 35.3984 35.3361 35.7947C35.7069 36.1911 36.1884 36.3892 36.7807 36.3892C37.1387 36.3892 37.4945 36.2997 37.8482 36.1207C38.2061 35.9418 38.5023 35.6712 38.7367 35.3089C38.9753 34.9467 39.0925 34.4865 39.0882 33.9283ZM47.7095 38.1982C46.7592 38.1982 45.9411 37.983 45.255 37.5526C44.5732 37.1179 44.049 36.5192 43.6825 35.7564C43.3161 34.9936 43.1328 34.12 43.1328 33.1357C43.1328 32.1385 43.3203 31.2585 43.6953 30.4957C44.0703 29.7287 44.5987 29.13 45.2805 28.6996C45.9624 28.2692 46.7656 28.054 47.6903 28.054C48.4361 28.054 49.1009 28.1925 49.6847 28.4695C50.2685 28.7422 50.7393 29.1257 51.0973 29.62C51.4595 30.1143 51.6747 30.6918 51.7429 31.3523H49.8828C49.7805 30.892 49.5462 30.4957 49.1797 30.1634C48.8175 29.831 48.3317 29.6648 47.7223 29.6648C47.1896 29.6648 46.723 29.8054 46.3224 30.0866C45.9261 30.3636 45.6172 30.7599 45.3956 31.2756C45.174 31.7869 45.0632 32.392 45.0632 33.0909C45.0632 33.8068 45.1719 34.4247 45.3892 34.9446C45.6065 35.4645 45.9134 35.8672 46.3097 36.1527C46.7102 36.4382 47.1811 36.581 47.7223 36.581C48.0845 36.581 48.4126 36.5149 48.7067 36.3828C49.005 36.2464 49.2543 36.0526 49.4545 35.8011C49.6591 35.5497 49.8018 35.2472 49.8828 34.8935H51.7429C51.6747 35.5284 51.468 36.0952 51.1229 36.5938C50.7777 37.0923 50.3153 37.4844 49.7358 37.7699C49.1605 38.0554 48.4851 38.1982 47.7095 38.1982ZM57.9224 38.1982C56.9721 38.1982 56.1539 37.983 55.4679 37.5526C54.786 37.1179 54.2619 36.5192 53.8954 35.7564C53.5289 34.9936 53.3457 34.12 53.3457 33.1357C53.3457 32.1385 53.5332 31.2585 53.9082 30.4957C54.2832 29.7287 54.8116 29.13 55.4934 28.6996C56.1752 28.2692 56.9785 28.054 57.9032 28.054C58.649 28.054 59.3137 28.1925 59.8976 28.4695C60.4814 28.7422 60.9522 29.1257 61.3102 29.62C61.6724 30.1143 61.8876 30.6918 61.9558 31.3523H60.0957C59.9934 30.892 59.7591 30.4957 59.3926 30.1634C59.0304 29.831 58.5446 29.6648 57.9352 29.6648C57.4025 29.6648 56.9359 29.8054 56.5353 30.0866C56.139 30.3636 55.8301 30.7599 55.6085 31.2756C55.3869 31.7869 55.2761 32.392 55.2761 33.0909C55.2761 33.8068 55.3848 34.4247 55.6021 34.9446C55.8194 35.4645 56.1262 35.8672 56.5225 36.1527C56.9231 36.4382 57.394 36.581 57.9352 36.581C58.2974 36.581 58.6255 36.5149 58.9196 36.3828C59.2179 36.2464 59.4672 36.0526 59.6674 35.8011C59.872 35.5497 60.0147 35.2472 60.0957 34.8935H61.9558C61.8876 35.5284 61.6809 36.0952 61.3358 36.5938C60.9906 37.0923 60.5282 37.4844 59.9487 37.7699C59.3734 38.0554 58.698 38.1982 57.9224 38.1982ZM68.2312 38.1982C67.2638 38.1982 66.4308 37.9915 65.7319 37.5781C65.0373 37.1605 64.5004 36.5746 64.1211 35.8203C63.7461 35.0618 63.5586 34.1733 63.5586 33.1548C63.5586 32.1491 63.7461 31.2628 64.1211 30.4957C64.5004 29.7287 65.0288 29.13 65.7063 28.6996C66.3881 28.2692 67.185 28.054 68.0969 28.054C68.6509 28.054 69.1879 28.1456 69.7077 28.3288C70.2276 28.5121 70.6942 28.7997 71.1076 29.1918C71.521 29.5838 71.8469 30.093 72.0856 30.7195C72.3242 31.3416 72.4435 32.098 72.4435 32.9886V33.6662H64.6388V32.2344H70.5707C70.5707 31.7315 70.4684 31.2862 70.2638 30.8984C70.0593 30.5064 69.7717 30.1974 69.4009 29.9716C69.0344 29.7457 68.604 29.6328 68.1097 29.6328C67.5728 29.6328 67.104 29.7649 66.7035 30.0291C66.3072 30.2891 66.0004 30.63 65.783 31.0518C65.57 31.4695 65.4634 31.9233 65.4634 32.4134V33.532C65.4634 34.1882 65.5785 34.7464 65.8086 35.2067C66.043 35.6669 66.369 36.0185 66.7866 36.2614C67.2042 36.5 67.6921 36.6193 68.2504 36.6193C68.6126 36.6193 68.9428 36.5682 69.2411 36.4659C69.5394 36.3594 69.7972 36.2017 70.0146 35.9929C70.2319 35.7841 70.3981 35.5263 70.5131 35.2195L72.3221 35.5455C72.1772 36.0781 71.9173 36.5447 71.5423 36.9453C71.1715 37.3416 70.7049 37.6506 70.1424 37.8722C69.5842 38.0895 68.9471 38.1982 68.2312 38.1982ZM81.9213 30.5788L80.1891 30.8857C80.1167 30.6641 80.0016 30.4531 79.8439 30.2528C79.6905 30.0526 79.4817 29.8885 79.2175 29.7607C78.9533 29.6328 78.623 29.5689 78.2267 29.5689C77.6855 29.5689 77.2338 29.6903 76.8716 29.9332C76.5094 30.1719 76.3283 30.4808 76.3283 30.8601C76.3283 31.1882 76.4498 31.4524 76.6926 31.6527C76.9355 31.853 77.3276 32.017 77.8688 32.1449L79.4284 32.5028C80.3319 32.7116 81.0051 33.0334 81.4483 33.468C81.8915 33.9027 82.1131 34.4673 82.1131 35.1619C82.1131 35.75 81.9426 36.2741 81.6017 36.7344C81.2651 37.1903 80.7942 37.5483 80.1891 37.8082C79.5882 38.0682 78.8915 38.1982 78.0989 38.1982C76.9995 38.1982 76.1025 37.9638 75.4078 37.495C74.7132 37.022 74.2871 36.3509 74.1294 35.4815L75.9767 35.2003C76.0918 35.6818 76.3283 36.0462 76.6863 36.2933C77.0442 36.5362 77.5108 36.6577 78.0861 36.6577C78.7125 36.6577 79.2132 36.5277 79.5882 36.2678C79.9632 36.0036 80.1507 35.6818 80.1507 35.3026C80.1507 34.9957 80.0357 34.7379 79.8056 34.5291C79.5797 34.3203 79.2324 34.1626 78.7637 34.0561L77.1017 33.6918C76.1855 33.483 75.508 33.1506 75.0691 32.6946C74.6344 32.2386 74.4171 31.6612 74.4171 30.9624C74.4171 30.3828 74.579 29.8757 74.9029 29.4411C75.2267 29.0064 75.6742 28.6676 76.2452 28.4247C76.8162 28.1776 77.4703 28.054 78.2076 28.054C79.2686 28.054 80.1039 28.2841 80.7132 28.7443C81.3226 29.2003 81.7253 29.8118 81.9213 30.5788ZM91.5717 30.5788L89.8395 30.8857C89.767 30.6641 89.652 30.4531 89.4943 30.2528C89.3409 30.0526 89.1321 29.8885 88.8679 29.7607C88.6037 29.6328 88.2734 29.5689 87.8771 29.5689C87.3359 29.5689 86.8842 29.6903 86.522 29.9332C86.1598 30.1719 85.9787 30.4808 85.9787 30.8601C85.9787 31.1882 86.1001 31.4524 86.343 31.6527C86.5859 31.853 86.978 32.017 87.5192 32.1449L89.0788 32.5028C89.9822 32.7116 90.6555 33.0334 91.0987 33.468C91.5419 33.9027 91.7635 34.4673 91.7635 35.1619C91.7635 35.75 91.593 36.2741 91.2521 36.7344C90.9155 37.1903 90.4446 37.5483 89.8395 37.8082C89.2386 38.0682 88.5419 38.1982 87.7493 38.1982C86.6499 38.1982 85.7528 37.9638 85.0582 37.495C84.3636 37.022 83.9375 36.3509 83.7798 35.4815L85.6271 35.2003C85.7422 35.6818 85.9787 36.0462 86.3366 36.2933C86.6946 36.5362 87.1612 36.6577 87.7365 36.6577C88.3629 36.6577 88.8636 36.5277 89.2386 36.2678C89.6136 36.0036 89.8011 35.6818 89.8011 35.3026C89.8011 34.9957 89.6861 34.7379 89.456 34.5291C89.2301 34.3203 88.8828 34.1626 88.4141 34.0561L86.7521 33.6918C85.8359 33.483 85.1584 33.1506 84.7195 32.6946C84.2848 32.2386 84.0675 31.6612 84.0675 30.9624C84.0675 30.3828 84.2294 29.8757 84.5533 29.4411C84.8771 29.0064 85.3246 28.6676 85.8956 28.4247C86.4666 28.1776 87.1207 28.054 87.858 28.054C88.919 28.054 89.7543 28.2841 90.3636 28.7443C90.973 29.2003 91.3757 29.8118 91.5717 30.5788ZM98.5375 28.1818V29.7159H92.9892V28.1818H98.5375ZM94.5105 38V27.044C94.5105 26.4304 94.6447 25.9212 94.9132 25.5163C95.1816 25.1072 95.5375 24.8026 95.9806 24.6023C96.4238 24.3977 96.9054 24.2955 97.4252 24.2955C97.8088 24.2955 98.1369 24.3274 98.4096 24.3913C98.6824 24.451 98.8848 24.5064 99.0169 24.5575L98.5694 26.1044C98.4799 26.0788 98.3649 26.049 98.2243 26.0149C98.0836 25.9766 97.9132 25.9574 97.7129 25.9574C97.2484 25.9574 96.916 26.0724 96.7157 26.3026C96.5197 26.5327 96.4217 26.8651 96.4217 27.2997V38H94.5105ZM106.729 33.9283V28.1818H108.646V38H106.767V36.2997H106.665C106.439 36.8239 106.077 37.2607 105.578 37.6101C105.084 37.9553 104.468 38.1278 103.731 38.1278C103.1 38.1278 102.542 37.9893 102.056 37.7124C101.575 37.4311 101.195 37.0156 100.919 36.4659C100.646 35.9162 100.509 35.2365 100.509 34.4268V28.1818H102.421V34.1967C102.421 34.8658 102.606 35.3984 102.977 35.7947C103.347 36.1911 103.829 36.3892 104.421 36.3892C104.779 36.3892 105.135 36.2997 105.489 36.1207C105.847 35.9418 106.143 35.6712 106.377 35.3089C106.616 34.9467 106.733 34.4865 106.729 33.9283ZM113.126 24.9091V38H111.214V24.9091H113.126ZM25.8679 50.1818V51.7159H20.505V50.1818H25.8679ZM21.9432 47.8295H23.8544V57.1172C23.8544 57.4879 23.9098 57.767 24.0206 57.9545C24.1314 58.1378 24.2741 58.2635 24.4489 58.3317C24.6278 58.3956 24.8217 58.4276 25.0305 58.4276C25.1839 58.4276 25.3182 58.4169 25.4332 58.3956C25.5483 58.3743 25.6378 58.3572 25.7017 58.3445L26.0469 59.9233C25.9361 59.9659 25.7784 60.0085 25.5739 60.0511C25.3693 60.098 25.1136 60.1236 24.8068 60.1278C24.304 60.1364 23.8352 60.0469 23.4006 59.8594C22.9659 59.6719 22.6143 59.3821 22.3459 58.9901C22.0774 58.598 21.9432 58.1058 21.9432 57.5135V47.8295ZM27.9821 60V50.1818H29.8294V51.7415H29.9316C30.1106 51.2131 30.426 50.7976 30.8777 50.495C31.3336 50.1882 31.8493 50.0348 32.4245 50.0348C32.5439 50.0348 32.6845 50.0391 32.8464 50.0476C33.0126 50.0561 33.1426 50.0668 33.2363 50.0795V51.9077C33.1596 51.8864 33.0233 51.8629 32.8272 51.8374C32.6312 51.8075 32.4352 51.7926 32.2392 51.7926C31.7875 51.7926 31.3848 51.8885 31.0311 52.0803C30.6816 52.2678 30.4047 52.5298 30.2001 52.8665C29.9956 53.1989 29.8933 53.5781 29.8933 54.0043V60H27.9821ZM37.6596 60.2173C37.0375 60.2173 36.475 60.1023 35.9721 59.8722C35.4693 59.6378 35.0708 59.299 34.7768 58.8558C34.487 58.4126 34.3422 57.8693 34.3422 57.2259C34.3422 56.6719 34.4487 56.2159 34.6618 55.858C34.8748 55.5 35.1625 55.2166 35.5247 55.0078C35.8869 54.799 36.2917 54.6413 36.7392 54.5348C37.1866 54.4283 37.6426 54.3473 38.1071 54.2919C38.6951 54.2237 39.1724 54.1683 39.5389 54.1257C39.9054 54.0788 40.1717 54.0043 40.3379 53.902C40.5041 53.7997 40.5872 53.6335 40.5872 53.4034V53.3587C40.5872 52.8004 40.4295 52.3679 40.1142 52.0611C39.8031 51.7543 39.3386 51.6009 38.7207 51.6009C38.0772 51.6009 37.5701 51.7436 37.1994 52.0291C36.8329 52.3104 36.5794 52.6236 36.4387 52.9688L34.6426 52.5597C34.8556 51.9631 35.1667 51.4815 35.5758 51.1151C35.9892 50.7443 36.4643 50.4759 37.0012 50.3097C37.5382 50.1392 38.1028 50.054 38.6951 50.054C39.0872 50.054 39.5027 50.1009 39.9416 50.1946C40.3848 50.2841 40.7981 50.4503 41.1816 50.6932C41.5694 50.9361 41.8869 51.2834 42.1341 51.7351C42.3812 52.1825 42.5048 52.7642 42.5048 53.4801V60H40.6383V58.6577H40.5616C40.438 58.9048 40.2527 59.1477 40.0055 59.3864C39.7583 59.625 39.4409 59.8232 39.0531 59.9808C38.6653 60.1385 38.2008 60.2173 37.6596 60.2173ZM38.0751 58.6832C38.6035 58.6832 39.0552 58.5788 39.4302 58.37C39.8095 58.1612 40.0971 57.8885 40.2931 57.5518C40.4934 57.2109 40.5936 56.8466 40.5936 56.4588V55.1932C40.5254 55.2614 40.3933 55.3253 40.1973 55.3849C40.0055 55.4403 39.786 55.4893 39.5389 55.532C39.2917 55.5703 39.051 55.6065 38.8166 55.6406C38.5822 55.6705 38.3862 55.696 38.2285 55.7173C37.8578 55.7642 37.519 55.843 37.2122 55.9538C36.9096 56.0646 36.6667 56.2244 36.4835 56.4332C36.3045 56.6378 36.215 56.9105 36.215 57.2514C36.215 57.7244 36.3897 58.0824 36.7392 58.3253C37.0886 58.5639 37.5339 58.6832 38.0751 58.6832ZM46.9616 54.1705V60H45.0504V50.1818H46.8849V51.7798H47.0064C47.2322 51.2599 47.5859 50.8423 48.0675 50.527C48.5533 50.2116 49.1648 50.054 49.902 50.054C50.571 50.054 51.157 50.1946 51.6598 50.4759C52.1626 50.7528 52.5526 51.1662 52.8295 51.7159C53.1065 52.2656 53.245 52.9453 53.245 53.755V60H51.3338V53.9851C51.3338 53.2734 51.1484 52.7173 50.7777 52.3168C50.407 51.9119 49.8977 51.7095 49.25 51.7095C48.8068 51.7095 48.4126 51.8054 48.0675 51.9972C47.7266 52.1889 47.456 52.4702 47.2557 52.8409C47.0597 53.2074 46.9616 53.6506 46.9616 54.1705ZM63.1655 52.5788L61.4332 52.8857C61.3608 52.6641 61.2457 52.4531 61.0881 52.2528C60.9347 52.0526 60.7259 51.8885 60.4616 51.7607C60.1974 51.6328 59.8672 51.5689 59.4709 51.5689C58.9297 51.5689 58.478 51.6903 58.1158 51.9332C57.7536 52.1719 57.5724 52.4808 57.5724 52.8601C57.5724 53.1882 57.6939 53.4524 57.9368 53.6527C58.1797 53.853 58.5717 54.017 59.1129 54.1449L60.6726 54.5028C61.576 54.7116 62.2493 55.0334 62.6925 55.468C63.1357 55.9027 63.3572 56.4673 63.3572 57.1619C63.3572 57.75 63.1868 58.2741 62.8459 58.7344C62.5092 59.1903 62.0384 59.5483 61.4332 59.8082C60.8324 60.0682 60.1357 60.1982 59.343 60.1982C58.2436 60.1982 57.3466 59.9638 56.652 59.495C55.9574 59.022 55.5313 58.3509 55.3736 57.4815L57.2209 57.2003C57.3359 57.6818 57.5724 58.0462 57.9304 58.2933C58.2884 58.5362 58.755 58.6577 59.3303 58.6577C59.9567 58.6577 60.4574 58.5277 60.8324 58.2678C61.2074 58.0036 61.3949 57.6818 61.3949 57.3026C61.3949 56.9957 61.2798 56.7379 61.0497 56.5291C60.8239 56.3203 60.4766 56.1626 60.0078 56.0561L58.3459 55.6918C57.4297 55.483 56.7521 55.1506 56.3132 54.6946C55.8786 54.2386 55.6612 53.6612 55.6612 52.9624C55.6612 52.3828 55.8232 51.8757 56.147 51.4411C56.4709 51.0064 56.9183 50.6676 57.4893 50.4247C58.0604 50.1776 58.7145 50.054 59.4517 50.054C60.5128 50.054 61.348 50.2841 61.9574 50.7443C62.5668 51.2003 62.9695 51.8118 63.1655 52.5788ZM70.1312 50.1818V51.7159H64.5829V50.1818H70.1312ZM66.1042 60V49.044C66.1042 48.4304 66.2385 47.9212 66.5069 47.5163C66.7754 47.1072 67.1312 46.8026 67.5744 46.6023C68.0176 46.3977 68.4991 46.2955 69.019 46.2955C69.4025 46.2955 69.7306 46.3274 70.0034 46.3913C70.2761 46.451 70.4785 46.5064 70.6106 46.5575L70.1632 48.1044C70.0737 48.0788 69.9586 48.049 69.818 48.0149C69.6774 47.9766 69.5069 47.9574 69.3066 47.9574C68.8422 47.9574 68.5098 48.0724 68.3095 48.3026C68.1135 48.5327 68.0154 48.8651 68.0154 49.2997V60H66.1042ZM75.948 60.1982C74.9806 60.1982 74.1475 59.9915 73.4487 59.5781C72.7541 59.1605 72.2172 58.5746 71.8379 57.8203C71.4629 57.0618 71.2754 56.1733 71.2754 55.1548C71.2754 54.1491 71.4629 53.2628 71.8379 52.4957C72.2172 51.7287 72.7456 51.13 73.4231 50.6996C74.1049 50.2692 74.9018 50.054 75.8137 50.054C76.3677 50.054 76.9047 50.1456 77.4245 50.3288C77.9444 50.5121 78.411 50.7997 78.8244 51.1918C79.2377 51.5838 79.5637 52.093 79.8024 52.7195C80.041 53.3416 80.1603 54.098 80.1603 54.9886V55.6662H72.3556V54.2344H78.2875C78.2875 53.7315 78.1852 53.2862 77.9806 52.8984C77.7761 52.5064 77.4885 52.1974 77.1177 51.9716C76.7512 51.7457 76.3208 51.6328 75.8265 51.6328C75.2896 51.6328 74.8208 51.7649 74.4203 52.0291C74.024 52.2891 73.7172 52.63 73.4998 53.0518C73.2868 53.4695 73.1802 53.9233 73.1802 54.4134V55.532C73.1802 56.1882 73.2953 56.7464 73.5254 57.2067C73.7598 57.6669 74.0858 58.0185 74.5034 58.2614C74.921 58.5 75.4089 58.6193 75.9672 58.6193C76.3294 58.6193 76.6596 58.5682 76.9579 58.4659C77.2562 58.3594 77.514 58.2017 77.7314 57.9929C77.9487 57.7841 78.1149 57.5263 78.2299 57.2195L80.0389 57.5455C79.894 58.0781 79.6341 58.5447 79.2591 58.9453C78.8883 59.3416 78.4217 59.6506 77.8592 59.8722C77.301 60.0895 76.6639 60.1982 75.948 60.1982ZM82.2809 60V50.1818H84.1282V51.7415H84.2305C84.4094 51.2131 84.7248 50.7976 85.1765 50.495C85.6325 50.1882 86.1481 50.0348 86.7234 50.0348C86.8427 50.0348 86.9833 50.0391 87.1452 50.0476C87.3114 50.0561 87.4414 50.0668 87.5352 50.0795V51.9077C87.4585 51.8864 87.3221 51.8629 87.1261 51.8374C86.93 51.8075 86.734 51.7926 86.538 51.7926C86.0863 51.7926 85.6836 51.8885 85.3299 52.0803C84.9805 52.2678 84.7035 52.5298 84.4989 52.8665C84.2944 53.1989 84.1921 53.5781 84.1921 54.0043V60H82.2809Z" fill="#00313E"/>
<rect x="168" y="20" width="52" height="19" rx="9.5" fill="#00313E"/>
<path d="M177.477 35.0909V24.1818H178.176V35.0909H177.477ZM179.83 27.4545C179.778 27.0227 179.571 26.6875 179.207 26.4489C178.844 26.2102 178.398 26.0909 177.869 26.0909C177.483 26.0909 177.145 26.1534 176.855 26.2784C176.568 26.4034 176.344 26.5753 176.182 26.794C176.023 27.0128 175.943 27.2614 175.943 27.5398C175.943 27.7727 175.999 27.973 176.109 28.1406C176.223 28.3054 176.368 28.4432 176.544 28.554C176.72 28.6619 176.905 28.7514 177.098 28.8224C177.291 28.8906 177.469 28.946 177.631 28.9886L178.517 29.2273C178.744 29.2869 178.997 29.3693 179.276 29.4744C179.557 29.5795 179.825 29.723 180.081 29.9048C180.339 30.0838 180.553 30.3139 180.72 30.5952C180.888 30.8764 180.972 31.2216 180.972 31.6307C180.972 32.1023 180.848 32.5284 180.601 32.9091C180.357 33.2898 179.999 33.5923 179.527 33.8168C179.058 34.0412 178.489 34.1534 177.818 34.1534C177.193 34.1534 176.652 34.0526 176.195 33.8509C175.74 33.6491 175.382 33.3679 175.121 33.0071C174.862 32.6463 174.716 32.2273 174.682 31.75H175.773C175.801 32.0795 175.912 32.3523 176.105 32.5682C176.301 32.7812 176.548 32.9403 176.847 33.0455C177.148 33.1477 177.472 33.1989 177.818 33.1989C178.222 33.1989 178.584 33.1335 178.905 33.0028C179.226 32.8693 179.48 32.6847 179.668 32.4489C179.855 32.2102 179.949 31.9318 179.949 31.6136C179.949 31.3239 179.868 31.0881 179.706 30.9062C179.544 30.7244 179.331 30.5767 179.067 30.4631C178.803 30.3494 178.517 30.25 178.21 30.1648L177.136 29.858C176.455 29.6619 175.915 29.3821 175.517 29.0185C175.119 28.6548 174.92 28.179 174.92 27.5909C174.92 27.1023 175.053 26.6761 175.317 26.3125C175.584 25.946 175.942 25.6619 176.391 25.4602C176.842 25.2557 177.347 25.1534 177.903 25.1534C178.466 25.1534 178.966 25.2543 179.403 25.456C179.841 25.6548 180.188 25.9276 180.443 26.2741C180.702 26.6207 180.838 27.0142 180.852 27.4545H179.83ZM182.828 34L186.732 26.2784V26.2102H182.232V25.2727H187.823V26.2614L183.936 34H182.828ZM192.021 34.1193C191.521 34.1193 191.071 34.0199 190.67 33.821C190.27 33.6222 189.949 33.3494 189.707 33.0028C189.466 32.6562 189.334 32.2614 189.311 31.8182H190.334C190.374 32.2131 190.553 32.5398 190.871 32.7983C191.192 33.054 191.575 33.1818 192.021 33.1818C192.379 33.1818 192.697 33.098 192.976 32.9304C193.257 32.7628 193.477 32.5327 193.636 32.2401C193.798 31.9446 193.879 31.6108 193.879 31.2386C193.879 30.858 193.795 30.5185 193.628 30.2202C193.463 29.919 193.236 29.6818 192.946 29.5085C192.656 29.3352 192.325 29.2472 191.953 29.2443C191.686 29.2415 191.412 29.2827 191.131 29.3679C190.849 29.4503 190.618 29.5568 190.436 29.6875L189.447 29.5682L189.976 25.2727H194.51V26.2102H190.862L190.555 28.7841H190.607C190.786 28.642 191.01 28.5241 191.28 28.4304C191.55 28.3366 191.831 28.2898 192.124 28.2898C192.658 28.2898 193.134 28.4176 193.551 28.6733C193.972 28.9261 194.301 29.2727 194.54 29.7131C194.781 30.1534 194.902 30.6562 194.902 31.2216C194.902 31.7784 194.777 32.2756 194.527 32.7131C194.28 33.1477 193.939 33.4915 193.504 33.7443C193.07 33.9943 192.575 34.1193 192.021 34.1193ZM197.784 32.8068L197.716 33.267C197.667 33.5909 197.593 33.9375 197.494 34.3068C197.397 34.6761 197.297 35.0241 197.191 35.3509C197.086 35.6776 197 35.9375 196.931 36.1307H196.164C196.201 35.9489 196.25 35.7088 196.309 35.4105C196.369 35.1122 196.429 34.7784 196.488 34.4091C196.551 34.0426 196.602 33.6676 196.642 33.2841L196.693 32.8068H197.784ZM199.63 34V33.233L202.511 30.0795C202.849 29.7102 203.127 29.3892 203.346 29.1165C203.565 28.8409 203.727 28.5824 203.832 28.3409C203.94 28.0966 203.994 27.8409 203.994 27.5739C203.994 27.267 203.92 27.0014 203.772 26.777C203.627 26.5526 203.428 26.3793 203.175 26.2571C202.923 26.1349 202.638 26.0739 202.323 26.0739C201.988 26.0739 201.695 26.1435 201.445 26.2827C201.198 26.419 201.006 26.6108 200.87 26.858C200.737 27.1051 200.67 27.3949 200.67 27.7273H199.664C199.664 27.2159 199.782 26.767 200.018 26.3807C200.254 25.9943 200.575 25.6932 200.981 25.4773C201.39 25.2614 201.849 25.1534 202.357 25.1534C202.869 25.1534 203.322 25.2614 203.717 25.4773C204.112 25.6932 204.421 25.9844 204.646 26.3509C204.87 26.7173 204.982 27.125 204.982 27.5739C204.982 27.8949 204.924 28.2088 204.808 28.5156C204.694 28.8196 204.495 29.1591 204.211 29.5341C203.93 29.9062 203.539 30.3608 203.039 30.8977L201.079 32.9943V33.0625H205.136V34H199.63ZM209.742 34.1193C209.1 34.1193 208.553 33.9446 208.102 33.5952C207.65 33.2429 207.305 32.733 207.066 32.0653C206.827 31.3949 206.708 30.5852 206.708 29.6364C206.708 28.6932 206.827 27.8878 207.066 27.2202C207.308 26.5497 207.654 26.0384 208.106 25.6861C208.56 25.331 209.106 25.1534 209.742 25.1534C210.379 25.1534 210.923 25.331 211.374 25.6861C211.829 26.0384 212.175 26.5497 212.414 27.2202C212.656 27.8878 212.776 28.6932 212.776 29.6364C212.776 30.5852 212.657 31.3949 212.418 32.0653C212.18 32.733 211.835 33.2429 211.383 33.5952C210.931 33.9446 210.384 34.1193 209.742 34.1193ZM209.742 33.1818C210.379 33.1818 210.873 32.875 211.225 32.2614C211.577 31.6477 211.754 30.7727 211.754 29.6364C211.754 28.8807 211.673 28.2372 211.511 27.706C211.352 27.1747 211.121 26.7699 210.82 26.4915C210.522 26.2131 210.163 26.0739 209.742 26.0739C209.112 26.0739 208.619 26.3849 208.263 27.0071C207.908 27.6264 207.731 28.5028 207.731 29.6364C207.731 30.392 207.81 31.0341 207.969 31.5625C208.129 32.0909 208.357 32.4929 208.656 32.7685C208.957 33.044 209.319 33.1818 209.742 33.1818Z" fill="#FFF8F0"/>
<g clip-path="url(#clip0_654_5039)">
<path d="M196.068 74.9463L209.793 69.3017C210.169 69.1455 210.301 68.6865 210.072 68.3057C209.432 67.2266 208.089 65.1318 206.385 63.4277C204.735 61.7773 202.733 60.5176 201.688 59.9121C201.307 59.6924 200.853 59.8242 200.702 60.1953L195.052 73.9355C194.808 74.5312 195.467 75.1953 196.068 74.9463Z" fill="#ED3F03"/>
<path d="M201.775 72.6025L198.567 73.9209L196.082 71.4307L197.4 68.2275L201.775 72.6025Z" fill="#FCB424"/>
<path d="M207.58 70.21L204.377 71.5283L198.469 65.625L199.787 62.417L207.58 70.21Z" fill="#FCB424"/>
<path d="M206.918 62.9785C206.86 62.9199 206.855 62.8223 206.909 62.7539L212.241 56.2988L213.598 57.6563L207.143 62.9883C207.079 63.042 206.982 63.0371 206.918 62.9785Z" fill="#07B7EE"/>
<path d="M207.944 63.8623C208.735 63.1738 212.373 60.1904 215.879 60.6592L215.913 62.8076C215.913 62.8076 213.066 61.4795 208.169 64.1846C208.09 64.2285 207.998 64.2139 207.934 64.1504C207.856 64.0771 207.856 63.9502 207.929 63.8721C207.934 63.8672 207.939 63.8623 207.944 63.8623Z" fill="#ED3F03"/>
<path d="M206.035 61.958C206.724 61.167 209.707 57.5293 209.238 54.0234L207.09 53.9893C207.09 53.9893 208.423 56.8359 205.713 61.7334C205.669 61.8115 205.683 61.9043 205.747 61.9678C205.825 62.0459 205.947 62.0459 206.025 61.9678C206.03 61.9629 206.035 61.958 206.035 61.958Z" fill="#FCB424"/>
<path d="M215.744 54.1846C215.246 54.9902 215.251 55.7861 215.744 56.5918C215.749 56.6016 215.749 56.6162 215.739 56.6211C215.734 56.626 215.724 56.626 215.719 56.6211C214.909 56.1133 214.113 56.123 213.302 56.6211C213.293 56.626 213.278 56.626 213.273 56.6162C213.268 56.6113 213.268 56.6016 213.273 56.5967C213.781 55.7861 213.776 54.9951 213.278 54.1797C213.273 54.1699 213.273 54.1553 213.283 54.1504C213.288 54.1455 213.298 54.1455 213.307 54.1504C214.113 54.6533 214.904 54.6533 215.715 54.1553C215.724 54.1455 215.734 54.1455 215.744 54.1553C215.754 54.1602 215.754 54.1748 215.744 54.1846Z" fill="#07B7EE"/>
<path d="M219.978 62.3291C219.035 62.4219 218.41 62.9101 218.068 63.7988C218.063 63.8086 218.054 63.8135 218.039 63.8086C218.029 63.8037 218.024 63.7988 218.024 63.7891C217.932 62.8369 217.443 62.2119 216.555 61.875C216.545 61.8701 216.54 61.8603 216.545 61.8457C216.55 61.8359 216.555 61.831 216.564 61.831C217.517 61.7432 218.142 61.2549 218.483 60.3662C218.488 60.3564 218.498 60.3516 218.513 60.3564C218.522 60.3613 218.527 60.3662 218.527 60.376C218.62 61.3232 219.103 61.9482 219.987 62.29C219.997 62.2949 220.002 62.3096 219.997 62.3193C219.987 62.3242 219.982 62.3291 219.978 62.3291Z" fill="#ED3F03"/>
<path d="M207.669 50.0195C207.571 50.9619 207.088 51.5918 206.199 51.9287C206.189 51.9336 206.185 51.9434 206.189 51.958C206.194 51.9678 206.199 51.9726 206.209 51.9726C207.161 52.0605 207.786 52.5537 208.123 53.4424C208.128 53.4521 208.138 53.457 208.152 53.4521C208.162 53.4473 208.167 53.4424 208.167 53.4326C208.255 52.4805 208.743 51.8555 209.632 51.5137C209.642 51.5088 209.646 51.499 209.642 51.4844C209.637 51.4746 209.632 51.4697 209.622 51.4697C208.675 51.3769 208.05 50.8935 207.708 50.0098C207.703 50 207.693 49.9951 207.684 50C207.674 50.0049 207.669 50.0098 207.669 50.0195Z" fill="#FCB424"/>
<path d="M214.562 66.5479L214.435 67.0264C214.421 67.0752 214.435 67.1338 214.474 67.168L214.826 67.5147C214.884 67.5732 214.884 67.6611 214.831 67.7197C214.811 67.7393 214.787 67.7539 214.762 67.7588L214.284 67.8857C214.23 67.9004 214.191 67.9395 214.181 67.9883L214.054 68.4668C214.035 68.5449 213.957 68.5938 213.879 68.5742C213.849 68.5693 213.825 68.5547 213.81 68.5352L213.464 68.1885C213.424 68.1494 213.371 68.1348 213.322 68.1494L212.843 68.2764C212.765 68.3008 212.682 68.252 212.663 68.1738C212.653 68.1494 212.653 68.1201 212.663 68.0908L212.79 67.6123C212.804 67.5635 212.79 67.5049 212.751 67.4707L212.404 67.124C212.345 67.0654 212.345 66.9775 212.399 66.9189C212.419 66.8994 212.443 66.8848 212.467 66.8799L212.946 66.7529C212.995 66.7383 213.039 66.6992 213.048 66.6504L213.175 66.1719C213.195 66.0938 213.273 66.0449 213.351 66.0645C213.376 66.0693 213.4 66.084 213.42 66.1035L213.771 66.4502C213.81 66.4893 213.864 66.5039 213.913 66.4893L214.391 66.3623C214.469 66.3379 214.552 66.3867 214.572 66.46C214.567 66.4941 214.567 66.5234 214.562 66.5479Z" fill="#FCB424"/>
<path d="M204.09 56.0742L203.964 56.5527C203.949 56.6016 203.964 56.6602 204.003 56.6943L204.349 57.0459C204.408 57.1045 204.408 57.1924 204.354 57.251C204.335 57.2705 204.31 57.2852 204.286 57.29L203.807 57.417C203.758 57.4316 203.714 57.4707 203.705 57.5195L203.578 57.9981C203.558 58.0762 203.48 58.125 203.402 58.1055C203.378 58.1006 203.353 58.0859 203.334 58.0664L202.987 57.7197C202.948 57.6807 202.894 57.666 202.845 57.6807L202.367 57.8076C202.289 57.832 202.206 57.7832 202.186 57.71C202.176 57.6856 202.176 57.6563 202.186 57.627L202.313 57.1484C202.328 57.0996 202.313 57.041 202.274 57.0068L201.927 56.6602C201.869 56.6064 201.869 56.5137 201.923 56.4551C201.942 56.4356 201.966 56.4209 201.991 56.416L202.469 56.2891C202.518 56.2744 202.562 56.2354 202.572 56.1816L202.699 55.7031C202.718 55.625 202.797 55.5762 202.875 55.5957C202.899 55.6006 202.923 55.6152 202.943 55.6348L203.29 55.9863C203.329 56.0254 203.382 56.04 203.431 56.0254L203.91 55.8984C203.988 55.874 204.071 55.9229 204.09 56.001C204.095 56.0205 204.095 56.0498 204.09 56.0742Z" fill="#ED3F03"/>
</g>
<defs>
<clipPath id="clip0_654_5039">
<rect width="25" height="25" fill="white" transform="translate(195 50)"/>
</clipPath>
</defs>
</svg>
