<?xml version="1.0" encoding="utf-8"?>
<!-- Generator: Adobe Illustrator 27.5.0, SVG Export Plug-In . SVG Version: 6.00 Build 0)  -->
<svg version="1.1" xmlns="http://www.w3.org/2000/svg" xmlns:xlink="http://www.w3.org/1999/xlink" x="0px" y="0px"
	 viewBox="0 0 500 500" style="" xml:space="preserve">
<g id="BACKGROUND">
	<g>
		<path style="fill:#C6DFF4;" d="M154.911,457.17H52.634c-9.133,0-16.537-7.404-16.537-16.537l0,0
			c0-9.133,7.404-16.537,16.537-16.537h102.277c9.133,0,16.536,7.404,16.536,16.537l0,0
			C171.447,449.767,164.044,457.17,154.911,457.17z"/>
		<path style="fill:#C6DFF4;" d="M154.911,416.79H52.634c-9.133,0-16.537-7.404-16.537-16.536v0c0-9.133,7.404-16.536,16.537-16.536
			h102.277c9.133,0,16.536,7.404,16.536,16.536v0C171.447,409.386,164.044,416.79,154.911,416.79z"/>
		<path style="fill:#C6DFF4;" d="M154.911,376.409H52.634c-9.133,0-16.537-7.404-16.537-16.537l0,0
			c0-9.133,7.404-16.537,16.537-16.537h102.277c9.133,0,16.536,7.404,16.536,16.537l0,0
			C171.447,369.005,164.044,376.409,154.911,376.409z"/>
		<path style="fill:#C6DFF4;" d="M154.911,336.028H52.634c-9.133,0-16.537-7.404-16.537-16.537l0,0
			c0-9.133,7.404-16.537,16.537-16.537h102.277c9.133,0,16.536,7.404,16.536,16.537l0,0
			C171.447,328.625,164.044,336.028,154.911,336.028z"/>
	</g>
	<g>
		<path style="fill:#C6DFF4;" d="M449.384,457.17H347.106c-9.133,0-16.537-7.404-16.537-16.537l0,0
			c0-9.133,7.404-16.537,16.537-16.537h102.277c9.133,0,16.537,7.404,16.537,16.537l0,0
			C465.92,449.767,458.516,457.17,449.384,457.17z"/>
		<path style="fill:#C6DFF4;" d="M449.384,416.79H347.106c-9.133,0-16.537-7.404-16.537-16.536v0
			c0-9.133,7.404-16.536,16.537-16.536h102.277c9.133,0,16.537,7.404,16.537,16.536v0C465.92,409.386,458.516,416.79,449.384,416.79
			z"/>
		<path style="fill:#C6DFF4;" d="M449.384,376.409H347.106c-9.133,0-16.537-7.404-16.537-16.537l0,0
			c0-9.133,7.404-16.537,16.537-16.537h102.277c9.133,0,16.537,7.404,16.537,16.537l0,0
			C465.92,369.005,458.516,376.409,449.384,376.409z"/>
		<path style="fill:#C6DFF4;" d="M449.384,336.028H347.106c-9.133,0-16.537-7.404-16.537-16.537l0,0
			c0-9.133,7.404-16.537,16.537-16.537h102.277c9.133,0,16.537,7.404,16.537,16.537l0,0
			C465.92,328.625,458.516,336.028,449.384,336.028z"/>
	</g>
	<g>
		<path style="fill:#5F9B99;" d="M423.55,430.334c0,0,14.391-8.621,24.945-20.392c10.554-11.771,31.421-31.166,42.694-35.886
			c3.838,10.547,9.354,22.936-2.878,35.886c-12.233,12.95-18.469,9.807-24.945,21.817c-6.476,12.01-13.492,19.542-23.806,24.834
			h-38.317L423.55,430.334z"/>
		<path style="fill:#3D706F;" d="M480.276,386.535c-2.159,4.817-3.204,13.089-7.196,16.572
			c-10.614,9.264-29.236,12.24-35.099,16.822l0,0c3.507-2.906,7.199-6.291,10.513-9.987c10.554-11.771,31.421-31.166,42.694-35.886
			C487.227,376.075,482.434,381.718,480.276,386.535z"/>
		<path style="fill:none;stroke:#263631;stroke-width:0.671;stroke-miterlimit:10;" d="M487.831,380.608
			c-4.497,4.79-8.455,20.29-16.37,29.334c-7.915,9.043-10.434,10.723-19.788,16.677c-9.354,5.954-25.724,19.644-30.042,29.974"/>
		<path style="fill:#5F9B99;" d="M418.033,327.535c0,0-4.497,9.618-6.116,23.702c-1.5,13.052,0.72,15.693-2.159,30.499
			c-2.878,14.806-5.517,19.038-8.515,36.311c-2.998,17.273-5.157,38.545-5.157,38.545h-28.321c0,0,2.177-5.7,2.477-19.745
			c0.299-14.046-1.938-32.221,2.959-49.698C378.097,369.672,390.689,337.001,418.033,327.535z"/>
		<path style="fill:none;stroke:#263631;stroke-width:0.671;stroke-miterlimit:10;" d="M409.038,336.695
			c0,0-15.111,14.529-18.349,36.119c-3.238,21.59-0.36,61.997-3.238,72.888"/>
		<g>
			<path style="fill:#3D706F;" d="M479.196,332.444c0,0-13.432,4.454-22.307,5.472c-8.875,1.018-19.668,2.036-25.185,7.328
				c-5.517,5.293-5.517,18.117-12.952,22.188c-7.436,4.071-20.388,16.961-24.705,27.31c-4.317,10.349-6.956,30.298-7.196,38.237
				c-0.24,7.939-4.797,19.949-6.956,23.613h27.823c0,0,20.148-17.099,25.425-30.534c5.277-13.435,3.838-27.888,9.354-35.827
				s15.307-18.583,23.026-28.104C476.078,349.112,479.196,332.444,479.196,332.444z"/>
			<path style="fill:#5F9B99;" d="M442.498,390.232c-1.31,1.885-2.221,4.147-2.929,6.666c-0.001,0-0.009,0.005-0.009,0.005
				c1.979-18.274,5.577-28.883,12.293-34.774c6.716-5.891,25.185-21.11,27.344-29.684c0,0-3.118,16.668-13.672,29.684
				C457.805,371.649,448.015,382.293,442.498,390.232z"/>
			<path style="fill:none;stroke:#263631;stroke-width:0.671;stroke-miterlimit:10;" d="M470.082,338.934
				c-9.115,7.125-20.148,11.765-27.823,19.928c-7.675,8.163-17.914,24.897-24.225,36.484
				c-11.463,21.045-19.908,51.476-27.344,61.247"/>
		</g>
	</g>
	
		<line style="fill:none;stroke:#5A89C6;stroke-width:5;stroke-linecap:round;stroke-miterlimit:10;" x1="476.141" y1="457.832" x2="23.859" y2="457.832"/>
	<g>
		<g>
			<rect x="60.626" y="443.271" style="fill:#BCC4C9;" width="378.748" height="5.883"/>
			<path d="M225.468,441.008h47.709c1.321,0,2.391,1.07,2.391,2.391v1.553c0,1.321-1.07,2.391-2.391,2.391h-47.709
				c-1.32,0-2.391-1.071-2.391-2.391v-1.553C223.076,442.078,224.147,441.008,225.468,441.008z"/>
			<path style="fill:#282B38;" d="M97.279,244.476c0-3.169,2.569-5.739,5.739-5.739h293.964c3.169,0,5.739,2.569,5.739,5.739
				v198.795H97.279V244.476z"/>
			<rect x="105.452" y="248.32" style="fill:#C3D3F4;" width="289.55" height="184.09"/>
			<path style="fill:#DFE6EA;" d="M90.336,455.035c-11.34,0-23.814-1.882-29.71-5.882h189.601v5.882
				C201.088,454.799,100.996,455.035,90.336,455.035z"/>
			<path style="fill:#DFE6EA;" d="M409.664,455.035c11.339,0,23.813-1.882,29.71-5.882H249.773v5.882
				C298.912,454.799,399.005,455.035,409.664,455.035z"/>
		</g>
		<path style="fill:#FFFFFF;" d="M204.708,333.154h91.037c54.818,0,99.256,44.439,99.256,99.256v0h-289.55v0
			C105.452,377.592,149.89,333.154,204.708,333.154z"/>
		<g>
			<g>
				<path style="fill:#DC9530;" d="M329.292,263.686c-1.838-5.199-4.082-9.888-6.477-13.776l-5.121-14.485l-9.385,3.318
					c-5.972,2.111-6.259,16.702-0.643,32.589c5.617,15.887,15.012,27.055,20.983,24.943l9.385-3.318l-5.121-14.485
					C332.331,273.943,331.13,268.886,329.292,263.686z"/>
				<g>
					<path style="opacity:0.3;fill:#DC9530;" d="M330.667,273.184c0.41,1.861,0.732,3.694,0.96,5.454l0.016,0.137l4.049,11.454
						l-11.498,4.065c-3.521-2-7.858-7.165-11.631-14.708L330.667,273.184z"/>
					<path style="opacity:0.3;fill:#DC9530;" d="M328.068,264.119c0.564,1.595,1.072,3.201,1.523,4.8l-18.871,6.672
						c-0.638-1.491-1.252-3.06-1.829-4.692c-0.437-1.236-0.836-2.454-1.194-3.65l19.002-6.718
						C327.182,261.705,327.639,262.907,328.068,264.119z"/>
					<path style="opacity:0.3;fill:#DC9530;" d="M325.377,257.496l-18.562,6.562c-0.415-1.616-0.749-3.183-1.02-4.689l17.431-6.163
						C323.976,254.572,324.694,256.007,325.377,257.496z"/>
					<path style="opacity:0.3;fill:#DC9530;" d="M320.761,247.997l0.866,2.448l-16.309,5.766c-0.112-0.915-0.198-1.807-0.258-2.663
						L320.761,247.997z"/>
				</g>
				<path style="fill:#F4C77F;" d="M338.676,260.368c5.617,15.887,5.329,30.478-0.643,32.589
					c-5.972,2.111-15.366-9.056-20.983-24.943c-5.617-15.887-5.329-30.478,0.643-32.589
					C323.665,233.313,333.059,244.481,338.676,260.368z"/>
				<path style="fill:#E4B65A;" d="M335.073,261.642c3.745,10.593,3.553,20.319-0.43,21.727c-0.62,0.219-1.302,0.226-2.017,0.034
					c-3.862-1.031-8.814-7.726-11.973-16.662s-3.517-17.256-1.16-20.485c0.435-0.599,0.97-1.022,1.59-1.241
					C325.066,243.606,331.328,251.05,335.073,261.642z"/>
				<path style="fill:#DC9530;" d="M335.073,261.642c3.745,10.593,3.553,20.319-0.43,21.727c-0.62,0.219-1.302,0.226-2.017,0.034
					c2.356-3.229,1.999-11.549-1.16-20.485c-3.159-8.936-8.111-15.632-11.973-16.662c0.435-0.599,0.97-1.022,1.59-1.241
					C325.066,243.606,331.328,251.05,335.073,261.642z"/>
				<path style="fill:#FFDEAE;" d="M330.161,264.156c-0.503-0.632-1.051-1.056-1.644-1.272c0.223-0.517,0.315-1.125,0.278-1.827
					c-0.038-0.701-0.195-1.453-0.472-2.254c-0.469-1.358-1.113-2.353-1.93-2.987c-0.814-0.631-1.742-0.768-2.784-0.411l-1.144-3.308
					l-2.141,0.74l1.144,3.308l-2.061,0.712l5.939,17.177l2.061-0.712l1.139,3.294l2.141-0.74l-1.139-3.294l0.214-0.074
					c1.076-0.372,1.755-1.069,2.037-2.092c0.282-1.022,0.163-2.286-0.357-3.791C331.091,265.612,330.664,264.789,330.161,264.156z
					 M325.944,260.56c0.294,0.851,0.154,1.375-0.422,1.574l-1.233,0.426l-0.882-2.552l1.233-0.426
					C325.215,259.383,325.65,259.71,325.944,260.56z M328.137,268.537l-1.592,0.55l-0.933-2.699l1.592-0.55
					c0.583-0.202,1.03,0.148,1.341,1.047C328.856,267.785,328.72,268.336,328.137,268.537z"/>
			</g>
			<g>
				<path style="fill:#DC9530;" d="M133.394,319.558c1.838-5.199,4.082-9.888,6.477-13.776l5.121-14.485l9.385,3.318
					c5.972,2.111,6.259,16.702,0.643,32.589c-5.617,15.887-15.012,27.055-20.983,24.943l-9.385-3.318l5.121-14.485
					C130.354,329.814,131.556,324.757,133.394,319.558z"/>
				<g>
					<path style="opacity:0.3;fill:#DC9530;" d="M132.019,329.056c-0.41,1.861-0.732,3.694-0.96,5.454l-0.016,0.137l-4.049,11.454
						l11.498,4.065c3.521-2,7.858-7.165,11.631-14.708L132.019,329.056z"/>
					<path style="opacity:0.3;fill:#DC9530;" d="M134.618,319.99c-0.564,1.595-1.072,3.201-1.523,4.8l18.871,6.672
						c0.638-1.491,1.252-3.06,1.829-4.692c0.437-1.236,0.836-2.454,1.194-3.65l-19.002-6.718
						C135.504,317.577,135.047,318.779,134.618,319.99z"/>
					<path style="opacity:0.3;fill:#DC9530;" d="M137.309,313.367l18.561,6.562c0.415-1.616,0.749-3.183,1.02-4.689l-17.431-6.163
						C138.71,310.443,137.991,311.878,137.309,313.367z"/>
					<path style="opacity:0.3;fill:#DC9530;" d="M141.925,303.868l-0.865,2.448l16.309,5.766c0.112-0.915,0.198-1.807,0.258-2.663
						L141.925,303.868z"/>
				</g>
				<path style="fill:#F4C77F;" d="M124.009,316.24c-5.617,15.887-5.329,30.478,0.643,32.589
					c5.972,2.111,15.366-9.056,20.983-24.943c5.617-15.887,5.329-30.478-0.643-32.589
					C139.021,289.185,129.626,300.352,124.009,316.24z"/>
				<path style="fill:#E4B65A;" d="M127.612,317.513c-3.745,10.593-3.553,20.319,0.43,21.727c0.62,0.219,1.302,0.226,2.017,0.034
					c3.862-1.031,8.814-7.726,11.973-16.662c3.159-8.936,3.516-17.256,1.16-20.485c-0.435-0.599-0.97-1.022-1.59-1.241
					C137.62,299.477,131.357,306.921,127.612,317.513z"/>
				<path style="fill:#DC9530;" d="M127.612,317.513c-3.745,10.593-3.553,20.319,0.43,21.727c0.62,0.219,1.302,0.226,2.017,0.034
					c-2.356-3.229-1.999-11.549,1.16-20.485c3.159-8.936,8.111-15.632,11.973-16.662c-0.435-0.599-0.97-1.022-1.59-1.241
					C137.62,299.477,131.357,306.921,127.612,317.513z"/>
				<path style="fill:#FFDEAE;" d="M140.659,322.84c-0.005-0.808-0.175-1.479-0.508-2.016c0.495-0.269,0.943-0.69,1.347-1.265
					c0.404-0.575,0.744-1.263,1.021-2.064c0.469-1.358,0.578-2.538,0.327-3.541c-0.251-0.999-0.896-1.68-1.936-2.043l1.144-3.308
					l-2.141-0.74l-1.144,3.308l-2.061-0.712l-5.939,17.176l2.061,0.713l-1.139,3.294l2.141,0.74l1.139-3.294l0.214,0.074
					c1.076,0.372,2.041,0.243,2.894-0.387c0.853-0.63,1.54-1.697,2.061-3.202C140.492,324.559,140.664,323.648,140.659,322.84z
					 M139.564,317.407c-0.294,0.851-0.729,1.176-1.304,0.978l-1.233-0.426l0.882-2.552l1.233,0.426
					C139.717,316.031,139.858,316.557,139.564,317.407z M136.362,325.036l-1.592-0.55l0.933-2.699l1.592,0.55
					c0.583,0.202,0.719,0.752,0.408,1.652C137.391,324.888,136.944,325.237,136.362,325.036z"/>
			</g>
			<g>
				<path style="fill:#DC9530;" d="M373.234,357.942c0.395-13.49-7.548-25.009-18.534-28.171l0.02-0.696l-5.456-0.16
					c-13.695-0.401-25.168,11.945-25.625,27.575c-0.457,15.63,10.274,28.625,23.97,29.026l5.456,0.16l0.02-0.696
					C364.237,382.467,372.839,371.431,373.234,357.942z"/>
				<g>
					<path style="fill:#FFFFFF;stroke:#262425;stroke-width:0.7276;stroke-miterlimit:10;" d="M358.684,381.786l0.008-0.261
						c-0.153,0.085-0.308,0.166-0.463,0.247L358.684,381.786z"/>
					<path style="opacity:0.3;fill:#DC9530;" d="M326.42,367.485c2.073,5.87,5.91,10.719,10.791,13.673l21.018,0.615
						c0.155-0.082,0.31-0.162,0.463-0.247l0.383-13.085L326.42,367.485z"/>
					<path style="opacity:0.3;fill:#DC9530;" d="M354.136,358.523l-29.415-0.86c0.02,2.845,0.424,5.589,1.163,8.163l28.014,0.819
						L354.136,358.523z"/>
					<path style="opacity:0.3;fill:#DC9530;" d="M352.991,352.401l-27.716-0.811c-0.284,1.476-0.463,2.997-0.527,4.554l28.109,0.822
						L352.991,352.401z"/>
					<path style="opacity:0.3;fill:#DC9530;" d="M353.112,348.269l-26.746-0.782c-0.255,0.74-0.486,1.494-0.684,2.265l27.364,0.801
						L353.112,348.269z"/>
				</g>
				<g>
					
						<ellipse transform="matrix(0.0292 -0.9996 0.9996 0.0292 -13.6772 700.6689)" style="fill:#F4C77F;" cx="353.892" cy="357.376" rx="28.312" ry="24.808"/>
					<path style="opacity:0.3;fill:#DC9530;" d="M377.499,358.068c-0.435,14.857-11.378,26.632-24.395,26.251
						c-8.895-0.26-16.495-6.129-20.275-14.565c3.314,2.227,7.155,3.549,11.277,3.67c13.018,0.381,23.961-11.395,24.395-26.251
						c0.138-4.705-0.792-9.164-2.544-13.067C373.112,338.91,377.796,347.916,377.499,358.068z"/>
					<path style="fill:#DC9530;" d="M372.05,357.907c-0.335,11.447-8.736,20.487-18.766,20.194
						c-0.726-0.021-1.443-0.092-2.142-0.208c-8.979-1.473-15.722-10.43-15.411-21.048c0.311-10.618,7.565-19.166,16.615-20.112
						c0.705-0.074,1.425-0.103,2.151-0.082C364.527,336.944,372.385,346.46,372.05,357.907z"/>
					<path style="fill:#E4B65A;" d="M367.753,357.781c-0.311,10.618-7.557,19.162-16.611,20.112
						c-1.707-0.281-3.335-0.827-4.845-1.61c-3.485-1.801-6.363-4.827-8.235-8.584c-1.586-3.187-2.447-6.906-2.331-10.854
						c0.311-10.618,7.565-19.166,16.615-20.112C361.329,338.211,368.064,347.163,367.753,357.781z"/>
					<path style="fill:#FFDEAE;" d="M359.248,359.117c-0.444-0.862-1.083-1.526-1.918-1.991c0.665-0.449,1.173-1.048,1.525-1.795
						c0.352-0.747,0.538-1.595,0.56-2.544c0.037-1.607-0.42-2.905-1.372-3.896c-0.949-0.987-2.373-1.504-4.272-1.552l0.091-3.915
						l-3.907-0.091l-0.091,3.915l-3.76-0.088l-0.473,20.326l3.76,0.087l-0.091,3.898l3.906,0.091l0.091-3.898l0.39,0.009
						c1.963,0.046,3.474-0.408,4.533-1.362c1.059-0.953,1.609-2.32,1.65-4.102C359.9,361.011,359.692,359.98,359.248,359.117z
						 M354.526,353.661c-0.023,1.007-0.56,1.498-1.609,1.473l-2.249-0.052l0.07-3.02l2.249,0.052
						C354.037,352.139,354.55,352.655,354.526,353.661z M353.391,362.874l-2.904-0.068l0.074-3.194l2.904,0.068
						c1.063,0.025,1.582,0.57,1.558,1.634C354.999,362.379,354.455,362.899,353.391,362.874z"/>
					<path style="opacity:0.3;fill:#DC9530;" d="M366.563,357.747c-0.312,10.677-8.18,19.144-17.536,18.87
						c-0.933-0.027-1.843-0.14-2.73-0.334c-3.485-1.801-6.363-4.827-8.235-8.584c1.341,0.438,2.752,0.688,4.208,0.73
						c9.356,0.274,17.22-8.193,17.532-18.87c0.096-3.287-0.535-6.41-1.729-9.164C363.321,343.816,366.779,350.357,366.563,357.747z"
						/>
				</g>
			</g>
			<g>
				<path style="fill:#DC9530;" d="M237.492,224.411c-11.882-6.4-25.739-4.464-33.49,3.94l-0.613-0.33l-2.588,4.805
					c-6.497,12.063-0.605,27.852,13.162,35.267c13.767,7.415,30.193,3.648,36.691-8.415l2.588-4.805l-0.613-0.33
					C255.381,243.447,249.373,230.811,237.492,224.411z"/>
				<g>
					<path style="fill:#FFFFFF;stroke:#262425;stroke-width:0.7276;stroke-miterlimit:10;" d="M252.284,248.106l-0.23-0.124
						c0.008,0.175,0.01,0.35,0.014,0.525L252.284,248.106z"/>
					<path style="opacity:0.3;fill:#DC9530;" d="M225.037,270.535c6.176,0.778,12.231-0.478,17.059-3.517l9.971-18.512
						c-0.004-0.175-0.006-0.35-0.014-0.525l-11.525-6.208L225.037,270.535z"/>
					<path style="opacity:0.3;fill:#DC9530;" d="M229.45,241.743l-13.955,25.908c2.552,1.258,5.186,2.127,7.819,2.62l13.291-24.675
						L229.45,241.743z"/>
					<path style="opacity:0.3;fill:#DC9530;" d="M223.465,240.021l-13.149,24.412c1.192,0.915,2.471,1.757,3.834,2.513
						l13.336-24.758L223.465,240.021z"/>
					<path style="opacity:0.3;fill:#DC9530;" d="M219.825,238.061l-12.689,23.558c0.547,0.56,1.118,1.104,1.718,1.627l12.982-24.101
						L219.825,238.061z"/>
				</g>
				<g>
					
						<ellipse transform="matrix(0.4742 -0.8804 0.8804 0.4742 -92.5269 327.9599)" style="fill:#F4C77F;" cx="228.316" cy="241.447" rx="24.808" ry="28.312"/>
					<path style="opacity:0.3;fill:#DC9530;" d="M239.517,220.655c13.085,7.048,18.706,22.109,12.53,33.575
						c-4.22,7.835-12.873,11.997-22.108,11.594c3.476-1.964,6.38-4.805,8.336-8.436c6.176-11.466,0.555-26.526-12.53-33.575
						c-4.144-2.232-8.547-3.4-12.821-3.583C220.425,215.988,230.575,215.838,239.517,220.655z"/>
					<path style="fill:#DC9530;" d="M236.93,225.454c10.082,5.431,14.397,16.993,9.639,25.827c-0.344,0.639-0.729,1.248-1.146,1.822
						c-5.342,7.366-16.371,9.378-25.724,4.34c-9.352-5.038-13.741-15.355-10.529-23.868c0.249-0.664,0.546-1.32,0.891-1.959
						C214.819,222.782,226.848,220.023,236.93,225.454z"/>
					<path style="fill:#E4B65A;" d="M234.892,229.238c9.352,5.038,13.741,15.345,10.531,23.864c-1.017,1.4-2.235,2.611-3.611,3.609
						c-3.173,2.308-7.167,3.524-11.365,3.513c-3.56-0.01-7.27-0.909-10.748-2.782c-9.352-5.038-13.741-15.355-10.529-23.868
						C214.517,226.208,225.539,224.201,234.892,229.238z"/>
					<path style="fill:#FFDEAE;" d="M232.939,237.084c-1.01-0.014-1.986,0.277-2.93,0.871c0.075-0.913-0.078-1.748-0.459-2.504
						c-0.381-0.756-0.956-1.399-1.724-1.93c-1.301-0.899-2.68-1.133-4.136-0.702c-1.451,0.43-2.834,1.592-4.146,3.486l-3.171-2.191
						l-2.695,3.9l3.171,2.191l-2.594,3.753l16.463,11.376l2.594-3.753l3.157,2.182l2.695-3.9l-3.157-2.182l0.269-0.389
						c1.354-1.96,1.993-3.73,1.916-5.312c-0.077-1.581-0.836-2.87-2.279-3.867C234.94,237.441,233.949,237.098,232.939,237.084z
						 M225.269,238.932c0.815,0.563,0.861,1.369,0.137,2.417l-1.552,2.246l-2.446-1.69l1.552-2.245
						C223.684,238.611,224.454,238.368,225.269,238.932z M232.113,245.018l-2.003,2.899l-2.587-1.788l2.003-2.899
						c0.734-1.061,1.532-1.294,2.394-0.698C232.782,243.128,232.846,243.957,232.113,245.018z"/>
					<path style="opacity:0.3;fill:#DC9530;" d="M234.327,230.286c9.404,5.066,13.445,15.894,9.007,24.134
						c-0.442,0.821-0.951,1.584-1.522,2.291c-3.173,2.308-7.167,3.524-11.365,3.513c0.993-1.003,1.848-2.151,2.539-3.434
						c4.438-8.24,0.395-19.065-9.009-24.131c-2.896-1.56-5.97-2.395-8.967-2.562C220.421,226.94,227.818,226.781,234.327,230.286z"
						/>
				</g>
			</g>
		</g>
		<g>
			<defs>
				<rect id="SVGID_1_" x="105.452" y="248.32" width="289.55" height="184.09"/>
			</defs>
			<clipPath id="SVGID_00000066478258280874420360000002215508959502880391_">
				<use xlink:href="#SVGID_1_"  style="overflow:visible;"/>
			</clipPath>
			<g style="clip-path:url(#SVGID_00000066478258280874420360000002215508959502880391_);">
				<g>
					<path style="fill:#AA2236;" d="M303.103,434.92c0,0-58.976,29.144-74.729,31.413c-0.388,0.052-0.745,0.099-1.077,0.119
						c-3.125,0.21-6.807-0.943-9.538-3.445c-1.658-0.301-3.076-0.759-4.285-1.369c-4.261-2.115-5.97-5.896-7.029-10.151
						c-1.754-7.034-15.478-67.129-17.91-83.093c-1.216-7.977-1.425-12.879-0.667-16.078c0.758-3.199,2.49-4.685,5.135-5.832
						c5.3-2.293,28.551-11.38,58.088-20.787c29.537-9.407,38.829-3.607,38.829-3.607s-0.002,0.01-0.003,0.02l0.01,0.002
						l3.024,25.887L303.103,434.92z"/>
					<path style="opacity:0.3;fill:#4A6C8F;" d="M267.874,330.365c-0.494,0.2-0.999,0.409-1.512,0.605
						c-1.765,0.71-3.637,1.444-5.595,2.206c-0.635,0.25-1.28,0.498-1.936,0.755c-2.131,0.817-4.34,1.673-6.612,2.539
						c-0.786,0.298-1.584,0.605-2.382,0.911c-1.747,0.661-3.506,1.331-5.285,1.997c-4.422,1.67-8.897,3.353-13.188,4.972
						c-0.198,0.082-0.404,0.152-0.61,0.223l-0.002,0.01c-0.01-0.002-0.01-0.002-0.01-0.002c-2.587,0.971-5.098,1.924-7.51,2.83
						c-0.515,0.207-1.027,0.394-1.529,0.582c-0.284,0.11-0.568,0.219-0.852,0.329c-0.896,0.343-1.781,0.677-2.633,1.005
						c-8.521,3.247-14.774,5.72-15.932,6.494c-4.351,2.924-4.353,8.974-3.054,18.916c1.308,9.953,16.665,82.775,18.093,86.121
						c0.353,0.826,0.477,1.544,0.435,2.143c-1.66-0.29-3.076-0.759-4.285-1.369c-4.146-13.079-15.583-65.543-18.178-80.392
						c-2.992-17.038-4.329-25.886-2.488-27.673c0.667-0.656,9.548-4.165,21.06-8.475c0.436-0.158,0.873-0.326,1.32-0.492
						c0.949-0.355,1.909-0.708,2.879-1.069c0.459-0.175,0.928-0.348,1.396-0.521c2.125-0.777,4.305-1.576,6.506-2.382
						c0.349-0.13,0.708-0.259,1.067-0.388c2.409-0.886,4.836-1.759,7.252-2.624c1.568-0.566,3.134-1.122,4.669-1.673
						c3.199-1.143,6.328-2.235,9.272-3.253c0.587-0.206,1.174-0.412,1.739-0.611c1.237-0.422,2.431-0.831,3.58-1.216
						c0.554-0.191,1.086-0.374,1.617-0.548c1.984-0.665,3.817-1.282,5.472-1.814c0.507-0.157,0.985-0.318,1.449-0.461
						c2.076-0.661,3.809-1.17,5.084-1.505c0.366-0.107,0.697-0.189,0.985-0.257c0.128-0.031,0.266-0.061,0.395-0.092
						c10.306-2.382,12.593-2.158,12.593-2.158C281.619,324.587,276.139,327.047,267.874,330.365z"/>
					<g>
						<path style="fill:#DC9530;" d="M262.243,327.162c-0.046,0.291-0.093,0.591-0.158,0.879c-0.308,1.77-0.762,3.486-1.318,5.135
							c-0.635,0.25-1.28,0.498-1.936,0.755c-2.131,0.817-4.34,1.673-6.612,2.539c-0.786,0.298-1.584,0.605-2.382,0.911
							c-1.747,0.661-3.506,1.331-5.285,1.997c-4.422,1.67-8.897,3.353-13.188,4.972c-0.198,0.082-0.404,0.152-0.61,0.223
							l-0.002,0.01c-0.01-0.002-0.01-0.002-0.01-0.002c-2.587,0.971-5.098,1.924-7.51,2.83c-0.515,0.207-1.027,0.394-1.529,0.582
							c-0.284,0.11-0.568,0.219-0.852,0.329c-0.896,0.343-1.781,0.677-2.633,1.005c-1.594-1.236-3.046-2.655-4.35-4.235
							c-5.606-6.774-8.386-16.444-6.8-26.571c2.722-17.386,17.282-29.549,32.523-27.163l6.066,0.95l-0.121,0.772
							c5.591,2.406,10.151,6.808,13.164,12.365C262.055,311.632,263.482,319.251,262.243,327.162z"/>
						<g>
							<path style="opacity:0.3;fill:#DC9530;" d="M244.943,336.883l-0.391,2.497c-4.422,1.67-8.897,3.353-13.188,4.972
								c-0.198,0.082-0.404,0.152-0.61,0.223l-0.002,0.01c-0.01-0.002-0.01-0.002-0.01-0.002c-2.587,0.971-5.098,1.924-7.51,2.83
								c-0.515,0.207-1.027,0.394-1.529,0.582c-0.284,0.11-0.568,0.219-0.852,0.329l-2.116-0.331
								c-1.28-1.012-2.467-2.153-3.547-3.391c-3.173-3.681-5.461-8.292-6.571-13.407L244.943,336.883z"/>
							<path style="opacity:0.3;fill:#DC9530;" d="M240.836,325.111l-32.725-5.124c-0.38,3.18-0.318,6.301,0.144,9.28l31.167,4.88
								L240.836,325.111z"/>
							<path style="opacity:0.3;fill:#DC9530;" d="M240.424,318.113l-30.835-4.828c-0.525,1.608-0.941,3.281-1.233,5.01
								l31.272,4.896L240.424,318.113z"/>
							<path style="opacity:0.3;fill:#DC9530;" d="M241.144,313.516l-29.756-4.659c-0.389,0.79-0.754,1.6-1.084,2.432l30.443,4.767
								L241.144,313.516z"/>
						</g>
						<g>
							<path style="fill:#F4C77F;" d="M268.309,328.112c-0.119,0.762-0.259,1.521-0.435,2.253c-0.494,0.2-0.999,0.409-1.512,0.605
								c-1.765,0.71-3.637,1.444-5.595,2.206c-0.635,0.25-1.28,0.498-1.936,0.755c-2.131,0.817-4.34,1.673-6.612,2.539
								c-0.786,0.298-1.584,0.605-2.382,0.911c-1.747,0.661-3.506,1.331-5.285,1.997c-4.422,1.67-8.897,3.353-13.188,4.972
								c-0.198,0.082-0.404,0.152-0.61,0.223l-0.002,0.01c-0.01-0.002-0.01-0.002-0.01-0.002c-2.587,0.971-5.098,1.924-7.51,2.83
								c-0.515,0.207-1.027,0.394-1.529,0.582c-1.35-1.352-2.564-2.846-3.636-4.462c-2.241-3.402-3.863-7.344-4.697-11.594
								c-0.126-0.636-0.243-1.271-0.316-1.919c-0.426-2.984-0.473-6.094-0.079-9.268c0.046-0.424,0.102-0.847,0.169-1.278
								c0.022-0.141,0.044-0.281,0.076-0.42c0.282-1.733,0.687-3.405,1.216-5.007c0.21-0.686,0.437-1.349,0.704-2.006
								c0.305-0.836,0.658-1.643,1.049-2.435c5.617-11.858,17.326-19.198,29.468-17.297c14.679,2.298,24.624,17.251,22.893,33.878
								C268.49,326.825,268.409,327.47,268.309,328.112z"/>
							<path style="opacity:0.3;fill:#DC9530;" d="M266.986,327.905c-0.163,1.043-0.375,2.068-0.624,3.066
								c-1.765,0.71-3.637,1.444-5.595,2.206c-0.635,0.25-1.28,0.498-1.936,0.755c-2.131,0.817-4.34,1.673-6.612,2.539
								c-0.786,0.298-1.584,0.605-2.382,0.911c-1.747,0.661-3.506,1.331-5.285,1.997c-4.422,1.67-8.897,3.353-13.188,4.972
								c-0.198,0.082-0.404,0.152-0.61,0.223l-0.002,0.01c-0.01-0.002-0.01-0.002-0.01-0.002c-2.587,0.971-5.098,1.924-7.51,2.83
								c-1.398-1.308-2.665-2.79-3.769-4.401c-1.725-2.499-3.089-5.332-4.01-8.373c2.838,2.478,6.169,4.294,9.874,5.234
								c0.552,0.148,1.129,0.269,1.709,0.37c0.159,0.035,0.319,0.06,0.49,0.087c2.938,0.46,5.862,0.353,8.66-0.267
								c1.072-0.223,2.127-0.53,3.161-0.902c0.141-0.05,0.284-0.11,0.427-0.169c1.549-0.579,3.044-1.332,4.476-2.217
								c1.194-0.737,2.332-1.576,3.423-2.505c0,0-0.008-0.012,0.002-0.01c0.804-0.675,1.575-1.397,2.293-2.178
								c1.929-2.02,3.608-4.345,4.977-6.925c0.567-1.062,1.078-2.163,1.524-3.305c0.927-2.31,1.612-4.781,2.018-7.378
								c0.134-0.852,0.235-1.699,0.305-2.541c0.182-2.211,0.142-4.385-0.094-6.486c-0.214-2.047-0.622-4.032-1.208-5.931
								c7.013,6.121,10.935,16.237,9.678,27.022C267.118,326.991,267.058,327.444,266.986,327.905z"/>
							<path style="fill:#DC9530;" d="M260.929,326.957c-0.082,0.521-0.183,1.039-0.293,1.546c-0.413,1.918-1.026,3.732-1.805,5.429
								c-2.131,0.817-4.34,1.673-6.612,2.539c-0.786,0.298-1.584,0.605-2.382,0.911c-1.747,0.661-3.506,1.331-5.285,1.997
								c-4.422,1.67-8.897,3.353-13.188,4.972c-0.198,0.082-0.404,0.152-0.61,0.223c-0.077-0.033-0.153-0.075-0.227-0.128
								c-0.048-0.018-0.085-0.044-0.131-0.082c-0.264-0.154-0.516-0.317-0.766-0.49c-0.01-0.002-0.029-0.015-0.046-0.038
								c-0.01-0.002-0.01-0.002-0.02-0.003c-1.048-0.719-2.019-1.539-2.912-2.459c-0.194-0.205-0.388-0.41-0.58-0.625
								c-0.035-0.036-0.071-0.073-0.105-0.119c-0.132-0.144-0.253-0.286-0.375-0.428c-0.096-0.107-0.182-0.213-0.267-0.329
								c-0.199-0.237-0.387-0.482-0.573-0.737c-0.323-0.431-0.621-0.888-0.919-1.346c-0.492-0.796-0.939-1.616-1.338-2.48
								c-0.093-0.189-0.177-0.377-0.259-0.575c-0.137-0.309-0.263-0.616-0.388-0.934c-0.074-0.186-0.147-0.372-0.209-0.567
								c-0.012-0.053-0.026-0.097-0.048-0.151c-0.161-0.477-0.313-0.953-0.453-1.437c-0.041-0.13-0.074-0.248-0.116-0.378
								c-0.023-0.117-0.054-0.245-0.077-0.361c-0.325-1.273-0.54-2.591-0.658-3.934c-0.025-0.302-0.041-0.592-0.056-0.892
								c-0.017-0.218-0.023-0.445-0.018-0.67c-0.014-0.238-0.02-0.465-0.012-0.711c-0.008-0.34,0.003-0.678,0.025-1.013
								c0.001-0.267,0.023-0.541,0.035-0.816c0.029-0.314,0.059-0.638,0.089-0.962c0.046-0.424,0.102-0.847,0.169-1.278
								c0.022-0.141,0.044-0.281,0.076-0.42c0.293-1.741,0.759-3.404,1.366-4.984c0.25-0.68,0.537-1.333,0.855-1.982
								c0.397-0.832,0.842-1.635,1.32-2.392c4.028-6.437,10.68-10.48,17.785-10.323c0.799,0.012,1.599,0.086,2.411,0.213
								c6.407,1.003,11.59,5.297,14.458,11.19C260.925,316.293,261.779,321.532,260.929,326.957z"/>
							<path style="fill:#E4B65A;" d="M256.147,326.208c-0.223,1.424-0.55,2.79-0.982,4.109c-0.719,2.229-1.721,4.302-2.946,6.154
								c-0.786,0.298-1.584,0.605-2.382,0.911c-1.747,0.661-3.506,1.331-5.285,1.997c-4.422,1.67-8.897,3.353-13.188,4.972
								c-0.198,0.082-0.404,0.152-0.61,0.223l-0.002,0.01c-0.01-0.002-0.01-0.002-0.01-0.002c-0.075-0.042-0.151-0.085-0.215-0.136
								c-0.048-0.018-0.085-0.044-0.131-0.082c-0.264-0.154-0.516-0.317-0.766-0.49c-0.018-0.013-0.047-0.028-0.065-0.041
								c-1.048-0.719-2.019-1.539-2.912-2.459c-0.194-0.205-0.388-0.41-0.58-0.625c-0.035-0.036-0.071-0.073-0.105-0.119
								c-0.132-0.144-0.253-0.286-0.375-0.428c-0.096-0.107-0.182-0.213-0.267-0.329c-0.199-0.237-0.387-0.482-0.573-0.737
								c-0.323-0.431-0.621-0.888-0.919-1.346c-0.492-0.796-0.939-1.616-1.338-2.48c-0.093-0.189-0.177-0.377-0.259-0.575
								c-0.137-0.309-0.263-0.616-0.388-0.934c-0.064-0.184-0.137-0.371-0.199-0.565l-0.01-0.001
								c-0.012-0.053-0.026-0.097-0.048-0.151c-0.161-0.477-0.313-0.953-0.453-1.437c-0.031-0.128-0.074-0.248-0.096-0.374
								c-0.043-0.12-0.074-0.248-0.097-0.365c-0.325-1.273-0.54-2.591-0.658-3.934c-0.025-0.302-0.041-0.592-0.056-0.892
								c-0.017-0.218-0.023-0.445-0.018-0.67c-0.014-0.238-0.02-0.465-0.012-0.711c-0.008-0.34,0.003-0.678,0.025-1.013
								c0.001-0.267,0.023-0.541,0.035-0.816c0.029-0.314,0.059-0.638,0.089-0.962c0.046-0.424,0.102-0.847,0.169-1.278
								c0.022-0.141,0.044-0.281,0.076-0.42c0.293-1.741,0.759-3.404,1.366-4.984c0.25-0.68,0.537-1.333,0.855-1.982
								c0.397-0.832,0.842-1.635,1.32-2.392c4.028-6.437,10.68-10.48,17.785-10.323c8.6,2.548,14.457,11.262,14.546,21.322
								C256.482,323.281,256.378,324.734,256.147,326.208z"/>
							<path style="fill:#FFDEAE;" d="M247.976,327.06c-0.385-1.095-1.085-2.033-2.101-2.815c1.015-0.281,1.854-0.777,2.519-1.487
								c0.665-0.711,1.131-1.586,1.399-2.625c0.454-1.76,0.16-3.34-0.882-4.741c-1.039-1.395-2.841-2.426-5.404-3.091l1.107-4.289
								l-5.275-1.362l-1.107,4.289l-5.077-1.31l-5.748,22.268l5.077,1.31l-1.102,4.271l5.275,1.362l1.102-4.271l0.527,0.136
								c2.651,0.684,4.814,0.671,6.49-0.039c1.675-0.71,2.765-2.04,3.269-3.991C248.383,329.359,248.36,328.155,247.976,327.06z
								 M242.942,319.517c-0.285,1.103-1.136,1.471-2.553,1.105l-3.037-0.784l0.854-3.309l3.037,0.784
								C242.66,317.68,243.227,318.414,242.942,319.517z M239.088,329.313l-3.921-1.012l0.903-3.499l3.921,1.012
								c1.436,0.371,2.003,1.139,1.702,2.306C241.393,329.285,240.524,329.683,239.088,329.313z"/>
							<path style="opacity:0.3;fill:#DC9530;" d="M254.823,326c-0.267,1.704-0.696,3.332-1.275,4.865
								c-0.914,2.425-2.172,4.621-3.712,6.517c-1.747,0.661-3.506,1.331-5.285,1.997c-4.422,1.67-8.897,3.353-13.188,4.972
								c-0.605-0.136-1.206-0.302-1.779-0.515c-0.01-0.002-0.01-0.002-0.02-0.003c-1.048-0.719-2.019-1.539-2.912-2.459
								c-0.194-0.205-0.388-0.41-0.58-0.625c-0.035-0.036-0.071-0.073-0.105-0.119c-0.132-0.144-0.253-0.286-0.375-0.428
								c-0.096-0.107-0.182-0.213-0.267-0.329c-0.199-0.237-0.387-0.482-0.573-0.737c-0.323-0.431-0.621-0.888-0.919-1.346
								c-0.492-0.796-0.939-1.616-1.338-2.48c-0.093-0.189-0.177-0.377-0.259-0.575c-0.137-0.309-0.263-0.616-0.388-0.934
								c-0.064-0.184-0.137-0.371-0.199-0.565l-0.01-0.001c-0.012-0.053-0.026-0.097-0.048-0.151
								c0.153,0.075,0.317,0.142,0.479,0.219c1.289,0.561,2.674,0.963,4.108,1.188c1.354,0.212,2.702,0.259,4.026,0.137
								c0.062-0.001,0.133,0,0.198-0.021c1.625-0.146,3.207-0.535,4.717-1.131c0.447-0.166,0.889-0.364,1.323-0.574
								c0.312-0.157,0.634-0.311,0.939-0.49c0.9-0.496,1.76-1.07,2.579-1.712c0.28-0.213,0.551-0.438,0.814-0.674
								c0.568-0.476,1.1-0.989,1.607-1.536c1.342-1.423,2.523-3.057,3.484-4.868c1.117-2.085,1.942-4.401,2.413-6.885
								c0.062-0.267,0.106-0.548,0.15-0.829c0.275-1.755,0.361-3.487,0.255-5.168c-0.092-1.843-0.398-3.627-0.893-5.317
								c5.196,4.409,8.112,11.83,7.152,19.733C254.911,325.439,254.867,325.72,254.823,326z"/>
						</g>
					</g>
					<path style="fill:#CA404E;" d="M309.466,439.943c-0.409,0.511-1.115,1.089-2.089,1.727
						c-7.647,5.017-31.318,13.566-47.512,17.594c-12.858,3.195-24.427,7.475-31.492,7.068c-2.982-0.18-5.157-1.177-6.304-3.432
						c-3.871-7.622-14.556-60.163-17.349-77.16c-2.792-17.007-3.512-22.379,2.326-27.32c0,0,58.34-20.296,70.222-25.256
						c5.957-2.488,9.123-5.259,10.786-7.413c1.565-1.994,1.835-3.452,1.865-3.642c0.001-0.01,0.003-0.02,0.003-0.02
						s-0.002,0.01,0.007,0.022C290.27,323.798,313.071,435.485,309.466,439.943z"/>
					<g style="opacity:0.3;">
						<path style="fill:#4A6C8F;" d="M306.787,438.353c-3.876,3.564-28.196,13.11-47.661,17.962
							c-3.838,0.96-7.512,1.987-11.059,2.993c-8.308,2.346-16.163,4.557-20.495,3.879c-1.855-0.29-2.453-1-2.79-1.67
							c-3.645-7.165-14.217-58.981-17.057-76.272c-2.771-16.88-3.019-20.607,0.882-24.136c1.62-0.568,6.237-2.177,12.401-4.345
							c6.975,6.362,19.453,9.004,30.834,13.539c21.274,8.467-0.803,11.688-0.479,27.66c0.291,14.345,11.859,29.428,55.332,35.988
							C306.869,435.993,306.901,437.497,306.787,438.353z"/>
					</g>
				</g>
				<g>
					<path style="fill:#AA2236;" d="M239.489,386.502l0.982-3.159c0,0-2.154-1.799-3.831-1.672
						c-1.677,0.127-29.966,7.781-31.042,7.808c-1.076,0.026-15.086-8.209-15.086-8.209l-2.521,1.164c0,0,10.917,12.429,16.3,14.148
						C209.673,398.302,239.489,386.502,239.489,386.502z"/>
					<path style="fill:#CA404E;" d="M244.901,404.205c-0.227,2.697-30.317,10.651-33.18,10.891
						c-0.115,0.013-0.237,0.004-0.379-0.008c-3.652-0.356-18.2-7.822-18.669-9.025c-0.488-1.217-4.564-23.006-4.674-23.619
						c0.48,0.281,15.694,9.463,17.629,9.961l0.09,0.014c2.677,0.224,32.605-9.513,34.754-9.073
						C242.645,383.779,245.127,401.518,244.901,404.205z"/>
					<path style="opacity:0.3;fill:#4A6C8F;" d="M211.343,415.088c-3.652-0.356-18.2-7.822-18.669-9.025
						c-0.488-1.217-4.564-23.006-4.674-23.619c0.48,0.281,15.694,9.463,17.629,9.961l0.09,0.014
						C207.444,399.84,209.782,409.05,211.343,415.088z"/>
					<path style="opacity:0.3;fill:#4A6C8F;" d="M235.34,391.212c-5.088,1.477-2.658,11.375,2.666,10.357
						C243.33,400.551,240.138,389.819,235.34,391.212z"/>
				</g>
			</g>
		</g>
	</g>
	<g>
		<g>
			<g>
				<rect x="23.021" y="411.835" style="fill:#E4B65A;" width="76.072" height="14.397"/>
				<rect x="77.524" y="414.341" style="opacity:0.3;fill:#DC9530;" width="17.204" height="9.39"/>
				<rect x="60.074" y="414.341" style="opacity:0.3;fill:#DC9530;" width="12.811" height="9.39"/>
				<rect x="51.41" y="414.341" style="opacity:0.3;fill:#DC9530;" width="5.253" height="9.39"/>
				<polygon style="fill:#F4C77F;" points="99.093,411.837 99.093,411.954 23.023,417.471 23.023,411.837 				"/>
			</g>
			<g>
				<rect x="23.021" y="426.232" style="fill:#E4B65A;" width="76.072" height="14.406"/>
				<rect x="77.524" y="428.74" style="opacity:0.3;fill:#DC9530;" width="17.204" height="9.39"/>
				<rect x="60.074" y="428.74" style="opacity:0.3;fill:#DC9530;" width="12.811" height="9.39"/>
				<rect x="51.41" y="428.74" style="opacity:0.3;fill:#DC9530;" width="5.253" height="9.39"/>
				<polygon style="fill:#F4C77F;" points="99.093,426.235 99.093,426.352 23.023,431.87 23.023,426.235 				"/>
			</g>
			<g>
				<rect x="23.021" y="440.638" style="fill:#E4B65A;" width="76.072" height="14.397"/>
				<rect x="77.524" y="443.138" style="opacity:0.3;fill:#DC9530;" width="17.204" height="9.39"/>
				<rect x="60.074" y="443.138" style="opacity:0.3;fill:#DC9530;" width="12.811" height="9.39"/>
				<rect x="51.41" y="443.138" style="opacity:0.3;fill:#DC9530;" width="5.253" height="9.39"/>
				<polygon style="fill:#F4C77F;" points="99.093,440.634 99.093,440.751 23.023,446.268 23.023,440.634 				"/>
			</g>
		</g>
		<path style="opacity:0.3;fill:#DC9530;" d="M99.093,411.835v43.2h-8.012c-3.732-3.934-7.481-8.82-10.901-14.397
			c-0.084-0.143-0.177-0.287-0.261-0.43c-2.881-4.751-5.223-9.503-6.967-13.976c-2.089-5.35-3.328-10.303-3.631-14.397H99.093z"/>
		<g>
			<path style="fill:#DC9530;" d="M111.748,415.242c-4.626-4.822-9.445-8.877-14.03-11.973L84.83,389.836l-8.703,8.35
				c-5.538,5.313,1.431,21.564,15.566,36.297c14.135,14.733,30.083,22.37,35.621,17.057l8.703-8.35l-12.888-13.433
				C120.226,425.046,116.374,420.064,111.748,415.242z"/>
			<g>
				<path style="opacity:0.3;fill:#DC9530;" d="M118.009,425.04c1.382,1.849,2.653,3.712,3.783,5.541l0.086,0.143l10.19,10.622
					l-10.663,10.23c-4.886-0.45-12.253-3.985-20.185-10.428L118.009,425.04z"/>
				<path style="opacity:0.3;fill:#DC9530;" d="M110.613,416.331c1.419,1.479,2.782,2.999,4.078,4.539l-17.501,16.79
					c-1.449-1.328-2.91-2.753-4.362-4.266c-1.1-1.147-2.148-2.292-3.141-3.433l17.622-16.906
					C108.43,414.109,109.534,415.207,110.613,416.331z"/>
				<path style="opacity:0.3;fill:#DC9530;" d="M104.335,410.363l-17.213,16.514c-1.265-1.577-2.416-3.139-3.467-4.667
					l16.165-15.508C101.328,407.835,102.838,409.06,104.335,410.363z"/>
				<path style="opacity:0.3;fill:#DC9530;" d="M94.495,402.182l2.178,2.27l-15.124,14.51c-0.581-0.954-1.122-1.896-1.614-2.811
					L94.495,402.182z"/>
			</g>
			<path style="fill:#F4C77F;" d="M120.451,406.892c14.135,14.733,21.104,30.984,15.566,36.297
				c-5.538,5.313-21.486-2.323-35.621-17.057c-14.135-14.733-21.104-30.984-15.566-36.297
				C90.368,384.523,106.316,392.159,120.451,406.892z"/>
			<path style="fill:#E4B65A;" d="M117.11,410.098c9.424,9.823,14.069,20.656,10.376,24.199c-0.575,0.552-1.324,0.9-2.21,1.044
				c-4.778,0.791-13.588-4.128-21.538-12.414c-7.95-8.287-12.5-17.293-11.511-22.035c0.181-0.879,0.56-1.613,1.135-2.165
				C97.054,395.185,107.686,400.275,117.11,410.098z"/>
			<path style="fill:#DC9530;" d="M117.11,410.098c9.424,9.823,14.069,20.656,10.376,24.199c-0.575,0.552-1.324,0.9-2.21,1.044
				c0.989-4.741-3.561-13.748-11.511-22.035c-7.95-8.287-16.76-13.205-21.539-12.414c0.181-0.879,0.56-1.613,1.135-2.165
				C97.054,395.185,107.686,400.275,117.11,410.098z"/>
			<path style="fill:#FFDEAE;" d="M113.579,416.91c-0.928-0.545-1.777-0.825-2.548-0.841c-0.077-0.702-0.351-1.461-0.821-2.276
				c-0.47-0.815-1.1-1.642-1.89-2.479c-1.337-1.418-2.639-2.336-3.906-2.756c-1.263-0.418-2.345-0.204-3.246,0.641l-3.258-3.455
				l-1.849,1.744l3.258,3.455l-1.779,1.678l16.917,17.939l1.78-1.678l3.244,3.44l1.849-1.744l-3.244-3.44l0.185-0.174
				c0.929-0.876,1.232-1.977,0.909-3.302c-0.323-1.325-1.226-2.773-2.708-4.345C115.471,418.257,114.508,417.455,113.579,416.91z
				 M106.839,414.358c0.838,0.889,1.008,1.567,0.512,2.035l-1.064,1.004l-2.514-2.665l1.065-1.004
				C105.334,413.259,106.001,413.47,106.839,414.358z M114.089,422.918l-1.374,1.296l-2.658-2.819l1.374-1.296
				c0.503-0.474,1.198-0.242,2.084,0.698C114.4,421.736,114.592,422.443,114.089,422.918z"/>
		</g>
	</g>
	
		<linearGradient id="SVGID_00000119091949589975568620000015240925344543643564_" gradientUnits="userSpaceOnUse" x1="198.111" y1="149.3457" x2="198.111" y2="-100.7949">
		<stop  offset="0" style="stop-color:#E9A249"/>
		<stop  offset="1" style="stop-color:#F1D13D"/>
	</linearGradient>
	<path style="fill:url(#SVGID_00000119091949589975568620000015240925344543643564_);" d="M210.316,75.974h-2.729
		c-5.234,0-9.476-4.243-9.476-9.476v-2.729v2.729c0,5.233-4.242,9.476-9.476,9.476h-2.729h2.729c5.234,0,9.476,4.243,9.476,9.476
		v2.729V85.45c0-5.233,4.243-9.476,9.476-9.476H210.316z"/>
	
		<linearGradient id="SVGID_00000124869962458265899580000012892848396972462209_" gradientUnits="userSpaceOnUse" x1="299.2018" y1="273.3217" x2="299.2018" y2="126.8023">
		<stop  offset="0" style="stop-color:#E9A249"/>
		<stop  offset="1" style="stop-color:#F1D13D"/>
	</linearGradient>
	<path style="fill:url(#SVGID_00000124869962458265899580000012892848396972462209_);" d="M309.846,172.972h-2.38
		c-4.564,0-8.264-3.7-8.264-8.264v-2.38v2.38c0,4.564-3.7,8.264-8.264,8.264h-2.38h2.38c4.564,0,8.264,3.7,8.264,8.264v2.38v-2.38
		c0-4.564,3.7-8.264,8.264-8.264H309.846z"/>
	
		<linearGradient id="SVGID_00000157997370491592432750000006374914980929153200_" gradientUnits="userSpaceOnUse" x1="66.4794" y1="260.0334" x2="66.4794" y2="113.5141">
		<stop  offset="0" style="stop-color:#E9A249"/>
		<stop  offset="1" style="stop-color:#F1D13D"/>
	</linearGradient>
	<path style="fill:url(#SVGID_00000157997370491592432750000006374914980929153200_);" d="M77.123,159.684h-2.38
		c-4.564,0-8.264-3.7-8.264-8.264v-2.38v2.38c0,4.564-3.7,8.264-8.264,8.264h-2.38h2.38c4.564,0,8.264,3.7,8.264,8.264v2.38v-2.38
		c0-4.564,3.7-8.264,8.264-8.264H77.123z"/>
	
		<linearGradient id="SVGID_00000110472109406709211250000005851890721980927394_" gradientUnits="userSpaceOnUse" x1="444.0872" y1="370.6207" x2="444.0872" y2="224.1013">
		<stop  offset="0" style="stop-color:#E9A249"/>
		<stop  offset="1" style="stop-color:#F1D13D"/>
	</linearGradient>
	<path style="fill:url(#SVGID_00000110472109406709211250000005851890721980927394_);" d="M454.731,270.271h-2.38
		c-4.564,0-8.264-3.7-8.264-8.264v-2.38v2.38c0,4.564-3.7,8.264-8.264,8.264h-2.38h2.38c4.564,0,8.264,3.7,8.264,8.264v2.38v-2.38
		c0-4.564,3.7-8.264,8.264-8.264H454.731z"/>
	
		<linearGradient id="SVGID_00000059999804037798998740000012855037497299465359_" gradientUnits="userSpaceOnUse" x1="416.545" y1="168.4406" x2="416.545" y2="21.9212">
		<stop  offset="0" style="stop-color:#E9A249"/>
		<stop  offset="1" style="stop-color:#F1D13D"/>
	</linearGradient>
	<path style="fill:url(#SVGID_00000059999804037798998740000012855037497299465359_);" d="M427.189,68.091h-2.38
		c-4.564,0-8.264-3.7-8.264-8.264v-2.38v2.38c0,4.564-3.7,8.264-8.264,8.264h-2.38h2.38c4.564,0,8.264,3.7,8.264,8.264v2.38v-2.38
		c0-4.564,3.7-8.264,8.264-8.264H427.189z"/>
	<g>
		<defs>
			<rect id="SVGID_00000150812211856435696280000017973942500279209918_" width="500" height="500"/>
		</defs>
		<clipPath id="SVGID_00000149370514975578789320000015067107783466657426_">
			<use xlink:href="#SVGID_00000150812211856435696280000017973942500279209918_"  style="overflow:visible;"/>
		</clipPath>
		<g style="clip-path:url(#SVGID_00000149370514975578789320000015067107783466657426_);">
			<polyline style="fill:none;stroke:#0A417C;stroke-width:1.1844;stroke-miterlimit:10;stroke-dasharray:7.1064;" points="
				-11.743,168.559 98.408,66.454 173.724,179.972 306.046,68.881 411.417,193.229 511.433,111.892 			"/>
			<g>
				
					<ellipse transform="matrix(0.9193 -0.3935 0.3935 0.9193 -20.1779 44.4868)" style="fill:#C6DFF4;" cx="98.408" cy="71.454" rx="45.362" ry="45.361"/>
				<g>
					<g>
						<path style="fill:#F4C77F;" d="M118.756,62.986c0,11.694-9.48,28.805-21.174,28.805S76.408,74.68,76.408,62.986
							s9.48-21.174,21.174-21.174S118.756,51.292,118.756,62.986z"/>
						<path style="opacity:0.3;fill:#DC9530;" d="M117.74,62.987c0,11.116-9.042,27.789-20.158,27.789
							c-7.596,0-14.226-11.852-17.661-18.076c2.883,1.592,6.193,2.497,9.713,2.497c11.116,0,20.158-9.042,20.158-20.158
							c0-3.52-0.904-6.833-2.497-9.713C113.518,48.762,117.74,55.392,117.74,62.987z"/>
						<path style="fill:#DC9530;" d="M113.088,62.986c0,8.564-6.942,23.137-15.506,23.137S82.076,71.55,82.076,62.986
							S89.018,47.48,97.582,47.48S113.088,54.423,113.088,62.986z"/>
						<g>
							<path style="fill:#FFDEAE;" d="M101.962,64.387c0.664,0.44,1.217,1.047,1.657,1.819c0.44,0.773,0.66,1.752,0.66,2.938
								c0,0.953-0.229,1.838-0.687,2.655c-0.458,0.818-1.137,1.496-2.035,2.035c-0.899,0.539-1.967,0.863-3.207,0.97v1.644h-2.264
								v-1.698c-2.031-0.233-3.827-0.917-5.391-2.048l1.725-3.046c0.521,0.377,1.109,0.71,1.765,0.997
								c0.656,0.288,1.289,0.494,1.9,0.62v-5.31c-1.33-0.557-2.39-1.249-3.181-2.075c-0.791-0.826-1.186-1.958-1.186-3.396
								c0-1.581,0.49-2.884,1.469-3.908c0.979-1.024,2.305-1.644,3.976-1.86v-1.779h2.264v1.806c1.042,0.09,1.949,0.292,2.722,0.606
								c0.772,0.314,1.545,0.723,2.318,1.226l-1.482,2.992c-1.33-0.718-2.516-1.168-3.558-1.348v4.932l0.135,0.054
								C100.497,63.556,101.297,63.947,101.962,64.387z M95.763,60.196c0,0.701,0.467,1.339,1.402,1.914v-3.773
								C96.23,58.624,95.763,59.244,95.763,60.196z M99.698,70.533c0.341-0.35,0.512-0.813,0.512-1.388
								c0-0.826-0.62-1.563-1.86-2.21v4.312C98.907,71.121,99.356,70.883,99.698,70.533z"/>
						</g>
						<path style="opacity:0.3;fill:#DC9530;" d="M112.072,62.987c0,7.989-6.501,22.121-14.49,22.121
							c-5.529,0-10.343-10.745-12.786-15.308c2.033,1.088,4.353,1.704,6.816,1.704c7.989,0,14.487-6.501,14.487-14.49
							c0-2.46-0.617-4.78-1.704-6.813C108.958,52.644,112.072,57.458,112.072,62.987z"/>
					</g>
					<g>
						<g>
							<path style="fill:#FFFFFF;" d="M107.899,93.634H87.236c-1.214,0-2.199-0.984-2.199-2.199c0-1.215,0.985-2.199,2.199-2.199
								h20.664c1.214,0,2.199,0.984,2.199,2.199C110.098,92.649,109.114,93.634,107.899,93.634z"/>
						</g>
						<path style="opacity:0.4;fill:#2B63A0;" d="M108.731,89.401c0.105,0.257,0.165,0.537,0.165,0.832
							c0,1.214-0.985,2.199-2.199,2.199H86.034c-0.295,0-0.575-0.06-0.832-0.165c0.328,0.801,1.114,1.367,2.033,1.367h20.664
							c1.214,0,2.199-0.984,2.199-2.199C110.098,90.515,109.533,89.73,108.731,89.401z"/>
						<g>
							<path style="fill:#FFFFFF;" d="M105.519,99.64H89.616c-1.214,0-2.199-0.984-2.199-2.199c0-1.214,0.985-2.199,2.199-2.199
								h15.903c1.214,0,2.199,0.984,2.199,2.199C107.718,98.655,106.733,99.64,105.519,99.64z"/>
						</g>
						<path style="opacity:0.4;fill:#2B63A0;" d="M107.082,95.897c0.018,0.112,0.034,0.225,0.034,0.342
							c0,1.214-0.985,2.199-2.199,2.199H89.015c-0.612,0-1.165-0.251-1.563-0.654c0.165,1.051,1.067,1.856,2.164,1.856h15.903
							c1.214,0,2.199-0.984,2.199-2.199C107.718,96.839,107.474,96.294,107.082,95.897z"/>
						<g>
							<path style="fill:#FFFFFF;" d="M103.531,105.539H91.604c-1.214,0-2.199-0.984-2.199-2.199c0-1.214,0.985-2.199,2.199-2.199
								h11.926c1.214,0,2.199,0.984,2.199,2.199C105.729,104.554,104.745,105.539,103.531,105.539z"/>
						</g>
						<path style="opacity:0.4;fill:#2B63A0;" d="M104.362,101.306c0.105,0.257,0.165,0.537,0.165,0.832
							c0,1.215-0.985,2.199-2.199,2.199H90.403c-0.295,0-0.575-0.06-0.832-0.165c0.328,0.801,1.114,1.367,2.033,1.367h11.926
							c1.214,0,2.199-0.984,2.199-2.199C105.729,102.42,105.164,101.635,104.362,101.306z"/>
					</g>
					<g>
						<path style="fill:#F4C77F;" d="M78.165,39.307l4.463,4.101c0.136,0.125,0.145,0.337,0.02,0.474
							c-0.095,0.103-0.239,0.133-0.363,0.088l-5.686-2.098c-0.793-0.293-1.199-1.173-0.906-1.967
							c0.293-0.793,1.173-1.199,1.967-0.906C77.85,39.069,78.023,39.179,78.165,39.307z"/>
					</g>
					<g>
						<path style="fill:#F4C77F;" d="M94.586,35.287l-3.692,4.807c-0.113,0.147-0.323,0.174-0.47,0.062
							c-0.111-0.085-0.154-0.227-0.119-0.354l1.589-5.848c0.222-0.816,1.063-1.298,1.879-1.076c0.816,0.222,1.298,1.063,1.076,1.879
							C94.796,34.952,94.702,35.135,94.586,35.287z"/>
					</g>
					<g>
						<path style="fill:#F4C77F;" d="M84.128,33.64l1.656,5.83c0.051,0.178-0.053,0.364-0.231,0.414
							c-0.135,0.038-0.274-0.012-0.355-0.115l-3.746-4.764c-0.523-0.665-0.408-1.627,0.257-2.15c0.665-0.523,1.627-0.408,2.15,0.257
							C83.984,33.272,84.075,33.456,84.128,33.64z"/>
					</g>
					<g>
						<path style="fill:#F4C77F;" d="M126.764,77.694l-6.047-0.411c-0.185-0.013-0.324-0.173-0.312-0.357
							c0.009-0.14,0.104-0.254,0.229-0.295l5.75-1.917c0.802-0.267,1.669,0.166,1.937,0.968c0.267,0.802-0.166,1.669-0.968,1.937
							C127.16,77.683,126.955,77.706,126.764,77.694z"/>
					</g>
					<g>
						<path style="fill:#F4C77F;" d="M116.46,91.097l-0.123-6.059c-0.004-0.185,0.143-0.338,0.328-0.342
							c0.14-0.003,0.262,0.081,0.314,0.202l2.416,5.558c0.337,0.776-0.019,1.678-0.794,2.015c-0.776,0.337-1.678-0.018-2.015-0.794
							C116.506,91.49,116.465,91.288,116.46,91.097z"/>
					</g>
					<g>
						<path style="fill:#F4C77F;" d="M125.653,85.845l-4.937-3.516c-0.151-0.107-0.186-0.317-0.079-0.468
							c0.081-0.114,0.221-0.162,0.349-0.132l5.902,1.377c0.824,0.192,1.335,1.016,1.143,1.839c-0.192,0.824-1.016,1.335-1.839,1.143
							C125.995,86.043,125.809,85.955,125.653,85.845z"/>
					</g>
				</g>
			</g>
			<g>
				<circle style="fill:#C6DFF4;" cx="411.417" cy="186.229" r="45.361"/>
				<g>
					
						<ellipse transform="matrix(0.2328 -0.9725 0.9725 0.2328 134.736 542.9127)" style="fill:#5A89C6;" cx="411.488" cy="186.055" rx="30.99" ry="30.99"/>
					<path style="fill:#CA404E;" d="M432.968,158.544c-5.924-4.632-13.377-7.401-21.48-7.401v36.423L432.968,158.544z"/>
					<path style="fill:#447676;" d="M430.634,161.697l-19.146,25.869l29.462,8.103c0.987-3.028,1.528-6.257,1.528-9.614
						C442.477,176.169,437.843,167.372,430.634,161.697z"/>
					<path style="fill:#5F9B99;" d="M411.488,187.566v-32.5c-3.941,0-7.706,0.743-11.173,2.085L411.488,187.566z"/>
					<path style="fill:#F4C77F;" d="M400.315,157.15c-11.592,4.484-19.816,15.731-19.816,28.905c0,2.207,0.235,4.358,0.673,6.434
						l30.316-4.923L400.315,157.15z"/>
				</g>
			</g>
			<g>
				
					<ellipse transform="matrix(0.2254 -0.9743 0.9743 0.2254 -33.9498 303.2439)" style="fill:#C6DFF4;" cx="173.724" cy="172.972" rx="45.361" ry="45.361"/>
				<g>
					<g>
						<g>
							<rect x="173.724" y="172.972" style="fill:#FFFFFF;" width="0" height="0"/>
							<polygon style="fill:#FFFFFF;" points="173.724,172.972 173.724,172.972 173.724,172.972 							"/>
							<rect x="173.724" y="172.972" style="fill:#FFFFFF;" width="0" height="0"/>
							<rect x="173.724" y="172.972" style="fill:#FFFFFF;" width="0" height="0"/>
							<rect x="173.724" y="172.972" style="fill:#FFFFFF;" width="0" height="0"/>
							<polygon style="fill:#FFFFFF;" points="173.724,172.972 173.724,172.972 173.724,172.972 							"/>
							<rect x="173.724" y="172.972" style="fill:#FFFFFF;" width="0" height="0"/>
							<rect x="173.724" y="172.972" style="fill:#FFFFFF;" width="0" height="0"/>
							<polygon style="fill:#FFFFFF;" points="173.724,172.972 173.724,172.972 173.724,172.972 							"/>
							<polygon style="fill:#FFFFFF;" points="173.724,172.972 173.724,172.972 173.724,172.972 							"/>
							<polygon style="fill:#FFFFFF;" points="173.724,172.972 173.724,172.972 173.724,172.972 							"/>
							<polygon style="fill:#FFFFFF;" points="173.724,172.972 173.724,172.972 173.724,172.972 							"/>
							<rect x="173.724" y="172.972" style="fill:#FFFFFF;" width="0" height="0"/>
							<polygon style="fill:#FFFFFF;" points="173.724,172.972 173.724,172.972 173.724,172.972 							"/>
							<polygon style="fill:#FFFFFF;" points="173.724,172.972 173.724,172.972 173.724,172.972 							"/>
							<rect x="173.724" y="172.972" style="fill:#FFFFFF;" width="0" height="0"/>
							<polygon style="fill:#FFFFFF;" points="173.724,172.972 173.724,172.972 173.724,172.972 							"/>
							<polygon style="fill:#FFFFFF;" points="173.724,172.972 173.724,172.972 173.724,172.972 							"/>
							<polygon style="fill:#FFFFFF;" points="173.724,172.972 173.724,172.972 173.724,172.972 							"/>
							<polygon style="fill:#FFFFFF;" points="173.724,172.972 173.724,172.972 173.724,172.972 							"/>
							<polygon style="fill:#FFFFFF;" points="173.724,172.972 173.724,172.972 173.724,172.972 							"/>
							<polygon style="fill:#FFFFFF;" points="173.724,172.972 173.724,172.972 173.724,172.972 							"/>
							<rect x="173.724" y="172.972" style="fill:#FFFFFF;" width="0" height="0"/>
							<polygon style="fill:#FFFFFF;" points="173.724,172.972 173.724,172.972 173.724,172.972 							"/>
							<polygon style="fill:#FFFFFF;" points="173.724,172.972 173.724,172.972 173.724,172.972 							"/>
							<rect x="173.724" y="172.972" style="fill:#FFFFFF;" width="0" height="0"/>
							<rect x="173.724" y="172.972" style="fill:#FFFFFF;" width="0" height="0"/>
							<polygon style="fill:#FFFFFF;" points="173.724,172.972 173.724,172.972 173.724,172.972 							"/>
							<polygon style="fill:#FFFFFF;" points="173.724,172.972 173.724,172.972 173.724,172.972 							"/>
							<polygon style="fill:#FFFFFF;" points="173.724,172.972 173.724,172.972 173.724,172.972 							"/>
							<polygon style="fill:#FFFFFF;" points="173.724,172.972 173.724,172.972 173.724,172.972 							"/>
							<rect x="173.724" y="172.972" style="fill:#FFFFFF;" width="0" height="0"/>
							<path style="fill:#5A89C6;" d="M173.724,172.972L173.724,172.972L173.724,172.972L173.724,172.972v31.325
								c2.805,0,5.521-0.374,8.108-1.066c2.676-0.715,5.209-1.779,7.552-3.134c2.377-1.375,4.561-3.046,6.49-4.975
								c1.929-1.929,3.6-4.113,4.975-6.489c1.356-2.343,2.419-4.876,3.134-7.553L173.724,172.972z"/>
							<path style="fill:#F4C77F;" d="M173.724,172.972h-31.325c0,2.805,0.374,5.521,1.066,8.108
								c0.715,2.676,1.779,5.209,3.135,7.552c1.375,2.377,3.046,4.561,4.975,6.49c1.929,1.929,4.113,3.6,6.489,4.975
								c2.343,1.356,4.876,2.419,7.553,3.134c2.587,0.691,5.303,1.066,8.108,1.066V172.972L173.724,172.972L173.724,172.972z"/>
							<polygon style="fill:#FFFFFF;" points="173.724,172.972 173.724,172.972 173.724,172.972 							"/>
							<polygon style="fill:#FFFFFF;" points="173.724,172.972 173.724,172.972 173.724,172.972 							"/>
							<polygon style="fill:#FFFFFF;" points="173.724,172.972 173.724,172.972 173.724,172.972 							"/>
							
								<rect x="173.724" y="172.972" transform="matrix(0.7071 -0.7071 0.7071 0.7071 -71.4269 173.5038)" style="fill:#FFFFFF;" width="0" height="0"/>
							<polygon style="fill:#FFFFFF;" points="173.724,172.972 173.724,172.972 173.724,172.972 							"/>
							<rect x="173.724" y="172.972" style="fill:#FFFFFF;" width="0" height="0"/>
							<rect x="173.724" y="172.972" style="fill:#FFFFFF;" width="0" height="0"/>
							<rect x="173.724" y="172.972" style="fill:#FFFFFF;" width="0" height="0"/>
							<path style="fill:#CA404E;" d="M173.724,141.647c-2.805,0-5.521,0.374-8.108,1.066c-2.676,0.715-5.209,1.779-7.553,3.135
								c-2.377,1.375-4.561,3.046-6.489,4.975c-1.929,1.929-3.6,4.113-4.975,6.49c-1.356,2.343-2.419,4.876-3.135,7.553
								c-0.691,2.587-1.066,5.303-1.066,8.108h31.325l0,0l8.108-30.259C179.245,142.021,176.529,141.647,173.724,141.647z"/>
							<path style="fill:#447676;" d="M203.983,164.864c-0.715-2.676-1.779-5.209-3.134-7.553c-1.375-2.377-3.046-4.561-4.975-6.49
								c-1.929-1.929-4.113-3.6-6.49-4.975c-2.343-1.356-4.876-2.419-7.552-3.135l-8.108,30.259l0,0l0,0l30.259,8.108
								c0.691-2.587,1.066-5.303,1.066-8.108C205.049,170.167,204.675,167.451,203.983,164.864z"/>
							
								<radialGradient id="SVGID_00000011005906155465494120000007871443961076611991_" cx="176.5593" cy="175.9485" r="19.0696" gradientUnits="userSpaceOnUse">
								<stop  offset="0" style="stop-color:#000000"/>
								<stop  offset="1" style="stop-color:#FFFFFF"/>
							</radialGradient>
							
								<circle style="fill:url(#SVGID_00000011005906155465494120000007871443961076611991_);" cx="176.559" cy="175.948" r="19.07"/>
							
								<ellipse transform="matrix(0.2289 -0.9735 0.9735 0.2289 -34.4177 302.4949)" style="fill:#FFFFFF;" cx="173.724" cy="172.972" rx="17.83" ry="17.83"/>
						</g>
					</g>
				</g>
			</g>
			<g>
				
					<ellipse transform="matrix(0.2254 -0.9743 0.9743 0.2254 165.0925 355.403)" style="fill:#C6DFF4;" cx="306.046" cy="73.881" rx="45.361" ry="45.361"/>
				<circle style="fill:#FFFFFF;" cx="306.046" cy="73.881" r="29.645"/>
				<path style="fill:#5A89C6;" d="M315.856,75.524c-0.631-0.94-1.521-1.655-2.67-2.147c0.89-0.513,1.562-1.186,2.017-2.019
					c0.454-0.833,0.681-1.773,0.681-2.82c0-1.773-0.663-3.194-1.989-4.262c-1.322-1.064-3.275-1.598-5.858-1.602v-4.321h-5.314v4.32
					h-5.115v22.433h5.115v4.302h5.314v-4.302h0.531c2.67,0,4.71-0.539,6.12-1.618c1.409-1.079,2.114-2.601,2.114-4.567
					C316.802,77.597,316.486,76.465,315.856,75.524z M309.263,69.628c0,1.111-0.714,1.666-2.142,1.666h-3.06v-3.333h3.06
					C308.549,67.961,309.263,68.517,309.263,69.628z M308.011,79.819h-3.95v-3.525h3.95c1.446,0,2.17,0.588,2.17,1.762
					C310.181,79.231,309.458,79.819,308.011,79.819z"/>
			</g>
		</g>
	</g>
</g>
<g id="OBJECTS">
</g>
</svg>
