<svg width="356" height="440" viewBox="0 0 356 440" fill="none" xmlns="http://www.w3.org/2000/svg">
<rect width="356" height="440" rx="15" fill="#003539"/>
<path d="M74.001 384.188C73.5977 384.188 73.275 384.078 73.033 383.858C72.7983 383.638 72.681 383.37 72.681 383.055C72.681 382.784 72.758 382.578 72.912 382.439C73.066 382.3 73.2383 382.23 73.429 382.23C73.627 382.23 73.792 382.3 73.924 382.439C74.056 382.571 74.122 382.732 74.122 382.923C74.122 383.077 74.089 383.202 74.023 383.297C73.957 383.4 73.924 383.502 73.924 383.605C73.924 383.678 73.9497 383.733 74.001 383.77C74.0523 383.807 74.1147 383.825 74.188 383.825C74.32 383.825 74.441 383.763 74.551 383.638C74.6683 383.513 74.76 383.293 74.826 382.978C74.8993 382.655 74.936 382.204 74.936 381.625V374.706H76.41V381.625C76.41 381.97 76.344 382.296 76.212 382.604C76.08 382.912 75.9003 383.183 75.673 383.418C75.4457 383.66 75.1853 383.847 74.892 383.979C74.606 384.118 74.309 384.188 74.001 384.188ZM73.506 374.981V374.706H77.4V374.981H73.506ZM79.4551 383.132C79.0591 383.132 78.7364 383.018 78.4871 382.791C78.2378 382.564 78.1131 382.267 78.1131 381.9C78.1131 381.548 78.2304 381.247 78.4651 380.998C78.7071 380.749 79.0481 380.558 79.4881 380.426C79.9281 380.287 80.4488 380.217 81.0501 380.217V378.875C81.0501 378.684 80.9768 378.534 80.8301 378.424C80.6834 378.314 80.4818 378.259 80.2251 378.259C80.0051 378.259 79.8254 378.296 79.6861 378.369C79.5468 378.442 79.4771 378.538 79.4771 378.655C79.4771 378.728 79.5028 378.794 79.5541 378.853C79.6054 378.912 79.6311 379.003 79.6311 379.128C79.6311 379.282 79.5724 379.41 79.4551 379.513C79.3451 379.608 79.2021 379.656 79.0261 379.656C78.8501 379.656 78.7108 379.605 78.6081 379.502C78.5054 379.392 78.4541 379.256 78.4541 379.095C78.4541 378.875 78.5421 378.677 78.7181 378.501C78.8941 378.318 79.1324 378.175 79.4331 378.072C79.7338 377.969 80.0711 377.918 80.4451 377.918C80.9804 377.918 81.4168 378.024 81.7541 378.237C82.0914 378.442 82.2601 378.714 82.2601 379.051V382.395C82.2601 382.468 82.2821 382.531 82.3261 382.582C82.3774 382.626 82.4361 382.648 82.5021 382.648C82.5681 382.648 82.6451 382.615 82.7331 382.549C82.8211 382.476 82.9311 382.366 83.0631 382.219L83.2171 382.395C82.8724 382.886 82.4874 383.132 82.0621 383.132C81.8054 383.132 81.5928 383.062 81.4241 382.923C81.2628 382.776 81.1528 382.575 81.0941 382.318H81.0501C80.9108 382.553 80.6908 382.747 80.3901 382.901C80.0894 383.055 79.7778 383.132 79.4551 383.132ZM80.1151 382.527C80.3938 382.527 80.6174 382.424 80.7861 382.219C80.9621 382.006 81.0501 381.731 81.0501 381.394V380.503C80.5001 380.503 80.0858 380.606 79.8071 380.811C79.5284 381.009 79.3891 381.302 79.3891 381.691C79.3891 381.955 79.4514 382.16 79.5761 382.307C79.7081 382.454 79.8878 382.527 80.1151 382.527ZM87.6046 382.835V379.117C87.6046 378.567 87.3846 378.292 86.9446 378.292C86.7026 378.292 86.4789 378.391 86.2736 378.589C86.0756 378.787 85.9142 379.058 85.7896 379.403C85.6722 379.74 85.6136 380.125 85.6136 380.558L85.3936 378.963H85.6576C85.8116 378.662 86.0206 378.413 86.2846 378.215C86.5559 378.017 86.9042 377.918 87.3296 377.918C87.7622 377.918 88.1179 378.035 88.3966 378.27C88.6752 378.497 88.8146 378.78 88.8146 379.117V382.835H87.6046ZM83.5346 383V382.725H86.3286V383H83.5346ZM84.4036 382.835V378.226H85.6136V382.835H84.4036ZM86.7686 383V382.725H89.5626V383H86.7686ZM83.5346 378.325V378.05H85.6136V378.325H83.5346Z" fill="white" fill-opacity="0.5"/>
<path d="M127.457 377.401C127.45 376.968 127.376 376.569 127.237 376.202C127.098 375.835 126.9 375.542 126.643 375.322C126.394 375.095 126.086 374.981 125.719 374.981H121.121V374.706H127.842V377.401H127.457ZM121.121 383V382.725H125.103V383H121.121ZM122.419 382.835V374.706H123.893V382.835H122.419ZM125.598 380.624C125.591 380.213 125.536 379.891 125.433 379.656C125.33 379.421 125.154 379.256 124.905 379.161C124.663 379.058 124.315 379.007 123.86 379.007V378.732C124.315 378.732 124.667 378.688 124.916 378.6C125.173 378.512 125.349 378.358 125.444 378.138C125.547 377.918 125.598 377.61 125.598 377.214H125.983V380.624H125.598ZM130.502 383.132C130.15 383.132 129.817 383.062 129.501 382.923C129.193 382.776 128.922 382.582 128.687 382.34C128.453 382.091 128.269 381.812 128.137 381.504C128.005 381.189 127.939 380.862 127.939 380.525C127.939 380.078 128.042 379.656 128.247 379.26C128.46 378.864 128.753 378.541 129.127 378.292C129.501 378.043 129.941 377.918 130.447 377.918C130.843 377.918 131.199 378.01 131.514 378.193C131.837 378.369 132.09 378.618 132.273 378.941C132.457 379.264 132.548 379.634 132.548 380.052V380.118H128.951V379.843H131.272V379.216C131.272 378.549 130.979 378.215 130.392 378.215C130.15 378.215 129.952 378.288 129.798 378.435C129.652 378.574 129.542 378.813 129.468 379.15C129.402 379.487 129.369 379.946 129.369 380.525C129.369 381.119 129.406 381.581 129.479 381.911C129.553 382.241 129.674 382.472 129.842 382.604C130.018 382.736 130.249 382.802 130.535 382.802C130.924 382.802 131.261 382.703 131.547 382.505C131.833 382.307 132.075 381.962 132.273 381.471H132.581C132.435 381.984 132.174 382.391 131.8 382.692C131.434 382.985 131.001 383.132 130.502 383.132ZM136.672 383.132C136.335 383.132 136.038 383.059 135.781 382.912C135.524 382.765 135.334 382.582 135.209 382.362H134.945L135.165 380.69C135.165 381.401 135.297 381.926 135.561 382.263C135.825 382.593 136.155 382.758 136.551 382.758C136.756 382.758 136.921 382.699 137.046 382.582C137.171 382.465 137.259 382.245 137.31 381.922C137.369 381.599 137.398 381.137 137.398 380.536C137.398 379.927 137.369 379.462 137.31 379.139C137.251 378.816 137.16 378.596 137.035 378.479C136.91 378.354 136.745 378.292 136.54 378.292C136.144 378.292 135.814 378.457 135.55 378.787C135.293 379.117 135.165 379.641 135.165 380.36L134.945 378.688H135.209C135.334 378.468 135.524 378.285 135.781 378.138C136.045 377.991 136.346 377.918 136.683 377.918C137.05 377.918 137.394 378.028 137.717 378.248C138.04 378.461 138.3 378.765 138.498 379.161C138.703 379.55 138.806 380.004 138.806 380.525C138.806 381.046 138.703 381.504 138.498 381.9C138.3 382.289 138.036 382.593 137.706 382.813C137.383 383.026 137.039 383.132 136.672 383.132ZM133.086 383V382.725H135.165V383H133.086ZM133.955 382.835V374.882H135.165V382.835H133.955ZM133.086 374.981V374.706H135.165V374.981H133.086Z" fill="white" fill-opacity="0.5"/>
<path d="M172.169 383.099L169.815 375.685H169.771V382.725H170.981V383H168.132V382.725H169.342V374.981H168.132V374.706H171.113L172.862 380.514H172.906L174.699 374.706H177.592V374.981H176.382V382.725H177.592V383H173.698V382.725H174.908V375.685H174.864L172.565 383.099H172.169ZM179.515 383.132C179.119 383.132 178.796 383.018 178.547 382.791C178.297 382.564 178.173 382.267 178.173 381.9C178.173 381.548 178.29 381.247 178.525 380.998C178.767 380.749 179.108 380.558 179.548 380.426C179.988 380.287 180.508 380.217 181.11 380.217V378.875C181.11 378.684 181.036 378.534 180.89 378.424C180.743 378.314 180.541 378.259 180.285 378.259C180.065 378.259 179.885 378.296 179.746 378.369C179.606 378.442 179.537 378.538 179.537 378.655C179.537 378.728 179.562 378.794 179.614 378.853C179.665 378.912 179.691 379.003 179.691 379.128C179.691 379.282 179.632 379.41 179.515 379.513C179.405 379.608 179.262 379.656 179.086 379.656C178.91 379.656 178.77 379.605 178.668 379.502C178.565 379.392 178.514 379.256 178.514 379.095C178.514 378.875 178.602 378.677 178.778 378.501C178.954 378.318 179.192 378.175 179.493 378.072C179.793 377.969 180.131 377.918 180.505 377.918C181.04 377.918 181.476 378.024 181.814 378.237C182.151 378.442 182.32 378.714 182.32 379.051V382.395C182.32 382.468 182.342 382.531 182.386 382.582C182.437 382.626 182.496 382.648 182.562 382.648C182.628 382.648 182.705 382.615 182.793 382.549C182.881 382.476 182.991 382.366 183.123 382.219L183.277 382.395C182.932 382.886 182.547 383.132 182.122 383.132C181.865 383.132 181.652 383.062 181.484 382.923C181.322 382.776 181.212 382.575 181.154 382.318H181.11C180.97 382.553 180.75 382.747 180.45 382.901C180.149 383.055 179.837 383.132 179.515 383.132ZM180.175 382.527C180.453 382.527 180.677 382.424 180.846 382.219C181.022 382.006 181.11 381.731 181.11 381.394V380.503C180.56 380.503 180.145 380.606 179.867 380.811C179.588 381.009 179.449 381.302 179.449 381.691C179.449 381.955 179.511 382.16 179.636 382.307C179.768 382.454 179.947 382.527 180.175 382.527ZM183.594 383V382.725H184.463V378.325H183.594V378.05H185.673V378.919H185.717C185.9 378.523 186.109 378.259 186.344 378.127C186.586 377.988 186.81 377.918 187.015 377.918C187.25 377.918 187.433 377.988 187.565 378.127C187.704 378.259 187.774 378.45 187.774 378.699C187.774 378.926 187.704 379.095 187.565 379.205C187.433 379.308 187.283 379.359 187.114 379.359C186.975 379.359 186.846 379.322 186.729 379.249C186.619 379.168 186.564 379.058 186.564 378.919C186.564 378.875 186.568 378.838 186.575 378.809C186.59 378.772 186.597 378.736 186.597 378.699C186.597 378.662 186.586 378.629 186.564 378.6C186.542 378.571 186.494 378.556 186.421 378.556C186.326 378.556 186.219 378.633 186.102 378.787C185.985 378.934 185.882 379.135 185.794 379.392C185.713 379.641 185.673 379.92 185.673 380.228V382.725H186.663V383H183.594Z" fill="white" fill-opacity="0.5"/>
<path d="M222.258 382.835L220.234 376.785H220.19L220.113 376.466L220.641 374.574H220.971L223.732 382.835H222.258ZM216.824 383V382.725H219.464V383H216.824ZM218.969 380.404V380.129H222.533V380.404H218.969ZM220.938 383V382.725H224.711V383H220.938ZM217.77 382.835L220.641 374.574H220.971L220.3 376.466L218.133 382.835H217.77ZM228.226 383.132C227.889 383.132 227.592 383.059 227.335 382.912C227.078 382.765 226.888 382.582 226.763 382.362H226.499L226.719 380.69C226.719 381.401 226.851 381.926 227.115 382.263C227.379 382.593 227.709 382.758 228.105 382.758C228.31 382.758 228.475 382.699 228.6 382.582C228.725 382.465 228.813 382.245 228.864 381.922C228.923 381.599 228.952 381.137 228.952 380.536C228.952 379.927 228.923 379.462 228.864 379.139C228.805 378.816 228.714 378.596 228.589 378.479C228.464 378.354 228.299 378.292 228.094 378.292C227.698 378.292 227.368 378.457 227.104 378.787C226.847 379.117 226.719 379.641 226.719 380.36L226.499 378.688H226.763C226.888 378.468 227.078 378.285 227.335 378.138C227.599 377.991 227.9 377.918 228.237 377.918C228.604 377.918 228.948 378.028 229.271 378.248C229.594 378.461 229.854 378.765 230.052 379.161C230.257 379.55 230.36 380.004 230.36 380.525C230.36 381.046 230.257 381.504 230.052 381.9C229.854 382.289 229.59 382.593 229.26 382.813C228.937 383.026 228.593 383.132 228.226 383.132ZM224.75 386.454V386.179H227.819V386.454H224.75ZM225.509 386.289V378.226H226.719V386.289H225.509ZM224.64 378.325V378.05H226.719V378.325H224.64ZM231.208 383V382.725H232.077V378.325H231.208V378.05H233.287V378.919H233.331C233.515 378.523 233.724 378.259 233.958 378.127C234.2 377.988 234.424 377.918 234.629 377.918C234.864 377.918 235.047 377.988 235.179 378.127C235.319 378.259 235.388 378.45 235.388 378.699C235.388 378.926 235.319 379.095 235.179 379.205C235.047 379.308 234.897 379.359 234.728 379.359C234.589 379.359 234.461 379.322 234.343 379.249C234.233 379.168 234.178 379.058 234.178 378.919C234.178 378.875 234.182 378.838 234.189 378.809C234.204 378.772 234.211 378.736 234.211 378.699C234.211 378.662 234.2 378.629 234.178 378.6C234.156 378.571 234.109 378.556 234.035 378.556C233.94 378.556 233.834 378.633 233.716 378.787C233.599 378.934 233.496 379.135 233.408 379.392C233.328 379.641 233.287 379.92 233.287 380.228V382.725H234.277V383H231.208Z" fill="white" fill-opacity="0.5"/>
<path d="M268.169 383.099L265.815 375.685H265.771V382.725H266.981V383H264.132V382.725H265.342V374.981H264.132V374.706H267.113L268.862 380.514H268.906L270.699 374.706H273.592V374.981H272.382V382.725H273.592V383H269.698V382.725H270.908V375.685H270.864L268.565 383.099H268.169ZM275.515 383.132C275.119 383.132 274.796 383.018 274.547 382.791C274.297 382.564 274.173 382.267 274.173 381.9C274.173 381.548 274.29 381.247 274.525 380.998C274.767 380.749 275.108 380.558 275.548 380.426C275.988 380.287 276.508 380.217 277.11 380.217V378.875C277.11 378.684 277.036 378.534 276.89 378.424C276.743 378.314 276.541 378.259 276.285 378.259C276.065 378.259 275.885 378.296 275.746 378.369C275.606 378.442 275.537 378.538 275.537 378.655C275.537 378.728 275.562 378.794 275.614 378.853C275.665 378.912 275.691 379.003 275.691 379.128C275.691 379.282 275.632 379.41 275.515 379.513C275.405 379.608 275.262 379.656 275.086 379.656C274.91 379.656 274.77 379.605 274.668 379.502C274.565 379.392 274.514 379.256 274.514 379.095C274.514 378.875 274.602 378.677 274.778 378.501C274.954 378.318 275.192 378.175 275.493 378.072C275.793 377.969 276.131 377.918 276.505 377.918C277.04 377.918 277.476 378.024 277.814 378.237C278.151 378.442 278.32 378.714 278.32 379.051V382.395C278.32 382.468 278.342 382.531 278.386 382.582C278.437 382.626 278.496 382.648 278.562 382.648C278.628 382.648 278.705 382.615 278.793 382.549C278.881 382.476 278.991 382.366 279.123 382.219L279.277 382.395C278.932 382.886 278.547 383.132 278.122 383.132C277.865 383.132 277.652 383.062 277.484 382.923C277.322 382.776 277.212 382.575 277.154 382.318H277.11C276.97 382.553 276.75 382.747 276.45 382.901C276.149 383.055 275.837 383.132 275.515 383.132ZM276.175 382.527C276.453 382.527 276.677 382.424 276.846 382.219C277.022 382.006 277.11 381.731 277.11 381.394V380.503C276.56 380.503 276.145 380.606 275.867 380.811C275.588 381.009 275.449 381.302 275.449 381.691C275.449 381.955 275.511 382.16 275.636 382.307C275.768 382.454 275.947 382.527 276.175 382.527ZM280.036 386.586C279.853 386.586 279.71 386.549 279.607 386.476C279.505 386.403 279.431 386.315 279.387 386.212C279.351 386.109 279.332 386.014 279.332 385.926C279.332 385.75 279.384 385.607 279.486 385.497C279.596 385.394 279.732 385.343 279.893 385.343C280.04 385.343 280.154 385.376 280.234 385.442C280.315 385.515 280.381 385.585 280.432 385.651C280.491 385.724 280.553 385.761 280.619 385.761C280.678 385.761 280.722 385.735 280.751 385.684C280.788 385.633 280.817 385.574 280.839 385.508L283.446 378.248H283.842L281.202 385.376C281.019 385.867 280.828 386.19 280.63 386.344C280.432 386.505 280.234 386.586 280.036 386.586ZM281.818 382.835L279.651 378.16L280.982 378.094L282.335 381.251H282.401L281.818 382.835ZM279.079 378.325V378.05H281.807V378.325H279.079ZM282.599 378.325V378.05H284.667V378.325H282.599Z" fill="white" fill-opacity="0.5"/>
<path d="M42.3 61.7V46.92H45.46V61.7H42.3ZM40.4 62V61.4H47.42V62H40.4ZM40.4 47.52V46.92H47.42V47.52H40.4ZM55.7748 61.7V54.64C55.7748 53.9733 55.4748 53.64 54.8748 53.64C54.4348 53.64 54.0348 53.82 53.6748 54.18C53.3148 54.54 53.0282 55.0333 52.8148 55.66C52.6015 56.2733 52.4948 56.9733 52.4948 57.76L52.0948 54.66H52.5748C52.8415 54.0733 53.2215 53.6133 53.7148 53.28C54.2215 52.9333 54.8615 52.76 55.6348 52.76C56.5015 52.76 57.2015 52.9733 57.7348 53.4C58.2682 53.8133 58.5348 54.3267 58.5348 54.94V61.7H55.7748ZM48.1148 62V61.4H53.7948V62H48.1148ZM49.7348 61.7V53.32H52.4948V61.7H49.7348ZM54.4148 62V61.4H59.7948V62H54.4148ZM48.1148 53.6V53H52.4948V53.6H48.1148ZM65.84 62.26C65.16 62.26 64.52 62.1267 63.92 61.86C63.32 61.5933 62.7933 61.2333 62.34 60.78C61.8867 60.3267 61.5333 59.82 61.28 59.26C61.0267 58.6867 60.9 58.0933 60.9 57.48C60.9 56.8933 61.02 56.32 61.26 55.76C61.5133 55.2 61.86 54.6933 62.3 54.24C62.74 53.7867 63.26 53.4267 63.86 53.16C64.4733 52.8933 65.14 52.76 65.86 52.76C66.5 52.76 67.0867 52.8667 67.62 53.08C68.1533 53.2933 68.58 53.5867 68.9 53.96C69.22 54.32 69.38 54.74 69.38 55.22C69.38 55.6867 69.2267 56.0533 68.92 56.32C68.6267 56.5733 68.2533 56.7 67.8 56.7C67.3733 56.7 67.0267 56.58 66.76 56.34C66.4933 56.1 66.36 55.78 66.36 55.38C66.36 55.1133 66.4067 54.9133 66.5 54.78C66.6067 54.6467 66.7067 54.5267 66.8 54.42C66.8933 54.3133 66.94 54.18 66.94 54.02C66.94 53.82 66.8467 53.6667 66.66 53.56C66.4867 53.4533 66.2467 53.4 65.94 53.4C65.5533 53.4 65.2133 53.5133 64.92 53.74C64.6267 53.9667 64.4 54.3933 64.24 55.02C64.08 55.6467 64 56.5733 64 57.8C64 58.7867 64.06 59.56 64.18 60.12C64.3133 60.6667 64.5267 61.0467 64.82 61.26C65.1267 61.4733 65.5267 61.58 66.02 61.58C66.74 61.58 67.3467 61.38 67.84 60.98C68.3467 60.58 68.78 59.9333 69.14 59.04H69.8C69.5333 60 69.06 60.78 68.38 61.38C67.7133 61.9667 66.8667 62.26 65.84 62.26ZM70.7906 62V61.4H72.4106V53.6H70.7906V53H75.1706V54.54H75.2506C75.6906 53.7933 76.1573 53.3133 76.6506 53.1C77.144 52.8733 77.584 52.76 77.9706 52.76C78.584 52.76 79.0573 52.92 79.3906 53.24C79.724 53.5467 79.8906 53.9933 79.8906 54.58C79.8906 55.1533 79.744 55.5733 79.4506 55.84C79.1706 56.1067 78.8173 56.24 78.3906 56.24C78.004 56.24 77.6506 56.1267 77.3306 55.9C77.024 55.6733 76.8706 55.3333 76.8706 54.88C76.8706 54.6133 76.9106 54.42 76.9906 54.3C77.084 54.18 77.1306 54.0867 77.1306 54.02C77.1306 53.9933 77.1173 53.9733 77.0906 53.96C77.0773 53.9333 77.0373 53.92 76.9706 53.92C76.7573 53.92 76.504 54.06 76.2106 54.34C75.9306 54.62 75.684 54.9867 75.4706 55.44C75.2706 55.8933 75.1706 56.3867 75.1706 56.92V61.4H76.4706V62H70.7906ZM86.2516 62.26C85.5582 62.26 84.9049 62.1267 84.2916 61.86C83.6916 61.5933 83.1582 61.2333 82.6916 60.78C82.2382 60.3267 81.8849 59.8133 81.6316 59.24C81.3782 58.6667 81.2516 58.0667 81.2516 57.44C81.2516 56.6667 81.4516 55.9267 81.8516 55.22C82.2516 54.5 82.8182 53.9133 83.5516 53.46C84.2849 52.9933 85.1449 52.76 86.1316 52.76C86.9316 52.76 87.6449 52.92 88.2716 53.24C88.9116 53.56 89.4116 54.02 89.7716 54.62C90.1449 55.2067 90.3316 55.9067 90.3316 56.72V56.94H83.3916V56.34H87.5116V55.12C87.5116 53.9733 87.0316 53.4 86.0716 53.4C85.6582 53.4 85.3249 53.5267 85.0716 53.78C84.8182 54.0333 84.6316 54.4667 84.5116 55.08C84.4049 55.68 84.3516 56.5067 84.3516 57.56C84.3516 58.64 84.4116 59.4733 84.5316 60.06C84.6516 60.6333 84.8582 61.0267 85.1516 61.24C85.4449 61.4533 85.8449 61.56 86.3516 61.56C87.0582 61.56 87.6982 61.3867 88.2716 61.04C88.8582 60.6933 89.3449 60.0933 89.7316 59.24H90.3916C90.1116 60.16 89.5982 60.8933 88.8516 61.44C88.1182 61.9867 87.2516 62.26 86.2516 62.26ZM94.6338 62.24C93.8471 62.24 93.2004 62.0333 92.6938 61.62C92.1871 61.2067 91.9338 60.66 91.9338 59.98C91.9338 59.34 92.1604 58.7867 92.6138 58.32C93.0804 57.8533 93.7338 57.5 94.5738 57.26C95.4138 57.0067 96.3938 56.88 97.5138 56.88V54.54C97.5138 54.1933 97.3871 53.92 97.1338 53.72C96.8804 53.52 96.5471 53.42 96.1338 53.42C95.7871 53.42 95.4871 53.4867 95.2338 53.62C94.9938 53.7533 94.8738 53.9267 94.8738 54.14C94.8738 54.3133 94.9404 54.4667 95.0738 54.6C95.2204 54.72 95.2938 54.92 95.2938 55.2C95.2938 55.5467 95.1538 55.8533 94.8738 56.12C94.6071 56.3867 94.2804 56.52 93.8938 56.52C93.5071 56.52 93.1871 56.3867 92.9338 56.12C92.6804 55.8533 92.5538 55.5267 92.5538 55.14C92.5538 54.6867 92.7271 54.28 93.0738 53.92C93.4204 53.56 93.9004 53.28 94.5138 53.08C95.1271 52.8667 95.8204 52.76 96.5938 52.76C97.6604 52.76 98.5404 52.9533 99.2338 53.34C99.9271 53.7133 100.274 54.2067 100.274 54.82V60.64C100.274 60.76 100.314 60.8667 100.394 60.96C100.487 61.0533 100.6 61.1 100.734 61.1C100.84 61.1 100.954 61.0533 101.074 60.96C101.207 60.8667 101.387 60.6933 101.614 60.44L102.014 60.9C101.28 61.7933 100.447 62.24 99.5138 62.24C98.9671 62.24 98.5338 62.1133 98.2138 61.86C97.9071 61.6067 97.7004 61.2733 97.5938 60.86H97.5138C97.2738 61.2067 96.9004 61.5267 96.3938 61.82C95.9004 62.1 95.3138 62.24 94.6338 62.24ZM95.9738 61.14C96.4004 61.14 96.7604 60.9533 97.0538 60.58C97.3604 60.1933 97.5138 59.6933 97.5138 59.08V57.5C96.6604 57.5 96.0004 57.68 95.5338 58.04C95.0671 58.4 94.8338 58.9333 94.8338 59.64C94.8338 60.0933 94.9271 60.46 95.1138 60.74C95.3138 61.0067 95.6004 61.14 95.9738 61.14ZM106.494 62.24C105.907 62.24 105.347 62.1467 104.814 61.96C104.281 61.7733 103.841 61.5267 103.494 61.22L103.194 62H102.614V58.74H103.274L103.394 59.32C103.527 59.9467 103.841 60.4733 104.334 60.9C104.827 61.3133 105.561 61.52 106.534 61.52C107.161 61.52 107.627 61.4267 107.934 61.24C108.241 61.04 108.394 60.7467 108.394 60.36C108.394 60.04 108.247 59.7733 107.954 59.56C107.674 59.3333 107.081 59.1333 106.174 58.96C105.547 58.84 104.981 58.6733 104.474 58.46C103.981 58.2333 103.594 57.92 103.314 57.52C103.034 57.1067 102.894 56.56 102.894 55.88C102.894 54.8533 103.174 54.08 103.734 53.56C104.307 53.0267 105.114 52.76 106.154 52.76C106.754 52.76 107.274 52.84 107.714 53C108.154 53.16 108.461 53.38 108.634 53.66L108.854 53H109.374V55.9H108.674L108.614 55.6C108.467 54.8533 108.214 54.3133 107.854 53.98C107.507 53.6467 106.941 53.48 106.154 53.48C105.541 53.48 105.074 53.5933 104.754 53.82C104.447 54.0333 104.294 54.3133 104.294 54.66C104.294 54.86 104.347 55.04 104.454 55.2C104.561 55.36 104.774 55.5133 105.094 55.66C105.414 55.7933 105.887 55.9267 106.514 56.06C107.127 56.1933 107.681 56.3733 108.174 56.6C108.667 56.8267 109.054 57.14 109.334 57.54C109.627 57.9267 109.774 58.4533 109.774 59.12C109.774 60.16 109.474 60.94 108.874 61.46C108.274 61.98 107.481 62.24 106.494 62.24ZM116.388 62.26C115.695 62.26 115.042 62.1267 114.428 61.86C113.828 61.5933 113.295 61.2333 112.828 60.78C112.375 60.3267 112.022 59.8133 111.768 59.24C111.515 58.6667 111.388 58.0667 111.388 57.44C111.388 56.6667 111.588 55.9267 111.988 55.22C112.388 54.5 112.955 53.9133 113.688 53.46C114.422 52.9933 115.282 52.76 116.268 52.76C117.068 52.76 117.782 52.92 118.408 53.24C119.048 53.56 119.548 54.02 119.908 54.62C120.282 55.2067 120.468 55.9067 120.468 56.72V56.94H113.528V56.34H117.648V55.12C117.648 53.9733 117.168 53.4 116.208 53.4C115.795 53.4 115.462 53.5267 115.208 53.78C114.955 54.0333 114.768 54.4667 114.648 55.08C114.542 55.68 114.488 56.5067 114.488 57.56C114.488 58.64 114.548 59.4733 114.668 60.06C114.788 60.6333 114.995 61.0267 115.288 61.24C115.582 61.4533 115.982 61.56 116.488 61.56C117.195 61.56 117.835 61.3867 118.408 61.04C118.995 60.6933 119.482 60.0933 119.868 59.24H120.528C120.248 60.16 119.735 60.8933 118.988 61.44C118.255 61.9867 117.388 62.26 116.388 62.26ZM129.774 55.16V54.56H131.434C132.167 54.56 132.76 54.4667 133.214 54.28C133.667 54.08 134 53.72 134.214 53.2C134.427 52.6667 134.534 51.9 134.534 50.9C134.534 49.9533 134.447 49.24 134.274 48.76C134.1 48.28 133.84 47.9533 133.494 47.78C133.16 47.6067 132.74 47.52 132.234 47.52H124.834V46.92H133.234C134.194 46.92 135.054 47.0933 135.814 47.44C136.587 47.7867 137.2 48.2667 137.654 48.88C138.107 49.48 138.334 50.1733 138.334 50.96C138.334 51.7867 138.054 52.52 137.494 53.16C136.947 53.7867 136.16 54.28 135.134 54.64C134.107 54.9867 132.874 55.16 131.434 55.16H129.774ZM124.834 62V61.4H132.254V62H124.834ZM126.734 61.7V46.92H129.894V61.7H126.734ZM139.15 62V61.4H140.77V53.6H139.15V53H143.53V54.54H143.61C144.05 53.7933 144.517 53.3133 145.01 53.1C145.503 52.8733 145.943 52.76 146.33 52.76C146.943 52.76 147.417 52.92 147.75 53.24C148.083 53.5467 148.25 53.9933 148.25 54.58C148.25 55.1533 148.103 55.5733 147.81 55.84C147.53 56.1067 147.177 56.24 146.75 56.24C146.363 56.24 146.01 56.1267 145.69 55.9C145.383 55.6733 145.23 55.3333 145.23 54.88C145.23 54.6133 145.27 54.42 145.35 54.3C145.443 54.18 145.49 54.0867 145.49 54.02C145.49 53.9933 145.477 53.9733 145.45 53.96C145.437 53.9333 145.397 53.92 145.33 53.92C145.117 53.92 144.863 54.06 144.57 54.34C144.29 54.62 144.043 54.9867 143.83 55.44C143.63 55.8933 143.53 56.3867 143.53 56.92V61.4H144.83V62H139.15ZM154.591 62.26C153.898 62.26 153.251 62.1467 152.651 61.92C152.051 61.6933 151.524 61.3667 151.071 60.94C150.618 60.5133 150.258 60.0133 149.991 59.44C149.738 58.8533 149.611 58.2067 149.611 57.5C149.611 56.8067 149.738 56.1733 149.991 55.6C150.258 55.0133 150.618 54.5133 151.071 54.1C151.524 53.6733 152.051 53.3467 152.651 53.12C153.251 52.88 153.898 52.76 154.591 52.76C155.284 52.76 155.931 52.88 156.531 53.12C157.131 53.3467 157.658 53.6733 158.111 54.1C158.578 54.5133 158.938 55.0133 159.191 55.6C159.458 56.1733 159.591 56.8067 159.591 57.5C159.591 58.2067 159.458 58.8533 159.191 59.44C158.938 60.0133 158.578 60.5133 158.111 60.94C157.658 61.3667 157.131 61.6933 156.531 61.92C155.931 62.1467 155.284 62.26 154.591 62.26ZM154.591 61.56C155.058 61.56 155.431 61.4533 155.711 61.24C155.991 61.0267 156.191 60.6333 156.311 60.06C156.431 59.4733 156.491 58.6267 156.491 57.52C156.491 56.4133 156.431 55.5667 156.311 54.98C156.191 54.3933 155.991 53.9933 155.711 53.78C155.431 53.5667 155.058 53.46 154.591 53.46C154.124 53.46 153.751 53.5667 153.471 53.78C153.204 53.9933 153.011 54.3933 152.891 54.98C152.771 55.5667 152.711 56.4133 152.711 57.52C152.711 58.6267 152.771 59.4733 152.891 60.06C153.011 60.6333 153.204 61.0267 153.471 61.24C153.751 61.4533 154.124 61.56 154.591 61.56ZM165.588 62.24C164.882 62.24 164.208 62.0467 163.568 61.66C162.928 61.26 162.402 60.7067 161.988 60C161.588 59.28 161.388 58.4467 161.388 57.5C161.388 56.5533 161.588 55.7267 161.988 55.02C162.388 54.3 162.908 53.7467 163.548 53.36C164.188 52.96 164.862 52.76 165.568 52.76C166.195 52.76 166.742 52.8933 167.208 53.16C167.688 53.4267 168.035 53.76 168.248 54.16H168.728L168.328 57.2C168.328 55.9333 168.108 55.0067 167.668 54.42C167.242 53.8333 166.695 53.54 166.028 53.54C165.668 53.54 165.375 53.6467 165.148 53.86C164.922 54.0733 164.755 54.4667 164.648 55.04C164.542 55.6133 164.488 56.44 164.488 57.52C164.488 58.5867 164.535 59.4067 164.628 59.98C164.735 60.5533 164.902 60.9467 165.128 61.16C165.355 61.36 165.648 61.46 166.008 61.46C166.675 61.46 167.228 61.1667 167.668 60.58C168.108 59.9933 168.328 59.0667 168.328 57.8L168.728 60.84H168.248C168.035 61.24 167.695 61.5733 167.228 61.84C166.762 62.1067 166.215 62.24 165.588 62.24ZM168.328 62V61.4H172.708V62H168.328ZM168.328 61.7V47.24H171.088V61.7H168.328ZM166.348 47.52V46.92H171.088V47.52H166.348ZM177.545 62.26C176.732 62.26 176.079 62.0467 175.585 61.62C175.105 61.18 174.865 60.6533 174.865 60.04V53.3H177.625V59.78C177.625 60.3267 177.699 60.7133 177.845 60.94C178.005 61.1667 178.245 61.28 178.565 61.28C179.019 61.28 179.412 61.1133 179.745 60.78C180.079 60.4333 180.339 59.9667 180.525 59.38C180.725 58.7933 180.825 58.14 180.825 57.42L181.225 60.42H180.745C180.505 60.9667 180.085 61.4133 179.485 61.76C178.899 62.0933 178.252 62.26 177.545 62.26ZM180.825 62V61.4H185.165V62H180.825ZM173.305 53.6V53H177.625V53.6H173.305ZM180.825 61.7V53.3H183.585V61.7H180.825ZM179.185 53.6V53H183.585V53.6H179.185ZM191.211 62.26C190.531 62.26 189.891 62.1267 189.291 61.86C188.691 61.5933 188.164 61.2333 187.711 60.78C187.258 60.3267 186.904 59.82 186.651 59.26C186.398 58.6867 186.271 58.0933 186.271 57.48C186.271 56.8933 186.391 56.32 186.631 55.76C186.884 55.2 187.231 54.6933 187.671 54.24C188.111 53.7867 188.631 53.4267 189.231 53.16C189.844 52.8933 190.511 52.76 191.231 52.76C191.871 52.76 192.458 52.8667 192.991 53.08C193.524 53.2933 193.951 53.5867 194.271 53.96C194.591 54.32 194.751 54.74 194.751 55.22C194.751 55.6867 194.598 56.0533 194.291 56.32C193.998 56.5733 193.624 56.7 193.171 56.7C192.744 56.7 192.398 56.58 192.131 56.34C191.864 56.1 191.731 55.78 191.731 55.38C191.731 55.1133 191.778 54.9133 191.871 54.78C191.978 54.6467 192.078 54.5267 192.171 54.42C192.264 54.3133 192.311 54.18 192.311 54.02C192.311 53.82 192.218 53.6667 192.031 53.56C191.858 53.4533 191.618 53.4 191.311 53.4C190.924 53.4 190.584 53.5133 190.291 53.74C189.998 53.9667 189.771 54.3933 189.611 55.02C189.451 55.6467 189.371 56.5733 189.371 57.8C189.371 58.7867 189.431 59.56 189.551 60.12C189.684 60.6667 189.898 61.0467 190.191 61.26C190.498 61.4733 190.898 61.58 191.391 61.58C192.111 61.58 192.718 61.38 193.211 60.98C193.718 60.58 194.151 59.9333 194.511 59.04H195.171C194.904 60 194.431 60.78 193.751 61.38C193.084 61.9667 192.238 62.26 191.211 62.26ZM199.882 62.26C199.082 62.26 198.495 62.12 198.122 61.84C197.762 61.5467 197.582 61.1267 197.582 60.58V53.62H195.962V53C196.468 52.96 196.942 52.78 197.382 52.46C197.835 52.14 198.242 51.7267 198.602 51.22C198.975 50.7133 199.282 50.16 199.522 49.56H200.342V53H202.642V53.62H200.342V60.24C200.342 60.84 200.595 61.14 201.102 61.14C201.368 61.14 201.602 61.06 201.802 60.9C202.015 60.7267 202.248 60.4333 202.502 60.02L202.982 60.3C202.622 61.0333 202.202 61.5467 201.722 61.84C201.242 62.12 200.628 62.26 199.882 62.26ZM204.852 61.7V53.32H207.612V61.7H204.852ZM203.232 62V61.4H208.912V62H203.232ZM203.232 53.6V53H207.612V53.6H203.232ZM206.072 50.68C205.645 50.68 205.272 50.52 204.952 50.2C204.632 49.88 204.472 49.5067 204.472 49.08C204.472 48.64 204.632 48.26 204.952 47.94C205.272 47.62 205.645 47.46 206.072 47.46C206.512 47.46 206.892 47.62 207.212 47.94C207.532 48.26 207.692 48.64 207.692 49.08C207.692 49.5067 207.532 49.88 207.212 50.2C206.892 50.52 206.512 50.68 206.072 50.68ZM208.919 53.6V53H214.279V53.6H208.919ZM215.679 53.6V53H219.439V53.6H215.679ZM213.899 62.26L209.839 53.2H212.959L215.299 58.66H215.399L213.899 62.26ZM213.899 62.26L217.499 53.36H218.219L214.479 62.26H213.899ZM221.063 61.7V53.32H223.823V61.7H221.063ZM219.443 62V61.4H225.123V62H219.443ZM219.443 53.6V53H223.823V53.6H219.443ZM222.283 50.68C221.856 50.68 221.483 50.52 221.163 50.2C220.843 49.88 220.683 49.5067 220.683 49.08C220.683 48.64 220.843 48.26 221.163 47.94C221.483 47.62 221.856 47.46 222.283 47.46C222.723 47.46 223.103 47.62 223.423 47.94C223.743 48.26 223.903 48.64 223.903 49.08C223.903 49.5067 223.743 49.88 223.423 50.2C223.103 50.52 222.723 50.68 222.283 50.68ZM229.55 62.26C228.75 62.26 228.163 62.12 227.79 61.84C227.43 61.5467 227.25 61.1267 227.25 60.58V53.62H225.63V53C226.136 52.96 226.61 52.78 227.05 52.46C227.503 52.14 227.91 51.7267 228.27 51.22C228.643 50.7133 228.95 50.16 229.19 49.56H230.01V53H232.31V53.62H230.01V60.24C230.01 60.84 230.263 61.14 230.77 61.14C231.036 61.14 231.27 61.06 231.47 60.9C231.683 60.7267 231.916 60.4333 232.17 60.02L232.65 60.3C232.29 61.0333 231.87 61.5467 231.39 61.84C230.91 62.12 230.296 62.26 229.55 62.26ZM233.9 68.46C233.513 68.46 233.207 68.38 232.98 68.22C232.753 68.0733 232.593 67.8867 232.5 67.66C232.407 67.4467 232.36 67.24 232.36 67.04C232.36 66.6667 232.473 66.3667 232.7 66.14C232.94 65.9133 233.233 65.8 233.58 65.8C233.887 65.8 234.113 65.8667 234.26 66C234.42 66.1333 234.56 66.2667 234.68 66.4C234.8 66.5333 234.947 66.6 235.12 66.6C235.227 66.6 235.313 66.56 235.38 66.48C235.46 66.4 235.54 66.2733 235.62 66.1L240.8 53.34H241.62L236.12 66.46C235.787 67.2733 235.427 67.8067 235.04 68.06C234.667 68.3267 234.287 68.46 233.9 68.46ZM237.38 62.06L233.06 53.2H236.24L238.66 58.48H238.76L237.38 62.06ZM232.2 53.6V53H238.02V53.6H232.2ZM239.22 53.6V53H242.72V53.6H239.22Z" fill="#F9FFFD"/>
<rect x="40" y="93" width="76" height="24" rx="12" fill="#F9FFFD"/>
<path d="M99.3344 105.771L90.8536 105.91C90.7035 105.913 90.556 105.871 90.4299 105.789C90.3037 105.708 90.2045 105.591 90.1447 105.453C90.085 105.315 90.0675 105.163 90.0943 105.015C90.1212 104.868 90.1912 104.731 90.2956 104.623L94.4663 100.313C94.6063 100.169 94.798 100.086 94.9993 100.082C95.2006 100.079 95.395 100.156 95.5397 100.296L99.8498 104.466C99.9576 104.571 100.032 104.705 100.064 104.852C100.096 104.998 100.083 105.151 100.028 105.291C99.9727 105.43 99.8774 105.551 99.7539 105.636C99.6305 105.721 99.4845 105.768 99.3344 105.771Z" fill="#003539"/>
<path d="M48.937 107.186V101.268H49.421V107.186H48.937ZM46.44 104.469V103.985H51.918V104.469H46.44ZM55.7254 108.132C55.0727 108.132 54.53 108.033 54.0974 107.835C53.672 107.637 53.353 107.369 53.1404 107.032C52.9277 106.695 52.8214 106.321 52.8214 105.91C52.8214 105.617 52.913 105.331 53.0964 105.052C53.287 104.773 53.5474 104.531 53.8774 104.326C54.2074 104.113 54.5814 103.967 54.9994 103.886V103.842H56.4734V103.886C56.8914 103.974 57.2617 104.124 57.5844 104.337C57.9144 104.542 58.171 104.784 58.3544 105.063C58.545 105.334 58.6404 105.617 58.6404 105.91C58.6404 106.321 58.534 106.695 58.3214 107.032C58.1087 107.369 57.786 107.637 57.3534 107.835C56.9207 108.033 56.378 108.132 55.7254 108.132ZM55.7254 107.802C56.224 107.802 56.576 107.655 56.7814 107.362C56.994 107.069 57.1004 106.585 57.1004 105.91C57.1004 105.301 56.994 104.836 56.7814 104.513C56.576 104.19 56.224 104.029 55.7254 104.029C55.2267 104.029 54.8747 104.19 54.6694 104.513C54.464 104.836 54.3614 105.301 54.3614 105.91C54.3614 106.585 54.464 107.069 54.6694 107.362C54.8747 107.655 55.2267 107.802 55.7254 107.802ZM55.7364 103.754C56.1544 103.754 56.4477 103.6 56.6164 103.292C56.7924 102.977 56.8804 102.529 56.8804 101.95C56.8804 101.349 56.7924 100.92 56.6164 100.663C56.4477 100.406 56.1544 100.278 55.7364 100.278C55.3184 100.278 55.0214 100.406 54.8454 100.663C54.6694 100.92 54.5814 101.349 54.5814 101.95C54.5814 102.529 54.6694 102.977 54.8454 103.292C55.0214 103.6 55.3184 103.754 55.7364 103.754ZM55.7364 103.919C55.2597 103.919 54.8234 103.838 54.4274 103.677C54.0387 103.508 53.727 103.274 53.4924 102.973C53.265 102.665 53.1514 102.306 53.1514 101.895C53.1514 101.536 53.2467 101.209 53.4374 100.916C53.6354 100.623 53.925 100.388 54.3064 100.212C54.6877 100.036 55.1644 99.948 55.7364 99.948C56.3084 99.948 56.785 100.036 57.1664 100.212C57.5477 100.388 57.8337 100.623 58.0244 100.916C58.215 101.209 58.3104 101.536 58.3104 101.895C58.3104 102.306 58.193 102.665 57.9584 102.973C57.731 103.274 57.423 103.508 57.0344 103.677C56.6457 103.838 56.213 103.919 55.7364 103.919ZM62.4715 108.132C61.8188 108.132 61.2761 108.033 60.8435 107.835C60.4181 107.637 60.0991 107.369 59.8865 107.032C59.6738 106.695 59.5675 106.321 59.5675 105.91C59.5675 105.617 59.6591 105.331 59.8425 105.052C60.0331 104.773 60.2935 104.531 60.6235 104.326C60.9535 104.113 61.3275 103.967 61.7455 103.886V103.842H63.2195V103.886C63.6375 103.974 64.0078 104.124 64.3305 104.337C64.6605 104.542 64.9171 104.784 65.1005 105.063C65.2911 105.334 65.3865 105.617 65.3865 105.91C65.3865 106.321 65.2801 106.695 65.0675 107.032C64.8548 107.369 64.5321 107.637 64.0995 107.835C63.6668 108.033 63.1241 108.132 62.4715 108.132ZM62.4715 107.802C62.9701 107.802 63.3221 107.655 63.5275 107.362C63.7401 107.069 63.8465 106.585 63.8465 105.91C63.8465 105.301 63.7401 104.836 63.5275 104.513C63.3221 104.19 62.9701 104.029 62.4715 104.029C61.9728 104.029 61.6208 104.19 61.4155 104.513C61.2101 104.836 61.1075 105.301 61.1075 105.91C61.1075 106.585 61.2101 107.069 61.4155 107.362C61.6208 107.655 61.9728 107.802 62.4715 107.802ZM62.4825 103.754C62.9005 103.754 63.1938 103.6 63.3625 103.292C63.5385 102.977 63.6265 102.529 63.6265 101.95C63.6265 101.349 63.5385 100.92 63.3625 100.663C63.1938 100.406 62.9005 100.278 62.4825 100.278C62.0645 100.278 61.7675 100.406 61.5915 100.663C61.4155 100.92 61.3275 101.349 61.3275 101.95C61.3275 102.529 61.4155 102.977 61.5915 103.292C61.7675 103.6 62.0645 103.754 62.4825 103.754ZM62.4825 103.919C62.0058 103.919 61.5695 103.838 61.1735 103.677C60.7848 103.508 60.4731 103.274 60.2385 102.973C60.0111 102.665 59.8975 102.306 59.8975 101.895C59.8975 101.536 59.9928 101.209 60.1835 100.916C60.3815 100.623 60.6711 100.388 61.0525 100.212C61.4338 100.036 61.9105 99.948 62.4825 99.948C63.0545 99.948 63.5311 100.036 63.9125 100.212C64.2938 100.388 64.5798 100.623 64.7705 100.916C64.9611 101.209 65.0565 101.536 65.0565 101.895C65.0565 102.306 64.9391 102.665 64.7045 102.973C64.4771 103.274 64.1691 103.508 63.7805 103.677C63.3918 103.838 62.9591 103.919 62.4825 103.919ZM67.0946 108.132C66.8746 108.132 66.6839 108.055 66.5226 107.901C66.3686 107.74 66.2916 107.549 66.2916 107.329C66.2916 107.109 66.3686 106.922 66.5226 106.768C66.6839 106.607 66.8746 106.526 67.0946 106.526C67.3146 106.526 67.5016 106.607 67.6556 106.768C67.8169 106.922 67.8976 107.109 67.8976 107.329C67.8976 107.549 67.8169 107.74 67.6556 107.901C67.5016 108.055 67.3146 108.132 67.0946 108.132ZM70.962 108.132C70.5367 108.132 70.1517 108.07 69.807 107.945C69.4623 107.82 69.1873 107.648 68.982 107.428C68.784 107.201 68.685 106.94 68.685 106.647C68.685 106.405 68.751 106.211 68.883 106.064C69.0223 105.91 69.1947 105.833 69.4 105.833C69.598 105.833 69.763 105.888 69.895 105.998C70.0343 106.108 70.104 106.258 70.104 106.449C70.104 106.574 70.0783 106.673 70.027 106.746C69.9757 106.812 69.9133 106.871 69.84 106.922C69.774 106.966 69.7153 107.014 69.664 107.065C69.6127 107.116 69.587 107.186 69.587 107.274C69.587 107.384 69.642 107.479 69.752 107.56C69.862 107.641 70.0013 107.703 70.17 107.747C70.346 107.784 70.533 107.802 70.731 107.802C71.2883 107.802 71.721 107.63 72.029 107.285C72.3443 106.933 72.502 106.409 72.502 105.712C72.502 104.957 72.3297 104.407 71.985 104.062C71.6477 103.71 71.215 103.534 70.687 103.534C70.4597 103.534 70.225 103.563 69.983 103.622C69.7483 103.681 69.5613 103.758 69.422 103.853L69.499 103.435C69.5503 103.406 69.642 103.373 69.774 103.336C69.906 103.299 70.071 103.266 70.269 103.237C70.467 103.208 70.6907 103.193 70.94 103.193C71.5853 103.193 72.1353 103.296 72.59 103.501C73.052 103.706 73.404 103.989 73.646 104.348C73.8953 104.7 74.02 105.103 74.02 105.558C74.02 106.049 73.8807 106.489 73.602 106.878C73.3307 107.267 72.964 107.575 72.502 107.802C72.04 108.022 71.5267 108.132 70.962 108.132ZM69.422 103.853L69.246 103.743L69.653 100.124H70.038L69.631 103.644L69.422 103.853ZM69.928 101.18L69.653 100.124H72.579C72.821 100.124 72.9933 100.102 73.096 100.058C73.206 100.007 73.2977 99.9113 73.371 99.772H73.646L73.25 101.18H69.928ZM76.6576 108L81.3876 99.717H82.0366L77.3066 108H76.6576ZM76.8776 104.139C76.5036 104.139 76.1663 104.044 75.8656 103.853C75.5723 103.662 75.3376 103.398 75.1616 103.061C74.9929 102.724 74.9086 102.331 74.9086 101.884C74.9086 101.437 74.9929 101.044 75.1616 100.707C75.3376 100.362 75.5723 100.095 75.8656 99.904C76.1663 99.7133 76.5036 99.618 76.8776 99.618C77.2516 99.618 77.5889 99.7133 77.8896 99.904C78.1903 100.095 78.4249 100.362 78.5936 100.707C78.7696 101.044 78.8576 101.437 78.8576 101.884C78.8576 102.331 78.7696 102.724 78.5936 103.061C78.4249 103.398 78.1903 103.662 77.8896 103.853C77.5889 104.044 77.2516 104.139 76.8776 104.139ZM76.8776 103.908C77.0829 103.908 77.2479 103.853 77.3726 103.743C77.4973 103.633 77.5853 103.435 77.6366 103.149C77.6953 102.856 77.7246 102.434 77.7246 101.884C77.7246 101.327 77.6953 100.901 77.6366 100.608C77.5853 100.315 77.4973 100.113 77.3726 100.003C77.2479 99.893 77.0829 99.838 76.8776 99.838C76.6649 99.838 76.4963 99.893 76.3716 100.003C76.2469 100.113 76.1589 100.315 76.1076 100.608C76.0563 100.901 76.0306 101.327 76.0306 101.884C76.0306 102.434 76.0563 102.856 76.1076 103.149C76.1589 103.435 76.2469 103.633 76.3716 103.743C76.4963 103.853 76.6649 103.908 76.8776 103.908ZM81.9376 108.088C81.5636 108.088 81.2263 107.993 80.9256 107.802C80.6323 107.611 80.3976 107.347 80.2216 107.01C80.0529 106.673 79.9686 106.28 79.9686 105.833C79.9686 105.386 80.0529 104.993 80.2216 104.656C80.3976 104.311 80.6323 104.044 80.9256 103.853C81.2263 103.662 81.5636 103.567 81.9376 103.567C82.3116 103.567 82.6489 103.662 82.9496 103.853C83.2503 104.044 83.4849 104.311 83.6536 104.656C83.8296 104.993 83.9176 105.386 83.9176 105.833C83.9176 106.28 83.8296 106.673 83.6536 107.01C83.4849 107.347 83.2503 107.611 82.9496 107.802C82.6489 107.993 82.3116 108.088 81.9376 108.088ZM81.9376 107.857C82.1429 107.857 82.3079 107.802 82.4326 107.692C82.5573 107.582 82.6453 107.384 82.6966 107.098C82.7553 106.805 82.7846 106.383 82.7846 105.833C82.7846 105.276 82.7553 104.85 82.6966 104.557C82.6453 104.264 82.5573 104.062 82.4326 103.952C82.3079 103.842 82.1429 103.787 81.9376 103.787C81.7249 103.787 81.5563 103.842 81.4316 103.952C81.3069 104.062 81.2189 104.264 81.1676 104.557C81.1163 104.85 81.0906 105.276 81.0906 105.833C81.0906 106.383 81.1163 106.805 81.1676 107.098C81.2189 107.384 81.3069 107.582 81.4316 107.692C81.5563 107.802 81.7249 107.857 81.9376 107.857Z" fill="#003539"/>
<rect x="70" y="308" width="24" height="55" fill="#F4EDCE"/>
<rect x="118" y="276" width="24" height="87" fill="#F9FFFD"/>
<rect x="166" y="246" width="24" height="117" fill="#F4EDCE"/>
<rect x="214" y="227" width="24" height="136" fill="#F9FFFD"/>
<rect x="262" y="204" width="24" height="159" fill="#F4EDCE"/>
</svg>
