<svg width="314" height="357" viewBox="0 0 314 357" fill="none" xmlns="http://www.w3.org/2000/svg">
<rect width="308" height="357" rx="15" fill="#FFF1C8"/>
<path d="M64.22 70.26C63.18 70.26 62.2067 70.0467 61.3 69.62C60.4067 69.1933 59.62 68.6133 58.94 67.88C58.2733 67.1467 57.7467 66.3133 57.36 65.38C56.9867 64.4467 56.8 63.4667 56.8 62.44C56.8 61.4133 56.9867 60.44 57.36 59.52C57.7467 58.5867 58.2733 57.7667 58.94 57.06C59.62 56.34 60.4067 55.7733 61.3 55.36C62.2067 54.9467 63.18 54.74 64.22 54.74C65.26 54.74 66.2333 54.9467 67.14 55.36C68.0467 55.7733 68.8333 56.34 69.5 57.06C70.18 57.7667 70.7067 58.5867 71.08 59.52C71.4667 60.44 71.66 61.4133 71.66 62.44C71.66 63.4667 71.4667 64.4467 71.08 65.38C70.7067 66.3133 70.18 67.1467 69.5 67.88C68.8333 68.6133 68.0467 69.1933 67.14 69.62C66.2333 70.0467 65.26 70.26 64.22 70.26ZM64.2 69.56C64.88 69.56 65.4533 69.46 65.92 69.26C66.3867 69.0467 66.76 68.68 67.04 68.16C67.3333 67.64 67.54 66.92 67.66 66C67.7933 65.08 67.86 63.9067 67.86 62.48C67.86 61.0533 67.7933 59.8867 67.66 58.98C67.54 58.06 67.3333 57.3467 67.04 56.84C66.76 56.32 66.3867 55.96 65.92 55.76C65.4533 55.5467 64.88 55.44 64.2 55.44C63.5333 55.44 62.9667 55.5467 62.5 55.76C62.0467 55.96 61.68 56.3133 61.4 56.82C61.12 57.3267 60.9133 58.04 60.78 58.96C60.66 59.8667 60.6 61.0267 60.6 62.44C60.6 63.8933 60.66 65.0867 60.78 66.02C60.9133 66.94 61.12 67.66 61.4 68.18C61.6933 68.6867 62.0667 69.0467 62.52 69.26C62.9867 69.46 63.5467 69.56 64.2 69.56ZM79.9848 70.24C79.3715 70.24 78.8315 70.1067 78.3648 69.84C77.8982 69.5733 77.5515 69.24 77.3248 68.84H76.8448L77.2448 65.8C77.2448 67.0667 77.4648 67.9933 77.9048 68.58C78.3582 69.1667 78.9115 69.46 79.5648 69.46C79.9248 69.46 80.2115 69.3533 80.4248 69.14C80.6515 68.9267 80.8115 68.54 80.9048 67.98C81.0115 67.4067 81.0648 66.5933 81.0648 65.54C81.0648 64.46 81.0115 63.6333 80.9048 63.06C80.8115 62.4733 80.6515 62.0733 80.4248 61.86C80.1982 61.6467 79.9048 61.54 79.5448 61.54C78.8915 61.54 78.3448 61.8333 77.9048 62.42C77.4648 63.0067 77.2448 63.9333 77.2448 65.2L76.8448 62.16H77.3248C77.5515 61.76 77.8982 61.4267 78.3648 61.16C78.8448 60.8933 79.3915 60.76 80.0048 60.76C80.7382 60.76 81.4182 60.96 82.0448 61.36C82.6848 61.7467 83.1982 62.3 83.5848 63.02C83.9715 63.7267 84.1648 64.5533 84.1648 65.5C84.1648 66.4467 83.9648 67.28 83.5648 68C83.1782 68.7067 82.6648 69.26 82.0248 69.66C81.3982 70.0467 80.7182 70.24 79.9848 70.24ZM73.0048 76.28V75.68H79.2448V76.28H73.0048ZM74.4848 75.98V61.32H77.2448V75.98H74.4848ZM72.8648 61.6V61H77.2448V61.6H72.8648ZM89.1239 70.26C88.3239 70.26 87.7372 70.12 87.3639 69.84C87.0039 69.5467 86.8239 69.1267 86.8239 68.58V61.62H85.2039V61C85.7106 60.96 86.1839 60.78 86.6239 60.46C87.0772 60.14 87.4839 59.7267 87.8439 59.22C88.2172 58.7133 88.5239 58.16 88.7639 57.56H89.5839V61H91.8839V61.62H89.5839V68.24C89.5839 68.84 89.8372 69.14 90.3439 69.14C90.6106 69.14 90.8439 69.06 91.0439 68.9C91.2572 68.7267 91.4906 68.4333 91.7439 68.02L92.2239 68.3C91.8639 69.0333 91.4439 69.5467 90.9639 69.84C90.4839 70.12 89.8706 70.26 89.1239 70.26ZM94.0942 69.7V61.32H96.8542V69.7H94.0942ZM92.4742 70V69.4H98.1542V70H92.4742ZM92.4742 61.6V61H96.8542V61.6H92.4742ZM95.3142 58.68C94.8876 58.68 94.5142 58.52 94.1942 58.2C93.8742 57.88 93.7142 57.5067 93.7142 57.08C93.7142 56.64 93.8742 56.26 94.1942 55.94C94.5142 55.62 94.8876 55.46 95.3142 55.46C95.7542 55.46 96.1342 55.62 96.4542 55.94C96.7742 56.26 96.9342 56.64 96.9342 57.08C96.9342 57.5067 96.7742 57.88 96.4542 58.2C96.1342 58.52 95.7542 58.68 95.3142 58.68ZM112.341 69.7V62.64C112.341 61.9733 112.041 61.64 111.441 61.64C111.028 61.64 110.648 61.82 110.301 62.18C109.954 62.54 109.674 63.0333 109.461 63.66C109.261 64.2733 109.161 64.9733 109.161 65.76L108.761 62.66H109.241C109.494 62.0733 109.861 61.6133 110.341 61.28C110.834 60.9333 111.454 60.76 112.201 60.76C113.068 60.76 113.768 60.9733 114.301 61.4C114.834 61.8133 115.101 62.3267 115.101 62.94V69.7H112.341ZM98.8609 70V69.4H104.541V70H98.8609ZM100.481 69.7V61.32H103.241V69.7H100.481ZM105.061 70V69.4H110.441V70H105.061ZM98.8609 61.6V61H103.241V61.6H98.8609ZM106.421 69.7V62.64C106.421 61.9733 106.121 61.64 105.521 61.64C105.108 61.64 104.728 61.82 104.381 62.18C104.034 62.54 103.754 63.0333 103.541 63.66C103.341 64.2733 103.241 64.9733 103.241 65.76L102.841 62.66H103.321C103.574 62.0733 103.941 61.6133 104.421 61.28C104.914 60.9333 105.534 60.76 106.281 60.76C107.148 60.76 107.848 60.9733 108.381 61.4C108.914 61.8133 109.181 62.3267 109.181 62.94V69.7H106.421ZM110.981 70V69.4H116.361V70H110.981ZM118.684 69.7V61.32H121.444V69.7H118.684ZM117.064 70V69.4H122.744V70H117.064ZM117.064 61.6V61H121.444V61.6H117.064ZM119.904 58.68C119.477 58.68 119.104 58.52 118.784 58.2C118.464 57.88 118.304 57.5067 118.304 57.08C118.304 56.64 118.464 56.26 118.784 55.94C119.104 55.62 119.477 55.46 119.904 55.46C120.344 55.46 120.724 55.62 121.044 55.94C121.364 56.26 121.524 56.64 121.524 57.08C121.524 57.5067 121.364 57.88 121.044 58.2C120.724 58.52 120.344 58.68 119.904 58.68ZM123.611 69.7L123.551 69.3L129.111 61.18H131.691L131.971 61.68L126.551 69.7H123.611ZM123.551 70V69.3L123.711 69.4H128.491C129.237 69.4 129.871 69.1733 130.391 68.72C130.911 68.2533 131.191 67.5533 131.231 66.62L131.251 66.3H131.851V70H123.551ZM124.191 64.5V61H131.971V61.68L131.811 61.6H127.551C126.977 61.6 126.484 61.7333 126.071 62C125.671 62.2667 125.357 62.62 125.131 63.06C124.917 63.4867 124.804 63.9667 124.791 64.5H124.191ZM138.463 70.26C137.769 70.26 137.116 70.1267 136.503 69.86C135.903 69.5933 135.369 69.2333 134.903 68.78C134.449 68.3267 134.096 67.8133 133.843 67.24C133.589 66.6667 133.463 66.0667 133.463 65.44C133.463 64.6667 133.663 63.9267 134.063 63.22C134.463 62.5 135.029 61.9133 135.763 61.46C136.496 60.9933 137.356 60.76 138.343 60.76C139.143 60.76 139.856 60.92 140.483 61.24C141.123 61.56 141.623 62.02 141.983 62.62C142.356 63.2067 142.543 63.9067 142.543 64.72V64.94H135.603V64.34H139.723V63.12C139.723 61.9733 139.243 61.4 138.283 61.4C137.869 61.4 137.536 61.5267 137.283 61.78C137.029 62.0333 136.843 62.4667 136.723 63.08C136.616 63.68 136.563 64.5067 136.563 65.56C136.563 66.64 136.623 67.4733 136.743 68.06C136.863 68.6333 137.069 69.0267 137.363 69.24C137.656 69.4533 138.056 69.56 138.563 69.56C139.269 69.56 139.909 69.3867 140.483 69.04C141.069 68.6933 141.556 68.0933 141.943 67.24H142.603C142.323 68.16 141.809 68.8933 141.063 69.44C140.329 69.9867 139.463 70.26 138.463 70.26ZM157.651 70.26C156.678 70.26 155.771 70.0667 154.931 69.68C154.091 69.2933 153.351 68.7533 152.711 68.06C152.084 67.3533 151.591 66.54 151.231 65.62C150.884 64.7 150.711 63.7133 150.711 62.66C150.711 61.5533 150.904 60.52 151.291 59.56C151.678 58.6 152.211 57.76 152.891 57.04C153.571 56.32 154.371 55.76 155.291 55.36C156.211 54.9467 157.198 54.74 158.251 54.74C158.904 54.74 159.478 54.8333 159.971 55.02C160.464 55.1933 160.998 55.4933 161.571 55.92L162.351 54.92H162.951V59.64H162.351C162.244 58.9467 162.031 58.28 161.711 57.64C161.391 57 160.938 56.4733 160.351 56.06C159.778 55.6467 159.031 55.44 158.111 55.44C157.591 55.44 157.111 55.5333 156.671 55.72C156.244 55.9067 155.864 56.26 155.531 56.78C155.211 57.3 154.958 58.0467 154.771 59.02C154.598 59.9933 154.511 61.2667 154.511 62.84C154.511 64.1733 154.578 65.2733 154.711 66.14C154.858 67.0067 155.058 67.6867 155.311 68.18C155.578 68.6733 155.904 69.02 156.291 69.22C156.678 69.42 157.118 69.52 157.611 69.52C158.438 69.52 159.058 69.3067 159.471 68.88C159.884 68.4533 160.091 67.86 160.091 67.1V64.36H163.731V66.6C163.518 67.28 163.098 67.9 162.471 68.46C161.858 69.0067 161.124 69.4467 160.271 69.78C159.431 70.1 158.558 70.26 157.651 70.26ZM158.171 64.6V64H165.271V64.6H158.171ZM165.912 70V69.4H167.532V61.6H165.912V61H170.292V62.54H170.372C170.812 61.7933 171.278 61.3133 171.772 61.1C172.265 60.8733 172.705 60.76 173.092 60.76C173.705 60.76 174.178 60.92 174.512 61.24C174.845 61.5467 175.012 61.9933 175.012 62.58C175.012 63.1533 174.865 63.5733 174.572 63.84C174.292 64.1067 173.938 64.24 173.512 64.24C173.125 64.24 172.772 64.1267 172.452 63.9C172.145 63.6733 171.992 63.3333 171.992 62.88C171.992 62.6133 172.032 62.42 172.112 62.3C172.205 62.18 172.252 62.0867 172.252 62.02C172.252 61.9933 172.238 61.9733 172.212 61.96C172.198 61.9333 172.158 61.92 172.092 61.92C171.878 61.92 171.625 62.06 171.332 62.34C171.052 62.62 170.805 62.9867 170.592 63.44C170.392 63.8933 170.292 64.3867 170.292 64.92V69.4H171.592V70H165.912ZM181.353 70.26C180.659 70.26 180.013 70.1467 179.413 69.92C178.813 69.6933 178.286 69.3667 177.833 68.94C177.379 68.5133 177.019 68.0133 176.753 67.44C176.499 66.8533 176.373 66.2067 176.373 65.5C176.373 64.8067 176.499 64.1733 176.753 63.6C177.019 63.0133 177.379 62.5133 177.833 62.1C178.286 61.6733 178.813 61.3467 179.413 61.12C180.013 60.88 180.659 60.76 181.353 60.76C182.046 60.76 182.693 60.88 183.293 61.12C183.893 61.3467 184.419 61.6733 184.873 62.1C185.339 62.5133 185.699 63.0133 185.953 63.6C186.219 64.1733 186.353 64.8067 186.353 65.5C186.353 66.2067 186.219 66.8533 185.953 67.44C185.699 68.0133 185.339 68.5133 184.873 68.94C184.419 69.3667 183.893 69.6933 183.293 69.92C182.693 70.1467 182.046 70.26 181.353 70.26ZM181.353 69.56C181.819 69.56 182.193 69.4533 182.473 69.24C182.753 69.0267 182.953 68.6333 183.073 68.06C183.193 67.4733 183.253 66.6267 183.253 65.52C183.253 64.4133 183.193 63.5667 183.073 62.98C182.953 62.3933 182.753 61.9933 182.473 61.78C182.193 61.5667 181.819 61.46 181.353 61.46C180.886 61.46 180.513 61.5667 180.233 61.78C179.966 61.9933 179.773 62.3933 179.653 62.98C179.533 63.5667 179.473 64.4133 179.473 65.52C179.473 66.6267 179.533 67.4733 179.653 68.06C179.773 68.6333 179.966 69.0267 180.233 69.24C180.513 69.4533 180.886 69.56 181.353 69.56ZM191.038 70.26L187.718 61.6H186.637V61H191.998V61.6H190.818L192.418 66.26H192.498L194.438 61H195.158L197.338 66.26H197.418L198.958 61.6H197.378V61H201.138V61.6H199.678L196.678 70.26H196.098L193.818 64.68H193.738L191.618 70.26H191.038ZM204.866 70.26C204.066 70.26 203.479 70.12 203.106 69.84C202.746 69.5467 202.566 69.1267 202.566 68.58V61.62H200.946V61C201.453 60.96 201.926 60.78 202.366 60.46C202.819 60.14 203.226 59.7267 203.586 59.22C203.959 58.7133 204.266 58.16 204.506 57.56H205.326V61H207.626V61.62H205.326V68.24C205.326 68.84 205.579 69.14 206.086 69.14C206.353 69.14 206.586 69.06 206.786 68.9C206.999 68.7267 207.233 68.4333 207.486 68.02L207.966 68.3C207.606 69.0333 207.186 69.5467 206.706 69.84C206.226 70.12 205.613 70.26 204.866 70.26ZM216.423 69.7V62.84C216.423 62.3733 216.343 62.06 216.183 61.9C216.023 61.7267 215.81 61.64 215.543 61.64C215.103 61.64 214.697 61.82 214.323 62.18C213.963 62.54 213.677 63.0333 213.463 63.66C213.25 64.2733 213.143 64.9733 213.143 65.76L212.743 62.66H213.223C213.49 62.0733 213.87 61.6133 214.363 61.28C214.87 60.9333 215.503 60.76 216.263 60.76C217.143 60.76 217.85 60.9733 218.383 61.4C218.917 61.8133 219.183 62.3267 219.183 62.94V69.7H216.423ZM208.763 70V69.4H214.443V70H208.763ZM215.063 70V69.4H220.443V70H215.063ZM210.383 69.7V55.24H213.143V69.7H210.383ZM208.763 55.52V54.92H213.143V55.52H208.763Z" fill="#003539"/>
<path d="M84.61 300.79V290.444H86.822V300.79H84.61ZM83.28 301V300.58H88.194V301H83.28ZM83.28 290.864V290.444H88.194V290.864H83.28ZM94.0424 300.79V295.848C94.0424 295.381 93.8324 295.148 93.4124 295.148C93.1044 295.148 92.8244 295.274 92.5724 295.526C92.3204 295.778 92.1197 296.123 91.9704 296.562C91.8211 296.991 91.7464 297.481 91.7464 298.032L91.4664 295.862H91.8024C91.9891 295.451 92.2551 295.129 92.6004 294.896C92.9551 294.653 93.4031 294.532 93.9444 294.532C94.5511 294.532 95.0411 294.681 95.4144 294.98C95.7877 295.269 95.9744 295.629 95.9744 296.058V300.79H94.0424ZM88.6804 301V300.58H92.6564V301H88.6804ZM89.8144 300.79V294.924H91.7464V300.79H89.8144ZM93.0904 301V300.58H96.8564V301H93.0904ZM88.6804 295.12V294.7H91.7464V295.12H88.6804ZM101.088 301.182C100.612 301.182 100.164 301.089 99.744 300.902C99.324 300.715 98.9553 300.463 98.638 300.146C98.3207 299.829 98.0733 299.474 97.896 299.082C97.7187 298.681 97.63 298.265 97.63 297.836C97.63 297.425 97.714 297.024 97.882 296.632C98.0593 296.24 98.302 295.885 98.61 295.568C98.918 295.251 99.282 294.999 99.702 294.812C100.131 294.625 100.598 294.532 101.102 294.532C101.55 294.532 101.961 294.607 102.334 294.756C102.707 294.905 103.006 295.111 103.23 295.372C103.454 295.624 103.566 295.918 103.566 296.254C103.566 296.581 103.459 296.837 103.244 297.024C103.039 297.201 102.777 297.29 102.46 297.29C102.161 297.29 101.919 297.206 101.732 297.038C101.545 296.87 101.452 296.646 101.452 296.366C101.452 296.179 101.485 296.039 101.55 295.946C101.625 295.853 101.695 295.769 101.76 295.694C101.825 295.619 101.858 295.526 101.858 295.414C101.858 295.274 101.793 295.167 101.662 295.092C101.541 295.017 101.373 294.98 101.158 294.98C100.887 294.98 100.649 295.059 100.444 295.218C100.239 295.377 100.08 295.675 99.968 296.114C99.856 296.553 99.8 297.201 99.8 298.06C99.8 298.751 99.842 299.292 99.926 299.684C100.019 300.067 100.169 300.333 100.374 300.482C100.589 300.631 100.869 300.706 101.214 300.706C101.718 300.706 102.143 300.566 102.488 300.286C102.843 300.006 103.146 299.553 103.398 298.928H103.86C103.673 299.6 103.342 300.146 102.866 300.566C102.399 300.977 101.807 301.182 101.088 301.182ZM104.553 301V300.58H105.687V295.12H104.553V294.7H107.619V295.778H107.675C107.983 295.255 108.31 294.919 108.655 294.77C109.001 294.611 109.309 294.532 109.579 294.532C110.009 294.532 110.34 294.644 110.573 294.868C110.807 295.083 110.923 295.395 110.923 295.806C110.923 296.207 110.821 296.501 110.615 296.688C110.419 296.875 110.172 296.968 109.873 296.968C109.603 296.968 109.355 296.889 109.131 296.73C108.917 296.571 108.809 296.333 108.809 296.016C108.809 295.829 108.837 295.694 108.893 295.61C108.959 295.526 108.991 295.461 108.991 295.414C108.991 295.395 108.982 295.381 108.963 295.372C108.954 295.353 108.926 295.344 108.879 295.344C108.73 295.344 108.553 295.442 108.347 295.638C108.151 295.834 107.979 296.091 107.829 296.408C107.689 296.725 107.619 297.071 107.619 297.444V300.58H108.529V301H104.553ZM115.376 301.182C114.891 301.182 114.433 301.089 114.004 300.902C113.584 300.715 113.211 300.463 112.884 300.146C112.567 299.829 112.319 299.469 112.142 299.068C111.965 298.667 111.876 298.247 111.876 297.808C111.876 297.267 112.016 296.749 112.296 296.254C112.576 295.75 112.973 295.339 113.486 295.022C113.999 294.695 114.601 294.532 115.292 294.532C115.852 294.532 116.351 294.644 116.79 294.868C117.238 295.092 117.588 295.414 117.84 295.834C118.101 296.245 118.232 296.735 118.232 297.304V297.458H113.374V297.038H116.258V296.184C116.258 295.381 115.922 294.98 115.25 294.98C114.961 294.98 114.727 295.069 114.55 295.246C114.373 295.423 114.242 295.727 114.158 296.156C114.083 296.576 114.046 297.155 114.046 297.892C114.046 298.648 114.088 299.231 114.172 299.642C114.256 300.043 114.401 300.319 114.606 300.468C114.811 300.617 115.091 300.692 115.446 300.692C115.941 300.692 116.389 300.571 116.79 300.328C117.201 300.085 117.541 299.665 117.812 299.068H118.274C118.078 299.712 117.719 300.225 117.196 300.608C116.683 300.991 116.076 301.182 115.376 301.182ZM121.244 301.168C120.693 301.168 120.24 301.023 119.886 300.734C119.531 300.445 119.354 300.062 119.354 299.586C119.354 299.138 119.512 298.751 119.83 298.424C120.156 298.097 120.614 297.85 121.202 297.682C121.79 297.505 122.476 297.416 123.26 297.416V295.778C123.26 295.535 123.171 295.344 122.994 295.204C122.816 295.064 122.583 294.994 122.294 294.994C122.051 294.994 121.841 295.041 121.664 295.134C121.496 295.227 121.412 295.349 121.412 295.498C121.412 295.619 121.458 295.727 121.552 295.82C121.654 295.904 121.706 296.044 121.706 296.24C121.706 296.483 121.608 296.697 121.412 296.884C121.225 297.071 120.996 297.164 120.726 297.164C120.455 297.164 120.231 297.071 120.054 296.884C119.876 296.697 119.788 296.469 119.788 296.198C119.788 295.881 119.909 295.596 120.152 295.344C120.394 295.092 120.73 294.896 121.16 294.756C121.589 294.607 122.074 294.532 122.616 294.532C123.362 294.532 123.978 294.667 124.464 294.938C124.949 295.199 125.192 295.545 125.192 295.974V300.048C125.192 300.132 125.22 300.207 125.276 300.272C125.341 300.337 125.42 300.37 125.514 300.37C125.588 300.37 125.668 300.337 125.752 300.272C125.845 300.207 125.971 300.085 126.13 299.908L126.41 300.23C125.896 300.855 125.313 301.168 124.66 301.168C124.277 301.168 123.974 301.079 123.75 300.902C123.535 300.725 123.39 300.491 123.316 300.202H123.26C123.092 300.445 122.83 300.669 122.476 300.874C122.13 301.07 121.72 301.168 121.244 301.168ZM122.182 300.398C122.48 300.398 122.732 300.267 122.938 300.006C123.152 299.735 123.26 299.385 123.26 298.956V297.85C122.662 297.85 122.2 297.976 121.874 298.228C121.547 298.48 121.384 298.853 121.384 299.348C121.384 299.665 121.449 299.922 121.58 300.118C121.72 300.305 121.92 300.398 122.182 300.398ZM129.546 301.168C129.135 301.168 128.743 301.103 128.37 300.972C127.997 300.841 127.689 300.669 127.446 300.454L127.236 301H126.83V298.718H127.292L127.376 299.124C127.469 299.563 127.689 299.931 128.034 300.23C128.379 300.519 128.893 300.664 129.574 300.664C130.013 300.664 130.339 300.599 130.554 300.468C130.769 300.328 130.876 300.123 130.876 299.852C130.876 299.628 130.773 299.441 130.568 299.292C130.372 299.133 129.957 298.993 129.322 298.872C128.883 298.788 128.487 298.671 128.132 298.522C127.787 298.363 127.516 298.144 127.32 297.864C127.124 297.575 127.026 297.192 127.026 296.716C127.026 295.997 127.222 295.456 127.614 295.092C128.015 294.719 128.58 294.532 129.308 294.532C129.728 294.532 130.092 294.588 130.4 294.7C130.708 294.812 130.923 294.966 131.044 295.162L131.198 294.7H131.562V296.73H131.072L131.03 296.52C130.927 295.997 130.75 295.619 130.498 295.386C130.255 295.153 129.859 295.036 129.308 295.036C128.879 295.036 128.552 295.115 128.328 295.274C128.113 295.423 128.006 295.619 128.006 295.862C128.006 296.002 128.043 296.128 128.118 296.24C128.193 296.352 128.342 296.459 128.566 296.562C128.79 296.655 129.121 296.749 129.56 296.842C129.989 296.935 130.377 297.061 130.722 297.22C131.067 297.379 131.338 297.598 131.534 297.878C131.739 298.149 131.842 298.517 131.842 298.984C131.842 299.712 131.632 300.258 131.212 300.622C130.792 300.986 130.237 301.168 129.546 301.168ZM136.472 301.182C135.986 301.182 135.529 301.089 135.1 300.902C134.68 300.715 134.306 300.463 133.98 300.146C133.662 299.829 133.415 299.469 133.238 299.068C133.06 298.667 132.972 298.247 132.972 297.808C132.972 297.267 133.112 296.749 133.392 296.254C133.672 295.75 134.068 295.339 134.582 295.022C135.095 294.695 135.697 294.532 136.388 294.532C136.948 294.532 137.447 294.644 137.886 294.868C138.334 295.092 138.684 295.414 138.936 295.834C139.197 296.245 139.328 296.735 139.328 297.304V297.458H134.47V297.038H137.354V296.184C137.354 295.381 137.018 294.98 136.346 294.98C136.056 294.98 135.823 295.069 135.646 295.246C135.468 295.423 135.338 295.727 135.254 296.156C135.179 296.576 135.142 297.155 135.142 297.892C135.142 298.648 135.184 299.231 135.268 299.642C135.352 300.043 135.496 300.319 135.702 300.468C135.907 300.617 136.187 300.692 136.542 300.692C137.036 300.692 137.484 300.571 137.886 300.328C138.296 300.085 138.637 299.665 138.908 299.068H139.37C139.174 299.712 138.814 300.225 138.292 300.608C137.778 300.991 137.172 301.182 136.472 301.182ZM147.368 301.168C146.938 301.168 146.56 301.075 146.234 300.888C145.907 300.701 145.664 300.468 145.506 300.188H145.17L145.45 298.06C145.45 298.947 145.604 299.595 145.912 300.006C146.229 300.417 146.616 300.622 147.074 300.622C147.326 300.622 147.526 300.547 147.676 300.398C147.834 300.249 147.946 299.978 148.012 299.586C148.086 299.185 148.124 298.615 148.124 297.878C148.124 297.122 148.086 296.543 148.012 296.142C147.946 295.731 147.834 295.451 147.676 295.302C147.517 295.153 147.312 295.078 147.06 295.078C146.602 295.078 146.22 295.283 145.912 295.694C145.604 296.105 145.45 296.753 145.45 297.64L145.17 295.512H145.506C145.664 295.232 145.907 294.999 146.234 294.812C146.57 294.625 146.952 294.532 147.382 294.532C147.895 294.532 148.371 294.672 148.81 294.952C149.258 295.223 149.617 295.61 149.888 296.114C150.158 296.609 150.294 297.187 150.294 297.85C150.294 298.513 150.154 299.096 149.874 299.6C149.603 300.095 149.244 300.482 148.796 300.762C148.357 301.033 147.881 301.168 147.368 301.168ZM142.482 305.396V304.976H146.85V305.396H142.482ZM143.518 305.186V294.924H145.45V305.186H143.518ZM142.384 295.12V294.7H145.45V295.12H142.384ZM155.12 301.182C154.635 301.182 154.178 301.089 153.748 300.902C153.328 300.715 152.955 300.463 152.628 300.146C152.311 299.829 152.064 299.469 151.886 299.068C151.709 298.667 151.62 298.247 151.62 297.808C151.62 297.267 151.76 296.749 152.04 296.254C152.32 295.75 152.717 295.339 153.23 295.022C153.744 294.695 154.346 294.532 155.036 294.532C155.596 294.532 156.096 294.644 156.534 294.868C156.982 295.092 157.332 295.414 157.584 295.834C157.846 296.245 157.976 296.735 157.976 297.304V297.458H153.118V297.038H156.002V296.184C156.002 295.381 155.666 294.98 154.994 294.98C154.705 294.98 154.472 295.069 154.294 295.246C154.117 295.423 153.986 295.727 153.902 296.156C153.828 296.576 153.79 297.155 153.79 297.892C153.79 298.648 153.832 299.231 153.916 299.642C154 300.043 154.145 300.319 154.35 300.468C154.556 300.617 154.836 300.692 155.19 300.692C155.685 300.692 156.133 300.571 156.534 300.328C156.945 300.085 157.286 299.665 157.556 299.068H158.018C157.822 299.712 157.463 300.225 156.94 300.608C156.427 300.991 155.82 301.182 155.12 301.182ZM158.79 301V300.58H159.924V295.12H158.79V294.7H161.856V295.778H161.912C162.22 295.255 162.546 294.919 162.892 294.77C163.237 294.611 163.545 294.532 163.816 294.532C164.245 294.532 164.576 294.644 164.81 294.868C165.043 295.083 165.16 295.395 165.16 295.806C165.16 296.207 165.057 296.501 164.852 296.688C164.656 296.875 164.408 296.968 164.11 296.968C163.839 296.968 163.592 296.889 163.368 296.73C163.153 296.571 163.046 296.333 163.046 296.016C163.046 295.829 163.074 295.694 163.13 295.61C163.195 295.526 163.228 295.461 163.228 295.414C163.228 295.395 163.218 295.381 163.2 295.372C163.19 295.353 163.162 295.344 163.116 295.344C162.966 295.344 162.789 295.442 162.584 295.638C162.388 295.834 162.215 296.091 162.066 296.408C161.926 296.725 161.856 297.071 161.856 297.444V300.58H162.766V301H158.79ZM167.266 301V294.294C167.266 293.501 167.392 292.805 167.644 292.208C167.896 291.601 168.251 291.13 168.708 290.794C169.175 290.449 169.721 290.276 170.346 290.276C170.925 290.276 171.378 290.411 171.704 290.682C172.04 290.943 172.208 291.256 172.208 291.62C172.208 291.9 172.115 292.129 171.928 292.306C171.751 292.474 171.522 292.558 171.242 292.558C171.018 292.558 170.818 292.493 170.64 292.362C170.472 292.231 170.388 292.035 170.388 291.774C170.388 291.615 170.416 291.494 170.472 291.41C170.528 291.326 170.584 291.256 170.64 291.2C170.696 291.144 170.724 291.074 170.724 290.99C170.724 290.813 170.57 290.724 170.262 290.724C169.973 290.724 169.721 290.827 169.506 291.032C169.301 291.228 169.198 291.615 169.198 292.194V301H167.266ZM166.146 301V300.58H170.612V301H166.146ZM166.104 295.26V294.84H170.71V295.26H166.104ZM174.671 301.182C174.185 301.182 173.733 301.103 173.313 300.944C172.893 300.785 172.524 300.557 172.207 300.258C171.889 299.959 171.637 299.609 171.451 299.208C171.273 298.797 171.185 298.345 171.185 297.85C171.185 297.365 171.273 296.921 171.451 296.52C171.637 296.109 171.889 295.759 172.207 295.47C172.524 295.171 172.893 294.943 173.313 294.784C173.733 294.616 174.185 294.532 174.671 294.532C175.156 294.532 175.609 294.616 176.029 294.784C176.449 294.943 176.817 295.171 177.135 295.47C177.461 295.759 177.713 296.109 177.891 296.52C178.077 296.921 178.171 297.365 178.171 297.85C178.171 298.345 178.077 298.797 177.891 299.208C177.713 299.609 177.461 299.959 177.135 300.258C176.817 300.557 176.449 300.785 176.029 300.944C175.609 301.103 175.156 301.182 174.671 301.182ZM174.671 300.692C174.997 300.692 175.259 300.617 175.455 300.468C175.651 300.319 175.791 300.043 175.875 299.642C175.959 299.231 176.001 298.639 176.001 297.864C176.001 297.089 175.959 296.497 175.875 296.086C175.791 295.675 175.651 295.395 175.455 295.246C175.259 295.097 174.997 295.022 174.671 295.022C174.344 295.022 174.083 295.097 173.887 295.246C173.7 295.395 173.565 295.675 173.481 296.086C173.397 296.497 173.355 297.089 173.355 297.864C173.355 298.639 173.397 299.231 173.481 299.642C173.565 300.043 173.7 300.319 173.887 300.468C174.083 300.617 174.344 300.692 174.671 300.692ZM179.079 301V300.58H180.213V295.12H179.079V294.7H182.145V295.778H182.201C182.509 295.255 182.835 294.919 183.181 294.77C183.526 294.611 183.834 294.532 184.105 294.532C184.534 294.532 184.865 294.644 185.099 294.868C185.332 295.083 185.449 295.395 185.449 295.806C185.449 296.207 185.346 296.501 185.141 296.688C184.945 296.875 184.697 296.968 184.399 296.968C184.128 296.968 183.881 296.889 183.657 296.73C183.442 296.571 183.335 296.333 183.335 296.016C183.335 295.829 183.363 295.694 183.419 295.61C183.484 295.526 183.517 295.461 183.517 295.414C183.517 295.395 183.507 295.381 183.489 295.372C183.479 295.353 183.451 295.344 183.405 295.344C183.255 295.344 183.078 295.442 182.873 295.638C182.677 295.834 182.504 296.091 182.355 296.408C182.215 296.725 182.145 297.071 182.145 297.444V300.58H183.055V301H179.079ZM195.816 300.79V295.848C195.816 295.381 195.606 295.148 195.186 295.148C194.896 295.148 194.63 295.274 194.388 295.526C194.145 295.778 193.949 296.123 193.8 296.562C193.66 296.991 193.59 297.481 193.59 298.032L193.31 295.862H193.646C193.823 295.451 194.08 295.129 194.416 294.896C194.761 294.653 195.195 294.532 195.718 294.532C196.324 294.532 196.814 294.681 197.188 294.98C197.561 295.269 197.748 295.629 197.748 296.058V300.79H195.816ZM186.38 301V300.58H190.356V301H186.38ZM187.514 300.79V294.924H189.446V300.79H187.514ZM190.72 301V300.58H194.486V301H190.72ZM186.38 295.12V294.7H189.446V295.12H186.38ZM191.672 300.79V295.848C191.672 295.381 191.462 295.148 191.042 295.148C190.752 295.148 190.486 295.274 190.244 295.526C190.001 295.778 189.805 296.123 189.656 296.562C189.516 296.991 189.446 297.481 189.446 298.032L189.166 295.862H189.502C189.679 295.451 189.936 295.129 190.272 294.896C190.617 294.653 191.051 294.532 191.574 294.532C192.18 294.532 192.67 294.681 193.044 294.98C193.417 295.269 193.604 295.629 193.604 296.058V300.79H191.672ZM194.864 301V300.58H198.63V301H194.864ZM201.32 301.168C200.769 301.168 200.316 301.023 199.962 300.734C199.607 300.445 199.43 300.062 199.43 299.586C199.43 299.138 199.588 298.751 199.906 298.424C200.232 298.097 200.69 297.85 201.278 297.682C201.866 297.505 202.552 297.416 203.336 297.416V295.778C203.336 295.535 203.247 295.344 203.07 295.204C202.892 295.064 202.659 294.994 202.37 294.994C202.127 294.994 201.917 295.041 201.74 295.134C201.572 295.227 201.488 295.349 201.488 295.498C201.488 295.619 201.534 295.727 201.628 295.82C201.73 295.904 201.782 296.044 201.782 296.24C201.782 296.483 201.684 296.697 201.488 296.884C201.301 297.071 201.072 297.164 200.802 297.164C200.531 297.164 200.307 297.071 200.13 296.884C199.952 296.697 199.864 296.469 199.864 296.198C199.864 295.881 199.985 295.596 200.228 295.344C200.47 295.092 200.806 294.896 201.236 294.756C201.665 294.607 202.15 294.532 202.692 294.532C203.438 294.532 204.054 294.667 204.54 294.938C205.025 295.199 205.268 295.545 205.268 295.974V300.048C205.268 300.132 205.296 300.207 205.352 300.272C205.417 300.337 205.496 300.37 205.59 300.37C205.664 300.37 205.744 300.337 205.828 300.272C205.921 300.207 206.047 300.085 206.206 299.908L206.486 300.23C205.972 300.855 205.389 301.168 204.736 301.168C204.353 301.168 204.05 301.079 203.826 300.902C203.611 300.725 203.466 300.491 203.392 300.202H203.336C203.168 300.445 202.906 300.669 202.552 300.874C202.206 301.07 201.796 301.168 201.32 301.168ZM202.258 300.398C202.556 300.398 202.808 300.267 203.014 300.006C203.228 299.735 203.336 299.385 203.336 298.956V297.85C202.738 297.85 202.276 297.976 201.95 298.228C201.623 298.48 201.46 298.853 201.46 299.348C201.46 299.665 201.525 299.922 201.656 300.118C201.796 300.305 201.996 300.398 202.258 300.398ZM212.058 300.79V295.848C212.058 295.381 211.848 295.148 211.428 295.148C211.12 295.148 210.84 295.274 210.588 295.526C210.336 295.778 210.135 296.123 209.986 296.562C209.837 296.991 209.762 297.481 209.762 298.032L209.482 295.862H209.818C210.005 295.451 210.271 295.129 210.616 294.896C210.971 294.653 211.419 294.532 211.96 294.532C212.567 294.532 213.057 294.681 213.43 294.98C213.803 295.269 213.99 295.629 213.99 296.058V300.79H212.058ZM206.696 301V300.58H210.672V301H206.696ZM207.83 300.79V294.924H209.762V300.79H207.83ZM211.106 301V300.58H214.872V301H211.106ZM206.696 295.12V294.7H209.762V295.12H206.696ZM219.104 301.182C218.628 301.182 218.18 301.089 217.76 300.902C217.34 300.715 216.971 300.463 216.654 300.146C216.336 299.829 216.089 299.474 215.912 299.082C215.734 298.681 215.646 298.265 215.646 297.836C215.646 297.425 215.73 297.024 215.898 296.632C216.075 296.24 216.318 295.885 216.626 295.568C216.934 295.251 217.298 294.999 217.718 294.812C218.147 294.625 218.614 294.532 219.118 294.532C219.566 294.532 219.976 294.607 220.35 294.756C220.723 294.905 221.022 295.111 221.246 295.372C221.47 295.624 221.582 295.918 221.582 296.254C221.582 296.581 221.474 296.837 221.26 297.024C221.054 297.201 220.793 297.29 220.476 297.29C220.177 297.29 219.934 297.206 219.748 297.038C219.561 296.87 219.468 296.646 219.468 296.366C219.468 296.179 219.5 296.039 219.566 295.946C219.64 295.853 219.71 295.769 219.776 295.694C219.841 295.619 219.874 295.526 219.874 295.414C219.874 295.274 219.808 295.167 219.678 295.092C219.556 295.017 219.388 294.98 219.174 294.98C218.903 294.98 218.665 295.059 218.46 295.218C218.254 295.377 218.096 295.675 217.984 296.114C217.872 296.553 217.816 297.201 217.816 298.06C217.816 298.751 217.858 299.292 217.942 299.684C218.035 300.067 218.184 300.333 218.39 300.482C218.604 300.631 218.884 300.706 219.23 300.706C219.734 300.706 220.158 300.566 220.504 300.286C220.858 300.006 221.162 299.553 221.414 298.928H221.876C221.689 299.6 221.358 300.146 220.882 300.566C220.415 300.977 219.822 301.182 219.104 301.182ZM226.419 301.182C225.934 301.182 225.476 301.089 225.047 300.902C224.627 300.715 224.254 300.463 223.927 300.146C223.61 299.829 223.362 299.469 223.185 299.068C223.008 298.667 222.919 298.247 222.919 297.808C222.919 297.267 223.059 296.749 223.339 296.254C223.619 295.75 224.016 295.339 224.529 295.022C225.042 294.695 225.644 294.532 226.335 294.532C226.895 294.532 227.394 294.644 227.833 294.868C228.281 295.092 228.631 295.414 228.883 295.834C229.144 296.245 229.275 296.735 229.275 297.304V297.458H224.417V297.038H227.301V296.184C227.301 295.381 226.965 294.98 226.293 294.98C226.004 294.98 225.77 295.069 225.593 295.246C225.416 295.423 225.285 295.727 225.201 296.156C225.126 296.576 225.089 297.155 225.089 297.892C225.089 298.648 225.131 299.231 225.215 299.642C225.299 300.043 225.444 300.319 225.649 300.468C225.854 300.617 226.134 300.692 226.489 300.692C226.984 300.692 227.432 300.571 227.833 300.328C228.244 300.085 228.584 299.665 228.855 299.068H229.317C229.121 299.712 228.762 300.225 228.239 300.608C227.726 300.991 227.119 301.182 226.419 301.182Z" fill="#003539"/>
<mask id="path-4-inside-1_6_14" fill="white">
<path d="M131.49 121.6C145.479 117.279 160.475 117.487 174.339 122.193C188.203 126.899 200.227 135.864 208.694 147.809C217.162 159.753 221.641 174.066 221.492 188.707C221.343 203.347 216.574 217.566 207.865 229.336C199.157 241.106 186.953 249.824 172.996 254.248C159.039 258.671 144.042 258.573 130.144 253.969C116.245 249.364 104.157 240.488 95.6018 228.606C87.047 216.724 82.4635 202.444 82.5051 187.802L103.423 187.862C103.394 198.096 106.598 208.078 112.578 216.383C118.557 224.689 127.008 230.894 136.722 234.112C146.437 237.331 156.921 237.399 166.676 234.307C176.432 231.215 184.962 225.121 191.05 216.894C197.137 208.667 200.471 198.728 200.575 188.494C200.679 178.26 197.548 168.255 191.629 159.906C185.711 151.557 177.306 145.291 167.615 142.001C157.924 138.711 147.442 138.566 137.663 141.587L131.49 121.6Z"/>
</mask>
<path d="M131.49 121.6C145.479 117.279 160.475 117.487 174.339 122.193C188.203 126.899 200.227 135.864 208.694 147.809C217.162 159.753 221.641 174.066 221.492 188.707C221.343 203.347 216.574 217.566 207.865 229.336C199.157 241.106 186.953 249.824 172.996 254.248C159.039 258.671 144.042 258.573 130.144 253.969C116.245 249.364 104.157 240.488 95.6018 228.606C87.047 216.724 82.4635 202.444 82.5051 187.802L103.423 187.862C103.394 198.096 106.598 208.078 112.578 216.383C118.557 224.689 127.008 230.894 136.722 234.112C146.437 237.331 156.921 237.399 166.676 234.307C176.432 231.215 184.962 225.121 191.05 216.894C197.137 208.667 200.471 198.728 200.575 188.494C200.679 178.26 197.548 168.255 191.629 159.906C185.711 151.557 177.306 145.291 167.615 142.001C157.924 138.711 147.442 138.566 137.663 141.587L131.49 121.6Z" stroke="#004247" stroke-width="36" mask="url(#path-4-inside-1_6_14)"/>
<mask id="path-5-inside-2_6_14" fill="white">
<path d="M82.5048 188C82.5048 173.071 87.3125 158.538 96.216 146.554C105.12 134.571 117.646 125.773 131.939 121.463L137.982 141.505C127.994 144.516 119.24 150.664 113.019 159.038C106.797 167.412 103.438 177.568 103.438 188L82.5048 188Z"/>
</mask>
<path d="M82.5048 188C82.5048 173.071 87.3125 158.538 96.216 146.554C105.12 134.571 117.646 125.773 131.939 121.463L137.982 141.505C127.994 144.516 119.24 150.664 113.019 159.038C106.797 167.412 103.438 177.568 103.438 188L82.5048 188Z" stroke="#F9FFFD" stroke-width="36" mask="url(#path-5-inside-2_6_14)"/>
<path d="M137.456 191.154V190.678C138.221 190.603 138.898 190.398 139.486 190.062C140.074 189.717 140.55 189.269 140.914 188.718C141.287 188.158 141.525 187.519 141.628 186.8L141.586 186.786C141.343 186.982 141.082 187.136 140.802 187.248C140.522 187.351 140.191 187.402 139.808 187.402C139.192 187.402 138.627 187.262 138.114 186.982C137.61 186.702 137.204 186.319 136.896 185.834C136.597 185.349 136.448 184.807 136.448 184.21C136.448 183.706 136.551 183.244 136.756 182.824C136.971 182.404 137.26 182.035 137.624 181.718C137.997 181.401 138.417 181.158 138.884 180.99C139.351 180.813 139.836 180.724 140.34 180.724C141.068 180.724 141.726 180.901 142.314 181.256C142.902 181.601 143.369 182.096 143.714 182.74C144.069 183.375 144.246 184.121 144.246 184.98C144.246 185.829 144.059 186.623 143.686 187.36C143.322 188.088 142.818 188.732 142.174 189.292C141.539 189.852 140.816 190.295 140.004 190.622C139.192 190.949 138.343 191.126 137.456 191.154ZM140.144 186.842C140.527 186.842 140.853 186.744 141.124 186.548C141.395 186.352 141.605 186.119 141.754 185.848C141.829 185.549 141.871 185.232 141.88 184.896C141.889 184.56 141.894 184.261 141.894 184C141.894 183.3 141.843 182.749 141.74 182.348C141.647 181.937 141.488 181.648 141.264 181.48C141.049 181.303 140.755 181.214 140.382 181.214C140.009 181.214 139.715 181.303 139.5 181.48C139.285 181.657 139.131 181.951 139.038 182.362C138.945 182.773 138.898 183.333 138.898 184.042C138.898 184.807 138.945 185.391 139.038 185.792C139.131 186.193 139.271 186.469 139.458 186.618C139.645 186.767 139.873 186.842 140.144 186.842ZM148.542 191.168C147.842 191.168 147.245 191.084 146.75 190.916C146.256 190.748 145.878 190.515 145.616 190.216C145.355 189.917 145.224 189.577 145.224 189.194C145.224 188.811 145.341 188.503 145.574 188.27C145.808 188.037 146.111 187.92 146.484 187.92C146.783 187.92 147.054 188.004 147.296 188.172C147.539 188.331 147.66 188.592 147.66 188.956C147.66 189.18 147.614 189.357 147.52 189.488C147.436 189.609 147.338 189.707 147.226 189.782C147.114 189.857 147.012 189.927 146.918 189.992C146.834 190.048 146.792 190.118 146.792 190.202C146.792 190.314 146.867 190.407 147.016 190.482C147.166 190.547 147.348 190.599 147.562 190.636C147.786 190.664 147.996 190.678 148.192 190.678C148.911 190.678 149.462 190.468 149.844 190.048C150.236 189.619 150.432 188.975 150.432 188.116C150.432 187.155 150.208 186.459 149.76 186.03C149.312 185.601 148.738 185.386 148.038 185.386C147.702 185.386 147.357 185.428 147.002 185.512C146.648 185.587 146.396 185.685 146.246 185.806L146.4 185.12C146.484 185.073 146.657 185.022 146.918 184.966C147.18 184.901 147.488 184.849 147.842 184.812C148.206 184.765 148.575 184.742 148.948 184.742C149.882 184.742 150.652 184.887 151.258 185.176C151.865 185.456 152.318 185.834 152.616 186.31C152.915 186.777 153.064 187.295 153.064 187.864C153.064 188.555 152.859 189.147 152.448 189.642C152.047 190.137 151.506 190.515 150.824 190.776C150.143 191.037 149.382 191.168 148.542 191.168ZM146.246 185.806L146.008 185.652L146.414 180.976H146.974L146.582 185.26L146.246 185.806ZM146.834 182.922L146.484 180.976H151.188C151.478 180.976 151.683 180.943 151.804 180.878C151.926 180.813 152.033 180.668 152.126 180.444H152.546L152.042 182.922H146.834ZM156.51 191L162.25 180.458H163.356L157.616 191H156.51ZM156.748 186.086C156.263 186.086 155.819 185.969 155.418 185.736C155.026 185.493 154.713 185.157 154.48 184.728C154.256 184.289 154.144 183.785 154.144 183.216C154.144 182.647 154.256 182.147 154.48 181.718C154.713 181.279 155.026 180.939 155.418 180.696C155.819 180.453 156.263 180.332 156.748 180.332C157.243 180.332 157.686 180.453 158.078 180.696C158.47 180.939 158.783 181.279 159.016 181.718C159.249 182.147 159.366 182.647 159.366 183.216C159.366 183.785 159.249 184.289 159.016 184.728C158.783 185.157 158.47 185.493 158.078 185.736C157.686 185.969 157.243 186.086 156.748 186.086ZM156.748 185.792C157.009 185.792 157.219 185.727 157.378 185.596C157.537 185.456 157.653 185.199 157.728 184.826C157.803 184.453 157.84 183.916 157.84 183.216C157.84 182.516 157.803 181.979 157.728 181.606C157.653 181.233 157.537 180.976 157.378 180.836C157.219 180.696 157.009 180.626 156.748 180.626C156.468 180.626 156.249 180.696 156.09 180.836C155.931 180.976 155.819 181.233 155.754 181.606C155.689 181.979 155.656 182.516 155.656 183.216C155.656 183.916 155.689 184.453 155.754 184.826C155.819 185.199 155.931 185.456 156.09 185.596C156.249 185.727 156.468 185.792 156.748 185.792ZM163.188 191.112C162.703 191.112 162.259 190.995 161.858 190.762C161.466 190.519 161.153 190.183 160.92 189.754C160.696 189.315 160.584 188.811 160.584 188.242C160.584 187.673 160.696 187.173 160.92 186.744C161.153 186.305 161.466 185.965 161.858 185.722C162.259 185.479 162.703 185.358 163.188 185.358C163.683 185.358 164.126 185.479 164.518 185.722C164.91 185.965 165.223 186.305 165.456 186.744C165.689 187.173 165.806 187.673 165.806 188.242C165.806 188.811 165.689 189.315 165.456 189.754C165.223 190.183 164.91 190.519 164.518 190.762C164.126 190.995 163.683 191.112 163.188 191.112ZM163.188 190.818C163.449 190.818 163.659 190.753 163.818 190.622C163.977 190.482 164.093 190.23 164.168 189.866C164.243 189.493 164.28 188.951 164.28 188.242C164.28 187.542 164.243 187.005 164.168 186.632C164.093 186.259 163.977 186.002 163.818 185.862C163.659 185.722 163.449 185.652 163.188 185.652C162.908 185.652 162.689 185.722 162.53 185.862C162.371 186.002 162.259 186.259 162.194 186.632C162.129 187.005 162.096 187.542 162.096 188.242C162.096 188.951 162.129 189.493 162.194 189.866C162.259 190.23 162.371 190.482 162.53 190.622C162.689 190.753 162.908 190.818 163.188 190.818Z" fill="#003539"/>
</svg>
