<?xml version="1.0" encoding="UTF-8"?>
<!DOCTYPE svg PUBLIC "-//W3C//DTD SVG 1.1//EN" "http://www.w3.org/Graphics/SVG/1.1/DTD/svg11.dtd">
<svg xmlns="http://www.w3.org/2000/svg" version="1.1" width="5000" height="6500"  xmlns:xlink="http://www.w3.org/1999/xlink">
<g><path style="opacity:1" fill="#ffffff" d="M 3021.5,-0.5 C 3061.5,-0.5 3101.5,-0.5 3141.5,-0.5C 3563.33,15.7139 3945.33,145.881 4287.5,390C 4623.71,635.604 4865.54,953.437 5013,1343.5C 5148.61,1716.49 5176.95,2097.49 5098,2486.5C 5014.38,2869.12 4839.38,3201.78 4573,3484.5C 4548.5,3509 4524,3533.5 4499.5,3558C 4484.96,3571.37 4470.3,3584.54 4455.5,3597.5C 4438.11,3564.21 4420.94,3530.21 4404,3495.5C 4390.76,3466.27 4377.1,3437.27 4363,3408.5C 4362.19,3406.56 4361.69,3404.56 4361.5,3402.5C 4360.5,3402.5 4359.5,3402.5 4358.5,3402.5C 4358.66,3401.13 4358.49,3399.79 4358,3398.5C 4264.65,3203.86 4171.81,3009.2 4079.5,2814.5C 4070.34,2792.86 4060.51,2771.52 4050,2750.5C 4047.05,2741.64 4043.72,2732.98 4040,2724.5C 4037.71,2720.75 4035.54,2716.92 4033.5,2713C 3979.03,2593.08 3927.03,2471.91 3877.5,2349.5C 3865.56,2316.67 3853.23,2284.01 3840.5,2251.5C 3825.99,2210.64 3812.32,2169.47 3799.5,2128C 3789.64,2091.88 3779.98,2055.72 3770.5,2019.5C 3738.83,1878.94 3729,1736.61 3741,1592.5C 3748.97,1510.13 3766.8,1430.13 3794.5,1352.5C 3808.84,1314.67 3823.5,1277.01 3838.5,1239.5C 3842.54,1229.92 3844.88,1219.92 3845.5,1209.5C 3847.07,1167.14 3846.57,1124.8 3844,1082.5C 3843.12,1062.49 3835.62,1045.66 3821.5,1032C 3817.67,1029.49 3813.67,1027.16 3809.5,1025C 3805.3,1024.23 3801.3,1022.9 3797.5,1021C 3792.13,1020.35 3786.8,1019.52 3781.5,1018.5C 3733.83,1017.17 3686.17,1017.17 3638.5,1018.5C 3635.94,1019.64 3633.27,1020.47 3630.5,1021C 3390.31,1131.24 3149.98,1240.91 2909.5,1350C 2908.56,1352.72 2908.22,1355.55 2908.5,1358.5C 2908.5,1366.5 2908.5,1374.5 2908.5,1382.5C 2908.5,1385.17 2908.5,1387.83 2908.5,1390.5C 2908.5,1395.83 2908.5,1401.17 2908.5,1406.5C 2908.5,1410.5 2908.5,1414.5 2908.5,1418.5C 2908.5,1422.83 2908.5,1427.17 2908.5,1431.5C 2908.5,1434.5 2908.5,1437.5 2908.5,1440.5C 2908.5,1444.5 2908.5,1448.5 2908.5,1452.5C 2908.5,1456.5 2908.5,1460.5 2908.5,1464.5C 2908.19,1468.37 2908.52,1472.04 2909.5,1475.5C 2909.16,1476.34 2908.49,1476.67 2907.5,1476.5C 2907.5,1475.5 2907.5,1474.5 2907.5,1473.5C 2907.5,1470.5 2907.5,1467.5 2907.5,1464.5C 2907.5,1460.5 2907.5,1456.5 2907.5,1452.5C 2907.5,1448.83 2907.5,1445.17 2907.5,1441.5C 2907.5,1438.17 2907.5,1434.83 2907.5,1431.5C 2907.5,1427.5 2907.5,1423.5 2907.5,1419.5C 2907.5,1415.5 2907.5,1411.5 2907.5,1407.5C 2907.5,1401.83 2907.5,1396.17 2907.5,1390.5C 2907.5,1387.83 2907.5,1385.17 2907.5,1382.5C 2907.5,1375.17 2907.5,1367.83 2907.5,1360.5C 2907.5,1357.17 2907.5,1353.83 2907.5,1350.5C 2577.8,1500.82 2247.97,1651.48 1918,1802.5C 1904.05,1809.55 1890.88,1817.72 1878.5,1827C 1856.94,1848.24 1845.77,1874.41 1845,1905.5C 1844.33,1950.83 1844.33,1996.17 1845,2041.5C 1845.36,2044.53 1845.86,2047.53 1846.5,2050.5C 1939.04,2260.09 2031.04,2470.09 2122.5,2680.5C 2129.23,2694.84 2137.23,2708.17 2146.5,2720.5C 2150.83,2725.5 2155.5,2730.17 2160.5,2734.5C 2162.85,2735.56 2164.85,2737.06 2166.5,2739C 2167.45,2739.48 2168.45,2739.65 2169.5,2739.5C 2169.33,2740.82 2169.66,2741.99 2170.5,2743C 2187.49,2751.38 2205.49,2756.21 2224.5,2757.5C 2269.5,2758.83 2314.5,2758.83 2359.5,2757.5C 2363.55,2756.68 2367.55,2755.68 2371.5,2754.5C 2380.49,2749.59 2389.82,2745.59 2399.5,2742.5C 2399.5,2741.5 2399.5,2740.5 2399.5,2739.5C 2546.71,2673.66 2693.54,2606.99 2840,2539.5C 2868.21,2531.27 2890.55,2538.94 2907,2562.5C 2907.5,2558.18 2907.67,2553.85 2907.5,2549.5C 2907.5,2540.5 2907.5,2531.5 2907.5,2522.5C 2907.5,2519.5 2907.5,2516.5 2907.5,2513.5C 2907.5,2507.83 2907.5,2502.17 2907.5,2496.5C 2907.5,2492.5 2907.5,2488.5 2907.5,2484.5C 2907.5,2480.17 2907.5,2475.83 2907.5,2471.5C 2907.5,2468.5 2907.5,2465.5 2907.5,2462.5C 2907.5,2458.5 2907.5,2454.5 2907.5,2450.5C 2907.5,2446.5 2907.5,2442.5 2907.5,2438.5C 2907.5,2420.83 2907.5,2403.17 2907.5,2385.5C 2907.5,2384.83 2907.83,2384.5 2908.5,2384.5C 2908.5,2385.5 2908.5,2386.5 2908.5,2387.5C 2908.5,2397.17 2908.5,2406.83 2908.5,2416.5C 2908.5,2424.17 2908.5,2431.83 2908.5,2439.5C 2908.5,2443.5 2908.5,2447.5 2908.5,2451.5C 2908.5,2455.5 2908.5,2459.5 2908.5,2463.5C 2908.5,2466.5 2908.5,2469.5 2908.5,2472.5C 2908.5,2476.83 2908.5,2481.17 2908.5,2485.5C 2908.5,2489.5 2908.5,2493.5 2908.5,2497.5C 2908.5,2502.83 2908.5,2508.17 2908.5,2513.5C 2908.5,2516.5 2908.5,2519.5 2908.5,2522.5C 2908.5,2531.83 2908.5,2541.17 2908.5,2550.5C 2908.33,2555.51 2908.5,2560.51 2909,2565.5C 2951.17,2657.88 2992.67,2750.71 3033.5,2844C 3040.83,2859.33 3048.17,2874.67 3055.5,2890C 3056.17,2892.33 3056.83,2894.67 3057.5,2897C 3062.67,2907.83 3067.83,2918.67 3073,2929.5C 3073.98,2931.74 3074.48,2934.07 3074.5,2936.5C 3075.5,2936.5 3076.5,2936.5 3077.5,2936.5C 3151.83,3103.32 3226.83,3269.82 3302.5,3436C 3308.83,3451 3315.17,3466 3321.5,3481C 3328.98,3496.21 3336.31,3511.54 3343.5,3527C 3380.07,3609.41 3416.57,3691.91 3453,3774.5C 3467.32,3804.5 3480.99,3834.83 3494,3865.5C 3513.47,3908.71 3533.47,3951.71 3554,3994.5C 3561.44,4012.93 3569.77,4030.93 3579,4048.5C 3581.08,4052.65 3582.58,4056.98 3583.5,4061.5C 3223.31,4150.83 2864.64,4145 2507.5,4044C 2115.68,3927.79 1785.85,3716.62 1518,3410.5C 1252.97,3100.64 1091.97,2742.3 1035,2335.5C 978.78,1895.47 1054.11,1479.47 1261,1087.5C 1455.37,729.462 1730.54,451.295 2086.5,253C 2378.15,95.0687 2689.81,10.5687 3021.5,-0.5 Z"/></g>
<g><path style="opacity:1" fill="#ffffff" d="M 4455.5,3597.5 C 4453.83,3599.83 4451.83,3601.83 4449.5,3603.5C 4418.36,3544.64 4389.19,3484.64 4362,3423.5C 4361.29,3422.03 4360.12,3421.36 4358.5,3421.5C 4356.15,3416.78 4354.32,3411.78 4353,3406.5C 4342.67,3385.5 4332.33,3364.5 4322,3343.5C 4321.18,3341.21 4320.51,3338.88 4320,3336.5C 4273.71,3241.5 4227.71,3146.17 4182,3050.5C 4179.41,3045.19 4177.24,3039.69 4175.5,3034C 4166,3016.84 4157.17,2999.34 4149,2981.5C 4148.49,2979.12 4147.82,2976.79 4147,2974.5C 4140.44,2962.55 4134.27,2950.38 4128.5,2938C 4105.67,2887.54 4082.17,2837.37 4058,2787.5C 4019.26,2701.24 3980.92,2614.91 3943,2528.5C 3905.55,2440.42 3870.05,2351.42 3836.5,2261.5C 3825.74,2229.01 3814.74,2196.67 3803.5,2164.5C 3792,2125.56 3781.17,2086.56 3771,2047.5C 3742.61,1927.31 3729.28,1805.31 3731,1681.5C 3732.29,1569.22 3750.79,1460.22 3786.5,1354.5C 3798.66,1320.11 3811.66,1286.11 3825.5,1252.5C 3829.52,1242.79 3832.68,1232.79 3835,1222.5C 3836.94,1182.17 3836.94,1141.84 3835,1101.5C 3833.58,1085.82 3829.08,1071.15 3821.5,1057.5C 3818.93,1053.48 3815.93,1049.81 3812.5,1046.5C 3796.24,1034.67 3777.9,1028.51 3757.5,1028C 3718.5,1027.33 3679.5,1027.33 3640.5,1028C 3637.81,1028.39 3635.15,1028.89 3632.5,1029.5C 3526.92,1077.9 3421.26,1125.9 3315.5,1173.5C 3305.87,1178.43 3296.2,1183.26 3286.5,1188C 3234.93,1210.29 3183.93,1233.63 3133.5,1258C 3100.25,1272.43 3067.08,1286.93 3034,1301.5C 3004.35,1316.06 2974.35,1329.72 2944,1342.5C 2940.17,1344.67 2936.33,1346.83 2932.5,1349C 2924.62,1352.46 2916.62,1355.63 2908.5,1358.5C 2908.22,1355.55 2908.56,1352.72 2909.5,1350C 3149.98,1240.91 3390.31,1131.24 3630.5,1021C 3633.27,1020.47 3635.94,1019.64 3638.5,1018.5C 3686.17,1017.17 3733.83,1017.17 3781.5,1018.5C 3786.8,1019.52 3792.13,1020.35 3797.5,1021C 3801.3,1022.9 3805.3,1024.23 3809.5,1025C 3813.67,1027.16 3817.67,1029.49 3821.5,1032C 3835.62,1045.66 3843.12,1062.49 3844,1082.5C 3846.57,1124.8 3847.07,1167.14 3845.5,1209.5C 3844.88,1219.92 3842.54,1229.92 3838.5,1239.5C 3823.5,1277.01 3808.84,1314.67 3794.5,1352.5C 3766.8,1430.13 3748.97,1510.13 3741,1592.5C 3729,1736.61 3738.83,1878.94 3770.5,2019.5C 3779.98,2055.72 3789.64,2091.88 3799.5,2128C 3812.32,2169.47 3825.99,2210.64 3840.5,2251.5C 3853.23,2284.01 3865.56,2316.67 3877.5,2349.5C 3927.03,2471.91 3979.03,2593.08 4033.5,2713C 4035.54,2716.92 4037.71,2720.75 4040,2724.5C 4043.72,2732.98 4047.05,2741.64 4050,2750.5C 4060.51,2771.52 4070.34,2792.86 4079.5,2814.5C 4171.81,3009.2 4264.65,3203.86 4358,3398.5C 4358.49,3399.79 4358.66,3401.13 4358.5,3402.5C 4359.5,3402.5 4360.5,3402.5 4361.5,3402.5C 4361.69,3404.56 4362.19,3406.56 4363,3408.5C 4377.1,3437.27 4390.76,3466.27 4404,3495.5C 4420.94,3530.21 4438.11,3564.21 4455.5,3597.5 Z"/></g>
<g><path style="opacity:1" fill="#ffffff" d="M 4449.5,3603.5 C 4444.49,3608.51 4439.15,3613.18 4433.5,3617.5C 4432.04,3616.2 4430.7,3614.7 4429.5,3613C 4417.73,3588.03 4405.4,3563.36 4392.5,3539C 4382.12,3516.45 4371.79,3493.95 4361.5,3471.5C 4360.5,3471.5 4359.5,3471.5 4358.5,3471.5C 4358.38,3469.8 4358.05,3468.13 4357.5,3466.5C 4273.31,3288.75 4188.64,3111.25 4103.5,2934C 4087.57,2898.54 4071.07,2863.37 4054,2828.5C 4015.46,2743.14 3977.29,2657.64 3939.5,2572C 3902.27,2484.68 3866.77,2396.52 3833,2307.5C 3813.01,2251.49 3794.68,2194.82 3778,2137.5C 3750.44,2040.57 3731.44,1941.91 3721,1841.5C 3702.79,1663.39 3722.12,1489.72 3779,1320.5C 3789.01,1293.12 3799.01,1265.79 3809,1238.5C 3813.56,1215.41 3814.73,1192.08 3812.5,1168.5C 3812.09,1148.03 3808.42,1128.2 3801.5,1109C 3799.04,1102.93 3796.21,1097.1 3793,1091.5C 3784.71,1081.26 3774.87,1072.76 3763.5,1066C 3745.3,1058.36 3726.3,1054.02 3706.5,1053C 3684.5,1052.33 3662.5,1052.33 3640.5,1053C 3637.14,1053.34 3633.81,1053.84 3630.5,1054.5C 3609.98,1062.19 3589.98,1071.03 3570.5,1081C 3543.6,1092.2 3517.1,1104.37 3491,1117.5C 3445.36,1137.32 3400.03,1157.98 3355,1179.5C 3206.04,1246.8 3057.21,1314.46 2908.5,1382.5C 2908.5,1374.5 2908.5,1366.5 2908.5,1358.5C 2916.62,1355.63 2924.62,1352.46 2932.5,1349C 2936.33,1346.83 2940.17,1344.67 2944,1342.5C 2974.35,1329.72 3004.35,1316.06 3034,1301.5C 3067.08,1286.93 3100.25,1272.43 3133.5,1258C 3183.93,1233.63 3234.93,1210.29 3286.5,1188C 3296.2,1183.26 3305.87,1178.43 3315.5,1173.5C 3421.26,1125.9 3526.92,1077.9 3632.5,1029.5C 3635.15,1028.89 3637.81,1028.39 3640.5,1028C 3679.5,1027.33 3718.5,1027.33 3757.5,1028C 3777.9,1028.51 3796.24,1034.67 3812.5,1046.5C 3815.93,1049.81 3818.93,1053.48 3821.5,1057.5C 3829.08,1071.15 3833.58,1085.82 3835,1101.5C 3836.94,1141.84 3836.94,1182.17 3835,1222.5C 3832.68,1232.79 3829.52,1242.79 3825.5,1252.5C 3811.66,1286.11 3798.66,1320.11 3786.5,1354.5C 3750.79,1460.22 3732.29,1569.22 3731,1681.5C 3729.28,1805.31 3742.61,1927.31 3771,2047.5C 3781.17,2086.56 3792,2125.56 3803.5,2164.5C 3814.74,2196.67 3825.74,2229.01 3836.5,2261.5C 3870.05,2351.42 3905.55,2440.42 3943,2528.5C 3980.92,2614.91 4019.26,2701.24 4058,2787.5C 4082.17,2837.37 4105.67,2887.54 4128.5,2938C 4134.27,2950.38 4140.44,2962.55 4147,2974.5C 4147.82,2976.79 4148.49,2979.12 4149,2981.5C 4157.17,2999.34 4166,3016.84 4175.5,3034C 4177.24,3039.69 4179.41,3045.19 4182,3050.5C 4227.71,3146.17 4273.71,3241.5 4320,3336.5C 4320.51,3338.88 4321.18,3341.21 4322,3343.5C 4332.33,3364.5 4342.67,3385.5 4353,3406.5C 4354.32,3411.78 4356.15,3416.78 4358.5,3421.5C 4360.12,3421.36 4361.29,3422.03 4362,3423.5C 4389.19,3484.64 4418.36,3544.64 4449.5,3603.5 Z"/></g>
<g><path style="opacity:1" fill="#ffffff" d="M 4433.5,3617.5 C 4431.19,3619.47 4428.86,3621.47 4426.5,3623.5C 4406.21,3583.85 4386.38,3543.85 4367,3503.5C 4364.67,3498.69 4362.84,3493.69 4361.5,3488.5C 4360.32,3488.72 4359.32,3488.39 4358.5,3487.5C 4333.82,3436.15 4309.66,3384.48 4286,3332.5C 4193.6,3142.29 4102.93,2951.29 4014,2759.5C 3979.47,2680.56 3944.97,2601.73 3910.5,2523C 3875.43,2437.9 3842.27,2352.07 3811,2265.5C 3776.04,2163.98 3748.7,2060.31 3729,1954.5C 3713.04,1861.86 3706.04,1768.52 3708,1674.5C 3711.43,1559.62 3730.76,1447.62 3766,1338.5C 3777.27,1304.94 3788.94,1271.61 3801,1238.5C 3802.61,1228.52 3804.11,1218.52 3805.5,1208.5C 3803.96,1192.69 3802.63,1176.86 3801.5,1161C 3798.82,1142.48 3793.15,1124.98 3784.5,1108.5C 3781.49,1104.16 3778.49,1099.83 3775.5,1095.5C 3774.48,1094.81 3773.48,1094.14 3772.5,1093.5C 3773.24,1089.45 3774.24,1085.45 3775.5,1081.5C 3775.17,1081.17 3774.83,1080.83 3774.5,1080.5C 3770.89,1082.37 3767.22,1084.03 3763.5,1085.5C 3760.64,1082.91 3757.47,1080.57 3754,1078.5C 3748.06,1075.35 3741.9,1072.69 3735.5,1070.5C 3703.72,1061.99 3671.39,1059.16 3638.5,1062C 3632.2,1063.77 3625.86,1065.44 3619.5,1067C 3382.28,1174.95 3145.28,1282.79 2908.5,1390.5C 2908.5,1387.83 2908.5,1385.17 2908.5,1382.5C 3057.21,1314.46 3206.04,1246.8 3355,1179.5C 3400.03,1157.98 3445.36,1137.32 3491,1117.5C 3517.1,1104.37 3543.6,1092.2 3570.5,1081C 3589.98,1071.03 3609.98,1062.19 3630.5,1054.5C 3633.81,1053.84 3637.14,1053.34 3640.5,1053C 3662.5,1052.33 3684.5,1052.33 3706.5,1053C 3726.3,1054.02 3745.3,1058.36 3763.5,1066C 3774.87,1072.76 3784.71,1081.26 3793,1091.5C 3796.21,1097.1 3799.04,1102.93 3801.5,1109C 3808.42,1128.2 3812.09,1148.03 3812.5,1168.5C 3814.73,1192.08 3813.56,1215.41 3809,1238.5C 3799.01,1265.79 3789.01,1293.12 3779,1320.5C 3722.12,1489.72 3702.79,1663.39 3721,1841.5C 3731.44,1941.91 3750.44,2040.57 3778,2137.5C 3794.68,2194.82 3813.01,2251.49 3833,2307.5C 3866.77,2396.52 3902.27,2484.68 3939.5,2572C 3977.29,2657.64 4015.46,2743.14 4054,2828.5C 4071.07,2863.37 4087.57,2898.54 4103.5,2934C 4188.64,3111.25 4273.31,3288.75 4357.5,3466.5C 4358.05,3468.13 4358.38,3469.8 4358.5,3471.5C 4359.5,3471.5 4360.5,3471.5 4361.5,3471.5C 4371.79,3493.95 4382.12,3516.45 4392.5,3539C 4405.4,3563.36 4417.73,3588.03 4429.5,3613C 4430.7,3614.7 4432.04,3616.2 4433.5,3617.5 Z"/></g>
<g><path style="opacity:1" fill="#01363a" d="M 3763.5,1085.5 C 3752.58,1090.69 3741.58,1095.69 3730.5,1100.5C 3728.37,1098.66 3726.04,1096.99 3723.5,1095.5C 3689.36,1081.08 3654.03,1077.24 3617.5,1084C 3439.86,1164.01 3262.53,1245.01 3085.5,1327C 3076.01,1330.49 3066.68,1334.16 3057.5,1338C 3008.16,1361.5 2958.5,1384.34 2908.5,1406.5C 2908.5,1401.17 2908.5,1395.83 2908.5,1390.5C 3145.28,1282.79 3382.28,1174.95 3619.5,1067C 3625.86,1065.44 3632.2,1063.77 3638.5,1062C 3671.39,1059.16 3703.72,1061.99 3735.5,1070.5C 3741.9,1072.69 3748.06,1075.35 3754,1078.5C 3757.47,1080.57 3760.64,1082.91 3763.5,1085.5 Z"/></g>
<g><path style="opacity:1" fill="#013336" d="M 3730.5,1100.5 C 3722.5,1104.17 3714.5,1107.83 3706.5,1111.5C 3704.57,1110.19 3702.57,1108.86 3700.5,1107.5C 3692.75,1104.6 3684.91,1101.94 3677,1099.5C 3669.06,1098.48 3661.23,1096.98 3653.5,1095C 3645.17,1094.33 3636.83,1094.33 3628.5,1095C 3617.91,1097.23 3607.57,1100.23 3597.5,1104C 3368.52,1209.82 3138.85,1314.65 2908.5,1418.5C 2908.5,1414.5 2908.5,1410.5 2908.5,1406.5C 2958.5,1384.34 3008.16,1361.5 3057.5,1338C 3066.68,1334.16 3076.01,1330.49 3085.5,1327C 3262.53,1245.01 3439.86,1164.01 3617.5,1084C 3654.03,1077.24 3689.36,1081.08 3723.5,1095.5C 3726.04,1096.99 3728.37,1098.66 3730.5,1100.5 Z"/></g>
<g><path style="opacity:1" fill="#f3e8cc" d="M 3772.5,1093.5 C 3769.3,1105.98 3765.63,1118.32 3761.5,1130.5C 3757.99,1139.01 3754.66,1147.68 3751.5,1156.5C 3748.26,1164 3745.26,1171.66 3742.5,1179.5C 3739.79,1184.6 3737.46,1189.93 3735.5,1195.5C 3732.5,1202.83 3729.5,1210.17 3726.5,1217.5C 3722.64,1226.42 3718.97,1235.42 3715.5,1244.5C 3710.56,1256.72 3705.89,1269.05 3701.5,1281.5C 3634.32,1457.96 3609.82,1640.29 3628,1828.5C 3639.32,1942.93 3661.82,2054.93 3695.5,2164.5C 3722.27,2253.31 3753.1,2340.65 3788,2426.5C 3839.68,2553.72 3894.18,2679.72 3951.5,2804.5C 3951.63,2805.24 3951.46,2805.91 3951,2806.5C 3927.47,2783.3 3903.64,2760.47 3879.5,2738C 3485.8,2355.97 3091.8,1974.3 2697.5,1593C 2693.17,1588.67 2688.83,1584.33 2684.5,1580C 2685.06,1579.62 2685.39,1579.12 2685.5,1578.5C 2759.44,1544.53 2833.44,1510.53 2907.5,1476.5C 2908.49,1476.67 2909.16,1476.34 2909.5,1475.5C 3145.96,1367.77 3382.29,1259.77 3618.5,1151.5C 3627.62,1147.77 3636.62,1143.77 3645.5,1139.5C 3652.83,1136.17 3660.17,1132.83 3667.5,1129.5C 3672.41,1126.97 3677.41,1124.64 3682.5,1122.5C 3690.5,1118.83 3698.5,1115.17 3706.5,1111.5C 3714.5,1107.83 3722.5,1104.17 3730.5,1100.5C 3741.58,1095.69 3752.58,1090.69 3763.5,1085.5C 3767.22,1084.03 3770.89,1082.37 3774.5,1080.5C 3774.83,1080.83 3775.17,1081.17 3775.5,1081.5C 3774.24,1085.45 3773.24,1089.45 3772.5,1093.5 Z"/></g>
<g><path style="opacity:1" fill="#01363a" d="M 3772.5,1093.5 C 3773.48,1094.14 3774.48,1094.81 3775.5,1095.5C 3778.49,1099.83 3781.49,1104.16 3784.5,1108.5C 3793.15,1124.98 3798.82,1142.48 3801.5,1161C 3802.63,1176.86 3803.96,1192.69 3805.5,1208.5C 3804.11,1218.52 3802.61,1228.52 3801,1238.5C 3788.94,1271.61 3777.27,1304.94 3766,1338.5C 3730.76,1447.62 3711.43,1559.62 3708,1674.5C 3706.04,1768.52 3713.04,1861.86 3729,1954.5C 3748.7,2060.31 3776.04,2163.98 3811,2265.5C 3842.27,2352.07 3875.43,2437.9 3910.5,2523C 3944.97,2601.73 3979.47,2680.56 4014,2759.5C 4102.93,2951.29 4193.6,3142.29 4286,3332.5C 4309.66,3384.48 4333.82,3436.15 4358.5,3487.5C 4359.32,3488.39 4360.32,3488.72 4361.5,3488.5C 4362.84,3493.69 4364.67,3498.69 4367,3503.5C 4386.38,3543.85 4406.21,3583.85 4426.5,3623.5C 4422.82,3627.18 4418.82,3630.51 4414.5,3633.5C 4396.59,3597.34 4378.92,3561.01 4361.5,3524.5C 4360.68,3523.61 4359.68,3523.28 4358.5,3523.5C 4356.77,3518.49 4354.94,3513.49 4353,3508.5C 4249.21,3291.47 4145.87,3074.47 4043,2857.5C 3995.45,2752.77 3948.78,2647.44 3903,2541.5C 3867.1,2454.32 3832.76,2366.32 3800,2277.5C 3788.78,2243.52 3777.78,2209.52 3767,2175.5C 3739.19,2083.83 3718.52,1990.5 3705,1895.5C 3689.07,1777.53 3688.73,1659.53 3704,1541.5C 3714.3,1474.98 3729.3,1409.65 3749,1345.5C 3758.43,1315.77 3768.76,1286.43 3780,1257.5C 3785.43,1240.57 3787.43,1223.24 3786,1205.5C 3783.48,1179.24 3776.15,1154.58 3764,1131.5C 3763.33,1130.75 3762.5,1130.41 3761.5,1130.5C 3765.63,1118.32 3769.3,1105.98 3772.5,1093.5 Z"/></g>
<g><path style="opacity:1" fill="#012f33" d="M 3706.5,1111.5 C 3698.5,1115.17 3690.5,1118.83 3682.5,1122.5C 3682.38,1121.41 3681.71,1120.75 3680.5,1120.5C 3670.92,1117.21 3661.25,1114.21 3651.5,1111.5C 3639.81,1110.11 3628.15,1110.27 3616.5,1112C 3607.23,1114.96 3597.89,1117.96 3588.5,1121C 3435.59,1191.31 3282.59,1261.65 3129.5,1332C 3108.7,1341.38 3087.7,1350.38 3066.5,1359C 3014.09,1383.64 2961.42,1407.81 2908.5,1431.5C 2908.5,1427.17 2908.5,1422.83 2908.5,1418.5C 3138.85,1314.65 3368.52,1209.82 3597.5,1104C 3607.57,1100.23 3617.91,1097.23 3628.5,1095C 3636.83,1094.33 3645.17,1094.33 3653.5,1095C 3661.23,1096.98 3669.06,1098.48 3677,1099.5C 3684.91,1101.94 3692.75,1104.6 3700.5,1107.5C 3702.57,1108.86 3704.57,1110.19 3706.5,1111.5 Z"/></g>
<g><path style="opacity:1" fill="#012c30" d="M 3682.5,1122.5 C 3677.41,1124.64 3672.41,1126.97 3667.5,1129.5C 3648.66,1120.12 3628.99,1118.29 3608.5,1124C 3586.65,1131.1 3565.65,1140.1 3545.5,1151C 3440.73,1197.62 3336.39,1245.28 3232.5,1294C 3223.45,1297.68 3214.45,1301.35 3205.5,1305C 3127.53,1341.48 3049.2,1377.15 2970.5,1412C 2950.05,1421.98 2929.38,1431.48 2908.5,1440.5C 2908.5,1437.5 2908.5,1434.5 2908.5,1431.5C 2961.42,1407.81 3014.09,1383.64 3066.5,1359C 3087.7,1350.38 3108.7,1341.38 3129.5,1332C 3282.59,1261.65 3435.59,1191.31 3588.5,1121C 3597.89,1117.96 3607.23,1114.96 3616.5,1112C 3628.15,1110.27 3639.81,1110.11 3651.5,1111.5C 3661.25,1114.21 3670.92,1117.21 3680.5,1120.5C 3681.71,1120.75 3682.38,1121.41 3682.5,1122.5 Z"/></g>
<g><path style="opacity:1" fill="#012a2d" d="M 3667.5,1129.5 C 3660.17,1132.83 3652.83,1136.17 3645.5,1139.5C 3642.94,1137.48 3639.94,1136.31 3636.5,1136C 3618,1134.57 3600.33,1137.57 3583.5,1145C 3358.46,1248.04 3133.46,1350.54 2908.5,1452.5C 2908.5,1448.5 2908.5,1444.5 2908.5,1440.5C 2929.38,1431.48 2950.05,1421.98 2970.5,1412C 3049.2,1377.15 3127.53,1341.48 3205.5,1305C 3214.45,1301.35 3223.45,1297.68 3232.5,1294C 3336.39,1245.28 3440.73,1197.62 3545.5,1151C 3565.65,1140.1 3586.65,1131.1 3608.5,1124C 3628.99,1118.29 3648.66,1120.12 3667.5,1129.5 Z"/></g>
<g><path style="opacity:1" fill="#013336" d="M 3761.5,1130.5 C 3762.5,1130.41 3763.33,1130.75 3764,1131.5C 3776.15,1154.58 3783.48,1179.24 3786,1205.5C 3787.43,1223.24 3785.43,1240.57 3780,1257.5C 3768.76,1286.43 3758.43,1315.77 3749,1345.5C 3729.3,1409.65 3714.3,1474.98 3704,1541.5C 3688.73,1659.53 3689.07,1777.53 3705,1895.5C 3718.52,1990.5 3739.19,2083.83 3767,2175.5C 3777.78,2209.52 3788.78,2243.52 3800,2277.5C 3832.76,2366.32 3867.1,2454.32 3903,2541.5C 3948.78,2647.44 3995.45,2752.77 4043,2857.5C 4145.87,3074.47 4249.21,3291.47 4353,3508.5C 4354.94,3513.49 4356.77,3518.49 4358.5,3523.5C 4359.68,3523.28 4360.68,3523.61 4361.5,3524.5C 4378.92,3561.01 4396.59,3597.34 4414.5,3633.5C 4411.13,3636.87 4407.46,3639.87 4403.5,3642.5C 4403.95,3641.54 4404.62,3640.71 4405.5,3640C 4390.71,3610 4376.05,3579.83 4361.5,3549.5C 4360.68,3548.61 4359.68,3548.28 4358.5,3548.5C 4348.76,3525.02 4337.93,3502.02 4326,3479.5C 4310.33,3445.49 4294.66,3411.49 4279,3377.5C 4183.42,3180.34 4089.42,2982.34 3997,2783.5C 3954.1,2686.49 3911.77,2589.16 3870,2491.5C 3850.29,2442.39 3830.96,2393.06 3812,2343.5C 3782.37,2263.95 3756.37,2183.29 3734,2101.5C 3708.45,2004.07 3691.78,1905.07 3684,1804.5C 3670.43,1620.51 3696.76,1442.84 3763,1271.5C 3769.58,1252.35 3772.58,1232.69 3772,1212.5C 3768.47,1197.16 3764.3,1181.99 3759.5,1167C 3757.33,1163.17 3755.17,1159.33 3753,1155.5C 3752.62,1156.06 3752.12,1156.39 3751.5,1156.5C 3754.66,1147.68 3757.99,1139.01 3761.5,1130.5 Z"/></g>
<g><path style="opacity:1" fill="#012729" d="M 3645.5,1139.5 C 3636.62,1143.77 3627.62,1147.77 3618.5,1151.5C 3612.29,1150.98 3605.96,1151.48 3599.5,1153C 3593.17,1154.66 3586.84,1156.33 3580.5,1158C 3356.66,1260.66 3132.66,1362.83 2908.5,1464.5C 2908.5,1460.5 2908.5,1456.5 2908.5,1452.5C 3133.46,1350.54 3358.46,1248.04 3583.5,1145C 3600.33,1137.57 3618,1134.57 3636.5,1136C 3639.94,1136.31 3642.94,1137.48 3645.5,1139.5 Z"/></g>
<g><path style="opacity:1" fill="#022527" d="M 3618.5,1151.5 C 3382.29,1259.77 3145.96,1367.77 2909.5,1475.5C 2908.52,1472.04 2908.19,1468.37 2908.5,1464.5C 3132.66,1362.83 3356.66,1260.66 3580.5,1158C 3586.84,1156.33 3593.17,1154.66 3599.5,1153C 3605.96,1151.48 3612.29,1150.98 3618.5,1151.5 Z"/></g>
<g><path style="opacity:1" fill="#012f33" d="M 4403.5,3642.5 C 4401.45,3645.55 4398.78,3647.88 4395.5,3649.5C 4386.61,3626.43 4376.11,3604.1 4364,3582.5C 4362.86,3579.9 4362.03,3577.24 4361.5,3574.5C 4360.5,3574.5 4359.5,3574.5 4358.5,3574.5C 4255.28,3356.06 4151.45,3137.73 4047,2919.5C 3985.81,2787.44 3926.47,2654.44 3869,2520.5C 3845.2,2461.69 3821.86,2402.69 3799,2343.5C 3769.47,2263.72 3743.47,2182.72 3721,2100.5C 3692.17,1991.7 3674.83,1881.03 3669,1768.5C 3661.03,1599.24 3687.2,1435.74 3747.5,1278C 3752.87,1262.63 3755.87,1246.8 3756.5,1230.5C 3756.02,1212.25 3751.36,1195.25 3742.5,1179.5C 3745.26,1171.66 3748.26,1164 3751.5,1156.5C 3752.12,1156.39 3752.62,1156.06 3753,1155.5C 3755.17,1159.33 3757.33,1163.17 3759.5,1167C 3764.3,1181.99 3768.47,1197.16 3772,1212.5C 3772.58,1232.69 3769.58,1252.35 3763,1271.5C 3696.76,1442.84 3670.43,1620.51 3684,1804.5C 3691.78,1905.07 3708.45,2004.07 3734,2101.5C 3756.37,2183.29 3782.37,2263.95 3812,2343.5C 3830.96,2393.06 3850.29,2442.39 3870,2491.5C 3911.77,2589.16 3954.1,2686.49 3997,2783.5C 4089.42,2982.34 4183.42,3180.34 4279,3377.5C 4294.66,3411.49 4310.33,3445.49 4326,3479.5C 4337.93,3502.02 4348.76,3525.02 4358.5,3548.5C 4359.68,3548.28 4360.68,3548.61 4361.5,3549.5C 4376.05,3579.83 4390.71,3610 4405.5,3640C 4404.62,3640.71 4403.95,3641.54 4403.5,3642.5 Z"/></g>
<g><path style="opacity:1" fill="#012c30" d="M 3742.5,1179.5 C 3751.36,1195.25 3756.02,1212.25 3756.5,1230.5C 3755.87,1246.8 3752.87,1262.63 3747.5,1278C 3687.2,1435.74 3661.03,1599.24 3669,1768.5C 3674.83,1881.03 3692.17,1991.7 3721,2100.5C 3743.47,2182.72 3769.47,2263.72 3799,2343.5C 3821.86,2402.69 3845.2,2461.69 3869,2520.5C 3926.47,2654.44 3985.81,2787.44 4047,2919.5C 4151.45,3137.73 4255.28,3356.06 4358.5,3574.5C 4359.5,3574.5 4360.5,3574.5 4361.5,3574.5C 4362.03,3577.24 4362.86,3579.9 4364,3582.5C 4376.11,3604.1 4386.61,3626.43 4395.5,3649.5C 4393.91,3651.63 4391.91,3653.3 4389.5,3654.5C 4380.71,3634.26 4371.38,3614.26 4361.5,3594.5C 4360.68,3593.61 4359.68,3593.28 4358.5,3593.5C 4358.31,3591.44 4357.81,3589.44 4357,3587.5C 4317.3,3507.47 4278.96,3426.8 4242,3345.5C 4145.85,3147.97 4051.85,2949.64 3960,2750.5C 3957.05,2741.63 3953.71,2732.97 3950,2724.5C 3886.43,2586.15 3828.1,2445.49 3775,2302.5C 3743.8,2214.9 3717.46,2125.9 3696,2035.5C 3692.14,2013.74 3687.81,1992.07 3683,1970.5C 3659.59,1845.38 3653.25,1719.38 3664,1592.5C 3672.28,1511.44 3688.28,1432.11 3712,1354.5C 3721.35,1327.15 3730.68,1299.81 3740,1272.5C 3745.49,1254.16 3746.83,1235.49 3744,1216.5C 3741.91,1209.09 3739.08,1202.09 3735.5,1195.5C 3737.46,1189.93 3739.79,1184.6 3742.5,1179.5 Z"/></g>
<g><path style="opacity:1" fill="#012a2d" d="M 3735.5,1195.5 C 3739.08,1202.09 3741.91,1209.09 3744,1216.5C 3746.83,1235.49 3745.49,1254.16 3740,1272.5C 3730.68,1299.81 3721.35,1327.15 3712,1354.5C 3688.28,1432.11 3672.28,1511.44 3664,1592.5C 3653.25,1719.38 3659.59,1845.38 3683,1970.5C 3687.81,1992.07 3692.14,2013.74 3696,2035.5C 3717.46,2125.9 3743.8,2214.9 3775,2302.5C 3828.1,2445.49 3886.43,2586.15 3950,2724.5C 3953.71,2732.97 3957.05,2741.63 3960,2750.5C 4051.85,2949.64 4145.85,3147.97 4242,3345.5C 4278.96,3426.8 4317.3,3507.47 4357,3587.5C 4357.81,3589.44 4358.31,3591.44 4358.5,3593.5C 4359.68,3593.28 4360.68,3593.61 4361.5,3594.5C 4371.38,3614.26 4380.71,3634.26 4389.5,3654.5C 4387.39,3656.73 4385.06,3658.73 4382.5,3660.5C 4374.64,3647.45 4367.81,3633.79 4362,3619.5C 4359.62,3617.12 4357.62,3614.45 4356,3611.5C 4245.84,3380.74 4135.84,3150.08 4026,2919.5C 3960.47,2777.78 3897.14,2635.11 3836,2491.5C 3816.36,2442.24 3797.02,2392.9 3778,2343.5C 3752.07,2273.47 3728.73,2202.47 3708,2130.5C 3677.75,2023.85 3658.41,1915.18 3650,1804.5C 3638.02,1645.32 3656.35,1489.98 3705,1338.5C 3712.63,1317.33 3719.96,1296 3727,1274.5C 3729.04,1263.69 3730.54,1252.85 3731.5,1242C 3731.33,1238.17 3731.17,1234.33 3731,1230.5C 3729.71,1227.18 3728.88,1223.68 3728.5,1220C 3728.32,1218.62 3727.65,1217.79 3726.5,1217.5C 3729.5,1210.17 3732.5,1202.83 3735.5,1195.5 Z"/></g>
<g><path style="opacity:1" fill="#012729" d="M 3726.5,1217.5 C 3727.65,1217.79 3728.32,1218.62 3728.5,1220C 3728.88,1223.68 3729.71,1227.18 3731,1230.5C 3731.17,1234.33 3731.33,1238.17 3731.5,1242C 3730.54,1252.85 3729.04,1263.69 3727,1274.5C 3719.96,1296 3712.63,1317.33 3705,1338.5C 3656.35,1489.98 3638.02,1645.32 3650,1804.5C 3658.41,1915.18 3677.75,2023.85 3708,2130.5C 3728.73,2202.47 3752.07,2273.47 3778,2343.5C 3797.02,2392.9 3816.36,2442.24 3836,2491.5C 3897.14,2635.11 3960.47,2777.78 4026,2919.5C 4135.84,3150.08 4245.84,3380.74 4356,3611.5C 4357.62,3614.45 4359.62,3617.12 4362,3619.5C 4367.81,3633.79 4374.64,3647.45 4382.5,3660.5C 4379.48,3663.52 4376.15,3666.18 4372.5,3668.5C 4318.69,3560.23 4266.53,3451.23 4216,3341.5C 4122.47,3148.23 4030.47,2954.23 3940,2759.5C 3929.91,2734.08 3918.91,2709.08 3907,2684.5C 3863.85,2586.56 3822.52,2487.89 3783,2388.5C 3768.15,2347.43 3753.15,2306.43 3738,2265.5C 3704.87,2169.28 3678.54,2070.95 3659,1970.5C 3637.2,1853.39 3630.2,1735.39 3638,1616.5C 3645.37,1528.75 3661.7,1442.75 3687,1358.5C 3695.71,1330.74 3704.71,1303.08 3714,1275.5C 3716.36,1265.09 3716.86,1254.76 3715.5,1244.5C 3718.97,1235.42 3722.64,1226.42 3726.5,1217.5 Z"/></g>
<g><path style="opacity:1" fill="#022527" d="M 3715.5,1244.5 C 3716.86,1254.76 3716.36,1265.09 3714,1275.5C 3704.71,1303.08 3695.71,1330.74 3687,1358.5C 3661.7,1442.75 3645.37,1528.75 3638,1616.5C 3630.2,1735.39 3637.2,1853.39 3659,1970.5C 3678.54,2070.95 3704.87,2169.28 3738,2265.5C 3753.15,2306.43 3768.15,2347.43 3783,2388.5C 3822.52,2487.89 3863.85,2586.56 3907,2684.5C 3918.91,2709.08 3929.91,2734.08 3940,2759.5C 4030.47,2954.23 4122.47,3148.23 4216,3341.5C 4266.53,3451.23 4318.69,3560.23 4372.5,3668.5C 4370.54,3670.16 4368.54,3671.82 4366.5,3673.5C 4354.15,3649.47 4341.82,3625.47 4329.5,3601.5C 4321.81,3586.13 4314.15,3570.79 4306.5,3555.5C 4293.29,3524.75 4279.29,3494.42 4264.5,3464.5C 4254.34,3441.52 4243.68,3418.86 4232.5,3396.5C 4218.68,3366.19 4204.34,3336.19 4189.5,3306.5C 4182.68,3290.85 4175.34,3275.52 4167.5,3260.5C 4153.34,3229.52 4138.68,3198.85 4123.5,3168.5C 4120.07,3160.64 4116.4,3152.98 4112.5,3145.5C 4101.74,3122.31 4090.74,3099.31 4079.5,3076.5C 4066.01,3046.85 4052.01,3017.52 4037.5,2988.5C 4030.07,2971.98 4022.4,2955.64 4014.5,2939.5C 3993.74,2894.31 3972.74,2849.31 3951.5,2804.5C 3894.18,2679.72 3839.68,2553.72 3788,2426.5C 3753.1,2340.65 3722.27,2253.31 3695.5,2164.5C 3695.58,2159.01 3694.75,2153.68 3693,2148.5C 3649.78,2006.05 3627.28,1860.22 3625.5,1711C 3625.8,1568.05 3650.3,1429.55 3699,1295.5C 3699.93,1291.27 3701.1,1287.1 3702.5,1283C 3702.43,1282.24 3702.1,1281.74 3701.5,1281.5C 3705.89,1269.05 3710.56,1256.72 3715.5,1244.5 Z"/></g>
<g><path style="opacity:1" fill="#0b2a2b" d="M 3701.5,1281.5 C 3702.1,1281.74 3702.43,1282.24 3702.5,1283C 3701.1,1287.1 3699.93,1291.27 3699,1295.5C 3650.3,1429.55 3625.8,1568.05 3625.5,1711C 3627.28,1860.22 3649.78,2006.05 3693,2148.5C 3694.75,2153.68 3695.58,2159.01 3695.5,2164.5C 3661.82,2054.93 3639.32,1942.93 3628,1828.5C 3609.82,1640.29 3634.32,1457.96 3701.5,1281.5 Z"/></g>
<g><path style="opacity:1" fill="#ffffff" d="M 2907.5,1360.5 C 2883.51,1370.5 2859.67,1380.83 2836,1391.5C 2832.17,1393.67 2828.33,1395.83 2824.5,1398C 2756.42,1428.68 2688.42,1459.35 2620.5,1490C 2601.55,1498.48 2582.88,1507.48 2564.5,1517C 2561.61,1517.63 2558.77,1518.46 2556,1519.5C 2477.61,1555.28 2399.45,1591.44 2321.5,1628C 2318.61,1628.63 2315.77,1629.46 2313,1630.5C 2294.86,1638.9 2276.86,1647.57 2259,1656.5C 2247.81,1662.01 2236.31,1666.84 2224.5,1671C 2132.03,1714.27 2039.19,1756.77 1946,1798.5C 1937.52,1803.5 1928.68,1807.83 1919.5,1811.5C 1905.23,1820.25 1892.23,1830.59 1880.5,1842.5C 1863.53,1865.99 1854.37,1892.33 1853,1921.5C 1852.33,1960.17 1852.33,1998.83 1853,2037.5C 1853.34,2040.86 1853.84,2044.19 1854.5,2047.5C 1944.84,2254.42 2035.34,2461.42 2126,2668.5C 2135.31,2686.31 2146.48,2702.81 2159.5,2718C 2167.1,2724.25 2175.27,2729.75 2184,2734.5C 2188.73,2736.62 2193.56,2738.29 2198.5,2739.5C 2198.5,2740.5 2198.5,2741.5 2198.5,2742.5C 2204.49,2743.13 2210.32,2744.46 2216,2746.5C 2243.74,2749.49 2271.57,2750.82 2299.5,2750.5C 2317.83,2750.17 2336.17,2749.83 2354.5,2749.5C 2359.51,2748.58 2364.51,2747.58 2369.5,2746.5C 2372.73,2743.98 2376.39,2742.65 2380.5,2742.5C 2380.5,2741.5 2380.5,2740.5 2380.5,2739.5C 2487.13,2691.7 2593.79,2643.53 2700.5,2595C 2715.88,2586.87 2731.71,2579.7 2748,2573.5C 2779.1,2558.02 2810.77,2543.68 2843,2530.5C 2868.25,2525.27 2889.75,2531.6 2907.5,2549.5C 2907.67,2553.85 2907.5,2558.18 2907,2562.5C 2890.55,2538.94 2868.21,2531.27 2840,2539.5C 2693.54,2606.99 2546.71,2673.66 2399.5,2739.5C 2399.5,2740.5 2399.5,2741.5 2399.5,2742.5C 2389.82,2745.59 2380.49,2749.59 2371.5,2754.5C 2367.55,2755.68 2363.55,2756.68 2359.5,2757.5C 2314.5,2758.83 2269.5,2758.83 2224.5,2757.5C 2205.49,2756.21 2187.49,2751.38 2170.5,2743C 2169.66,2741.99 2169.33,2740.82 2169.5,2739.5C 2168.45,2739.65 2167.45,2739.48 2166.5,2739C 2164.85,2737.06 2162.85,2735.56 2160.5,2734.5C 2155.5,2730.17 2150.83,2725.5 2146.5,2720.5C 2137.23,2708.17 2129.23,2694.84 2122.5,2680.5C 2031.04,2470.09 1939.04,2260.09 1846.5,2050.5C 1845.86,2047.53 1845.36,2044.53 1845,2041.5C 1844.33,1996.17 1844.33,1950.83 1845,1905.5C 1845.77,1874.41 1856.94,1848.24 1878.5,1827C 1890.88,1817.72 1904.05,1809.55 1918,1802.5C 2247.97,1651.48 2577.8,1500.82 2907.5,1350.5C 2907.5,1353.83 2907.5,1357.17 2907.5,1360.5 Z"/></g>
<g><path style="opacity:1" fill="#ffffff" d="M 2907.5,1360.5 C 2907.5,1367.83 2907.5,1375.17 2907.5,1382.5C 2610.2,1518.77 2312.53,1654.6 2014.5,1790C 1994.55,1799.65 1974.71,1809.48 1955,1819.5C 1947.62,1824.78 1940.12,1829.95 1932.5,1835C 1913.51,1851.8 1898.51,1871.63 1887.5,1894.5C 1884.45,1902.53 1881.78,1910.7 1879.5,1919C 1872.95,1957.59 1871.11,1996.42 1874,2035.5C 1876.14,2042.39 1878.14,2049.39 1880,2056.5C 1961.58,2240.81 2042.41,2425.31 2122.5,2610C 2129.42,2622.34 2135.92,2634.84 2142,2647.5C 2147.74,2656.36 2153.91,2665.03 2160.5,2673.5C 2188.27,2705.05 2223.6,2722.38 2266.5,2725.5C 2282.79,2727 2299.12,2727.67 2315.5,2727.5C 2329.2,2727.59 2342.86,2727.09 2356.5,2726C 2367.86,2722.3 2379.02,2718.14 2390,2713.5C 2537.78,2645.45 2685.95,2577.95 2834.5,2511C 2860.67,2504.23 2885.01,2508.07 2907.5,2522.5C 2907.5,2531.5 2907.5,2540.5 2907.5,2549.5C 2889.75,2531.6 2868.25,2525.27 2843,2530.5C 2810.77,2543.68 2779.1,2558.02 2748,2573.5C 2731.71,2579.7 2715.88,2586.87 2700.5,2595C 2593.79,2643.53 2487.13,2691.7 2380.5,2739.5C 2380.5,2740.5 2380.5,2741.5 2380.5,2742.5C 2376.39,2742.65 2372.73,2743.98 2369.5,2746.5C 2364.51,2747.58 2359.51,2748.58 2354.5,2749.5C 2336.17,2749.83 2317.83,2750.17 2299.5,2750.5C 2271.57,2750.82 2243.74,2749.49 2216,2746.5C 2210.32,2744.46 2204.49,2743.13 2198.5,2742.5C 2198.5,2741.5 2198.5,2740.5 2198.5,2739.5C 2193.56,2738.29 2188.73,2736.62 2184,2734.5C 2175.27,2729.75 2167.1,2724.25 2159.5,2718C 2146.48,2702.81 2135.31,2686.31 2126,2668.5C 2035.34,2461.42 1944.84,2254.42 1854.5,2047.5C 1853.84,2044.19 1853.34,2040.86 1853,2037.5C 1852.33,1998.83 1852.33,1960.17 1853,1921.5C 1854.37,1892.33 1863.53,1865.99 1880.5,1842.5C 1892.23,1830.59 1905.23,1820.25 1919.5,1811.5C 1928.68,1807.83 1937.52,1803.5 1946,1798.5C 2039.19,1756.77 2132.03,1714.27 2224.5,1671C 2236.31,1666.84 2247.81,1662.01 2259,1656.5C 2276.86,1647.57 2294.86,1638.9 2313,1630.5C 2315.77,1629.46 2318.61,1628.63 2321.5,1628C 2399.45,1591.44 2477.61,1555.28 2556,1519.5C 2558.77,1518.46 2561.61,1517.63 2564.5,1517C 2582.88,1507.48 2601.55,1498.48 2620.5,1490C 2688.42,1459.35 2756.42,1428.68 2824.5,1398C 2828.33,1395.83 2832.17,1393.67 2836,1391.5C 2859.67,1380.83 2883.51,1370.5 2907.5,1360.5 Z"/></g>
<g><path style="opacity:1" fill="#ffffff" d="M 2907.5,1382.5 C 2907.5,1385.17 2907.5,1387.83 2907.5,1390.5C 2618.22,1522.74 2328.88,1654.91 2039.5,1787C 2026.04,1793.71 2012.37,1800.05 1998.5,1806C 1981.57,1814.73 1965.24,1824.4 1949.5,1835C 1937.81,1845.36 1926.64,1856.53 1916,1868.5C 1898.56,1893.41 1887.72,1921.08 1883.5,1951.5C 1881.77,1969.98 1880.44,1988.48 1879.5,2007C 1879.36,2023.75 1882.2,2039.92 1888,2055.5C 1967.45,2236.37 2046.79,2417.37 2126,2598.5C 2132.83,2611.31 2139.67,2623.98 2146.5,2636.5C 2153.59,2645.7 2160.43,2655.04 2167,2664.5C 2186.16,2685.04 2209.32,2700.04 2236.5,2709.5C 2264.07,2717.47 2292.24,2720.81 2321,2719.5C 2330.17,2719.33 2339.33,2719.17 2348.5,2719C 2352.53,2718.52 2356.53,2717.85 2360.5,2717C 2385.83,2706 2411.17,2695 2436.5,2684C 2565.73,2624.91 2694.9,2565.74 2824,2506.5C 2847.91,2498.35 2871.74,2498.52 2895.5,2507C 2899.88,2508.51 2903.88,2510.68 2907.5,2513.5C 2907.5,2516.5 2907.5,2519.5 2907.5,2522.5C 2885.01,2508.07 2860.67,2504.23 2834.5,2511C 2685.95,2577.95 2537.78,2645.45 2390,2713.5C 2379.02,2718.14 2367.86,2722.3 2356.5,2726C 2342.86,2727.09 2329.2,2727.59 2315.5,2727.5C 2299.12,2727.67 2282.79,2727 2266.5,2725.5C 2223.6,2722.38 2188.27,2705.05 2160.5,2673.5C 2153.91,2665.03 2147.74,2656.36 2142,2647.5C 2135.92,2634.84 2129.42,2622.34 2122.5,2610C 2042.41,2425.31 1961.58,2240.81 1880,2056.5C 1878.14,2049.39 1876.14,2042.39 1874,2035.5C 1871.11,1996.42 1872.95,1957.59 1879.5,1919C 1881.78,1910.7 1884.45,1902.53 1887.5,1894.5C 1898.51,1871.63 1913.51,1851.8 1932.5,1835C 1940.12,1829.95 1947.62,1824.78 1955,1819.5C 1974.71,1809.48 1994.55,1799.65 2014.5,1790C 2312.53,1654.6 2610.2,1518.77 2907.5,1382.5 Z"/></g>
<g><path style="opacity:1" fill="#01363a" d="M 2907.5,1390.5 C 2907.5,1396.17 2907.5,1401.83 2907.5,1407.5C 2725.67,1489.49 2544.34,1572.32 2363.5,1656C 2252.88,1706.11 2142.21,1756.44 2031.5,1807C 2019.03,1813.55 2006.69,1820.21 1994.5,1827C 1978.45,1838.37 1963.29,1850.87 1949,1864.5C 1938.57,1876.64 1929.07,1889.47 1920.5,1903C 1902.21,1942.79 1894.04,1984.62 1896,2028.5C 1899.24,2044.87 1904.91,2060.21 1913,2074.5C 1914.07,2078.82 1915.74,2082.82 1918,2086.5C 1988.71,2248.93 2059.71,2411.26 2131,2573.5C 2137.53,2584.78 2143.86,2596.11 2150,2607.5C 2161.49,2626.01 2175.32,2642.85 2191.5,2658C 2210.57,2674.16 2232.24,2685.99 2256.5,2693.5C 2267.01,2696.7 2277.68,2699.2 2288.5,2701C 2303.33,2702.53 2318.17,2704.03 2333,2705.5C 2342.23,2704.37 2351.4,2702.87 2360.5,2701C 2392.73,2687.82 2424.39,2673.48 2455.5,2658C 2567.22,2608.48 2678.55,2557.81 2789.5,2506C 2803.08,2500.36 2816.74,2494.69 2830.5,2489C 2842.3,2485.76 2854.3,2484.43 2866.5,2485C 2880.99,2486.53 2894.65,2490.37 2907.5,2496.5C 2907.5,2502.17 2907.5,2507.83 2907.5,2513.5C 2903.88,2510.68 2899.88,2508.51 2895.5,2507C 2871.74,2498.52 2847.91,2498.35 2824,2506.5C 2694.9,2565.74 2565.73,2624.91 2436.5,2684C 2411.17,2695 2385.83,2706 2360.5,2717C 2356.53,2717.85 2352.53,2718.52 2348.5,2719C 2339.33,2719.17 2330.17,2719.33 2321,2719.5C 2292.24,2720.81 2264.07,2717.47 2236.5,2709.5C 2209.32,2700.04 2186.16,2685.04 2167,2664.5C 2160.43,2655.04 2153.59,2645.7 2146.5,2636.5C 2139.67,2623.98 2132.83,2611.31 2126,2598.5C 2046.79,2417.37 1967.45,2236.37 1888,2055.5C 1882.2,2039.92 1879.36,2023.75 1879.5,2007C 1880.44,1988.48 1881.77,1969.98 1883.5,1951.5C 1887.72,1921.08 1898.56,1893.41 1916,1868.5C 1926.64,1856.53 1937.81,1845.36 1949.5,1835C 1965.24,1824.4 1981.57,1814.73 1998.5,1806C 2012.37,1800.05 2026.04,1793.71 2039.5,1787C 2328.88,1654.91 2618.22,1522.74 2907.5,1390.5 Z"/></g>
<g><path style="opacity:1" fill="#013336" d="M 2907.5,1407.5 C 2907.5,1411.5 2907.5,1415.5 2907.5,1419.5C 2791.27,1471.29 2675.6,1524.13 2560.5,1578C 2502.19,1603.3 2444.52,1629.63 2387.5,1657C 2270.77,1709.26 2154.43,1762.26 2038.5,1816C 2024.67,1823.73 2011.34,1831.89 1998.5,1840.5C 1990.17,1847.49 1982.17,1854.83 1974.5,1862.5C 1973.17,1863.17 1971.83,1863.83 1970.5,1864.5C 1953.29,1882.02 1939.29,1901.68 1928.5,1923.5C 1927.17,1924.5 1925.83,1925.5 1924.5,1926.5C 1922.06,1926.75 1920.06,1927.75 1918.5,1929.5C 1920.18,1933.52 1921.85,1937.52 1923.5,1941.5C 1922.5,1941.5 1921.5,1941.5 1920.5,1941.5C 1917.1,1952.66 1914.27,1964 1912,1975.5C 1910.91,1983.88 1909.58,1992.21 1908,2000.5C 1905.94,2017.99 1907.94,2034.99 1914,2051.5C 1981.17,2204.82 2048.51,2357.82 2116,2510.5C 2128.27,2543.39 2143.94,2574.39 2163,2603.5C 2168.34,2610.18 2173.67,2616.84 2179,2623.5C 2188.63,2632.96 2198.46,2642.29 2208.5,2651.5C 2219.74,2659.04 2231.41,2666.04 2243.5,2672.5C 2245.53,2675.55 2247.2,2678.89 2248.5,2682.5C 2249.17,2682.83 2249.83,2683.17 2250.5,2683.5C 2254.52,2681.82 2258.52,2680.16 2262.5,2678.5C 2262.39,2679.12 2262.06,2679.62 2261.5,2680C 2281.59,2685.58 2301.92,2689.58 2322.5,2692C 2335.01,2693.15 2347.35,2692.15 2359.5,2689C 2367.71,2686.56 2375.71,2683.56 2383.5,2680C 2531.36,2612.81 2679.02,2545.47 2826.5,2478C 2848.14,2470.67 2869.81,2470.67 2891.5,2478C 2897.01,2479.89 2902.35,2482.06 2907.5,2484.5C 2907.5,2488.5 2907.5,2492.5 2907.5,2496.5C 2894.65,2490.37 2880.99,2486.53 2866.5,2485C 2854.3,2484.43 2842.3,2485.76 2830.5,2489C 2816.74,2494.69 2803.08,2500.36 2789.5,2506C 2678.55,2557.81 2567.22,2608.48 2455.5,2658C 2424.39,2673.48 2392.73,2687.82 2360.5,2701C 2351.4,2702.87 2342.23,2704.37 2333,2705.5C 2318.17,2704.03 2303.33,2702.53 2288.5,2701C 2277.68,2699.2 2267.01,2696.7 2256.5,2693.5C 2232.24,2685.99 2210.57,2674.16 2191.5,2658C 2175.32,2642.85 2161.49,2626.01 2150,2607.5C 2143.86,2596.11 2137.53,2584.78 2131,2573.5C 2059.71,2411.26 1988.71,2248.93 1918,2086.5C 1915.74,2082.82 1914.07,2078.82 1913,2074.5C 1904.91,2060.21 1899.24,2044.87 1896,2028.5C 1894.04,1984.62 1902.21,1942.79 1920.5,1903C 1929.07,1889.47 1938.57,1876.64 1949,1864.5C 1963.29,1850.87 1978.45,1838.37 1994.5,1827C 2006.69,1820.21 2019.03,1813.55 2031.5,1807C 2142.21,1756.44 2252.88,1706.11 2363.5,1656C 2544.34,1572.32 2725.67,1489.49 2907.5,1407.5 Z"/></g>
<g><path style="opacity:1" fill="#012f33" d="M 2907.5,1419.5 C 2907.5,1423.5 2907.5,1427.5 2907.5,1431.5C 2682.07,1535.37 2456.07,1638.54 2229.5,1741C 2172.36,1768.38 2114.69,1794.71 2056.5,1820C 2021.54,1838.96 1991.04,1863.46 1965,1893.5C 1961.69,1899.44 1957.85,1905.11 1953.5,1910.5C 1953.62,1911.11 1953.96,1911.44 1954.5,1911.5C 1953.17,1912.5 1951.83,1913.5 1950.5,1914.5C 1943.17,1917.5 1935.83,1920.5 1928.5,1923.5C 1939.29,1901.68 1953.29,1882.02 1970.5,1864.5C 1971.83,1863.83 1973.17,1863.17 1974.5,1862.5C 1982.17,1854.83 1990.17,1847.49 1998.5,1840.5C 2011.34,1831.89 2024.67,1823.73 2038.5,1816C 2154.43,1762.26 2270.77,1709.26 2387.5,1657C 2444.52,1629.63 2502.19,1603.3 2560.5,1578C 2675.6,1524.13 2791.27,1471.29 2907.5,1419.5 Z"/></g>
<g><path style="opacity:1" fill="#012c30" d="M 2907.5,1431.5 C 2907.5,1434.83 2907.5,1438.17 2907.5,1441.5C 2876.22,1455.43 2844.89,1469.26 2813.5,1483C 2677.02,1546.4 2540.02,1609.07 2402.5,1671C 2287.99,1723.37 2173.66,1775.7 2059.5,1828C 2053.07,1832.1 2046.4,1835.77 2039.5,1839C 2030.54,1847.46 2020.87,1854.96 2010.5,1861.5C 2001.77,1869.35 1993.27,1877.35 1985,1885.5C 1984.67,1886.5 1984.33,1887.5 1984,1888.5C 1979.31,1892.22 1975.31,1896.56 1972,1901.5C 1971.31,1902.44 1971.47,1903.1 1972.5,1903.5C 1966.79,1906.68 1960.79,1909.35 1954.5,1911.5C 1953.96,1911.44 1953.62,1911.11 1953.5,1910.5C 1957.85,1905.11 1961.69,1899.44 1965,1893.5C 1991.04,1863.46 2021.54,1838.96 2056.5,1820C 2114.69,1794.71 2172.36,1768.38 2229.5,1741C 2456.07,1638.54 2682.07,1535.37 2907.5,1431.5 Z"/></g>
<g><path style="opacity:1" fill="#012a2d" d="M 2907.5,1441.5 C 2907.5,1445.17 2907.5,1448.83 2907.5,1452.5C 2624.89,1581.98 2342.22,1711.14 2059.5,1840C 2039.09,1853.77 2019.92,1868.93 2002,1885.5C 2000.98,1887.66 1999.81,1889.66 1998.5,1891.5C 1994.08,1894.2 1989.42,1896.54 1984.5,1898.5C 1980.5,1900.17 1976.5,1901.83 1972.5,1903.5C 1971.47,1903.1 1971.31,1902.44 1972,1901.5C 1975.31,1896.56 1979.31,1892.22 1984,1888.5C 1984.33,1887.5 1984.67,1886.5 1985,1885.5C 1993.27,1877.35 2001.77,1869.35 2010.5,1861.5C 2020.87,1854.96 2030.54,1847.46 2039.5,1839C 2046.4,1835.77 2053.07,1832.1 2059.5,1828C 2173.66,1775.7 2287.99,1723.37 2402.5,1671C 2540.02,1609.07 2677.02,1546.4 2813.5,1483C 2844.89,1469.26 2876.22,1455.43 2907.5,1441.5 Z"/></g>
<g><path style="opacity:1" fill="#012729" d="M 2907.5,1452.5 C 2907.5,1456.5 2907.5,1460.5 2907.5,1464.5C 2637.72,1588.38 2367.38,1711.88 2096.5,1835C 2078.1,1843.56 2060.43,1853.22 2043.5,1864C 2039.71,1867.29 2036.04,1870.79 2032.5,1874.5C 2030.83,1875.33 2029.17,1876.17 2027.5,1877C 2028.09,1877.46 2028.76,1877.63 2029.5,1877.5C 2019.41,1882.54 2009.08,1887.2 1998.5,1891.5C 1999.81,1889.66 2000.98,1887.66 2002,1885.5C 2019.92,1868.93 2039.09,1853.77 2059.5,1840C 2342.22,1711.14 2624.89,1581.98 2907.5,1452.5 Z"/></g>
<g><path style="opacity:1" fill="#012426" d="M 2907.5,1464.5 C 2907.5,1467.5 2907.5,1470.5 2907.5,1473.5C 2636.09,1598.03 2364.42,1722.37 2092.5,1846.5C 2089.47,1848.23 2086.8,1850.23 2084.5,1852.5C 2071.77,1858.53 2059.1,1864.53 2046.5,1870.5C 2040.75,1872.64 2035.09,1874.97 2029.5,1877.5C 2028.76,1877.63 2028.09,1877.46 2027.5,1877C 2029.17,1876.17 2030.83,1875.33 2032.5,1874.5C 2036.04,1870.79 2039.71,1867.29 2043.5,1864C 2060.43,1853.22 2078.1,1843.56 2096.5,1835C 2367.38,1711.88 2637.72,1588.38 2907.5,1464.5 Z"/></g>
<g><path style="opacity:1" fill="#082829" d="M 2907.5,1473.5 C 2907.5,1474.5 2907.5,1475.5 2907.5,1476.5C 2833.44,1510.53 2759.44,1544.53 2685.5,1578.5C 2667.71,1586.23 2650.04,1594.23 2632.5,1602.5C 2626.65,1604.93 2620.98,1607.59 2615.5,1610.5C 2603.59,1615.46 2591.92,1620.8 2580.5,1626.5C 2571.52,1629.99 2562.86,1633.99 2554.5,1638.5C 2551.98,1639.26 2549.65,1640.26 2547.5,1641.5C 2535.65,1646.6 2523.98,1651.93 2512.5,1657.5C 2506.41,1659.97 2500.41,1662.64 2494.5,1665.5C 2482.71,1670.56 2471.05,1675.89 2459.5,1681.5C 2450.75,1685.31 2442.08,1689.31 2433.5,1693.5C 2421.86,1698.32 2410.52,1703.66 2399.5,1709.5C 2393.87,1711.32 2388.54,1713.65 2383.5,1716.5C 2374.38,1720.23 2365.38,1724.23 2356.5,1728.5C 2353.67,1729.66 2351.01,1730.99 2348.5,1732.5C 2333.53,1738.66 2318.86,1745.32 2304.5,1752.5C 2295.52,1755.99 2286.86,1759.99 2278.5,1764.5C 2267.31,1769.26 2256.31,1774.26 2245.5,1779.5C 2233.65,1784.6 2221.98,1789.93 2210.5,1795.5C 2201.52,1798.99 2192.86,1802.99 2184.5,1807.5C 2178.26,1809.62 2172.26,1812.29 2166.5,1815.5C 2151.98,1821.93 2137.64,1828.6 2123.5,1835.5C 2117.2,1837.66 2111.2,1840.32 2105.5,1843.5C 2098.42,1846.31 2091.42,1849.31 2084.5,1852.5C 2086.8,1850.23 2089.47,1848.23 2092.5,1846.5C 2364.42,1722.37 2636.09,1598.03 2907.5,1473.5 Z"/></g>
<g><path style="opacity:1" fill="#efe5c9" d="M 2685.5,1578.5 C 2685.39,1579.12 2685.06,1579.62 2684.5,1580C 2688.83,1584.33 2693.17,1588.67 2697.5,1593C 3091.8,1974.3 3485.8,2355.97 3879.5,2738C 3903.64,2760.47 3927.47,2783.3 3951,2806.5C 3951.46,2805.91 3951.63,2805.24 3951.5,2804.5C 3972.74,2849.31 3993.74,2894.31 4014.5,2939.5C 4014.63,2940.24 4014.46,2940.91 4014,2941.5C 4010.13,2937.3 4005.97,2933.47 4001.5,2930C 3544.97,2487.63 3088.63,2045.13 2632.5,1602.5C 2650.04,1594.23 2667.71,1586.23 2685.5,1578.5 Z"/></g>
<g><path style="opacity:1" fill="#ece1c7" d="M 2632.5,1602.5 C 3088.63,2045.13 3544.97,2487.63 4001.5,2930C 4005.97,2933.47 4010.13,2937.3 4014,2941.5C 4014.46,2940.91 4014.63,2940.24 4014.5,2939.5C 4022.4,2955.64 4030.07,2971.98 4037.5,2988.5C 3574.04,2540.2 3110.7,2091.7 2647.5,1643C 2636.58,1632.25 2625.92,1621.42 2615.5,1610.5C 2620.98,1607.59 2626.65,1604.93 2632.5,1602.5 Z"/></g>
<g><path style="opacity:1" fill="#e9dfc5" d="M 2615.5,1610.5 C 2625.92,1621.42 2636.58,1632.25 2647.5,1643C 3110.7,2091.7 3574.04,2540.2 4037.5,2988.5C 4052.01,3017.52 4066.01,3046.85 4079.5,3076.5C 4079.63,3077.24 4079.46,3077.91 4079,3078.5C 4073.14,3072.3 4066.97,3066.47 4060.5,3061C 3566.97,2582.97 3073.63,2104.8 2580.5,1626.5C 2591.92,1620.8 2603.59,1615.46 2615.5,1610.5 Z"/></g>
<g><path style="opacity:1" fill="#e5dbc3" d="M 2580.5,1626.5 C 3073.63,2104.8 3566.97,2582.97 4060.5,3061C 4066.97,3066.47 4073.14,3072.3 4079,3078.5C 4079.46,3077.91 4079.63,3077.24 4079.5,3076.5C 4090.74,3099.31 4101.74,3122.31 4112.5,3145.5C 4112.63,3146.24 4112.46,3146.91 4112,3147.5C 4104.8,3139.97 4097.3,3132.8 4089.5,3126C 3577.63,2630.3 3065.97,2134.47 2554.5,1638.5C 2562.86,1633.99 2571.52,1629.99 2580.5,1626.5 Z"/></g>
<g><path style="opacity:1" fill="#e3d9c1" d="M 2554.5,1638.5 C 3065.97,2134.47 3577.63,2630.3 4089.5,3126C 4097.3,3132.8 4104.8,3139.97 4112,3147.5C 4112.46,3146.91 4112.63,3146.24 4112.5,3145.5C 4116.4,3152.98 4120.07,3160.64 4123.5,3168.5C 4123.63,3169.24 4123.46,3169.91 4123,3170.5C 4115.47,3162.64 4107.64,3155.14 4099.5,3148C 3588.17,2652.67 3076.83,2157.33 2565.5,1662C 2559.17,1655.67 2552.83,1649.33 2546.5,1643C 2547.06,1642.62 2547.39,1642.12 2547.5,1641.5C 2549.65,1640.26 2551.98,1639.26 2554.5,1638.5 Z"/></g>
<g><path style="opacity:1" fill="#e2d8c0" d="M 2547.5,1641.5 C 2547.39,1642.12 2547.06,1642.62 2546.5,1643C 2552.83,1649.33 2559.17,1655.67 2565.5,1662C 3076.83,2157.33 3588.17,2652.67 4099.5,3148C 4107.64,3155.14 4115.47,3162.64 4123,3170.5C 4123.46,3169.91 4123.63,3169.24 4123.5,3168.5C 4138.68,3198.85 4153.34,3229.52 4167.5,3260.5C 4167.63,3261.24 4167.46,3261.91 4167,3262.5C 4125.83,3222.67 4084.67,3182.83 4043.5,3143C 3543.14,2657.64 3042.47,2172.64 2541.5,1688C 2531.24,1678.25 2521.58,1668.08 2512.5,1657.5C 2523.98,1651.93 2535.65,1646.6 2547.5,1641.5 Z"/></g>
<g><path style="opacity:1" fill="#dfd5be" d="M 2512.5,1657.5 C 2521.58,1668.08 2531.24,1678.25 2541.5,1688C 3042.47,2172.64 3543.14,2657.64 4043.5,3143C 4084.67,3182.83 4125.83,3222.67 4167,3262.5C 4167.46,3261.91 4167.63,3261.24 4167.5,3260.5C 4175.34,3275.52 4182.68,3290.85 4189.5,3306.5C 4189.63,3307.24 4189.46,3307.91 4189,3308.5C 3625.14,2761.64 3060.97,2215.14 2496.5,1669C 2495.18,1668.18 2494.51,1667.02 2494.5,1665.5C 2500.41,1662.64 2506.41,1659.97 2512.5,1657.5 Z"/></g>
<g><path style="opacity:1" fill="#dcd3bc" d="M 2494.5,1665.5 C 2494.51,1667.02 2495.18,1668.18 2496.5,1669C 3060.97,2215.14 3625.14,2761.64 4189,3308.5C 4189.46,3307.91 4189.63,3307.24 4189.5,3306.5C 4204.34,3336.19 4218.68,3366.19 4232.5,3396.5C 4232.3,3398.65 4231.3,3398.81 4229.5,3397C 3639.6,2824.94 3049.6,2253.1 2459.5,1681.5C 2471.05,1675.89 2482.71,1670.56 2494.5,1665.5 Z"/></g>
<g><path style="opacity:1" fill="#d8cfba" d="M 2459.5,1681.5 C 3049.6,2253.1 3639.6,2824.94 4229.5,3397C 4231.3,3398.81 4232.3,3398.65 4232.5,3396.5C 4243.68,3418.86 4254.34,3441.52 4264.5,3464.5C 4264.63,3465.24 4264.46,3465.91 4264,3466.5C 4262.46,3464.62 4260.62,3463.12 4258.5,3462C 3650.27,2872.27 3041.94,2282.77 2433.5,1693.5C 2442.08,1689.31 2450.75,1685.31 2459.5,1681.5 Z"/></g>
<g><path style="opacity:1" fill="#d6cdb7" d="M 2433.5,1693.5 C 3041.94,2282.77 3650.27,2872.27 4258.5,3462C 4260.62,3463.12 4262.46,3464.62 4264,3466.5C 4264.46,3465.91 4264.63,3465.24 4264.5,3464.5C 4279.29,3494.42 4293.29,3524.75 4306.5,3555.5C 4306.57,3555.94 4306.4,3556.27 4306,3556.5C 4303.46,3553.63 4300.63,3551.13 4297.5,3549C 3664.94,2935.6 3032.27,2322.44 2399.5,1709.5C 2410.52,1703.66 2421.86,1698.32 2433.5,1693.5 Z"/></g>
<g><path style="opacity:1" fill="#d3cab5" d="M 2399.5,1709.5 C 3032.27,2322.44 3664.94,2935.6 4297.5,3549C 4300.63,3551.13 4303.46,3553.63 4306,3556.5C 4306.4,3556.27 4306.57,3555.94 4306.5,3555.5C 4314.15,3570.79 4321.81,3586.13 4329.5,3601.5C 4329.63,3602.24 4329.46,3602.91 4329,3603.5C 4325.47,3599.63 4321.63,3596.13 4317.5,3593C 3678.69,2973.77 3039.69,2354.77 2400.5,1736C 2394.5,1730 2388.5,1724 2382.5,1718C 2383.06,1717.62 2383.39,1717.12 2383.5,1716.5C 2388.54,1713.65 2393.87,1711.32 2399.5,1709.5 Z"/></g>
<g><path style="opacity:1" fill="#d0c8b4" d="M 2383.5,1716.5 C 2383.39,1717.12 2383.06,1717.62 2382.5,1718C 2388.5,1724 2394.5,1730 2400.5,1736C 3039.69,2354.77 3678.69,2973.77 4317.5,3593C 4321.63,3596.13 4325.47,3599.63 4329,3603.5C 4329.46,3602.91 4329.63,3602.24 4329.5,3601.5C 4341.82,3625.47 4354.15,3649.47 4366.5,3673.5C 4366.16,3674.34 4365.49,3674.67 4364.5,3674.5C 3698.01,3028.84 3031.34,2383.34 2364.5,1738C 2361.22,1735.23 2358.56,1732.07 2356.5,1728.5C 2365.38,1724.23 2374.38,1720.23 2383.5,1716.5 Z"/></g>
<g><path style="opacity:1" fill="#cec6b2" d="M 2356.5,1728.5 C 2358.56,1732.07 2361.22,1735.23 2364.5,1738C 3031.34,2383.34 3698.01,3028.84 4364.5,3674.5C 4363.11,3676.89 4361.11,3678.56 4358.5,3679.5C 4357.45,3679.65 4356.45,3679.48 4355.5,3679C 3695.17,3039.33 3034.83,2399.67 2374.5,1760C 2365.24,1751.25 2356.57,1742.08 2348.5,1732.5C 2351.01,1730.99 2353.67,1729.66 2356.5,1728.5 Z"/></g>
<g><path style="opacity:1" fill="#ccc3b1" d="M 2348.5,1732.5 C 2356.57,1742.08 2365.24,1751.25 2374.5,1760C 3034.83,2399.67 3695.17,3039.33 4355.5,3679C 4356.45,3679.48 4357.45,3679.65 4358.5,3679.5C 4347.12,3688.88 4335.46,3697.88 4323.5,3706.5C 4322.45,3706.65 4321.45,3706.48 4320.5,3706C 4317.13,3702.3 4313.47,3698.96 4309.5,3696C 3862.83,3263 3416.17,2830 2969.5,2397C 2963.94,2391.93 2958.27,2387.1 2952.5,2382.5C 2950.44,2377.38 2948.1,2372.38 2945.5,2367.5C 2943.92,2368.46 2942.26,2369.12 2940.5,2369.5C 2728.5,2163.83 2516.5,1958.17 2304.5,1752.5C 2318.86,1745.32 2333.53,1738.66 2348.5,1732.5 Z"/></g>
<g><path style="opacity:1" fill="#c9c0ae" d="M 2304.5,1752.5 C 2516.5,1958.17 2728.5,2163.83 2940.5,2369.5C 2932.81,2373.68 2924.81,2377.34 2916.5,2380.5C 2915.45,2380.65 2914.45,2380.48 2913.5,2380C 2701.63,2174.97 2489.97,1969.8 2278.5,1764.5C 2286.86,1759.99 2295.52,1755.99 2304.5,1752.5 Z"/></g>
<g><path style="opacity:1" fill="#c5bdac" d="M 2278.5,1764.5 C 2489.97,1969.8 2701.63,2174.97 2913.5,2380C 2914.45,2380.48 2915.45,2380.65 2916.5,2380.5C 2913.99,2382.01 2911.33,2383.34 2908.5,2384.5C 2907.83,2384.5 2907.5,2384.83 2907.5,2385.5C 2898.83,2389.17 2890.17,2392.83 2881.5,2396.5C 2879.4,2395.59 2877.4,2394.42 2875.5,2393C 2673.8,2196.97 2471.8,2001.3 2269.5,1806C 2261.17,1797.67 2252.83,1789.33 2244.5,1781C 2245.06,1780.62 2245.39,1780.12 2245.5,1779.5C 2256.31,1774.26 2267.31,1769.26 2278.5,1764.5 Z"/></g>
<g><path style="opacity:1" fill="#c2baaa" d="M 2245.5,1779.5 C 2245.39,1780.12 2245.06,1780.62 2244.5,1781C 2252.83,1789.33 2261.17,1797.67 2269.5,1806C 2471.8,2001.3 2673.8,2196.97 2875.5,2393C 2877.4,2394.42 2879.4,2395.59 2881.5,2396.5C 2869.79,2402.35 2857.79,2407.68 2845.5,2412.5C 2633.37,2207.54 2421.37,2002.37 2209.5,1797C 2210.06,1796.62 2210.39,1796.12 2210.5,1795.5C 2221.98,1789.93 2233.65,1784.6 2245.5,1779.5 Z"/></g>
<g><path style="opacity:1" fill="#beb6a7" d="M 2210.5,1795.5 C 2210.39,1796.12 2210.06,1796.62 2209.5,1797C 2421.37,2002.37 2633.37,2207.54 2845.5,2412.5C 2837.14,2417.01 2828.48,2421.01 2819.5,2424.5C 2608.2,2219.37 2396.7,2014.37 2185,1809.5C 2184.54,1808.91 2184.37,1808.24 2184.5,1807.5C 2192.86,1802.99 2201.52,1798.99 2210.5,1795.5 Z"/></g>
<g><path style="opacity:1" fill="#bcb4a5" d="M 2184.5,1807.5 C 2184.37,1808.24 2184.54,1808.91 2185,1809.5C 2396.7,2014.37 2608.2,2219.37 2819.5,2424.5C 2813.79,2427.68 2807.79,2430.35 2801.5,2432.5C 2589.53,2227.2 2377.86,2021.53 2166.5,1815.5C 2172.26,1812.29 2178.26,1809.62 2184.5,1807.5 Z"/></g>
<g><path style="opacity:1" fill="#b8b1a3" d="M 2166.5,1815.5 C 2377.86,2021.53 2589.53,2227.2 2801.5,2432.5C 2788.17,2439.4 2774.5,2445.73 2760.5,2451.5C 2759.08,2451.29 2757.74,2450.79 2756.5,2450C 2545.6,2244.94 2334.6,2040.1 2123.5,1835.5C 2137.64,1828.6 2151.98,1821.93 2166.5,1815.5 Z"/></g>
<g><path style="opacity:1" fill="#b6aea1" d="M 2123.5,1835.5 C 2334.6,2040.1 2545.6,2244.94 2756.5,2450C 2757.74,2450.79 2759.08,2451.29 2760.5,2451.5C 2754.8,2454.68 2748.8,2457.34 2742.5,2459.5C 2732.39,2450.56 2722.39,2441.39 2712.5,2432C 2510.27,2235.6 2307.94,2039.44 2105.5,1843.5C 2111.2,1840.32 2117.2,1837.66 2123.5,1835.5 Z"/></g>
<g><path style="opacity:1" fill="#b1ab9e" d="M 2105.5,1843.5 C 2307.94,2039.44 2510.27,2235.6 2712.5,2432C 2722.39,2441.39 2732.39,2450.56 2742.5,2459.5C 2722.41,2469.2 2702.08,2478.54 2681.5,2487.5C 2469.7,2282.87 2258.04,2078.04 2046.5,1873C 2045.4,1872.23 2045.4,1871.4 2046.5,1870.5C 2059.1,1864.53 2071.77,1858.53 2084.5,1852.5C 2091.42,1849.31 2098.42,1846.31 2105.5,1843.5 Z"/></g>
<g><path style="opacity:1" fill="#aba59a" d="M 2046.5,1870.5 C 2045.4,1871.4 2045.4,1872.23 2046.5,1873C 2258.04,2078.04 2469.7,2282.87 2681.5,2487.5C 2661.81,2497.01 2641.81,2506.01 2621.5,2514.5C 2612.06,2506.23 2602.72,2497.73 2593.5,2489C 2390.6,2291.94 2187.6,2095.1 1984.5,1898.5C 1989.42,1896.54 1994.08,1894.2 1998.5,1891.5C 2009.08,1887.2 2019.41,1882.54 2029.5,1877.5C 2035.09,1874.97 2040.75,1872.64 2046.5,1870.5 Z"/></g>
<g><path style="opacity:1" fill="#a6a096" d="M 1984.5,1898.5 C 2187.6,2095.1 2390.6,2291.94 2593.5,2489C 2602.72,2497.73 2612.06,2506.23 2621.5,2514.5C 2610.25,2520.59 2598.58,2525.92 2586.5,2530.5C 2374.17,2325.5 2162.17,2120.17 1950.5,1914.5C 1951.83,1913.5 1953.17,1912.5 1954.5,1911.5C 1960.79,1909.35 1966.79,1906.68 1972.5,1903.5C 1976.5,1901.83 1980.5,1900.17 1984.5,1898.5 Z"/></g>
<g><path style="opacity:1" fill="#a39d94" d="M 1950.5,1914.5 C 2162.17,2120.17 2374.17,2325.5 2586.5,2530.5C 2578.14,2535.01 2569.48,2539.01 2560.5,2542.5C 2348.17,2337.5 2136.17,2132.17 1924.5,1926.5C 1925.83,1925.5 1927.17,1924.5 1928.5,1923.5C 1935.83,1920.5 1943.17,1917.5 1950.5,1914.5 Z"/></g>
<g><path style="opacity:1" fill="#9f9991" d="M 1924.5,1926.5 C 2136.17,2132.17 2348.17,2337.5 2560.5,2542.5C 2543.69,2550.4 2526.69,2558.07 2509.5,2565.5C 2505.06,2562.24 2500.73,2558.74 2496.5,2555C 2320.96,2384.63 2145.3,2214.46 1969.5,2044.5C 1964.17,2033.17 1958.83,2021.83 1953.5,2010.5C 1951.01,2003.53 1948.01,1996.86 1944.5,1990.5C 1942.45,1984.73 1940.11,1979.06 1937.5,1973.5C 1935.5,1968.83 1933.5,1964.16 1931.5,1959.5C 1928.83,1953.5 1926.17,1947.5 1923.5,1941.5C 1921.85,1937.52 1920.18,1933.52 1918.5,1929.5C 1920.06,1927.75 1922.06,1926.75 1924.5,1926.5 Z"/></g>
<g><path style="opacity:1" fill="#012f33" d="M 1923.5,1941.5 C 1926.17,1947.5 1928.83,1953.5 1931.5,1959.5C 1922.91,1981.65 1919.41,2004.65 1921,2028.5C 1922.74,2038.12 1925.4,2047.45 1929,2056.5C 2002.11,2221.87 2074.78,2387.54 2147,2553.5C 2162.97,2581.06 2182.13,2605.89 2204.5,2628C 2213.31,2634.31 2221.97,2640.81 2230.5,2647.5C 2231.43,2648.55 2232.1,2648.55 2232.5,2647.5C 2236.96,2655.42 2240.63,2663.76 2243.5,2672.5C 2231.41,2666.04 2219.74,2659.04 2208.5,2651.5C 2198.46,2642.29 2188.63,2632.96 2179,2623.5C 2173.67,2616.84 2168.34,2610.18 2163,2603.5C 2143.94,2574.39 2128.27,2543.39 2116,2510.5C 2048.51,2357.82 1981.17,2204.82 1914,2051.5C 1907.94,2034.99 1905.94,2017.99 1908,2000.5C 1909.58,1992.21 1910.91,1983.88 1912,1975.5C 1914.27,1964 1917.1,1952.66 1920.5,1941.5C 1921.5,1941.5 1922.5,1941.5 1923.5,1941.5 Z"/></g>
<g><path style="opacity:1" fill="#012c30" d="M 1931.5,1959.5 C 1933.5,1964.16 1935.5,1968.83 1937.5,1973.5C 1929.68,1992.42 1927.52,2012.08 1931,2032.5C 1932.26,2038.94 1933.92,2045.27 1936,2051.5C 1977.65,2147.15 2019.65,2242.48 2062,2337.5C 2092.6,2408.62 2123.6,2479.62 2155,2550.5C 2172.32,2579.53 2193.82,2604.86 2219.5,2626.5C 2220.63,2627.26 2221.79,2627.93 2223,2628.5C 2223.46,2627.91 2223.63,2627.24 2223.5,2626.5C 2227.07,2633.19 2230.07,2640.19 2232.5,2647.5C 2232.1,2648.55 2231.43,2648.55 2230.5,2647.5C 2221.97,2640.81 2213.31,2634.31 2204.5,2628C 2182.13,2605.89 2162.97,2581.06 2147,2553.5C 2074.78,2387.54 2002.11,2221.87 1929,2056.5C 1925.4,2047.45 1922.74,2038.12 1921,2028.5C 1919.41,2004.65 1922.91,1981.65 1931.5,1959.5 Z"/></g>
<g><path style="opacity:1" fill="#012a2d" d="M 1937.5,1973.5 C 1940.11,1979.06 1942.45,1984.73 1944.5,1990.5C 1939.79,2011.03 1940.96,2031.36 1948,2051.5C 2020.79,2218.38 2093.96,2384.72 2167.5,2550.5C 2180.41,2569.9 2195.25,2587.57 2212,2603.5C 2212.46,2602.91 2212.63,2602.24 2212.5,2601.5C 2216.73,2609.51 2220.4,2617.84 2223.5,2626.5C 2223.63,2627.24 2223.46,2627.91 2223,2628.5C 2221.79,2627.93 2220.63,2627.26 2219.5,2626.5C 2193.82,2604.86 2172.32,2579.53 2155,2550.5C 2123.6,2479.62 2092.6,2408.62 2062,2337.5C 2019.65,2242.48 1977.65,2147.15 1936,2051.5C 1933.92,2045.27 1932.26,2038.94 1931,2032.5C 1927.52,2012.08 1929.68,1992.42 1937.5,1973.5 Z"/></g>
<g><path style="opacity:1" fill="#012729" d="M 1944.5,1990.5 C 1948.01,1996.86 1951.01,2003.53 1953.5,2010.5C 1953.01,2026.24 1955.85,2041.58 1962,2056.5C 2012.86,2172.33 2063.86,2288 2115,2403.5C 2135,2449.49 2155,2495.49 2175,2541.5C 2181.76,2552.02 2189.26,2562.02 2197.5,2571.5C 2198.3,2571.04 2198.63,2570.38 2198.5,2569.5C 2203.68,2579.86 2208.34,2590.53 2212.5,2601.5C 2212.63,2602.24 2212.46,2602.91 2212,2603.5C 2195.25,2587.57 2180.41,2569.9 2167.5,2550.5C 2093.96,2384.72 2020.79,2218.38 1948,2051.5C 1940.96,2031.36 1939.79,2011.03 1944.5,1990.5 Z"/></g>
<g><path style="opacity:1" fill="#022427" d="M 1953.5,2010.5 C 1958.83,2021.83 1964.17,2033.17 1969.5,2044.5C 1975.22,2058.94 1981.22,2073.28 1987.5,2087.5C 2003.36,2123.08 2019.03,2158.75 2034.5,2194.5C 2040.64,2208.92 2046.97,2223.25 2053.5,2237.5C 2068.89,2273.28 2084.56,2308.95 2100.5,2344.5C 2106.5,2358.5 2112.5,2372.5 2118.5,2386.5C 2128.03,2407.75 2137.36,2429.08 2146.5,2450.5C 2159.17,2479.17 2171.83,2507.83 2184.5,2536.5C 2189.44,2547.38 2194.11,2558.38 2198.5,2569.5C 2198.63,2570.38 2198.3,2571.04 2197.5,2571.5C 2189.26,2562.02 2181.76,2552.02 2175,2541.5C 2155,2495.49 2135,2449.49 2115,2403.5C 2063.86,2288 2012.86,2172.33 1962,2056.5C 1955.85,2041.58 1953.01,2026.24 1953.5,2010.5 Z"/></g>
<g><path style="opacity:1" fill="#9b968e" d="M 1969.5,2044.5 C 2145.3,2214.46 2320.96,2384.63 2496.5,2555C 2500.73,2558.74 2505.06,2562.24 2509.5,2565.5C 2503.79,2568.68 2497.79,2571.35 2491.5,2573.5C 2329.73,2417.9 2168.4,2261.73 2007.5,2105C 2000.94,2098.94 1994.28,2093.1 1987.5,2087.5C 1981.22,2073.28 1975.22,2058.94 1969.5,2044.5 Z"/></g>
<g><path style="opacity:1" fill="#97938c" d="M 1987.5,2087.5 C 1994.28,2093.1 2000.94,2098.94 2007.5,2105C 2168.4,2261.73 2329.73,2417.9 2491.5,2573.5C 2477.15,2580.73 2462.48,2587.4 2447.5,2593.5C 2317.37,2466.87 2187.03,2340.37 2056.5,2214C 2049.28,2207.27 2041.94,2200.77 2034.5,2194.5C 2019.03,2158.75 2003.36,2123.08 1987.5,2087.5 Z"/></g>
<g><path style="opacity:1" fill="#94908a" d="M 2034.5,2194.5 C 2041.94,2200.77 2049.28,2207.27 2056.5,2214C 2187.03,2340.37 2317.37,2466.87 2447.5,2593.5C 2442.25,2596.92 2436.59,2599.59 2430.5,2601.5C 2312.06,2486.9 2193.73,2372.06 2075.5,2257C 2068.28,2250.27 2060.94,2243.77 2053.5,2237.5C 2046.97,2223.25 2040.64,2208.92 2034.5,2194.5 Z"/></g>
<g><path style="opacity:1" fill="#918d88" d="M 2053.5,2237.5 C 2060.94,2243.77 2068.28,2250.27 2075.5,2257C 2193.73,2372.06 2312.06,2486.9 2430.5,2601.5C 2416.81,2608.34 2402.81,2614.68 2388.5,2620.5C 2385.06,2618.24 2381.73,2615.74 2378.5,2613C 2293.83,2530.67 2209.17,2448.33 2124.5,2366C 2116.61,2358.6 2108.61,2351.44 2100.5,2344.5C 2084.56,2308.95 2068.89,2273.28 2053.5,2237.5 Z"/></g>
<g><path style="opacity:1" fill="#8e8a85" d="M 2100.5,2344.5 C 2108.61,2351.44 2116.61,2358.6 2124.5,2366C 2209.17,2448.33 2293.83,2530.67 2378.5,2613C 2381.73,2615.74 2385.06,2618.24 2388.5,2620.5C 2382.79,2623.68 2376.79,2626.35 2370.5,2628.5C 2294.4,2555.9 2218.73,2482.73 2143.5,2409C 2135.28,2401.27 2126.94,2393.77 2118.5,2386.5C 2112.5,2372.5 2106.5,2358.5 2100.5,2344.5 Z"/></g>
<g><path style="opacity:1" fill="#021819" d="M 2952.5,2382.5 C 2957.71,2392.93 2962.38,2403.59 2966.5,2414.5C 2948.51,2402.83 2929.18,2393.83 2908.5,2387.5C 2908.5,2386.5 2908.5,2385.5 2908.5,2384.5C 2911.33,2383.34 2913.99,2382.01 2916.5,2380.5C 2924.81,2377.34 2932.81,2373.68 2940.5,2369.5C 2942.26,2369.12 2943.92,2368.46 2945.5,2367.5C 2948.1,2372.38 2950.44,2377.38 2952.5,2382.5 Z"/></g>
<g><path style="opacity:1" fill="#c9c0ae" d="M 2952.5,2382.5 C 2958.27,2387.1 2963.94,2391.93 2969.5,2397C 3416.17,2830 3862.83,3263 4309.5,3696C 4313.47,3698.96 4317.13,3702.3 4320.5,3706C 4321.45,3706.48 4322.45,3706.65 4323.5,3706.5C 4316.38,3712.9 4308.71,3718.56 4300.5,3723.5C 3866.04,3302.87 3431.7,2882.04 2997.5,2461C 2992.61,2456.6 2987.61,2452.43 2982.5,2448.5C 2977.34,2437.01 2972.01,2425.67 2966.5,2414.5C 2962.38,2403.59 2957.71,2392.93 2952.5,2382.5 Z"/></g>
<g><path style="opacity:1" fill="#8b8784" d="M 2118.5,2386.5 C 2126.94,2393.77 2135.28,2401.27 2143.5,2409C 2218.73,2482.73 2294.4,2555.9 2370.5,2628.5C 2362.14,2633.01 2353.48,2637.01 2344.5,2640.5C 2279.04,2577.54 2213.7,2514.37 2148.5,2451C 2147.91,2450.54 2147.24,2450.37 2146.5,2450.5C 2137.36,2429.08 2128.03,2407.75 2118.5,2386.5 Z"/></g>
<g><path style="opacity:1" fill="#011c1e" d="M 2908.5,2387.5 C 2929.18,2393.83 2948.51,2402.83 2966.5,2414.5C 2972.01,2425.67 2977.34,2437.01 2982.5,2448.5C 2986.17,2457.16 2989.83,2465.83 2993.5,2474.5C 2993.44,2475.04 2993.11,2475.38 2992.5,2475.5C 2969.36,2449.43 2941.36,2429.77 2908.5,2416.5C 2908.5,2406.83 2908.5,2397.17 2908.5,2387.5 Z"/></g>
<g><path style="opacity:1" fill="#022427" d="M 2907.5,2385.5 C 2907.5,2403.17 2907.5,2420.83 2907.5,2438.5C 2881.46,2425.85 2854.46,2423.68 2826.5,2432C 2674.85,2500.98 2523.18,2569.98 2371.5,2639C 2358.84,2644.3 2345.84,2646.8 2332.5,2646.5C 2336.66,2644.68 2340.66,2642.68 2344.5,2640.5C 2353.48,2637.01 2362.14,2633.01 2370.5,2628.5C 2376.79,2626.35 2382.79,2623.68 2388.5,2620.5C 2402.81,2614.68 2416.81,2608.34 2430.5,2601.5C 2436.59,2599.59 2442.25,2596.92 2447.5,2593.5C 2462.48,2587.4 2477.15,2580.73 2491.5,2573.5C 2497.79,2571.35 2503.79,2568.68 2509.5,2565.5C 2526.69,2558.07 2543.69,2550.4 2560.5,2542.5C 2569.48,2539.01 2578.14,2535.01 2586.5,2530.5C 2598.58,2525.92 2610.25,2520.59 2621.5,2514.5C 2641.81,2506.01 2661.81,2497.01 2681.5,2487.5C 2702.08,2478.54 2722.41,2469.2 2742.5,2459.5C 2748.8,2457.34 2754.8,2454.68 2760.5,2451.5C 2774.5,2445.73 2788.17,2439.4 2801.5,2432.5C 2807.79,2430.35 2813.79,2427.68 2819.5,2424.5C 2828.48,2421.01 2837.14,2417.01 2845.5,2412.5C 2857.79,2407.68 2869.79,2402.35 2881.5,2396.5C 2890.17,2392.83 2898.83,2389.17 2907.5,2385.5 Z"/></g>
<g><path style="opacity:1" fill="#012729" d="M 2907.5,2438.5 C 2907.5,2442.5 2907.5,2446.5 2907.5,2450.5C 2897.46,2445.54 2886.8,2442.04 2875.5,2440C 2865.17,2439.33 2854.83,2439.33 2844.5,2440C 2838.59,2441.64 2832.59,2442.98 2826.5,2444C 2673.1,2513.71 2519.76,2583.37 2366.5,2653C 2349.52,2658.51 2332.18,2659.84 2314.5,2657C 2313.94,2656.62 2313.61,2656.12 2313.5,2655.5C 2319.65,2652.26 2325.98,2649.26 2332.5,2646.5C 2345.84,2646.8 2358.84,2644.3 2371.5,2639C 2523.18,2569.98 2674.85,2500.98 2826.5,2432C 2854.46,2423.68 2881.46,2425.85 2907.5,2438.5 Z"/></g>
<g><path style="opacity:1" fill="#012427" d="M 2908.5,2416.5 C 2941.36,2429.77 2969.36,2449.43 2992.5,2475.5C 2993.11,2475.38 2993.44,2475.04 2993.5,2474.5C 3003.07,2494.65 3012.41,2514.98 3021.5,2535.5C 3031.5,2557.5 3041.5,2579.5 3051.5,2601.5C 3054.31,2608.58 3057.31,2615.58 3060.5,2622.5C 3070.5,2644.5 3080.5,2666.5 3090.5,2688.5C 3097.17,2703.17 3103.83,2717.83 3110.5,2732.5C 3126.56,2768.96 3142.89,2805.29 3159.5,2841.5C 3165.64,2855.92 3171.97,2870.25 3178.5,2884.5C 3201.69,2935.42 3224.69,2986.42 3247.5,3037.5C 3270.31,3088.58 3293.31,3139.58 3316.5,3190.5C 3329.31,3219.58 3342.31,3248.58 3355.5,3277.5C 3360.71,3287.93 3365.38,3298.59 3369.5,3309.5C 3369.34,3311.2 3369.51,3312.87 3370,3314.5C 3417.41,3420.32 3465.08,3525.98 3513,3631.5C 3516.47,3640.9 3520.13,3650.23 3524,3659.5C 3579.99,3783.48 3636.49,3907.15 3693.5,4030.5C 3692.29,4031.23 3690.96,4031.57 3689.5,4031.5C 3687.28,4031.82 3685.44,4031.16 3684,4029.5C 3666.93,3991.3 3649.26,3953.3 3631,3915.5C 3619.08,3887.52 3606.42,3859.85 3593,3832.5C 3526.96,3682.7 3459.96,3533.37 3392,3384.5C 3287.61,3151.38 3182.94,2918.38 3078,2685.5C 3077.51,2684.21 3077.34,2682.87 3077.5,2681.5C 3076.5,2681.5 3075.5,2681.5 3074.5,2681.5C 3073.16,2676.3 3071.32,2671.3 3069,2666.5C 3047.44,2620.17 3026.44,2573.5 3006,2526.5C 3001.82,2519.63 2997.82,2512.63 2994,2505.5C 2970.12,2477.63 2941.62,2455.63 2908.5,2439.5C 2908.5,2431.83 2908.5,2424.17 2908.5,2416.5 Z"/></g>
<g><path style="opacity:1" fill="#012a2d" d="M 2907.5,2450.5 C 2907.5,2454.5 2907.5,2458.5 2907.5,2462.5C 2902.09,2460.63 2896.75,2458.46 2891.5,2456C 2870.47,2450.02 2849.47,2450.02 2828.5,2456C 2723.64,2502.39 2619.31,2549.72 2515.5,2598C 2465.8,2620.34 2416.13,2642.67 2366.5,2665C 2342.52,2672.7 2318.85,2672.2 2295.5,2663.5C 2300.23,2661.13 2304.9,2658.8 2309.5,2656.5C 2310.83,2656.17 2312.17,2655.83 2313.5,2655.5C 2313.61,2656.12 2313.94,2656.62 2314.5,2657C 2332.18,2659.84 2349.52,2658.51 2366.5,2653C 2519.76,2583.37 2673.1,2513.71 2826.5,2444C 2832.59,2442.98 2838.59,2441.64 2844.5,2440C 2854.83,2439.33 2865.17,2439.33 2875.5,2440C 2886.8,2442.04 2897.46,2445.54 2907.5,2450.5 Z"/></g>
<g><path style="opacity:1" fill="#012729" d="M 2908.5,2439.5 C 2941.62,2455.63 2970.12,2477.63 2994,2505.5C 2997.82,2512.63 3001.82,2519.63 3006,2526.5C 3026.44,2573.5 3047.44,2620.17 3069,2666.5C 3071.32,2671.3 3073.16,2676.3 3074.5,2681.5C 3075.5,2681.5 3076.5,2681.5 3077.5,2681.5C 3077.34,2682.87 3077.51,2684.21 3078,2685.5C 3182.94,2918.38 3287.61,3151.38 3392,3384.5C 3459.96,3533.37 3526.96,3682.7 3593,3832.5C 3606.42,3859.85 3619.08,3887.52 3631,3915.5C 3649.26,3953.3 3666.93,3991.3 3684,4029.5C 3685.44,4031.16 3687.28,4031.82 3689.5,4031.5C 3685.5,4033.59 3681.17,4034.92 3676.5,4035.5C 3675.62,4035.63 3674.96,4035.3 3674.5,4034.5C 3606.78,3889.05 3540.62,3742.72 3476,3595.5C 3439.77,3516.52 3404.11,3437.19 3369,3357.5C 3276.17,3152.7 3183.5,2947.7 3091,2742.5C 3089.45,2735.84 3087.11,2729.5 3084,2723.5C 3079.78,2714.61 3075.11,2705.94 3070,2697.5C 3043.71,2635.92 3016.04,2574.92 2987,2514.5C 2968.94,2492.44 2947.77,2473.94 2923.5,2459C 2918.42,2456.46 2913.42,2453.96 2908.5,2451.5C 2908.5,2447.5 2908.5,2443.5 2908.5,2439.5 Z"/></g>
<g><path style="opacity:1" fill="#c5bdac" d="M 2982.5,2448.5 C 2987.61,2452.43 2992.61,2456.6 2997.5,2461C 3431.7,2882.04 3866.04,3302.87 4300.5,3723.5C 4291.37,3731.23 4281.71,3738.23 4271.5,3744.5C 3860.04,3346.2 3448.7,2947.7 3037.5,2549C 3032.27,2544.27 3026.94,2539.77 3021.5,2535.5C 3012.41,2514.98 3003.07,2494.65 2993.5,2474.5C 2989.83,2465.83 2986.17,2457.16 2982.5,2448.5 Z"/></g>
<g><path style="opacity:1" fill="#012c30" d="M 2907.5,2462.5 C 2907.5,2465.5 2907.5,2468.5 2907.5,2471.5C 2882.81,2459.42 2857.14,2456.92 2830.5,2464C 2825.9,2465.87 2821.23,2467.53 2816.5,2469C 2666.55,2537.53 2516.55,2605.87 2366.5,2674C 2355.6,2677.46 2344.44,2679.63 2333,2680.5C 2317.17,2679.05 2301.67,2676.22 2286.5,2672C 2285.14,2671.07 2283.81,2670.23 2282.5,2669.5C 2286.64,2667.26 2290.98,2665.26 2295.5,2663.5C 2318.85,2672.2 2342.52,2672.7 2366.5,2665C 2416.13,2642.67 2465.8,2620.34 2515.5,2598C 2619.31,2549.72 2723.64,2502.39 2828.5,2456C 2849.47,2450.02 2870.47,2450.02 2891.5,2456C 2896.75,2458.46 2902.09,2460.63 2907.5,2462.5 Z"/></g>
<g><path style="opacity:1" fill="#01292d" d="M 2908.5,2451.5 C 2913.42,2453.96 2918.42,2456.46 2923.5,2459C 2947.77,2473.94 2968.94,2492.44 2987,2514.5C 3016.04,2574.92 3043.71,2635.92 3070,2697.5C 3075.11,2705.94 3079.78,2714.61 3084,2723.5C 3087.11,2729.5 3089.45,2735.84 3091,2742.5C 3183.5,2947.7 3276.17,3152.7 3369,3357.5C 3404.11,3437.19 3439.77,3516.52 3476,3595.5C 3540.62,3742.72 3606.78,3889.05 3674.5,4034.5C 3674.96,4035.3 3675.62,4035.63 3676.5,4035.5C 3674.49,4036.92 3672.15,4037.59 3669.5,4037.5C 3667.74,4037.36 3666.07,4037.69 3664.5,4038.5C 3588.38,3875.27 3514.21,3711.27 3442,3546.5C 3319.81,3276.95 3198.31,3007.12 3077.5,2737C 3074.83,2733.8 3072.66,2730.3 3071,2726.5C 3050.56,2679.5 3029.56,2632.83 3008,2586.5C 2998.37,2561.59 2987.04,2537.59 2974,2514.5C 2961.41,2500.57 2947.58,2488.07 2932.5,2477C 2927.98,2475.15 2923.98,2472.48 2920.5,2469C 2916.29,2467.39 2912.29,2465.56 2908.5,2463.5C 2908.5,2459.5 2908.5,2455.5 2908.5,2451.5 Z"/></g>
<g><path style="opacity:1" fill="#012f33" d="M 2907.5,2471.5 C 2907.5,2475.83 2907.5,2480.17 2907.5,2484.5C 2902.35,2482.06 2897.01,2479.89 2891.5,2478C 2869.81,2470.67 2848.14,2470.67 2826.5,2478C 2679.02,2545.47 2531.36,2612.81 2383.5,2680C 2375.71,2683.56 2367.71,2686.56 2359.5,2689C 2347.35,2692.15 2335.01,2693.15 2322.5,2692C 2301.92,2689.58 2281.59,2685.58 2261.5,2680C 2262.06,2679.62 2262.39,2679.12 2262.5,2678.5C 2268.99,2675.11 2275.66,2672.11 2282.5,2669.5C 2283.81,2670.23 2285.14,2671.07 2286.5,2672C 2301.67,2676.22 2317.17,2679.05 2333,2680.5C 2344.44,2679.63 2355.6,2677.46 2366.5,2674C 2516.55,2605.87 2666.55,2537.53 2816.5,2469C 2821.23,2467.53 2825.9,2465.87 2830.5,2464C 2857.14,2456.92 2882.81,2459.42 2907.5,2471.5 Z"/></g>
<g><path style="opacity:1" fill="#012c2f" d="M 2908.5,2463.5 C 2912.29,2465.56 2916.29,2467.39 2920.5,2469C 2923.98,2472.48 2927.98,2475.15 2932.5,2477C 2947.58,2488.07 2961.41,2500.57 2974,2514.5C 2987.04,2537.59 2998.37,2561.59 3008,2586.5C 3029.56,2632.83 3050.56,2679.5 3071,2726.5C 3072.66,2730.3 3074.83,2733.8 3077.5,2737C 3198.31,3007.12 3319.81,3276.95 3442,3546.5C 3514.21,3711.27 3588.38,3875.27 3664.5,4038.5C 3666.07,4037.69 3667.74,4037.36 3669.5,4037.5C 3667.32,4038.68 3664.99,4039.68 3662.5,4040.5C 3660.98,4039.27 3659.32,4039.27 3657.5,4040.5C 3632.68,3990.53 3609.18,3939.86 3587,3888.5C 3537.3,3781.73 3488.97,3674.4 3442,3566.5C 3320.31,3297.12 3198.81,3027.62 3077.5,2758C 3076.46,2756.73 3075.3,2755.56 3074,2754.5C 3061.71,2723.94 3048.38,2693.94 3034,2664.5C 3014.33,2619.33 2994.16,2574.33 2973.5,2529.5C 2968.49,2521.49 2962.99,2513.82 2957,2506.5C 2946.45,2497.62 2935.62,2489.12 2924.5,2481C 2919.51,2477.51 2914.18,2474.67 2908.5,2472.5C 2908.5,2469.5 2908.5,2466.5 2908.5,2463.5 Z"/></g>
<g><path style="opacity:1" fill="#012f33" d="M 2908.5,2472.5 C 2914.18,2474.67 2919.51,2477.51 2924.5,2481C 2935.62,2489.12 2946.45,2497.62 2957,2506.5C 2962.99,2513.82 2968.49,2521.49 2973.5,2529.5C 2994.16,2574.33 3014.33,2619.33 3034,2664.5C 3048.38,2693.94 3061.71,2723.94 3074,2754.5C 3075.3,2755.56 3076.46,2756.73 3077.5,2758C 3198.81,3027.62 3320.31,3297.12 3442,3566.5C 3488.97,3674.4 3537.3,3781.73 3587,3888.5C 3609.18,3939.86 3632.68,3990.53 3657.5,4040.5C 3659.32,4039.27 3660.98,4039.27 3662.5,4040.5C 3657.73,4041.53 3653.06,4042.86 3648.5,4044.5C 3647.43,4043.57 3646.1,4043.23 3644.5,4043.5C 3583,3910.51 3522.17,3777.18 3462,3643.5C 3455.33,3627.5 3448.67,3611.5 3442,3595.5C 3321.18,3328.52 3200.85,3061.18 3081,2793.5C 3079.21,2789.78 3076.87,2786.44 3074,2783.5C 3067.99,2768.82 3061.99,2754.15 3056,2739.5C 3026.23,2675.51 2997.23,2611.18 2969,2546.5C 2961.79,2531.31 2952.29,2517.81 2940.5,2506C 2934.65,2501.91 2928.99,2497.58 2923.5,2493C 2918.68,2490.01 2913.68,2487.51 2908.5,2485.5C 2908.5,2481.17 2908.5,2476.83 2908.5,2472.5 Z"/></g>
<g><path style="opacity:1" fill="#013336" d="M 2908.5,2485.5 C 2913.68,2487.51 2918.68,2490.01 2923.5,2493C 2928.99,2497.58 2934.65,2501.91 2940.5,2506C 2952.29,2517.81 2961.79,2531.31 2969,2546.5C 2997.23,2611.18 3026.23,2675.51 3056,2739.5C 3061.99,2754.15 3067.99,2768.82 3074,2783.5C 3076.87,2786.44 3079.21,2789.78 3081,2793.5C 3200.85,3061.18 3321.18,3328.52 3442,3595.5C 3448.67,3611.5 3455.33,3627.5 3462,3643.5C 3522.17,3777.18 3583,3910.51 3644.5,4043.5C 3646.1,4043.23 3647.43,4043.57 3648.5,4044.5C 3645.21,4045.37 3641.88,4046.04 3638.5,4046.5C 3636.83,4046.5 3635.17,4046.5 3633.5,4046.5C 3619.68,4014.87 3605.18,3983.54 3590,3952.5C 3567.24,3901.21 3543.91,3850.21 3520,3799.5C 3518.8,3796.23 3517.8,3792.89 3517,3789.5C 3496.59,3746.23 3476.59,3702.9 3457,3659.5C 3451.76,3648.11 3447.09,3636.44 3443,3624.5C 3320.68,3354.39 3198.85,3084.05 3077.5,2813.5C 3076.15,2812.31 3074.98,2810.98 3074,2809.5C 3035.26,2721.7 2996.26,2634.03 2957,2546.5C 2954.63,2541.23 2951.8,2536.23 2948.5,2531.5C 2944.74,2527.49 2941.24,2523.16 2938,2518.5C 2929.57,2509.38 2919.74,2502.38 2908.5,2497.5C 2908.5,2493.5 2908.5,2489.5 2908.5,2485.5 Z"/></g>
<g><path style="opacity:1" fill="#888481" d="M 2146.5,2450.5 C 2147.24,2450.37 2147.91,2450.54 2148.5,2451C 2213.7,2514.37 2279.04,2577.54 2344.5,2640.5C 2340.66,2642.68 2336.66,2644.68 2332.5,2646.5C 2325.98,2649.26 2319.65,2652.26 2313.5,2655.5C 2312.17,2655.83 2310.83,2656.17 2309.5,2656.5C 2268.45,2615.78 2226.78,2575.78 2184.5,2536.5C 2171.83,2507.83 2159.17,2479.17 2146.5,2450.5 Z"/></g>
<g><path style="opacity:1" fill="#01363a" d="M 2908.5,2497.5 C 2919.74,2502.38 2929.57,2509.38 2938,2518.5C 2941.24,2523.16 2944.74,2527.49 2948.5,2531.5C 2951.8,2536.23 2954.63,2541.23 2957,2546.5C 2996.26,2634.03 3035.26,2721.7 3074,2809.5C 3074.98,2810.98 3076.15,2812.31 3077.5,2813.5C 3198.85,3084.05 3320.68,3354.39 3443,3624.5C 3447.09,3636.44 3451.76,3648.11 3457,3659.5C 3476.59,3702.9 3496.59,3746.23 3517,3789.5C 3517.8,3792.89 3518.8,3796.23 3520,3799.5C 3543.91,3850.21 3567.24,3901.21 3590,3952.5C 3605.18,3983.54 3619.68,4014.87 3633.5,4046.5C 3635.17,4046.5 3636.83,4046.5 3638.5,4046.5C 3633.36,4048.46 3628.03,4050.12 3622.5,4051.5C 3621.79,4050.6 3620.79,4050.26 3619.5,4050.5C 3526.22,3847.51 3434.39,3643.84 3344,3439.5C 3317.05,3382.32 3291.05,3324.65 3266,3266.5C 3203.5,3129.83 3141.83,2992.83 3081,2855.5C 3070.93,2838.73 3062.6,2821.07 3056,2802.5C 3048.33,2786.5 3040.67,2770.5 3033,2754.5C 3029.37,2745.97 3026.03,2737.3 3023,2728.5C 2995.71,2667.59 2968.21,2606.93 2940.5,2546.5C 2934.53,2537.17 2927.53,2528.67 2919.5,2521C 2915.85,2518.51 2912.18,2516.01 2908.5,2513.5C 2908.5,2508.17 2908.5,2502.83 2908.5,2497.5 Z"/></g>
<g><path style="opacity:1" fill="#ffffff" d="M 2908.5,2513.5 C 2912.18,2516.01 2915.85,2518.51 2919.5,2521C 2927.53,2528.67 2934.53,2537.17 2940.5,2546.5C 2968.21,2606.93 2995.71,2667.59 3023,2728.5C 3026.03,2737.3 3029.37,2745.97 3033,2754.5C 3040.67,2770.5 3048.33,2786.5 3056,2802.5C 3062.6,2821.07 3070.93,2838.73 3081,2855.5C 3141.83,2992.83 3203.5,3129.83 3266,3266.5C 3291.05,3324.65 3317.05,3382.32 3344,3439.5C 3434.39,3643.84 3526.22,3847.51 3619.5,4050.5C 3620.79,4050.26 3621.79,4050.6 3622.5,4051.5C 3620.56,4052.15 3618.56,4052.48 3616.5,4052.5C 3615.13,4052.66 3613.79,4052.49 3612.5,4052C 3565.53,3952.89 3520.03,3853.05 3476,3752.5C 3458.23,3715.15 3440.89,3677.48 3424,3639.5C 3412.81,3611.23 3400.47,3583.57 3387,3556.5C 3284.5,3326.49 3181.33,3096.82 3077.5,2867.5C 3076.68,2866.61 3075.68,2866.28 3074.5,2866.5C 3074.48,2864.07 3073.98,2861.74 3073,2859.5C 3067.84,2848.71 3062.67,2837.87 3057.5,2827C 3017.42,2736 2976.92,2645.17 2936,2554.5C 2929.5,2541.51 2920.34,2530.84 2908.5,2522.5C 2908.5,2519.5 2908.5,2516.5 2908.5,2513.5 Z"/></g>
<g><path style="opacity:1" fill="#ffffff" d="M 2908.5,2522.5 C 2920.34,2530.84 2929.5,2541.51 2936,2554.5C 2976.92,2645.17 3017.42,2736 3057.5,2827C 3062.67,2837.87 3067.84,2848.71 3073,2859.5C 3073.98,2861.74 3074.48,2864.07 3074.5,2866.5C 3075.68,2866.28 3076.68,2866.61 3077.5,2867.5C 3181.33,3096.82 3284.5,3326.49 3387,3556.5C 3400.47,3583.57 3412.81,3611.23 3424,3639.5C 3440.89,3677.48 3458.23,3715.15 3476,3752.5C 3520.03,3853.05 3565.53,3952.89 3612.5,4052C 3613.79,4052.49 3615.13,4052.66 3616.5,4052.5C 3608.69,4055.12 3600.69,4057.46 3592.5,4059.5C 3517.52,3897.73 3444.19,3735.23 3372.5,3572C 3323.74,3465.72 3275.74,3359.05 3228.5,3252C 3177.3,3140.59 3126.97,3028.76 3077.5,2916.5C 3076.5,2916.5 3075.5,2916.5 3074.5,2916.5C 3074.16,2914.15 3073.66,2911.81 3073,2909.5C 3047.22,2853.59 3021.72,2797.59 2996.5,2741.5C 2995.82,2738.46 2994.99,2735.46 2994,2732.5C 2971.74,2684.66 2950.08,2636.66 2929,2588.5C 2924.6,2578.98 2920.1,2569.48 2915.5,2560C 2913.65,2556.34 2911.32,2553.17 2908.5,2550.5C 2908.5,2541.17 2908.5,2531.83 2908.5,2522.5 Z"/></g>
<g><path style="opacity:1" fill="#c2baaa" d="M 3021.5,2535.5 C 3026.94,2539.77 3032.27,2544.27 3037.5,2549C 3448.7,2947.7 3860.04,3346.2 4271.5,3744.5C 4264.8,3749.86 4257.8,3754.86 4250.5,3759.5C 4249.08,3759.29 4247.74,3758.79 4246.5,3758C 3853.17,3376.67 3459.83,2995.33 3066.5,2614C 3061.61,2609.6 3056.61,2605.43 3051.5,2601.5C 3041.5,2579.5 3031.5,2557.5 3021.5,2535.5 Z"/></g>
<g><path style="opacity:1" fill="#84807e" d="M 2184.5,2536.5 C 2226.78,2575.78 2268.45,2615.78 2309.5,2656.5C 2304.9,2658.8 2300.23,2661.13 2295.5,2663.5C 2290.98,2665.26 2286.64,2667.26 2282.5,2669.5C 2275.66,2672.11 2268.99,2675.11 2262.5,2678.5C 2258.52,2680.16 2254.52,2681.82 2250.5,2683.5C 2249.83,2683.17 2249.17,2682.83 2248.5,2682.5C 2247.2,2678.89 2245.53,2675.55 2243.5,2672.5C 2240.63,2663.76 2236.96,2655.42 2232.5,2647.5C 2230.07,2640.19 2227.07,2633.19 2223.5,2626.5C 2220.4,2617.84 2216.73,2609.51 2212.5,2601.5C 2208.34,2590.53 2203.68,2579.86 2198.5,2569.5C 2194.11,2558.38 2189.44,2547.38 2184.5,2536.5 Z"/></g>
<g><path style="opacity:1" fill="#ffffff" d="M 2908.5,2550.5 C 2911.32,2553.17 2913.65,2556.34 2915.5,2560C 2920.1,2569.48 2924.6,2578.98 2929,2588.5C 2950.08,2636.66 2971.74,2684.66 2994,2732.5C 2994.99,2735.46 2995.82,2738.46 2996.5,2741.5C 3021.72,2797.59 3047.22,2853.59 3073,2909.5C 3073.66,2911.81 3074.16,2914.15 3074.5,2916.5C 3075.5,2916.5 3076.5,2916.5 3077.5,2916.5C 3126.97,3028.76 3177.3,3140.59 3228.5,3252C 3275.74,3359.05 3323.74,3465.72 3372.5,3572C 3444.19,3735.23 3517.52,3897.73 3592.5,4059.5C 3589.54,4060.32 3586.54,4060.99 3583.5,4061.5C 3582.58,4056.98 3581.08,4052.65 3579,4048.5C 3569.77,4030.93 3561.44,4012.93 3554,3994.5C 3533.47,3951.71 3513.47,3908.71 3494,3865.5C 3480.99,3834.83 3467.32,3804.5 3453,3774.5C 3416.57,3691.91 3380.07,3609.41 3343.5,3527C 3336.31,3511.54 3328.98,3496.21 3321.5,3481C 3315.17,3466 3308.83,3451 3302.5,3436C 3226.83,3269.82 3151.83,3103.32 3077.5,2936.5C 3076.5,2936.5 3075.5,2936.5 3074.5,2936.5C 3074.48,2934.07 3073.98,2931.74 3073,2929.5C 3067.83,2918.67 3062.67,2907.83 3057.5,2897C 3056.83,2894.67 3056.17,2892.33 3055.5,2890C 3048.17,2874.67 3040.83,2859.33 3033.5,2844C 2992.67,2750.71 2951.17,2657.88 2909,2565.5C 2908.5,2560.51 2908.33,2555.51 2908.5,2550.5 Z"/></g>
<g><path style="opacity:1" fill="#c0b8a8" d="M 3051.5,2601.5 C 3056.61,2605.43 3061.61,2609.6 3066.5,2614C 3459.83,2995.33 3853.17,3376.67 4246.5,3758C 4247.74,3758.79 4249.08,3759.29 4250.5,3759.5C 4248.47,3761.52 4246.14,3763.19 4243.5,3764.5C 4242.45,3764.65 4241.45,3764.48 4240.5,3764C 4235.47,3758.63 4230.13,3753.63 4224.5,3749C 3841.83,3378 3459.17,3007 3076.5,2636C 3071.27,2631.27 3065.94,2626.77 3060.5,2622.5C 3057.31,2615.58 3054.31,2608.58 3051.5,2601.5 Z"/></g>
<g><path style="opacity:1" fill="#beb6a7" d="M 3060.5,2622.5 C 3065.94,2626.77 3071.27,2631.27 3076.5,2636C 3459.17,3007 3841.83,3378 4224.5,3749C 4230.13,3753.63 4235.47,3758.63 4240.5,3764C 4241.45,3764.48 4242.45,3764.65 4243.5,3764.5C 4236.11,3769.89 4228.44,3774.89 4220.5,3779.5C 4219.45,3779.65 4218.45,3779.48 4217.5,3779C 4208.8,3769.97 4199.8,3761.3 4190.5,3753C 3829.03,3402.1 3467.36,3051.44 3105.5,2701C 3100.61,2696.6 3095.61,2692.43 3090.5,2688.5C 3080.5,2666.5 3070.5,2644.5 3060.5,2622.5 Z"/></g>
<g><path style="opacity:1" fill="#bcb4a5" d="M 3090.5,2688.5 C 3095.61,2692.43 3100.61,2696.6 3105.5,2701C 3467.36,3051.44 3829.03,3402.1 4190.5,3753C 4199.8,3761.3 4208.8,3769.97 4217.5,3779C 4218.45,3779.48 4219.45,3779.65 4220.5,3779.5C 4216.02,3783.57 4211.02,3786.91 4205.5,3789.5C 4204.45,3789.65 4203.45,3789.48 4202.5,3789C 4194.47,3780.64 4186.14,3772.64 4177.5,3765C 3826.83,3425 3476.17,3085 3125.5,2745C 3120.61,2740.6 3115.61,2736.43 3110.5,2732.5C 3103.83,2717.83 3097.17,2703.17 3090.5,2688.5 Z"/></g>
<g><path style="opacity:1" fill="#b8b1a3" d="M 3110.5,2732.5 C 3115.61,2736.43 3120.61,2740.6 3125.5,2745C 3476.17,3085 3826.83,3425 4177.5,3765C 4186.14,3772.64 4194.47,3780.64 4202.5,3789C 4203.45,3789.48 4204.45,3789.65 4205.5,3789.5C 4193.71,3798.23 4181.38,3806.23 4168.5,3813.5C 4166.35,3813.63 4164.35,3813.13 4162.5,3812C 3833.17,3492.67 3503.83,3173.33 3174.5,2854C 3169.61,2849.6 3164.61,2845.43 3159.5,2841.5C 3142.89,2805.29 3126.56,2768.96 3110.5,2732.5 Z"/></g>
<g><path style="opacity:1" fill="#b6aea1" d="M 3159.5,2841.5 C 3164.61,2845.43 3169.61,2849.6 3174.5,2854C 3503.83,3173.33 3833.17,3492.67 4162.5,3812C 4164.35,3813.13 4166.35,3813.63 4168.5,3813.5C 4163.34,3817.59 4157.67,3820.92 4151.5,3823.5C 4150.45,3823.65 4149.45,3823.48 4148.5,3823C 3829.86,3514.7 3511.53,3206.03 3193.5,2897C 3188.61,2892.6 3183.61,2888.43 3178.5,2884.5C 3171.97,2870.25 3165.64,2855.92 3159.5,2841.5 Z"/></g>
<g><path style="opacity:1" fill="#b1ab9e" d="M 3178.5,2884.5 C 3183.61,2888.43 3188.61,2892.6 3193.5,2897C 3511.53,3206.03 3829.86,3514.7 4148.5,3823C 4149.45,3823.48 4150.45,3823.65 4151.5,3823.5C 4134.17,3835.17 4116.17,3845.84 4097.5,3855.5C 4094.77,3855.74 4092.44,3854.9 4090.5,3853C 3814.5,3585.33 3538.5,3317.67 3262.5,3050C 3257.61,3045.6 3252.61,3041.43 3247.5,3037.5C 3224.69,2986.42 3201.69,2935.42 3178.5,2884.5 Z"/></g>
<g><path style="opacity:1" fill="#aba59a" d="M 3247.5,3037.5 C 3252.61,3041.43 3257.61,3045.6 3262.5,3050C 3538.5,3317.67 3814.5,3585.33 4090.5,3853C 4092.44,3854.9 4094.77,3855.74 4097.5,3855.5C 4078.32,3866.93 4058.65,3877.59 4038.5,3887.5C 3802.37,3659.2 3566.37,3430.7 3330.5,3202C 3325.94,3197.93 3321.27,3194.1 3316.5,3190.5C 3293.31,3139.58 3270.31,3088.58 3247.5,3037.5 Z"/></g>
<g><path style="opacity:1" fill="#a6a096" d="M 3316.5,3190.5 C 3321.27,3194.1 3325.94,3197.93 3330.5,3202C 3566.37,3430.7 3802.37,3659.2 4038.5,3887.5C 4027.98,3893.93 4016.98,3899.6 4005.5,3904.5C 3995.06,3895.23 3984.72,3885.73 3974.5,3876C 3772.83,3680.33 3571.17,3484.67 3369.5,3289C 3364.94,3284.93 3360.27,3281.1 3355.5,3277.5C 3342.31,3248.58 3329.31,3219.58 3316.5,3190.5 Z"/></g>
<g><path style="opacity:1" fill="#a29d94" d="M 3355.5,3277.5 C 3360.27,3281.1 3364.94,3284.93 3369.5,3289C 3571.17,3484.67 3772.83,3680.33 3974.5,3876C 3984.72,3885.73 3995.06,3895.23 4005.5,3904.5C 3997.82,3909.01 3989.82,3913.01 3981.5,3916.5C 3980.45,3916.65 3979.45,3916.48 3978.5,3916C 3976.46,3913.63 3974.13,3911.63 3971.5,3910C 3780.69,3724.44 3589.69,3539.1 3398.5,3354C 3394.27,3350.26 3389.94,3346.76 3385.5,3343.5C 3380.13,3332.1 3374.8,3320.77 3369.5,3309.5C 3365.38,3298.59 3360.71,3287.93 3355.5,3277.5 Z"/></g>
<g><path style="opacity:1" fill="#9f9991" d="M 3385.5,3343.5 C 3389.94,3346.76 3394.27,3350.26 3398.5,3354C 3589.69,3539.1 3780.69,3724.44 3971.5,3910C 3974.13,3911.63 3976.46,3913.63 3978.5,3916C 3979.45,3916.48 3980.45,3916.65 3981.5,3916.5C 3964.93,3925.28 3947.93,3933.28 3930.5,3940.5C 3929.13,3940.66 3927.79,3940.49 3926.5,3940C 3769.83,3788 3613.17,3636 3456.5,3484C 3452.61,3480.6 3448.61,3477.43 3444.5,3474.5C 3424.56,3430.96 3404.89,3387.29 3385.5,3343.5 Z"/></g>
<g><path style="opacity:1" fill="#9b968e" d="M 3444.5,3474.5 C 3448.61,3477.43 3452.61,3480.6 3456.5,3484C 3613.17,3636 3769.83,3788 3926.5,3940C 3927.79,3940.49 3929.13,3940.66 3930.5,3940.5C 3924.8,3943.68 3918.8,3946.34 3912.5,3948.5C 3911.45,3948.65 3910.45,3948.48 3909.5,3948C 3764.86,3808.36 3620.53,3668.36 3476.5,3528C 3472.27,3524.26 3467.94,3520.76 3463.5,3517.5C 3456.97,3503.25 3450.64,3488.92 3444.5,3474.5 Z"/></g>
<g><path style="opacity:1" fill="#97928c" d="M 3463.5,3517.5 C 3467.94,3520.76 3472.27,3524.26 3476.5,3528C 3620.53,3668.36 3764.86,3808.36 3909.5,3948C 3910.45,3948.48 3911.45,3948.65 3912.5,3948.5C 3897.9,3955.63 3882.9,3961.96 3867.5,3967.5C 3859.39,3960.56 3851.39,3953.4 3843.5,3946C 3738.03,3843.1 3632.36,3740.44 3526.5,3638C 3521.94,3633.93 3517.27,3630.1 3512.5,3626.5C 3496.44,3590.04 3480.11,3553.71 3463.5,3517.5 Z"/></g>
<g><path style="opacity:1" fill="#072729" d="M 3369.5,3309.5 C 3374.8,3320.77 3380.13,3332.1 3385.5,3343.5C 3404.89,3387.29 3424.56,3430.96 3444.5,3474.5C 3450.64,3488.92 3456.97,3503.25 3463.5,3517.5C 3480.11,3553.71 3496.44,3590.04 3512.5,3626.5C 3519.17,3641.17 3525.83,3655.83 3532.5,3670.5C 3549.03,3706.75 3565.36,3743.08 3581.5,3779.5C 3598.11,3815.71 3614.44,3852.05 3630.5,3888.5C 3652.52,3935.57 3674.52,3982.57 3696.5,4029.5C 3695.79,4030.4 3694.79,4030.74 3693.5,4030.5C 3636.49,3907.15 3579.99,3783.48 3524,3659.5C 3520.13,3650.23 3516.47,3640.9 3513,3631.5C 3465.08,3525.98 3417.41,3420.32 3370,3314.5C 3369.51,3312.87 3369.34,3311.2 3369.5,3309.5 Z"/></g>
<g><path style="opacity:1" fill="#94908a" d="M 3512.5,3626.5 C 3517.27,3630.1 3521.94,3633.93 3526.5,3638C 3632.36,3740.44 3738.03,3843.1 3843.5,3946C 3851.39,3953.4 3859.39,3960.56 3867.5,3967.5C 3862.14,3970.4 3856.47,3972.74 3850.5,3974.5C 3849.45,3974.65 3848.45,3974.48 3847.5,3974C 3746.2,3876.36 3645.2,3778.36 3544.5,3680C 3540.61,3676.6 3536.61,3673.43 3532.5,3670.5C 3525.83,3655.83 3519.17,3641.17 3512.5,3626.5 Z"/></g>
<g><path style="opacity:1" fill="#918c88" d="M 3532.5,3670.5 C 3536.61,3673.43 3540.61,3676.6 3544.5,3680C 3645.2,3778.36 3746.2,3876.36 3847.5,3974C 3848.45,3974.48 3849.45,3974.65 3850.5,3974.5C 3835.48,3981.07 3820.15,3987.07 3804.5,3992.5C 3797.39,3986.56 3790.39,3980.4 3783.5,3974C 3720.31,3912.9 3657.31,3851.56 3594.5,3790C 3590.27,3786.26 3585.94,3782.76 3581.5,3779.5C 3565.36,3743.08 3549.03,3706.75 3532.5,3670.5 Z"/></g>
<g><path style="opacity:1" fill="#8c8884" d="M 3581.5,3779.5 C 3585.94,3782.76 3590.27,3786.26 3594.5,3790C 3657.31,3851.56 3720.31,3912.9 3783.5,3974C 3790.39,3980.4 3797.39,3986.56 3804.5,3992.5C 3789.87,3998.6 3774.87,4003.94 3759.5,4008.5C 3758.13,4008.66 3756.79,4008.49 3755.5,4008C 3717.53,3971.7 3679.86,3935.03 3642.5,3898C 3638.61,3894.6 3634.61,3891.43 3630.5,3888.5C 3614.44,3852.05 3598.11,3815.71 3581.5,3779.5 Z"/></g>
<g><path style="opacity:1" fill="#878380" d="M 3630.5,3888.5 C 3634.61,3891.43 3638.61,3894.6 3642.5,3898C 3679.86,3935.03 3717.53,3971.7 3755.5,4008C 3756.79,4008.49 3758.13,4008.66 3759.5,4008.5C 3738.92,4016.47 3717.92,4023.47 3696.5,4029.5C 3674.52,3982.57 3652.52,3935.57 3630.5,3888.5 Z"/></g>
<g><path style="opacity:0.99" fill="#024348" d="M 2833.5,4771.5 C 2859.04,4768.22 2882.38,4773.72 2903.5,4788C 2920.46,4803.52 2928.46,4822.85 2927.5,4846C 2927.23,4880.25 2911.23,4903.58 2879.5,4916C 2857.06,4922.25 2834.73,4921.91 2812.5,4915C 2787.56,4904.73 2773.06,4886.23 2769,4859.5C 2763.66,4810.06 2785.16,4780.72 2833.5,4771.5 Z"/></g>
<g><path style="opacity:0.994" fill="#024348" d="M 5206.5,4788.5 C 5322.67,4787.36 5420.83,4828.36 5501,4911.5C 5521,4933.66 5538.16,4957.83 5552.5,4984C 5512.42,5006.12 5471.92,5027.62 5431,5048.5C 5400.71,4998.21 5358.21,4962.37 5303.5,4941C 5211.62,4910.71 5128.62,4926.38 5054.5,4988C 4984.01,5055.43 4960.84,5136.6 4985,5231.5C 5012.23,5311.07 5065.73,5364.23 5145.5,5391C 5244.24,5417.85 5329.07,5394.69 5400,5321.5C 5411.83,5307.18 5422.67,5292.18 5432.5,5276.5C 5472.59,5298.29 5512.75,5319.96 5553,5341.5C 5553.67,5342.5 5553.67,5343.5 5553,5344.5C 5500.16,5436.22 5422.66,5496.72 5320.5,5526C 5186.27,5558.43 5066.6,5530.43 4961.5,5442C 4857.04,5342.95 4818.54,5222.45 4846,5080.5C 4873.37,4973.18 4934.87,4892.01 5030.5,4837C 5085.38,4806.78 5144.05,4790.61 5206.5,4788.5 Z"/></g>
<g><path style="opacity:0.995" fill="#014348" d="M -0.5,4798.5 C 181.167,4798.5 362.833,4798.5 544.5,4798.5C 544.5,4841.5 544.5,4884.5 544.5,4927.5C 476.5,4927.5 408.5,4927.5 340.5,4927.5C 340.5,5126.83 340.5,5326.17 340.5,5525.5C 294.5,5525.5 248.5,5525.5 202.5,5525.5C 202.5,5326.17 202.5,5126.83 202.5,4927.5C 134.833,4927.5 67.1667,4927.5 -0.5,4927.5C -0.5,4884.5 -0.5,4841.5 -0.5,4798.5 Z"/></g>
<g><path style="opacity:0.994" fill="#024348" d="M 753.5,4992.5 C 850.574,4986.31 929.074,5020.98 989,5096.5C 1034.46,5161.7 1050.96,5233.7 1038.5,5312.5C 902.833,5312.5 767.167,5312.5 631.5,5312.5C 648.782,5374.28 688.782,5411.78 751.5,5425C 806.232,5434.73 855.232,5422.4 898.5,5388C 904.756,5381.97 910.423,5375.47 915.5,5368.5C 949.331,5387.91 982.997,5407.58 1016.5,5427.5C 976.238,5484.5 921.571,5519.67 852.5,5533C 792.915,5543.78 734.249,5540.11 676.5,5522C 570.267,5481.73 511.434,5404.9 500,5291.5C 492.399,5200.24 521.566,5123.07 587.5,5060C 635.418,5019.55 690.752,4997.05 753.5,4992.5 Z M 759.5,5105.5 C 796.05,5102.51 830.384,5109.68 862.5,5127C 893.65,5146.6 912.65,5174.6 919.5,5211C 822.501,5211.5 725.501,5211.67 628.5,5211.5C 630.234,5191.04 637.734,5173.04 651,5157.5C 680.514,5126.33 716.681,5108.99 759.5,5105.5 Z"/></g>
<g><path style="opacity:0.994" fill="#024348" d="M 1753.5,5540.5 C 1748.17,5540.5 1742.83,5540.5 1737.5,5540.5C 1673.95,5539.49 1617.62,5518.99 1568.5,5479C 1516.81,5430.45 1487.98,5370.62 1482,5299.5C 1475.12,5233.88 1487.46,5172.22 1519,5114.5C 1556.01,5053.38 1609.51,5014.88 1679.5,4999C 1768.52,4979.97 1848.02,4999.13 1918,5056.5C 1918.5,5039.5 1918.67,5022.5 1918.5,5005.5C 1962.5,5005.5 2006.5,5005.5 2050.5,5005.5C 2050.5,5178.83 2050.5,5352.17 2050.5,5525.5C 2006.5,5525.5 1962.5,5525.5 1918.5,5525.5C 1918.83,5509.15 1918.5,5492.82 1917.5,5476.5C 1870.03,5516.1 1815.36,5537.44 1753.5,5540.5 Z M 1753.5,5117.5 C 1816.18,5115.09 1864.68,5139.75 1899,5191.5C 1918.25,5228.79 1922.59,5267.79 1912,5308.5C 1894.65,5362.52 1858.48,5396.68 1803.5,5411C 1760.79,5420.7 1720.13,5415.37 1681.5,5395C 1630.17,5361.17 1607.01,5313.34 1612,5251.5C 1617.48,5196.67 1644.64,5156.83 1693.5,5132C 1712.8,5123.67 1732.8,5118.84 1753.5,5117.5 Z"/></g>
<g><path style="opacity:0.991" fill="#014348" d="M 2442.5,4992.5 C 2489.9,4990.02 2534.57,4999.85 2576.5,5022C 2631.91,5057.6 2662.74,5108.43 2669,5174.5C 2669.96,5183.81 2670.63,5193.14 2671,5202.5C 2671.5,5310.17 2671.67,5417.83 2671.5,5525.5C 2627.5,5525.5 2583.5,5525.5 2539.5,5525.5C 2539.67,5418.5 2539.5,5311.5 2539,5204.5C 2536.77,5155.27 2511.93,5124.1 2464.5,5111C 2424.29,5099.91 2388.29,5107.57 2356.5,5134C 2338.14,5152.69 2327.64,5175.19 2325,5201.5C 2324.05,5208.81 2323.38,5216.14 2323,5223.5C 2322.5,5324.17 2322.33,5424.83 2322.5,5525.5C 2278.5,5525.5 2234.5,5525.5 2190.5,5525.5C 2190.5,5352.17 2190.5,5178.83 2190.5,5005.5C 2234.5,5005.5 2278.5,5005.5 2322.5,5005.5C 2322.33,5019.84 2322.5,5034.17 2323,5048.5C 2356.94,5017.28 2396.78,4998.61 2442.5,4992.5 Z"/></g>
<g><path style="opacity:0.994" fill="#014348" d="M 3890.5,4992.5 C 3941.18,4989.84 3988.52,5001.01 4032.5,5026C 4054.42,5040.59 4072.26,5059.09 4086,5081.5C 4155.26,4994.8 4242.09,4971.3 4346.5,5011C 4378.53,5024.93 4404.7,5046.1 4425,5074.5C 4445.67,5103.83 4457.67,5136.49 4461,5172.5C 4461.89,5180.82 4462.55,5189.15 4463,5197.5C 4463.5,5306.83 4463.67,5416.17 4463.5,5525.5C 4419.83,5525.5 4376.17,5525.5 4332.5,5525.5C 4332.67,5417.5 4332.5,5309.5 4332,5201.5C 4328.97,5155.48 4305.47,5125.65 4261.5,5112C 4229.37,5102.42 4198.37,5105.09 4168.5,5120C 4142.14,5136.15 4126.31,5159.65 4121,5190.5C 4119.51,5302.13 4119.01,5413.8 4119.5,5525.5C 4075.83,5525.5 4032.17,5525.5 3988.5,5525.5C 3988.67,5418.5 3988.5,5311.5 3988,5204.5C 3985.77,5155.27 3960.93,5124.11 3913.5,5111C 3875.57,5100.36 3840.91,5106.7 3809.5,5130C 3790.22,5148.4 3778.72,5170.9 3775,5197.5C 3774.5,5306.83 3774.33,5416.17 3774.5,5525.5C 3730.83,5525.5 3687.17,5525.5 3643.5,5525.5C 3643.5,5352.17 3643.5,5178.83 3643.5,5005.5C 3687.17,5005.5 3730.83,5005.5 3774.5,5005.5C 3774.33,5018.84 3774.5,5032.17 3775,5045.5C 3807.7,5015.24 3846.2,4997.57 3890.5,4992.5 Z"/></g>
<g><path style="opacity:0.994" fill="#024348" d="M 6158.5,5247.5 C 6158.5,5260.17 6158.5,5272.83 6158.5,5285.5C 6147.42,5384.86 6098.42,5459.03 6011.5,5508C 5972.82,5528.08 5931.82,5538.92 5888.5,5540.5C 5883.17,5540.5 5877.83,5540.5 5872.5,5540.5C 5788.24,5536.28 5718.74,5502.28 5664,5438.5C 5606.42,5365.63 5589.09,5283.97 5612,5193.5C 5637.88,5112.23 5689.38,5053.39 5766.5,5017C 5831.49,4989.82 5897.83,4986.16 5965.5,5006C 6064.56,5040.72 6127.06,5108.89 6153,5210.5C 6155.26,5222.92 6157.09,5235.25 6158.5,5247.5 Z M 5873.5,5121.5 C 5926.97,5121.48 5969.47,5142.82 6001,5185.5C 6030.06,5229.8 6034.4,5276.46 6014,5325.5C 5985.69,5379.59 5940.85,5407.93 5879.5,5410.5C 5818.46,5408.42 5773.96,5380.42 5746,5326.5C 5720.98,5262.11 5733.14,5205.94 5782.5,5158C 5808.84,5135.83 5839.18,5123.66 5873.5,5121.5 Z"/></g>
<g><path style="opacity:0.995" fill="#014348" d="M 1408.5,4995.5 C 1420.5,4995.5 1432.5,4995.5 1444.5,4995.5C 1441.5,5036.17 1438.5,5076.83 1435.5,5117.5C 1387.11,5110.6 1343.77,5122.1 1305.5,5152C 1280.59,5174.65 1266.42,5202.82 1263,5236.5C 1262.5,5332.83 1262.33,5429.17 1262.5,5525.5C 1218.5,5525.5 1174.5,5525.5 1130.5,5525.5C 1130.5,5352.17 1130.5,5178.83 1130.5,5005.5C 1174.5,5005.5 1218.5,5005.5 1262.5,5005.5C 1262.33,5033.17 1262.5,5060.84 1263,5088.5C 1282.12,5052.67 1310.29,5026.51 1347.5,5010C 1367.28,5002.28 1387.62,4997.45 1408.5,4995.5 Z"/></g>
<g><path style="opacity:0.99" fill="#014348" d="M 2780.5,5005.5 C 2824.5,5005.5 2868.5,5005.5 2912.5,5005.5C 2912.5,5178.83 2912.5,5352.17 2912.5,5525.5C 2868.5,5525.5 2824.5,5525.5 2780.5,5525.5C 2780.5,5352.17 2780.5,5178.83 2780.5,5005.5 Z"/></g>
<g><path style="opacity:0.994" fill="#014348" d="M 3022.5,5005.5 C 3066.5,5005.5 3110.5,5005.5 3154.5,5005.5C 3154.33,5114.17 3154.5,5222.83 3155,5331.5C 3159.22,5379.4 3184.72,5409.23 3231.5,5421C 3271.73,5431.23 3307.39,5422.89 3338.5,5396C 3350.72,5383.4 3359.22,5368.57 3364,5351.5C 3367.08,5340.36 3369.08,5329.02 3370,5317.5C 3370.5,5213.5 3370.67,5109.5 3370.5,5005.5C 3414.5,5005.5 3458.5,5005.5 3502.5,5005.5C 3502.5,5178.83 3502.5,5352.17 3502.5,5525.5C 3458.5,5525.5 3414.5,5525.5 3370.5,5525.5C 3370.67,5511.5 3370.5,5497.5 3370,5483.5C 3302.92,5541.82 3227.76,5554.65 3144.5,5522C 3090.9,5499.73 3054.4,5461.23 3035,5406.5C 3029.29,5388.58 3025.62,5370.25 3024,5351.5C 3022.53,5236.18 3022.03,5120.85 3022.5,5005.5 Z"/></g>
</svg>
